<?xml version="1.0" standalone="no"?>
<!DOCTYPE svg PUBLIC "-//W3C//DTD SVG 20010904//EN"
 "http://www.w3.org/TR/2001/REC-SVG-20010904/DTD/svg10.dtd">
<svg version="1.0" xmlns="http://www.w3.org/2000/svg"
 width="1024.000000pt" height="1024.000000pt" viewBox="0 0 1024.000000 1024.000000"
 preserveAspectRatio="xMidYMid meet">
<metadata>
Created by potrace 1.14, written by Peter Selinger 2001-2017
</metadata>
<g transform="translate(0.000000,1024.000000) scale(0.100000,-0.100000)"
fill="#000000" stroke="none">
<path d="M9125 10229 c-154 -24 -267 -68 -405 -157 -59 -38 -8407 -8374 -8505
-8492 -97 -118 -164 -258 -195 -410 -25 -119 -21 -304 10 -424 23 -93 73 -220
96 -247 8 -8 14 -19 14 -23 0 -26 158 -213 226 -266 79 -63 241 -150 304 -164
14 -3 54 -14 90 -23 62 -17 283 -18 4360 -18 l4295 0 82 22 c394 105 682 425
732 813 5 36 8 1969 8 4295 0 4266 0 4277 -30 4390 -41 153 -146 327 -264 440
-123 117 -310 216 -473 251 -19 4 -42 9 -50 11 -34 8 -249 9 -295 2z"/>
</g>
</svg>
