<svg xmlns="http://www.w3.org/2000/svg" width="56" height="56" fill="none"><path fill="#2C2A2D" d="M28 56c15.44 0 28-12.56 28-28S43.44 0 28 0 0 12.56 0 28s12.56 28 28 28Zm0-53.32c14 0 25.36 11.36 25.36 25.36S42 53.4 28 53.4 2.64 42.04 2.64 28.04 14.04 2.68 28 2.68Z"/><path fill="#000" fill-rule="evenodd" d="M28.131 42.019c.288.167.615.255.948.255.345.007.684-.081.982-.255C32.207 40.752 43 34.019 43 25.86c0-4.955-2.9-7.645-5.613-8.505a7.912 7.912 0 0 0-8.293 2.344 7.908 7.908 0 0 0-8.292-2.344c-2.629.834-5.436 3.398-5.602 8.068h.784c.582 0 1.155.108 1.69.318.037-3.018 1.477-5.253 3.87-6.004a5.29 5.29 0 0 1 1.614-.255 5.497 5.497 0 0 1 4.524 2.42 1.75 1.75 0 0 0 2.866 0 5.396 5.396 0 0 1 6.089-2.165c2.42.769 3.87 3.06 3.87 6.123 0 6.52-9.3 12.532-11.416 13.815-1.203-.726-4.696-2.963-7.505-5.95a3.362 3.362 0 0 1-2.302 1.132h-.031c3.295 3.746 7.598 6.411 8.878 7.162Z" clip-rule="evenodd"/><path fill="#000" d="M18.787 32.42c-.19 0-.378-.044-.551-.126a1.35 1.35 0 0 1-.453-.353l-2.058-2.488a.104.104 0 0 0-.077-.04H11V26.77h4.648c.375 0 .747.082 1.09.244.342.162.647.399.895.694l1.035 1.249 2.52-3.922c.12-.19.284-.345.475-.452a1.274 1.274 0 0 1 1.247 0c.191.107.354.263.475.452l2.54 3.906.95-1.188c.245-.31.553-.56.902-.73.348-.172.729-.26 1.114-.26H34v2.64h-5.11a.11.11 0 0 0-.08.04l-1.966 2.47a1.33 1.33 0 0 1-.486.383 1.272 1.272 0 0 1-1.183-.06 1.351 1.351 0 0 1-.447-.433l-2.436-3.748-2.404 3.744a1.376 1.376 0 0 1-.443.428 1.307 1.307 0 0 1-.577.184l-.08.008Z"/></svg>
