<svg viewBox="0 0 235 211" fill="none" xmlns="http://www.w3.org/2000/svg">
<circle cx="130.001" cy="80" r="13" fill="#DCE9FE"/>
<path d="M226.423 143.841H8.56985C6.29757 143.839 4.11893 142.935 2.51219 141.329C0.905445 139.722 0.00199319 137.543 8.29123e-05 135.271V30.3337C-0.00610084 28.5914 0.333671 26.8654 0.999888 25.2556C1.66611 23.6457 2.64542 22.1842 3.88096 20.9559L20.9629 3.87395C22.1916 2.63939 23.6534 1.66122 25.2633 0.99623C26.8731 0.331239 28.5989 -0.00740515 30.3407 0.000122804H226.43C228.701 0.00202963 230.879 0.904578 232.485 2.50976C234.092 4.11495 234.996 6.29181 235 8.56284V135.264C235 137.539 234.096 139.72 232.488 141.329C230.879 142.937 228.698 143.841 226.423 143.841V143.841ZM9.38508 134.463H225.615V9.38512H30.3336C29.8261 9.38261 29.3232 9.48079 28.8539 9.67395C28.3846 9.86711 27.9583 10.1515 27.5996 10.5105L10.5175 27.5924C10.1575 27.9507 9.87218 28.3768 9.67779 28.846C9.4834 29.3153 9.38391 29.8185 9.38508 30.3264V134.463Z" fill="#2C2A2D"/>
<path d="M227.007 175.358H7.98503C5.86897 175.354 3.8409 174.511 2.34529 173.014C0.849686 171.517 0.0087423 169.488 0.00683594 167.372V150.225H9.38461V165.994H225.615V150.225H234.992V167.386C234.985 169.501 234.14 171.526 232.644 173.019C231.148 174.513 229.121 175.354 227.007 175.358V175.358Z" fill="#2C2A2D"/>
<path d="M167.256 210.221H157.878V194.229L155.267 191.617H119.609V182.239H155.844C156.893 182.236 157.933 182.441 158.902 182.842C159.872 183.243 160.752 183.833 161.492 184.577L164.919 188.01C165.661 188.75 166.25 189.629 166.651 190.597C167.053 191.565 167.258 192.603 167.256 193.651V210.221Z" fill="#2C2A2D"/>
<path d="M81.3417 210.221H71.9639V193.63C71.9616 192.582 72.167 191.544 72.5681 190.575C72.9693 189.607 73.5583 188.728 74.3011 187.989L77.7348 184.555C78.4742 183.812 79.3532 183.223 80.3214 182.822C81.2897 182.421 82.3278 182.216 83.3758 182.218H119.61V191.596H83.989L81.3776 194.207L81.3417 210.221Z" fill="#2C2A2D"/>
<path d="M127.161 150.413H112.056V159.79H127.161V150.413Z" fill="#2C2A2D"/>
<path d="M116.148 119.11H65.7648C63.9831 119.106 62.2756 118.396 61.0171 117.135C59.7586 115.873 59.0518 114.164 59.0518 112.383V64.2515C59.0478 62.5729 59.3762 60.9101 60.018 59.3591C60.6597 57.808 61.6021 56.3993 62.7909 55.2142L74.1956 43.8239C75.3771 42.6293 76.7848 41.6821 78.3365 41.0376C79.8882 40.3931 81.5527 40.0643 83.2329 40.0704H116.148V49.5552H83.2329C82.7979 49.55 82.3664 49.6331 81.9645 49.7993C81.5625 49.9656 81.1984 50.2115 80.8942 50.5224L69.4894 61.9128C69.1825 62.22 68.939 62.5846 68.7731 62.9859C68.6071 63.3872 68.5218 63.8172 68.5221 64.2515V109.625H116.162L116.148 119.11Z" fill="black"/>
<path d="M166.516 119.11H116.147V109.625H163.788V64.2515C163.788 63.8172 163.703 63.3872 163.537 62.9859C163.371 62.5846 163.127 62.22 162.821 61.9128L151.416 50.5224C151.112 50.2115 150.747 49.9656 150.345 49.7993C149.943 49.6331 149.512 49.55 149.077 49.5552H116.147V40.0704H149.048C150.728 40.0643 152.393 40.3931 153.945 41.0376C155.496 41.6821 156.904 42.6293 158.085 43.8239L169.49 55.2142C170.679 56.3993 171.621 57.808 172.263 59.3591C172.905 60.9101 173.233 62.5729 173.229 64.2515V112.354C173.233 113.238 173.062 114.115 172.727 114.934C172.391 115.752 171.898 116.497 171.274 117.124C170.651 117.752 169.909 118.25 169.093 118.591C168.277 118.932 167.401 119.108 166.516 119.11Z" fill="black"/>
<path d="M130.388 102.565C125.991 102.565 121.693 101.261 118.037 98.8184C114.381 96.3755 111.531 92.9033 109.849 88.8409C108.166 84.7785 107.726 80.3084 108.583 75.9957C109.441 71.6831 111.559 67.7217 114.668 64.6125C117.777 61.5033 121.739 59.3858 126.051 58.528C130.364 57.6702 134.834 58.1105 138.896 59.7932C142.959 61.4759 146.431 64.3254 148.874 67.9815C151.317 71.6376 152.621 75.9359 152.621 80.333C152.613 86.227 150.268 91.8774 146.101 96.0451C141.933 100.213 136.282 102.557 130.388 102.565V102.565ZM130.388 67.5711C127.864 67.5711 125.397 68.3196 123.298 69.7219C121.2 71.1242 119.564 73.1173 118.598 75.4493C117.632 77.7812 117.379 80.3472 117.872 82.8227C118.364 85.2983 119.58 87.5722 121.364 89.357C123.149 91.1417 125.423 92.3572 127.899 92.8496C130.374 93.342 132.94 93.0894 135.272 92.1234C137.604 91.1575 139.597 89.5218 140.999 87.4231C142.402 85.3245 143.15 82.8571 143.15 80.333C143.139 76.9546 141.79 73.7182 139.398 71.3319C137.006 68.9457 133.767 67.6038 130.388 67.6001V67.5711Z" fill="black"/>
<path d="M93.5133 60.4116H80.9824V69.8819H93.5133V60.4116Z" fill="black"/>
<path d="M141.923 21.6924H118.767V31.1627H141.923V21.6924Z" fill="black"/>
</svg>
