<svg width="120" height="45"  xmlns="http://www.w3.org/2000/svg"><path fill-rule="evenodd" clip-rule="evenodd" d="M75.179 7.5 69.86 8.63v21.468h5.318V7.5Zm-15.14 6.418a8.205 8.205 0 1 0 0 16.41 8.205 8.205 0 0 0 0-16.41Zm0 10.863a2.66 2.66 0 1 1 0-5.318 2.66 2.66 0 0 1 0 5.318Zm1.478 7.907a2.659 2.659 0 1 0-2.955 4.421 2.659 2.659 0 0 0 2.955-4.42ZM48.209 18.15A6.983 6.983 0 0 0 42.27 7.5H34V30.1h9.305a6.982 6.982 0 0 0 4.904-11.95Zm-8.884-5.332h2.954a1.662 1.662 0 0 1 0 3.324h-2.954v-3.324Zm3.988 11.964h-3.988v-3.323h3.988a1.662 1.662 0 1 1 0 3.323Zm41.91-10.56v5.317h-2.65v4.172c0 1.263.406 2.194 1.47 2.194a4.44 4.44 0 0 0 1.188-.156v3.915a5.481 5.481 0 0 1-2.592.664h-.066c-.033 0-.065-.002-.096-.004a1.563 1.563 0 0 0-.096-.003h-.052c-.015 0-.031-.002-.048-.004a.44.44 0 0 0-.048-.004c-2.969-.155-4.985-2.023-4.985-5.265V11.288l5.317-1.13v4.062h2.659Z"  /></svg>