<svg width="150" height="45" viewBox="0 0 150 45" fill="none" xmlns="http://www.w3.org/2000/svg">
<g clip-path="url(#clip0_159_3614)">
<path fill-rule="evenodd" clip-rule="evenodd" d="M40.0293 22.0509V22.0049C40.0293 17.4764 43.5493 13.6414 48.5023 13.6414C50.9668 13.6414 52.6093 14.2184 54.1118 15.2814C54.2935 15.4143 54.4413 15.5881 54.5433 15.7887C54.6453 15.9894 54.6985 16.2113 54.6988 16.4364C54.6988 17.1994 54.0653 17.8464 53.2668 17.8464C52.8913 17.8464 52.6098 17.6844 52.3748 17.5224C51.3188 16.7604 50.1688 16.2514 48.3848 16.2514C45.3573 16.2514 43.0573 18.8629 43.0573 21.9584V22.0049C43.0573 25.3319 45.2868 27.7809 48.6433 27.7809C50.1923 27.7809 51.6003 27.2959 52.6098 26.5564V23.5299H49.3708C48.6663 23.5299 48.0803 22.9989 48.0803 22.3059C48.0803 21.6124 48.6663 21.0579 49.3708 21.0579H53.9478C54.7688 21.0579 55.4028 21.6819 55.4028 22.4909V26.8109C55.4028 27.6194 55.0743 28.1974 54.3938 28.6129C52.9853 29.5374 51.0138 30.3689 48.5498 30.3689C43.4088 30.3684 40.0293 26.7649 40.0293 22.0509ZM57.9913 14.4959C57.9913 13.7334 58.6013 13.1094 59.3988 13.1094C60.1973 13.1094 60.8308 13.7334 60.8308 14.4959V28.8209C60.8308 29.6064 60.1968 30.2069 59.3988 30.2069C58.6248 30.2069 57.9913 29.6069 57.9913 28.8204V14.4954V14.4959ZM63.0308 24.0614V24.0144C63.0308 20.5259 65.8468 17.6379 69.6493 17.6379C73.4513 17.6379 76.2448 20.4799 76.2448 23.9689V24.0144C76.2448 27.4809 73.4283 30.3689 69.6023 30.3689C65.8233 30.3689 63.0308 27.5269 63.0308 24.0614ZM73.4048 24.0614V24.0144C73.4048 21.8664 71.8318 20.0874 69.6023 20.0874C67.3253 20.0874 65.8703 21.8434 65.8703 23.9689V24.0144C65.8703 26.1404 67.4428 27.9194 69.6493 27.9194C71.9493 27.9194 73.4043 26.1634 73.4043 24.0614H73.4048ZM83.3353 30.3224H83.1943C82.4203 30.3224 81.9033 29.8374 81.5753 29.0974L77.4453 19.7864C77.3743 19.5784 77.2803 19.3484 77.2803 19.0934C77.2803 18.4004 77.9138 17.7534 78.6883 17.7534C79.4623 17.7534 79.8613 18.1924 80.0963 18.7704L83.2883 26.8564L86.5273 18.7244C86.7388 18.2389 87.1138 17.7534 87.8653 17.7534C88.6398 17.7534 89.2498 18.3314 89.2498 19.0934C89.2498 19.3484 89.1563 19.6254 89.0863 19.7634L84.9553 29.0979C84.6253 29.8139 84.1103 30.3229 83.3353 30.3229V30.3224ZM90.2853 24.0614V24.0144C90.2853 20.5259 93.1018 17.6379 96.9053 17.6379C100.706 17.6379 103.5 20.4799 103.5 23.9689V24.0144C103.5 27.4809 100.683 30.3689 96.8573 30.3689C93.0788 30.3689 90.2853 27.5269 90.2853 24.0614ZM100.66 24.0614V24.0144C100.66 21.8664 99.0873 20.0874 96.8573 20.0874C94.5808 20.0874 93.1258 21.8434 93.1258 23.9689V24.0144C93.1258 26.1404 94.6978 27.9194 96.9048 27.9194C99.2043 27.9194 100.66 26.1634 100.66 24.0614H100.66Z" fill="black" fill-opacity="0.4"/>
<path fill-rule="evenodd" clip-rule="evenodd" d="M108.248 6.56348C105.173 6.56348 102.672 9.02698 102.672 12.0535C102.672 13.2065 103.036 14.3135 103.723 15.2545L103.872 15.457L106.775 19.4905C106.775 19.4905 107.129 20.0605 107.902 20.0605H108.595C109.368 20.0605 109.721 19.4905 109.721 19.4905L112.625 15.457L112.772 15.2545C113.456 14.3273 113.825 13.2055 113.825 12.0535C113.825 9.02698 111.323 6.56348 108.248 6.56348ZM110.543 13.6745L110.389 13.8875L108.249 16.861L106.112 13.8935L105.955 13.678C105.607 13.2078 105.419 12.6384 105.418 12.0535C105.418 10.517 106.688 9.26698 108.248 9.26698C109.809 9.26698 111.078 10.517 111.078 12.0535C111.078 12.636 110.893 13.1965 110.543 13.6745ZM106.68 22.537V22.526C106.68 21.706 107.341 21.0265 108.235 21.0265C109.129 21.0265 109.785 21.6945 109.785 22.515V22.526C109.785 23.34 109.123 24.019 108.224 24.019C107.337 24.019 106.679 23.3515 106.679 22.537H106.68Z" fill="black" fill-opacity="0.4"/>
</g>
<defs>
<clipPath id="clip0_159_3614">
<rect width="74" height="24" fill="white" transform="translate(40 6.5)"/>
</clipPath>
</defs>
</svg>
