<svg width="579" height="196" viewBox="0 0 579 196" xmlns="http://www.w3.org/2000/svg">
<path d="M237.15 78.3623H246.427V106.08C246.427 115.233 251.824 120.724 258.91 120.724C266.072 120.724 271.389 115.233 271.389 106.08V78.3623H280.668V108.071C280.668 119.607 272.134 129.465 258.91 129.465C245.684 129.465 237.15 119.607 237.15 108.071V78.3623Z" />
<path d="M332.17 128.388V78.3604H322.993V109.575L296.06 78.3604H291.048V128.303H300.224V97.2211L327.098 128.388H332.17Z" />
<path d="M352.672 78.3623H343.147V128.305H352.672V78.3623Z" />
<path fill-rule="evenodd" clip-rule="evenodd" d="M413.771 103.331C413.771 88.6505 401.917 76.7539 387.291 76.7539C372.669 76.7539 360.813 88.6505 360.813 103.331C360.813 118.005 372.669 129.909 387.291 129.909C392.856 129.909 398.015 128.181 402.277 125.238L406.597 129.616L412.634 123.496L408.475 119.277C411.798 114.834 413.771 109.314 413.771 103.331ZM387.291 121.563C377.797 121.563 370.096 113.399 370.096 103.331C370.096 93.2559 377.797 85.0937 387.291 85.0937C396.788 85.0937 404.487 93.2559 404.487 103.331C404.487 106.771 403.586 109.99 402.024 112.737L396.33 106.966L390.291 113.083L396.111 118.985C393.529 120.623 390.516 121.563 387.291 121.563Z" />
<path d="M452.836 128.303H462.999L442.01 78.3604H435.618L414.079 128.303H423.967L427.844 118.897H449.081L452.836 128.303ZM431.226 110.684L438.628 92.7217L445.8 110.684H431.226Z" />
<path d="M150.709 127.58H117L120.865 120.602H140.665C141.533 121.416 142.438 122.189 143.373 122.92C145.592 124.65 148.054 126.271 150.709 127.58Z" />
<path d="M158.129 76.9248C157.04 77.8514 150.077 91.5751 158.642 103.649C161.058 107.055 164.586 111.205 168.722 113.637C173.023 116.169 175.899 116.81 177.744 117.318C180.993 118.213 186.025 118.583 192.507 118.938C197.757 119.228 208.506 119.289 210.382 119.284L212.384 119.294L216.985 128.18C216.985 128.18 201.369 128.251 194.109 127.853C185.945 127.407 179.602 126.939 175.51 125.812C173.187 125.173 169.567 124.362 164.146 121.176C158.937 118.113 153.597 112.752 150.823 108.278C144.14 97.4872 145.817 90.2442 146.696 86.6884C148.603 84.0096 151.065 81.4381 153.723 79.5272C155.648 78.1219 156.851 77.5706 158.129 76.9248Z" />
<path d="M168.946 127.023C166.961 127.408 165.029 127.585 163.222 127.581C156.619 127.57 150.401 124.432 145.266 120.428C139.106 115.621 134.603 108.937 133.462 101.66C133.296 100.812 133.221 99.9537 133.098 98.7521C132.641 93.7684 133.347 87.4996 136.796 81.5066C139.78 76.3243 144.226 71.8332 151.552 68.7262C154.609 67.4306 161.172 65.9714 168.771 68.0199C176.756 70.2505 183.735 75.2713 188.222 81.8645C188.222 81.8645 181.337 72.7933 169.556 71.7523C169.024 71.7069 168.492 71.6772 167.956 71.6697C162.137 71.5517 156.571 73.5823 151.934 76.96C148.967 79.093 146.365 81.7809 144.349 84.8731C144.238 85.044 143.882 85.5756 143.411 86.4232L143.27 86.6769C143.171 86.8583 143.068 87.0525 142.964 87.2588C141.535 90.0322 139.538 94.9962 139.458 101.267C139.357 109.342 142.929 115.164 144.268 117.127C144.302 117.179 147.625 119.454 152.655 120.426C154.694 120.818 156.614 120.887 158.253 120.841C159.633 121.967 161.088 123 162.595 123.889C165.038 125.326 167.143 126.309 168.946 127.023Z" />
<path d="M181.787 79.7217C186.13 82.337 192.384 90.5382 192.671 97.9931C193.133 105.11 189.609 112.058 187.258 115.456C183.449 115.177 180.561 114.833 178.558 114.281C177.935 114.11 177.187 113.924 176.297 113.644C178.792 111.315 182.503 106.928 184.386 100.19C186.985 90.7874 184.42 84.3977 181.787 79.7217Z" />
</svg>
