<svg width="150" height="61" fill="none" xmlns="http://www.w3.org/2000/svg"><path d="M50.021 37.094v-5.972L47.48 35.4l-2.582-4.278v5.972H43v-8.473h2.461l2.018 3.47 1.937-3.47h2.502v8.473H50.02ZM55.432 28.62h-1.897v8.474h1.897v-8.473ZM56.28 28.62h6.496v1.776h-2.3v6.698h-1.937v-6.698h-2.26v-1.775ZM63.454 37.014V35.24c.404.08 1.332.242 2.502.242.969 0 1.453-.121 1.453-.686 0-.605-.404-.686-1.776-1.332-1.331-.605-2.34-1.13-2.34-2.582 0-1.776 1.09-2.381 3.188-2.381 1.09 0 1.856.08 2.38.161v1.776c-.484-.04-1.331-.162-2.3-.162-1.13 0-1.372.122-1.372.606s.606.726 1.534 1.13c1.412.645 2.542 1.17 2.542 2.784 0 1.694-1.05 2.461-3.309 2.461a23.934 23.934 0 0 1-2.502-.242ZM70.44 34.23v-5.61h1.896v5.529c0 .968.565 1.291 1.493 1.291.888 0 1.493-.323 1.493-1.291V28.62h1.897v5.608c0 2.058-1.332 2.986-3.39 2.986s-3.39-.928-3.39-2.986ZM78.832 28.62h3.712c1.735 0 2.704.646 2.704 2.18 0 1.21-.686 1.614-1.332 1.856.767.242 1.574.645 1.574 2.058 0 1.493-.888 2.38-2.784 2.38h-3.834v-8.473h-.04Zm3.43 3.43c.767 0 1.049-.403 1.049-.968 0-.686-.323-.847-1.05-.847H80.73v1.816h1.533Zm.12 3.47c.768 0 1.09-.282 1.09-1.008 0-.646-.282-.928-1.008-.928h-1.736v1.937h1.655ZM88.475 28.62h-1.897v8.474h1.897v-8.473ZM89.847 37.014V35.24c.404.08 1.332.242 2.502.242.968 0 1.452-.121 1.452-.686 0-.605-.403-.686-1.775-1.332-1.332-.605-2.34-1.13-2.34-2.582 0-1.776 1.089-2.381 3.187-2.381 1.09 0 1.856.08 2.381.161v1.776c-.484-.04-1.332-.162-2.3-.162-1.13 0-1.372.122-1.372.606s.605.726 1.533 1.13c1.413.645 2.543 1.17 2.543 2.784 0 1.694-1.05 2.461-3.31 2.461a25.05 25.05 0 0 1-2.501-.242ZM101.634 37.094v-3.349h-3.027v3.35h-1.896V28.62h1.896v3.349h3.027v-3.35h1.896v8.474h-1.896ZM107 28.62h-1.896v8.474H107v-8.473ZM58.896 48.514v-5.972l-2.542 4.277-2.542-4.277v5.972h-1.937V40.04h2.461l2.018 3.43 1.977-3.43h2.502v8.474h-1.937ZM62.125 44.277c0-3.026 1.17-4.358 3.672-4.358 2.502 0 3.672 1.332 3.672 4.358s-1.17 4.358-3.672 4.358c-2.502 0-3.672-1.332-3.672-4.358Zm5.326 0c0-1.735-.282-2.623-1.694-2.623-1.372 0-1.695.888-1.695 2.623 0 1.735.282 2.623 1.695 2.623 1.412 0 1.694-.888 1.694-2.623ZM69.752 40.04h6.497v1.776h-2.3v6.698h-1.897v-6.699h-2.3V40.04ZM76.576 44.277c0-3.026 1.17-4.358 3.672-4.358 2.502 0 3.672 1.332 3.672 4.358s-1.17 4.358-3.672 4.358c-2.502 0-3.672-1.332-3.672-4.358Zm5.327 0c0-1.735-.283-2.623-1.695-2.623-1.412 0-1.695.888-1.695 2.623 0 1.735.282 2.623 1.695 2.623 1.412 0 1.695-.888 1.695-2.623ZM85.164 40.04h3.43c1.816 0 2.986.686 2.986 2.704 0 1.331-.646 2.178-1.735 2.42l2.098 3.35h-2.22l-1.775-3.027h-.847v3.027h-1.897V40.04h-.04Zm3.35 3.793c.847 0 1.129-.444 1.129-1.09 0-.645-.282-1.089-1.13-1.089h-1.412v2.18h1.412ZM92.714 48.393v-1.776c.404.081 1.332.243 2.502.243.968 0 1.453-.121 1.453-.686 0-.606-.404-.686-1.776-1.332-1.332-.605-2.34-1.13-2.34-2.582 0-1.776 1.09-2.381 3.188-2.381 1.089 0 1.856.08 2.38.161v1.776c-.484-.04-1.331-.162-2.3-.162-1.13 0-1.372.121-1.372.565 0 .484.606.727 1.534 1.13 1.412.646 2.542 1.17 2.542 2.784 0 1.695-1.05 2.462-3.31 2.462-.847.04-1.694-.04-2.5-.202ZM77.828 15.748 75.362 11.5l-2.454 4.248 2.454 4.261 2.466-4.26ZM77.826 24.257h4.907L80.28 20.01h-4.92l2.467 4.248Z" fill="#000" fill-opacity=".4"/><path d="M72.908 24.257H68l2.454-4.248h4.908l-2.454 4.248Z" fill="#000" fill-opacity=".4"/></svg>