<svg width="150" height="43" viewBox="0 0 150 43" fill="none" xmlns="http://www.w3.org/2000/svg">
<path fill-rule="evenodd" clip-rule="evenodd" d="M65.352 0.712962C60.3919 0.825733 56.9175 4.20137 55.2887 6.20065C55.2887 6.20065 55.2173 6.28576 55.1601 6.35665C55.0922 6.33667 55.0254 6.313 54.9601 6.28576C51.5578 5.06622 47.7129 4.83933 43.8389 5.61933C40.1091 6.38377 34.7618 8.29927 30.8726 11.4048C24.0553 16.864 20.4672 23.4437 20.7674 29.938C20.939 33.6971 22.6829 36.943 25.7992 39.3252C30.9166 43.2531 39.3645 42.3453 42.7673 41.7782C46.5696 41.1403 106.078 30.5617 113.897 29.0729C121.002 27.7258 127.763 25.3294 129.121 17.0058C129.207 16.5141 129.25 16.016 129.25 15.5169V15.4592C129.25 13.4186 128.606 11.517 127.492 10.2269C125.405 7.83046 121.902 7.54692 119.458 7.53269C116.056 7.51846 79.5478 8.21335 75.4026 8.29847H75.1311C75.1166 8.17093 75.1024 8.04312 75.1024 8.04312C74.8998 6.43303 74.2174 4.92115 73.144 3.7041C71.8847 2.28693 69.5119 0.613615 65.352 0.712962ZM65.3091 12.794C67.3814 12.7089 69.4113 11.7874 69.5686 9.64609C69.683 8.21389 68.5682 6.73926 66.2953 6.61199C65.1477 6.51014 64.0005 6.81089 63.0504 7.46261C62.4162 7.9363 61.9705 8.61962 61.7928 9.39101C61.564 10.3128 61.6784 11.0783 62.1214 11.6733C62.7221 12.4533 63.8653 12.8504 65.3091 12.794ZM123.231 17.7007C123.774 17.6156 124.389 16.9349 124.689 16.2827C124.766 16.3807 124.809 16.4822 124.845 16.5665C124.881 16.6531 124.91 16.7216 124.961 16.7499C124.675 17.8425 123.56 18.7777 122.745 18.8628L122.617 18.877L122.56 19.0046C121.773 20.8481 120.358 21.9683 118.286 22.2803C117.46 22.4099 116.616 22.213 115.933 21.7313C115.25 21.2496 114.782 20.521 114.626 19.6997L114.555 19.3593C113.083 22.5638 111.353 23.2445 110.052 23.4287C109.509 23.5138 107.665 23.528 107.865 21.3585C107.998 20.1243 108.242 18.9046 108.594 17.7144C108.852 16.9625 109.015 16.1813 109.08 15.3889C109.105 15.0916 109.012 14.7965 108.822 14.5665C108.767 14.5098 108.7 14.4655 108.626 14.4362C108.552 14.4069 108.472 14.3933 108.393 14.3962C107.592 14.4529 106.892 16.5088 106.635 17.5866C106.635 17.5866 105.162 23.8261 105.091 24.1381C104.95 24.1529 103.972 24.3136 102.994 24.4743C102.093 24.6224 101.192 24.7705 100.945 24.8045L102.218 19.6576L101.947 19.842C101.64 20.0506 101.308 20.2218 100.961 20.3522L100.832 20.3946L100.804 20.5364C100.145 23.741 97.9872 25.5842 94.3995 26.1089C91.6264 26.52 89.7823 25.5842 89.3677 23.273L89.2678 22.6917L89.096 23.0037L88.9674 23.2305C88.08 24.7763 86.1935 27.4407 83.5447 27.8268C82.5872 27.9686 81.772 27.7559 81.2004 27.2313C80.5858 26.6642 80.2856 25.7424 80.3143 24.5798C80.3562 23.0211 80.8677 21.5441 81.3182 20.2432L81.3435 20.1701L81.4866 19.7448C81.4866 19.7396 81.5908 19.3774 81.7303 18.8928C81.9739 18.0463 82.325 16.8263 82.4156 16.4836C82.5587 15.9305 82.1729 15.2074 81.4152 15.5194C81.1223 15.673 80.8977 15.9311 80.7861 16.2425C80.6397 16.4948 80.53 17.0826 80.3639 17.9729C80.3527 18.0328 80.3413 18.094 80.3296 18.1566C80.32 18.2079 80.3101 18.2602 80.3001 18.3136C79.8947 20.4721 79.1807 24.2734 77.7998 26.2386C75.9995 28.8052 73.9556 29.3441 73.1547 29.4574C71.2112 29.741 69.4958 29.2305 68.5095 28.3796C66.3508 30.0527 63.2632 31.0453 61.5051 31.2722C57.2882 31.8109 56.3592 29.1451 57.0452 26.6497C57.057 26.5986 57.0618 26.5461 57.0595 26.4937C54.1575 29.8967 50.2266 33.1437 45.4236 34.037C40.0344 35.0436 36.9611 34.2223 34.4882 31.9669C32.7013 30.3505 31.6294 26.7772 32.4441 23.828C34.8743 15.0788 43.3368 11.1226 48.9259 10.9666C52.5293 10.8662 54.1446 11.5751 55.5311 13.0073C56.389 13.9006 56.8036 15.1059 56.7606 16.5805C56.6747 19.3039 54.6735 21.133 52.2148 21.3599C51.1142 21.459 50.1423 21.1612 49.4847 20.5232C48.8129 19.871 48.4697 18.8784 48.5127 17.6449C48.5694 15.7307 50.1702 14.1852 51.1709 13.6605C51.5496 13.4459 51.9466 13.2656 52.3574 13.1216C52.7438 12.4976 46.5115 10.6544 42.6376 18.8217C41.9014 20.2958 41.396 21.8742 41.1391 23.5017C40.4957 26.9048 41.4535 29.3301 43.1117 30.3505C44.3267 31.102 46.2565 31.2153 48.7152 30.5773C53.3466 29.3863 57.8352 23.5455 59.3791 19.2763C60.1234 17.2091 60.8549 14.9765 61.1005 14.2272C61.1143 14.185 61.1266 14.1476 61.1372 14.1151C61.262 14.109 62.379 14.0711 63.6831 14.0269C65.5174 13.9648 67.7217 13.8901 68.0558 13.8734C67.87 14.469 64.5824 24.1534 64.5824 24.1534C64.4823 24.4512 63.7675 26.7343 64.2964 27.4431C64.4519 27.6037 64.6426 27.7258 64.8536 27.7996C65.0645 27.8735 65.2898 27.897 65.5114 27.8684C66.2432 27.7748 66.7209 27.4877 67.2281 27.1829C67.3351 27.1186 67.4433 27.0535 67.5555 26.9893C67.0379 26.1986 66.8434 25.2393 67.0124 24.3094C67.3695 22.4368 69.3991 20.963 71.2574 22.1683C72.1867 22.7781 72.5868 24.0543 71.7007 25.5147C71.2483 26.2191 70.6602 26.8265 69.9707 27.3013C70.4016 27.5094 70.8892 27.5693 71.3576 27.4716C73.7448 27.1738 74.5463 24.8343 75.0028 21.4171L75.0315 21.3038C75.3599 18.4678 75.9463 15.5895 78.0903 13.6753C80.1202 11.8602 82.8219 13.5617 82.9363 14.8379L83.3796 13.2782C83.3796 13.2782 87.9108 13.1931 88.4398 13.1788C88.2679 13.7459 85.9094 22.2962 85.9094 22.2962L85.8237 23.0748V23.089C85.8193 23.1877 85.8347 23.2862 85.8691 23.3788C85.9034 23.4714 85.956 23.5561 86.0238 23.6279C86.0836 23.6907 86.1579 23.7378 86.2403 23.765C86.3226 23.7923 86.4104 23.7987 86.4958 23.7839C87.4393 23.6846 88.6543 21.728 89.3546 19.9271C89.3625 19.9192 89.366 19.9069 89.3701 19.8926C89.3733 19.8814 89.3769 19.8688 89.3833 19.8563L89.3975 19.842V19.8122C89.4952 19.3004 89.6193 18.7939 89.7694 18.2949L89.9125 17.7987C89.9125 17.7987 90.8254 13.9986 91.0402 13.1195C91.3404 13.1053 95.4859 12.9493 95.4859 12.9493C95.4859 12.9493 93.1848 22.5061 93.1561 23.6548C93.1346 23.8607 93.1552 24.0688 93.2168 24.2664C93.2784 24.464 93.3796 24.647 93.5142 24.8042C93.5872 24.875 93.6752 24.9284 93.7717 24.9604C93.8681 24.9923 93.9706 25.002 94.0714 24.9887C95.4582 24.8045 96.4586 23.571 96.8445 21.2313L96.9019 20.8768L96.573 20.9762C93.7148 21.8126 93.5712 15.9283 98.3599 15.5312C100.219 15.3747 100.705 17.2606 100.776 17.8135C100.835 18.0605 100.874 18.312 100.891 18.5653L100.92 18.8206L101.161 18.764C101.661 18.6364 102.247 18.1684 102.676 17.6014L103.906 12.681C104.119 12.681 105.709 12.6259 106.687 12.5919C107.019 12.5804 107.281 12.5713 107.393 12.5677C107.322 12.8939 107.065 14.085 107.065 14.085L107.623 13.461C108.32 12.8415 109.196 12.4593 110.124 12.3693C111.683 12.2549 113.184 12.7371 112.955 15.1617C112.843 16.1678 112.652 17.1635 112.383 18.1394C112.209 18.6985 112.089 19.2731 112.026 19.8552C112.02 19.9452 112.032 20.0354 112.062 20.1206C112.091 20.2058 112.137 20.2843 112.198 20.3514C112.243 20.3944 112.297 20.4269 112.356 20.4464C112.416 20.466 112.479 20.4723 112.541 20.4647C113.17 20.3938 114.041 18.6496 114.513 17.4161C114.524 17.3939 114.529 17.3696 114.528 17.3452L114.542 17.331V17.3167C114.971 13.7585 117.758 12.1137 119.673 12.0004C122.788 11.8312 123.261 13.9006 123.218 15.8856C123.204 16.3112 122.989 17.7574 122.989 17.7574L123.231 17.7007ZM70.4122 24.521C70.8267 23.6148 70.5265 23.1599 69.7833 23.1315C68.8538 23.0888 67.939 24.7336 68.8683 26.194C69.6257 25.6269 70.2121 24.9605 70.4122 24.521ZM96.4141 19.6433C96.885 19.5582 97.1715 19.4304 97.3146 19.232C97.3146 19.232 97.4717 18.4522 97.1431 18.0696C97.0568 18.0131 96.957 17.9807 96.854 17.9757C96.751 17.9707 96.6485 17.9933 96.5572 18.0412C96.1569 18.2254 95.6851 18.9202 95.785 19.3456C95.7995 19.4589 95.9281 19.7284 96.4141 19.6433ZM118.628 20.9762C119.428 20.8768 119.829 19.9126 120.129 19.0193L120.201 18.7497C119.886 18.5562 119.63 18.2815 119.459 17.9546C119.288 17.6276 119.209 17.2606 119.229 16.8922C119.386 14.7936 120.801 14.737 120.801 14.737L120.816 14.6518C120.887 13.943 120.772 13.3475 120.487 13.0354C120.424 12.9657 120.347 12.9105 120.26 12.8738C120.174 12.8371 120.08 12.8197 119.987 12.8228C118.628 12.8797 117.628 17.6298 117.585 19.5298C117.571 20.3379 117.685 20.5643 117.956 20.806C118.049 20.8813 118.157 20.9356 118.273 20.965C118.389 20.9944 118.51 20.9982 118.628 20.9762ZM120.329 16.2118C120.071 16.5096 120.058 17.3463 120.515 17.6298H120.515C120.652 17.1251 120.734 16.6068 120.759 16.0843C120.683 16.0551 120.6 16.0518 120.522 16.0749C120.444 16.098 120.376 16.1461 120.329 16.2118Z" fill="#A0A3A9"/>
</svg>
