<svg width="579" height="196" viewBox="0 0 579 196" xmlns="http://www.w3.org/2000/svg">
<path d="M98 67.3784C101.715 68.2593 107.192 66.2907 109.138 70.6646C115.725 83.158 120.39 96.6013 126.189 109.516C132.47 96.7469 136.966 83.1427 143.6 70.5573C145.73 66.0303 151.658 68.4278 155.511 67.5699C152.447 80.3621 145.553 91.7296 140.299 103.664C135.925 112.626 132.639 122.201 126.802 130.351C122.727 127.05 120.804 122.048 118.628 117.452C111.969 102.643 105.093 87.9455 98 73.3609V67.3784Z" />
<path d="M161.847 68.4895C164.643 66.5439 169.798 66.9269 170.656 70.6879C172.448 83.5261 169.637 96.732 172.127 109.471C175.321 121.589 194.816 122.217 199.074 110.581C202.269 97.6971 199.189 84.2232 200.836 71.1629C201.449 65.2493 211.775 66.5669 211.139 72.4268C211.591 83.8402 211.484 95.2995 211.139 106.736C211.07 115.407 206.007 124.124 197.65 127.242C185.172 132.443 167.194 128.912 162.008 115.124C158.515 104.423 160.698 92.9173 160.047 81.8945C160.491 77.5053 158.974 72.2736 161.847 68.4895Z" />
<path d="M236.317 66.4292C240.253 65.6746 244.315 65.9179 248.132 67.1368C251.95 68.3558 255.401 70.5116 258.171 73.4074C262.315 77.8885 255.268 84.8974 250.879 80.6691C246.237 77.0076 237.359 73.6066 235.183 81.6419C238.607 89.662 250.128 89.976 256.47 95.5678C267.041 101.252 266.842 117.284 257.895 124.346C245.961 133.944 225.156 129.823 218.477 115.79C216.73 111.554 221.035 108.452 224.819 108.23C230.863 110.65 233.621 118.51 240.691 118.916C246.918 120.348 254.594 113.454 251.576 107.188C244.766 97.9501 229.936 99.528 224.298 88.9802C219.404 79.7499 226.221 67.8769 236.317 66.4292Z" />
<path d="M274.899 79.5204C284.903 64.4302 308.182 61.4045 321.748 73.3847C330.396 80.0642 333.567 91.2019 333.567 101.727C330.235 100.279 326.949 98.6627 323.716 96.9775C320.43 89.4784 316.991 80.4932 308.396 77.7279C296.822 72.9251 282.85 81.2592 280.614 93.3543C277.243 106.821 290.112 121.153 303.923 118.816C311.307 118.249 316.217 112.275 320.775 107.158C323.848 108.756 327.001 110.198 330.22 111.478C322.437 127.541 300.989 134.581 285.493 125.411C269.376 117.077 264.007 94.0744 274.899 79.5204Z" />
<path d="M298.853 102.837C304.72 94.9549 314.977 93.5991 323.717 96.9542C326.949 98.624 330.236 100.256 333.568 101.703C341.894 106.008 349.301 99.1449 355.322 94.2349C356.203 107.617 341.465 113.844 330.213 111.485C326.994 110.205 323.841 108.763 320.768 107.165C314.318 102.523 306.574 101.55 298.853 102.837Z" />
<path d="M365.794 83.4347C365.794 78.6626 369.164 75.9203 372.994 75.9203C374.549 75.9034 376.053 76.4785 377.2 77.5289L375.56 79.712C374.926 79.0711 374.072 78.6958 373.171 78.6626C370.873 78.6626 369.241 80.5776 369.241 83.4501C369.241 86.3226 370.827 88.2146 373.071 88.2146C374.181 88.1574 375.237 87.716 376.058 86.966L377.422 89.1798C376.124 90.3205 374.454 90.9471 372.726 90.9416C368.804 90.9416 365.794 88.1763 365.794 83.4347Z" />
<path d="M383.128 78.9302H378.608V76.2568H391.025V78.9302H386.506V90.5964H383.128V78.9302Z" />
<path d="M393.938 76.257H396.741L397.002 77.789H397.093C398.268 76.6892 399.786 76.029 401.391 75.9199C404.991 75.9199 407.051 78.7924 407.051 83.2199C407.051 88.1223 404.11 90.9565 400.923 90.9565C399.541 90.8956 398.228 90.338 397.224 89.3862L397.331 91.7685V96.2879H393.953L393.938 76.257ZM403.581 83.2352C403.581 80.378 402.647 78.6852 400.449 78.6852C399.407 78.6852 398.426 79.2061 397.316 80.2938V86.9733C398.101 87.7052 399.123 88.1318 400.196 88.1759C402.103 88.1759 403.581 86.4831 403.581 83.2352Z" />
<path d="M409.333 86.7435C409.333 83.6795 411.892 82.0709 417.798 81.4428C417.752 79.9108 417.131 78.6162 415.186 78.6162C413.734 78.7061 412.334 79.1937 411.141 80.0257L409.9 77.7813C411.656 76.6207 413.702 75.9758 415.806 75.9199C419.399 75.9199 421.168 78.126 421.168 82.1169V90.5965H418.403L418.188 89.0032H418.096C416.879 90.1734 415.279 90.862 413.592 90.9412C413.029 90.9751 412.466 90.8902 411.938 90.6921C411.41 90.4939 410.929 90.187 410.528 89.7911C410.126 89.3953 409.812 88.9194 409.606 88.3943C409.401 87.8693 409.308 87.3068 409.333 86.7435ZM417.798 86.7435V83.5263C413.891 84.0166 412.596 85.0583 412.596 86.4831C412.596 87.747 413.462 88.3062 414.665 88.3062C415.867 88.3062 416.733 87.7317 417.798 86.7512V86.7435Z" />
<path d="M428.054 83.1201L423.796 76.2261H427.434L429.027 78.9837C429.441 79.7497 429.901 80.6076 430.337 81.3966H430.444C430.812 80.6306 431.21 79.7803 431.586 78.9837L432.942 76.2644H436.45L432.191 83.5031L436.749 90.6039H433.125L431.371 87.762C430.896 86.9271 430.414 86.0462 429.916 85.2266H429.801C429.372 86.0462 428.951 86.9041 428.522 87.762L426.99 90.6039H423.481L428.054 83.1201Z" />
<path d="M437.729 83.4346C437.729 78.6624 440.985 75.9048 444.57 75.9048C448.155 75.9048 451.41 78.6624 451.41 83.4346C451.41 88.2068 448.155 90.9414 444.57 90.9414C440.985 90.9414 437.729 88.1761 437.729 83.4346ZM447.948 83.4346C447.948 80.5621 446.676 78.6471 444.57 78.6471C442.463 78.6471 441.169 80.5621 441.169 83.4346C441.169 86.3071 442.463 88.1761 444.57 88.1761C446.676 88.1761 447.948 86.3071 447.948 83.4346Z" />
<path d="M454.765 76.2568H460.594C463.78 76.2568 466.155 77.2297 466.155 79.9643C466.161 80.6669 465.925 81.3501 465.487 81.8996C465.049 82.449 464.436 82.8313 463.75 82.9823V83.0819C465.45 83.4955 466.722 84.4837 466.722 86.4829C466.722 89.3784 464.186 90.5964 460.893 90.5964H454.765V76.2568ZM460.249 82.0478C462.149 82.0478 462.892 81.3814 462.892 80.3013C462.892 79.2213 462.126 78.5395 460.349 78.5395H458.051V82.0478H460.249ZM460.632 88.2984C462.57 88.2984 463.436 87.5324 463.436 86.2531C463.436 85.1118 462.494 84.3381 460.54 84.3381H458.066V88.2984H460.632Z" />
<path d="M469.165 86.7435C469.165 83.6795 471.716 82.0709 477.591 81.4428C477.545 79.9108 476.925 78.6162 474.979 78.6162C473.53 78.7071 472.133 79.1947 470.942 80.0257L469.694 77.7813C471.462 76.6161 473.521 75.9712 475.638 75.9199C479.238 75.9199 481 78.126 481 82.1169V90.5965H478.235L477.974 89.0032H477.882C476.677 90.1678 475.091 90.8563 473.417 90.9412C472.854 90.974 472.291 90.8883 471.764 90.6896C471.237 90.491 470.758 90.1839 470.357 89.7881C469.956 89.3924 469.643 88.9169 469.438 88.3924C469.233 87.8679 469.14 87.3062 469.165 86.7435ZM477.591 86.7435V83.5263C473.692 84.0165 472.39 85.0583 472.39 86.4831C472.39 87.747 473.256 88.3062 474.466 88.3062C475.676 88.3062 476.557 87.7317 477.622 86.7512L477.591 86.7435Z" />
<path d="M366.689 100.807H369.983V106.384H373.76L379.283 115.147H375.667L372.113 109.065H370.014V115.147H366.72L366.689 100.807ZM371.454 107.701L373.338 103.496C374.441 101.022 375.636 100.432 377.413 100.432C377.749 100.427 378.083 100.49 378.394 100.616L377.858 103.733C377.696 103.674 377.525 103.643 377.352 103.641C376.647 103.641 376.081 103.879 375.46 105.35L374.212 108.253L371.454 107.701Z" />
<path d="M380.057 107.985C380.057 103.213 383.228 100.455 386.729 100.455C390.229 100.455 393.4 103.213 393.4 107.985C393.4 112.757 390.229 115.499 386.729 115.499C383.228 115.499 380.057 112.742 380.057 107.985ZM390.015 107.985C390.015 105.112 388.781 103.197 386.721 103.197C384.66 103.197 383.427 105.112 383.427 107.985C383.427 110.857 384.668 112.749 386.721 112.749C388.774 112.749 390.022 110.857 390.022 107.985H390.015Z" />
<path d="M396.671 100.807H400.44L402.692 106.598C403.082 107.778 403.458 108.896 403.81 109.946H403.925C404.3 108.865 404.691 107.778 405.066 106.598L407.211 100.807H410.964V115.147H408.015V110.122C408.015 108.72 408.245 106.093 408.375 104.545H408.23C407.824 105.748 407.288 107.111 406.889 108.253L404.768 113.852H402.868L400.685 108.253C400.286 107.111 399.75 105.71 399.352 104.545H399.237C399.36 106.077 399.589 108.72 399.589 110.122V115.147H396.679L396.671 100.807Z" />
<path d="M415.163 100.807H427.082V115.147H423.788V103.496H418.426V115.147H415.14L415.163 100.807Z" />
<path d="M430.521 111.294C430.521 108.23 433.01 106.621 438.77 105.993C438.724 104.461 438.119 103.167 436.227 103.167C434.807 103.261 433.441 103.749 432.282 104.576L431.072 102.332C432.772 101.162 434.77 100.503 436.832 100.432C440.341 100.432 442.064 102.638 442.064 106.629V115.147H439.368L439.115 113.554H439.023C437.861 114.714 436.312 115.406 434.672 115.499C434.116 115.525 433.56 115.433 433.041 115.23C432.522 115.027 432.052 114.718 431.66 114.321C431.269 113.925 430.965 113.45 430.769 112.929C430.572 112.407 430.488 111.85 430.521 111.294ZM438.77 111.294V108.092C434.94 108.575 433.699 109.624 433.699 111.041C433.699 112.313 434.542 112.864 435.722 112.864C436.901 112.864 437.729 112.282 438.77 111.302V111.294Z" />
<path d="M446.024 100.807H449.311V106.292H454.902V100.807H458.196V115.147H454.902V109.248H449.311V115.147H446.024V100.807Z" />
<path d="M461.989 96.3949C461.959 95.9851 462.054 95.576 462.261 95.2209C462.467 94.8658 462.776 94.5811 463.147 94.404C463.517 94.2269 463.933 94.1655 464.339 94.2278C464.745 94.2901 465.123 94.4733 465.423 94.7534C465.724 95.0336 465.933 95.3977 466.024 95.7984C466.114 96.1991 466.082 96.6178 465.931 97C465.78 97.3821 465.518 97.71 465.178 97.9409C464.838 98.1718 464.437 98.295 464.026 98.2945C463.765 98.3135 463.503 98.2785 463.257 98.1915C463.01 98.1046 462.784 97.9677 462.593 97.7893C462.402 97.611 462.249 97.3951 462.145 97.1552C462.041 96.9152 461.988 96.6564 461.989 96.3949ZM462.372 100.807H465.681V115.147H462.395L462.372 100.807Z" />
<path d="M473.233 108.222L475.945 109.164L472.115 115.147H468.431L473.233 108.222ZM477.515 109.991H475.447C472.667 109.991 469.626 108.689 469.626 105.311C469.626 101.933 472.115 100.807 475.309 100.807H480.802V115.147H477.515V109.991ZM477.515 107.693V103.32H475.769C473.931 103.32 472.889 103.978 472.889 105.403C472.889 106.828 473.931 107.655 475.769 107.655L477.515 107.693Z" />
</svg>
