<svg width="579" height="196" viewBox="0 0 579 196" xmlns="http://www.w3.org/2000/svg">
<path d="M345.115 74.0014C347.07 73.7289 349.127 74.0112 350.904 74.8846C351.845 75.347 352.739 75.9696 353.427 76.7676L353.621 76.9945L353.424 77.2192C352.709 78.0372 352.005 78.8704 351.303 79.7004L351.061 79.987L350.796 79.721C350.123 79.0468 349.305 78.3765 348.366 78.1382C346.537 77.6724 344.287 77.8472 342.93 79.3003C342.294 79.9799 342.078 81.0232 342.39 81.8982C342.606 82.5034 343.164 82.9323 343.71 83.2292C345.049 83.9609 346.625 84.1747 348.072 84.6117C349.736 85.1138 351.397 85.7212 352.777 86.8068C353.84 87.6439 354.668 88.8037 354.977 90.1304C355.485 92.3053 354.927 94.7008 353.49 96.4145C352.359 97.7628 350.776 98.6869 349.094 99.1588C346.412 99.9093 343.439 99.4763 341.055 98.0478C340.136 97.4969 339.235 96.7548 338.548 95.9302L338.359 95.7035L338.554 95.4811C339.311 94.6196 340.053 93.7405 340.794 92.864L341.093 92.5086L341.4 92.9821C343.053 95.3562 346.873 96.2285 349.389 94.7945C350.36 94.2424 351.131 93.2208 351.168 92.0597C351.238 91.2307 350.882 90.3802 350.227 89.866C349.139 89.0113 347.692 88.7346 346.419 88.322C344.291 87.8635 342.161 87.173 340.46 85.7674C339.29 84.8017 338.47 83.4072 338.311 81.896C338.108 80.2736 338.533 78.58 339.5 77.2653C340.791 75.4328 342.92 74.3081 345.115 74.0014ZM446.19 94.1122C442.414 94.0728 438.638 94.1149 434.863 94.0919C434.119 95.7566 433.411 97.4496 432.693 99.1249L432.605 99.3338H428.307L428.515 98.8523C431.904 90.9947 435.296 83.1385 438.688 75.2917C438.979 74.5632 439.725 74.0693 440.497 74.0937C441.296 74.0627 442.05 74.5958 442.334 75.3389C445.726 83.1792 449.122 91.0123 452.513 98.8523L452.72 99.3338H448.434L448.345 99.1262C447.624 97.4605 446.885 95.7903 446.19 94.1122ZM421.825 91.7272V74.0937H425.81V97.2976C425.865 98.1971 425.244 99.0951 424.355 99.285C423.678 99.4587 422.909 99.2511 422.462 98.7004C417.834 93.0026 413.201 87.3087 408.569 81.6138L408.567 99.3911H404.565V99.0463C404.565 91.441 404.563 83.8371 404.567 76.2427C404.497 75.1125 405.548 74.0665 406.683 74.1534C407.297 74.1735 407.844 74.5127 408.223 74.9812C412.752 80.5661 417.288 86.1473 421.825 91.7272ZM387.249 95.2843C391.519 95.2926 395.788 95.2926 400.058 95.3047L400.401 95.3062V99.2837H400.056C395.284 99.2878 390.512 99.2878 385.739 99.285C385.271 99.285 384.84 99.3285 384.41 99.1169C383.679 98.8035 383.208 98.0302 383.246 97.2473C383.247 89.6232 383.243 82.003 383.246 74.3787V74.034H387.249V95.2843ZM374.274 94.1122C370.498 94.0728 366.721 94.1149 362.946 94.0919C362.202 95.7566 361.495 97.4496 360.777 99.1249L360.689 99.3338H356.389L356.597 98.8523C359.988 90.996 363.379 83.1385 366.772 75.2917C367.063 74.5632 367.802 74.0693 368.576 74.0937C369.386 74.0627 370.133 74.5958 370.418 75.3389C373.81 83.1792 377.207 91.0123 380.597 98.8523L380.804 99.3338H376.518L376.429 99.1262C375.708 97.4605 374.966 95.7903 374.274 94.1122ZM335.406 99.3353H330.509L325.793 92.0502C324.064 92.0515 321.865 92.0502 320.136 92.0515C320.129 94.3645 320.14 96.6776 320.138 98.9907V99.3353H316.133V98.9907C316.136 91.3435 316.138 83.696 316.137 76.0489C316.137 74.9915 317.076 74.0736 318.125 74.0964C320.491 74.0883 322.857 74.0926 325.224 74.0937C327.548 74.0953 329.855 74.9741 331.594 76.5141C334.407 79.0077 335.344 83.3404 333.799 86.7688C333.029 88.4767 331.681 89.8929 330.057 90.8102L335.406 99.3353ZM297.681 78.0931C297.678 80.1932 297.679 82.2917 297.679 84.3919C300.718 84.3946 303.756 84.3892 306.795 84.3946H307.14L307.142 88.3669L306.807 88.3765C306.754 88.3777 306.701 88.3765 306.658 88.375C303.665 88.3737 300.672 88.3737 297.679 88.375C297.678 90.6771 297.678 92.9808 297.679 95.2831C302.184 95.2843 306.69 95.2858 311.195 95.2831H311.54V99.285H311.195C306.013 99.2865 300.831 99.2865 295.656 99.2837C294.562 99.3109 293.618 98.326 293.679 97.2473C293.677 90.1847 293.673 83.1277 293.68 76.0717C293.658 75.0067 294.612 74.0991 295.665 74.098C300.842 74.0926 306.018 74.0964 311.195 74.0937H311.54V78.0915H311.195C306.69 78.0942 302.185 78.0904 297.681 78.0931ZM279.234 92.3216C281.826 86.2955 284.424 80.2719 287.016 74.2457L287.106 74.0367H291.404L291.198 74.5171C287.832 82.3677 284.437 90.2066 281.07 98.0478C280.72 98.9229 279.713 99.4615 278.8 99.2376C278.13 99.0993 277.607 98.5811 277.343 97.9651C273.996 90.1427 270.615 82.3352 267.259 74.5171L267.053 74.0367H271.355L271.445 74.2457C274.037 80.2736 276.644 86.2939 279.234 92.3216ZM264.671 74.3814C264.68 82.5838 264.674 90.7858 264.671 98.988V99.3325H260.673V98.988C260.666 90.7858 260.669 82.5838 260.672 74.3814V74.0367H264.671V74.3814ZM250.943 91.6689V74.0367H254.929V97.2393C254.983 98.1387 254.362 99.0367 253.473 99.2267C252.796 99.4004 252.026 99.1928 251.58 98.6421C246.951 92.9441 242.319 87.2504 237.687 81.5551V99.3325H233.684V98.988C233.683 91.3827 233.683 83.7785 233.685 76.184C233.615 75.0555 234.667 74.0085 235.801 74.0953C236.416 74.1154 236.962 74.453 237.342 74.9226C241.872 80.5081 246.407 86.0892 250.943 91.6689ZM210.138 74.3814C210.142 79.0756 210.134 83.7693 210.142 88.4632C210.145 89.8321 210.607 91.1779 211.389 92.2985C212.706 94.1869 214.923 95.4309 217.23 95.5244C218.527 95.5774 219.843 95.2899 220.98 94.6616C222.79 93.6619 224.111 91.8398 224.517 89.8157C224.691 88.9502 224.66 88.0523 224.66 87.1744V74.0367H228.665V88.2136C228.665 89.345 228.527 90.4805 228.207 91.5672C227.346 94.4771 225.234 96.9583 222.53 98.3273C220.164 99.524 217.37 99.8211 214.802 99.182C212.124 98.517 209.712 96.8661 208.129 94.6088C206.9 92.8559 206.186 90.7559 206.127 88.6056V74.0367H210.138V74.3814ZM436.47 90.1156C439.154 90.1168 441.84 90.1156 444.525 90.1156C443.194 86.9477 441.86 83.7801 440.524 80.6139C439.164 83.7774 437.821 86.9477 436.47 90.1156ZM364.554 90.1156C367.238 90.1168 369.924 90.1156 372.609 90.1156C371.276 86.9477 369.945 83.7801 368.607 80.6139C367.248 83.7774 365.905 86.9477 364.554 90.1156ZM320.138 78.0931C320.136 81.4184 320.134 84.742 320.14 88.0671C321.618 88.0656 323.099 88.0656 324.584 88.0656C325.411 88.0819 326.262 88.0455 327.057 87.7726C328.604 87.2747 329.935 86.0252 330.367 84.438C330.751 83.0272 330.447 81.4602 329.581 80.2757C328.633 78.9301 327.004 78.1105 325.361 78.0985C323.621 78.0866 321.878 78.0942 320.138 78.0931Z" />
<path fill-rule="evenodd" clip-rule="evenodd" d="M161.07 55V71.5476C161.074 71.6258 161.08 71.7039 161.082 71.7826L161.092 72.0117L161.092 94.0514C161.092 104.624 153.04 113.698 142.977 115.748C142.789 115.803 142.6 115.856 142.41 115.906C145.899 117.214 149.593 117.881 153.337 117.881C165.616 117.881 176.738 110.682 181.773 99.495C182.662 97.5173 183.341 95.447 183.798 93.3273C184.264 91.1688 184.498 88.9666 184.498 86.7588L184.498 72.5008C184.499 63.8972 177.535 55 168.504 55H161.07Z" />
<path fill-rule="evenodd" clip-rule="evenodd" d="M150.404 94.3397L150.405 71.9042C150.036 63.3365 143.619 55.2014 134.655 55.0017H127V92.899C127 108.291 147.536 110.212 150.28 95.1798C150.331 94.9014 150.372 94.6209 150.404 94.3397Z" />
<path d="M264.978 129.381H260.583L259.325 132.85H257.126L261.715 120.866H263.74L268.619 132.85H266.292L264.978 129.381ZM353.658 140.556V138.64H279.84V140.556H353.658ZM353.658 113.079V114.994H279.84V113.079H353.658ZM315.662 127.663L318.415 132.886H315.987L313.474 127.966C313.211 127.974 312.949 127.976 312.691 127.976H310.616V132.85H308.538V120.866H313.876C314.174 120.866 314.473 120.871 314.772 120.884C315.052 120.896 315.334 120.926 315.609 120.985C315.87 121.042 316.126 121.121 316.371 121.227C316.631 121.34 316.869 121.496 317.086 121.681C317.472 122.011 317.76 122.415 317.95 122.887C318.137 123.35 318.234 123.836 318.234 124.335C318.234 124.742 318.175 125.181 318.041 125.565C317.914 125.928 317.728 126.259 317.479 126.553C317.231 126.847 316.931 127.084 316.595 127.272C316.298 127.438 315.986 127.565 315.662 127.663ZM281.918 122.782V125.758H287.294V127.674H281.918V132.85H279.84V120.866H288.113V122.782H281.918ZM297.32 129.381H292.925L291.666 132.85H289.469L294.057 120.866H296.082L300.96 132.85H298.634L297.32 129.381ZM305.094 132.85H303.016V120.866H305.094V132.85ZM323.428 122.782V125.758H328.803V127.674H323.428V132.85H321.35V120.866H329.622V122.782H323.428ZM338.265 129.381H333.87L332.611 132.85H330.413L335.002 120.866H337.027L341.906 132.85H339.579L338.265 129.381ZM348.086 128.213L344.853 132.85H342.283L346.872 126.541L342.707 120.866H345.262L348.076 124.87L350.896 120.866H353.471L349.286 126.541L353.895 132.85H351.341L348.086 128.213ZM375.097 124.899H372.973L372.956 124.635C372.936 124.332 372.859 124.042 372.709 123.776C372.562 123.515 372.366 123.297 372.127 123.117C371.865 122.919 371.569 122.781 371.255 122.688C370.897 122.581 370.528 122.533 370.155 122.533C369.659 122.533 369.167 122.612 368.71 122.812C368.285 122.998 367.923 123.268 367.623 123.622C367.293 124.012 367.07 124.477 366.921 124.963C366.735 125.571 366.667 126.218 366.667 126.852C366.667 127.483 366.734 128.129 366.921 128.734C367.072 129.22 367.292 129.687 367.617 130.082C367.91 130.438 368.267 130.712 368.688 130.898C369.141 131.1 369.625 131.182 370.12 131.182C370.83 131.182 371.555 131.04 372.126 130.593C372.663 130.173 372.9 129.585 372.956 128.915L372.978 128.657H375.094L375.067 128.964C375.015 129.567 374.867 130.155 374.582 130.69C374.317 131.187 373.966 131.62 373.527 131.972C373.076 132.334 372.559 132.596 372.009 132.771C371.406 132.963 370.777 133.045 370.146 133.045C369.349 133.045 368.562 132.916 367.826 132.605C367.144 132.317 366.545 131.901 366.05 131.351C365.537 130.781 365.171 130.112 364.924 129.389C364.646 128.573 364.535 127.711 364.535 126.852C364.535 125.993 364.649 125.132 364.931 124.317C365.179 123.595 365.546 122.926 366.058 122.356C366.553 121.806 367.149 121.388 367.83 121.096C368.565 120.782 369.349 120.653 370.146 120.653C370.761 120.653 371.371 120.737 371.957 120.927C372.507 121.106 373.02 121.367 373.477 121.723C373.919 122.069 374.281 122.484 374.562 122.97C374.851 123.469 375.011 124.016 375.067 124.589L375.097 124.899ZM383.103 120.67C383.893 120.67 384.668 120.808 385.397 121.117C386.092 121.411 386.705 121.832 387.222 122.381C387.754 122.947 388.143 123.612 388.414 124.337C388.715 125.142 388.841 125.995 388.841 126.852C388.841 127.702 388.719 128.546 388.424 129.345C388.155 130.072 387.768 130.74 387.238 131.31C386.722 131.865 386.109 132.294 385.413 132.593C384.679 132.908 383.9 133.045 383.103 133.045C382.306 133.045 381.519 132.911 380.783 132.599C380.085 132.304 379.473 131.882 378.957 131.328C378.425 130.759 378.038 130.091 377.768 129.363C377.47 128.558 377.347 127.708 377.347 126.852C377.347 125.991 377.473 125.135 377.774 124.326C378.045 123.597 378.439 122.929 378.976 122.365C379.496 121.819 380.106 121.401 380.802 121.11C381.533 120.804 382.312 120.67 383.103 120.67ZM400.922 124.584L398.141 132.85H396.379L393.584 124.576V132.85H391.595V120.866H394.358L397.254 129.755L400.166 120.866H402.929V132.85H400.922V124.584ZM408.273 128.296V132.85H406.195V120.866H410.75C411.324 120.866 411.897 120.915 412.462 121.019C412.995 121.117 413.506 121.297 413.967 121.585C414.417 121.866 414.774 122.243 415.034 122.706C415.334 123.242 415.429 123.873 415.429 124.48C415.429 125.589 415.114 126.616 414.237 127.336C413.31 128.098 412.021 128.296 410.857 128.296H408.273ZM424.58 129.381H420.184L418.926 132.85H416.728L421.317 120.866H423.342L428.221 132.85H425.894L424.58 129.381ZM432.068 124.485V132.85H430.08V120.866H432.068L437.627 129.234V120.866H439.635V132.85H437.646L432.068 124.485ZM448.263 127.808V132.85H446.185V127.808L441.428 120.866H443.968L447.22 125.874L450.461 120.866H453L448.263 127.808ZM264.316 127.607L262.723 123.418L261.205 127.607H264.316ZM296.658 127.607L295.065 123.418L293.548 127.607H296.658ZM310.616 126.042H313.725C314.294 126.042 315.123 125.988 315.607 125.651C316.272 125.189 316.284 123.796 315.738 123.227C315.342 122.815 314.68 122.693 313.95 122.693H310.616V126.042ZM337.602 127.607L336.009 123.418L334.492 127.607H337.602ZM383.091 131.182C383.596 131.182 384.088 131.092 384.55 130.889C384.994 130.695 385.375 130.415 385.694 130.051C386.04 129.658 386.284 129.194 386.452 128.7C386.654 128.109 386.728 127.477 386.728 126.855C386.728 126.229 386.654 125.591 386.447 124.997C386.276 124.506 386.034 124.042 385.688 123.65C385.374 123.292 385 123.018 384.561 122.831C384.104 122.635 383.619 122.551 383.124 122.551C382.619 122.551 382.127 122.642 381.663 122.84C381.218 123.029 380.836 123.306 380.517 123.668C380.173 124.059 379.93 124.524 379.759 125.015C379.554 125.604 379.478 126.233 379.478 126.855C379.478 127.477 379.552 128.109 379.751 128.701C379.917 129.194 380.159 129.659 380.503 130.051C380.821 130.414 381.199 130.694 381.639 130.89C382.099 131.094 382.589 131.182 383.091 131.182ZM408.273 126.362H410.904C411.488 126.362 412.325 126.296 412.79 125.895C413.197 125.544 413.315 125.028 413.315 124.51C413.315 124.218 413.277 123.883 413.128 123.626C413.005 123.414 412.843 123.241 412.63 123.117C412.393 122.979 412.125 122.898 411.854 122.856C411.523 122.804 411.186 122.782 410.851 122.782H408.273V126.362ZM423.917 127.607L422.325 123.418L420.807 127.607H423.917Z" />
</svg>
