<svg width="110" height="19" fill="none" xmlns="http://www.w3.org/2000/svg"><g opacity=".4" clip-path="url(#a)"><path fill-rule="evenodd" clip-rule="evenodd" d="M34.556 12.678c0-3.523-2.812-4.403-5.35-5.006-2.538-.602-3.223-.926-3.223-1.946 0-.717.57-1.459 2.286-1.459 1.463 0 2.606.602 3.634 1.667l2.31-2.27c-1.51-1.597-3.338-2.548-5.829-2.548-3.155 0-5.717 1.807-5.717 4.75 0 3.196 2.058 4.148 5.006 4.842 3.019.695 3.567 1.159 3.567 2.2 0 1.23-.892 1.762-2.789 1.762-1.532 0-2.971-.533-4.092-1.854l-2.31 2.086c1.212 1.807 3.545 2.943 6.22 2.943 4.366 0 6.286-2.088 6.286-5.167ZM49.53 6.514c0-3.452-2.492-5.144-5.51-5.144h-6.996v16.22h3.2v-5.747h3.521c3.317 0 5.785-1.575 5.785-5.33Zm-3.292.071c0 1.412-.8 2.107-2.286 2.107h-3.727v-4.17h3.682c1.416 0 2.331.649 2.331 2.063ZM64.001 17.59 57.919 1.37H54.81l-6.128 16.22h3.43l1.258-3.615h5.851l1.26 3.615H64Zm-5.876-6.697H54.47l1.028-2.943c.32-.949.64-1.923.8-2.524.16.602.48 1.575.8 2.524l1.029 2.942ZM77.49 4.707c-1.007-2.108-2.834-3.591-5.85-3.591-4.186 0-7.113 3.429-7.113 8.363 0 5.123 2.813 8.366 6.996 8.366 2.904 0 4.824-1.366 5.922-3.661l-2.698-1.622c-.846 1.436-1.692 2.061-3.132 2.061-2.4 0-3.795-2.225-3.795-5.144 0-3.01 1.37-5.142 3.772-5.142 1.44 0 2.355.648 2.927 1.76l2.971-1.39ZM91 17.59v-3.174h-8.251v-3.917h4.595V7.35h-4.595V4.544h7.91V1.37h-11.11v16.22H91Zm13.992-4.912c0-3.523-2.813-4.403-5.349-5.006-2.537-.602-3.223-.926-3.223-1.946 0-.717.571-1.459 2.285-1.459 1.462 0 2.606.602 3.635 1.667l2.309-2.27c-1.509-1.597-3.338-2.548-5.83-2.548-3.155 0-5.714 1.807-5.714 4.75 0 3.196 2.056 4.148 5.007 4.842 3.017.695 3.565 1.159 3.565 2.2 0 1.23-.89 1.762-2.788 1.762-1.532 0-2.971-.533-4.092-1.854l-2.31 2.086c1.212 1.807 3.542 2.943 6.218 2.943 4.369 0 6.287-2.088 6.287-5.167Zm4.921 2.966c0-.928-.766-1.725-1.681-1.725-.916 0-1.681.796-1.681 1.725 0 .927.765 1.702 1.681 1.702.915 0 1.681-.775 1.681-1.702ZM.059 4.748v9.464l8.084 4.732 8.084-4.732V4.748L8.143.016.059 4.748Z" fill="#2C2A2D"/></g><defs><clipPath id="a"><path fill="#fff" d="M0 0h110v19H0z"/></clipPath></defs></svg>