<svg width="219" height="100" viewBox="0 0 219 100" xmlns="http://www.w3.org/2000/svg">
<path d="M45.0747 90.1624C69.969 90.1624 90.1498 69.9788 90.1498 45.081C90.1498 20.1835 69.969 0 45.0747 0C20.1807 0 0 20.1835 0 45.081C0 69.9788 20.1807 90.1624 45.0747 90.1624Z" />
<path opacity="0.75" d="M76.3764 70.6374C76.6351 70.4071 76.969 70.2801 77.3153 70.2793C77.6613 70.279 77.9959 70.4049 78.2554 70.6341C78.5148 70.8633 78.6816 71.1793 78.7239 71.5231C78.7662 71.8666 78.6812 72.214 78.4852 72.499C74.8398 76.9735 70.3353 80.6724 65.2375 83.3782C60.14 86.0837 54.5521 87.7414 48.804 88.2527C43.0555 88.7644 37.2633 88.1195 31.768 86.3563C26.2728 84.5936 21.1862 81.7479 16.8081 77.9874C12.4301 74.2271 8.8491 69.6279 6.27643 64.4614C3.70373 59.295 2.19143 53.6655 1.82866 47.9049C1.46589 42.1447 2.26 36.3699 4.16418 30.9214C6.06832 25.4728 9.044 20.4607 12.9157 16.1806C14.0525 14.9448 15.98 16.576 15.0245 17.9601C9.56123 25.9349 6.72192 35.4159 6.90244 45.0812C6.91116 55.2038 10.9357 64.9093 18.0924 72.0673C25.2491 79.225 34.9533 83.2498 45.0742 83.2585C45.0742 83.2585 60.8406 84.7582 76.3764 70.6374Z" />
<g opacity="0.75">
<path d="M84.0207 65.4962C88.3142 57.2681 89.8983 47.8936 88.5463 38.7119C87.1943 29.5298 82.9759 21.01 76.4929 14.3693C70.0102 7.7285 61.5953 3.30652 52.4496 1.73495C43.3038 0.163382 33.8955 1.52261 25.5684 5.61846" />
<path d="M84.0207 65.4962C88.3142 57.2681 89.8983 47.8936 88.5463 38.7119C87.1943 29.5298 82.9759 21.01 76.4929 14.3693C70.0102 7.7285 61.5953 3.30652 52.4496 1.73495C43.3038 0.163382 33.8955 1.52261 25.5684 5.61846" stroke="#727272" stroke-width="1.26151" stroke-miterlimit="10" stroke-linecap="round"/>
</g>
<mask id="mask0_1328_1284" style="mask-type:alpha" maskUnits="userSpaceOnUse" x="11" y="11" width="68" height="68">
<path d="M45.3474 78.8898C63.8666 78.8898 78.8794 63.8749 78.8794 45.3531C78.8794 26.8313 63.8666 11.8164 45.3474 11.8164C26.8282 11.8164 11.8154 26.8313 11.8154 45.3531C11.8154 63.8749 26.8282 78.8898 45.3474 78.8898Z" />
</mask>
<g mask="url(#mask0_1328_1284)">
<path d="M45.3464 78.8898C63.8656 78.8898 78.8784 63.8749 78.8784 45.3531C78.8784 26.8313 63.8656 11.8164 45.3464 11.8164C26.8272 11.8164 11.8145 26.8313 11.8145 45.3531C11.8145 63.8749 26.8272 78.8898 45.3464 78.8898Z" />
<path d="M10.1766 49.2202C13.0877 60.0863 24.2551 66.5349 35.1196 63.6232C37.8446 62.8929 40.2921 61.6429 42.3834 60.0086C42.3812 57.5064 42.0561 54.963 41.3777 52.4312C37.984 39.764 26.7935 31.2689 14.3541 30.7266C10.1578 35.6543 8.37484 42.4954 10.1766 49.2202Z" />
<path opacity="0.75" d="M45.5759 79.2987C64.0952 79.2987 79.1077 64.2838 79.1077 45.7619C79.1077 41.1159 78.1633 36.6907 76.4555 32.6677C72.4754 31.605 68.2928 31.0386 63.9777 31.0386C42.3891 31.0386 24.1117 45.2181 17.9482 64.7732C23.9959 73.5473 34.1143 79.2987 45.5759 79.2987Z" />
<path opacity="0.5" d="M45.3464 78.8898C63.8656 78.8898 78.8784 63.8749 78.8784 45.3531C78.8784 26.8313 63.8656 11.8164 45.3464 11.8164C26.8272 11.8164 11.8145 26.8313 11.8145 45.3531C11.8145 63.8749 26.8272 78.8898 45.3464 78.8898Z" />
<path opacity="0.25" d="M78.7877 49.4901C78.7096 54.2598 77.1904 59.2635 74.1463 63.7452C71.1026 68.227 67.0116 71.4832 62.6071 73.3135L58.7744 68.504C62.9016 67.4923 66.8795 64.7948 69.6619 60.6981C72.444 56.6018 73.4855 51.9091 72.9049 47.6992L78.7877 49.4901Z" />
<path opacity="0.25" d="M22.6416 26.0999C24.0654 23.7995 26.2681 21.6488 29.0712 20.0302C31.8743 18.4116 34.8378 17.5791 37.5419 17.4961L38.0352 20.5309C35.7057 20.2674 32.9603 20.8493 30.3981 22.3288C27.8359 23.8083 25.9593 25.8953 25.0228 28.0447L22.6416 26.0999Z" />
<path opacity="0.25" d="M71.9953 65.6202C66.618 69.2906 60.1178 71.437 53.1158 71.437C34.5968 71.437 19.5841 56.422 19.5841 37.9001C19.5841 30.244 22.1493 23.187 26.467 17.542C17.6213 23.58 11.8145 33.7427 11.8145 45.2618C11.8145 63.7837 26.8272 78.7986 45.3465 78.7986C56.2103 78.7986 65.8677 73.6315 71.9953 65.6202Z" />
<path d="M37.9863 33.0837L51.0717 20.4053V70.3012H37.9863V33.0837Z" fill="white"/>
</g>
<path opacity="0.8" d="M33.013 98.2295V98.3116H32.9142H32.733H32.4693L32.2058 98.2295H32.041C32.041 98.2295 32.041 98.2295 32.041 98.1306L33.4249 92.2317C33.4176 92.2193 33.4139 92.2051 33.4139 92.1905C33.4139 92.1762 33.4176 92.162 33.4249 92.1492C33.4399 92.1408 33.457 92.1361 33.4743 92.1361C33.4917 92.1361 33.5087 92.1408 33.5237 92.1492H33.6885H33.9521C34.0486 92.1646 34.1427 92.1923 34.2322 92.2317H34.3804C34.3881 92.2642 34.3881 92.2981 34.3804 92.3306L33.013 98.2295ZM34.9735 90.3697C34.9673 90.4638 34.9405 90.5554 34.895 90.6383C34.8494 90.7208 34.7862 90.7923 34.7099 90.8478C34.5298 90.9175 34.33 90.9175 34.1498 90.8478C33.9633 90.8222 33.793 90.7281 33.672 90.5839C33.6357 90.5007 33.617 90.4113 33.617 90.3204C33.617 90.2295 33.6357 90.1397 33.672 90.0569C33.6935 89.8642 33.7879 89.6876 33.9356 89.5624C34.1229 89.5007 34.325 89.5007 34.5122 89.5624C34.6987 89.5879 34.869 89.6821 34.99 89.8262C35.0261 89.9127 35.0433 90.0058 35.0404 90.0996C35.0376 90.1934 35.0148 90.2857 34.9735 90.3697Z" />
<path opacity="0.8" d="M12.5558 82.0969C12.4741 82.183 12.3795 82.256 12.2754 82.3126C12.2453 82.3301 12.2112 82.3392 12.1765 82.3392C12.1417 82.3392 12.1076 82.3301 12.0775 82.3126L11.4508 81.6987C11.4519 81.9159 11.4069 82.1308 11.3188 82.3294C11.2224 82.5118 11.1002 82.6797 10.956 82.8272C10.7475 83.0691 10.4884 83.2615 10.1973 83.391C9.93638 83.502 9.65584 83.5586 9.37263 83.5571C9.08103 83.5407 8.79537 83.4673 8.5315 83.3414C8.2414 83.1936 7.97465 83.0034 7.73983 82.7772C7.56901 82.6126 7.42436 82.4221 7.31102 82.2129C7.20804 82.0326 7.13557 81.8367 7.0966 81.6323H6.76675C6.65425 81.683 6.55324 81.7567 6.46986 81.848C6.41479 81.9034 6.37513 81.9724 6.35488 82.0483C6.33462 82.1239 6.33448 82.2038 6.35444 82.2794C6.37743 82.4936 6.46358 82.6958 6.60181 82.86L7.70684 84.0217C7.90134 84.2232 8.07285 84.4458 8.21812 84.6856C8.3338 84.8983 8.41718 85.1279 8.46553 85.3659C8.51224 85.5899 8.51224 85.8217 8.46553 86.0461C8.39576 86.2724 8.27107 86.4775 8.1027 86.6432C7.91502 86.8476 7.68385 87.0064 7.42648 87.1078C7.16265 87.2038 6.88064 87.2378 6.60181 87.2075C6.26084 87.164 5.93085 87.0571 5.62874 86.8921C5.24189 86.6772 4.88661 86.4093 4.57319 86.0958C4.26386 85.8067 3.98729 85.4837 3.74853 85.1334C3.5577 84.8761 3.40749 84.5907 3.30322 84.287C3.24528 84.0586 3.24528 83.8188 3.30322 83.5903C3.36946 83.371 3.48842 83.1717 3.64958 83.0097C3.75411 82.9027 3.8703 82.8082 3.99594 82.7275C4.11888 82.6523 4.25229 82.5965 4.39176 82.5615C4.57232 82.4987 4.76156 82.4651 4.95252 82.4618H5.4638C5.40862 82.2498 5.40862 82.0268 5.4638 81.8148C5.50656 81.6199 5.60385 81.4414 5.74419 81.3005C5.91574 81.1122 6.13111 80.9695 6.37093 80.8856C6.56054 80.841 6.75369 80.8133 6.94819 80.8027C6.95804 80.5852 7.00836 80.3713 7.0966 80.1721C7.19881 79.9367 7.3443 79.7228 7.52544 79.5418C7.73293 79.3169 7.9787 79.1315 8.25111 78.994C8.51205 78.8651 8.80223 78.8078 9.09227 78.8283C9.37883 78.8286 9.66131 78.8969 9.91689 79.0272C10.2076 79.1669 10.4747 79.352 10.7086 79.575L11.0549 79.9564C11.1589 80.0753 11.2527 80.2031 11.3353 80.3381L12.6548 81.6159C12.6721 81.6461 12.6813 81.6804 12.6813 81.7151C12.6813 81.7502 12.6721 81.7845 12.6548 81.8148C12.638 81.914 12.6045 82.0093 12.5558 82.0969ZM7.26154 85.9133C7.34631 85.8315 7.40783 85.7283 7.43972 85.6144C7.47162 85.5009 7.47275 85.3805 7.44297 85.2662C7.36408 84.968 7.20417 84.698 6.98117 84.4863L5.87615 83.3578C5.71708 83.3418 5.55685 83.3418 5.39782 83.3578C5.28313 83.3392 5.16617 83.3392 5.05148 83.3578C4.94978 83.3819 4.85425 83.4272 4.77108 83.4907L4.5567 83.6567C4.45927 83.7615 4.39479 83.8932 4.37132 84.0348C4.34786 84.1764 4.36643 84.3221 4.42475 84.4531C4.58144 84.8538 4.83684 85.2078 5.16694 85.4819C5.36169 85.6907 5.59035 85.8648 5.84316 85.9961C6.01419 86.1013 6.20523 86.1691 6.40392 86.1954C6.56142 86.2304 6.72468 86.2304 6.88221 86.1954C7.02591 86.1275 7.15484 86.0315 7.26154 85.9133ZM10.1808 82.0472C10.3126 81.9272 10.4186 81.7815 10.4924 81.6188C10.5661 81.4564 10.606 81.2801 10.6096 81.1013C10.6008 80.9242 10.5568 80.7509 10.4804 80.5914C10.4039 80.4319 10.2964 80.2892 10.1643 80.1721C10.0224 80.0421 9.86099 79.9359 9.68601 79.8567C9.52261 79.825 9.35464 79.825 9.19123 79.8567C9.02333 79.8735 8.86058 79.9242 8.71294 80.0064C8.54687 80.0713 8.39127 80.1607 8.25111 80.2717C8.12503 80.3918 8.02369 80.5356 7.95294 80.695C7.88218 80.8545 7.84339 81.0264 7.83879 81.2009C7.86445 81.5516 8.02402 81.8786 8.28409 82.1137C8.42904 82.2476 8.59661 82.3542 8.77888 82.4286C8.95057 82.4768 9.13036 82.4881 9.30669 82.4618C9.47272 82.437 9.63401 82.3867 9.78498 82.3126C9.93054 82.2465 10.0643 82.1571 10.1808 82.0472Z" />
<path opacity="0.8" d="M17.9492 89.0992C17.9173 89.1619 17.8705 89.2163 17.813 89.2568C17.7555 89.2973 17.689 89.3229 17.6193 89.3316C17.5174 89.3645 17.4078 89.3645 17.3059 89.3316L14.0073 87.0583C13.836 87.313 13.6922 87.5857 13.5785 87.8714C13.4854 88.1141 13.446 88.3747 13.4631 88.6346C13.4949 88.8897 13.5852 89.1342 13.727 89.3481C13.9055 89.613 14.1356 89.8386 14.4032 90.0119C14.618 90.1568 14.8442 90.2846 15.0794 90.3933L15.6567 90.5926L16.0855 90.6922C16.1665 90.6959 16.2455 90.7189 16.3163 90.7583V90.8415C16.3275 90.8849 16.3275 90.9305 16.3163 90.974L16.2174 91.1568C16.2174 91.1568 16.2174 91.2397 16.1185 91.2729V91.3557C16.1059 91.363 16.0917 91.367 16.0772 91.367C16.0627 91.367 16.0485 91.363 16.036 91.3557C15.9541 91.3703 15.8704 91.3703 15.7886 91.3557L15.2938 91.2229C15.0799 91.147 14.8706 91.0583 14.667 90.9576C14.3745 90.9247 14.0867 90.8579 13.8094 90.7583C13.4334 90.5145 13.1084 90.1988 12.8528 89.8291C12.6241 89.5214 12.4714 89.163 12.4075 88.7838C12.3333 88.3331 12.373 87.8711 12.523 87.44C12.6825 86.9922 12.9107 86.5722 13.1992 86.1955C13.4614 85.7984 13.7843 85.4459 14.1558 85.1503C14.4786 84.8962 14.8488 84.7101 15.2443 84.6024C15.6191 84.5192 16.0075 84.5192 16.3823 84.6024C16.7846 84.6941 17.1654 84.8634 17.5038 85.1003C17.8577 85.3229 18.1566 85.6236 18.378 85.9798C18.5629 86.2754 18.6759 86.6108 18.7078 86.9586C18.742 87.3061 18.7026 87.6565 18.5924 87.9875C18.4713 88.3448 18.305 88.6849 18.0976 88.9995L17.9492 89.0992ZM17.207 88.1864C17.5153 87.8028 17.6736 87.3189 17.6523 86.8258C17.6152 86.6108 17.5328 86.4061 17.4105 86.2258C17.2881 86.0455 17.1287 85.8937 16.9431 85.7805C16.7351 85.6375 16.4988 85.5411 16.2504 85.4984C16.0333 85.4481 15.8077 85.4481 15.5907 85.4984C15.3725 85.5561 15.1661 85.6517 14.9804 85.7805C14.7823 85.9218 14.6094 86.0955 14.4692 86.2951L17.207 88.1864Z" />
<path opacity="0.8" d="M23.0942 94.973C23.0478 95.0719 22.9926 95.1664 22.9292 95.2551C22.8882 95.3037 22.8377 95.3434 22.7808 95.3712H22.5994H22.3355H22.0551L21.7583 95.2551C21.5083 95.1402 21.2796 94.9829 21.0821 94.7905C20.9289 94.6252 20.816 94.4267 20.7522 94.2099C20.7024 93.969 20.7024 93.7205 20.7522 93.4799C20.8128 93.1778 20.9184 92.8869 21.0656 92.6168L22.5994 89.3978L21.8242 89.0329C21.7968 89.0139 21.7738 88.9894 21.7567 88.961C21.7397 88.9321 21.7289 88.9 21.7253 88.8672C21.7356 88.7456 21.7692 88.627 21.8242 88.5186L21.9397 88.3194C21.9397 88.3194 21.9397 88.3194 22.0386 88.2197C22.0706 88.2084 22.1056 88.2084 22.1376 88.2197H22.2366L22.9952 88.6015L23.622 87.2905H23.7209H23.9024L24.1497 87.407C24.2388 87.4372 24.3223 87.4821 24.3971 87.5394L24.5291 87.6391C24.5396 87.677 24.5396 87.7172 24.5291 87.7551L23.9024 89.0661L25.3042 89.7464C25.3313 89.7394 25.3597 89.7394 25.3867 89.7464C25.3867 89.7464 25.3867 89.7464 25.3867 89.846C25.3947 89.8953 25.3947 89.946 25.3867 89.9953L25.3042 90.1945C25.2639 90.3132 25.1893 90.4172 25.0898 90.4931C25.0623 90.5091 25.031 90.5175 24.9991 90.5175C24.9673 90.5175 24.936 90.5091 24.9084 90.4931L23.5065 89.8128L22.0386 92.8825C21.8799 93.1723 21.7949 93.4971 21.7912 93.8281C21.8059 93.9591 21.857 94.0829 21.9387 94.1858C22.0204 94.2887 22.1294 94.3661 22.2531 94.4091L22.5169 94.492H22.7313H22.9128H23.0282C23.0339 94.5361 23.0339 94.5807 23.0282 94.6248C23.0664 94.7372 23.0886 94.8544 23.0942 94.973Z" />
<path opacity="0.8" d="M56.509 98.5408C56.5225 98.6455 56.5225 98.7513 56.509 98.8561C56.5276 98.9152 56.5276 98.9791 56.509 99.0386L56.3605 99.1714L56.1295 99.2875L55.8493 99.3871H55.5522C55.2789 99.428 55.0008 99.428 54.7275 99.3871C54.5071 99.336 54.2995 99.24 54.1174 99.105C53.9397 98.9437 53.7988 98.7455 53.705 98.5243C53.5948 98.2338 53.512 97.9338 53.4576 97.6284L52.7814 94.1933L51.9403 94.3429C51.9057 94.3448 51.871 94.3382 51.8392 94.324C51.8079 94.3094 51.7801 94.2875 51.759 94.2597C51.7002 94.1575 51.6608 94.0448 51.6433 93.928C51.6364 93.8561 51.6364 93.7842 51.6433 93.7123C51.6345 93.6572 51.6345 93.6013 51.6433 93.5462H51.7425L52.5669 93.397L52.3363 91.97C52.3363 91.97 52.3363 91.97 52.3363 91.8703C52.3633 91.8648 52.3914 91.8648 52.4187 91.8703C52.4727 91.8557 52.5297 91.8557 52.5837 91.8703H52.8475H53.1113H53.2927H53.3916L53.639 93.3141L55.1731 93.0484H55.272C55.2807 93.0922 55.2807 93.1375 55.272 93.1813V93.397C55.3059 93.5163 55.3059 93.643 55.272 93.7619C55.261 93.7955 55.2413 93.8251 55.2154 93.8484C55.1895 93.8718 55.1578 93.8878 55.1235 93.8948L53.936 94.0773L54.5133 97.3959C54.5465 97.7254 54.6659 98.0404 54.8596 98.3086C54.9472 98.4054 55.0603 98.4754 55.1859 98.5108C55.311 98.5459 55.4438 98.5448 55.5686 98.5076H55.8325L56.0306 98.4079L56.1791 98.3086C56.2164 98.2959 56.2569 98.2959 56.2945 98.3086V98.4247C56.3729 98.4484 56.4459 98.4878 56.509 98.5408Z" />
<path opacity="0.8" d="M65.0191 93.2646C65.164 93.704 65.2472 94.162 65.2665 94.6252C65.2735 95.039 65.2008 95.4503 65.052 95.8365C64.8987 96.2117 64.6615 96.5463 64.3594 96.8153C64.0065 97.1197 63.5974 97.3507 63.1555 97.4956C62.7304 97.6379 62.2837 97.7051 61.836 97.6949C61.4598 97.6708 61.0934 97.5631 60.7639 97.3795C60.4245 97.1719 60.1326 96.8949 59.9063 96.5664C59.6414 96.1792 59.4356 95.754 59.2962 95.3054C59.1531 94.8649 59.07 94.4073 59.0488 93.9449C59.0338 93.5303 59.1068 93.1171 59.263 92.7336C59.4166 92.358 59.6534 92.0233 59.9556 91.7544C60.3063 91.4507 60.7164 91.2244 61.1598 91.0909C61.5765 90.9372 62.0188 90.8638 62.4625 90.8752C62.8461 90.8992 63.219 91.0128 63.5511 91.2069C63.8897 91.4084 64.182 91.6799 64.409 92.0033C64.6739 92.3905 64.8797 92.8157 65.0191 93.2646ZM63.947 93.696C63.8507 93.3956 63.7237 93.1065 63.5679 92.8328C63.427 92.5905 63.2424 92.3766 63.0234 92.2025C62.8238 92.0387 62.5848 91.9299 62.3308 91.8872C62.0195 91.8409 61.7017 91.8752 61.4072 91.9868C61.1244 92.0671 60.8682 92.2215 60.665 92.4347C60.4738 92.6106 60.3315 92.8336 60.2526 93.0817C60.1738 93.3565 60.1461 93.6434 60.1702 93.9281C60.1917 94.2511 60.2585 94.5697 60.3679 94.8741C60.4643 95.1741 60.5913 95.4631 60.7475 95.7368C60.8887 95.9788 61.073 96.1927 61.2915 96.3671C61.4959 96.5343 61.7407 96.6434 62.0009 96.6825C62.3067 96.7277 62.6191 96.6934 62.9081 96.5828C63.1905 96.4916 63.4496 96.3387 63.6668 96.135C63.8467 95.9529 63.982 95.7314 64.0623 95.4879C64.1211 95.2146 64.1211 94.9317 64.0623 94.6584C64.0692 94.3336 64.0306 94.0095 63.947 93.696Z" />
<path opacity="0.8" d="M74.7833 91.754C74.791 91.7869 74.791 91.8208 74.7833 91.8537C74.7906 91.8865 74.7906 91.9204 74.7833 91.9533L74.668 92.0694L74.4534 92.1854L74.2224 92.3018H74.0743C74.0425 92.3146 74.0068 92.3146 73.975 92.3018L73.5959 91.6048C73.5068 92.0409 73.339 92.4573 73.1011 92.8325C72.9069 93.1372 72.6405 93.388 72.326 93.5628C72.0264 93.7496 71.6874 93.8631 71.3363 93.8945C71.0415 93.9073 70.7477 93.8504 70.4788 93.7288C70.211 93.5985 69.9701 93.4183 69.7694 93.1978C69.5205 92.9135 69.3049 92.6018 69.1261 92.2686L67.3449 88.95C67.3376 88.9343 67.334 88.9175 67.334 88.9C67.334 88.8829 67.3376 88.8661 67.3449 88.8504C67.338 88.8175 67.338 88.7836 67.3449 88.7507C67.3836 88.6996 67.4347 88.6595 67.4934 88.6347C67.5336 88.592 67.5777 88.5529 67.6255 88.5186C67.6971 88.4701 67.7748 88.431 67.8562 88.4026H68.0211H68.1368L69.7858 91.5051C69.9274 91.7548 70.0872 91.9931 70.2642 92.2186C70.4 92.369 70.5624 92.4927 70.7426 92.5836C70.9072 92.6635 71.0878 92.7029 71.2703 92.7C71.4611 92.6832 71.6465 92.6267 71.8147 92.534C72.1333 92.4113 72.4008 92.1832 72.5734 91.8869C72.7398 91.5285 72.8562 91.1489 72.9197 90.7584L70.924 86.9756C70.9163 86.9427 70.9163 86.9084 70.924 86.8759C70.9167 86.8431 70.9167 86.8091 70.924 86.7763L71.0561 86.6602L71.3031 86.511C71.375 86.4624 71.4527 86.4234 71.5341 86.3945H71.6991H71.8147L74.7833 91.754Z" />
<path opacity="0.8" d="M81.6763 85.4653L81.7916 85.6314V85.7642C81.7989 85.797 81.7989 85.831 81.7916 85.8635V86.0295C81.7653 86.1474 81.7321 86.2638 81.6927 86.3781C81.6387 86.5405 81.5668 86.6963 81.4781 86.8427C81.3851 87.0087 81.2745 87.1646 81.1483 87.3073C81.0122 87.4635 80.8633 87.6076 80.7031 87.7387C80.4028 88.0022 80.0481 88.1952 79.6642 88.3029C79.3182 88.3941 78.9544 88.3941 78.6085 88.3029C78.2348 88.2189 77.8816 88.0609 77.5696 87.8383C77.1904 87.5606 76.8518 87.231 76.5635 86.8591C76.2687 86.4595 76.0351 86.0178 75.8705 85.5485C75.7304 85.1606 75.6633 84.7496 75.6728 84.3372C75.6968 83.9668 75.81 83.6084 76.0026 83.2919C76.1968 82.9715 76.4486 82.6901 76.7449 82.462L77.2065 82.147C77.3656 82.0664 77.5313 81.9996 77.7013 81.9478C77.8458 81.8989 77.9951 81.8657 78.1469 81.8481H78.6249H78.7406L78.8559 81.9478L78.988 82.097C79.0701 82.2065 79.1318 82.3303 79.1693 82.462C79.1693 82.462 79.1693 82.6116 79.1693 82.6445C79.0894 82.6737 79.0019 82.6737 78.9219 82.6445H78.4932C78.3136 82.6646 78.1366 82.7036 77.9651 82.7609C77.7451 82.8255 77.5422 82.9387 77.3714 83.0927C77.174 83.2339 77.0171 83.4244 76.9157 83.6456C76.8146 83.8671 76.7726 84.1109 76.7941 84.3536C76.8872 84.9708 77.1565 85.547 77.5696 86.0131C77.7871 86.2854 78.0363 86.5303 78.3114 86.743C78.5242 86.9109 78.7639 87.0401 79.0208 87.1248C79.2482 87.1824 79.4861 87.1824 79.7134 87.1248C79.9535 87.0522 80.1776 86.9335 80.3732 86.7762C80.5443 86.6719 80.6954 86.5368 80.8184 86.3781C80.8957 86.1857 80.9508 85.9854 80.9833 85.7806C81.0333 85.6401 81.0716 85.496 81.099 85.3492C81.1129 85.2616 81.153 85.1806 81.2143 85.1171H81.3132L81.4289 85.2332L81.6763 85.4653Z" />
<path opacity="0.8" d="M88.9008 79.1432C88.9008 79.1432 88.9008 79.1432 88.9008 79.2596V79.4089L88.7194 79.6246L88.5381 79.8239C88.4939 79.8644 88.4439 79.8979 88.3896 79.9231C88.3896 79.9231 88.3896 79.9231 88.2907 79.9231L85.5035 77.6833C85.302 77.4866 85.0743 77.3187 84.8273 77.1855C84.6525 77.0914 84.4627 77.0293 84.2664 77.003C84.0938 76.953 83.911 76.953 83.7387 77.003C83.5548 77.0808 83.391 77.1998 83.2603 77.3512C83.0658 77.5859 82.9505 77.8764 82.9305 78.1811C82.8768 78.5939 82.8768 79.0125 82.9305 79.4253L86.1136 82.2461C86.1205 82.2848 86.1205 82.3238 86.1136 82.3625C86.0921 82.4151 86.0643 82.4655 86.0311 82.5118C85.9826 82.5884 85.9275 82.6607 85.8662 82.7275L85.7673 83.0757L85.6352 83.1753C85.6352 83.1753 85.5527 83.1753 85.5199 83.1753H85.4374L78.6916 77.1355C78.6916 77.1355 78.6916 77.0527 78.6916 77.0195C78.6887 76.9644 78.6887 76.9089 78.6916 76.8534C78.7471 76.7826 78.8081 76.7162 78.8734 76.6545C78.9558 76.549 79.0562 76.4589 79.17 76.3888V76.2895C79.2073 76.2753 79.2481 76.2753 79.2854 76.2895L82.0069 78.7118C81.9372 78.3056 81.9372 77.8903 82.0069 77.4841C82.0864 77.1523 82.2448 76.8447 82.4685 76.5881C82.6885 76.3136 82.9717 76.0972 83.2932 75.9574C83.6362 75.8103 84.0139 75.764 84.3817 75.8249C84.6762 75.8596 84.9616 75.9498 85.2228 76.0903C85.5567 76.2728 85.8669 76.4958 86.1464 76.7541L88.9008 79.1432Z" />
<path opacity="0.8" d="M42.9135 99.597C42.9222 99.6237 42.9222 99.6525 42.9135 99.6795C42.8865 99.6864 42.858 99.6864 42.831 99.6795H42.3862H42.1063H41.9414L41.8592 99.597L42.1227 95.9226C42.1559 95.6434 42.1559 95.3612 42.1227 95.0824C42.087 94.8861 42.0202 94.697 41.9249 94.5222C41.845 94.362 41.7188 94.2302 41.5626 94.143C41.3929 94.039 41.2009 93.9769 41.0024 93.962C40.6996 93.9463 40.3996 94.0269 40.1456 94.1926C39.7902 94.4076 39.4683 94.6744 39.1903 94.9835L38.8279 99.2178C38.8367 99.2448 38.8367 99.2737 38.8279 99.3003C38.7958 99.3116 38.7608 99.3116 38.729 99.3003H38.2842H38.0204H37.8558H37.7733C37.7657 99.2678 37.7657 99.2339 37.7733 99.2014L38.3006 93.1543C38.3006 93.1543 38.3006 93.1543 38.3006 93.0722H38.7126H38.9432C38.9918 93.0602 39.0429 93.0602 39.0914 93.0722H39.1739C39.1739 93.0722 39.1739 93.0722 39.1739 93.1707L39.0914 93.962C39.4103 93.6561 39.7778 93.4054 40.1788 93.2204C40.5124 93.082 40.8725 93.02 41.2331 93.039C41.5852 93.0656 41.9279 93.1667 42.238 93.3357C42.4876 93.4864 42.6971 93.6956 42.8478 93.9452C42.9996 94.2036 43.1003 94.489 43.1441 94.7857C43.1864 95.1525 43.1864 95.5229 43.1441 95.8897L42.9135 99.597Z" />
<path fill-rule="evenodd" clip-rule="evenodd" d="M211.369 20.5713H202.604L195.355 52.7345H202.127L203.577 44.9242H210.167L211.814 52.7345H218.947L211.369 20.5713ZM204.45 38.4159L205.537 32.7808C205.669 32.1546 205.784 31.4956 205.899 30.7871C206.015 30.0785 206.147 29.403 206.262 28.6945C206.377 27.986 206.493 27.3433 206.624 26.7172C206.756 27.3433 206.904 28.0024 207.053 28.6945L207.498 30.7871C207.646 31.4626 207.777 32.1217 207.909 32.7313L209.145 38.4159H204.45Z" />
<path fill-rule="evenodd" clip-rule="evenodd" d="M162.852 20.5713V52.7509H192.589V20.5713H186.295V45.4845H180.859V20.5713H174.565V45.4845H169.128V20.5713H162.852Z" />
<path fill-rule="evenodd" clip-rule="evenodd" d="M159.968 27.5412C159.757 26.6066 159.425 25.7036 158.979 24.8555C158.615 24.1163 158.13 23.4426 157.546 22.8617C156.696 22.0199 155.673 21.3733 154.548 20.9669C153.11 20.4836 151.599 20.255 150.083 20.2913C148.748 20.2913 147.546 20.2913 146.508 20.3902C145.47 20.489 144.548 20.5385 143.757 20.6538C142.966 20.7692 142.274 20.8845 141.697 20.9999V52.7346H148.04V42.008L148.798 42.0905C149.127 42.1087 149.457 42.1087 149.786 42.0905C151.403 42.1339 153.012 41.8478 154.515 41.25C155.908 40.6689 157.132 39.7452 158.073 38.5642C158.591 37.9135 159.012 37.1923 159.325 36.4224C159.666 35.5611 159.914 34.6664 160.067 33.7531C160.233 32.7567 160.316 31.748 160.314 30.7378C160.326 29.6623 160.21 28.5892 159.968 27.5412ZM153.378 33.2917C153.043 33.9371 152.52 34.4657 151.879 34.8076C151.204 35.1615 150.449 35.3373 149.687 35.3184H148.682C148.482 35.2629 148.284 35.1969 148.089 35.1207V27.1623C148.349 27.095 148.613 27.0509 148.88 27.0304C149.226 27.0304 149.655 27.0304 150.198 27.0304C150.937 27.0105 151.669 27.1807 152.324 27.5247C152.875 27.8265 153.319 28.2931 153.592 28.8594C153.884 29.5001 154.024 30.199 154.004 30.9026C154.021 31.7315 153.835 32.5519 153.46 33.2917H153.378Z" />
<path fill-rule="evenodd" clip-rule="evenodd" d="M137.825 32.7478H128.517V27.8376H138.418V20.5713H122.092V52.7509H138.929V45.4845H128.517V39.9976H137.825V32.7478Z" />
<path fill-rule="evenodd" clip-rule="evenodd" d="M97.4629 20.5713V52.751H103.888V27.8377H112.043V52.751H118.468V20.5713H97.4629Z" />
<path fill-rule="evenodd" clip-rule="evenodd" d="M214.696 58.2876H210.627L207.332 69.4752H210.479L211.154 66.7402H214.251L215.042 69.4752H218.337L214.696 58.2876ZM211.517 64.45L212.011 62.5055C212.011 62.2748 212.126 62.0442 212.192 61.8135C212.258 61.5829 212.291 61.3194 212.357 61.0887C212.423 60.858 212.456 60.6106 212.522 60.3964C212.587 60.6051 212.654 60.8358 212.719 61.0887L212.917 61.8135C212.996 62.0347 213.062 62.2602 213.115 62.4891L213.691 64.45H211.517Z" />
<path fill-rule="evenodd" clip-rule="evenodd" d="M200.742 63.9389C200.398 63.6783 200.006 63.4882 199.589 63.3787C199.971 63.244 200.324 63.0371 200.627 62.7692C200.881 62.5502 201.079 62.2732 201.203 61.9615C201.33 61.6765 201.392 61.367 201.385 61.0554C201.385 60.6878 201.313 60.3236 201.17 59.9845C201.031 59.682 200.829 59.4126 200.577 59.1937C200.337 58.974 200.058 58.801 199.754 58.6827C199.547 58.5918 199.332 58.5199 199.111 58.4685C198.874 58.3984 198.632 58.3488 198.386 58.3203H197.497H195.306H194.284H193.395L192.752 58.4192V69.3929C193.049 69.3929 193.444 69.4751 193.955 69.5247H195.816C196.499 69.5247 197.181 69.4864 197.859 69.4094C198.374 69.3502 198.882 69.24 199.375 69.0798C199.75 68.9634 200.105 68.7911 200.429 68.5689C200.692 68.4382 200.936 68.2721 201.154 68.0747C201.357 67.8221 201.519 67.5382 201.632 67.2342C201.739 66.9043 201.794 66.5597 201.797 66.2126C201.807 65.7805 201.716 65.3521 201.533 64.9605C201.349 64.5656 201.079 64.2163 200.742 63.9389ZM195.8 60.4951H196.195H196.871C197.281 60.4689 197.691 60.5543 198.057 60.7422C198.181 60.8218 198.283 60.9313 198.352 61.0612C198.421 61.1911 198.456 61.3367 198.452 61.4838C198.454 61.6513 198.409 61.8159 198.321 61.9586C198.234 62.1017 198.108 62.2167 197.958 62.2911C197.478 62.5112 196.953 62.613 196.426 62.5878H195.8V60.4951ZM198.403 66.7564C198.222 66.9634 197.988 67.117 197.727 67.2013C197.411 67.29 197.084 67.3342 196.755 67.3331H196.195H195.8V64.7794H196.574C196.935 64.7641 197.296 64.8032 197.645 64.8948C197.93 64.951 198.194 65.0882 198.403 65.29C198.494 65.3897 198.565 65.5064 198.61 65.6338C198.656 65.7612 198.674 65.8966 198.666 66.0316C198.645 66.3075 198.521 66.5659 198.321 66.7564H198.403Z" />
<path fill-rule="evenodd" clip-rule="evenodd" d="M184.993 59.7209C184.49 59.1924 183.877 58.7819 183.197 58.5184C182.424 58.2246 181.603 58.0793 180.776 58.0899C179.959 58.0797 179.149 58.2249 178.387 58.5184C177.7 58.8045 177.074 59.2184 176.542 59.7377C176.026 60.2764 175.628 60.9158 175.372 61.6158C175.082 62.3673 174.936 63.1665 174.944 63.972C174.939 64.7406 175.067 65.5045 175.322 66.2293C175.569 66.9133 175.95 67.541 176.443 68.0749C176.94 68.6016 177.548 69.0122 178.222 69.2779C178.971 69.5764 179.771 69.7275 180.578 69.7227C181.422 69.7275 182.26 69.5768 183.049 69.2779C183.751 69.0118 184.386 68.5954 184.911 68.0585C185.424 67.5242 185.822 66.8906 186.08 66.1965C186.358 65.4479 186.498 64.6552 186.492 63.8567C186.5 63.0811 186.366 62.3103 186.097 61.583C185.867 60.8903 185.49 60.2552 184.993 59.7209ZM183.148 65.2242C183.044 65.6092 182.871 65.9724 182.637 66.2954C182.429 66.5888 182.152 66.8264 181.83 66.9873C181.497 67.1709 181.122 67.2618 180.742 67.2512C180.364 67.2581 179.989 67.1673 179.655 66.9873C179.334 66.8184 179.054 66.5822 178.831 66.2954C178.603 65.9695 178.43 65.6074 178.321 65.2242C178.189 64.7921 178.128 64.3414 178.14 63.8899C178.131 63.4381 178.192 62.9881 178.321 62.5552C178.427 62.1709 178.6 61.8085 178.831 61.4841C179.053 61.1877 179.333 60.9406 179.655 60.7592C179.993 60.5921 180.366 60.5074 180.742 60.5118C181.114 60.5056 181.482 60.5903 181.813 60.7592C182.142 60.9315 182.424 61.18 182.637 61.4841C182.881 61.8034 183.06 62.1673 183.164 62.5552C183.294 62.9881 183.354 63.4381 183.346 63.8899C183.352 64.3424 183.285 64.7928 183.148 65.2242Z" />
<path fill-rule="evenodd" clip-rule="evenodd" d="M169.162 58.2876H165.636L164.912 60.0668L164.681 60.6438C164.681 60.8248 164.533 61.0226 164.467 61.2204C164.401 61.4183 164.318 61.6489 164.22 61.896L163.972 61.2861C163.874 61.0887 163.791 60.8909 163.709 60.6767C163.627 60.4624 163.528 60.2646 163.412 60.0339L162.605 58.2876H159.014L162.308 63.8237L159.014 69.4752H162.441L163.264 67.5971C163.379 67.3664 163.478 67.1522 163.561 66.938L163.824 66.3281C163.907 66.1307 163.972 65.9329 164.039 65.7186L164.352 66.3281L164.631 66.9544L164.961 67.6299L165.834 69.4752H169.393L165.95 63.692L169.162 58.2876Z" />
<path fill-rule="evenodd" clip-rule="evenodd" d="M145.849 58.2876L142.555 69.4752H145.685L146.377 66.7402H149.457L150.265 69.4752H153.56L149.919 58.2876H145.849ZM146.789 64.45L147.283 62.5055C147.283 62.2748 147.398 62.0442 147.464 61.8135C147.53 61.5829 147.563 61.3194 147.629 61.0887C147.695 60.858 147.728 60.6106 147.794 60.3964C147.859 60.6051 147.925 60.8358 147.991 61.0887L148.189 61.8135L148.387 62.4891L148.963 64.45H146.789Z" />
<path fill-rule="evenodd" clip-rule="evenodd" d="M136.442 59.8359C136.266 59.5673 136.043 59.333 135.783 59.1439C135.356 58.8374 134.876 58.6137 134.366 58.4848C133.701 58.2998 133.014 58.1998 132.323 58.1885C131.697 58.1885 131.137 58.1885 130.676 58.1885L129.391 58.2706L128.436 58.4027V69.4421H131.401V65.7348H131.747H132.192C132.938 65.7461 133.682 65.6461 134.399 65.4381C135.011 65.2582 135.574 64.9429 136.047 64.5155C136.28 64.2965 136.475 64.0407 136.623 63.7575C136.788 63.4688 136.91 63.1582 136.986 62.8348C137.058 62.4881 137.097 62.1348 137.101 61.7805C137.093 61.4002 137.032 61.0231 136.92 60.66C136.807 60.3611 136.645 60.083 136.442 59.8359ZM133.872 62.7691C133.699 63.0093 133.458 63.1929 133.18 63.2961C132.848 63.4206 132.496 63.4823 132.142 63.4775H131.681H131.384V60.5775H131.73H132.357C132.694 60.5648 133.03 60.621 133.345 60.7425C133.583 60.8352 133.789 60.9958 133.938 61.2038C134.077 61.441 134.15 61.7111 134.15 61.9863C134.15 62.2615 134.077 62.5315 133.938 62.7691H133.872Z" />
<path fill-rule="evenodd" clip-rule="evenodd" d="M113.328 60.8413H116.327V69.4752H119.309V60.8413H122.373V58.2876H113.328V60.8413Z" />
<path fill-rule="evenodd" clip-rule="evenodd" d="M102.488 61.3853C102.802 61.1185 103.166 60.9167 103.559 60.7922C103.977 60.6721 104.409 60.6112 104.844 60.6108C105.151 60.5853 105.46 60.5853 105.766 60.6108C106.027 60.6528 106.286 60.7079 106.541 60.7758L107.167 61.0064L107.776 58.5842C107.552 58.4637 107.314 58.3699 107.068 58.3043C106.755 58.2218 106.409 58.1557 106.014 58.09C105.586 58.0637 105.157 58.0637 104.729 58.09C104.051 58.0867 103.376 58.1699 102.719 58.3371C102.103 58.4951 101.514 58.7451 100.973 59.0787C100.437 59.3922 99.9629 59.7999 99.572 60.2813C99.1732 60.7714 98.8663 61.3298 98.666 61.9291C98.4423 62.6097 98.331 63.3218 98.3365 64.0382C98.3288 64.6283 98.4065 65.2167 98.5671 65.7849C98.7189 66.3335 98.9641 66.8517 99.2922 67.317C99.6209 67.7944 100.034 68.2075 100.511 68.5364C101.046 68.9116 101.643 69.1904 102.274 69.3601C103.019 69.5689 103.79 69.6689 104.564 69.6568C105.011 69.6601 105.457 69.6269 105.899 69.5579C106.249 69.5203 106.596 69.4543 106.936 69.3601C107.164 69.3032 107.386 69.2199 107.595 69.113L107.151 66.7075C106.95 66.7977 106.74 66.8641 106.524 66.9054C106.27 66.9736 106.012 67.0232 105.75 67.0535C105.47 67.0699 105.19 67.0699 104.91 67.0535C104.416 67.0535 103.926 66.9699 103.46 66.8064C103.054 66.6605 102.683 66.4305 102.373 66.1309C102.078 65.8418 101.848 65.4937 101.697 65.109C101.542 64.6816 101.464 64.2294 101.467 63.7747C101.464 63.2827 101.559 62.7955 101.747 62.3411C101.92 61.9718 102.174 61.6455 102.488 61.3853Z" />
</svg>
