<svg width="150" height="53" fill="none" xmlns="http://www.w3.org/2000/svg"><g opacity=".4"><path d="M60.459 44.492a23.1 23.1 0 0 1-3.545.397c-3.055.093-5.737-1.143-5.76-3.358-.047-3.825 3.824-5.924 6.693-6.507 1.283-.256 3.755-.56 6.203.047l-1.422 3.428c-.42-.933-1.47-.956-1.89-.956a5.883 5.883 0 0 0-2.541.536c-1.446.653-2.706 2.775-.653 3.592 1.143.443 2.565.093 4.081-.14l-1.166 2.962ZM120.138 34.954l-2.448 6.67c.023-.677.163-3.335.256-4.851.023-.63-.093-1.12-.396-1.423-.374-.396-.84-.396-.863-.396h-5.481l-3.591 9.725h3.964l2.542-6.903-.303 6.903h6.67l3.592-9.725h-3.942ZM99.639 41.46H95.02l2.379-6.506h-4.571l-3.592 9.725h9.212l1.19-3.218ZM89.308 37.496l.956-2.542h-9.842l-3.568 9.725h9.935l.956-2.612h-5.48l.396-1.096h5.13l.887-2.379h-5.13l.396-1.096h5.364ZM74.195 44.679l3.569-9.725h-4.478l-1.306 3.498h-2.356l1.283-3.498h-4.501l-3.568 9.725h4.478l1.236-3.288h2.355l-1.213 3.288h4.501ZM47.725 44.679l3.592-9.725h-4.71l-3.592 9.725h4.71ZM40.356 44.679l3.591-9.725h-6.67l-3.45 5.224s.209-2.729.279-3.405c.047-.49-.023-1.842-1.236-1.842h-5.457l-3.592 9.748h4.268l2.589-7.043-.537 7.043h3.802l4.664-6.927-2.542 6.927h4.291ZM104.956 44.679l3.568-9.725h-4.711l-3.591 9.725h4.734ZM118.552 51.279c-.303.863-.723 1.143-1.586 1.143h-.909l.886-2.379h.886c.746 0 1.003.466.723 1.236Zm-.676-1.68h-1.353l-1.189 3.243h1.609c1.166 0 1.772-.467 2.146-1.493.349-.933 0-1.75-1.213-1.75Zm-3.242 1.167c-.14.443-.443.536-1.166.536h-.77l.467-1.282h.723c.769 0 .933.21.746.746Zm-.63-1.166h-1.259l-1.189 3.242h.583l.42-1.12h1.002l.397 1.12h.583l-.467-1.19c.514-.047.933-.256 1.12-.793.256-.746-.047-1.26-1.19-1.26Zm-4.967 2.005 1.283-1.725.093 1.725h-1.376Zm1.166-2.005c-.163 0-.28.047-.396.21l-2.309 3.032h.606l.583-.817h1.726l.047.817h.536l-.21-3.242h-.583Zm-2.169 0-1.889 2.868.07-2.868h-.793l-1.889 2.868.024-2.868h-.56v3.242h.56a.4.4 0 0 0 .373-.21l1.749-2.636-.047 2.846h.607a.388.388 0 0 0 .349-.21l2.053-3.032h-.607Zm-6.39 1.166c-.14.443-.443.536-1.166.536h-.793l.467-1.282h.723c.816 0 .956.21.769.746Zm-.629-1.166h-1.26l-1.19 3.242h.584l.42-1.12h1.002l.397 1.12h.583l-.466-1.19c.513-.047.932-.256 1.119-.793.256-.746-.047-1.26-1.189-1.26Zm-3.242 1.679c-.327.886-.793 1.19-1.54 1.19-.932 0-1.165-.49-.862-1.307.326-.886.793-1.189 1.539-1.189.91.023 1.143.49.863 1.306Zm-.84-1.726c-1.12 0-1.749.49-2.122 1.54-.35.979-.047 1.795 1.376 1.795 1.096 0 1.75-.49 2.122-1.539.35-.956.047-1.796-1.376-1.796Zm-4.244.49h2.122l.163-.42H92.27l-1.19 3.242h.584l.443-1.236h1.912l.163-.443H92.27l.42-1.143Zm-4.734 1.003-.677-1.446h-.56l.864 1.842-.514 1.4h.584l.49-1.376L90.38 49.6h-.676l-1.75 1.446Zm-3.872.56 1.283-1.726.093 1.725h-1.376Zm1.19-2.006c-.164 0-.28.047-.397.21l-2.309 3.032h.607l.583-.817h1.726l.046.817h.537l-.21-3.242h-.583Zm-2.17 0-1.888 2.868.07-2.868h-.793l-1.89 2.868.024-2.868h-.56v3.242h.56a.4.4 0 0 0 .373-.21l1.75-2.636-.047 2.846h.606a.39.39 0 0 0 .35-.21L83.71 49.6h-.606Zm-7.812 1.166c-.14.443-.443.536-1.166.536h-.77l.467-1.282h.723c.793 0 .933.21.746.746Zm-.63-1.166h-1.259l-1.19 3.242h.584l.42-1.12h1.002l.397 1.12h.583l-.466-1.19c.513-.047.932-.256 1.119-.793.28-.746-.023-1.26-1.19-1.26Zm-4.314.42h2.122l.164-.42h-2.706l-1.19 3.242h2.706l.163-.42h-2.122l.35-.98h1.912l.164-.42h-1.913l.35-1.002Zm-1.073-.42H66.15l-.163.443h1.283l-1.026 2.799h.583l1.026-2.799h1.26l.162-.443Zm-6.973.443h1.283l-1.026 2.799h.583l1.026-2.799h1.26l.163-.443h-3.126l-.163.443Zm-4.22 2.799h2.704l.164-.42h-2.123l.35-.98h1.913l.163-.42h-1.913l.35-.979h2.123l.163-.42h-2.706l-1.189 3.219Zm-.77-2.286c-.117.373-.49.467-1.073.467h-.933l.373-1.003h1.026c.56 0 .746.163.606.536Zm-.327 1.47c-.117.302-.35.396-.933.396h-1.236l.373-1.003h1.12c.583 0 .816.21.676.606Zm-.047-2.426h-1.679l-1.19 3.242h2.1c.63 0 1.12-.164 1.33-.7.162-.42 0-.793-.444-.91.396-.093.676-.28.816-.63.21-.582-.07-1.002-.933-1.002Zm-6.716 2.005 1.283-1.725.093 1.725H50.22Zm1.166-2.005c-.163 0-.28.047-.397.21l-2.308 3.032h.606l.606-.817h1.726l.047.817h.536l-.21-3.242h-.606ZM29.512 29.264l-.91 2.448h96.667l.909-2.448H29.512Z" fill="#2C2A2D"/><path d="m75.548 29.264.21-.07s.116-.047.163-.047c.7-.233 2.262-1.05 2.845-2.192 1.19-.443 2.052-1.05 2.589-1.773 1.026-.186 1.819-.63 2.262-.862 1.026-.584 1.75-1.143 2.192-1.75.373-.49.607-.863.793-1.259.35-.186.746-.42 1.26-.77 1.795-1.189 2.168-3.381 2.215-3.638 0-.046.023-.116.023-.163h.28c1.796 0 4.151-1.12 5.41-1.749h.024a5.79 5.79 0 0 1 .443-.21c.42-.186 1.283-.63 2.17-1.236 1.142-.77 1.911-1.47 2.331-2.122.07-.093.117-.21.163-.327l.747-.466c.21-.14.396-.327.513-.56.21-.116.373-.21.42-.256.583-.373.839-1.026.629-1.656v-.023c-.186-.56-.699-1.236-1.562-1.446-.303-.653-.956-1.026-1.68-1.026-.163 0-.303.023-.396.046-.046 0-.233.047-1.632.397l-2.076.49a1.957 1.957 0 0 0-.07-1.54c-.28-.583-.863-.956-1.47-.956-.209 0-.419.047-.605.14h-.024c-.07.047-.233.117-3.941 2.519-.047.023-.093.07-.14.093-1.796 1.562-2.449 2.495-2.612 2.728a3.51 3.51 0 0 0-.373.653l-.28-.14a5.704 5.704 0 0 0-2.309-.49c-1.422 0-2.425.56-2.682.724-.14.07-.676.396-1.469 1.026a5.033 5.033 0 0 0-.863.863c-.536.116-.98.28-1.306.443-.42.21-.816.536-1.26.886l-.023.023c-.07.07-.14.117-.233.187-.186.14-.676.536-1.142 1.19h-.047c-.07.023-.653.14-1.4.49-.186.092-.373.186-.536.302a8.306 8.306 0 0 0-1.936.35h-.046c-.07-.023-.723-.14-1.516-.14-.35 0-.676.024-.956.07-.187.024-.863.14-1.423.303-.28.07-.956.303-1.749.817-1.702-.397-3.405-.514-4.477-.56 1.026-1.376 1.515-2.962 1.352-4.315-.326-2.565-2.052-4.08-2.682-4.524-1.073-4.478-4.198-6.39-6.763-6.67-.513-.583-1.47-.956-2.565-.956-.444 0-.863.07-1.283.163-1.376.373-2.472 1.423-2.682 2.566-1.376 1.142-3.521 3.708-2.915 8.302-.513.7-1.516 2.472-.84 5.177.467 1.843 1.61 3.172 3.335 3.872-1.33.653-2.495 1.422-3.475 2.332-.07.046-.116.116-.163.163-2.309.117-4.408 1.073-6.063 2.775-1.19 1.213-2.006 2.612-2.52 3.848h41.816v-.046Z" fill="#2C2A2D"/><path d="M75.455 27.794c-.49.164-1.33.49-2.496.49h-.116c-1.213-.023-2.659-.653-3.685-1.796-1.05-1.142-1.61-2.868-1.446-4.57.163-1.703 1.19-3.126 2.425-3.895.28-.187.584-.327.887-.42.116-.047.256-.093.373-.117-.023.024-.047.07-.07.094-1.26 1.865-1.166 4.267-.56 5.69.327.746.7 1.353 1.143 1.889a5.685 5.685 0 0 0 2.076 1.586c.746.326 1.515.49 2.308.49h.257c-.397.256-.793.466-1.096.56Z" fill="#fff"/><path d="M77.973 25.719a5.164 5.164 0 0 1-1.702.303c-.56 0-1.19-.116-1.82-.396-1.375-.607-2.121-1.796-2.588-2.846-.466-1.072-.56-2.985.443-4.5.56-.817 1.353-1.306 1.983-1.586-.397 1.189-.583 3.031.723 5.247v.047a6.534 6.534 0 0 0 2.542 2.378 6.33 6.33 0 0 0 1.935.653c-.466.28-1.026.513-1.516.7Z" fill="#EEF4FC"/><path d="M82.894 23.06c-.56.303-1.33.723-2.309.77h-.14c-1.469 0-3.241-.7-4.384-2.542-2.052-3.452.186-5.83.933-6.414.443-.35.886-.7 1.236-.91-.163.467-.233.817-.233.934-.164.863-.024 1.982.373 2.985.513 1.33 1.399 2.402 2.565 3.102.956.56 1.936.84 2.939.84.28 0 .536-.024.746-.047-.49.536-1.26 1.026-1.726 1.282ZM39.004 29.264c.093-.77.303-1.703.723-2.706.35-.84.77-1.632 1.306-2.355-1.493.303-2.822 1.05-3.942 2.192-.77.77-1.422 1.75-1.959 2.845h3.872v.024ZM64.913 29.264c-.256-.234-.466-.444-.653-.63-.886-.91-1.585-2.519-1.795-3.638-.373-1.82-.117-3.592.746-5.248a6.805 6.805 0 0 1 1.003-1.422c-1.936-.35-3.778-.373-4.384-.373-.07.14-.164.256-.28.373-.7.606-1.283.746-.863.303.396-.466.373-.956.256-1.073-.093-.093-.256-.023-.35 0-1.142.42-1.352.233-1.119.093 1.026-.63 1.61-1.189 1.959-1.539.863-.98 1.563-2.402 1.4-3.708-.187-1.516-1.05-2.705-1.936-3.428-.094-.07-.164-.14-.21-.163-.024-.024-.047-.047-.07-.047a2.317 2.317 0 0 0-.467-.256c-.233-.07-.163-.234.094-.304-.024-.116-.047-.256-.094-.373-.023-.116-.07-.233-.093-.35-1.026-3.404-3.452-4.85-5.457-5.06h-.07c-.467-.047-.793-.047-.863-.047-.327-.047-.187-.186 0-.256.07-.024.093-.094.07-.14-.233-.35-1.306-.677-2.425-.35a2.88 2.88 0 0 0-1.4.91c-.046.07-.093.163-.14.233 0 .023-.023.046-.023.07-.047.14.117.093.117.093.536-.117.77.023.35.256-.257.14-.63.397-.887.583a6.684 6.684 0 0 0-1.959 2.402c-.513 1.073-.77 2.333-.723 3.685.024.187.024.56.047.677.023.14.117.28.443.233.443-.07.723-.14.327.186-.164.117-.677.607-.98.98-.606.77-1.073 2.192-.606 3.988.396 1.539 1.352 2.565 2.868 3.055.91.256 2.985.606 4.594.513.164 0 .21.023.187.093-.023.07-.14.117-.303.14-.257.047-.816.14-1.772.233-.21.024-.374.164-.397.257v.023c-.117.42.746.77.84.816.326.094.186.28.046.304-.606.116-1.702-.14-2.285-.187-.397-.023-.7.047-.816.117-1.376.606-2.543 1.376-3.499 2.262a9.96 9.96 0 0 0-2.425 3.498 9.815 9.815 0 0 0-.606 2.239h24.603v-.023Z" fill="#EEF4FC"/><path d="M65.123 27.771c.513.536 1.096 1.096 2.03 1.493h4.197a6.594 6.594 0 0 1-3.078-1.936c-.63-.7-1.12-1.563-1.446-2.542a7.652 7.652 0 0 1-.327-2.985 6.328 6.328 0 0 1 1.003-2.845c.373-.607.863-1.12 1.4-1.563-.047 0-.117.023-.164.023 0 0-.723.094-1.236.257s-2.286.816-3.218 2.635a6.446 6.446 0 0 0-.63 4.431c.186 1.05.84 2.402 1.47 3.032Z" fill="#fff"/><path d="M101.901 8.81c-.117.07-.28.164-.42.257v-.023c-.21-.35-.49-.583-.839-.653-.537-.116-1.213.093-2.1.676-1.305.84-3.334 1.33-3.358 1.33a.233.233 0 0 0-.186.303c.023.117.14.21.256.21h.07c.094-.024 2.146-.513 3.522-1.4.746-.49 1.329-.7 1.702-.606.187.047.327.14.443.35.164.257.024.396 0 .396-.023 0-.653.42-.933.583-.14-.14-.42-.373-.84-.42-.466-.046-.955.164-1.445.63-1.19 1.12-2.472 1.47-2.495 1.493a.286.286 0 0 0-.187.326c.023.117.14.187.257.187h.07c.046-.023 1.422-.396 2.705-1.61.373-.349.723-.512 1.026-.489.303.023.49.233.536.28 0 .023.07.117 0 .21-.723 1.143-3.241 2.588-3.964 2.892-.537.233-2.682 1.376-4.431 1.749-.187.046-.397.07-.583.093h-.07c-.257 0-1.446.023-1.796-.326-.513-.513-.7-.14-.536.513-.56.326-1.4.84-1.61.98-.583.349-1.329-.047-1.469-.047-.303 0 .42.909 1.026 1.002.653.094 1.866-.676 1.866-.676l.466-.303s-.28 1.772-1.585 2.658c-.817.537-1.166.723-1.47.863-.21.094-.816.42-1.725.42-.653 0-1.423-.163-2.31-.676-2.121-1.26-2.541-3.732-2.355-4.828 0 0 .234-1.632 1.493-2.588.84-.653 1.33-.933 1.33-.933s.792-.513 1.958-.513c.513 0 1.096.093 1.703.373-.187.14-.35.28-.444.396-.233.373-.582 1.19-.35 1.19.164 0 .28-.42.84-.7.28-.14 1.586-.91 1.586-.91s.047-.21.117-.326c0 0 .163-.35.49-.84.023-.023.07-.093.14-.21a5.86 5.86 0 0 1 .746-.839c.35-.373.84-.84 1.492-1.423 0 0 3.638-2.355 3.802-2.448.023-.024.07-.024.093-.024.303 0 .746.537.21 1.26-.443.583-.956.98-1.353 1.282a1.76 1.76 0 0 1-.396.234c-.56.186-1.283.63-1.4.723-.116.093-.116.256.024.186.49-.21 1.26-.396 1.399-.443.84-.187 6.926-1.656 7.02-1.68.023 0 .093-.022.14-.022.21 0 .559.07.653.513v.046l-5.574 1.656a.252.252 0 0 0-.163.327c.023.093.116.163.21.186h.116l4.968-1.47c.093-.022.279-.069.653-.186l.046-.023c.117-.023.21-.047.303-.047.513 0 .817.42.91.677.163.093.116.163 0 .233Z" fill="#EEF4FC"/><path d="M54.162 7.388c0 .327.047.7.14 1.026.093.327.233.653.42.933.163.233.373.467.676.56h.047c.07.023.14.023.21.023.116 0 .233-.023.373-.046.14-.024.28-.07.42-.14.163-.094.233-.28.303-.443.07-.187.093-.374.116-.56a2.49 2.49 0 0 0-.14-1.003v.047c.187.863-.07 1.632-.583 1.749-.513.116-1.072-.49-1.259-1.33a3.283 3.283 0 0 1-.07-.653c.117.14.257.234.42.187.21-.047.326-.326.256-.583-.07-.233-.256-.396-.443-.396.094-.14.233-.257.397-.28.326-.07.676.14.933.56l-.21-.35c-.187-.257-.467-.513-.793-.583-.047 0-.117-.024-.163-.024-.304 0-.607.14-.77.373-.21.257-.28.607-.28.933Zm-.187 1.026c-.093-.373-.233-.932-.186-1.469.047-.77.443-1.213.91-1.376.583-.186 1.212.117 1.562.56.21.256.396.63.56 1.003.046.116.116.256.163.396.14.42.21.84.186 1.236-.023.233-.046.467-.14.653-.07.21-.21.49-.443.63-.163.093-.35.117-.49.163-.14.023-.28.047-.442.047-.094 0-.187 0-.28-.024h-.07c-.397-.116-.63-.42-.84-.676a3.56 3.56 0 0 1-.373-.723s-.023-.046-.047-.14A.431.431 0 0 1 54 8.531c0-.07-.024-.093-.024-.117Zm1.47 1.516s-.024-.023 0 0c-.024-.023-.024 0 0 0Zm-5.784.234c.21.396.466.7.746.862.14.07.28.117.444.117.14 0 .28-.023.466-.07.07-.023.303-.093.42-.14.233-.093.42-.42.513-.84.023-.163.046-.326.046-.49-.046.537-.326.957-.7 1.027-.559.14-1.189-.466-1.398-1.353a3.503 3.503 0 0 1-.07-.676c.116.14.256.21.42.163.21-.046.326-.326.256-.606-.07-.21-.233-.373-.397-.397a.853.853 0 0 1 .444-.326c.42-.093.862.186 1.142.7 0-.024-.023-.047-.023-.07-.28-.56-.77-1.143-1.703-.887-1.236.327-.956 1.936-.816 2.426.047.186.117.373.21.56Zm-.303.163c-.21-.373-.327-.793-.397-1.213-.07-.42-.093-.863 0-1.283.07-.42.257-.793.607-1.026.28-.21.63-.326.98-.326.093 0 .186 0 .28.023.885.187 1.305.91 1.655 1.936.396 1.12.117 2.518-.606 2.822-.187.07-.467.163-.467.163a2.34 2.34 0 0 1-.56.093c-.21 0-.42-.046-.606-.163-.396-.257-.7-.653-.886-1.026Zm7.113 2.705c-1.12.606-2.402.933-3.662 1.096.35.163.7.28 1.073.327.35.023.677-.024 1.003-.117.327-.093.653-.256.933-.466.28-.257.466-.537.653-.84Zm1.679-1.073c-.07.024-.093-.07-.14-.186-.21.28-.676.723-.746.816l-.28.42c-.14.256-.257.49-.443.723-.233.303-.513.583-.84.77-.63.372-1.399.559-2.122.442a4.683 4.683 0 0 1-1.096-.373c-.28-.14-.583-.303-.886-.326-.35 0-.723.023-1.073-.024-.117-.023-.233-.07-.257-.186-.046-.163.07-.35.234-.35.046 0 .116.023.163.023.117 0 .233.024.35.024 1.259.046 2.565-.164 3.754-.537.747-.233 1.47-.536 2.1-1.003.256-.186.512-.396.722-.63.024-.046.07-.092.094-.116-.024-.023-.047-.023-.07-.023-.07-.024-.07-.14.046-.163a.446.446 0 0 1 .35.093c.07.07.117.163.14.303.093.117.07.28 0 .303Zm-7.65 1.493c-.326.233-.396.396-.443.513-.046.117-.046.233-.023.28a.112.112 0 0 1-.046.14c-.047.023-.094 0-.117 0l-.07-.07c-.093-.21 0-.677.233-.886a.978.978 0 0 1 .327-.21c.046-.024.163-.07.233.023.023.093-.047.163-.093.21Z" fill="#2C2A2D"/></g></svg>