<svg width="17" height="17" xmlns="http://www.w3.org/2000/svg"><path d="M6.07.422a8.317 8.317 0 0 1 4.138-.28c2.192.39 4.172 1.75 5.375 3.617a8.155 8.155 0 0 1 1.288 3.715c.088.823.022 1.656-.134 2.466a8.019 8.019 0 0 1-1.479 3.318c-1.212 1.61-3.003 2.79-4.984 3.198v-5.917h1.614c.122-.775.242-1.55.366-2.324-.815-.003-1.63 0-2.445-.001V6.646c0-.382.16-.788.483-1.01.258-.166.574-.205.875-.211.477-.002.955 0 1.431-.001V3.388a12.785 12.785 0 0 0-1.995-.16c-.65.013-1.315.16-1.86.527a2.62 2.62 0 0 0-.988 1.206c-.196.48-.267 1.002-.27 1.518l-.001 1.735h-1.86v2.325h1.86v5.916a9.315 9.315 0 0 1-2.093-.606c-1.9-.807-3.448-2.386-4.26-4.279C.683 10.52.47 9.378.456 8.24A8.84 8.84 0 0 1 .7 6.27 8.271 8.271 0 0 1 6.07.423Z"/></svg>