<svg width="239" height="163" viewBox="0 0 239 163" fill="none" xmlns="http://www.w3.org/2000/svg">
<path d="M56.9541 58.4694C51.1715 58.4715 45.5186 56.7587 40.7096 53.5476C35.9006 50.3365 32.1514 45.7714 29.9371 40.4296C27.7228 35.0879 27.1427 29.2095 28.2695 23.5378C29.3964 17.8661 32.1797 12.656 36.2679 8.56639C40.356 4.47678 45.5652 1.6914 51.2364 0.56252C56.9077 -0.566366 62.7861 0.0119793 68.1286 2.22437C73.4712 4.43676 78.0378 8.18376 81.2506 12.9916C84.4634 17.7995 86.1782 23.4521 86.1782 29.2346C86.167 36.9829 83.085 44.4107 77.6072 49.8906C72.1293 55.3704 64.7023 58.4554 56.9541 58.4694V58.4694ZM56.9541 5.30865C52.219 5.30656 47.5895 6.70895 43.6515 9.33833C39.7135 11.9677 36.6441 15.7059 34.8311 20.0802C33.018 24.4545 32.5429 29.2682 33.4662 33.9125C34.3895 38.5567 36.6696 42.8227 40.0179 46.1709C43.3661 49.5192 47.6321 51.7992 52.2764 52.7225C56.9206 53.6458 61.7345 53.1708 66.1087 51.3578C70.483 49.5447 74.2214 46.475 76.8508 42.5371C79.4801 38.5991 80.8823 33.9697 80.8802 29.2346C80.8718 22.8916 78.3485 16.8109 73.8634 12.3257C69.3782 7.84055 63.2971 5.31706 56.9541 5.30865V5.30865Z" fill="#2C2A2D"/>
<path d="M64.0962 162.65H34.3635C31.4302 162.659 28.5242 162.085 25.8141 160.963C23.1041 159.841 20.6439 158.192 18.5754 156.112L6.53781 144.086C4.45813 142.017 2.80952 139.557 1.6873 136.847C0.565071 134.136 -0.00839017 131.231 9.27537e-05 128.297V102.146C-0.0065096 99.2206 0.566933 96.3226 1.6873 93.6199C2.80766 90.9172 4.45288 88.4635 6.52746 86.4005L19.4337 73.4944C21.4979 71.4186 23.9534 69.7729 26.658 68.6524C29.3626 67.532 32.2623 66.9592 35.1897 66.9672H56.9542V72.2652H35.1897C32.9591 72.2607 30.7497 72.6965 28.6877 73.5475C26.6258 74.3984 24.7521 75.6479 23.1739 77.2243L10.2573 90.1409C8.67869 91.7136 7.42694 93.5831 6.57403 95.6417C5.72112 97.7004 5.28396 99.9074 5.2878 102.136V128.287C5.28113 130.524 5.71884 132.74 6.57558 134.806C7.43232 136.873 8.69099 138.748 10.2785 140.324L22.3156 152.361C23.8945 153.944 25.7708 155.199 27.8366 156.054C29.9025 156.908 32.1169 157.346 34.3526 157.341H64.0854C64.2259 157.341 64.3606 157.286 64.4599 157.186C64.5593 157.087 64.6152 156.952 64.6152 156.812V140.229C64.6152 140.088 64.5593 139.953 64.4599 139.854C64.3606 139.755 64.2259 139.699 64.0854 139.699H44.5995C42.8609 139.704 41.1383 139.363 39.5322 138.698C37.9261 138.032 36.4684 137.054 35.243 135.821L23.0891 123.678L26.8401 119.927L38.9832 132.07C39.7184 132.811 40.5932 133.398 41.5572 133.799C42.5213 134.199 43.5557 134.403 44.5995 134.401H64.0854C65.631 134.401 67.1134 135.015 68.2064 136.108C69.2993 137.201 69.9132 138.683 69.9132 140.229V156.812C69.9146 157.577 69.7655 158.335 69.474 159.043C69.1824 159.75 68.7543 160.394 68.2141 160.936C67.6739 161.478 67.0322 161.908 66.3256 162.202C65.6191 162.497 64.8615 162.649 64.0962 162.65Z" fill="#2C2A2D"/>
<path d="M90.7127 77.2244C89.1411 75.6444 87.2717 74.3916 85.2129 73.5385C83.154 72.6855 80.9462 72.2493 78.7176 72.2549H56.9531V66.9568H78.7176C81.6433 66.9502 84.5414 67.5237 87.2441 68.644C89.9468 69.7644 92.4003 71.4094 94.4633 73.484L90.7127 77.2244Z" fill="#2C2A2D"/>
<path d="M57.7815 128.234H55.5878L54.7931 127.461L46.1894 118.857C45.7483 118.416 45.4247 117.872 45.2488 117.274C45.0729 116.676 45.0501 116.043 45.1826 115.434L53.0448 79.6086C53.2248 78.7813 53.6827 78.0406 54.3419 77.5093C55.0012 76.9781 55.822 76.6884 56.6686 76.6884C57.5153 76.6884 58.3366 76.9781 58.9958 77.5093C59.6551 78.0406 60.1124 78.7813 60.2924 79.6086V79.6086L68.1551 115.445C68.2921 116.051 68.2725 116.683 68.0982 117.279C67.924 117.876 67.6004 118.419 67.1587 118.857L57.7815 128.234ZM50.5443 115.731L56.6686 121.855L62.7935 115.731L56.6686 87.8206L50.5443 115.731Z" fill="#2C2A2D"/>
<path d="M187.553 157.193L173.778 143.418C171.812 141.448 170.701 138.784 170.684 136.001V92.9278C170.679 92.1403 170.967 91.3791 171.492 90.7918C172.016 90.2046 172.741 89.8329 173.524 89.7489C184.003 88.6893 199.484 82.3317 201.995 77.0972C202.11 76.8696 202.284 76.6771 202.498 76.5397C202.713 76.4024 202.96 76.3253 203.215 76.3166C203.47 76.3079 203.722 76.368 203.946 76.4905C204.169 76.6129 204.355 76.7932 204.485 77.0125C207.717 82.1622 221.873 88.6682 232.607 89.7278C233.39 89.8118 234.114 90.1835 234.639 90.7708C235.164 91.3581 235.452 92.1192 235.447 92.9067V135.959C235.447 138.769 234.33 141.463 232.342 143.45L218.567 157.225C216.586 159.207 213.9 160.324 211.097 160.33L195.023 160.383C193.629 160.368 192.252 160.079 190.97 159.532C189.688 158.985 188.527 158.19 187.553 157.193V157.193Z" fill="#FFFFAF"/>
<path d="M195.065 162.968C191.543 162.961 188.167 161.559 185.677 159.069L171.902 145.294C170.674 144.068 169.701 142.611 169.039 141.007C168.377 139.403 168.039 137.683 168.045 135.948V92.875C168.041 91.4338 168.573 90.0427 169.539 88.973C170.505 87.9033 171.834 87.2319 173.269 87.0896C183.865 86.03 197.83 79.5981 199.621 75.9106C199.934 75.2635 200.414 74.7118 201.012 74.3131C201.611 73.9143 202.305 73.683 203.023 73.643C203.757 73.6024 204.489 73.76 205.141 74.0993C205.794 74.4385 206.343 74.947 206.731 75.5715C209.348 79.7358 222.498 86.0724 232.872 87.0896C234.31 87.2295 235.644 87.9013 236.612 88.9735C237.58 90.0457 238.113 91.4409 238.106 92.8856V135.938C238.11 137.676 237.77 139.398 237.104 141.004C236.438 142.61 235.461 144.068 234.228 145.294L220.453 159.069C219.231 160.297 217.777 161.272 216.177 161.937C214.577 162.603 212.861 162.946 211.128 162.947L195.054 163L195.065 162.968ZM189.428 155.328C190.932 156.823 192.966 157.664 195.086 157.67L211.15 157.617C212.191 157.62 213.223 157.416 214.185 157.018C215.147 156.619 216.02 156.035 216.755 155.297L230.53 141.522C231.271 140.787 231.859 139.912 232.259 138.948C232.659 137.983 232.864 136.95 232.861 135.906V92.8538C232.867 92.7251 232.823 92.5992 232.738 92.5024C232.653 92.4056 232.534 92.3454 232.406 92.3346C221.809 91.275 208.384 85.3518 203.404 79.7995C198.466 85.8922 183.102 91.3703 173.862 92.324C173.735 92.3394 173.617 92.4005 173.531 92.496C173.446 92.5915 173.397 92.7149 173.396 92.8432V135.916C173.393 136.958 173.597 137.989 173.995 138.951C174.394 139.913 174.978 140.787 175.716 141.522L189.428 155.328Z" fill="#2C2A2D"/>
<path d="M214.477 121.612C212.75 119.959 210.005 118.782 206.318 118.104L200.543 117.045C196.675 116.303 194.789 114.533 194.789 111.609C194.77 110.752 194.952 109.902 195.32 109.127C195.688 108.353 196.232 107.675 196.908 107.148C198.634 105.881 200.748 105.259 202.885 105.389C205.285 105.258 207.654 105.983 209.571 107.434C210.332 108.018 210.948 108.771 211.369 109.633C211.79 110.496 212.005 111.444 211.997 112.404V112.743H216.882V112.404C216.918 110.939 216.644 109.483 216.078 108.132C215.512 106.781 214.666 105.564 213.597 104.563C211.659 102.772 209.225 101.608 206.615 101.225C205.731 101.09 204.838 101.026 203.944 101.034H202.249C201.034 101.016 199.821 101.14 198.635 101.405C196.509 101.86 194.549 102.89 192.967 104.382C191.985 105.309 191.208 106.431 190.684 107.675C190.16 108.919 189.902 110.259 189.926 111.609C189.926 116.907 193.02 120.245 199.134 121.4L206.212 122.714C210.27 123.487 212.241 125.352 212.241 128.414C212.27 129.276 212.093 130.133 211.724 130.912C211.356 131.692 210.807 132.372 210.122 132.897C208.67 134.041 206.424 134.634 203.436 134.634C200.968 134.77 198.529 134.043 196.537 132.579C195.764 132.005 195.138 131.257 194.709 130.395C194.28 129.533 194.06 128.582 194.068 127.62V127.281H189.184V127.62C189.177 129.033 189.463 130.433 190.023 131.731C190.583 133.03 191.405 134.198 192.437 135.164C193.929 136.61 195.746 137.678 197.735 138.279C199.345 138.773 201.021 139.013 202.705 138.989H205.057C208.303 139.034 211.456 137.905 213.936 135.81C214.984 134.884 215.819 133.741 216.382 132.46C216.946 131.179 217.224 129.792 217.2 128.393C217.242 127.136 217.021 125.883 216.553 124.716C216.084 123.548 215.377 122.491 214.477 121.612V121.612Z" fill="#2C2A2D"/>
<path d="M205.447 91.9425H200.764V103.492H205.447V91.9425Z" fill="#2C2A2D"/>
<path d="M205.447 136.457H200.764V148.007H205.447V136.457Z" fill="#2C2A2D"/>
<path d="M141.489 58.4694C135.707 58.4694 130.055 56.7548 125.247 53.5424C120.439 50.3301 116.692 45.7642 114.479 40.4222C112.266 35.0803 111.688 29.2023 112.816 23.5313C113.944 17.8603 116.728 12.6512 120.817 8.56263C124.905 4.47409 130.114 1.68976 135.785 0.561739C141.456 -0.566288 147.334 0.0126975 152.676 2.2254C158.018 4.4381 162.584 8.18515 165.796 12.9928C169.009 17.8004 170.723 23.4525 170.723 29.2346C170.712 36.9847 167.628 44.4142 162.148 49.8943C156.668 55.3745 149.239 58.4582 141.489 58.4694V58.4694ZM141.489 5.30865C136.754 5.30865 132.125 6.71271 128.189 9.34337C124.252 11.974 121.184 15.7131 119.373 20.0876C117.562 24.462 117.088 29.2754 118.013 33.9189C118.937 38.5625 121.218 42.8275 124.567 46.1747C127.915 49.5219 132.182 51.8009 136.826 52.7233C141.47 53.6457 146.282 53.17 150.656 51.3567C155.03 49.5434 158.767 46.4738 161.396 42.536C164.025 38.5983 165.427 33.9693 165.425 29.2346C165.417 22.8898 162.892 16.8075 158.404 12.322C153.917 7.83649 147.834 5.31425 141.489 5.30865V5.30865Z" fill="#2C2A2D"/>
<path d="M148.643 162.65H118.899C115.966 162.659 113.061 162.085 110.351 160.963C107.641 159.841 105.18 158.192 103.111 156.112L91.0847 144.086C89.005 142.017 87.3564 139.557 86.2342 136.847C85.1119 134.136 84.5385 131.231 84.547 128.297V102.146C84.5384 99.2213 85.1099 96.3236 86.2285 93.6208C87.347 90.9181 88.9903 88.464 91.0635 86.4005L103.98 73.4944C106.042 71.4189 108.496 69.7733 111.199 68.6528C113.902 67.5324 116.8 66.9594 119.726 66.9672H141.491V72.2652H119.726C117.497 72.2635 115.288 72.7016 113.228 73.5543C111.168 74.4071 109.297 75.6578 107.721 77.2349L94.8145 90.1515C93.2331 91.722 91.9797 93.5912 91.1266 95.6503C90.2735 97.7094 89.8377 99.9175 89.845 102.146V128.297C89.8405 130.533 90.2781 132.748 91.1328 134.814C91.9875 136.879 93.2426 138.756 94.8254 140.335L106.862 152.372C108.441 153.955 110.318 155.21 112.383 156.064C114.449 156.919 116.664 157.357 118.899 157.352H148.643C148.784 157.352 148.918 157.296 149.018 157.197C149.117 157.097 149.173 156.963 149.173 156.822V140.239C149.173 140.099 149.117 139.964 149.018 139.865C148.918 139.765 148.784 139.71 148.643 139.71H129.135C127.395 139.714 125.671 139.374 124.064 138.709C122.456 138.043 120.996 137.065 119.769 135.831L107.615 123.688L111.366 119.937L123.509 132.08C124.246 132.822 125.123 133.41 126.089 133.81C127.054 134.211 128.09 134.415 129.135 134.411H148.622C150.167 134.414 151.647 135.029 152.74 136.122C153.832 137.214 154.447 138.695 154.45 140.239V156.822C154.45 158.364 153.838 159.843 152.75 160.936C151.662 162.028 150.185 162.645 148.643 162.65Z" fill="#2C2A2D"/>
<path d="M179.827 81.802L175.26 77.2351C173.684 75.658 171.812 74.4073 169.752 73.5545C167.692 72.7018 165.484 72.2637 163.255 72.2655H141.49V66.9674H163.255C166.18 66.9608 169.078 67.5344 171.781 68.6547C174.483 69.7751 176.937 71.4201 179 73.4946L183.567 78.0616L179.827 81.802Z" fill="#2C2A2D"/>
<path d="M142.316 128.234H140.123L139.328 127.461L130.724 118.857C130.281 118.417 129.957 117.873 129.783 117.274C129.609 116.675 129.59 116.042 129.728 115.434L137.59 79.6086C137.774 78.7866 138.233 78.052 138.891 77.5256C139.549 76.9992 140.366 76.7124 141.209 76.7124C142.051 76.7124 142.868 76.9992 143.526 77.5256C144.184 78.052 144.643 78.7866 144.827 79.6086L152.689 115.445C152.826 116.051 152.807 116.683 152.632 117.279C152.458 117.876 152.135 118.419 151.693 118.857L142.316 128.234ZM135.089 115.731L141.214 121.845L147.328 115.731L141.214 87.8206L135.089 115.731Z" fill="#2C2A2D"/>
</svg>
