<svg width="249" height="166" viewBox="0 0 249 166" fill="none" xmlns="http://www.w3.org/2000/svg">
<path d="M3 160.8V125.63C3.0005 123.137 3.98941 120.745 5.75 118.98L21.6501 103.09C22.5218 102.214 23.5582 101.52 24.6995 101.046C25.8408 100.572 27.0644 100.329 28.3 100.33H60.73" stroke="#2C2A2D" stroke-width="5" stroke-miterlimit="10"/>
<path d="M58.9592 125.641L58.9492 160.801" stroke="#2C2A2D" stroke-width="5" stroke-miterlimit="10"/>
<path d="M22.2793 160.8V128.21C22.3181 127.453 22.6556 126.741 23.2178 126.231C23.78 125.721 24.5212 125.455 25.2793 125.49H38.3694C39.1268 125.458 39.8664 125.725 40.428 126.234C40.9896 126.743 41.328 127.453 41.3694 128.21V160.8" stroke="#2C2A2D" stroke-width="5" stroke-miterlimit="10"/>
<path d="M130.619 46.0598C136.225 46.0598 140.769 41.5155 140.769 35.9098C140.769 30.3041 136.225 25.7598 130.619 25.7598C125.013 25.7598 120.469 30.3041 120.469 35.9098C120.469 41.5155 125.013 46.0598 130.619 46.0598Z" stroke="#2C2A2D" stroke-width="5" stroke-miterlimit="10"/>
<path d="M130.619 66.12H69.6191C68.8235 66.12 68.0604 65.8039 67.4978 65.2413C66.9352 64.6787 66.6191 63.9157 66.6191 63.12V54.62C66.6171 51.9695 67.6672 49.4266 69.5391 47.55L111.159 5.93C112.089 5.00016 113.192 4.26276 114.407 3.75999C115.622 3.25722 116.924 2.99897 118.239 3H130.569" stroke="#2C2A2D" stroke-width="5" stroke-miterlimit="10"/>
<path d="M130.619 66.12H191.619C192.415 66.12 193.178 65.8039 193.74 65.2413C194.303 64.6787 194.619 63.9156 194.619 63.12V54.62C194.619 51.9681 193.564 49.4249 191.689 47.55L150.069 5.93C148.194 4.05451 145.651 3.00057 142.999 3H130.659" stroke="#2C2A2D" stroke-width="5" stroke-miterlimit="10"/>
<path d="M66.6699 76.7002H188.45" stroke="#2C2A2D" stroke-width="5" stroke-miterlimit="10"/>
<path d="M76.8184 89.2998V155.12C76.8184 155.915 77.1344 156.679 77.697 157.241C78.2596 157.804 79.0227 158.12 79.8184 158.12H88.9482C89.7439 158.12 90.507 157.804 91.0696 157.241C91.6322 156.679 91.9482 155.915 91.9482 155.12V89.3198" stroke="#2C2A2D" stroke-width="5" stroke-miterlimit="10"/>
<path d="M107.08 89.2998V155.12C107.08 155.915 107.396 156.679 107.959 157.241C108.521 157.804 109.284 158.12 110.08 158.12H119.21C120.006 158.12 120.769 157.804 121.331 157.241C121.894 156.679 122.21 155.915 122.21 155.12V89.3198" stroke="#2C2A2D" stroke-width="5" stroke-miterlimit="10"/>
<path d="M137.34 89.2998V155.12C137.34 155.915 137.656 156.679 138.219 157.241C138.781 157.804 139.544 158.12 140.34 158.12H149.47C150.265 158.12 151.028 157.804 151.591 157.241C152.154 156.679 152.47 155.915 152.47 155.12V89.3198" stroke="#2C2A2D" stroke-width="5" stroke-miterlimit="10"/>
<path d="M206.279 162.73C228.271 162.73 246.099 144.902 246.099 122.91C246.099 100.918 228.271 83.0898 206.279 83.0898C184.287 83.0898 166.459 100.918 166.459 122.91C166.459 144.902 184.287 162.73 206.279 162.73Z" fill="#C6F3F8" stroke="#2C2A2D" stroke-width="5" stroke-miterlimit="10"/>
<path d="M217.11 124.86C215.47 123.29 212.86 122.16 209.34 121.52L203.83 120.52C200.14 119.81 198.34 118.12 198.34 115.33C198.32 114.515 198.49 113.706 198.837 112.968C199.185 112.23 199.699 111.584 200.34 111.08C201.985 109.869 204.002 109.274 206.04 109.4C208.334 109.288 210.592 109.997 212.41 111.4C213.136 111.955 213.722 112.672 214.123 113.493C214.524 114.313 214.728 115.216 214.72 116.13V116.45H219.38V116.12C219.41 114.724 219.147 113.337 218.607 112.048C218.068 110.76 217.265 109.599 216.25 108.64C214.399 106.939 212.078 105.834 209.59 105.47C208.747 105.334 207.894 105.271 207.04 105.28H205.45C204.291 105.263 203.133 105.38 202 105.63C199.974 106.064 198.106 107.046 196.6 108.47C195.662 109.352 194.918 110.421 194.417 111.607C193.916 112.794 193.668 114.072 193.69 115.36C193.69 120.46 196.69 123.6 202.47 124.7L209.23 125.95C213.09 126.69 214.97 128.47 214.97 131.38C215.001 132.201 214.836 133.017 214.488 133.762C214.14 134.506 213.62 135.157 212.97 135.66C211.58 136.76 209.43 137.31 206.59 137.31C204.237 137.445 201.91 136.755 200.01 135.36C199.273 134.813 198.675 134.099 198.264 133.277C197.854 132.455 197.644 131.548 197.65 130.63V130.3H192.99V130.63C192.986 131.977 193.259 133.31 193.793 134.547C194.326 135.784 195.108 136.898 196.09 137.82C197.494 139.205 199.208 140.233 201.09 140.82C202.626 141.289 204.225 141.519 205.83 141.5H208.07C211.162 141.548 214.168 140.484 216.54 138.5C217.536 137.618 218.329 136.532 218.866 135.315C219.403 134.098 219.671 132.78 219.65 131.45C219.719 130.234 219.528 129.018 219.09 127.881C218.652 126.745 217.977 125.715 217.11 124.86Z" fill="#2C2A2D"/>
<path d="M206.279 108.56V98.2402" stroke="#2C2A2D" stroke-width="5.34" stroke-miterlimit="10"/>
<path d="M206.279 148.34V138.03" stroke="#2C2A2D" stroke-width="5.34" stroke-miterlimit="10"/>
</svg>
