<svg width="209" height="183" viewBox="0 0 209 183" fill="none" xmlns="http://www.w3.org/2000/svg">
<path d="M161.159 177.35L148.159 164.35C146.29 162.476 145.24 159.937 145.239 157.29V116.66C145.235 115.917 145.507 115.199 146.002 114.644C146.497 114.09 147.18 113.739 147.919 113.66C157.809 112.66 172.419 106.6 174.789 101.72C174.895 101.503 175.058 101.318 175.261 101.186C175.464 101.055 175.699 100.981 175.94 100.972C176.182 100.964 176.421 101.022 176.633 101.14C176.844 101.257 177.019 101.43 177.139 101.64C180.189 106.5 193.549 112.64 203.679 113.64C204.418 113.719 205.102 114.07 205.597 114.624C206.092 115.179 206.364 115.897 206.359 116.64V157.35C206.364 159.965 205.345 162.478 203.519 164.35L190.519 177.35C188.649 179.221 186.114 180.274 183.469 180.28H168.299C166.974 180.293 165.66 180.04 164.433 179.536C163.207 179.033 162.094 178.29 161.159 177.35V177.35Z" stroke="#2C2A2D" stroke-width="5" stroke-miterlimit="10"/>
<path d="M163.14 141.63L168.91 147.41C169.48 147.982 170.157 148.435 170.903 148.744C171.648 149.053 172.448 149.212 173.255 149.212C174.062 149.212 174.861 149.053 175.607 148.744C176.352 148.435 177.029 147.982 177.6 147.41L192.6 132.36" stroke="#2C2A2D" stroke-width="5" stroke-miterlimit="10"/>
<path d="M3.2793 180.35V127.35C3.27986 124.698 4.3338 122.155 6.20929 120.28L23.1093 103.38C24.9842 101.505 27.5273 100.451 30.1793 100.45H75.2793" stroke="#2C2A2D" stroke-width="5" stroke-miterlimit="10"/>
<path d="M75.2793 130.04V58.29C75.2814 56.8439 75.5687 55.4124 76.1246 54.0774C76.6806 52.7424 77.4943 51.5301 78.5193 50.51L94.8293 34.2C95.8511 33.1786 97.0641 32.3686 98.399 31.8161C99.7339 31.2636 101.165 30.9795 102.609 30.98H147.299" stroke="#2C2A2D" stroke-width="5" stroke-miterlimit="10"/>
<path d="M204.86 101.83V58.29C204.859 56.8446 204.573 55.4135 204.019 54.0786C203.465 52.7436 202.653 51.531 201.63 50.51L185.33 34.2C184.304 33.1751 183.086 32.363 181.746 31.8104C180.406 31.2578 178.969 30.9756 177.52 30.98H145.64" stroke="#2C2A2D" stroke-width="5" stroke-miterlimit="10"/>
<path d="M75.2793 139.49V180.34" stroke="#2C2A2D" stroke-width="5" stroke-miterlimit="10"/>
<path d="M101.22 180.35V147.45C101.259 146.692 101.596 145.98 102.158 145.47C102.72 144.961 103.462 144.694 104.22 144.73H117.3C118.058 144.694 118.799 144.961 119.361 145.47C119.923 145.98 120.261 146.692 120.3 147.45V180.35" stroke="#2C2A2D" stroke-width="5" stroke-miterlimit="10"/>
<path d="M0 53.1203H41C43.4375 53.1201 45.7752 52.1526 47.5 50.4303L65.74 32.1803C65.997 31.9247 66.201 31.6209 66.3401 31.2862C66.4793 30.9516 66.551 30.5927 66.551 30.2303C66.551 29.8678 66.4793 29.509 66.3401 29.1743C66.201 28.8397 65.997 28.5358 65.74 28.2803L60.84 23.3803C60.5845 23.1233 60.2806 22.9193 59.946 22.7802C59.6113 22.641 59.2525 22.5693 58.89 22.5693C58.5276 22.5693 58.1687 22.641 57.834 22.7802C57.4994 22.9193 57.1956 23.1233 56.94 23.3803L43.78 36.5703" stroke="#2C2A2D" stroke-width="5" stroke-miterlimit="10"/>
<path d="M67.72 14.35H91.59C92.078 14.35 92.546 14.1561 92.8911 13.8111C93.2362 13.466 93.43 12.998 93.43 12.51V4.84C93.43 4.352 93.2362 3.88399 92.8911 3.53892C92.546 3.19386 92.078 3 91.59 3H58.19C55.7262 3.00058 53.3632 3.97884 51.62 5.72L25.52 31.85C24.6572 32.7126 23.6328 33.3968 22.5056 33.8635C21.3783 34.3302 20.1701 34.5703 18.95 34.57H0" stroke="#2C2A2D" stroke-width="5" stroke-miterlimit="10"/>
<path d="M118.61 57.96H103.38C102.187 57.96 101.22 58.927 101.22 60.12V75.35C101.22 76.5429 102.187 77.51 103.38 77.51H118.61C119.803 77.51 120.77 76.5429 120.77 75.35V60.12C120.77 58.927 119.803 57.96 118.61 57.96Z" stroke="#2C2A2D" stroke-width="5" stroke-miterlimit="10"/>
<path d="M162.669 57.96H147.439C146.246 57.96 145.279 58.927 145.279 60.12V75.35C145.279 76.5429 146.246 77.51 147.439 77.51H162.669C163.862 77.51 164.829 76.5429 164.829 75.35V60.12C164.829 58.927 163.862 57.96 162.669 57.96Z" stroke="#2C2A2D" stroke-width="5" stroke-miterlimit="10"/>
<path d="M118.61 100.45H103.38C102.187 100.45 101.22 101.417 101.22 102.61V117.84C101.22 119.033 102.187 120 103.38 120H118.61C119.803 120 120.77 119.033 120.77 117.84V102.61C120.77 101.417 119.803 100.45 118.61 100.45Z" stroke="#2C2A2D" stroke-width="5" stroke-miterlimit="10"/>
<path d="M48.3998 127.34H33.1698C31.9769 127.34 31.0098 128.307 31.0098 129.5V144.73C31.0098 145.923 31.9769 146.89 33.1698 146.89H48.3998C49.5927 146.89 50.5598 145.923 50.5598 144.73V129.5C50.5598 128.307 49.5927 127.34 48.3998 127.34Z" stroke="#2C2A2D" stroke-width="5" stroke-miterlimit="10"/>
<path d="M29.0693 164.26H52.4893" stroke="#2C2A2D" stroke-width="5" stroke-miterlimit="10"/>
<path d="M182.989 79.45V56.02" stroke="#2C2A2D" stroke-width="5" stroke-miterlimit="10"/>
</svg>
