<svg width="74" height="79" viewBox="0 0 74 79" fill="none" xmlns="http://www.w3.org/2000/svg">
<g clip-path="url(#clip0_1364_2440)">
<path d="M27.7389 29.3638C35.7932 29.3638 42.3461 22.7762 42.3461 14.6794C42.3461 6.58249 35.7932 0 27.7389 0C19.6846 0 13.1367 6.58754 13.1367 14.6844C13.1367 22.7813 19.6896 29.3688 27.7389 29.3688V29.3638ZM27.7389 4.03834C33.5787 4.03834 38.329 8.81367 38.329 14.6844C38.329 20.5551 33.5787 25.3305 27.7389 25.3305C21.899 25.3305 17.1538 20.5551 17.1538 14.6844C17.1538 8.81367 21.904 4.03834 27.7389 4.03834Z" fill="#2C2A2D"/>
<path d="M31.1267 64.0329H21.8924C21.0889 64.0329 20.3307 63.7199 19.7633 63.1445L14.0088 57.3596L11.1667 60.2167L16.9212 66.0016C18.2468 67.3342 20.0144 68.0712 21.8924 68.0712H30.6245V74.9617H17.0317C15.0783 74.9617 13.2405 74.1944 11.8596 72.8062L6.15537 67.0718C4.77449 65.6836 4.01124 63.836 4.01124 61.8724V49.4141C4.01124 47.4555 4.76947 45.6181 6.14532 44.235L12.2664 38.0815C13.6422 36.6984 15.475 35.9362 17.4183 35.9362H38.0762C40.0245 35.9362 41.8523 36.6984 43.2282 38.0815L49.3492 44.235L52.1913 41.3778L46.0703 35.2244C43.9362 33.079 41.0941 31.8978 38.0762 31.8978H17.4233C14.4055 31.8978 11.5634 33.079 9.4293 35.2244L3.30825 41.3778C1.17416 43.5232 -0.00585938 46.3803 -0.00585938 49.4141V61.8724C-0.00585938 64.9163 1.17416 67.7734 3.31327 69.9289L9.01755 75.6633C11.1567 77.8137 14.0038 79 17.0317 79H31.1267C33.0649 79 34.6416 77.415 34.6416 75.4665V67.5665C34.6416 65.618 33.0649 64.0329 31.1267 64.0329Z" fill="#2C2A2D"/>
<path d="M27.6074 38.3137C26.5831 38.3137 25.7093 39.0204 25.4934 40.025L22.2747 54.7649C22.114 55.4918 22.33 56.2439 22.8572 56.774L26.3772 60.3126L26.8944 60.8224H28.3305L32.3576 56.774C32.8849 56.2439 33.1058 55.4918 32.9451 54.7649L29.7264 40.025C29.5055 39.0154 28.6368 38.3137 27.6074 38.3137ZM27.6074 56.6225L25.8148 54.8204L27.6074 46.5974L29.4001 54.8204L27.6074 56.6225Z" fill="#2C2A2D"/>
<path d="M72.6848 58.2833L69.1749 54.7548C68.3263 53.9017 67.2015 53.4323 66.0014 53.4323H45.7401C44.545 53.4323 43.4152 53.9017 42.5716 54.7548L39.0617 58.2833C38.2131 59.1364 37.7461 60.2671 37.7461 61.4736V76.365C37.7461 77.8188 38.9211 78.9949 40.3622 78.9949H71.3742C72.8204 78.9949 73.9904 77.8137 73.9904 76.365V61.4736C73.9904 60.2671 73.5234 59.1364 72.6748 58.2833H72.6848ZM69.9833 74.9566H41.7682V61.4685C41.7682 61.3423 41.8184 61.2262 41.9038 61.1354L45.4137 57.6069C45.5041 57.516 45.6196 57.4706 45.7451 57.4706H66.0064C66.1319 57.4706 66.2474 57.5211 66.3378 57.6069L69.8477 61.1354C69.9331 61.2212 69.9833 61.3423 69.9833 61.4685V74.9566Z" fill="#2C2A2D"/>
<path d="M59.6343 47.5514H52.5039V51.5897H59.6343V47.5514Z" fill="#2C2A2D"/>
</g>
<defs>
<clipPath id="clip0_1364_2440">
<rect width="74" height="79" fill="white"/>
</clipPath>
</defs>
</svg>
