<svg width="188" height="174" viewBox="0 0 188 174" fill="none" xmlns="http://www.w3.org/2000/svg">
<g clip-path="url(#clip0_1253_1307)">
<path d="M154.75 89.8301H154.38C150.472 89.8288 146.603 90.5973 142.992 92.0918C139.382 93.5863 136.101 95.7774 133.337 98.5401C130.574 101.303 128.381 104.583 126.886 108.193C125.39 111.803 124.62 115.672 124.62 119.58V119.58C124.617 124.98 126.241 130.256 129.28 134.72L153.52 170.35C153.657 170.55 153.84 170.714 154.055 170.827C154.269 170.94 154.508 170.999 154.75 170.999C154.992 170.999 155.231 170.94 155.445 170.827C155.66 170.714 155.843 170.55 155.98 170.35L180.22 134.72C183.259 130.256 184.883 124.98 184.88 119.58V119.58C184.88 115.672 184.11 111.803 182.615 108.193C181.119 104.583 178.927 101.303 176.163 98.5401C173.399 95.7774 170.119 93.5863 166.508 92.0918C162.897 90.5973 159.028 89.8288 155.12 89.8301H154.75Z" stroke="#2C2A2D" stroke-width="5" stroke-miterlimit="10"/>
<path d="M2.5 170.58V133.31C2.49947 131.664 2.82333 130.035 3.45306 128.515C4.08279 126.994 5.00604 125.613 6.17 124.45L24.49 106.12C26.8439 103.778 30.0291 102.462 33.35 102.46H77.35" stroke="#2C2A2D" stroke-width="5" stroke-miterlimit="10"/>
<path d="M115.5 102.46H73.7695" stroke="#2C2A2D" stroke-width="5" stroke-miterlimit="10"/>
<path d="M16.0898 167.45H115.96" stroke="#2C2A2D" stroke-width="5" stroke-miterlimit="10"/>
<path d="M154.75 128.67C160.599 128.67 165.34 123.929 165.34 118.08C165.34 112.232 160.599 107.49 154.75 107.49C148.901 107.49 144.16 112.232 144.16 118.08C144.16 123.929 148.901 128.67 154.75 128.67Z" stroke="#2C2A2D" stroke-width="5" stroke-miterlimit="10"/>
<path d="M72.3002 61.2698H61.4702C60.6706 61.2692 59.8792 61.1087 59.1425 60.7979C58.4057 60.4871 57.7386 60.0321 57.1802 59.4598L49.4502 51.4598C48.3803 50.355 47.7815 48.8777 47.7802 47.3398L46.4502 24.1298C46.4502 23.6842 46.6272 23.2569 46.9423 22.9418C47.2573 22.6268 47.6846 22.4498 48.1302 22.4498H54.8502C55.1458 22.4499 55.4361 22.5275 55.6923 22.6749C55.9485 22.8223 56.1615 23.0343 56.3102 23.2898L64.9002 38.1298C65.4932 39.1508 66.3437 39.9985 67.3667 40.588C68.3897 41.1776 69.5494 41.4886 70.7302 41.4898L95.1502 41.4198L81.4702 4.20979C81.4702 3.76422 81.6472 3.33691 81.9623 3.02185C82.2773 2.70679 82.7046 2.52979 83.1502 2.52979H92.8402C93.1162 2.52941 93.3882 2.59667 93.6322 2.72566C93.8763 2.85466 94.085 3.04148 94.2402 3.26979L115.29 37.1998C116.151 38.4857 117.316 39.5391 118.682 40.2666C120.048 40.994 121.573 41.373 123.12 41.3698H131.06H146.7C148.865 41.3629 150.944 42.2153 152.48 43.7398L158 49.1698C158.759 49.9248 159.362 50.8223 159.774 51.8107C160.186 52.7991 160.399 53.859 160.4 54.9298V61.0198L126.72 61.1198C122.861 61.1298 119.154 62.6269 116.37 65.2998L90.6502 90.0598C90.2779 90.4135 89.7837 90.6104 89.2702 90.6098H81.1502C80.7976 90.613 80.4504 90.5229 80.1439 90.3486C79.8373 90.1744 79.5823 89.9222 79.4046 89.6176C79.227 89.313 79.133 88.9669 79.1322 88.6143C79.1314 88.2617 79.2239 87.9151 79.4002 87.6098L93.0802 62.6098C93.1636 62.4573 93.2059 62.2857 93.2028 62.1119C93.1997 61.9381 93.1513 61.7681 93.0625 61.6187C92.9736 61.4693 92.8474 61.3456 92.6962 61.2599C92.545 61.1742 92.374 61.1293 92.2002 61.1298L72.3002 61.1898" stroke="#2C2A2D" stroke-width="5" stroke-miterlimit="10"/>
<path d="M70.2695 86.4199H32.5195" stroke="#2C2A2D" stroke-width="5" stroke-miterlimit="10"/>
<path d="M75.5595 75.04H32.5195" stroke="#2C2A2D" stroke-width="5" stroke-miterlimit="10"/>
<path d="M136.74 50.0298H146.89" stroke="#2C2A2D" stroke-width="5" stroke-miterlimit="10"/>
<path d="M18.3896 158.76V135.46C18.3896 134.664 18.7057 133.901 19.2683 133.339C19.8309 132.776 20.594 132.46 21.3896 132.46H39.2197C40.0153 132.46 40.7784 132.776 41.341 133.339C41.9036 133.901 42.2197 134.664 42.2197 135.46V158.76" stroke="#2C2A2D" stroke-width="5" stroke-miterlimit="10"/>
<path d="M54.1104 158.76V135.46C54.1104 134.664 54.4264 133.901 54.989 133.339C55.5516 132.776 56.3147 132.46 57.1104 132.46H74.9404C75.736 132.46 76.4991 132.776 77.0617 133.339C77.6243 133.901 77.9404 134.664 77.9404 135.46V158.76" stroke="#2C2A2D" stroke-width="5" stroke-miterlimit="10"/>
<path d="M89.8203 158.76V135.46C89.8203 134.664 90.1364 133.901 90.699 133.339C91.2616 132.776 92.0247 132.46 92.8203 132.46H110.66C111.456 132.46 112.219 132.776 112.782 133.339C113.344 133.901 113.66 134.664 113.66 135.46V158.76" stroke="#2C2A2D" stroke-width="5" stroke-miterlimit="10"/>
<path d="M32.5195 116.38H115.5" stroke="#2C2A2D" stroke-width="5" stroke-miterlimit="10"/>
</g>
<defs>
<clipPath id="clip0_1253_1307">
<rect width="187.38" height="173.5" fill="white"/>
</clipPath>
</defs>
</svg>
