<svg width="88" height="79" viewBox="0 0 88 79" fill="none" xmlns="http://www.w3.org/2000/svg">
<g clip-path="url(#clip0_1364_2458)">
<path d="M84.6493 0H11.4663C10.1042 0 8.82753 0.534203 7.86409 1.49768L1.49024 7.90811C0.526804 8.87635 0 10.1594 0 11.5283V50.8876C0 52.743 1.49973 54.2502 3.34592 54.2502H84.8724C86.5952 54.2502 88 52.8384 88 51.107V3.36262C88 1.50721 86.5003 0 84.6541 0H84.6493ZM23.4214 50.4345C23.6682 49.1276 24.2899 47.9256 25.2486 46.9669L30.8679 41.3196C32.1208 40.0604 33.7914 39.3641 35.5616 39.3641H54.2608C56.0358 39.3641 57.7017 40.0604 58.9546 41.3196L64.5738 46.9669C65.5278 47.9256 66.1542 49.1276 66.401 50.4345H23.4214ZM84.2032 50.4345H70.2358C69.9605 48.1069 68.9354 45.951 67.2601 44.2673L61.6408 38.62C59.6712 36.6406 57.0467 35.5483 54.2608 35.5483H35.5616C32.7758 35.5483 30.1512 36.6406 28.1816 38.62L22.5624 44.2673C20.8871 45.951 19.8619 48.1069 19.5867 50.4345H3.79679V11.5235C3.79679 11.1753 3.92967 10.851 4.17646 10.603L10.5503 4.19731C10.7924 3.95405 11.1246 3.81573 11.4663 3.81573H84.2032V50.4345Z" fill="#2C2A2D"/>
<path d="M84.2032 62.2537H3.79679V58.3235H0V62.9262C0 64.6576 1.40481 66.0694 3.1276 66.0694H84.8724C86.5952 66.0694 88 64.6576 88 62.9262V58.3235H84.2032V62.2537V62.2537Z" fill="#2C2A2D"/>
<path d="M60.5254 69.2794C59.9369 68.6832 59.1491 68.3589 58.3138 68.3589H31.2664C30.4311 68.3589 29.6481 68.688 29.0548 69.2794L27.7734 70.5672C27.1849 71.1634 26.8574 71.9504 26.8574 72.7899V79.0048H30.6542V73.0713L31.5417 72.1794H58.0338L58.9213 73.0713V79.0048H62.7181V72.7899C62.7181 71.9504 62.3906 71.1634 61.8021 70.5672L60.5254 69.2842V69.2794Z" fill="#2C2A2D"/>
<path d="M47.607 56.4156H41.9688V60.2314H47.607V56.4156Z" fill="#2C2A2D"/>
<path d="M45.0347 33.3257C52.4574 33.3257 58.499 27.2539 58.499 19.7941C58.499 12.3344 52.4574 6.26257 45.0347 6.26257C37.6119 6.26257 31.5703 12.3344 31.5703 19.7941C31.5703 27.2539 37.6119 33.3257 45.0347 33.3257ZM45.0347 10.0735C50.3644 10.0735 54.7022 14.433 54.7022 19.7894C54.7022 25.1457 50.3644 29.5052 45.0347 29.5052C39.7049 29.5052 35.3671 25.1457 35.3671 19.7894C35.3671 14.433 39.7049 10.0735 45.0347 10.0735V10.0735Z" fill="#2C2A2D"/>
</g>
<defs>
<clipPath id="clip0_1364_2458">
<rect width="88" height="79" fill="white"/>
</clipPath>
</defs>
</svg>
