<svg width="121" height="93"  xmlns="http://www.w3.org/2000/svg"><path d="M35.142 92.605 3.317 59.424C1.207 57.162 0 54.145 0 51.129V22.925c0-3.017 1.056-6.033 3.016-8.295l9.05-10.407C14.328 1.508 17.797 0 21.266 0H49.62c3.771 0 6.787 3.016 6.787 6.938v39.666c0 3.77-3.016 6.938-6.787 6.938H26.997v-9.954h19.607V9.954H21.266c-.603 0-1.207.302-1.66.754l-9.049 10.407c-.452.453-.603 1.056-.603 1.81v28.204c0 .603.151 1.055.603 1.508l31.824 33.18-7.24 6.788ZM99.241 92.605 67.418 59.424c-2.112-2.262-3.318-5.279-3.318-8.295V22.925c0-3.017 1.055-6.033 3.016-8.295l9.05-10.407C78.427 1.508 81.895 0 85.365 0h28.354c3.771 0 6.787 3.016 6.787 6.938v39.666c0 3.77-3.016 6.938-6.787 6.938H91.097v-9.954h19.607V9.954H85.366c-.604 0-1.207.302-1.66.754l-9.049 10.407c-.452.453-.603 1.056-.603 1.81v28.204c0 .603.15 1.055.603 1.508l31.824 33.18-7.24 6.788Z" /></svg>