<svg width="61" height="48" viewBox="0 0 61 48" fill="none" xmlns="http://www.w3.org/2000/svg">
<path d="M40.0645 32.3018C36.2938 32.3018 33.2372 35.2987 33.2372 38.9962C33.2372 42.693 36.2938 45.6895 40.0645 45.6895C41.4996 45.6895 42.8287 45.255 43.9282 44.5138L45.0427 45.6168L46.5995 44.0745L45.5272 43.0122C46.3849 41.8933 46.8917 40.5033 46.8917 38.9962C46.8917 35.2987 43.8358 32.3018 40.0645 32.3018ZM1.34766 32.7059V40.1885C1.34766 43.0955 3.54803 45.5783 6.95815 45.5783C10.3689 45.5783 12.5686 43.0955 12.5686 40.1885V32.7059H10.1773V39.6876C10.1773 41.9929 8.80504 43.3755 6.95815 43.3755C5.13185 43.3755 3.74005 41.9929 3.74005 39.6876V32.7059H1.34766ZM15.2456 32.7059V45.2854H17.6124V37.4561L24.5409 45.3075H25.8499V32.7059H23.483V40.5671L16.5379 32.7059H15.2456ZM28.6801 32.7059V45.2854H31.137V32.7059H28.6801ZM52.5267 32.7059L46.9729 45.2854H49.522L50.521 42.9164H55.997L56.966 45.2854H59.5874L54.1735 32.7059H52.5267ZM40.0645 34.4023C42.5131 34.4023 44.4982 36.4591 44.4982 38.9962C44.4982 39.8635 44.2663 40.6734 43.8637 41.3653L42.3936 39.911L40.8368 41.4533L42.338 42.9395C41.6731 43.3517 40.8958 43.589 40.0645 43.589C37.6159 43.589 35.6308 41.5326 35.6308 38.9962C35.6308 36.4591 37.6159 34.4023 40.0645 34.4023ZM53.3023 36.3233L55.1525 40.8467H51.3944L53.3023 36.3233Z" fill="black"/>
<path d="M25.8411 1.33107C24.1336 1.34798 22.7504 1.70843 21.9441 2.04222C18.8533 3.32242 16.9767 5.17399 15.7179 7.3088C14.2622 9.77964 13.9655 12.3622 14.1589 14.416C14.2101 14.9113 14.2419 15.2668 14.3122 15.6148C14.7923 18.6141 16.6922 21.3679 19.2916 23.3484C21.4579 24.9992 24.0811 26.292 26.8667 26.2976C27.8361 26.2976 28.8928 26.1807 29.9681 25.9178L30.2926 25.8253C28.7387 25.3216 27.2288 24.6031 25.7766 23.5554C25.7243 23.5182 25.6719 23.48 25.6199 23.442C25.0005 23.5287 23.6353 23.5802 22.4086 23.3484C20.2871 22.9482 18.8854 22.0107 18.8704 21.9888C18.3058 21.18 16.7994 18.7813 16.8414 15.453C16.8914 11.623 18.7178 8.97628 18.9049 8.69587C19.7555 7.42136 20.8526 6.3138 22.1008 5.43733C24.0579 4.04299 26.4087 3.20637 28.8658 3.25428C29.0905 3.25992 29.3163 3.2695 29.5403 3.28866C34.5114 3.71776 37.4154 7.45658 37.4154 7.45658C35.5223 4.73982 32.578 2.67023 29.2092 1.75076C28.0069 1.4345 26.8655 1.32109 25.8411 1.33135V1.33107ZM26.0422 4.3739C24.5928 4.76563 23.7354 5.16796 22.5363 6.03947C21.8152 6.56298 20.8362 7.37598 20.0995 8.35464C18.3201 12.6616 20.7793 16.7771 21.9029 18.4694C22.905 19.98 24.2595 21.5464 26.2166 22.9576C30.3194 25.9168 34.9379 26.1459 39.9013 26.4066C42.9636 26.5673 49.5532 26.542 49.5532 26.542L47.6109 22.8795L46.7674 22.8738C45.9752 22.8738 41.4402 22.8507 39.2256 22.7318C36.4911 22.5866 34.3716 22.4151 32.9962 22.0636C30.0597 21.3139 27.2066 19.8529 24.9365 16.4315C24.0447 15.0873 23.1559 12.9148 23.0641 11.0604C22.8679 7.11276 24.7529 5.06098 26.0422 4.37266V4.3739ZM33.8862 5.3977C35.6038 7.16259 37.0225 10.925 35.7964 15.0094C34.9494 17.8318 33.2057 19.8849 31.915 20.9728C32.3338 21.1165 32.7564 21.2396 33.1817 21.3482C34.0266 21.5637 35.1934 21.7112 36.6698 21.8281C37.7779 20.3422 39.6713 16.982 39.4423 13.9228C39.2958 11.4392 38.0772 8.06233 33.8862 5.3977ZM8.99732 23.4189L7.36719 26.2954H22.9964C21.4773 25.7255 20.0727 24.8772 18.836 23.9352C18.6176 23.7689 18.4039 23.5957 18.1948 23.4189H8.99732Z" fill="black"/>
</svg>
