<svg width="1440" height="789" viewBox="0 0 1440 789" fill="none" xmlns="http://www.w3.org/2000/svg">
<g filter="url(#filter0_f_1408_1244)">
<path d="M540.766 66.197C531.078 68.7734 526.75 69.2887 510.879 69.9071C490.267 70.7316 488.206 71.3499 483.671 78.7701C480.064 84.6445 476.766 85.2628 465.224 82.4803C453.681 79.6977 447.085 80.1099 439.562 83.82C434.306 86.4996 427.607 93.1984 424.618 98.7635C423.073 101.752 416.58 105.668 410.19 107.627C407.408 108.451 407.923 112.161 411.221 115.459C414.931 119.169 422.66 120.818 431.936 119.994C440.077 119.169 445.746 120.715 448.013 124.116C448.837 125.353 452.135 134.937 455.33 145.449C461.823 166.679 462.853 169.153 467.388 173.893C474.293 181.211 481.198 180.592 493.05 171.523C505.21 162.248 509.745 160.29 533.758 154.106C548.598 150.19 559.729 145.758 563.645 142.048C565.191 140.605 566.221 138.132 566.633 135.04L567.252 130.196L573.332 129.578C584.154 128.651 587.039 124.837 584.566 114.428C582.092 103.401 582.092 102.371 584.875 99.588C586.215 98.2483 589.409 96.4963 591.883 95.7748C594.356 95.0534 596.727 93.9198 597.139 93.3014C598.788 91.0341 597.963 83.82 595.799 81.0374C593.12 77.6365 589.616 77.5334 582.195 80.9344C574.466 84.5414 572.405 83.6139 567.973 74.7509C563.851 66.5062 559.935 62.8991 555.4 63.0021C553.545 63.1052 547.052 64.548 540.766 66.197Z" fill="#8DB9FF" fill-opacity="0.6"/>
<path d="M1005.15 113.914C1001.54 114.738 993.607 117.005 987.424 119.066C981.343 121.128 969.697 123.91 961.556 125.25C944.963 128.033 937.234 130.403 930.844 134.628C927.237 136.999 926.31 137.308 925.897 136.071C924.97 133.186 918.786 128.239 914.664 127.002C904.461 123.91 897.556 126.075 883.437 136.69C869.421 147.202 867.257 147.923 831.908 152.045C819.747 153.385 807.792 154.828 805.422 155.137L801.196 155.755L801.299 152.148C801.402 147.099 798.414 143.388 791.715 139.987C779.966 134.113 761.209 134.01 741.628 139.678C726.273 144.213 700.817 155.755 691.542 162.557C679.999 170.905 678.969 182.345 689.171 188.631L692.572 190.692L688.759 194.609C686.698 196.773 683.4 200.483 681.339 202.853C675.155 210.171 670.518 208.728 660.109 196.361C652.482 187.291 648.463 184.509 642.795 184.509C636.508 184.509 635.684 185.952 636.302 196.155C636.921 205.739 639.291 211.613 644.135 215.53L647.123 218.003L643.207 221.713C638.673 225.835 638.157 228.721 640.837 234.389C643.516 239.851 642.28 242.325 633.52 248.302C624.966 254.28 622.698 257.474 622.698 264.07C622.698 269.738 625.687 274.685 630.531 276.953L634.138 278.705L630.737 279.941C628.367 280.766 627.439 281.693 627.542 283.033C627.851 286.125 622.492 295.915 613.526 308.592C598.583 329.616 594.254 342.601 595.182 363.316C596.006 382.897 601.778 397.841 613.629 410.723C625.893 424.121 633.417 425.151 653.925 416.288C657.945 414.536 663.922 412.887 667.117 412.578C672.579 412.063 673.094 412.166 674.743 414.742C677.217 418.452 681.751 420.72 687.213 420.823C691.336 420.823 691.748 421.029 691.13 422.884C689.893 426.697 690.614 443.908 692.16 450.091C693.088 453.389 695.252 459.676 697.004 463.901C701.641 474.619 701.641 484.204 697.004 501.93C692.675 518.316 691.954 528.622 694.221 540.062C697.21 554.696 702.672 564.796 715.142 578.503C719.677 583.552 723.181 588.912 726.273 595.301C732.868 609.111 738.949 613.027 749.152 610.245C759.251 607.565 765.435 601.279 771.825 587.469C778.008 573.968 780.482 569.64 787.077 561.189C795.631 550.161 796.868 547.482 798.517 536.455C800.063 526.252 800.887 524.912 810.472 519.347C819.232 514.194 821.396 502.96 816.449 487.502C811.09 470.703 813.46 462.252 829.434 440.61C834.484 433.705 840.359 424.945 842.42 420.926C847.161 411.96 852.313 396.707 852.726 390.626L853.035 385.989L843.76 386.298C835.412 386.607 834.175 386.401 830.877 384.237C828.919 382.897 825.724 379.599 823.663 377.023C819.644 371.664 807.792 350.537 808.41 349.918C808.617 349.712 812.017 354.659 815.934 361.049C825.003 375.683 826.549 377.229 831.908 377.229C839.431 377.229 866.742 365.171 876.945 357.441C886.529 350.124 890.445 337.139 885.498 328.997C883.025 324.978 883.025 324.978 896.732 328.276C924.249 334.975 934.348 346.414 941.15 378.465C943.52 389.596 945.272 393.1 949.292 394.749C953.208 396.295 956.506 395.573 960.628 392.172C964.648 388.771 965.781 384.855 966.812 371.664C967.842 359.606 970.11 354.144 976.396 348.888C983.713 342.704 994.019 341.261 1001.75 345.178C1007.31 348.063 1012.98 354.968 1014.12 360.121L1014.94 364.346L1024.22 363.934L1030.19 374.137C1033.39 379.805 1036.58 384.752 1037.2 385.061C1037.82 385.473 1038.95 384.958 1039.78 383.825C1041.12 381.969 1041.32 382.073 1043.69 385.061C1046.58 388.771 1052.87 391.657 1058.22 391.657C1064.72 391.657 1070.49 387.225 1073.58 380.114C1075.74 374.755 1075.54 371.148 1072.65 365.583C1071 362.285 1070.7 360.739 1071.52 360.739C1073.79 360.739 1078.12 354.659 1078.73 350.64C1080.18 341.983 1082.44 339.2 1094.81 330.543C1103.06 324.875 1106.56 320.856 1109.86 313.538C1116.45 299.316 1114.29 281.384 1104.5 269.429C1100.27 264.379 1100.17 263.864 1102.95 263.864C1108 263.864 1110.99 266.853 1115.22 275.51C1121.19 288.186 1127.79 292.721 1134.8 289.114C1140.05 286.434 1141.19 282.827 1140.98 269.635C1140.67 255.001 1141.19 254.074 1153.25 247.993C1163.45 242.84 1167.88 238.718 1170.97 231.607C1175.51 221.507 1174.68 209.758 1168.91 200.586L1165.92 195.948L1168.7 193.887C1173.03 190.795 1182.51 188.013 1197.25 185.539C1204.57 184.303 1212.4 182.551 1214.57 181.829C1216.83 181.005 1219 180.386 1219.41 180.386C1219.82 180.386 1218.58 183.478 1216.63 187.188C1208.59 202.338 1212.19 217.075 1225.49 222.95C1230.95 225.32 1235.59 224.702 1240.02 220.889C1244.35 217.282 1245.79 214.19 1247.85 203.987C1251.46 186.055 1254.96 182.963 1275.68 179.356C1289.59 176.986 1297.53 173.585 1301.34 168.638C1308.55 159.053 1304.12 146.686 1291.34 141.224C1286.29 139.06 1285.26 138.957 1264.86 139.678C1247.34 140.297 1242.08 140.09 1234.87 138.751C1219.1 135.762 1194.57 128.96 1172.93 121.643C1161.18 117.624 1150.26 114.429 1148.4 114.429C1143.56 114.429 1141.08 117.521 1141.08 123.704C1141.08 128.754 1141.08 128.754 1137.37 129.475C1128.82 131.021 1107.59 128.033 1078.22 121.128C1067.71 118.654 1055.24 115.872 1050.39 114.944C1038.13 112.471 1013.6 111.955 1005.15 113.914ZM732.662 165.546C731.838 169.771 733.796 175.027 737.815 179.459L741.525 183.581L738.33 186.364C736.578 187.91 733.281 191.414 731.013 194.196C722.769 204.399 713.287 208.006 708.546 202.75C707.413 201.514 705.97 199.555 705.352 198.319C704.218 196.258 704.424 196.155 709.268 196.67C715.554 197.288 719.883 195.536 722.975 191.311C724.933 188.528 725.242 186.982 725.036 178.944C724.727 167.504 726.582 163.279 731.838 162.97C732.765 162.867 733.074 163.691 732.662 165.546ZM693.912 253.043C697.416 254.795 702.878 259.226 708.546 265.101C715.967 272.624 717.719 273.964 718.234 272.418C718.646 271.387 719.368 270.254 719.986 269.842C720.604 269.429 721.12 267.677 721.223 265.822C721.326 264.07 722.356 261.7 723.49 260.566C725.448 258.505 725.551 258.608 734.105 270.975C738.846 277.777 743.38 283.445 744.205 283.445C744.926 283.445 747.812 281.487 750.594 279.22L755.747 274.994L766.259 280.25C780.894 287.568 781.718 288.289 780.275 292.514C779.657 294.37 779.451 297.152 779.863 298.698C780.482 301.481 780.481 301.481 776.565 297.667C771 292.205 764.61 289.835 753.068 288.598C742.041 287.465 739.773 287.774 732.868 291.381C727.097 294.37 726.17 294.163 711.844 287.98C701.642 283.548 701.538 283.342 698.447 277.571C692.469 266.028 682.782 264.173 661.964 270.46C655.677 272.315 650.524 273.861 650.524 273.758C650.524 273.655 654.853 269.017 660.109 263.349C665.468 257.578 671.342 252.425 673.713 251.291C679.175 248.714 686.595 249.436 693.912 253.043ZM855.405 315.6L865.402 320.65L857.054 320.237C844.996 319.516 839.122 315.806 839.122 308.901V306.015L842.317 308.282C844.069 309.519 849.943 312.817 855.405 315.6ZM788.623 317.249C793.261 324.463 793.776 325.906 790.684 323.123C788.108 320.753 785.016 315.806 783.985 312.302C782.955 308.901 783.676 309.622 788.623 317.249Z" fill="#8DB9FF" fill-opacity="0.6"/>
<path d="M218.192 122.055C215.41 123.395 211.906 125.662 210.566 127.105C207.371 130.609 208.299 131.846 218.089 136.69L225.406 140.297L210.463 139.781C202.218 139.472 183.049 138.957 167.693 138.545C143.99 138.029 138.631 137.617 131.108 135.762C119.05 132.67 99.1594 132.773 87.4107 135.968C72.0549 140.091 58.039 148.232 63.398 149.984C64.0164 150.19 68.7571 151.633 73.91 153.076C84.422 156.271 84.2159 156.992 71.8488 158.538C59.0695 160.29 56.9053 164.515 64.0164 174.409C66.6959 178.119 67.9326 180.799 67.6234 182.139C67.1081 183.891 68.0357 184.406 74.0131 186.261L80.918 188.322L72.0549 195.948C67.1081 200.174 63.0888 203.884 63.0888 204.399C63.0888 206.151 69.2724 207.388 76.7957 206.976C84.422 206.46 85.5556 206.048 103.591 197.082C113.897 191.929 124.1 187.188 126.161 186.57C132.654 184.612 143.372 185.127 150.792 187.807C167.693 193.99 189.439 213.778 197.993 230.576C199.951 234.595 202.733 243.562 205.413 255.207C210.463 277.056 214.791 290.144 222.418 306.118C230.25 322.505 240.35 339.2 242.308 338.891C244.472 338.479 245.709 331.677 245.194 323.844C244.885 320.34 244.885 317.455 244.988 317.455C245.194 317.455 246.637 321.268 248.182 325.906C256.839 352.495 262.301 358.163 289.303 368.984C315.377 379.496 319.808 382.588 327.332 395.573C333.927 407.116 337.844 410.208 345.676 410.208C348.149 410.208 350.829 409.795 351.653 409.177C353.715 407.94 354.745 409.692 354.745 414.639C354.745 419.174 354.23 420.204 347.016 431.335C339.492 442.774 337.122 449.679 336.504 462.252C335.576 479.154 339.183 489.666 351.138 505.537C360.929 518.625 363.196 523.778 363.814 535.321C364.33 546.761 362.681 555.727 355.57 578.709C337.225 638.277 329.393 689.291 335.988 705.986C338.977 713.613 343.512 718.869 350.004 722.27C357.219 726.083 369.38 726.186 376.388 722.579C381.437 720.002 385.663 716.498 385.663 714.952C385.663 714.437 384.014 712.17 381.953 709.903C377.315 704.75 375.46 700.421 374.635 692.589C373.811 684.344 375.563 676.099 381.54 660.64C384.323 653.529 387.209 645.182 387.93 642.193C389.373 636.628 389.373 636.628 394.732 635.288C404.832 632.712 415.859 625.394 423.176 616.428C425.547 613.646 429.566 609.729 432.142 607.668C442.551 599.733 450.899 587.469 455.743 573.04C458.731 564.074 461.514 561.395 472.644 557.066C492.123 549.44 497.997 541.917 500.573 521.099C502.325 506.877 503.253 504.403 510.879 495.231C517.99 486.574 519.433 483.792 520.258 477.917C521.494 469.157 514.383 459.161 503.15 453.595C500.058 452.05 492.947 448.958 487.279 446.793C474.912 441.95 470.48 438.137 461.102 424.224C452.651 411.65 448.013 408.146 429.463 400.829C412.458 394.13 411.427 393.615 402.461 386.813C396.587 382.279 394.011 380.939 390.197 380.527C387.518 380.218 384.529 379.187 383.499 378.156C379.995 374.652 374.739 376.404 365.979 384.134C358.868 390.42 354.951 392.172 349.901 391.142C344.233 390.111 340.626 385.68 339.699 378.466C338.668 370.015 337.844 368.366 331.042 361.564C325.889 356.514 324.858 354.865 324.858 351.979C324.858 349.506 325.476 348.166 326.919 347.342C331.248 345.075 328.259 339.715 321.972 338.479C319.705 338.066 316.613 338.582 312.491 340.025C304.04 343.116 299.3 342.601 296.414 338.376C293.116 333.429 291.364 323.02 292.91 317.455C295.177 308.901 303.731 304.469 312.903 307.046C321.972 309.519 328.053 317.455 333.206 333.429C335.782 341.467 337.328 344.559 340.317 347.548C344.645 351.979 350.004 353.422 354.333 351.258C359.074 348.991 359.589 346.93 356.6 343.322C350.211 335.799 350.108 325.184 356.085 313.126C360.001 305.191 396.381 257.371 402.358 252.219C406.584 248.611 411.015 248.611 420.084 252.012C429.257 255.413 433.173 255.413 437.398 251.6C440.284 249.024 440.696 247.993 440.696 243.562C440.696 234.492 434.203 227.794 423.898 226.145C420.909 225.629 419.981 225.114 420.909 224.599C422.661 223.362 429.463 221.507 434.925 220.579C439.253 219.858 439.459 219.961 441.315 223.568C445.025 230.885 451.723 235.008 459.968 235.008C469.14 235.008 475.839 228.824 473.366 222.538C471.717 218.003 460.071 203.369 452.857 196.773C447.189 191.517 435.234 182.963 426.268 177.707C424.619 176.779 425.237 176.367 430.39 174.718C436.471 172.76 446.88 166.68 449.456 163.588C451.311 161.218 450.178 159.981 439.872 153.179C428.535 145.656 416.374 139.781 403.904 135.556C386.178 129.682 377.83 128.342 358.868 128.342C342.687 128.342 341.554 128.445 336.195 131.021C333.103 132.464 327.022 136.277 322.591 139.369C314.346 145.347 307.132 148.026 302.082 146.892C299.403 146.274 299.093 145.759 299.093 142.358C299.093 138.545 296.826 134.422 292.91 131.124C289.303 128.033 283.635 126.59 272.401 125.765C265.805 125.25 255.5 123.704 249.419 122.261C234.888 118.757 225.2 118.757 218.192 122.055ZM378.552 154.313C379.17 155.962 380.716 158.641 382.159 160.496C385.147 164.412 385.148 164.515 382.571 165.237C380.922 165.649 380.51 166.68 380.51 169.771C380.51 174.924 375.357 185.539 371.028 189.147C359.589 198.834 344.13 198.628 332.897 188.734C325.889 182.551 325.27 176.058 331.454 172.245C335.37 169.771 340.523 169.565 351.963 171.214C361.444 172.657 367.112 171.317 371.956 166.474C374.945 163.485 375.357 162.454 375.357 157.301C375.357 151.118 376.8 149.778 378.552 154.313Z" fill="#8DB9FF" fill-opacity="0.6"/>
<path d="M1184.26 202.647C1183.13 203.987 1182.82 209.14 1182.72 226.145C1182.51 254.589 1180.35 269.12 1175.3 274.479C1173.44 276.437 1169.84 278.189 1164.17 279.941C1159.53 281.281 1154.17 283.548 1152.32 284.785C1142.11 291.587 1141.8 308.901 1151.9 310.859C1159.63 312.302 1178.29 299.832 1183.54 289.732C1186.02 285.094 1186.43 283.033 1186.43 276.334C1186.43 266.235 1187.67 264.379 1195.39 262.834C1203.02 261.185 1206.01 258.196 1206.01 252.322C1205.91 246.55 1204.36 244.695 1197.15 241.913C1192.61 240.161 1190.96 238.924 1190.76 237.275C1190.55 235.832 1190.96 235.008 1191.89 235.008C1192.72 235.008 1194.16 234.08 1195.19 232.947C1196.73 231.298 1196.94 229.855 1196.43 224.496C1195.5 215.22 1194.05 210.892 1190.55 207.182C1188.9 205.43 1187.67 203.472 1187.77 202.853C1188.18 200.998 1185.81 200.895 1184.26 202.647Z" fill="#8DB9FF" fill-opacity="0.6"/>
<path d="M1023.39 408.764C1022.05 410.104 1022.46 416.288 1024.11 419.482C1024.94 421.131 1028.85 425.047 1032.87 428.242C1039.16 433.292 1040.5 434.941 1044.21 442.877C1048.64 452.049 1058.12 463.488 1063.99 466.477C1071 470.084 1078.22 466.683 1078.22 459.572C1078.22 454.213 1072.75 443.804 1067.29 438.857C1064.72 436.384 1057.81 429.788 1052.04 424.017C1045.75 417.833 1039.67 412.784 1036.68 411.341C1031.43 408.764 1024.63 407.424 1023.39 408.764Z" fill="#8DB9FF" fill-opacity="0.6"/>
<path d="M1173.03 432.056C1163.45 437.003 1163.86 447.309 1173.86 451.534C1187.25 457.202 1189.32 458.542 1196.32 465.344C1207.45 476.268 1213.64 490.181 1213.02 503.167L1212.71 509.659L1209.62 505.228C1201.68 493.891 1200.03 492.036 1195.7 489.769C1186.33 484.925 1179.22 487.914 1151.18 508.216C1126.76 526.046 1121.5 530.992 1116.56 540.989C1112.85 548.616 1112.74 548.925 1112.74 560.57C1112.85 572.422 1112.85 572.628 1117.69 584.583C1121.81 594.889 1122.53 597.568 1122.53 603.752C1122.53 612.1 1123.56 613.44 1131.09 615.398C1137.37 616.944 1146.65 616.119 1152.52 613.543C1155.1 612.409 1160.36 608.596 1164.27 605.092C1174.47 596.023 1178.08 594.271 1187.15 594.271C1193.64 594.374 1195.7 594.889 1202.61 598.29C1209.51 601.588 1212.61 604.164 1224.25 615.81C1239.81 631.475 1241.26 632.299 1253.83 631.578C1262.69 631.063 1270.42 628.383 1274.85 624.261C1280.73 618.799 1283.72 608.08 1283.61 592.622C1283.41 579.121 1280.93 568.918 1274.44 555.52C1269.91 546.245 1268.77 544.905 1252.49 528.725C1243.01 519.347 1233.84 509.762 1231.98 507.392C1227.24 501.312 1223.43 492.552 1222.81 486.059L1222.19 480.391L1228.17 480.081C1231.88 479.875 1234.35 479.257 1234.66 478.433C1234.87 477.608 1233.94 477.196 1231.78 477.196C1229.92 477.196 1228.79 476.784 1229.2 476.165C1230.64 473.898 1233.63 475.444 1239.09 481.421C1244.55 487.193 1245.17 487.605 1248.88 487.296C1253.73 486.883 1256.2 483.379 1255.07 478.639C1253.62 472.661 1227.14 450.194 1209.62 440.198C1198.9 434.014 1190.76 430.922 1183.65 430.201C1178.7 429.686 1176.95 429.995 1173.03 432.056Z" fill="#8DB9FF" fill-opacity="0.6"/>
<path d="M847.365 492.86C844.685 494.2 841.593 496.983 840.048 499.353C838.502 501.62 836.131 503.785 834.792 504.094C833.555 504.403 832.524 505.227 832.73 505.949C832.833 506.67 831.494 508.422 829.742 509.968C824.073 514.709 823.455 517.491 824.176 537.382C824.898 559.333 825.207 560.879 828.402 564.795C833.864 571.185 843.242 567.681 847.571 557.684C848.704 555.108 851.178 546.657 853.239 539.031C856.022 527.9 856.949 522.438 857.361 511.72C858.186 491.005 856.64 488.12 847.365 492.86Z" fill="#8DB9FF" fill-opacity="0.6"/>
<path d="M1365.44 632.917C1363.9 634.051 1362.25 636.833 1361.53 639.307C1360.91 641.677 1358.95 645.284 1357.09 647.242C1351.63 653.117 1347.2 659.816 1347.2 662.289C1347.2 665.587 1351.84 668.885 1356.37 668.885C1367.4 668.782 1377.19 657.961 1378.84 644.151C1380.18 633.123 1372.86 627.043 1365.44 632.917Z" fill="#8DB9FF" fill-opacity="0.6"/>
</g>
<defs>
<filter id="filter0_f_1408_1244" x="-3" y="0" width="1445" height="788.209" filterUnits="userSpaceOnUse" color-interpolation-filters="sRGB">
<feFlood flood-opacity="0" result="BackgroundImageFix"/>
<feBlend mode="normal" in="SourceGraphic" in2="BackgroundImageFix" result="shape"/>
<feGaussianBlur stdDeviation="31.5" result="effect1_foregroundBlur_1408_1244"/>
</filter>
</defs>
</svg>
