<?xml version="1.0" encoding="utf-8"?>
<!-- Generator: Adobe Illustrator 25.3.1, SVG Export Plug-In . SVG Version: 6.00 Build 0)  -->
<svg version="1.1" id="Layer_1" xmlns="http://www.w3.org/2000/svg" xmlns:xlink="http://www.w3.org/1999/xlink" x="0px" y="0px"
	 viewBox="0 0 139.9 139.9" style="enable-background:new 0 0 139.9 139.9;" xml:space="preserve">
<style type="text/css">
	.st0{fill:none;stroke:#000000;stroke-width:6.5634;stroke-miterlimit:10;}
</style>
<circle class="st0" cx="69.9" cy="70" r="66.7"/>
<path d="M114.2,76.8l-4.2-4.2c-1.8-1.8-4.2-2.8-6.7-2.8l-17.9,0c-1.3,0-2.5-0.6-3.2-1.7L66.3,42.4l-0.1-0.1c-0.8-1.3-2.3-2-3.8-2
	h-7.4c-2.5,0-4.6,2-4.6,4.6v0.6l8.2,22.5l0,0l3,8.5h7.1L58,46.8h3.3l15.3,24.8l0.1,0.1c1.9,2.9,5.2,4.6,8.7,4.6l17.9,0
	c0.8,0,1.5,0.3,2.1,0.9l4.2,4.2c0.6,0.6,0.9,1.3,0.9,2.1v1.3H38.5c-0.3,0-0.7-0.1-0.9-0.4l-5.9-6.1c-0.2-0.2-0.3-0.5-0.3-0.9
	l-0.8-15.7h1.8l5.9,10.3c1.5,2.6,4.3,4.2,7.3,4.2h10l-2.2-6.6h-7.8c-0.6,0-1.3-0.3-1.6-0.9l-6.5-11.3c-0.8-1.4-2.3-2.3-4-2.3h-5.1
	c-2.5,0-4.6,2-4.6,4.6l1,17.8c0,2,0.8,3.9,2.2,5.3l5.9,6.1c1.5,1.5,3.5,2.4,5.6,2.4H117v-7.9C117,81,116,78.6,114.2,76.8z"/>
</svg>
