<?xml version="1.0" encoding="utf-8"?><svg width="425" height="237" fill="none" xmlns="http://www.w3.org/2000/svg" viewBox="0 0 425 237"><path d="M424 1l-4.246 1.852-4.245 6.917-4.246 2.84-4.3 10.621-4.246-.864-4.246 2.13-4.245 5.372-4.246 1.699-4.245 2.253-4.246-2.531-4.246-2.84-4.245-7.345-4.301-10.9-4.245-1.11-4.246 2.407-4.246 4.23-4.245 23.77-4.246 12.345-4.245-5.248-4.246 2.995-4.245 14.264-4.301 12.683-4.246-4.539-36.046 116.734-4.245-1.39-4.246-12.462-4.246-12.875-4.245.277-4.246 9.634-4.245-3.397-4.301-6.237-4.246-7.78-4.245-5.496-4.246 2.254-4.245 8.923h-4.246l-4.246-1.853-4.245-5.804-4.246-5.928-4.301-4.693-4.245-2.81-4.246-.154-4.245 2.84-4.246 50.477-4.245-5.373-4.246 3.798-4.246-2.408-4.3-2.254-4.246.154-4.245 2.254-4.246-1.42-4.246-7.61-4.245-10.065-4.246-.402-4.245 2.964-4.301 3.952-4.246-1.42-4.245-2.254-4.246-1.142-4.245-3.242-4.246 3.952-4.245 2.408-4.246-7.07-4.301 2.686-4.245-1.976-4.246 5.527-4.245 8.49-4.246 4.94-4.246.711-4.245-2.409-4.245-3.828-4.246-7.071-4.3-5.496-4.246-3.396-4.246-4.693-4.245-1.976-4.246-.432-4.246 10.257-4.245-.71-4.246 23.478-4.245-1.42-4.301 5.218h-4.246l-4.245-25.856-4.246 24.142-4.245.586-1.489 1.05-1.268 12.906-1.489 1.043-2.095 9.937-.11 7.533-2.04 5.712L13.792 235l-4.246-6.484-4.3 1.884L1 229.165" stroke="#2C2A2D" stroke-width="2"/></svg>