<?xml version="1.0" encoding="utf-8"?><svg xmlns="http://www.w3.org/2000/svg" width="56" height="56" fill="none" viewBox="0 0 56 56"><path fill="#000" d="M27.588 38.183h-11.99a1.601 1.601 0 01-1.598-1.6V25.127a3.028 3.028 0 01.89-2.15l2.714-2.711a3.009 3.009 0 012.15-.893h7.834v2.257h-7.833a.765.765 0 00-.557.23l-2.714 2.71a.787.787 0 00-.23.557v10.798H27.59l-.003 2.257z"/><path fill="#000" d="M39.575 38.183H27.588v-2.257h11.337V25.128a.786.786 0 00-.23-.556l-2.714-2.711a.764.764 0 00-.557-.23h-7.836v-2.258h7.83a3.01 3.01 0 012.15.894l2.714 2.71a3.028 3.028 0 01.89 2.151v11.447a1.6 1.6 0 01-1.597 1.608z"/><path fill="#000" d="M30.975 34.246a5.291 5.291 0 115.291-5.29 5.298 5.298 0 01-5.29 5.29zm0-8.328a3.037 3.037 0 103.037 3.037 3.04 3.04 0 00-3.037-3.03v-.007zM22.2 24.214h-2.982v2.254H22.2v-2.254zM33.72 15h-5.51v2.254h5.51V15z"/><path fill="#2C2A2D" d="M28 56c15.44 0 28-12.56 28-28S43.44 0 28 0 0 12.56 0 28s12.56 28 28 28zm0-53.32c14 0 25.36 11.36 25.36 25.36S42 53.4 28 53.4 2.64 42.04 2.64 28.04 14.04 2.68 28 2.68z"/></svg>