<?xml version="1.0" encoding="utf-8"?><svg viewBox="0 0 235 212" fill="none" xmlns="http://www.w3.org/2000/svg" width="235" height="212"><path fill-rule="evenodd" clip-rule="evenodd" d="M93.04 37.764c-.224-2.448-3.137-3.603-4.977-1.972L36.405 81.558a3 3 0 00-1.001 2.008l-2.147 27.057a3 3 0 002.99 3.237h60.466a3 3 0 002.987-3.273l-6.66-72.823z" fill="#C0F3CA"/><path d="M226.423 144.702H8.57a8.577 8.577 0 01-8.57-8.57V31.194a13.157 13.157 0 013.881-9.377L20.963 4.735A13.15 13.15 0 0130.34.86H226.43A8.576 8.576 0 01235 9.424v126.701a8.577 8.577 0 01-8.577 8.577zM9.385 135.324h216.23V10.246H30.334a3.837 3.837 0 00-2.734 1.125L10.518 28.453a3.844 3.844 0 00-1.133 2.734v104.137zM227.007 176.218H7.985a7.988 7.988 0 01-7.978-7.985v-17.147h9.378v15.769h216.23v-15.769h9.377v17.161a7.996 7.996 0 01-7.985 7.971zM167.256 211.082h-9.378v-15.993l-2.611-2.611h-35.658V183.1h36.235a7.94 7.94 0 015.648 2.338l3.427 3.433a7.942 7.942 0 012.337 5.641v16.57z" fill="#2C2A2D"/><path d="M81.342 211.082h-9.378V194.49a7.933 7.933 0 012.337-5.641l3.434-3.433a7.93 7.93 0 015.64-2.338h36.235v9.378H83.989l-2.611 2.611-.036 16.015zM194.088 38.448l-61.949 61.949 6.631 6.632 61.949-61.95-6.631-6.631zM185.6 109.247a16.936 16.936 0 01-15.654-10.453 16.94 16.94 0 0112.344-23.098 16.938 16.938 0 0120.241 16.62 16.958 16.958 0 01-4.965 11.966 16.958 16.958 0 01-11.966 4.965zm0-24.49a7.561 7.561 0 107.553 7.56 7.576 7.576 0 00-2.201-5.365 7.565 7.565 0 00-5.352-2.232v.036zM146.791 70.408a16.935 16.935 0 01-15.654-10.45 16.944 16.944 0 0112.339-23.099 16.942 16.942 0 0117.39 7.2 16.933 16.933 0 012.855 9.411 16.96 16.96 0 01-16.93 16.938zm0-24.526a7.558 7.558 0 00-7.423 9.03 7.56 7.56 0 0014.975-1.47 7.565 7.565 0 00-7.552-7.532v-.028zM38.694 113.467h-9.378V84.843a6.644 6.644 0 011.948-4.718l8.159-8.159a6.645 6.645 0 014.71-1.947h10.9v9.378H45.26l-6.565 6.564v27.506z" fill="#2C2A2D"/><path d="M59.722 113.467h-9.377V63.599a6.623 6.623 0 011.955-4.711l8.158-8.159a6.615 6.615 0 014.71-1.947h9.58a6.009 6.009 0 016.01 6.001v23.445H71.38V58.13h-5.086l-6.572 6.565v48.772z" fill="#2C2A2D"/><path d="M121.436 113.661H99.073a6.67 6.67 0 01-6.658-6.665V38.553h-5.093l-6.564 6.571v68.371H71.38V43.999a6.596 6.596 0 011.955-4.71l8.151-8.16a6.651 6.651 0 014.718-1.954h9.58a6.018 6.018 0 016.009 6.009v69.128h19.643v9.349zM127.162 151.273h-15.105v9.378h15.105v-9.378z" fill="#2C2A2D"/></svg>