<?xml version="1.0" encoding="utf-8"?><svg viewBox="0 0 325 216" fill="none" xmlns="http://www.w3.org/2000/svg" width="325" height="216"><path d="M100 63.5l18 22L134 72l6-14-6-8.5-16 2.5-14-2.5-4 14z" fill="#E0D3FF"/><path d="M229.377 45.745H166.85v10.138h62.527V45.745zM229.377 73.656H166.85v10.138h62.527V73.656z" fill="#2C2A2D"/><path d="M161.86 155.672a7.406 7.406 0 01-5.272-2.192l-25.196-25.204a10.78 10.78 0 00-7.69-3.189h-52.6a8.355 8.355 0 01-8.344-8.345V59.338h10.138v55.626h50.806a20.879 20.879 0 0114.817 6.153l23.302 23.302 23.301-23.302a20.919 20.919 0 0114.864-6.153h50.783V58.956h10.138v57.802a8.353 8.353 0 01-8.352 8.344h-52.538a10.817 10.817 0 00-7.697 3.19l-25.188 25.188a7.414 7.414 0 01-5.272 2.192zM139.539 190.257l-27.341-27.341a9.367 9.367 0 00-6.691-2.776H67.724v9.467h28.573v10.138h-30.04a8.708 8.708 0 01-8.695-8.703V158.69a8.709 8.709 0 018.696-8.704h39.226a19.495 19.495 0 0113.857 5.74l27.342 27.341-7.144 7.19z" fill="#2C2A2D"/><path d="M115.661 216l-6.91-6.909a9.406 9.406 0 00-6.691-2.777H52.626a19.492 19.492 0 01-13.865-5.739L2.545 164.359a8.711 8.711 0 010-12.306l9.194-9.186a8.71 8.71 0 0112.306 0l30.219 30.218-7.167 7.167-29.205-29.205-7.159 7.159 35.202 35.202a9.396 9.396 0 006.691 2.768h49.434a19.497 19.497 0 0113.858 5.748l6.909 6.909-7.166 7.167zM184.745 190.257l-7.167-7.174 27.341-27.341a19.494 19.494 0 0113.858-5.74h39.218a8.718 8.718 0 018.703 8.703v12.322a8.719 8.719 0 01-8.703 8.703h-30.039v-10.138h28.604v-9.452h-37.783a9.367 9.367 0 00-6.691 2.776l-27.341 27.341z" fill="#2C2A2D"/><path d="M208.592 216l-7.174-7.167 6.909-6.909a19.502 19.502 0 0113.866-5.748h49.434a9.403 9.403 0 006.691-2.768l35.202-35.202-7.159-7.159-29.143 29.205-7.166-7.167 30.226-30.218a8.7 8.7 0 0112.306 0l9.187 9.186a8.713 8.713 0 010 12.306l-36.216 36.216a19.457 19.457 0 01-13.858 5.739h-49.434a9.423 9.423 0 00-6.691 2.777l-6.98 6.909zM118.974 88.457a6.184 6.184 0 01-3.119-.858c-5.155-3.033-21.992-14.037-21.992-28.246 0-7.993 4.258-14.302 11.105-16.446a15.489 15.489 0 0114.037 2.495 15.49 15.49 0 0114.037-2.495c6.847 2.144 11.098 8.453 11.098 16.447 0 14.2-16.822 25.204-21.984 28.245a6.186 6.186 0 01-3.182.858zm-9.436-36.114a5.21 5.21 0 00-1.56.234c-2.542.78-4.008 3.267-4.008 6.776 0 6.762 8.68 14.162 15.012 18.28 6.332-4.118 15.004-11.518 15.004-18.28 0-3.509-1.458-5.98-4.001-6.776a5.522 5.522 0 00-6.238 2.34 5.813 5.813 0 01-7.452 1.826 5.804 5.804 0 01-2.078-1.827 5.6 5.6 0 00-4.663-2.573h-.016z" fill="#2C2A2D"/><path d="M72.902 69.265H62.764V26.437a12.152 12.152 0 013.571-8.626l14.24-14.24A12.134 12.134 0 0189.2 0h163.447a8.322 8.322 0 018.305 8.305v60.196h-10.138V10.138H89.193a2.06 2.06 0 00-1.459.608l-14.24 14.232a2.05 2.05 0 00-.6 1.459l.008 42.828z" fill="#2C2A2D"/></svg>