<?xml version="1.0" encoding="utf-8"?><svg viewBox="0 0 338 200" fill="none" xmlns="http://www.w3.org/2000/svg" width="338" height="200"><path d="M162 3.5l-21 42-42.5 5-4.5 20 29 31-6.5 37.5 13.5 11 39-17.5 37.5 17.5 15.5-11-7.5-23 3.5-21 26.5-29-5.5-10.5-8-5-36-9.5-20-34-13-3.5z" fill="#FFFFAF"/><path d="M131.483 156.498a7.64 7.64 0 01-4.483-1.461l-12.62-9.127a7.766 7.766 0 01-2.613-3.34 7.794 7.794 0 01-.472-4.22l6.492-37.971-28.028-27.383a7.701 7.701 0 01-1.96-7.833l4.475-14.18a7.744 7.744 0 012.35-3.542 7.704 7.704 0 013.86-1.761l38.87-5.668L154.929 4.29a7.628 7.628 0 012.824-3.139 7.6 7.6 0 014.056-1.15h14.382a7.598 7.598 0 014.056 1.15 7.638 7.638 0 012.825 3.139l17.574 35.722 38.87 5.668a7.688 7.688 0 013.861 1.755 7.726 7.726 0 012.35 3.539l4.474 14.197a7.703 7.703 0 01.13 4.197 7.68 7.68 0 01-2.09 3.637l-28.028 27.383 6.493 37.971a7.761 7.761 0 01-3.077 7.559l-12.637 9.128a7.604 7.604 0 01-8.055.572l-33.908-17.898-33.907 17.898a7.664 7.664 0 01-3.639.88zm37.505-29.972a7.623 7.623 0 013.573.88l33.676 17.765 9.535-6.887-6.442-37.672a7.736 7.736 0 012.208-6.821l27.821-27.209-3.308-10.53-38.547-5.617a7.67 7.67 0 01-3.414-1.391 7.71 7.71 0 01-2.376-2.825l-17.441-35.457h-10.561L146.278 46.22a7.687 7.687 0 01-2.375 2.827 7.645 7.645 0 01-3.414 1.389l-38.556 5.617-3.308 10.522 27.829 27.217a7.713 7.713 0 011.938 3.138 7.74 7.74 0 01.262 3.683l-6.434 37.672 9.527 6.887 33.676-17.765a7.615 7.615 0 013.565-.88zM267.201 199.861a6.35 6.35 0 01-3.715-1.205l-7.606-5.46a6.392 6.392 0 01-2.159-2.745 6.363 6.363 0 01-.389-3.467l3.566-20.729-15.409-14.971a6.298 6.298 0 01-1.753-2.989 6.27 6.27 0 01.098-3.462l2.698-8.504a6.373 6.373 0 011.948-2.916 6.397 6.397 0 013.199-1.448l21.368-3.093 9.665-19.533a6.334 6.334 0 015.702-3.53h8.706a6.318 6.318 0 013.357.948 6.295 6.295 0 012.337 2.582l9.674 19.533 21.367 3.093a6.395 6.395 0 013.199 1.444 6.356 6.356 0 011.948 2.912l2.706 8.521a6.307 6.307 0 01-1.655 6.45l-15.4 14.963 3.566 20.729a6.373 6.373 0 01-2.557 6.212l-7.613 5.46a6.327 6.327 0 01-6.67.471l-18.637-9.767-18.636 9.767a6.337 6.337 0 01-2.905.734zm21.599-21.793a6.368 6.368 0 012.963.725l18.272 9.577 3.17-2.276-3.493-20.301a6.335 6.335 0 01.222-3.025 6.337 6.337 0 011.607-2.575l15.12-14.7-1.051-3.299-20.929-3.028a6.342 6.342 0 01-4.783-3.464l-9.525-19.17h-3.228l-9.484 19.154a6.325 6.325 0 01-4.783 3.464l-20.928 3.036-1.051 3.299 15.119 14.691a6.325 6.325 0 011.829 5.609l-3.492 20.3 3.169 2.277 18.281-9.577a6.3 6.3 0 012.954-.717h.041zM70.891 199.861a6.482 6.482 0 01-2.97-.734l-18.654-9.767-18.644 9.767a6.355 6.355 0 01-6.67-.462l-7.614-5.469a6.391 6.391 0 01-2.16-2.745 6.366 6.366 0 01-.389-3.467l3.567-20.729-15.409-14.971a6.293 6.293 0 01-1.655-6.451l2.698-8.504a6.39 6.39 0 011.95-2.912 6.426 6.426 0 013.197-1.452l21.376-3.093 9.666-19.525a6.294 6.294 0 012.339-2.589 6.318 6.318 0 013.362-.949h8.698a6.327 6.327 0 013.36.947 6.306 6.306 0 012.342 2.583l9.674 19.533 21.368 3.093a6.427 6.427 0 013.196 1.447 6.386 6.386 0 011.95 2.909l2.699 8.521a6.275 6.275 0 01-1.655 6.442l-15.41 14.971 3.567 20.729c.2 1.17.067 2.371-.384 3.469a6.355 6.355 0 01-2.165 2.743l-7.613 5.46a6.328 6.328 0 01-3.617 1.205zm-21.624-21.793a6.328 6.328 0 012.971.734l18.264 9.568 3.178-2.276-3.492-20.301a6.291 6.291 0 011.82-5.6l15.128-14.7-1.05-3.299-20.93-3.027a6.375 6.375 0 01-4.792-3.465l-9.441-19.17h-3.236l-9.476 19.154a6.348 6.348 0 01-4.791 3.464l-20.929 3.036-1.051 3.299 15.128 14.691a6.337 6.337 0 011.829 5.617l-3.493 20.292 3.17 2.277 18.272-9.577a6.36 6.36 0 012.922-.717z" fill="#2C2A2D"/></svg>