<?xml version="1.0" encoding="utf-8"?><svg viewBox="0 0 235 211" fill="none" xmlns="http://www.w3.org/2000/svg" width="235" height="211"><circle cx="130.001" cy="80" r="13" fill="#DCE9FE"/><path d="M226.423 143.841H8.57a8.58 8.58 0 01-8.57-8.57V30.334a13.157 13.157 0 013.881-9.378L20.963 3.874A13.15 13.15 0 0130.34 0H226.43A8.576 8.576 0 01235 8.563v126.701a8.58 8.58 0 01-8.577 8.577zM9.385 134.463h216.23V9.385H30.334a3.838 3.838 0 00-2.734 1.126L10.518 27.591a3.845 3.845 0 00-1.133 2.734v104.137zM227.007 175.358H7.985a7.993 7.993 0 01-7.978-7.986v-17.147h9.378v15.769h216.23v-15.769h9.377v17.161a8 8 0 01-7.985 7.972zM167.256 210.221h-9.378v-15.992l-2.611-2.612h-35.658v-9.378h36.235a7.94 7.94 0 015.648 2.338l3.427 3.433a7.953 7.953 0 012.337 5.641v16.57z" fill="#2C2A2D"/><path d="M81.342 210.221h-9.378V193.63a7.941 7.941 0 012.337-5.641l3.434-3.434a7.93 7.93 0 015.64-2.337h36.235v9.378H83.989l-2.611 2.611-.036 16.014zM127.161 150.413h-15.105v9.377h15.105v-9.377z" fill="#2C2A2D"/><path d="M116.148 119.11H65.765a6.729 6.729 0 01-6.713-6.727V64.251a12.716 12.716 0 013.739-9.037l11.405-11.39a12.647 12.647 0 019.037-3.754h32.915v9.485H83.233a3.219 3.219 0 00-2.339.967L69.49 61.912a3.305 3.305 0 00-.967 2.34v45.373h47.64l-.014 9.485z" fill="#000"/><path d="M166.516 119.11h-50.369v-9.485h47.641V64.251a3.31 3.31 0 00-.967-2.338l-11.405-11.39a3.22 3.22 0 00-2.339-.968h-32.93V40.07h32.901a12.65 12.65 0 019.037 3.754l11.405 11.39a12.72 12.72 0 013.739 9.037v48.103a6.736 6.736 0 01-1.955 4.77 6.723 6.723 0 01-4.758 1.986z" fill="#000"/><path d="M130.388 102.565a22.233 22.233 0 1122.233-22.232 22.264 22.264 0 01-22.233 22.232zm0-34.994a12.762 12.762 0 1012.762 12.762A12.773 12.773 0 00130.388 67.6v-.029zM93.513 60.412h-12.53v9.47h12.53v-9.47zM141.923 21.692h-23.156v9.47h23.156v-9.47z" fill="#000"/></svg>