<?xml version="1.0" encoding="utf-8"?><svg width="120" height="45" fill="none" xmlns="http://www.w3.org/2000/svg" viewBox="0 0 120 45"><path d="M35.021 29.094v-5.972L32.48 27.4l-2.582-4.278v5.972H28v-8.473h2.461l2.018 3.47 1.937-3.47h2.502v8.473H35.02zm5.411-8.474h-1.897v8.474h1.897v-8.473zm.848 0h6.496v1.776h-2.3v6.698h-1.937v-6.698h-2.26v-1.775zm7.174 8.394V27.24c.404.08 1.332.242 2.502.242.969 0 1.453-.121 1.453-.686 0-.606-.404-.686-1.776-1.332-1.331-.605-2.34-1.13-2.34-2.582 0-1.776 1.09-2.381 3.188-2.381 1.09 0 1.856.08 2.38.161v1.776c-.484-.04-1.331-.162-2.3-.162-1.13 0-1.371.122-1.371.606s.605.726 1.533 1.13c1.412.645 2.542 1.17 2.542 2.784 0 1.694-1.05 2.461-3.309 2.461a23.907 23.907 0 01-2.502-.242zm6.986-2.784v-5.61h1.896v5.529c0 .968.565 1.291 1.493 1.291.888 0 1.493-.323 1.493-1.291V20.62h1.896v5.608c0 2.058-1.331 2.986-3.389 2.986s-3.39-.928-3.39-2.986m8.393-5.608h3.712c1.735 0 2.704.646 2.704 2.18 0 1.21-.686 1.614-1.332 1.856.767.242 1.574.645 1.574 2.058 0 1.493-.888 2.38-2.784 2.38h-3.834v-8.473h-.04zm3.43 3.43c.767 0 1.049-.403 1.049-.968 0-.686-.323-.847-1.05-.847H65.73v1.816h1.533zm.12 3.47c.768 0 1.09-.282 1.09-1.008 0-.646-.282-.928-1.008-.928h-1.736v1.937h1.655zm6.093-6.9h-1.897v8.474h1.897v-8.473zm1.372 8.394V27.24c.404.08 1.332.242 2.502.242.968 0 1.452-.121 1.452-.686 0-.606-.403-.686-1.775-1.332-1.332-.605-2.34-1.13-2.34-2.582 0-1.776 1.089-2.381 3.187-2.381 1.09 0 1.856.08 2.381.161v1.776c-.484-.04-1.332-.162-2.3-.162-1.13 0-1.372.122-1.372.606s.605.726 1.533 1.13c1.413.645 2.543 1.17 2.543 2.784 0 1.694-1.05 2.461-3.31 2.461a25.02 25.02 0 01-2.501-.242m11.787.079v-3.349h-3.027v3.35h-1.896V20.62h1.896v3.349h3.027v-3.35h1.896v8.474h-1.896zM92 20.62h-1.897v8.474H92v-8.473zM43.896 40.514v-5.972l-2.542 4.277-2.542-4.277v5.972h-1.937V32.04h2.461l2.018 3.43 1.977-3.43h2.502v8.474h-1.937zm3.229-4.237c0-3.026 1.17-4.358 3.672-4.358 2.502 0 3.672 1.332 3.672 4.358s-1.17 4.358-3.672 4.358c-2.502 0-3.672-1.332-3.672-4.358zm5.326 0c0-1.735-.282-2.623-1.694-2.623-1.372 0-1.695.888-1.695 2.623 0 1.735.282 2.623 1.695 2.623 1.412 0 1.694-.888 1.694-2.623zm2.301-4.237h6.496v1.776h-2.3v6.698h-1.896v-6.699h-2.3V32.04zm6.824 4.237c0-3.026 1.17-4.358 3.672-4.358 2.502 0 3.672 1.332 3.672 4.358s-1.17 4.358-3.672 4.358c-2.502 0-3.672-1.332-3.672-4.358zm5.327 0c0-1.735-.283-2.623-1.695-2.623-1.413 0-1.695.888-1.695 2.623 0 1.735.282 2.623 1.695 2.623 1.412 0 1.695-.888 1.695-2.623zm3.261-4.237h3.43c1.816 0 2.986.686 2.986 2.704 0 1.331-.646 2.178-1.735 2.42l2.098 3.35h-2.22l-1.775-3.027h-.847v3.027h-1.897V32.04h-.04zm3.35 3.793c.847 0 1.129-.444 1.129-1.09 0-.645-.282-1.089-1.13-1.089h-1.412v2.18h1.412zm4.2 4.56v-1.776a12.96 12.96 0 002.502.243c.968 0 1.453-.121 1.453-.686 0-.606-.404-.686-1.776-1.332-1.332-.605-2.34-1.13-2.34-2.582 0-1.776 1.09-2.381 3.188-2.381 1.089 0 1.856.08 2.38.161v1.776c-.484-.04-1.331-.162-2.3-.162-1.13 0-1.372.121-1.372.565 0 .484.606.727 1.534 1.13 1.412.646 2.542 1.17 2.542 2.784 0 1.695-1.05 2.462-3.31 2.462-.847.04-1.694-.04-2.5-.202M62.828 7.748L60.362 3.5l-2.454 4.248 2.454 4.261 2.466-4.26zm-.003 8.509h4.908L65.28 12.01h-4.92l2.466 4.248z" fill="#000"/><path d="M57.908 16.257H53l2.454-4.248h4.908l-2.454 4.248z" fill="#000"/></svg>