<?xml version="1.0" encoding="utf-8"?><svg width="579" height="196" xmlns="http://www.w3.org/2000/svg" viewBox="0 0 579 196"><path fill-rule="evenodd" clip-rule="evenodd" d="M135.374 66.726a10.65 10.65 0 00-9.889-6.704 10.646 10.646 0 00-9.889 6.704L92 127.62l13.448 5.185 5.122-14.223h29.768l5.131 14.223 13.439-5.185-23.534-60.894zm-9.902 40.068h-10.621l10.621-29.33 10.62 29.33h-10.62z"/><path d="M250.672 60h-4.851v72.805h4.851V60z"/><path fill-rule="evenodd" clip-rule="evenodd" d="M394.535 70.894a8.94 8.94 0 00-4.212.876V60.97h-6.583v10.755a8.935 8.935 0 00-4.204-.876c-6.714 0-10.804 4.081-10.804 13.207 0 8.487 3.686 12.953 9.702 12.953a10.104 10.104 0 005.306-1.217v9.021h6.583v-8.977a10.125 10.125 0 005.314 1.217c5.586 0 9.702-4.633 9.702-13.137 0-9.108-4.098-13.023-10.804-13.023zM383.74 91.037a9.014 9.014 0 01-3.372.534c-3.45 0-4.868-2.82-4.868-7.435 0-5.036 1.532-7.69 4.554-7.69a7.006 7.006 0 013.686.736v13.855zm9.963.534a9.088 9.088 0 01-3.38-.534v-13.89a7.004 7.004 0 013.694-.736c3.022 0 4.554 2.488 4.554 7.55 0 4.589-1.882 7.567-4.868 7.567v.043zM316.041 72.463v12.384c.156 1.83.012 3.673-.428 5.456a5.577 5.577 0 01-2.198 2.978l1.848 3.87c5.252-1.497 7.284-3.8 7.284-11.13V76.93a18.078 18.078 0 013.501-.316c1.152-.01 2.302.097 3.432.316v19.705h6.602V72.463a32.75 32.75 0 00-10.034-1.55 32.388 32.388 0 00-10.007 1.55zM432.36 94.236a11.484 11.484 0 01-2.179-7.55v-6.752c0-3.652-.42-5-1.4-6.323-1.322-1.883-3.572-2.698-7.688-2.698-2.86-.017-5.71.324-8.484 1.016l.98 4.835c1.714-.27 3.442-.431 5.176-.482 4.376 0 4.876.648 4.876 3.915v1.217a12.593 12.593 0 00-3.328-.447c-6.602 0-10.085 3.215-10.085 8.522 0 4.983 3.711 7.716 8.265 7.716a13.321 13.321 0 004.85-.876 12.83 12.83 0 002.286-1.296 6.918 6.918 0 002.574 2.119l4.157-2.916zm-11.933-2.286c-2.364 0-3.686-.928-3.686-3.346 0-2.417 1.7-3.371 4.956-3.371a6.336 6.336 0 011.944.254v1.751a15.35 15.35 0 00.35 4.055 10.105 10.105 0 01-3.564.657zM363.829 87.649c0-5.403-3.318-8.758-9.536-8.758a16.403 16.403 0 00-4.22.63v-8.197h-6.601v23.997a25.382 25.382 0 009.631 1.9c6.97 0 10.726-3.617 10.726-9.572zm-13.756 4.09v-7.217c.946-.253 1.92-.386 2.898-.394 3.022 0 4.036 1.48 4.036 3.862 0 2.383-.874 4.17-4.036 4.17a8.136 8.136 0 01-2.898-.421zM292.619 60.919a6.917 6.917 0 00-3.107 1.05 7.104 7.104 0 00-2.267 2.409c-3.87 10.702-7.731 21.41-11.584 32.124l6.768 2.487 2.574-7.461h15.2l2.626 7.602 6.838-2.768-11.996-32.57a5.255 5.255 0 00-2.092-2.2 5.14 5.14 0 00-2.96-.673zm-5.436 24.294l5.436-15.642 5.404 15.686-10.84-.044z"/><path d="M275.54 120.684a12.008 12.008 0 013.441-8.758 11.778 11.778 0 018.755-3.503c3.642 0 6.56 1.053 8.756 3.161l-1.7 2.505a10.329 10.329 0 00-3.168-1.892c-1.188-.46-2.448-.7-3.721-.709a8.323 8.323 0 00-6.462 2.627 9.319 9.319 0 00-2.399 6.56 9.712 9.712 0 002.452 6.717 8.24 8.24 0 006.479 2.75 10.077 10.077 0 003.957-.832 10.558 10.558 0 003.406-2.294l1.794 2.417a12.593 12.593 0 01-9.262 3.801 11.668 11.668 0 01-8.87-3.582 12.472 12.472 0 01-3.458-8.968zM305.002 132.806v-14.354h-5.98v-2.82h15.244v2.82h-6.008v14.354h-3.256zM318.335 139.601V115.63h3.056v1.524l-.104 1.296h.104a5.758 5.758 0 012.312-2.4 7.007 7.007 0 013.424-.875 6.75 6.75 0 015.497 2.478 9.957 9.957 0 012.04 6.525 9.541 9.541 0 01-2.172 6.533 7.142 7.142 0 01-5.601 2.461 6.036 6.036 0 01-3.062-.736 6.041 6.041 0 01-2.272-2.18h-.06c.096.49.14.989.13 1.489v7.812l-3.292.044zm3.188-15.318a7.078 7.078 0 001.314 4.265 4.124 4.124 0 003.546 1.813 4.467 4.467 0 003.501-1.647 6.55 6.55 0 001.426-4.466 6.954 6.954 0 00-1.338-4.458 4.284 4.284 0 00-3.503-1.681 4.588 4.588 0 00-3.502 1.558 6.666 6.666 0 00-1.444 4.616zM338.154 128.118a4.895 4.895 0 011.052-3.188 5.764 5.764 0 012.802-1.848 19.092 19.092 0 013.24-.77 24.182 24.182 0 013.16-.202h.875v-.341c0-2.505-1.251-3.766-3.765-3.766a8.248 8.248 0 00-4.816 1.664l-1.33-2.409a8.462 8.462 0 012.854-1.462 11.603 11.603 0 013.564-.578 6.885 6.885 0 015.025 1.751 6.678 6.678 0 011.388 2.316c.302.858.424 1.769.362 2.676v10.86h-3.072v-1.751l.096-1.358h-.062a6.473 6.473 0 01-2.293 2.505 5.994 5.994 0 01-3.344.99 6.131 6.131 0 01-4.036-1.393 4.522 4.522 0 01-1.7-3.696zm3.294-.271a2.575 2.575 0 00.874 1.935 3.287 3.287 0 002.374.815 3.978 3.978 0 003.326-1.699 6.08 6.08 0 001.287-3.766v-.64h-.875c-4.658 0-6.986 1.118-6.986 3.355zM356.314 132.806l5.866-8.828-5.534-8.346h3.774l3.186 5.254.544 1.016h.07c.228-.385.42-.726.578-1.016l3.186-5.254h3.766l-5.526 8.346 5.868 8.828h-3.73l-3.6-5.736-.542-.876h-.07a6.48 6.48 0 01-.508.876l-3.598 5.736h-3.73zM375.218 136.371c.55.47 1.246.736 1.97.753 1.378 0 2.416-.85 3.116-2.549l.876-1.97-7.258-16.973h3.704l4.307 11.236.648 2.067h.096c.152-.688.344-1.367.578-2.032l4.166-11.271h3.564l-8.072 20.266a6.298 6.298 0 01-2.223 3.004 5.69 5.69 0 01-3.344 1.033 5.161 5.161 0 01-1.674-.236 4.915 4.915 0 01-1.216-.543l-.412-.237 1.174-2.548zM395.068 132.803v-17.174h7.1a6.885 6.885 0 014.186 1.139c.51.374.918.869 1.19 1.441.27.572.394 1.202.36 1.834a4.13 4.13 0 01-.648 2.26 4.047 4.047 0 01-1.812 1.506 4.125 4.125 0 012.408 1.489c.678.948.966 2.121.802 3.276a4.536 4.536 0 01-1.678 2.925 7.543 7.543 0 01-4.596 1.269l-7.312.035zm3.292-9.914h3.232a3.13 3.13 0 002.206-.691 2.49 2.49 0 00.744-1.918c0-1.588-1.018-2.38-3.056-2.374h-3.126v4.983zm0 7.611h3.502a4.047 4.047 0 002.628-.718 2.629 2.629 0 00.666-3.074 2.615 2.615 0 00-.666-.893 4.134 4.134 0 00-2.628-.719h-3.502v5.404zM412.14 128.118a4.895 4.895 0 011.052-3.188 5.802 5.802 0 012.802-1.847 19.326 19.326 0 013.248-.771 23.888 23.888 0 013.152-.202h.876v-.341c0-2.505-1.262-3.766-3.774-3.766a8.269 8.269 0 00-4.816 1.664l-1.322-2.409a8.406 8.406 0 012.846-1.462 11.623 11.623 0 013.564-.578 6.87 6.87 0 015.025 1.751 6.705 6.705 0 011.392 2.315c.3.859.422 1.77.358 2.678v10.859h-3.063v-1.751l.104-1.358h-.07a6.484 6.484 0 01-2.31 2.514 5.991 5.991 0 01-3.346.989 6.12 6.12 0 01-4.018-1.401 4.571 4.571 0 01-1.286-1.647 4.578 4.578 0 01-.414-2.049zm3.294-.271a2.617 2.617 0 00.874 1.935 3.3 3.3 0 002.382.815 3.968 3.968 0 003.318-1.699 6.024 6.024 0 001.296-3.766v-.639h-.876c-4.664 0-6.994 1.118-6.994 3.354zM432.268 132.806v-17.174h3.291v7.006h8.686v-7.006h3.292v17.174h-3.292v-7.365h-8.686v7.365h-3.291zM453.484 132.806v-17.174h3.292v7.006h8.686v-7.006h3.292v17.174h-3.292v-7.365h-8.686v7.365h-3.292zM472.965 132.804l3.966-5.701.78-1.051a5.138 5.138 0 01-2.626-1.752 5.43 5.43 0 01.594-7.19 6.736 6.736 0 014.465-1.41H487v17.104h-3.292v-6.244h-2.89l-4.211 6.209-3.642.035zm7.879-8.617h2.854v-6.28h-2.748c-2.427 0-3.639 1.028-3.633 3.083a2.916 2.916 0 00.98 2.382 3.87 3.87 0 002.539.815h.008zM216.381 114.93a22.196 22.196 0 01-13.886 4.624c-12.1 0-24.358-7.952-24.358-23.147 0-15.195 12.258-23.156 24.358-23.156a22.252 22.252 0 0113.886 4.624l4.807-12.541A35.89 35.89 0 00202.398 60c-21.634 0-38.313 16.281-38.313 36.407 0 20.126 16.635 36.398 38.313 36.398a35.886 35.886 0 0018.816-5.369l-4.807-12.524-.026.018z"/></svg>