<?xml version="1.0" encoding="utf-8"?><svg width="579" height="196" xmlns="http://www.w3.org/2000/svg" viewBox="0 0 579 196"><path fill-rule="evenodd" clip-rule="evenodd" d="M385.62 26H194v143h191.62V26zm-84.416 63.359c.113-.09.196-.15.279-.21l.128-.093c5.737-3.8 8.487-9.047 7.74-15.941-.509-4.709-2.512-8.643-6.246-11.637-4.175-3.33-9.063-4.64-14.325-4.742-4.854-.1-14.902 0-15.105.034v50.144h3.835V60.167l10.252-.067c2.614.033 5.193.336 7.671 1.244 7.876 2.825 10.761 9.551 9.844 16.11-.611 4.439-3.19 7.634-7.06 9.853-.368.203-.748.393-1.133.585-.255.128-.511.257-.768.39l12.526 18.329c.102.135.271.337.407.337.871.022 1.743.015 2.653.007h.005c.471-.003.952-.007 1.449-.007l-12.152-17.59zm-79.738 17.622l23.49-50.951 23.524 50.918c-.333 0-.662.002-.988.004h-.003c-.968.006-1.906.012-2.845-.038-.17 0-.374-.37-.475-.605l-19.315-42.275-19.213 42.275c-.238.504-.509.706-1.086.672a43.276 43.276 0 00-1.978-.007h-.006c-.356.003-.723.007-1.105.007zm139.173-.84L345.84 81.758c-.271-.437-.271-.773 0-1.21l14.189-23.778c-.427 0-.843.004-1.249.008h-.001c-.788.008-1.542.014-2.281-.008-.509 0-.781.168-1.018.572l-13.951 23.273c-.237.404-.237.672 0 1.076l14.969 24.685c.136.236.373.572.544.572.987.05 1.956.044 2.977.038H360.039c.341-.002.687-.004 1.042-.004a9.1 9.1 0 00-.442-.841zm-38.152-48.866l13.918 22.97c.271.404.237.706-.034 1.076l-.159.263-.006.01h-.001c-5.002 8.25-10.005 16.5-15.008 24.783-.271.437-.509.639-1.018.605-.713-.022-1.426-.015-2.178-.008h-.005c-.391.004-.793.008-1.211.008.169-.303.305-.538.441-.774l14.868-24.82c.271-.47.305-.807 0-1.277l-14.189-23.408c.353 0 .7-.002 1.041-.004 1.003-.006 1.959-.012 2.896.038.238 0 .51.303.645.538zm-31.67 29.527c.068-.067.102-.1.135-.1.072-.015.151-.035.232-.057.111-.028.228-.059.346-.078 3.53-.807 6.517-2.489 8.384-5.718 3.055-5.213 1.697-14.83-8.147-16.95-1.799-.37-3.564-.47-5.363-.47l-4.888.1c-.034 0-.068.034-.102.068v43.35h3.802V84.852l14.902 21.557c.135.202.407.538.611.538 1.323.034 2.613.034 4.073.034l-13.985-20.179zm-5.601-2.59V66.96c3.462-.135 6.857-.202 9.538 2.354 2.648 2.489 2.987 5.65 2.071 8.946-.917 3.33-3.428 4.977-6.687 5.549-1.072.203-2.16.255-3.272.308-.544.025-1.093.051-1.65.096zm-50.341 10.191l9.911-21.692 9.845 21.692h-19.756zm14.121-3.397l-4.345-9.585-4.345 9.585h8.69zm89.785-6.827l-13.849 22.802c.418 0 .82-.004 1.211-.008.754-.007 1.468-.014 2.183.008.509 0 .781-.134 1.018-.571l9.234-15.437 9.402 15.47c.136.236.442.505.645.538.937.05 1.892.044 2.896.038.341-.002.689-.004 1.042-.004l-13.782-22.836zm8.69-26.87c.271-.438.543-.64 1.086-.606 1.013.064 2.026.036 3.158.003l.134-.003-12.695 21.02-12.695-20.987c.372 0 .733-.002 1.087-.004 1.033-.006 2-.012 2.986.038.17 0 .407.336.543.572l8.249 13.52 8.147-13.554zm-87.206 49.437l-3.903-8.542c-.102-.202-.441-.37-.679-.37h-21.861c-.237 0-.611.235-.747.47l-3.937 8.644c.394 0 .776-.004 1.149-.008.719-.007 1.405-.014 2.076.008.509.034.712-.168.916-.605l2.071-4.574c.203-.437.407-.606.916-.606h16.735c.543 0 .747.202.951.64l2.138 4.607c.102.202.34.471.509.471 1.222.034 2.445.034 3.666.034v-.169zm-22.724 31.773h-1.759v-3.201h2.076c1.197 0 1.379.505 1.525.913.099.275.182.506.551.506h.352v-2.145c-.282.132-.669.165-.95.165h-5.771v.197c0 .223.138.235.297.248.218.017.477.038.477.61v6.271c0 .572-.259.593-.477.61-.159.013-.297.025-.297.248v.231h2.991v-.231c0-.223-.138-.235-.298-.248-.218-.017-.476-.038-.476-.61v-3.036h1.759c.769 0 .864.269.947.506.066.186.124.352.496.352h.316v-2.212h-.246c-.386 0-.447.159-.515.337-.088.228-.188.489-.998.489zm13.184 4.653v-.23c0-.219.129-.232.28-.247.209-.021.46-.046.46-.637v-6.353c0-.583-.244-.604-.452-.622-.154-.014-.288-.025-.288-.262v-.229h2.86v.229c0 .219-.13.232-.28.247-.21.021-.46.046-.46.637v6.353c0 .583.244.605.452.623.154.013.288.024.288.261v.23h-2.86zm6.778-.491c-.196-.018-.427-.04-.427-.623v-3.275h.444c.789 0 1.002.362 1.551 1.291l.225.379 1.649 2.686h1.935v-.229c0-.239-.076-.249-.217-.268-.189-.025-.494-.065-.893-.682l-1.491-2.293-.118-.176h-.001c-.261-.394-.498-.749-1.022-.806v-.033c1.332-.032 2.695-.556 2.695-1.997 0-1.638-1.776-2.063-2.727-2.063h-4.059v.229c0 .237.126.248.271.262.196.018.426.039.426.622v6.353c0 .591-.247.616-.453.637-.149.015-.276.028-.276.247v.23h2.759v-.23c0-.237-.126-.248-.271-.261zm2.903-5.928c0 1.343-1.078 1.572-2.061 1.572h-1.269v-3.177h1.649c.825 0 1.681.491 1.681 1.605zm6.12 1.766h1.76c.803 0 .908-.256 1.002-.483.074-.18.141-.343.546-.343h.246v2.212h-.316c-.369 0-.429-.164-.497-.348-.088-.238-.188-.51-.981-.51h-1.76v3.036c0 .572.259.593.477.61.16.013.298.025.298.248v.231h-2.991v-.231c0-.223.137-.235.297-.248.218-.017.477-.038.477-.61v-6.271c0-.572-.259-.593-.477-.61-.16-.013-.297-.025-.297-.248v-.197h5.77c.282 0 .669-.033.951-.165v2.145h-.352c-.369 0-.452-.231-.551-.506-.147-.408-.328-.913-1.525-.913h-2.077v3.201zm16.318 3.26c.037-.052.072-.099.098-.141l1.675-2.218 1.949 2.577c.102.098.273.294.273.424 0 .192-.18.219-.365.247-.191.029-.387.059-.387.275v.229h3.248v-.229c0-.207-.078-.226-.22-.262-.171-.042-.435-.108-.772-.553l-2.769-3.752 1.846-2.382c.552-.695.944-.795 1.178-.854.172-.044.258-.066.258-.287v-.229h-2.632v.229c0 .22.16.235.325.251.176.016.359.033.359.303 0 .183-.264.534-.439.767a3.609 3.609 0 00-.108.147l-1.163 1.533-1.538-2.055c-.016-.024-.04-.052-.067-.085-.087-.104-.206-.248-.206-.372 0-.172.133-.202.272-.233.151-.033.309-.068.309-.289v-.228h-3.111v.228c0 .219.076.229.215.246.171.021.437.055.776.504l2.427 3.23-2.358 3.132c-.482.632-.799.691-.978.724-.126.023-.184.033-.184.222v.228h2.597v-.228c0-.208-.181-.251-.365-.295-.192-.046-.387-.092-.387-.325 0-.146.134-.328.244-.479zm-38.549-6.694h-.903v-.493h1.968c.064 0 3.032 7.429 3.032 7.429.277.622.534.66.702.685.125.019.201.03.201.268v.198h-2.871v-.198c0-.23.17-.255.339-.279.169-.025.339-.049.339-.28 0-.197-.065-.493-.162-.657l-.87-2.203-2.581-.032-.903 2.071-.049.118c-.075.174-.177.415-.177.572 0 .267.167.305.33.343.159.036.315.072.315.314v.198h-2.29v-.198c0-.196.072-.22.195-.262.186-.062.488-.163.837-.954l2.548-6.64zm.549 1.052l-1.129 2.827h2.193l-1.064-2.827zm28.6-1.052h.9l-2.571 6.64c-.347.791-.649.892-.834.954-.123.042-.194.066-.194.262v.198h2.314v-.198c0-.242-.156-.278-.314-.314-.163-.038-.329-.076-.329-.343 0-.157.102-.397.176-.572l.022-.053.016-.039.011-.026.9-2.071 2.57.032.868 2.203c.097.164.161.46.161.657 0 .231-.169.255-.338.28-.168.024-.337.049-.337.279v.198h2.86v-.198c0-.238-.076-.249-.2-.268-.168-.025-.423-.063-.7-.685 0 0-2.956-7.429-3.021-7.429h-1.96v.493zm.322 3.879l1.124-2.827 1.061 2.827h-2.185zm-40.656-7.948c-.169 0-.305-.159-.305-.357 0-.199.136-.358.305-.358h56.383c.17 0 .306.159.306.358 0 .198-.136.357-.306.357H233.11zm-.305 16.088c0 .198.136.357.305.357h56.383c.17 0 .306-.159.306-.357 0-.199-.136-.358-.306-.358H233.11c-.169 0-.305.159-.305.358zm-10.731-3.932h-1.379l3.6-8.58h1.379l3.601 8.58h-1.341l-.919-2.211h-4.022l-.919 2.211zm4.596-3.168l-1.647-4.224-1.685 4.224h3.332zm75.043 3.168c2.554 0 3.192-1.776 3.352-2.926h-1.054c-.063 1.15-.989 2.005-2.266 2.005-1.66 0-2.681-1.414-2.681-3.287 0-1.775.638-3.485 2.617-3.485 1.82 0 2.171 1.249 2.235 1.841h1.053c-.128-1.216-.766-2.728-3.288-2.728-.67 0-3.766.131-3.766 4.437 0 2.565 1.436 4.143 3.798 4.143zm9.072-8.58c1.653 0 3.575.982 3.575 4.29 0 4.224-3.124 4.29-3.575 4.29-.48 0-3.575-.066-3.575-4.29 0-2.85 1.502-4.29 3.575-4.29zm0 7.63c.511 0 2.494-.131 2.494-3.373 0-1.9-.781-3.373-2.494-3.373-2.283 0-2.493 2.489-2.493 3.373 0 1.31.36 3.373 2.493 3.373zm6.826-5.921v-.329l2.715 7.2h.938l2.715-7.2h.033l-.033.329v6.871h1.106v-8.58h-1.676l-2.614 7.067-2.614-7.067h-1.676v8.58h1.106v-6.871zm13.941-1.709c1.804 0 2.971.69 2.971 2.465 0 1.611-.814 2.696-3.113 2.696h-2.298v3.419h-1.167v-8.58h3.607zm-2.405 4.174h2.157c1.415 0 2.016-.591 2.016-1.709 0-1.052-.672-1.512-2.016-1.512h-2.157v3.221zm5.948 4.406h1.149l.734-2.236h3.352l.765 2.236h1.15l-3-8.58h-1.15l-3 8.58zm3.606-7.43l1.373 4.241h-2.745l1.372-4.241zm6.136 7.43h-1.162v-8.58h1.302l4.685 6.804v-6.804h1.163v8.58h-1.303l-4.685-6.805v6.805zm14.568-8.58h-1.311l-2.264 3.977-2.264-3.977h-1.311l3.05 4.996v3.584h1.083v-3.584l3.017-4.996z"/></svg>