<?xml version="1.0" encoding="utf-8"?><svg width="551" height="100" xmlns="http://www.w3.org/2000/svg" viewBox="0 0 551 100"><path d="M191.092 18.062h14.746v44.06c0 14.55 8.579 23.278 19.843 23.278 11.384 0 19.837-8.728 19.837-23.278v-44.06h14.749v47.225c0 18.338-13.566 34.007-34.586 34.007-21.024 0-34.589-15.669-34.589-34.007V18.062zM342.133 97.583V18.059h-14.587v49.618l-42.813-49.618h-7.967v79.388h14.587V48.039l42.717 49.544h8.063zM374.724 18.062h-15.14V97.45h15.14V18.062z"/><path fill-rule="evenodd" clip-rule="evenodd" d="M471.847 57.75c0-23.335-18.843-42.246-42.093-42.246-23.242 0-42.088 18.911-42.088 42.246 0 23.327 18.846 42.25 42.088 42.25a41.776 41.776 0 0023.822-7.426l6.868 6.959 9.596-9.727-6.611-6.708a42.18 42.18 0 008.418-25.348zm-42.093 28.983c-15.092 0-27.332-12.978-27.332-28.983 0-16.014 12.24-28.989 27.332-28.989 15.097 0 27.335 12.975 27.335 28.99 0 5.468-1.432 10.585-3.916 14.952l-9.05-9.174-9.6 9.724 9.252 9.381c-4.104 2.604-8.894 4.099-14.021 4.099z"/><path d="M533.946 97.447h16.155l-33.365-79.388h-10.16l-34.238 79.388h15.718l6.162-14.952h33.758l5.97 14.952zM499.594 69.44l11.767-28.554 11.4 28.554h-23.167zM53.685 96.297H.102l6.143-11.092H37.72a62.85 62.85 0 004.306 3.685c3.527 2.75 7.44 5.327 11.66 7.407zM65.48 15.776c-1.732 1.473-12.799 23.288.816 42.48 3.84 5.414 9.448 12.012 16.023 15.877 6.837 4.024 11.408 5.044 14.34 5.85 5.165 1.425 13.165 2.013 23.468 2.577 8.345.461 25.431.558 28.414.55l3.183.015 7.314 14.126s-24.825.113-36.364-.52c-12.978-.71-23.061-1.453-29.565-3.244-3.692-1.017-9.448-2.305-18.065-7.37-8.28-4.87-16.769-13.39-21.178-20.503-10.623-17.152-7.957-28.666-6.56-34.318 3.031-4.258 6.945-8.346 11.17-11.383 3.06-2.234 4.972-3.11 7.004-4.137z"/><path d="M82.673 95.412a47.508 47.508 0 01-9.098.887c-10.497-.018-20.38-5.006-28.543-11.37-9.791-7.642-16.95-18.267-18.764-29.834-.264-1.347-.383-2.712-.577-4.622-.728-7.922.395-17.887 5.877-27.413 4.744-8.238 11.811-15.377 23.456-20.316 4.86-2.06 15.292-4.38 27.372-1.123 12.693 3.546 23.786 11.527 30.919 22.007 0 0-10.945-14.419-29.67-16.074a35.676 35.676 0 00-2.544-.131c-9.251-.188-18.099 3.04-25.47 8.41-4.716 3.39-8.853 7.663-12.056 12.578-.177.272-.742 1.117-1.492 2.464l-.224.403c-.157.289-.32.597-.486.925-2.271 4.409-5.446 12.3-5.573 22.268-.16 12.836 5.517 22.09 7.645 25.21.054.083 5.338 3.7 13.332 5.245 3.242.623 6.294.733 8.899.659 2.193 1.79 4.506 3.433 6.903 4.846 3.882 2.284 7.229 3.847 10.094 4.981z"/><path d="M103.086 20.223c6.904 4.157 16.846 17.194 17.302 29.044.733 11.312-4.868 22.358-8.606 27.76-6.054-.444-10.644-.99-13.829-1.868-.99-.272-2.179-.568-3.594-1.014 3.967-3.702 9.866-10.676 12.858-21.385 4.131-14.947.054-25.104-4.131-32.537z"/></svg>