<?xml version="1.0" encoding="utf-8"?><svg width="579" height="196" xmlns="http://www.w3.org/2000/svg" viewBox="0 0 579 196"><path d="M417 127.196H162v3.883h255v-3.883zM168.415 153.818h-1.691L162 140.167h2.296l3.278 9.929 3.288-9.929h2.276l-4.723 13.651zm6.745-13.651h2.163v13.651h-2.163v-13.651zm5.952 13.651v-13.651h9.107v1.89h-6.953v3.986h5.933v1.89h-5.933v4.1h6.953v1.889l-9.107-.104zm20.869 0l-6.613-9.608v9.608h-2.126v-13.651h1.975l6.613 9.589v-9.589h2.163v13.651h-2.012zm14.52 0l-6.613-9.608v9.608h-2.135v-13.651h1.974l6.614 9.589v-9.589h2.154v13.651h-1.994zm13.944 0l-.944-2.739h-5.669l-.945 2.739h-2.314l5.224-13.651h1.739l5.224 13.651h-2.315zm-3.779-10.562l-2.22 6.056h4.384l-2.164-6.056zm12.971-3.089h2.164v13.651h-2.126l-.038-13.651zm14.691 13.651l-6.613-9.608v9.608h-2.097v-13.651h1.983l6.614 9.589v-9.589h2.163v13.651h-2.05zm9.551.114a6.606 6.606 0 01-5.045-1.805l1.446-1.36a4.806 4.806 0 003.637 1.304c1.889 0 2.947-.766 2.947-2.088a1.759 1.759 0 00-.566-1.417 2.486 2.486 0 00-1.559-.577l-1.682-.226a5.036 5.036 0 01-2.702-1.096 3.323 3.323 0 01-1.039-2.608c0-2.38 1.804-4.005 4.724-4.005a6.06 6.06 0 014.421 1.549l-1.379 1.304a4.298 4.298 0 00-3.099-1.058c-1.682 0-2.607.944-2.607 2.135a1.573 1.573 0 00.547 1.266 3.27 3.27 0 001.597.633l1.625.226c.971.063 1.9.419 2.664 1.021a3.5 3.5 0 011.153 2.834c0 2.513-2.135 4.005-5.121 4.005m12.952 0c-2.9 0-5.101-1.889-5.101-4.723v-9.079h2.154v8.956a2.958 2.958 0 004.983 1.982 2.954 2.954 0 00.921-1.982v-8.956h2.23v9.051c0 2.834-2.22 4.723-5.12 4.723m16.551-.113l-2.995-5.735h-2.702v5.754h-2.163v-13.68h5.527c2.702 0 4.421 1.663 4.421 3.987a3.622 3.622 0 01-2.834 3.628l3.278 6.036-2.532.01zm-2.503-11.79h-3.203v4.27h3.203c1.445 0 2.428-.784 2.428-2.126a2.16 2.16 0 00-.725-1.626 2.146 2.146 0 00-1.703-.518zm15.975 11.79l-.945-2.74h-5.668l-.945 2.74h-2.324l5.224-13.651h1.748l5.225 13.651h-2.315zm-3.779-10.562l-2.22 6.055h4.383l-2.163-6.055zm16.854 10.562l-6.613-9.608v9.608h-2.079v-13.661h1.984l6.613 9.589v-9.589h2.164v13.651l-2.069.01zm10.392.113a5.312 5.312 0 01-3.779-1.455c-1.398-1.341-1.379-2.834-1.379-5.489 0-2.654 0-4.137 1.379-5.479a5.277 5.277 0 013.779-1.455 5.382 5.382 0 013.987 1.606l-1.446 1.398a3.293 3.293 0 00-2.541-1.152 2.886 2.886 0 00-2.097.831c-.7.728-.841 1.512-.841 4.251 0 2.74.141 3.534.841 4.261a2.873 2.873 0 002.097.822 3.249 3.249 0 002.541-1.153l1.446 1.408a5.372 5.372 0 01-3.987 1.606zm6.944-.113v-13.661h9.116v1.89h-6.953v3.986h5.933v1.89h-5.933v4.1h6.953v1.889l-9.116-.094zm25.507-1.455a5.577 5.577 0 01-7.633.113c-1.398-1.341-1.38-2.834-1.38-5.489 0-2.654 0-4.137 1.38-5.479a5.217 5.217 0 013.779-1.455 5.526 5.526 0 014.298 1.795l-1.464 1.408a3.641 3.641 0 00-2.834-1.351 2.968 2.968 0 00-2.126.85c-.699.727-.841 1.493-.841 4.232 0 2.74.142 3.534.841 4.261a3.176 3.176 0 004.402-.132 3.084 3.084 0 00.7-2.173v-.746h-2.976v-1.767h5.139v2.06a5.049 5.049 0 01-1.256 3.873m12.281 1.455l-3.061-5.735h-2.702v5.754h-2.163v-13.68h5.489c2.701 0 4.421 1.663 4.421 3.987a3.63 3.63 0 01-2.834 3.628l3.278 6.036-2.428.01zm-2.494-11.79h-3.203v4.27h3.203a2.16 2.16 0 002.438-2.135 2.15 2.15 0 00-1.531-2.062 2.141 2.141 0 00-.907-.073zm16.117 10.439a5.304 5.304 0 01-3.779 1.455 5.244 5.244 0 01-3.779-1.455c-1.398-1.342-1.379-2.834-1.379-5.489s0-4.138 1.379-5.479a5.174 5.174 0 013.779-1.455 5.258 5.258 0 013.779 1.455c1.398 1.341 1.36 2.834 1.36 5.479s0 4.147-1.36 5.489zm-1.644-9.721a3.07 3.07 0 00-4.242 0c-.708.727-.841 1.492-.841 4.232s.133 3.514.841 4.242a3.1 3.1 0 004.242 0c.699-.728.841-1.493.841-4.242 0-2.749-.142-3.505-.841-4.232zm11.091 11.176c-2.9 0-5.101-1.89-5.101-4.724v-9.041h2.154v8.956a2.954 2.954 0 002.952 2.79 2.957 2.957 0 002.952-2.79v-8.956h2.163v9.051c0 2.834-2.22 4.723-5.12 4.723m14.086-5.479h-3.24v5.366h-2.164v-13.661h5.404c2.787 0 4.572 1.767 4.572 4.138s-1.785 4.147-4.572 4.147m-.113-6.424h-3.127v4.544h3.127a2.277 2.277 0 001.778-.568 2.292 2.292 0 00.762-1.704 2.29 2.29 0 00-1.591-2.178 2.294 2.294 0 00-.949-.094zM386.571 62.123a4.332 4.332 0 00-3.071-1.275 4.024 4.024 0 00-2.834 1.19 3.947 3.947 0 00-1.143 2.835 4.303 4.303 0 001.266 3.06l1.521 1.522 5.81-5.83-1.549-1.502zM401.96 67.84a4.258 4.258 0 001.266-3.024 4.14 4.14 0 00-1.144-2.834 3.939 3.939 0 00-2.834-1.143 4.3 4.3 0 00-3.127 1.285l-1.53 1.53 5.782 5.782 1.587-1.597zM391.342 66.856l-5.82 5.83 5.801 5.79 5.81-5.828-5.791-5.792zM396.207 83.361a4.27 4.27 0 003.061 1.266 4.137 4.137 0 002.834-1.143 4.717 4.717 0 001.105-2.938 4.305 4.305 0 00-1.247-3.06l-1.615-1.616-5.82 5.82 1.682 1.671zM380.723 77.485a4.284 4.284 0 00-1.266 3.06 3.906 3.906 0 001.145 2.862 3.904 3.904 0 002.861 1.145 4.322 4.322 0 003.061-1.267l1.596-1.605-5.791-5.801-1.606 1.606z"/><path d="M409.442 54.566a25.63 25.63 0 00-36.249.019 25.637 25.637 0 00-7.498 18.128 25.633 25.633 0 1043.747-18.147zm-4.128 32.12a8.57 8.57 0 01-6.084 2.495 8.76 8.76 0 01-6.292-2.617l-1.615-1.616-1.644 1.559a8.721 8.721 0 01-6.283 2.617 8.504 8.504 0 01-8.502-8.578 8.755 8.755 0 012.617-6.292l1.606-1.616-1.569-1.568a8.757 8.757 0 01-2.616-6.292 8.513 8.513 0 012.49-6.088 8.498 8.498 0 016.088-2.49 8.818 8.818 0 016.292 2.617l1.558 1.55 1.55-1.55a8.868 8.868 0 016.292-2.617 8.5 8.5 0 016.084 2.494 8.638 8.638 0 012.494 6.084 8.893 8.893 0 01-2.617 6.292l-1.55 1.55 1.635 1.634a8.797 8.797 0 012.607 6.292 8.943 8.943 0 01-2.532 6.084M206.496 86.234c0 6.027-1.536 10.672-4.61 13.934-3.073 3.263-7.236 4.894-12.489 4.894-5.284 0-9.444-1.631-12.48-4.894-3.036-3.262-4.572-7.907-4.61-13.934V48.218h-10.25v37.647c0 9.19 2.519 16.3 7.557 21.332 5.146 4.982 11.74 7.466 19.783 7.454 8.043-.013 14.627-2.532 19.754-7.558 5.095-5.039 7.643-12.12 7.643-21.247V48.218h-10.298v38.016zM268.461 80.073a62.593 62.593 0 00-11.932-4.837l-7.454-2.144-1.889-.652a55.717 55.717 0 01-2.334-.888 8.95 8.95 0 01-1.577-.794c-2.538-1.8-3.807-3.753-3.807-5.857a6.942 6.942 0 013.401-6.008c2.267-1.518 5.577-2.28 9.929-2.287a39.313 39.313 0 0120.68 6.056v-10.25a39.89 39.89 0 00-20.86-5.404c-7.262 0-13.024 1.615-17.288 4.846a15.439 15.439 0 00-6.377 12.953c0 5.964 2.236 10.341 6.707 13.131a45.016 45.016 0 006.519 3.269c2.116.803 4.941 1.71 8.502 2.702l1.304.368a61.345 61.345 0 018.947 3.08 11.73 11.73 0 013.353 1.956 7.752 7.752 0 012.891 6.056c0 2.985-1.417 5.337-4.241 7.075-2.825 1.739-6.462 2.617-10.874 2.617a37.87 37.87 0 01-13.415-2.522 35.246 35.246 0 01-10.515-5.961v11.091c6.392 4.66 14.561 6.991 24.506 6.991 7.142 0 13.106-1.742 17.893-5.225a16.681 16.681 0 007.152-14.246c-.366-6.928-3.439-11.967-9.221-15.116zM340.289 75.803H338.4l-15.796.019v10.25h15.767v8.266a9.782 9.782 0 01-6.273 9.155 26.333 26.333 0 01-9.447 1.587 23.215 23.215 0 01-16.684-6.613c-.283-.284-.529-.586-.793-.879a22.995 22.995 0 01-5.763-13.641 30.23 30.23 0 01-.151-2.995c0-7.073 2.298-12.912 6.896-17.515 4.598-4.604 10.436-6.872 17.515-6.802a33.66 33.66 0 0119.471 6.15V52.6c-5.46-3.729-12.168-5.593-20.123-5.593-9.869 0-18.038 3.2-24.506 9.598-6.468 6.4-9.727 14.473-9.778 24.223 0 8.1 2.23 15.062 6.689 20.888a34.961 34.961 0 002.995 3.439 33.389 33.389 0 008.644 6.093 35.174 35.174 0 0015.588 3.401 36.985 36.985 0 0014.955-3.032l.841-.378a17.603 17.603 0 0010.193-15.957v-19.48h-8.351z"/></svg>