<?xml version="1.0" encoding="utf-8"?><svg width="579" height="196" xmlns="http://www.w3.org/2000/svg" viewBox="0 0 579 196"><path d="M237.15 78.362h9.277v27.718c0 9.153 5.397 14.644 12.483 14.644 7.162 0 12.479-5.491 12.479-14.644V78.362h9.279v29.709c0 11.536-8.534 21.394-21.758 21.394-13.226 0-21.76-9.858-21.76-21.394V78.362zM332.17 128.388V78.36h-9.177v31.215L296.06 78.36h-5.012v49.943h9.176V97.221l26.874 31.167h5.072zM352.672 78.362h-9.525v49.943h9.525V78.362z"/><path fill-rule="evenodd" clip-rule="evenodd" d="M413.771 103.331c0-14.68-11.854-26.577-26.48-26.577-14.622 0-26.478 11.896-26.478 26.577 0 14.674 11.856 26.578 26.478 26.578a26.28 26.28 0 0014.986-4.671l4.32 4.378 6.037-6.12-4.159-4.219a26.535 26.535 0 005.296-15.946zm-26.48 18.232c-9.494 0-17.195-8.164-17.195-18.232 0-10.075 7.701-18.237 17.195-18.237 9.497 0 17.196 8.162 17.196 18.237 0 3.44-.901 6.659-2.463 9.406l-5.694-5.771-6.039 6.117 5.82 5.902a16.386 16.386 0 01-8.82 2.578z"/><path d="M452.836 128.303h10.163L442.01 78.36h-6.392l-21.539 49.943h9.888l3.877-9.406h21.237l3.755 9.406zm-21.61-17.619l7.402-17.962 7.172 17.962h-14.574zM150.709 127.58H117l3.865-6.978h19.8a39.744 39.744 0 002.708 2.318c2.219 1.73 4.681 3.351 7.336 4.66zM158.129 76.925c-1.089.926-8.052 14.65.513 26.724 2.416 3.406 5.944 7.556 10.08 9.988 4.301 2.532 7.177 3.173 9.022 3.681 3.249.895 8.281 1.265 14.763 1.62 5.25.29 15.999.351 17.875.346l2.002.01 4.601 8.886s-15.616.071-22.876-.327c-8.164-.446-14.507-.914-18.599-2.041-2.323-.639-5.943-1.45-11.364-4.636-5.209-3.063-10.549-8.424-13.323-12.898-6.683-10.79-5.006-18.034-4.127-21.59 1.907-2.678 4.369-5.25 7.027-7.16 1.925-1.406 3.128-1.957 4.406-2.603z"/><path d="M168.946 127.023a29.852 29.852 0 01-5.724.558c-6.603-.011-12.821-3.149-17.956-7.153-6.16-4.807-10.663-11.491-11.804-18.768-.166-.848-.241-1.706-.364-2.908-.457-4.984.249-11.252 3.698-17.245 2.984-5.183 7.43-9.674 14.756-12.78 3.057-1.296 9.62-2.756 17.219-.707 7.985 2.23 14.964 7.251 19.451 13.845 0 0-6.885-9.072-18.666-10.113a22.49 22.49 0 00-1.6-.082c-5.819-.118-11.385 1.912-16.022 5.29a29.913 29.913 0 00-7.585 7.913c-.111.171-.467.703-.938 1.55l-.141.254c-.099.181-.202.375-.306.582-1.429 2.773-3.426 7.737-3.506 14.008-.101 8.075 3.471 13.897 4.81 15.86.034.052 3.357 2.327 8.387 3.299 2.039.392 3.959.461 5.598.415a35.192 35.192 0 004.342 3.048c2.443 1.437 4.548 2.42 6.351 3.134z"/><path d="M181.787 79.722c4.343 2.615 10.597 10.816 10.884 18.271.462 7.117-3.062 14.065-5.413 17.463-3.809-.279-6.697-.623-8.7-1.175-.623-.171-1.371-.357-2.261-.637 2.495-2.329 6.206-6.716 8.089-13.454 2.599-9.403.034-15.792-2.599-20.468z"/></svg>