<?xml version="1.0" encoding="utf-8"?><svg width="579" height="196" xmlns="http://www.w3.org/2000/svg" viewBox="0 0 579 196"><path d="M237.374 94.377v6.661h-12.331c.449 3.526 1.496 6.114 3.146 7.761 1.651 1.652 3.652 2.48 5.993 2.48 2.402 0 4.394-.717 5.971-2.157 1.571-1.441 2.534-3.514 2.89-6.213l7.982 2.48c-.907 3.944-2.751 7.042-5.533 9.309-2.77 2.259-6.376 3.394-10.809 3.404-4.547-.01-8.125-1.081-10.75-3.239-2.623-2.157-4.495-4.638-5.624-7.457-1.128-2.817-1.686-5.991-1.686-9.507 0-6.182 1.612-11.163 4.851-14.953 3.24-3.78 7.697-5.68 13.366-5.69 4.387.01 7.947 1.056 10.7 3.139 2.742 2.082 4.532 4.907 5.377 8.478l-7.874 1.817c-.567-2.085-1.623-3.698-3.166-4.836-1.532-1.147-3.283-1.714-5.246-1.714-2.817 0-5.047.972-6.678 2.917-1.633 1.944-2.606 4.383-2.91 7.32h12.331zm127.891-16.404h7.978v39.412h-7.978V77.973zm13.914 39.412V77.973h7.982v15.522h15.525V77.973h7.98v39.412h-7.98v-17.227h-15.525v17.227h-7.982zm61.109-14.53l7.711 2.367c-1.186 4.338-3.16 7.56-5.911 9.672-2.751 2.1-6.238 3.156-10.468 3.156-5.236 0-9.541-1.792-12.914-5.369-3.371-3.576-5.057-8.47-5.057-14.681 0-6.56 1.695-11.657 5.082-15.29 3.385-3.635 7.842-5.454 13.368-5.454 4.828 0 8.741 1.432 11.752 4.286 1.798 1.687 3.139 4.109 4.038 7.276l-7.874 1.872c-.467-2.038-1.438-3.654-2.918-4.836-1.488-1.183-3.285-1.77-5.391-1.77-2.93 0-5.307 1.048-7.122 3.146-1.825 2.092-2.734 5.488-2.734 10.183 0 4.975.901 8.526 2.689 10.636 1.796 2.118 4.129 3.173 7 3.173 2.118 0 3.946-.67 5.467-2.018 1.525-1.351 2.623-3.461 3.282-6.349zM254.685 77.973h15.761c3.13 0 5.451.13 6.982.386 1.473.241 2.878.794 4.121 1.621a10.193 10.193 0 013.026 3.288c.806 1.368 1.211 2.908 1.211 4.605a9.174 9.174 0 01-1.484 5.066 9.206 9.206 0 01-4.04 3.455c2.395.707 4.23 1.898 5.524 3.59 1.284 1.689 1.925 3.671 1.925 5.955 0 1.798-.412 3.54-1.247 5.239-.833 1.697-1.972 3.051-3.422 4.07-1.441 1.01-3.22 1.632-5.339 1.872-1.319.139-4.524.228-9.598.265h-13.42V77.973zm7.982 6.55v9.087h5.211c3.093 0 5.018-.05 5.77-.142 1.36-.157 2.433-.624 3.212-1.4.779-.783 1.165-1.802 1.165-3.067 0-1.22-.339-2.201-1.01-2.965-.668-.759-1.67-1.22-2.991-1.375-.789-.091-3.053-.138-6.789-.138h-4.568zm0 15.635v10.568h7.376c2.863 0 4.69-.083 5.461-.238 1.182-.223 2.147-.742 2.889-1.579.744-.846 1.119-1.953 1.119-3.357 0-1.194-.284-2.192-.862-3.019-.569-.825-1.404-1.43-2.487-1.809-1.081-.372-3.441-.566-7.064-.566h-6.432zm28.466 17.227V77.973h12.765c4.832 0 7.98.196 9.449.587 2.255.599 4.146 1.881 5.669 3.861 1.524 1.984 2.284 4.545 2.284 7.678 0 2.424-.442 4.452-1.31 6.103-.881 1.65-1.995 2.945-3.34 3.89-1.35.938-2.726 1.562-4.121 1.864-1.898.374-4.642.568-8.237.568h-5.177v14.861h-7.982zm7.982-32.75v11.23h4.34c3.13 0 5.211-.213 6.267-.626 1.054-.415 1.879-1.056 2.478-1.945.597-.88.897-1.899.897-3.075 0-1.44-.42-2.623-1.253-3.557a5.513 5.513 0 00-3.193-1.763c-.95-.172-2.848-.263-5.708-.263h-3.828zm24.157 13.283c0-4.016.605-7.393 1.808-10.128a18.427 18.427 0 013.667-5.411c1.552-1.599 3.251-2.782 5.094-3.56 2.46-1.038 5.293-1.563 8.507-1.563 5.816 0 10.458 1.81 13.953 5.413 3.485 3.615 5.227 8.635 5.227 15.065 0 6.378-1.734 11.371-5.191 14.967-3.46 3.603-8.092 5.401-13.883 5.401-5.862 0-10.529-1.788-13.988-5.374-3.462-3.579-5.194-8.517-5.194-14.81zm8.201-.267c0 4.468 1.037 7.854 3.102 10.167 2.063 2.304 4.688 3.461 7.862 3.461 3.183 0 5.791-1.145 7.835-3.435 2.038-2.292 3.057-5.725 3.057-10.301 0-4.522-.992-7.9-2.982-10.121-1.984-2.228-4.615-3.338-7.91-3.338-3.284 0-5.936 1.129-7.945 3.376-2.01 2.257-3.019 5.652-3.019 10.191z"/><path fill-rule="evenodd" clip-rule="evenodd" d="M155.2 142.678V115.68h43.864l-.666 1.477-.715 1.451-.787 1.43-.829 1.377-.858 1.356-.926 1.308-.977 1.306-1.001 1.238-1.044 1.214-1.093 1.165-1.141 1.143-1.168 1.095-1.213 1.044-1.26 1.025-1.284.949-1.312.928-1.354.858-1.379.833-1.428.783-1.451.715-1.473.693-1.499.613-1.546.575-1.546.5-1.573.449-1.616.401-1.618.361-1.639.283-1.668.217-1.689.166-1.711.093-1.713.024h-.691l-.665-.024-.664-.021-.667-.027zm-33.707-28.828h3.854l1.189-3.683 1.167 3.683h3.877l-3.12 2.26 1.19 3.685-3.114-2.259-3.117 2.259 1.165-3.685-3.091-2.26zm-4.471-18.103h3.755l1.143-3.567 1.168 3.567h3.733l-3.02 2.214 1.141 3.569-3.022-2.215-3.019 2.215 1.141-3.569-3.02-2.214zm5.231-18.98h3.807l1.116-3.998 1.24 3.997h3.853l-3.115 2.282 1.188 3.64-3.116-2.26-3.069 2.26 1.165-3.64-3.069-2.282zm13.629-13.01h3.738l1.143-3.571 1.139 3.57h3.756l-3.041 2.21 1.162 3.545-3.016-2.19-3.025 2.19 1.167-3.546-3.023-2.208zm-.213 62.986h3.807l1.19-3.662 1.164 3.662h3.805l-3.069 2.238 1.169 3.657-3.069-2.255-3.096 2.255 1.168-3.657-3.069-2.238zm65.465-16.84l-45.934-.027.023-.07-.023-26.428h45.149l.283.855.286.858.239.88.238.883.211.88.192.9.19.905.167.903.143.905.116.928.099.903.095.95.072.929.044.926.027.955.023.95-.023.784v.763l-.048.787-.049.759-.046.764-.072.761-.095.76-.095.761-.097.74-.141.734-.12.762-.143.736-.167.715-.165.738-.19.713-.189.738zm-3.189-32.21H155.2V53.096l.667-.048.664-.022.665-.027h.691l1.639.027 1.597.093 1.617.144 1.568.188 1.571.263 1.548.31 1.544.357 1.501.428 1.475.451 1.472.523 1.451.572 1.407.593 1.401.67 1.358.71 1.329.74 1.309.784 1.285.833 1.261.881 1.211.926 1.192.954 1.143.997 1.117 1.046 1.091 1.07 1.048 1.095 1.002 1.143.974 1.187.925 1.192.881 1.259.858 1.261.808 1.308.76 1.335.715 1.352zm-47.908-24.001v88.37l-1.951-.384-1.926-.473-1.881-.571-1.854-.62-1.806-.738-1.784-.783-1.74-.856-1.689-.95-1.662-.997-1.593-1.076-1.548-1.143-1.501-1.21-1.45-1.26-1.402-1.333-1.333-1.381-1.259-1.449-1.213-1.477-1.168-1.542-1.07-1.598-1.025-1.637-.947-1.689-.882-1.738-.784-1.787-.737-1.803-.643-1.854-.571-1.882-.475-1.925-.405-1.953-.331-1.974-.219-2-.142-2.046-.046-2.046.046-2.045.142-2.042.219-2.002.331-2 .405-1.948.475-1.9.571-1.907.643-1.83.737-1.83.784-1.76.882-1.739.947-1.69 1.025-1.64 1.07-1.595 1.168-1.544 1.213-1.5 1.259-1.425 1.333-1.405 1.402-1.31 1.45-1.282 1.501-1.188 1.548-1.145 1.593-1.094 1.662-.998 1.689-.93 1.74-.877 1.784-.787 1.806-.711 1.854-.641 1.881-.572 1.926-.476 1.951-.382z"/><path d="M228.458 141.762c-.616.317-1.98.639-3.704.639-4.557 0-7.323-2.854-7.323-7.219 0-4.727 3.278-7.581 7.664-7.581 1.724 0 2.958.361 3.491.64l-.573 2.086a6.944 6.944 0 00-2.811-.554c-2.92 0-5.026 1.829-5.026 5.279 0 3.153 1.854 5.177 5.004 5.177 1.064 0 2.172-.211 2.854-.533l.424 2.066zM243.301 130.028h-4.086v-2.191h10.834v2.191h-4.127v12.157h-2.621v-12.157zM263.64 134.714c.32.087.746.107 1.277.107 1.958 0 3.152-.957 3.152-2.639 0-1.597-1.108-2.451-2.916-2.451a7.115 7.115 0 00-1.513.132v4.851zm-2.598-6.686c.94-.17 2.236-.298 4.005-.298 1.914 0 3.32.405 4.235 1.172.854.699 1.406 1.831 1.406 3.175 0 1.362-.426 2.49-1.236 3.253-1.042 1.044-2.683 1.533-4.535 1.533-.49 0-.936-.018-1.277-.084v5.408h-2.598v-14.159zM287.72 136.14l-1.128-3.534c-.277-.874-.513-1.854-.722-2.683h-.045c-.213.829-.424 1.831-.682 2.683l-1.106 3.534h3.683zm-4.109 1.982l-1.235 4.065h-2.702l4.599-14.349h3.34l4.665 14.349h-2.813l-1.298-4.065h-4.556zM311.268 142.187l-1.556-2.85a53.285 53.285 0 01-1.424-2.705h-.064c-.393.92-.827 1.823-1.3 2.705l-1.428 2.85h-2.999l4.257-7.258-4.086-7.091h2.999l1.553 2.959c.471.893.812 1.596 1.194 2.406h.044c.382-.897.678-1.533 1.128-2.406l1.532-2.959h3.003l-4.196 7.004 4.367 7.345h-3.024zM327.283 127.837l2.429 5.535c.382.936.68 1.79 1.021 2.639h.064c.213-.659.467-1.575.808-2.703l1.873-5.471h2.769l-2.831 7.151c-.831 2.091-1.747 4.262-2.768 5.601-.936 1.174-2.063 1.831-3.577 1.831-.62 0-.999-.064-1.342-.188l.215-2.112c.211.068.49.087.893.087 1.213 0 1.982-1.023 2.342-1.832.128-.299.084-.49-.064-.768l-4.791-9.77h2.959zM349.565 140.289c.46.05.922.071 1.385.064 1.68 0 3.174-.636 3.174-2.407 0-1.656-1.452-2.342-3.261-2.342h-1.298v4.685zm0-6.599h1.341c1.811 0 2.83-.853 2.83-2.067 0-1.343-1.019-1.955-2.679-1.955-.77 0-1.215.041-1.492.104v3.918zm-2.596-5.665c.829-.171 2.342-.295 3.811-.295 1.937 0 3.128.235 4.109.915.893.531 1.49 1.465 1.49 2.679 0 1.322-.832 2.536-2.383 3.112v.04c1.509.382 2.894 1.577 2.894 3.557 0 1.275-.552 2.279-1.385 2.959-1.021.897-2.705 1.344-5.324 1.344-1.447 0-2.554-.106-3.212-.193v-14.118zM375.524 136.14l-1.129-3.534c-.275-.874-.51-1.854-.723-2.683h-.044c-.211.829-.425 1.831-.68 2.683l-1.107 3.534h3.683zm-4.109 1.982l-1.234 4.065h-2.704l4.599-14.349h3.342l4.667 14.349h-2.817l-1.298-4.065h-4.555zM394.006 127.837v5.748h6.07v-5.748h2.615v14.348h-2.615v-6.322h-6.07v6.322h-2.621v-14.348h2.621zM417.62 127.837v5.748h6.07v-5.748h2.62v14.348h-2.62v-6.322h-6.07v6.322h-2.617v-14.348h2.617zM445.248 129.857a7.073 7.073 0 00-1.536-.147c-1.573 0-2.894.616-2.894 2.319 0 1.513 1.338 2.343 3.064 2.343.514 0 1.025 0 1.366-.041v-4.474zm-7.9 12.328c.255-.422.469-.934.658-1.468.597-1.638.957-3.47 2.089-4.579a3.1 3.1 0 011.191-.722v-.064c-1.679-.298-3.088-1.492-3.088-3.513 0-1.296.552-2.322 1.409-3.003.997-.788 2.596-1.106 4.427-1.106 1.404 0 2.811.126 3.81.297v14.158h-2.596v-5.895h-1.067c-.746 0-1.318.189-1.767.618-.938.937-1.321 2.871-1.786 4.15a6.167 6.167 0 01-.492 1.127h-2.788z"/></svg>