<?xml version="1.0" encoding="utf-8"?><svg width="379" height="100" xmlns="http://www.w3.org/2000/svg" viewBox="0 0 379 100"><path d="M253.14 22.283c2.265-.315 4.649.012 6.708 1.024 1.09.536 2.125 1.257 2.923 2.181l.224.263-.227.26c-.829.948-1.644 1.914-2.458 2.876l-.281.332-.306-.309c-.78-.78-1.728-1.557-2.816-1.834-2.12-.54-4.726-.337-6.299 1.347a3.02 3.02 0 00-.625 3.01c.251.701.897 1.198 1.529 1.542 1.551.848 3.377 1.096 5.055 1.602 1.927.582 3.852 1.286 5.45 2.544 1.232.97 2.191 2.313 2.55 3.85.589 2.52-.058 5.296-1.723 7.282-1.31 1.562-3.144 2.632-5.094 3.18-3.107.869-6.552.367-9.313-1.288-1.065-.638-2.11-1.498-2.906-2.454l-.218-.262.225-.258c.877-.998 1.737-2.017 2.595-3.032l.348-.412.355.549c1.915 2.75 6.342 3.761 9.256 2.1 1.125-.64 2.019-1.824 2.061-3.17.082-.96-.33-1.945-1.09-2.54-1.26-.991-2.937-1.312-4.412-1.79-2.466-.531-4.934-1.331-6.904-2.96-1.355-1.119-2.306-2.734-2.491-4.485-.234-1.88.258-3.843 1.378-5.366 1.496-2.123 3.963-3.426 6.506-3.782zm117.112 23.302c-4.375-.046-8.75.003-13.125-.024-.862 1.93-1.682 3.89-2.514 5.832l-.102.242h-4.98l.241-.558c3.927-9.104 7.857-18.207 11.787-27.299.338-.844 1.201-1.416 2.096-1.388.926-.035 1.8.582 2.129 1.443 3.93 9.084 7.865 18.16 11.793 27.244l.241.558h-4.966l-.104-.24c-.835-1.93-1.691-3.866-2.496-5.81zm-28.231-2.763V22.39h4.617v26.886c.064 1.042-.656 2.082-1.686 2.302-.784.202-1.676-.039-2.194-.677-5.362-6.602-10.729-13.199-16.097-19.797L326.66 51.7h-4.638v-.4c0-8.811-.002-17.621.002-26.42-.08-1.31 1.138-2.522 2.452-2.422.712.024 1.346.417 1.784.96 5.248 6.47 10.504 12.937 15.761 19.403zm-40.062 4.121c4.947.01 9.893.01 14.841.024l.398.001v4.609h-.4c-5.529.005-11.059.005-16.588.002-.542 0-1.042.05-1.54-.195a2.275 2.275 0 01-1.35-2.166c.002-8.834-.003-17.664 0-26.498v-.399h4.639v24.622zm-15.034-1.358c-4.374-.046-8.751.003-13.125-.024-.862 1.93-1.681 3.89-2.513 5.832l-.102.242h-4.982l.241-.558c3.929-9.103 7.858-18.207 11.789-27.299.338-.844 1.193-1.416 2.09-1.388.939-.035 1.805.582 2.135 1.443 3.93 9.084 7.865 18.16 11.793 27.244l.241.558h-4.966l-.104-.24c-.835-1.93-1.694-3.866-2.497-5.81zm-45.034 6.052h-5.674l-5.464-8.441-6.554.001c-.009 2.68.003 5.36.001 8.04v.4h-4.64v-.4c.003-8.86.006-17.72.005-26.581 0-1.225 1.088-2.289 2.303-2.262 2.742-.01 5.483-.005 8.225-.004a11.255 11.255 0 017.381 2.805c3.259 2.889 4.345 7.91 2.555 11.882-.892 1.978-2.454 3.62-4.336 4.682l6.198 9.878zM198.18 27.024c-.003 2.434-.001 4.865-.001 7.298 3.52.004 7.041-.003 10.561.004h.4l.003 4.602-.388.011c-.062.002-.123 0-.173-.002h-10.403c-.002 2.668-.002 5.337 0 8.005 5.219.001 10.44.003 15.659 0h.4v4.636h-.4c-6.004.002-12.008.002-18.003-.001-1.268.032-2.362-1.11-2.292-2.36-.002-8.183-.007-16.36.001-24.535-.025-1.234 1.081-2.285 2.3-2.287 5.998-.006 11.997-.002 17.994-.005h.4v4.632h-.4c-5.219.004-10.438 0-15.658.002zM176.807 43.51c3.003-6.982 6.013-13.961 9.017-20.944l.104-.242h4.98l-.239.557c-3.9 9.096-7.834 18.179-11.735 27.264-.405 1.014-1.572 1.638-2.631 1.378-.775-.16-1.381-.76-1.688-1.474-3.878-9.063-7.794-18.11-11.683-27.168l-.239-.557h4.985l.104.242c3.003 6.985 6.023 13.96 9.025 20.944zm-16.873-20.786c.01 9.503.003 19.007 0 28.51v.4h-4.633v-.4c-.008-9.503-.004-19.007-.002-28.51v-.4h4.635v.4zm-15.907 20.03v-20.43h4.619v26.884c.062 1.042-.658 2.083-1.687 2.303-.785.201-1.677-.04-2.194-.677-5.363-6.603-10.73-13.2-16.097-19.798v20.597h-4.638v-.399c-.002-8.812-.002-17.622.001-26.422-.082-1.307 1.138-2.52 2.451-2.42.713.024 1.345.415 1.786.959 5.249 6.471 10.503 12.938 15.759 19.403zm-47.279-20.03c.005 5.439-.005 10.877.005 16.316.003 1.586.539 3.145 1.444 4.444 1.527 2.188 4.096 3.629 6.769 3.737 1.502.062 3.027-.271 4.345-1 2.096-1.158 3.627-3.269 4.098-5.614.201-1.003.165-2.044.165-3.06V22.323h4.64v16.427c0 1.31-.159 2.626-.53 3.885-.997 3.372-3.445 6.247-6.578 7.833-2.741 1.386-5.978 1.73-8.954.99a13.5 13.5 0 01-7.732-5.299 12.784 12.784 0 01-2.32-6.955v-16.88h4.648v.399zm262.242 18.23c3.11.002 6.221 0 9.333 0a8898.04 8898.04 0 00-4.636-11.009c-1.576 3.666-3.132 7.339-4.697 11.01zm-83.326 0c3.11.002 6.221 0 9.333 0-1.545-3.67-3.088-7.34-4.638-11.009-1.575 3.666-3.13 7.339-4.695 11.01zM224.2 27.024c-.002 3.853-.004 7.704.002 11.557 1.713-.002 3.429-.002 5.15-.002.958.019 1.944-.023 2.865-.34 1.793-.576 3.335-2.024 3.835-3.863.445-1.635.093-3.45-.911-4.823-1.098-1.559-2.985-2.509-4.889-2.522-2.016-.014-4.035-.005-6.052-.007z"/><path fill-rule="evenodd" clip-rule="evenodd" d="M39.895.267V19.44c.005.09.012.181.015.272l.012.266v25.536c0 12.25-9.33 22.764-20.99 25.14-.218.063-.437.124-.657.182a36.018 36.018 0 0012.66 2.289 36.123 36.123 0 0032.948-21.303 35.863 35.863 0 002.347-7.147c.54-2.5.81-5.052.81-7.61l.001-16.52c0-9.97-8.068-20.278-18.532-20.278h-8.614z"/><path fill-rule="evenodd" clip-rule="evenodd" d="M27.537 45.848l.001-25.995C27.111 9.926 19.676.5 9.29.27H.42v43.91c0 17.834 23.794 20.06 26.973 2.643.06-.323.107-.648.144-.974z"/><path d="M160.289 86.45h-5.093l-1.457 4.018h-2.548l5.318-13.885h2.346l5.653 13.885h-2.697l-1.522-4.018zm102.75 12.947v-2.22H177.51v2.22h85.529zm0-31.836v2.22H177.51v-2.22h85.529zm-44.024 16.897l3.19 6.052h-2.814l-2.912-5.7c-.305.01-.607.011-.906.011h-2.405v5.647h-2.408V76.583h6.185c.346 0 .692.006 1.038.02.325.015.652.05.97.118.302.066.599.158.883.28a3.572 3.572 0 011.83 1.923c.217.537.329 1.1.329 1.679 0 .472-.068.98-.224 1.425-.147.42-.363.804-.651 1.144-.288.34-.635.615-1.024.833a5.35 5.35 0 01-1.081.453zm-39.098-5.655v3.448h6.229v2.22h-6.229v5.997h-2.407V76.583h9.584v2.22h-7.177zm17.846 7.647h-5.093l-1.458 4.018h-2.547l5.317-13.885h2.346l5.653 13.885h-2.696l-1.522-4.018zm9.007 4.018h-2.408V76.583h2.408v13.885zm21.242-11.665v3.448h6.229v2.22h-6.229v5.997h-2.407V76.583h9.585v2.22h-7.178zm17.192 7.647h-5.093l-1.458 4.018h-2.548l5.318-13.885h2.346l5.653 13.885h-2.696l-1.522-4.018zm11.379-1.354l-3.746 5.372h-2.978l5.318-7.309-4.827-6.576h2.96l3.261 4.64 3.268-4.64h2.983l-4.848 6.576 5.339 7.31h-2.959l-3.771-5.373zm31.297-3.84h-2.461l-.02-.305a2.33 2.33 0 00-.286-.996 2.46 2.46 0 00-.675-.764 3.141 3.141 0 00-1.01-.497 4.453 4.453 0 00-1.275-.179c-.574 0-1.145.091-1.673.323a3.438 3.438 0 00-1.26.939c-.383.452-.641.99-.814 1.554-.216.704-.294 1.454-.294 2.188 0 .731.077 1.48.294 2.18.175.564.43 1.105.807 1.563.339.412.752.729 1.241.945.525.234 1.086.33 1.658.33.824 0 1.663-.165 2.325-.683.622-.486.897-1.169.962-1.944l.025-.3h2.452l-.031.356c-.061.698-.232 1.38-.563 2a4.767 4.767 0 01-1.221 1.486 5.432 5.432 0 01-1.759.925 7.09 7.09 0 01-2.159.318c-.924 0-1.835-.15-2.688-.51a5.744 5.744 0 01-2.058-1.453 6.488 6.488 0 01-1.304-2.274c-.323-.945-.451-1.943-.451-2.94 0-.995.132-1.992.458-2.936.288-.837.713-1.612 1.307-2.272a5.802 5.802 0 012.053-1.46c.852-.364 1.76-.514 2.683-.514.713 0 1.419.098 2.098.319a5.672 5.672 0 011.761.922c.512.4.932.882 1.257 1.444.335.578.521 1.212.586 1.876l.035.359zm9.276-4.9c.915 0 1.813.16 2.657.518.806.34 1.517.828 2.115 1.464a6.702 6.702 0 011.382 2.268c.348.932.494 1.92.494 2.913 0 .985-.142 1.962-.484 2.889a6.726 6.726 0 01-1.373 2.276 6.212 6.212 0 01-2.115 1.487c-.85.365-1.753.524-2.676.524-.924 0-1.835-.156-2.689-.517a6.118 6.118 0 01-2.115-1.473 6.725 6.725 0 01-1.378-2.277c-.345-.933-.487-1.917-.487-2.91 0-.997.146-1.988.494-2.926a6.602 6.602 0 011.393-2.272 6.178 6.178 0 012.116-1.454c.847-.354 1.749-.51 2.666-.51zm20.646 4.535l-3.223 9.577h-2.041l-3.239-9.586v9.586h-2.304V76.583h3.201l3.355 10.3 3.375-10.3h3.201v13.885h-2.325v-9.577zm8.517 4.301v5.276h-2.407V76.583h5.277c.666 0 1.329.057 1.984.178a4.977 4.977 0 011.744.655c.521.326.935.763 1.236 1.3.348.62.457 1.352.457 2.055 0 1.284-.364 2.475-1.381 3.31-1.073.882-2.567 1.111-3.916 1.111h-2.994zm18.894 1.258h-5.093l-1.457 4.018h-2.548l5.318-13.885h2.345l5.654 13.885h-2.697l-1.522-4.018zm8.677-5.674v9.692h-2.304V76.583h2.304l6.441 9.696v-9.696h2.325v13.885h-2.304l-6.462-9.692zm18.763 3.85v5.842h-2.407v-5.841l-5.511-8.044h2.943l3.767 5.802 3.756-5.802h2.941l-5.489 8.043zm-213.131-.232l-1.846-4.854-1.758 4.854h3.604zm37.473 0l-1.845-4.854-1.758 4.854h3.603zm16.173-1.813h3.602c.66 0 1.62-.063 2.181-.453.77-.536.785-2.15.151-2.809-.458-.477-1.226-.618-2.071-.618h-3.863v3.88zm31.268 1.813l-1.846-4.854-1.758 4.854h3.604zm52.706 4.143c.585 0 1.154-.105 1.691-.34a3.737 3.737 0 001.325-.97c.401-.457.683-.995.878-1.567.234-.684.32-1.417.32-2.138 0-.725-.086-1.464-.326-2.152-.198-.569-.478-1.107-.879-1.561a3.597 3.597 0 00-1.306-.95 4.2 4.2 0 00-1.665-.324 4.28 4.28 0 00-1.693.335c-.515.22-.958.54-1.328.96-.399.453-.679.992-.878 1.56-.238.683-.325 1.412-.325 2.132 0 .722.085 1.453.316 2.14.192.57.472 1.11.871 1.564.368.42.807.745 1.317.971.533.237 1.1.34 1.682.34zm29.177-5.585h3.048c.678 0 1.648-.078 2.186-.542.471-.407.608-1.004.608-1.605 0-.338-.044-.726-.216-1.024a1.588 1.588 0 00-.577-.59 2.567 2.567 0 00-.9-.302 7.55 7.55 0 00-1.162-.086h-2.987v4.149zm18.127 1.442L342.6 79.54l-1.758 4.854h3.604z"/></svg>