<?xml version="1.0" encoding="utf-8"?><svg width="579" height="196" xmlns="http://www.w3.org/2000/svg" viewBox="0 0 579 196"><path d="M98 67.378c3.715.881 9.192-1.087 11.138 3.287 6.587 12.493 11.252 25.936 17.051 38.851 6.281-12.77 10.777-26.373 17.411-38.959 2.13-4.527 8.058-2.13 11.911-2.987-3.064 12.792-9.958 24.16-15.212 36.094-4.374 8.962-7.66 18.537-13.497 26.687-4.075-3.301-5.998-8.303-8.174-12.899A1617.973 1617.973 0 0098 73.361v-5.983zM161.847 68.49c2.796-1.946 7.951-1.563 8.809 2.198 1.792 12.838-1.019 26.044 1.471 38.783 3.194 12.118 22.689 12.746 26.947 1.11 3.195-12.884.115-26.358 1.762-39.418.613-5.914 10.939-4.596 10.303 1.264.452 11.413.345 22.872 0 34.309-.069 8.671-5.132 17.388-13.489 20.506-12.478 5.201-30.456 1.67-35.642-12.118-3.493-10.701-1.31-22.207-1.961-33.23.444-4.389-1.073-9.62 1.8-13.404zM236.317 66.43a23.99 23.99 0 0121.854 6.977c4.144 4.481-2.903 11.49-7.292 7.262-4.642-3.661-13.52-7.062-15.696.973 3.424 8.02 14.945 8.334 21.287 13.926 10.571 5.684 10.372 21.716 1.425 28.778-11.934 9.598-32.739 5.477-39.418-8.556-1.747-4.236 2.558-7.338 6.342-7.56 6.044 2.42 8.802 10.28 15.872 10.686 6.227 1.432 13.903-5.462 10.885-11.728-6.81-9.238-21.64-7.66-27.278-18.208-4.894-9.23 1.923-21.103 12.019-22.55zM274.899 79.52c10.004-15.09 33.283-18.115 46.849-6.135 8.648 6.68 11.819 17.817 11.819 28.342-3.332-1.448-6.618-3.064-9.851-4.75-3.286-7.499-6.725-16.484-15.32-19.25-11.574-4.802-25.546 3.532-27.782 15.627-3.371 13.467 9.498 27.799 23.309 25.462 7.384-.567 12.294-6.541 16.852-11.658a102.825 102.825 0 009.445 4.32c-7.783 16.063-29.231 23.103-44.727 13.933-16.117-8.334-21.486-31.337-10.594-45.89z"/><path d="M298.853 102.837c5.867-7.882 16.124-9.238 24.864-5.883 3.232 1.67 6.519 3.302 9.851 4.749 8.326 4.305 15.733-2.558 21.754-7.468.881 13.382-13.857 19.609-25.109 17.25a102.825 102.825 0 01-9.445-4.32c-6.45-4.642-14.194-5.615-21.915-4.328zM365.794 83.435c0-4.772 3.37-7.515 7.2-7.515a6.13 6.13 0 014.206 1.609l-1.64 2.183a3.544 3.544 0 00-2.389-1.05c-2.298 0-3.93 1.916-3.93 4.788 0 2.873 1.586 4.765 3.83 4.765a4.795 4.795 0 002.987-1.249l1.364 2.214a7.08 7.08 0 01-4.696 1.762c-3.922 0-6.932-2.766-6.932-7.507zM383.128 78.93h-4.52v-2.673h12.417v2.673h-4.519v11.666h-3.378V78.93zM393.938 76.257h2.803l.261 1.532h.091a6.982 6.982 0 014.298-1.87c3.6 0 5.66 2.873 5.66 7.3 0 4.903-2.941 7.738-6.128 7.738a5.744 5.744 0 01-3.699-1.57l.107 2.382v4.519h-3.378l-.015-20.031zm9.643 6.978c0-2.857-.934-4.55-3.132-4.55-1.042 0-2.023.521-3.133 1.609v6.68a4.494 4.494 0 002.88 1.202c1.907 0 3.385-1.693 3.385-4.94zM409.333 86.743c0-3.063 2.559-4.672 8.465-5.3-.046-1.532-.667-2.827-2.612-2.827a7.929 7.929 0 00-4.045 1.41L409.9 77.78a11.253 11.253 0 015.906-1.861c3.593 0 5.362 2.206 5.362 6.197v8.48h-2.765l-.215-1.594h-.092a6.969 6.969 0 01-4.504 1.938 4.019 4.019 0 01-3.986-2.547 4.046 4.046 0 01-.273-1.65zm8.465 0v-3.217c-3.907.49-5.202 1.532-5.202 2.957 0 1.264.866 1.823 2.069 1.823 1.202 0 2.068-.574 3.133-1.555v-.008zM428.054 83.12l-4.258-6.894h3.638l1.593 2.758c.414.766.874 1.624 1.31 2.413h.107c.368-.766.766-1.617 1.142-2.413l1.356-2.72h3.508l-4.259 7.24 4.558 7.1h-3.624l-1.754-2.842c-.475-.835-.957-1.716-1.455-2.535h-.115c-.429.82-.85 1.677-1.279 2.535l-1.532 2.842h-3.509l4.573-7.484zM437.729 83.435c0-4.773 3.256-7.53 6.841-7.53 3.585 0 6.84 2.757 6.84 7.53 0 4.772-3.255 7.506-6.84 7.506s-6.841-2.765-6.841-7.506zm10.219 0c0-2.873-1.272-4.788-3.378-4.788-2.107 0-3.401 1.915-3.401 4.788 0 2.872 1.294 4.741 3.401 4.741 2.106 0 3.378-1.869 3.378-4.741zM454.765 76.257h5.829c3.186 0 5.561.973 5.561 3.707a3.063 3.063 0 01-2.405 3.018v.1c1.7.414 2.972 1.402 2.972 3.4 0 2.896-2.536 4.114-5.829 4.114h-6.128v-14.34zm5.484 5.79c1.9 0 2.643-.666 2.643-1.746s-.766-1.761-2.543-1.761h-2.298v3.508h2.198zm.383 6.251c1.938 0 2.804-.766 2.804-2.045 0-1.141-.942-1.915-2.896-1.915h-2.474v3.96h2.566zM469.165 86.743c0-3.063 2.551-4.672 8.426-5.3-.046-1.532-.666-2.827-2.612-2.827a7.923 7.923 0 00-4.037 1.41l-1.248-2.245a11.297 11.297 0 015.944-1.861c3.6 0 5.362 2.206 5.362 6.197v8.48h-2.765l-.261-1.594h-.092a6.93 6.93 0 01-4.465 1.938 4.022 4.022 0 01-4.252-4.198zm8.426 0v-3.217c-3.899.49-5.201 1.532-5.201 2.957 0 1.264.866 1.823 2.076 1.823s2.091-.574 3.156-1.555l-.031-.008zM366.689 100.807h3.294v5.577h3.777l5.523 8.763h-3.616l-3.554-6.082h-2.099v6.082h-3.294l-.031-14.34zm4.765 6.894l1.884-4.205c1.103-2.474 2.298-3.064 4.075-3.064.336-.005.67.058.981.184l-.536 3.117a1.53 1.53 0 00-.506-.092c-.705 0-1.271.238-1.892 1.709l-1.248 2.903-2.758-.552zM380.057 107.985c0-4.772 3.171-7.53 6.672-7.53 3.5 0 6.671 2.758 6.671 7.53s-3.171 7.514-6.671 7.514c-3.501 0-6.672-2.757-6.672-7.514zm9.958 0c0-2.873-1.234-4.788-3.294-4.788-2.061 0-3.294 1.915-3.294 4.788 0 2.872 1.241 4.764 3.294 4.764s3.301-1.892 3.301-4.764h-.007zM396.671 100.807h3.769l2.252 5.791c.39 1.18.766 2.298 1.118 3.348h.115c.375-1.081.766-2.168 1.141-3.348l2.145-5.791h3.753v14.34h-2.949v-5.025c0-1.402.23-4.029.36-5.577h-.145c-.406 1.203-.942 2.566-1.341 3.708l-2.121 5.599h-1.9l-2.183-5.599c-.399-1.142-.935-2.543-1.333-3.708h-.115c.123 1.532.352 4.175.352 5.577v5.025h-2.91l-.008-14.34zM415.163 100.807h11.919v14.34h-3.294v-11.651h-5.362v11.651h-3.286l.023-14.34zM430.521 111.294c0-3.064 2.489-4.673 8.249-5.301-.046-1.532-.651-2.826-2.543-2.826a7.664 7.664 0 00-3.945 1.409l-1.21-2.244a10.815 10.815 0 015.76-1.9c3.509 0 5.232 2.206 5.232 6.197v8.518h-2.696l-.253-1.593h-.092a6.695 6.695 0 01-4.351 1.945 3.97 3.97 0 01-3.012-1.178 3.974 3.974 0 01-1.139-3.027zm8.249 0v-3.202c-3.83.483-5.071 1.532-5.071 2.949 0 1.272.843 1.823 2.023 1.823 1.179 0 2.007-.582 3.048-1.562v-.008zM446.024 100.807h3.287v5.485h5.591v-5.485h3.294v14.34h-3.294v-5.899h-5.591v5.899h-3.287v-14.34zM461.989 96.395a2.04 2.04 0 012.35-2.167 2.043 2.043 0 011.685 1.57 2.048 2.048 0 01-1.998 2.496 1.894 1.894 0 01-1.433-.505 1.905 1.905 0 01-.604-1.394zm.383 4.412h3.309v14.34h-3.286l-.023-14.34zM473.233 108.222l2.712.942-3.83 5.983h-3.684l4.802-6.925zm4.282 1.769h-2.068c-2.78 0-5.821-1.302-5.821-4.68 0-3.378 2.489-4.504 5.683-4.504h5.493v14.34h-3.287v-5.156zm0-2.298v-4.373h-1.746c-1.838 0-2.88.658-2.88 2.083 0 1.425 1.042 2.252 2.88 2.252l1.746.038z"/></svg>