<?xml version="1.0" encoding="utf-8"?><svg width="135" height="100" xmlns="http://www.w3.org/2000/svg" viewBox="0 0 135 100"><path d="M64.12 40.708V28.644c2.42-.095 4.795-.142 6.67 1.646 1.851 1.74 2.089 3.95 1.448 6.256-.641 2.328-2.398 3.48-4.677 3.88-.75.142-1.51.178-2.288.215-.38.018-.764.037-1.153.067zM38.79 45.46l-3.038-6.703-3.038 6.702h6.077zM46.77 77.45c0 .938-.754 1.099-1.441 1.099h-.888v-2.222h1.154c.576 0 1.175.344 1.175 1.123zM35.887 77.019l-.79 1.977h1.535l-.745-1.977zM56.112 78.996l.787-1.977.741 1.977h-1.528zM23.179 79.723l-1.152-2.954-1.179 2.954h2.33zM82 81.274c.357 0 1.744-.092 1.744-2.359 0-1.328-.546-2.359-1.744-2.359-1.597 0-1.744 1.74-1.744 2.36 0 .915.252 2.358 1.744 2.358zM94.84 78.858h1.51c.989 0 1.41-.414 1.41-1.196 0-.736-.47-1.057-1.41-1.057h-1.51v2.252zM101.522 76.743l.96 2.965h-1.92l.96-2.965z"/><path fill-rule="evenodd" clip-rule="evenodd" d="M134.332 0h-134v100h134V0zM75.3 44.307c.08-.063.138-.105.196-.147a6.27 6.27 0 00.089-.065c4.012-2.657 5.934-6.326 5.412-11.148-.356-3.292-1.756-6.044-4.368-8.137-2.92-2.328-6.338-3.245-10.017-3.316-3.394-.07-10.42 0-10.563.023v35.066h2.682v-32.69l7.169-.047c1.828.023 3.632.235 5.365.87 5.507 1.976 7.525 6.68 6.884 11.265-.428 3.105-2.232 5.339-4.938 6.891-.257.142-.523.275-.792.41-.178.089-.358.179-.537.272l8.76 12.818c.07.094.19.235.284.235.61.015 1.221.01 1.859.005.33-.003.666-.005 1.013-.005l-8.498-12.3zM19.54 56.63L35.965 21l16.45 35.607c-.233 0-.463.001-.691.003h-.002c-.676.004-1.333.008-1.99-.027-.118 0-.26-.258-.332-.423L35.894 26.597 22.46 56.16c-.166.353-.356.494-.76.47a30.84 30.84 0 00-1.384-.005c-.25.002-.507.005-.776.005zm97.323-.588l-10.349-17.05c-.189-.306-.189-.541 0-.847l9.922-16.627c-.298 0-.589.002-.873.005-.551.005-1.079.01-1.596-.005-.355 0-.546.117-.712.4l-9.756 16.274c-.165.282-.165.47 0 .753l10.468 17.262c.095.165.262.4.381.4.69.035 1.368.03 2.081.026.243-.001.49-.003.744-.003a6.692 6.692 0 00-.31-.588zM90.183 21.87l9.733 16.063c.19.283.166.494-.024.753l-.118.195-.007.01a11237.65 11237.65 0 00-10.486 17.316c-.19.306-.356.447-.712.423-.5-.015-1-.01-1.526-.005h-.003c-.273.003-.553.005-.845.005.119-.211.214-.376.309-.54L96.9 38.733c.19-.33.214-.564 0-.894l-9.922-16.368c.247 0 .49-.002.728-.003.701-.005 1.37-.01 2.025.026.166 0 .356.212.451.376zM68.037 42.52c.047-.047.07-.07.094-.07.05-.01.105-.024.162-.04.078-.02.16-.04.242-.054 2.469-.565 4.557-1.74 5.863-3.998 2.136-3.646 1.187-10.372-5.697-11.854-1.258-.258-2.492-.329-3.75-.329l-3.419.07c-.024 0-.047.024-.071.048v30.315h2.659V41.155L74.54 56.23c.095.142.285.377.428.377.925.023 1.828.023 2.848.023l-9.78-14.111zm-39.121 5.316l6.931-15.17 6.884 15.17H28.916zm72.661-7.15L91.893 56.63c.29 0 .57-.002.841-.005h.005c.527-.005 1.028-.01 1.527.005.356 0 .546-.094.712-.4l6.457-10.794 6.575 10.818c.095.165.309.353.451.376.655.035 1.324.031 2.025.027.239-.002.482-.003.729-.003l-9.638-15.97zm6.078-18.791c.19-.306.38-.447.76-.424.708.046 1.416.026 2.208.003l.094-.003-8.878 14.7-8.878-14.676c.26 0 .513-.002.76-.003a36.433 36.433 0 012.088.026c.12 0 .285.236.38.4l5.769 9.454 5.697-9.477zM46.672 56.466l-2.73-5.974c-.071-.141-.309-.259-.475-.259H28.18c-.166 0-.427.165-.522.33l-2.754 6.044c.275 0 .542-.003.803-.005.503-.006.983-.01 1.452.005.356.023.499-.118.641-.423l1.448-3.199c.143-.306.285-.423.641-.423h11.703c.38 0 .522.14.665.447l1.495 3.222c.071.14.237.329.356.329.855.023 1.71.023 2.564.023v-.117zM30.78 78.684h-1.23v-2.238h1.451c.837 0 .964.353 1.067.638.069.193.127.354.385.354h.246v-1.5c-.197.092-.468.115-.664.115H28v.139c0 .156.096.164.208.173.153.012.333.027.333.427v4.385c0 .4-.18.414-.333.427-.111.009-.208.017-.208.172v.162h2.092v-.162c0-.155-.097-.163-.208-.172-.153-.013-.334-.027-.334-.427v-2.124h1.23c.538 0 .605.189.663.355.046.13.087.245.346.245h.222v-1.546h-.172c-.27 0-.313.111-.36.236-.062.16-.132.341-.698.341zM40 81.938v-.16c0-.154.09-.163.196-.173.146-.015.322-.032.322-.446v-4.442c0-.408-.171-.423-.317-.436-.107-.009-.201-.017-.201-.183v-.16h2v.16c0 .153-.09.163-.196.173-.146.015-.322.032-.322.446v4.442c0 .408.171.423.317.436.107.009.201.017.201.183v.16h-2zm4.74-.343c-.137-.013-.299-.028-.299-.436v-2.29h.311c.551 0 .7.253 1.084.903l.158.265 1.153 1.878H48.5v-.16c0-.167-.053-.174-.152-.187-.132-.017-.346-.046-.624-.477l-1.042-1.603c-.03-.042-.057-.083-.084-.124-.183-.275-.348-.523-.715-.563v-.023c.931-.023 1.885-.39 1.885-1.397 0-1.145-1.242-1.443-1.907-1.443h-2.839v.16c0 .166.089.174.19.183.137.013.298.028.298.436v4.442c0 .413-.173.431-.317.446-.104.01-.193.02-.193.173v.16h1.93v-.16c0-.166-.089-.174-.19-.183zm6.31-2.91h1.23c.562 0 .636-.18.701-.338.052-.126.099-.24.382-.24h.173v1.546h-.222c-.258 0-.3-.114-.347-.243-.061-.166-.132-.357-.686-.357h-1.23v2.124c0 .4.18.414.333.427.111.009.208.017.208.172v.162H49.5v-.162c0-.155.096-.163.208-.172.153-.013.333-.027.333-.427v-4.385c0-.4-.18-.415-.333-.427-.111-.01-.208-.017-.208-.173v-.139h4.036c.197 0 .467-.023.664-.115v1.5h-.246c-.258 0-.316-.161-.385-.354-.103-.285-.23-.638-1.067-.638H51.05v2.238zm11.411 2.279l.069-.098 1.171-1.552 1.363 1.803c.072.068.191.205.191.296 0 .135-.126.154-.255.173-.134.02-.27.041-.27.192v.16H67v-.16c0-.145-.054-.158-.153-.183-.12-.03-.305-.075-.54-.387l-1.936-2.624 1.29-1.665c.386-.486.66-.556.824-.598.12-.03.18-.046.18-.2v-.16h-1.84v.16c0 .154.111.164.227.175.123.012.25.024.25.212 0 .128-.184.374-.306.537l-.076.102-.812 1.072-1.076-1.437a.956.956 0 00-.047-.059c-.06-.073-.144-.173-.144-.26 0-.12.093-.141.19-.163.106-.023.216-.048.216-.202v-.16h-2.175v.16c0 .153.053.16.15.172.12.015.306.038.543.352l1.697 2.259-1.65 2.19c-.336.442-.558.483-.683.506-.088.016-.129.024-.129.156v.16h1.817v-.16c0-.146-.127-.176-.256-.207-.134-.032-.27-.064-.27-.227 0-.102.093-.23.17-.335zm-26.957-4.681h-.632v-.345h1.376c.045 0 2.12 5.195 2.12 5.195.195.436.374.462.491.48.088.013.141.02.141.187v.138h-2.008V81.8c0-.16.119-.178.237-.195.119-.018.237-.035.237-.196 0-.138-.045-.345-.113-.46l-.609-1.54-1.804-.023-.632 1.449c-.009.023-.02.051-.034.082-.052.122-.124.29-.124.4 0 .187.117.214.231.24.111.025.22.05.22.22v.138H33v-.138c0-.137.05-.154.136-.183.13-.044.342-.115.586-.667l1.782-4.644zm20.384 0h.629l-1.798 4.644c-.243.552-.454.623-.583.667-.086.029-.136.046-.136.183v.138h1.618v-.138c0-.17-.109-.195-.22-.22-.114-.026-.23-.053-.23-.24 0-.11.072-.278.123-.4a3.35 3.35 0 00.035-.082l.63-1.449 1.797.023.606 1.54c.068.115.113.322.113.46 0 .161-.118.178-.236.196-.118.017-.236.034-.236.195v.138h2V81.8c0-.166-.053-.174-.14-.187-.117-.018-.296-.044-.49-.48 0 0-2.067-5.195-2.112-5.195h-1.37v.345zm-28.206-2.845c-.118 0-.213-.111-.213-.25s.095-.25.213-.25h39.429c.119 0 .214.111.214.25s-.095.25-.214.25H27.682zm-.213 11.25c0 .139.095.25.213.25h39.429c.119 0 .214-.111.214-.25s-.095-.25-.214-.25H27.682c-.118 0-.213.111-.213.25zm-7.505-2.75H19l2.518-6h.964l2.518 6h-.938l-.642-1.546h-2.813l-.643 1.546zm55.692 0c1.786 0 2.232-1.241 2.344-2.046h-.737c-.044.805-.692 1.402-1.584 1.402-1.161 0-1.875-.988-1.875-2.298 0-1.242.446-2.437 1.83-2.437 1.272 0 1.518.873 1.562 1.287h.737c-.09-.85-.536-1.908-2.3-1.908-.468 0-2.633.092-2.633 3.103 0 1.794 1.004 2.897 2.656 2.897zm6.344-6c1.156 0 2.5.687 2.5 3 0 2.954-2.185 3-2.5 3-.336 0-2.5-.046-2.5-3 0-1.992 1.05-3 2.5-3zm4.773.965l1.899 5.035h.656l1.899-5.035h.023l-.023.23v4.805H92v-6h-1.172L89 80.88l-1.828-4.942H86v6h.773v-5.035zm9.75-.965c1.26 0 2.077.483 2.077 1.724 0 1.127-.569 1.885-2.176 1.885h-1.608v2.391H94v-6h2.523zm2.477 6h.804l.513-1.563h2.344l.535 1.563H104l-2.098-6h-.804l-2.098 6zm6.813 0H105v-6h.911l3.276 4.759v-4.759H110v6h-.911l-3.276-4.759v4.759zm10.187-6h-.917L113.5 78.72l-1.583-2.782H111l2.133 3.494v2.506h.757v-2.506l2.11-3.494z"/></svg>