<?xml version="1.0" encoding="utf-8"?><svg width="596" height="101" xmlns="http://www.w3.org/2000/svg" viewBox="0 0 596 101"><path d="M.137 2.154C5.91 3.524 14.42.464 17.444 7.261 27.681 26.675 34.93 47.566 43.941 67.635c9.76-19.843 16.748-40.984 27.056-60.54 3.31-7.036 12.523-3.31 18.51-4.643-4.761 19.879-15.474 37.543-23.64 56.088-6.797 13.927-11.903 28.807-20.974 41.472-6.332-5.13-9.32-12.903-12.7-20.046A2513.098 2513.098 0 00.136 11.451V2.154zM99.352 3.88c4.345-3.023 12.356-2.428 13.689 3.417 2.785 19.95-1.583 40.471 2.285 60.266 4.964 18.831 35.258 19.808 41.876 1.726 4.964-20.021.179-40.959 2.738-61.254.952-9.19 16.998-7.142 16.01 1.964.702 17.736.536 35.543 0 53.315-.107 13.474-7.975 27.02-20.962 31.865-19.39 8.083-47.327 2.595-55.386-18.83-5.428-16.63-2.035-34.509-3.047-51.638.69-6.82-1.667-14.95 2.797-20.83zM215.076.679a37.28 37.28 0 0133.96 10.844c6.44 6.963-4.511 17.855-11.332 11.284-7.213-5.69-21.009-10.975-24.39 1.512 5.321 12.463 23.224 12.95 33.08 21.64 16.426 8.832 16.117 33.746 2.214 44.72-18.546 14.916-50.875 8.512-61.255-13.295-2.714-6.583 3.976-11.404 9.856-11.749 9.392 3.762 13.677 15.974 24.664 16.605 9.677 2.226 21.604-8.487 16.914-18.224-10.582-14.355-33.627-11.903-42.388-28.294-7.606-14.344 2.988-32.794 18.677-35.043zM275.032 21.021c15.546-23.45 51.72-28.151 72.801-9.534 13.439 10.38 18.367 27.687 18.367 44.042-5.178-2.25-10.285-4.761-15.308-7.38-5.107-11.653-10.451-25.616-23.807-29.913-17.986-7.463-39.697 5.488-43.173 24.283-5.238 20.926 14.76 43.197 36.222 39.567 11.474-.881 19.104-10.166 26.187-18.117a159.829 159.829 0 0014.677 6.713c-12.094 24.962-45.423 35.901-69.504 21.652-25.044-12.95-33.389-48.696-16.462-71.313z"/><path d="M312.254 57.255c9.118-12.248 25.056-14.355 38.638-9.142 5.023 2.595 10.13 5.13 15.308 7.38 12.939 6.69 24.449-3.975 33.805-11.605 1.369 20.795-21.533 30.472-39.019 26.806a159.775 159.775 0 01-14.677-6.714c-10.022-7.213-22.057-8.725-34.055-6.725zM416.277 27.104c0-7.416 5.238-11.677 11.189-11.677a9.522 9.522 0 016.535 2.5l-2.547 3.392a5.511 5.511 0 00-3.714-1.63c-3.571 0-6.106 2.975-6.106 7.439s2.464 7.404 5.952 7.404a7.453 7.453 0 004.642-1.94l2.119 3.44a11 11 0 01-7.297 2.737c-6.095 0-10.773-4.297-10.773-11.665zM443.214 20.105h-7.023V15.95h19.296v4.155h-7.023v18.128h-5.25V20.105zM460.012 15.95h4.356l.405 2.381h.143a10.843 10.843 0 016.678-2.904c5.594 0 8.796 4.463 8.796 11.344 0 7.618-4.571 12.022-9.522 12.022a8.928 8.928 0 01-5.75-2.44l.167 3.702v7.023h-5.249l-.024-31.128zm14.986 10.845c0-4.44-1.452-7.071-4.868-7.071-1.619 0-3.143.81-4.869 2.5v10.38a6.989 6.989 0 004.476 1.868c2.964 0 5.261-2.63 5.261-7.678zM483.936 32.246c0-4.761 3.976-7.26 13.153-8.237-.071-2.38-1.035-4.392-4.059-4.392-2.256.14-4.43.897-6.285 2.19l-1.928-3.488a17.485 17.485 0 019.178-2.892c5.582 0 8.332 3.428 8.332 9.63v13.177h-4.297l-.334-2.476h-.142a10.836 10.836 0 01-7 3.011 6.25 6.25 0 01-6.618-6.523zm13.153 0v-5c-6.07.763-8.082 2.381-8.082 4.596 0 1.964 1.345 2.833 3.214 2.833s3.214-.893 4.868-2.417v-.012zM513.028 26.616l-6.618-10.713h5.654l2.476 4.285c.643 1.19 1.357 2.524 2.035 3.75h.167c.571-1.19 1.19-2.512 1.774-3.75l2.107-4.226h5.451l-6.618 11.249 7.082 11.034h-5.63l-2.726-4.416c-.738-1.297-1.488-2.666-2.261-3.94h-.179c-.666 1.274-1.321 2.607-1.988 3.94l-2.38 4.416h-5.452l7.106-11.63zM528.062 27.104c0-7.416 5.059-11.701 10.63-11.701 5.571 0 10.63 4.285 10.63 11.7 0 7.417-5.059 11.666-10.63 11.666-5.571 0-10.63-4.297-10.63-11.665zm15.88 0c0-4.464-1.976-7.44-5.25-7.44-3.273 0-5.285 2.976-5.285 7.44s2.012 7.368 5.285 7.368c3.274 0 5.25-2.904 5.25-7.368zM554.535 15.95h9.059c4.951 0 8.641 1.512 8.641 5.761a4.759 4.759 0 01-3.737 4.69v.155c2.642.643 4.618 2.178 4.618 5.285 0 4.5-3.94 6.392-9.058 6.392h-9.523V15.95zm8.523 9c2.952 0 4.107-1.037 4.107-2.715s-1.191-2.738-3.952-2.738h-3.571v5.452h3.416zm.595 9.712c3.012 0 4.357-1.19 4.357-3.178 0-1.774-1.464-2.976-4.5-2.976h-3.845v6.154h3.988zM576.913 32.246c0-4.761 3.964-7.26 13.093-8.237-.071-2.38-1.035-4.392-4.059-4.392a12.31 12.31 0 00-6.273 2.19l-1.94-3.488a17.557 17.557 0 019.237-2.892c5.595 0 8.332 3.428 8.332 9.63v13.177h-4.297l-.404-2.476h-.143a10.774 10.774 0 01-6.94 3.011 6.248 6.248 0 01-6.606-6.523zm13.093 0v-5c-6.058.763-8.082 2.381-8.082 4.596 0 1.964 1.345 2.833 3.226 2.833s3.249-.893 4.904-2.417l-.048-.012zM417.67 54.1h5.118v8.666h5.869l8.582 13.618h-5.618l-5.523-9.451h-3.262v9.45h-5.118l-.048-22.282zm7.404 10.714l2.928-6.535c1.714-3.845 3.571-4.762 6.333-4.762.521-.007 1.04.09 1.523.286l-.833 4.845a2.382 2.382 0 00-.786-.143c-1.095 0-1.976.369-2.94 2.654l-1.94 4.512-4.285-.857zM438.441 65.254c0-7.416 4.928-11.7 10.368-11.7s10.368 4.284 10.368 11.7c0 7.416-4.928 11.677-10.368 11.677s-10.368-4.285-10.368-11.677zm15.475 0c0-4.464-1.917-7.44-5.119-7.44s-5.118 2.977-5.118 7.44c0 4.464 1.928 7.404 5.118 7.404 3.19 0 5.131-2.94 5.131-7.404h-.012zM464.26 54.1h5.856l3.5 9c.607 1.833 1.19 3.57 1.738 5.201h.178c.583-1.678 1.191-3.368 1.774-5.202l3.333-8.998h5.832v22.283h-4.582v-7.809c0-2.178.357-6.261.559-8.666h-.226c-.631 1.87-1.464 3.988-2.083 5.762l-3.297 8.701h-2.952l-3.393-8.701c-.619-1.774-1.452-3.952-2.071-5.762h-.179c.191 2.381.548 6.488.548 8.666v7.809h-4.523L464.26 54.1zM492.995 54.1h18.521v22.284h-5.118V58.279h-8.332v18.105h-5.107l.036-22.283zM516.86 70.397c0-4.762 3.869-7.262 12.82-8.238-.071-2.38-1.012-4.392-3.952-4.392-2.207.146-4.33.905-6.13 2.19l-1.881-3.487a16.796 16.796 0 018.952-2.952c5.451 0 8.13 3.428 8.13 9.63v13.236h-4.19l-.393-2.476h-.143a10.403 10.403 0 01-6.761 3.023 6.178 6.178 0 01-6.452-6.534zm12.82 0V65.42c-5.951.75-7.88 2.38-7.88 4.583 0 1.976 1.31 2.833 3.143 2.833 1.833 0 3.118-.905 4.737-2.429v-.011zM540.953 54.1h5.107v8.523h8.689v-8.522h5.119v22.283h-5.119v-9.166h-8.689v9.166h-5.107V54.1zM565.76 47.244a3.182 3.182 0 011.8-3.093 3.177 3.177 0 014.47 2.166 3.179 3.179 0 01-3.104 3.88 2.949 2.949 0 01-2.923-1.771 2.963 2.963 0 01-.243-1.182zm.595 6.856h5.142v22.284h-5.106l-.036-22.284zM583.235 65.623l4.214 1.464-5.952 9.297h-5.726l7.464-10.761zm6.654 2.75h-3.214c-4.321 0-9.047-2.024-9.047-7.273 0-5.25 3.869-7 8.833-7h8.534v22.284h-5.106v-8.011zm0-3.571v-6.797h-2.714c-2.857 0-4.476 1.024-4.476 3.238s1.619 3.5 4.476 3.5l2.714.059z"/></svg>