<?xml version="1.0" encoding="utf-8"?><svg width="579" height="196" xmlns="http://www.w3.org/2000/svg" viewBox="0 0 579 196"><path d="M191.421 131.501c-.055 0-.096-.027-.123-.082a.299.299 0 01-.041-.122c0-.164.109-.519.327-1.065.219-.573.546-1.214.983-1.924a22.1 22.1 0 011.678-2.292 13.233 13.233 0 012.415-2.169 12.85 12.85 0 013.152-1.679c1.201-.437 2.525-.655 3.971-.655 1.037 0 2.047.178 3.029.532 1.01.355 1.774.751 2.292 1.188a16.403 16.403 0 012.579-.41 26.006 26.006 0 012.866-.164c1.446 0 2.824.137 4.134.41 1.31.245 2.415.586 3.316 1.023a21.661 21.661 0 001.515-.941c.436-.328.764-.492.982-.492.109 0 .164.069.164.205 0 .136-.219.328-.655.573-.437.218-.928.519-1.474.901a8.706 8.706 0 013.111 2.865c.819 1.174 1.228 2.511 1.228 4.012a5.72 5.72 0 01-.778 2.906 8.756 8.756 0 01-2.005 2.374 9.446 9.446 0 01-2.702 1.556c-.983.382-1.951.573-2.906.573-.383 0-.778-.068-1.188-.205a9.504 9.504 0 01-1.064-.45 6.514 6.514 0 01-.778-.491c-.191-.164-.286-.287-.286-.369 0-.136.082-.204.245-.204.028 0 .11.054.246.163.164.11.355.232.573.369.219.136.464.259.737.368.3.109.628.164.982.164 1.01 0 1.924-.259 2.743-.778a7.311 7.311 0 002.129-1.965 8.445 8.445 0 001.35-2.66c.328-.983.492-1.924.492-2.825 0-1.037-.232-1.978-.696-2.824-.437-.846-1.119-1.542-2.047-2.088-.873.6-1.692 1.392-2.456 2.374a27.838 27.838 0 00-2.251 3.316 99.122 99.122 0 00-2.293 4.052 303.673 303.673 0 01-2.538 4.544 32.165 32.165 0 01-3.152 4.626 25.638 25.638 0 01-3.848 3.848 19.955 19.955 0 01-4.339 2.66 11.456 11.456 0 01-4.625.983 8.248 8.248 0 01-1.842-.205 4.818 4.818 0 01-1.556-.573 3.47 3.47 0 01-1.064-1.023c-.246-.437-.369-.955-.369-1.556 0-.464.123-.859.369-1.187.273-.355.655-.532 1.146-.532.464 0 .86.15 1.187.45.328.273.491.642.491 1.106 0 .382-.068.668-.204.859a.866.866 0 00-.205.573c0 .437.191.819.573 1.146.409.301 1.092.451 2.047.451 1.2 0 2.319-.232 3.356-.696a12.182 12.182 0 002.948-1.924 17.137 17.137 0 002.538-2.702 38.34 38.34 0 002.169-3.152 54.734 54.734 0 001.801-3.234 671.717 671.717 0 011.597-2.947 37.762 37.762 0 011.924-3.152 43.892 43.892 0 012.374-3.193 34.502 34.502 0 012.743-2.906 21.525 21.525 0 012.947-2.293 12.884 12.884 0 00-3.52-1.105 20.693 20.693 0 00-3.316-.286c-.955 0-1.842.027-2.661.082-.791.054-1.583.177-2.374.368a5.596 5.596 0 011.269 2.374 9.37 9.37 0 01.368 2.62c0 1.474-.341 2.961-1.023 4.462a15.904 15.904 0 01-2.702 4.052 14.438 14.438 0 01-3.848 2.948c-1.446.737-2.933 1.105-4.462 1.105-.6 0-1.173-.096-1.719-.287a4.38 4.38 0 01-1.433-.818 4.29 4.29 0 01-.982-1.392c-.246-.573-.368-1.242-.368-2.006 0-1.037.218-2.06.655-3.07a12.816 12.816 0 011.719-2.865 20.427 20.427 0 012.497-2.62 22.458 22.458 0 012.988-2.17 21.281 21.281 0 013.111-1.637c1.037-.437 2.006-.751 2.906-.942-.654-.464-1.419-.805-2.292-1.023a10.318 10.318 0 00-2.497-.328c-1.555 0-3.056.328-4.503.983-1.446.627-2.756 1.528-3.929 2.702-.737.736-1.338 1.46-1.802 2.169-.464.71-.832 1.337-1.105 1.883a16.44 16.44 0 00-.614 1.269c-.136.328-.245.491-.327.491zm3.684 4.994c0 1.283.314 2.279.941 2.989.655.682 1.515 1.023 2.579 1.023 1.337 0 2.674-.409 4.012-1.228a15.752 15.752 0 003.602-3.152 17.472 17.472 0 002.661-4.216c.682-1.529 1.023-3.002 1.023-4.421 0-.737-.054-1.433-.164-2.088a3.146 3.146 0 00-.818-1.678c-1.665.327-3.33.941-4.994 1.842a22.642 22.642 0 00-4.421 3.152c-1.31 1.2-2.374 2.483-3.193 3.848-.819 1.364-1.228 2.674-1.228 3.929zM232.082 142.431c0 .409-.068.86-.205 1.351a7.442 7.442 0 01-.573 1.392c-.218.436-.478.873-.778 1.309-.273.41-.559.765-.859 1.065.109.054.259.082.45.082.709 0 1.392-.178 2.047-.533a6.926 6.926 0 001.76-1.473c.273-.3.437-.491.491-.573.082-.082.15-.123.205-.123.136 0 .204.068.204.205 0 .054-.054.15-.163.286-.11.137-.396.45-.86.942a5.96 5.96 0 01-1.842 1.31 5.43 5.43 0 01-2.211.45c-.272 0-.45-.014-.532-.041a13.503 13.503 0 01-2.251 2.006c-.846.6-1.842.9-2.988.9-.819 0-1.447-.327-1.883-.982-.437-.655-.655-1.542-.655-2.661 0-.737.027-1.241.082-1.514.081-.273.122-.478.122-.615 0-.163-.041-.245-.122-.245-.164 0-.314.109-.451.327-.136.219-.232.328-.286.328-.164 0-.246-.068-.246-.205 0-.054.068-.177.205-.368.164-.191.368-.41.614-.655l.778-.778.777-.778c1.201-1.146 2.388-1.965 3.562-2.456 1.173-.518 2.224-.778 3.152-.778.791 0 1.391.273 1.801.819.437.519.655 1.187.655 2.006zm-.901-.491c0-.492-.109-.914-.327-1.269-.219-.382-.587-.573-1.106-.573-.709 0-1.46.3-2.251.9-.791.601-1.515 1.351-2.17 2.252-.654.9-1.2 1.869-1.637 2.906-.409 1.037-.614 1.979-.614 2.824 0 .574.096.969.287 1.188.218.218.477.327.777.327.819 0 1.638-.273 2.456-.819a9.398 9.398 0 002.252-2.046 11.98 11.98 0 001.678-2.784c.437-1.01.655-1.978.655-2.906z"/><path d="M244.649 141.408c0-.464-.082-.833-.246-1.106-.164-.3-.478-.45-.941-.45-.683 0-1.447.314-2.293.942-.818.6-1.596 1.378-2.333 2.333a13.875 13.875 0 00-1.842 3.07c-.491 1.119-.737 2.183-.737 3.193 0 .737.368 1.105 1.105 1.105.519 0 1.187-.3 2.006-.9.819-.601 1.61-1.351 2.374-2.252a17.028 17.028 0 002.047-2.988c.573-1.064.86-2.047.86-2.947zm9.415-14.982l2.415-.082a494.77 494.77 0 01-4.749 8.269 670.37 670.37 0 00-4.175 7.122 179.94 179.94 0 00-2.988 5.281c-.737 1.392-1.105 2.292-1.105 2.701 0 .519.231.778.695.778.301 0 .724-.177 1.269-.532.546-.355 1.256-.969 2.129-1.842 1.092-1.064 1.842-1.869 2.251-2.415.437-.546.683-.819.737-.819.164 0 .246.055.246.164 0 .109-.287.491-.86 1.146-1.446 1.665-2.647 2.879-3.602 3.643-.955.765-1.815 1.146-2.579 1.146-.464 0-.832-.204-1.105-.614-.273-.409-.409-.927-.409-1.555 0-.328.027-.628.081-.901.082-.3.15-.559.205-.777l-.082-.082c-.218.355-.532.764-.941 1.228-.41.437-.86.859-1.351 1.269a7.582 7.582 0 01-1.597 1.023c-.545.273-1.078.409-1.596.409-.409 0-.764-.109-1.064-.327a2.959 2.959 0 01-.737-.901 4.062 4.062 0 01-.41-1.187 7.633 7.633 0 01-.122-1.31c0-.3.013-.627.041-.982.027-.355.068-.682.122-.982-.054 0-.109.04-.163.122-.028.055-.055.082-.082.082-.137 0-.205-.082-.205-.245v-.041c.027-.055.082-.137.164-.246.082-.109.205-.259.368-.45.164-.218.396-.491.696-.819a17.434 17.434 0 013.643-3.07c1.31-.846 2.647-1.269 4.012-1.269.518 0 .969.15 1.351.45.382.301.573.764.573 1.392v.573c0 .164-.028.314-.082.45l.082.082 8.924-15.882z"/><path d="M261.624 142.431c0 .409-.069.86-.205 1.351a7.579 7.579 0 01-.573 1.392c-.219.436-.478.873-.778 1.309a6.88 6.88 0 01-.86 1.065c.11.054.26.082.451.082.709 0 1.392-.178 2.047-.533a6.943 6.943 0 001.76-1.473c.273-.3.436-.491.491-.573.082-.082.15-.123.205-.123.136 0 .204.068.204.205 0 .054-.054.15-.163.286-.11.137-.396.45-.86.942a5.971 5.971 0 01-1.842 1.31 5.43 5.43 0 01-2.211.45c-.272 0-.45-.014-.532-.041a13.543 13.543 0 01-2.251 2.006c-.846.6-1.842.9-2.988.9-.819 0-1.447-.327-1.883-.982-.437-.655-.655-1.542-.655-2.661 0-.737.027-1.241.081-1.514.082-.273.123-.478.123-.615 0-.163-.041-.245-.123-.245-.163 0-.313.109-.45.327-.136.219-.232.328-.286.328-.164 0-.246-.068-.246-.205 0-.054.068-.177.205-.368.163-.191.368-.41.614-.655l.777-.778.778-.778c1.201-1.146 2.388-1.965 3.562-2.456 1.173-.518 2.224-.778 3.152-.778.791 0 1.391.273 1.801.819.436.519.655 1.187.655 2.006zm-.901-.491c0-.492-.109-.914-.327-1.269-.219-.382-.587-.573-1.106-.573-.709 0-1.46.3-2.251.9-.792.601-1.515 1.351-2.17 2.252-.655.9-1.2 1.869-1.637 2.906-.409 1.037-.614 1.979-.614 2.824 0 .574.096.969.287 1.188.218.218.477.327.777.327.819 0 1.638-.273 2.456-.819a9.398 9.398 0 002.252-2.046 11.98 11.98 0 001.678-2.784c.437-1.01.655-1.978.655-2.906z"/><path d="M279.634 126.344a4170.47 4170.47 0 01-6.713 10.52c-1.774 2.811-3.22 5.117-4.339 6.918-1.092 1.774-1.869 3.138-2.333 4.093-.464.928-.696 1.624-.696 2.088 0 .137.054.259.164.369a.76.76 0 00.491.163c.628 0 1.31-.259 2.047-.778.764-.518 1.664-1.296 2.701-2.333.928-.928 1.515-1.569 1.76-1.924.273-.382.464-.573.574-.573.136 0 .204.069.204.205 0 .027-.054.109-.164.245a17.41 17.41 0 01-.409.492 10.3 10.3 0 01-.532.573c-.164.191-.314.368-.45.532-1.201 1.283-2.279 2.279-3.234 2.988-.955.71-1.829 1.064-2.62 1.064-.71 0-1.187-.204-1.433-.614-.218-.409-.327-.886-.327-1.432 0-.601.082-1.146.245-1.638a7.36 7.36 0 01.778-1.637c.355-.6.792-1.283 1.31-2.047a96.546 96.546 0 001.842-2.947l-.082-.082a69.59 69.59 0 00-1.105 1.31 43.718 43.718 0 01-1.596 1.801 97.74 97.74 0 01-.942 1.064c-.218.246-.396.451-.532.614l-.287.287a.364.364 0 01-.163.041c-.109 0-.164-.068-.164-.205 0-.082.246-.395.737-.941a58.746 58.746 0 001.965-2.211 79.769 79.769 0 002.701-3.356 52.26 52.26 0 002.989-4.34l4.912-8.023 2.701-.286z"/><path d="M278.271 148.816l.081.082a9.334 9.334 0 001.72-1.473c.464-.519.873-.983 1.228-1.392.437-.464.696-.764.778-.901.081-.163.163-.245.245-.245.137 0 .205.082.205.245 0 .055-.177.301-.532.737-.355.409-.737.846-1.147 1.31-1.118 1.255-2.183 2.211-3.192 2.865-1.01.628-2.088.942-3.234.942-.464 0-.819-.014-1.065-.041-.245-.054-.504-.191-.777-.409-.164-.137-.314-.341-.451-.614-.136-.3-.204-.56-.204-.778 0-.764.341-1.146 1.023-1.146a.87.87 0 01.573.204c.191.11.287.26.287.451 0 .218-.028.368-.082.45a.74.74 0 01-.205.205.724.724 0 00-.205.204c-.054.055-.081.178-.081.369 0 .409.232.614.696.614.491 0 .982-.246 1.473-.737a7.995 7.995 0 001.31-1.76c.409-.71.737-1.447.983-2.211.245-.791.368-1.46.368-2.006v-2.578c.027-.737.109-1.16.246-1.269l-.082-.082c-.137.082-.41.354-.819.818-.409.437-.873.942-1.392 1.515l-1.473 1.719c-.464.546-.819.955-1.065 1.228-.164.219-.286.328-.368.328-.109 0-.164-.055-.164-.164 0-.136.15-.368.45-.696.328-.327.778-.846 1.351-1.555a50.278 50.278 0 012.006-2.293 43.98 43.98 0 011.023-1.064c.301-.3.478-.464.533-.491.027 0 .068-.068.122-.205.055-.136.137-.273.246-.409.109-.164.246-.301.409-.41a.87.87 0 01.573-.204c.464 0 .696.204.696.614 0 .382-.177.655-.532.818-.355.164-.723.314-1.105.451l-.123.491c-.027.082-.041.232-.041.45 0 .764.041 1.406.123 1.924.109.519.205.983.286 1.392.11.409.205.791.287 1.146.109.355.164.737.164 1.146 0 .491-.109.942-.328 1.351a5.498 5.498 0 01-.818 1.146v-.082z"/><path d="M296.186 141.981c-.436 0-.723-.123-.859-.369-.109-.272-.178-.641-.205-1.105-.464.082-.819.259-1.064.532-.219.246-.491.642-.819 1.187-.355.546-.86 1.024-1.515 1.433a6.054 6.054 0 01-1.923.778v.082c.272.054.532.177.777.368.273.164.505.369.696.614.219.246.382.505.491.778.137.273.205.519.205.737 0 .218-.055.477-.164.778-.082.3-.177.6-.286.9a9.683 9.683 0 01-.328.737c-.082.218-.122.368-.122.45 0 .164.054.314.163.451a.707.707 0 00.451.163c.327 0 .682-.109 1.064-.327.382-.246.764-.519 1.146-.819.409-.3.778-.614 1.105-.941.328-.328.587-.601.778-.819.573-.6 1.01-1.064 1.31-1.392a14 14 0 00.655-.819c.164-.191.259-.313.286-.368.055-.054.11-.082.164-.082.164 0 .246.068.246.205 0 .027-.068.123-.205.286a5.878 5.878 0 01-.491.614c-.191.219-.409.478-.655.778-.246.273-.491.532-.737.778-.355.382-.75.778-1.187 1.187-.409.409-.832.778-1.269 1.105-.437.328-.86.601-1.269.819-.409.191-.778.286-1.105.286-.382 0-.71-.095-.983-.286a3.179 3.179 0 01-.696-.778 4.614 4.614 0 01-.368-1.023 4.386 4.386 0 01-.123-.983c0-.3.041-.573.123-.818.082-.246.178-.464.287-.655l.286-.573a1.36 1.36 0 00.123-.533c0-.163-.082-.313-.246-.45-.163-.136-.327-.204-.491-.204-.218 0-.45.095-.696.286-.218.191-.518.287-.9.287-.41 0-.614-.164-.614-.492 0-.136.082-.272.245-.409.191-.164.587-.246 1.187-.246a.92.92 0 01.287.041c.109.028.273.041.491.041.164 0 .382-.068.655-.204.3-.137.614-.328.942-.573a7.574 7.574 0 001.023-.86c.355-.328.682-.682.982-1.064.601-.764 1.092-1.269 1.474-1.515a2.294 2.294 0 011.269-.368c.464 0 .832.122 1.105.368.301.218.451.519.451.901 0 .354-.123.627-.369.818a1.141 1.141 0 01-.778.287zm1.228-15.637l-14.327 24.479-2.783.163 6.549-10.602-.082-.082c-.163.192-.368.424-.614.696-.218.273-.45.573-.696.901-.245.3-.504.6-.777.901-.246.273-.478.532-.696.777a83.06 83.06 0 00-1.105 1.187c-.246.301-.437.533-.574.696a6.07 6.07 0 01-.286.328.324.324 0 01-.123.041c-.109 0-.164-.082-.164-.246 0-.054.028-.123.082-.205.082-.109.246-.286.491-.532a49.86 49.86 0 001.024-1.187c.464-.518 1.091-1.228 1.883-2.128a68.285 68.285 0 001.801-2.17c.518-.682.996-1.351 1.433-2.006.464-.655.9-1.323 1.31-2.006.436-.709.9-1.487 1.391-2.333.492-.846 1.037-1.787 1.638-2.824l2.087-3.603 2.538-.245zM321.036 126.344l-6.304 10.479a378.066 378.066 0 00-4.011 6.836c-1.01 1.747-1.733 3.057-2.17 3.93-.409.873-.614 1.487-.614 1.842 0 .3.054.559.164.778.136.191.395.286.777.286.765 0 1.556-.204 2.375-.614a7.949 7.949 0 002.292-1.801 9.613 9.613 0 001.678-2.702c.437-1.064.655-2.237.655-3.52 0-.764.068-1.323.205-1.678.164-.382.505-.573 1.023-.573.355 0 .601.163.737.491.164.327.247.682.247 1.064 0 .628-.124 1.269-.37 1.924a15.833 15.833 0 01-.859 1.842 14.026 14.026 0 01-1.024 1.556c-.327.464-.586.805-.777 1.023.082.027.204.041.368.041.628 0 1.255-.164 1.884-.491a5.967 5.967 0 001.636-1.269c.383-.41.602-.655.655-.737.055-.082.11-.123.164-.123.136 0 .206.068.206.205 0 .082-.056.191-.166.327-.108.11-.272.287-.491.532a6.167 6.167 0 01-2.046 1.556c-.764.327-1.501.491-2.21.491h-.328a.314.314 0 00-.123-.041c-.245.246-.573.532-.982.86-.409.327-.86.655-1.351.982a12.43 12.43 0 01-1.596.819 4.81 4.81 0 01-1.72.327c-.873.028-1.501-.231-1.883-.777-.355-.573-.532-1.269-.532-2.088 0-.737.205-1.501.614-2.292a21.59 21.59 0 011.31-2.211c.491-.709.942-1.31 1.351-1.801.409-.491.614-.805.614-.941 0-.055-.027-.082-.082-.082-.055 0-.245.191-.573.573-.3.382-.805.955-1.515 1.719a61.233 61.233 0 00-1.269 1.433c-.3.355-.532.627-.695.818a5.948 5.948 0 01-.287.328.368.368 0 01-.164.041c-.136 0-.204-.055-.204-.164 0-.054.177-.286.532-.696.354-.436.75-.914 1.187-1.432.464-.519.914-1.01 1.351-1.474.436-.491.723-.819.859-.983.355-.382.846-1.05 1.474-2.005.655-.983 1.392-2.129 2.211-3.439.818-1.31 1.678-2.715 2.578-4.216a261.813 261.813 0 002.62-4.544l2.579-.409z"/><path d="M319.686 145.501c-.136 0-.205-.068-.205-.205 0-.054.069-.177.205-.368.163-.191.367-.423.614-.696.244-.273.504-.559.778-.86.299-.3.572-.6.818-.9.873-.955 1.637-1.665 2.293-2.129.682-.491 1.309-.737 1.883-.737.519 0 .914.205 1.186.614.274.383.41.819.41 1.31 0 .41-.095.874-.287 1.392a13.1 13.1 0 01-.695 1.556 19.87 19.87 0 01-.86 1.473c-.3.464-.546.833-.738 1.106l.083.081c1.091-1.255 2.074-2.265 2.948-3.029.873-.764 1.405-1.419 1.596-1.965.219-.6.546-1.173.982-1.719.437-.546 1.009-.819 1.719-.819.655 0 .982.219.982.655 0 .41-.245.806-.736 1.187l-1.555 1.188c-.574.436-1.105.914-1.596 1.432a2.669 2.669 0 00-.697 1.842c0 .41.123.751.368 1.024.274.245.601.368.983.368.683 0 1.297-.273 1.841-.819.465-.463.793-.832.984-1.105.191-.3.327-.45.408-.45.164 0 .246.068.246.205 0 .054-.123.232-.367.532-.247.3-.465.559-.657.778-.408.464-.831.791-1.268.982-.436.191-.846.287-1.229.287-.463 0-.886-.137-1.269-.41-.355-.3-.531-.696-.531-1.187 0-.464.068-.873.204-1.228a3.49 3.49 0 01.614-1.064l-.081-.082a38.717 38.717 0 00-3.111 3.234 95.126 95.126 0 00-3.071 3.766l-2.578.245a270.058 270.058 0 012.701-4.257c.791-1.201 1.447-2.197 1.966-2.988.544-.791.954-1.433 1.226-1.924.274-.491.41-.873.41-1.146 0-.382-.231-.573-.695-.573-.301 0-.709.15-1.228.45-.491.273-1.147.832-1.966 1.678a49.942 49.942 0 00-1.513 1.638c-.383.409-.682.736-.901.982a6.053 6.053 0 01-.451.532c-.082.082-.136.123-.163.123z"/><path d="M335.936 150.986c-.518 0-.956-.109-1.311-.327a2.469 2.469 0 01-.777-.819 4.013 4.013 0 01-.409-1.187 11.815 11.815 0 01-.042-2.333l.165-.983c-.055 0-.095.028-.123.082-.027.028-.068.041-.123.041-.109 0-.164-.068-.164-.205 0-.081.041-.163.123-.245.082-.082.26-.287.532-.614a13.32 13.32 0 011.843-1.883 17.543 17.543 0 012.087-1.515 11.458 11.458 0 012.21-1.023 7.206 7.206 0 012.21-.369c.629 0 1.08.205 1.352.614.272.383.41.847.41 1.392 0 .491-.042.86-.123 1.105l.081.082c.355-.573.628-1.05.818-1.432.219-.382.397-.669.533-.86.136-.218.259-.368.368-.45.136-.109.314-.164.533-.164l1.964-.082c-.191.218-.478.601-.859 1.146-.355.519-.75 1.119-1.187 1.801-.436.655-.887 1.351-1.352 2.088a97.241 97.241 0 00-1.227 2.129 29.791 29.791 0 00-.941 1.801c-.219.518-.327.9-.327 1.146 0 .382.231.573.695.573.627 0 1.447-.464 2.456-1.392 1.037-.955 2.156-2.128 3.356-3.52.247-.3.396-.478.451-.532.055-.082.108-.123.164-.123.081 0 .136.027.163.082.055.054.083.109.083.164 0 .027-.083.136-.246.327a32.16 32.16 0 01-.532.614c-.219.246-.465.519-.737.819-.247.3-.491.573-.738.818-.954.983-1.815 1.774-2.578 2.375-.765.573-1.419.859-1.965.859-.547 0-.982-.191-1.31-.573-.327-.382-.491-1.132-.491-2.251v-.369c.028-.136.041-.259.041-.368-.3.3-.67.655-1.105 1.064-.41.41-.846.805-1.31 1.187-.465.355-.928.669-1.392.942-.465.245-.888.368-1.269.368zm-.941-1.801c0 .382.068.696.204.942.164.245.41.368.737.368.6 0 1.323-.314 2.169-.941a16.57 16.57 0 002.456-2.375 16.64 16.64 0 002.006-2.906c.574-1.037.859-1.937.859-2.702 0-.409-.108-.75-.327-1.023-.191-.3-.504-.45-.942-.45-.818 0-1.664.341-2.537 1.023a11.433 11.433 0 00-2.292 2.415 15.367 15.367 0 00-1.678 2.988c-.438 1.037-.655 1.924-.655 2.661z"/><path d="M349.677 150.986c.136-.245.383-.641.737-1.187.381-.546.819-1.16 1.31-1.842.491-.709.996-1.446 1.515-2.21a78.403 78.403 0 001.473-2.129c.438-.682.791-1.282 1.065-1.801.299-.519.45-.887.45-1.105 0-.219-.068-.369-.206-.451a.55.55 0 00-.408-.163c-.574 0-1.188.245-1.843.736-.627.464-1.46 1.269-2.497 2.416-.491.518-.873.928-1.145 1.228l-.574.696a3.93 3.93 0 01-.245.286c-.027.027-.055.041-.082.041-.136 0-.205-.082-.205-.246 0-.027.056-.109.164-.245a3.13 3.13 0 01.41-.491l.491-.573c.191-.219.355-.41.491-.574.982-1.146 1.896-2.06 2.742-2.742.846-.682 1.666-1.024 2.457-1.024.546 0 .927.178 1.145.533.247.354.37.846.37 1.473 0 .41-.096.86-.287 1.351-.191.464-.423.928-.697 1.392-.245.464-.518.914-.818 1.351l-.778 1.064.083.082c.408-.382.967-.969 1.677-1.76a48.375 48.375 0 012.333-2.415 23.594 23.594 0 012.416-2.129c.791-.628 1.446-.942 1.964-.942.519 0 .887.219 1.106.655.246.41.369.833.369 1.269 0 .71-.165 1.365-.492 1.965a14.023 14.023 0 01-1.023 1.556c-1.828 2.483-2.743 4.025-2.743 4.625 0 .219.055.41.163.573.11.164.274.246.493.246.463 0 1.09-.314 1.883-.941a27.212 27.212 0 002.455-2.334 86.63 86.63 0 001.188-1.269c.272-.327.463-.559.572-.696.137-.163.218-.259.246-.286.055-.055.109-.082.164-.082.108 0 .163.068.163.205 0 .054-.108.218-.327.491-.219.273-.478.573-.778.9-.272.328-.559.642-.859.942-.274.3-.478.519-.614.655-.901.9-1.706 1.61-2.416 2.129-.71.518-1.296.777-1.76.777-.627 0-1.092-.245-1.392-.737-.272-.518-.408-1.146-.408-1.883 0-.818.232-1.623.695-2.415a16.97 16.97 0 011.515-2.251 48.95 48.95 0 011.514-1.883c.465-.546.696-.955.696-1.228 0-.328-.191-.491-.573-.491-.328 0-.791.218-1.392.655-.6.436-1.254.996-1.964 1.678a45.03 45.03 0 00-2.211 2.292 83.02 83.02 0 00-2.169 2.415 67.081 67.081 0 00-1.802 2.17c-.519.628-.874 1.105-1.065 1.433l-2.742.245z"/><path d="M378.264 141.612c0 .382-.138.778-.41 1.187a1.29 1.29 0 01-1.105.573c-.383 0-.655-.095-.819-.286a1.365 1.365 0 01-.205-.737c0-.273.055-.464.163-.573a1.48 1.48 0 01.451-.246c.163-.082.301-.163.41-.245.136-.109.204-.273.204-.491 0-.164-.081-.314-.245-.451-.138-.163-.369-.245-.697-.245-.627 0-1.324.245-2.087.736-.737.464-1.432 1.106-2.087 1.924-.656.792-1.215 1.72-1.679 2.784a8.75 8.75 0 00-.655 3.357c0 1.064.572 1.596 1.72 1.596.71 0 1.528-.246 2.455-.737.956-.518 1.883-1.255 2.784-2.21.546-.573.969-1.037 1.269-1.392.327-.355.559-.614.696-.778.164-.191.273-.314.328-.368.053-.082.095-.123.123-.123.164 0 .245.082.245.246 0 .054-.164.273-.491.655-.3.354-.67.764-1.106 1.228-1.309 1.419-2.484 2.442-3.521 3.07-1.009.6-2.032.9-3.069.9-.627 0-1.16-.136-1.596-.409-.41-.3-.738-.669-.984-1.105a4.988 4.988 0 01-.531-1.433 10.628 10.628 0 01-.124-1.556c0-.327.015-.573.043-.736.053-.191.081-.314.081-.369 0-.054-.028-.082-.081-.082-.055 0-.111.028-.164.082-.028.055-.07.082-.123.082-.136 0-.206-.068-.206-.205 0-.027.015-.054.042-.081.028-.055.081-.137.164-.246.081-.136.217-.314.408-.532.191-.218.451-.519.778-.901 1.173-1.392 2.333-2.388 3.479-2.988 1.175-.6 2.334-.901 3.481-.901.791 0 1.432.178 1.923.533.491.327.738.818.738 1.473z"/><path d="M377.049 150.986a191.465 191.465 0 016.835-11.134l-.04-.082a23.7 23.7 0 00-1.473 1.761c-.41.518-.983 1.173-1.72 1.964-.437.492-.778.874-1.024 1.147-.245.273-.436.477-.572.614-.11.136-.191.232-.246.286-.028.028-.055.041-.081.041-.111 0-.164-.082-.164-.246 0-.109.272-.45.818-1.023a60.24 60.24 0 002.047-2.292 65.919 65.919 0 002.742-3.439 42.787 42.787 0 002.867-4.339l4.42-7.614 2.497-.286c-.273.464-.682 1.173-1.228 2.128-.546.928-1.188 2.006-1.923 3.234a932.16 932.16 0 00-2.376 3.889 330.978 330.978 0 00-2.415 4.093c-.79 1.338-1.542 2.62-2.25 3.848a484.138 484.138 0 00-1.802 3.07l.082.082c1.964-2.265 3.671-4.011 5.116-5.239 1.447-1.228 2.525-1.842 3.235-1.842.599 0 1.022.218 1.268.655.247.436.368.928.368 1.473 0 .573-.232 1.242-.695 2.006a32.858 32.858 0 01-1.556 2.251 41.723 41.723 0 00-1.555 2.211c-.464.709-.695 1.283-.695 1.719 0 .137.04.273.121.41.11.109.274.163.493.163.627 0 1.294-.286 2.004-.859s1.639-1.46 2.784-2.661c.247-.246.478-.491.697-.737.217-.273.423-.518.613-.737.191-.218.354-.395.492-.532.136-.164.232-.246.285-.246.138 0 .206.069.206.205 0 .055-.206.328-.614.819a33.99 33.99 0 01-1.432 1.596 31.697 31.697 0 01-1.926 1.924c-.544.464-1.022.833-1.432 1.105-.408.246-.763.41-1.065.492a3.12 3.12 0 01-.818.122c-.408 0-.791-.15-1.146-.45-.327-.3-.491-.9-.491-1.801 0-.901.232-1.746.695-2.538.465-.819.984-1.569 1.556-2.251.574-.683 1.092-1.297 1.556-1.842.463-.573.697-1.065.697-1.474a.508.508 0 00-.166-.368c-.081-.11-.176-.164-.285-.164-.355 0-.846.218-1.475.655-.627.409-1.309.941-2.046 1.596-.71.655-1.46 1.392-2.251 2.211a80.404 80.404 0 00-2.17 2.415 46.328 46.328 0 00-1.8 2.21c-.493.655-.833 1.174-1.024 1.556l-2.538.245zM353.245 66.739c-2.298-2.548-5.257-4.458-8.989-5.8-3.666-1.341-7.169-2.07-10.516-2.07-4.527 0-8.76 1.365-12.492 4.208-3.573 2.865-5.963 8.119-5.963 14.805 0 5.799 1.593 10.415 4.688 13.69 3.095 3.252 7.008 4.844 11.538 4.844 8.83 0 14.224-4.434 14.975-13.372H331.83v-7.8h26.195v4.366c0 9.302-2.777 16.192-8.764 20.763-5.141 3.98-11.311 5.936-17.682 5.936-6.372 0-12.744-2.161-18.707-6.368-5.803-4.207-9.877-12.258-9.877-22.127C302.995 56.55 320.36 49 332.058 49c3.732 0 7.623.773 11.856 2.138 4.074 1.319 7.715 3.502 10.514 6.367l-1.183 9.233zM417.082 96.757c-6.441 6.595-15.203 9.552-22.69 9.552-12.108 0-29.859-7.641-29.859-28.655 0-8.027 2.868-14.963 7.01-19.17C377.961 51.705 386.974 49 394.37 49 406.476 49 424 56.8 424 77.654c0 7.96-2.776 14.873-6.918 19.103zm-35.299-32.793c-3.344 3.411-5.007 7.96-5.007 13.69 0 5.64 1.663 10.257 5.007 13.69 3.347 3.412 7.557 5.095 12.587 5.095 5.007 0 9.147-1.66 12.426-5.094 3.253-3.434 4.937-8.028 4.937-13.69 0-5.731-1.661-10.257-4.937-13.691-3.279-3.411-7.398-5.094-12.426-5.094-5.008 0-9.24 1.66-12.587 5.094zM173.572 87.502h-13.86l1.206 2.092h41.875l4.643-7.96h-30.405l-3.459 5.868zM180.125 103.421h-25.103l1.207 2.092h38.393l4.665-7.96h-15.726l-3.436 5.868zM207.457 73.674l-4.643-7.96h-41.92l-1.206 2.07h13.882l3.459 5.89h30.428zM183.584 57.755h15.726l-4.665-7.96h-38.439L155 51.866h25.125l3.459 5.89zM239.341 49.796h-12.108v55.717h12.108V49.796zM245.851 105.513V49.796h10.674l27.878 37.728V49.796h12.108v55.717h-10.583l-27.97-37.137v37.137h-12.107z"/></svg>