<?xml version="1.0" encoding="utf-8"?><svg width="120" height="45" xmlns="http://www.w3.org/2000/svg" viewBox="0 0 120 45"><path fill-rule="evenodd" clip-rule="evenodd" d="M75.179 7.5L69.86 8.63v21.468h5.318V7.5zm-15.14 6.418a8.205 8.205 0 100 16.41 8.205 8.205 0 000-16.41zm0 10.863a2.66 2.66 0 110-5.318 2.66 2.66 0 010 5.318zm1.478 7.907a2.659 2.659 0 10-2.955 4.421 2.659 2.659 0 002.955-4.42zM48.209 18.15A6.983 6.983 0 0042.27 7.5H34v22.6h9.305a6.982 6.982 0 004.904-11.95zm-8.884-5.332h2.954a1.662 1.662 0 010 3.324h-2.954v-3.324zm3.988 11.964h-3.988v-3.323h3.988a1.662 1.662 0 110 3.323zm41.91-10.56v5.317h-2.65v4.172c0 1.263.406 2.194 1.47 2.194a4.44 4.44 0 001.188-.156v3.915a5.481 5.481 0 01-2.592.664h-.066c-.033 0-.065-.002-.096-.004a1.563 1.563 0 00-.096-.003h-.052c-.015 0-.031-.002-.048-.004a.44.44 0 00-.048-.004c-2.969-.155-4.985-2.023-4.985-5.265v-13.76l5.317-1.13v4.062h2.659z"/></svg>