<?xml version="1.0" encoding="utf-8"?><svg width="579" height="196" xmlns="http://www.w3.org/2000/svg" viewBox="0 0 579 196"><path d="M345.115 74.001c1.955-.272 4.012.01 5.789.884.941.462 1.835 1.085 2.523 1.883l.194.227-.197.224c-.715.818-1.419 1.651-2.121 2.481l-.242.287-.265-.266c-.673-.674-1.491-1.345-2.43-1.583-1.829-.466-4.079-.29-5.436 1.162a2.606 2.606 0 00-.54 2.598c.216.605.774 1.034 1.32 1.331 1.339.732 2.915.946 4.362 1.383 1.664.502 3.325 1.11 4.705 2.195 1.063.837 1.891 1.997 2.2 3.323.508 2.175-.05 4.57-1.487 6.285-1.131 1.348-2.714 2.272-4.396 2.744-2.682.75-5.655.317-8.039-1.111-.919-.551-1.82-1.293-2.507-2.118l-.189-.227.195-.222c.757-.861 1.499-1.74 2.24-2.617l.299-.355.307.473c1.653 2.374 5.473 3.246 7.989 1.813.971-.553 1.742-1.574 1.779-2.735a2.551 2.551 0 00-.941-2.194c-1.088-.855-2.535-1.131-3.808-1.544-2.128-.459-4.258-1.149-5.959-2.555-1.17-.965-1.99-2.36-2.149-3.871-.203-1.622.222-3.316 1.189-4.63 1.291-1.833 3.42-2.958 5.615-3.265zM446.19 94.112c-3.776-.04-7.552.003-11.327-.02-.744 1.665-1.452 3.358-2.17 5.033l-.088.209h-4.298l.208-.482c3.389-7.857 6.781-15.714 10.173-23.56.291-.729 1.037-1.223 1.809-1.198.799-.031 1.553.502 1.837 1.245 3.392 7.84 6.788 15.673 10.179 23.513l.207.482h-4.286l-.089-.208c-.721-1.666-1.46-3.336-2.155-5.014zm-24.365-2.385V74.094h3.985v23.204c.055.9-.566 1.797-1.455 1.987-.677.174-1.446-.034-1.893-.585-4.628-5.697-9.261-11.391-13.893-17.086l-.002 17.777h-4.002v-.345c0-7.605-.002-15.209.002-22.803-.07-1.13.981-2.176 2.116-2.09.614.02 1.161.36 1.54.828 4.529 5.585 9.065 11.166 13.602 16.746zm-34.576 3.557c4.27.009 8.539.009 12.809.02l.343.002v3.978h-.345c-4.772.004-9.544.004-14.317.001-.468 0-.899.044-1.329-.168a1.963 1.963 0 01-1.164-1.87c.001-7.624-.003-15.244 0-22.868v-.345h4.003v21.25zm-12.975-1.172c-3.776-.04-7.553.003-11.328-.02-.744 1.665-1.451 3.358-2.169 5.033l-.088.209h-4.3l.208-.482c3.391-7.856 6.782-15.714 10.175-23.56.291-.729 1.03-1.223 1.804-1.198.81-.031 1.557.502 1.842 1.245 3.392 7.84 6.789 15.673 10.179 23.513l.207.482h-4.286l-.089-.208c-.721-1.666-1.463-3.336-2.155-5.014zm-38.868 5.223h-4.897l-4.716-7.285c-1.729.002-3.928 0-5.657.002-.007 2.313.004 4.626.002 6.939v.344h-4.005v-.344c.003-7.647.005-15.295.004-22.942 0-1.058.939-1.975 1.988-1.953 2.366-.008 4.732-.003 7.099-.002a9.713 9.713 0 016.37 2.42c2.813 2.494 3.75 6.826 2.205 10.255-.77 1.708-2.118 3.124-3.742 4.041l5.349 8.525zm-37.725-21.242c-.003 2.1-.002 4.199-.002 6.299 3.039.003 6.077-.003 9.116.003h.345l.002 3.972-.335.01c-.053 0-.106 0-.149-.002h-8.979v6.908c4.505.001 9.011.003 13.516 0h.345v4.002h-.345c-5.182.002-10.364.002-15.539-.001-1.094.027-2.038-.958-1.977-2.037-.002-7.062-.006-14.12.001-21.175-.022-1.065.932-1.973 1.985-1.974 5.177-.005 10.353-.002 15.53-.004h.345v3.998h-.345c-4.505.002-9.01-.002-13.514.001zm-18.447 14.229c2.592-6.026 5.19-12.05 7.782-18.076l.09-.21h4.298l-.206.481c-3.366 7.85-6.761 15.69-10.128 23.53-.35.876-1.357 1.415-2.27 1.19-.67-.138-1.193-.656-1.457-1.272-3.347-7.822-6.728-15.63-10.084-23.448l-.206-.48h4.302l.09.209c2.592 6.028 5.199 12.048 7.789 18.076zm-14.563-17.94c.009 8.202.003 16.404 0 24.606v.344h-3.998v-.344c-.007-8.202-.004-16.404-.001-24.607v-.344h3.999v.344zm-13.728 17.287V74.037h3.986v23.202c.054.9-.567 1.798-1.456 1.988-.677.173-1.447-.034-1.893-.585-4.629-5.698-9.261-11.392-13.893-17.087v17.777h-4.003v-.344c-.001-7.605-.001-15.21.001-22.804-.07-1.129.982-2.175 2.116-2.089.615.02 1.161.358 1.541.828 4.53 5.585 9.065 11.166 13.601 16.746zM210.138 74.38c.004 4.695-.004 9.388.004 14.082.003 1.37.465 2.715 1.247 3.836 1.317 1.888 3.534 3.132 5.841 3.225 1.297.053 2.613-.234 3.75-.862 1.81-1 3.131-2.822 3.537-4.846.174-.866.143-1.764.143-2.642V74.037h4.005v14.177a11.88 11.88 0 01-.458 3.353c-.861 2.91-2.973 5.391-5.677 6.76-2.366 1.197-5.16 1.494-7.728.855a11.65 11.65 0 01-6.673-4.573 11.035 11.035 0 01-2.002-6.003v-14.57h4.011v.345zM436.47 90.116h8.055a6725.706 6725.706 0 00-4.001-9.502c-1.36 3.163-2.703 6.334-4.054 9.502zm-71.916 0h8.055c-1.333-3.168-2.664-6.336-4.002-9.502-1.359 3.163-2.702 6.334-4.053 9.502zm-44.416-12.023c-.002 3.325-.004 6.649.002 9.974l4.444-.001c.827.016 1.678-.02 2.473-.293 1.547-.498 2.878-1.748 3.31-3.335.384-1.41.08-2.978-.786-4.162-.948-1.346-2.577-2.165-4.22-2.177-1.74-.012-3.483-.005-5.223-.006z"/><path fill-rule="evenodd" clip-rule="evenodd" d="M161.07 55v16.548c.004.078.01.156.012.235l.01.229v22.04c0 10.572-8.052 19.646-18.115 21.696-.188.055-.377.108-.567.158a31.094 31.094 0 0010.927 1.975 31.178 31.178 0 0028.436-18.386 31.127 31.127 0 002.725-12.736V72.5C184.499 63.897 177.535 55 168.504 55h-7.434z"/><path fill-rule="evenodd" clip-rule="evenodd" d="M150.404 94.34l.001-22.436c-.369-8.567-6.786-16.703-15.75-16.902H127v37.897c0 15.392 20.536 17.313 23.28 2.28.051-.278.092-.558.124-.84z"/><path d="M264.978 129.381h-4.395l-1.258 3.469h-2.199l4.589-11.984h2.025l4.879 11.984h-2.327l-1.314-3.469zm88.68 11.175v-1.916H279.84v1.916h73.818zm0-27.477v1.915H279.84v-1.915h73.818zm-37.996 14.584l2.753 5.223h-2.428l-2.513-4.92c-.263.008-.525.01-.783.01h-2.075v4.874h-2.078v-11.984h5.338c.298 0 .597.005.896.018.28.012.562.042.837.101.261.057.517.136.762.242a3.077 3.077 0 011.579 1.66c.187.463.284.949.284 1.448 0 .407-.059.846-.193 1.23a3.099 3.099 0 01-.562.988 3.168 3.168 0 01-.884.719 4.677 4.677 0 01-.933.391zm-33.744-4.881v2.976h5.376v1.916h-5.376v5.176h-2.078v-11.984h8.273v1.916h-6.195zm15.402 6.599h-4.395l-1.259 3.469h-2.197l4.588-11.984h2.025l4.878 11.984h-2.326l-1.314-3.469zm7.774 3.469h-2.078v-11.984h2.078v11.984zm18.334-10.068v2.976h5.375v1.916h-5.375v5.176h-2.078v-11.984h8.272v1.916h-6.194zm14.837 6.599h-4.395l-1.259 3.469h-2.198l4.589-11.984h2.025l4.879 11.984h-2.327l-1.314-3.469zm9.821-1.168l-3.233 4.637h-2.57l4.589-6.309-4.165-5.675h2.555l2.814 4.004 2.82-4.004h2.575l-4.185 5.675 4.609 6.309h-2.554l-3.255-4.637zm27.011-3.314h-2.124l-.017-.264a1.996 1.996 0 00-.247-.859 2.125 2.125 0 00-.582-.659 2.709 2.709 0 00-.872-.429 3.827 3.827 0 00-1.1-.155c-.496 0-.988.079-1.445.279a2.965 2.965 0 00-1.087.81c-.33.39-.553.855-.702 1.341-.186.608-.254 1.255-.254 1.889 0 .631.067 1.277.254 1.882.151.486.371.953.696 1.348.293.356.65.63 1.071.816.453.202.937.284 1.432.284.71 0 1.435-.142 2.006-.589.537-.42.774-1.008.83-1.678l.022-.258h2.116l-.027.307a4.46 4.46 0 01-.485 1.726 4.1 4.1 0 01-1.055 1.282 4.676 4.676 0 01-1.518.799 6.128 6.128 0 01-1.863.274c-.797 0-1.584-.129-2.32-.44a4.955 4.955 0 01-1.776-1.254 5.616 5.616 0 01-1.126-1.962c-.278-.816-.389-1.678-.389-2.537s.114-1.72.396-2.535a5.655 5.655 0 011.127-1.961 5.014 5.014 0 011.772-1.26c.735-.314 1.519-.443 2.316-.443.615 0 1.225.084 1.811.274.55.179 1.063.44 1.52.796.442.346.804.761 1.085 1.247.289.499.449 1.046.505 1.619l.03.31zm8.006-4.229c.79 0 1.565.138 2.294.447a5.34 5.34 0 011.825 1.264 5.78 5.78 0 011.192 1.956c.301.805.427 1.658.427 2.515 0 .85-.122 1.694-.417 2.493a5.822 5.822 0 01-1.186 1.965 5.36 5.36 0 01-1.825 1.283 5.81 5.81 0 01-2.31.452 5.912 5.912 0 01-2.32-.446 5.272 5.272 0 01-1.826-1.271 5.795 5.795 0 01-1.189-1.965c-.298-.805-.421-1.655-.421-2.511 0-.861.126-1.717.427-2.526a5.692 5.692 0 011.202-1.961 5.34 5.34 0 011.826-1.255 5.925 5.925 0 012.301-.44zm17.819 3.914l-2.781 8.266h-1.762l-2.795-8.274v8.274h-1.989v-11.984h2.763l2.896 8.889 2.912-8.889h2.763v11.984h-2.007v-8.266zm7.351 3.712v4.554h-2.078v-11.984h4.555c.574 0 1.147.049 1.712.153a4.28 4.28 0 011.505.566c.45.281.807.658 1.067 1.121.3.536.395 1.167.395 1.774 0 1.109-.315 2.136-1.192 2.856-.927.762-2.216.96-3.38.96h-2.584zm16.307 1.085h-4.396l-1.258 3.469h-2.198l4.589-11.984h2.025l4.879 11.984h-2.327l-1.314-3.469zm7.488-4.896v8.365h-1.988v-11.984h1.988l5.559 8.368v-8.368h2.008v11.984h-1.989l-5.578-8.365zm16.195 3.323v5.042h-2.078v-5.042l-4.757-6.942h2.54l3.252 5.008 3.241-5.008H453l-4.737 6.942zm-183.947-.201l-1.593-4.189-1.518 4.189h3.111zm32.342 0l-1.593-4.189-1.517 4.189h3.11zm13.958-1.565h3.109c.569 0 1.398-.054 1.882-.391.665-.462.677-1.855.131-2.424-.396-.412-1.058-.534-1.788-.534h-3.334v3.349zm26.986 1.565l-1.593-4.189-1.517 4.189h3.11zm45.489 3.575c.505 0 .997-.09 1.459-.293a3.216 3.216 0 001.144-.838c.346-.393.59-.857.758-1.351.202-.591.276-1.223.276-1.845 0-.626-.074-1.264-.281-1.858a4 4 0 00-.759-1.347 3.094 3.094 0 00-1.127-.819 3.616 3.616 0 00-1.437-.28c-.505 0-.997.091-1.461.289a3.153 3.153 0 00-1.146.828 4.023 4.023 0 00-.758 1.347c-.205.589-.281 1.218-.281 1.84 0 .622.074 1.254.273 1.846.166.493.408.958.752 1.35.318.363.696.643 1.136.839.46.204.95.292 1.452.292zm25.182-4.82h2.631c.584 0 1.421-.066 1.886-.467.407-.351.525-.867.525-1.385 0-.292-.038-.627-.187-.884a1.366 1.366 0 00-.498-.509 2.213 2.213 0 00-.776-.261 6.475 6.475 0 00-1.003-.074h-2.578v3.58zm15.644 1.245l-1.592-4.189-1.518 4.189h3.11z"/></svg>