<?xml version="1.0" encoding="utf-8"?><svg width="579" height="196" xmlns="http://www.w3.org/2000/svg" viewBox="0 0 579 196"><path d="M202.349 156.716c33.883 0 61.35-27.471 61.35-61.358S236.232 34 202.349 34C168.467 34 141 61.471 141 95.358s27.467 61.358 61.349 61.358z"/><path opacity=".75" d="M244.952 130.142a1.926 1.926 0 013.195 1.205c.058.468-.058.94-.325 1.328a58.83 58.83 0 01-83.946 7.47 58.858 58.858 0 01-20.388-40.944 58.85 58.85 0 0115.091-43.179c1.547-1.681 4.17.539 2.87 2.423a63.223 63.223 0 00-11.055 36.913 52.016 52.016 0 0015.23 36.73 51.997 51.997 0 0036.724 15.232s21.459 2.041 42.604-17.178z"/><g opacity=".75"><path d="M255.357 123.144a59.922 59.922 0 006.159-36.455 59.92 59.92 0 00-49.129-50.327 59.908 59.908 0 00-36.587 5.285"/><path d="M255.357 123.144a59.922 59.922 0 006.159-36.455 59.92 59.92 0 00-49.129-50.327 59.908 59.908 0 00-36.587 5.285" stroke="#727272" stroke-width="1.262" stroke-miterlimit="10" stroke-linecap="round"/></g><mask id="ata" style="mask-type:alpha" maskUnits="userSpaceOnUse" x="157" y="50" width="92" height="92"><path d="M202.721 141.374c25.206 0 45.639-20.436 45.639-45.646 0-25.209-20.433-45.645-45.639-45.645-25.206 0-45.639 20.436-45.639 45.645 0 25.21 20.433 45.646 45.639 45.646z"/></mask><g mask="url(#ata)"><path d="M202.719 141.374c25.206 0 45.639-20.436 45.639-45.646 0-25.209-20.433-45.645-45.639-45.645-25.206 0-45.639 20.436-45.639 45.645 0 25.21 20.433 45.646 45.639 45.646z"/><path d="M154.851 100.992c3.962 14.789 19.161 23.566 33.949 19.603a27.615 27.615 0 009.886-4.92 39.915 39.915 0 00-1.369-10.313c-4.619-17.24-19.85-28.803-36.78-29.541-5.712 6.707-8.138 16.018-5.686 25.171z"/><path opacity=".75" d="M203.032 141.93c25.205 0 45.638-20.436 45.638-45.645a45.489 45.489 0 00-3.61-17.822 65.746 65.746 0 00-16.983-2.217c-29.383 0-54.259 19.299-62.648 45.914 8.231 11.942 22.003 19.77 37.603 19.77z"/><path opacity=".5" d="M202.719 141.374c25.206 0 45.639-20.436 45.639-45.646 0-25.209-20.433-45.645-45.639-45.645-25.206 0-45.639 20.436-45.639 45.645 0 25.21 20.433 45.646 45.639 45.646z"/><path opacity=".25" d="M248.234 101.359c-.106 6.492-2.174 13.302-6.317 19.402-4.142 6.1-9.711 10.532-15.705 13.023l-5.217-6.546c5.617-1.377 11.032-5.048 14.819-10.624 3.786-5.576 5.204-11.963 4.414-17.693l8.006 2.438zM171.816 69.524c1.938-3.131 4.936-6.058 8.751-8.261 3.816-2.203 7.849-3.337 11.53-3.45l.671 4.131c-3.171-.359-6.907.433-10.395 2.447-3.487 2.014-6.041 4.854-7.316 7.78l-3.241-2.647z"/><path opacity=".25" d="M238.99 123.313a45.421 45.421 0 01-25.696 7.917c-25.206 0-45.639-20.436-45.639-45.645a45.448 45.448 0 019.368-27.709c-12.039 8.218-19.943 22.05-19.943 37.728 0 25.21 20.433 45.646 45.639 45.646 14.786 0 27.931-7.033 36.271-17.937z"/><path d="M192.701 79.03l17.81-17.257v67.911h-17.81V79.029z" fill="#fff"/></g><path opacity=".8" d="M185.932 167.696v.112h-.74l-.358-.112h-.225v-.135l1.884-8.028a.113.113 0 010-.113.143.143 0 01.067-.018.14.14 0 01.067.018h.583c.132.021.26.059.382.113h.201a.276.276 0 010 .134l-1.861 8.029zm2.669-10.698a.883.883 0 01-.359.651 1.054 1.054 0 01-.762 0 1.036 1.036 0 01-.651-.359.906.906 0 010-.718c.03-.262.158-.502.359-.673.255-.084.53-.084.785 0 .254.035.485.163.65.36a.892.892 0 01-.022.739zM158.089 145.738c-.111.118-.24.217-.382.294a.265.265 0 01-.269 0l-.853-.835c.001.295-.06.588-.18.858a2.909 2.909 0 01-.493.677c-.284.33-.637.592-1.033.768a2.831 2.831 0 01-1.123.226 3.04 3.04 0 01-1.144-.294 4.494 4.494 0 01-1.078-.768 3.149 3.149 0 01-.583-.768 2.534 2.534 0 01-.292-.79h-.449a1.222 1.222 0 00-.404.294.611.611 0 00-.157.587c.031.291.148.567.336.79l1.504 1.581c.265.274.498.577.696.904.158.289.271.602.337.926.063.305.063.62 0 .926a1.94 1.94 0 01-.494.812c-.255.278-.57.495-.92.633-.359.13-.743.176-1.123.135a3.738 3.738 0 01-1.324-.429 6.49 6.49 0 01-1.437-1.084 7.798 7.798 0 01-1.122-1.31 4.233 4.233 0 01-.606-1.152 1.926 1.926 0 010-.948c.09-.298.252-.57.471-.79.142-.146.3-.274.471-.384.168-.103.349-.179.539-.226.246-.086.504-.131.763-.136h.696a1.753 1.753 0 010-.881c.059-.265.191-.508.382-.699.233-.257.527-.451.853-.565.258-.061.521-.099.786-.113.013-.296.082-.587.202-.858a2.77 2.77 0 01.583-.858 3.48 3.48 0 01.988-.746c.355-.175.75-.253 1.145-.225.39 0 .774.093 1.122.27.396.191.76.442 1.078.746l.471.519c.142.162.269.336.382.52l1.796 1.739a.275.275 0 010 .27 1.204 1.204 0 01-.135.384zm-7.206 5.195a.904.904 0 00.247-.881 2.258 2.258 0 00-.628-1.061l-1.504-1.536a3.219 3.219 0 00-.651 0 1.438 1.438 0 00-.472 0 1.006 1.006 0 00-.381.18l-.292.227a.988.988 0 00-.18 1.083 3.453 3.453 0 001.01 1.401c.265.284.577.521.921.7.232.143.492.235.763.271.214.047.436.047.651 0a1.65 1.65 0 00.516-.384zm3.973-5.262a1.8 1.8 0 00.425-.583 1.8 1.8 0 00.159-.705 1.815 1.815 0 00-.606-1.264 2.479 2.479 0 00-.651-.43 1.772 1.772 0 00-.673 0 1.68 1.68 0 00-.651.204c-.226.089-.438.21-.629.361a1.82 1.82 0 00-.561 1.265c.035.477.252.922.606 1.242.197.183.425.328.673.429.234.066.479.081.719.045a2.23 2.23 0 00.651-.203c.198-.09.38-.212.538-.361zM165.43 155.269a.582.582 0 01-.449.317.704.704 0 01-.426 0l-4.49-3.095a5.911 5.911 0 00-.584 1.107c-.127.331-.18.685-.157 1.039.043.347.166.68.359.971.243.361.556.668.921.904.292.197.6.371.92.519l.786.271.583.135a.725.725 0 01.315.09v.114a.366.366 0 010 .18l-.135.249s0 .113-.135.158v.113a.12.12 0 01-.056.015.12.12 0 01-.056-.015 1.003 1.003 0 01-.337 0l-.673-.181a7.984 7.984 0 01-.853-.361 5.142 5.142 0 01-1.167-.272 4.65 4.65 0 01-1.302-1.264 3.302 3.302 0 01-.607-1.423 3.716 3.716 0 01.158-1.829 6.216 6.216 0 01.92-1.694 6.14 6.14 0 011.302-1.422 4.15 4.15 0 011.481-.746 3.581 3.581 0 011.549 0 4.359 4.359 0 011.527.677c.481.303.888.713 1.19 1.198.251.402.405.858.449 1.332a3.39 3.39 0 01-.158 1.4 6.007 6.007 0 01-.673 1.378l-.202.135zm-1.01-1.242a2.77 2.77 0 00.606-1.852 2.09 2.09 0 00-.965-1.423 2.398 2.398 0 00-.943-.384 2.002 2.002 0 00-.898 0 2.665 2.665 0 00-.831.384 2.95 2.95 0 00-.696.701l3.727 2.574zM172.433 163.264a2.458 2.458 0 01-.225.384.622.622 0 01-.202.158h-.987l-.404-.158a3.312 3.312 0 01-.921-.632 1.999 1.999 0 01-.449-.791 2.442 2.442 0 010-.993 4.16 4.16 0 01.427-1.175l2.087-4.381-1.055-.497a.331.331 0 01-.092-.098.323.323 0 01-.042-.127c.014-.166.059-.327.134-.475l.157-.271.135-.136a.208.208 0 01.135 0h.134l1.033.52.853-1.784h.382l.336.158c.122.041.235.102.337.18l.18.136a.302.302 0 010 .158l-.853 1.784 1.908.926a.236.236 0 01.112 0v.136a.629.629 0 010 .203l-.112.271a.857.857 0 01-.292.406.245.245 0 01-.247 0l-1.908-.925-1.998 4.178a2.74 2.74 0 00-.337 1.287.953.953 0 00.629.79l.359.113h.696a.686.686 0 010 .181c.052.153.082.312.09.474zM217.912 168.12a1.71 1.71 0 010 .429.42.42 0 010 .248l-.202.181-.315.158-.381.136h-.404a3.842 3.842 0 01-1.123 0c-.3-.07-.583-.201-.83-.384a2.27 2.27 0 01-.562-.791 6.774 6.774 0 01-.336-1.219l-.921-4.675-1.144.203a.284.284 0 01-.138-.026.281.281 0 01-.109-.087 1.296 1.296 0 01-.158-.452 1.593 1.593 0 010-.293.714.714 0 010-.226h.135l1.122-.203-.314-1.943v-.135a.269.269 0 01.113 0 .426.426 0 01.224 0h1.1l.336 1.965 2.088-.362h.135a.46.46 0 010 .181v.294a.909.909 0 010 .496.276.276 0 01-.077.118.257.257 0 01-.125.063l-1.616.249.785 4.516c.046.449.208.878.472 1.243a.933.933 0 00.965.27h.359l.27-.135.202-.135a.235.235 0 01.157 0v.158a.822.822 0 01.292.158zM229.495 160.938a6.86 6.86 0 01.337 1.852 4.385 4.385 0 01-.293 1.649c-.208.51-.531.966-.942 1.332a4.792 4.792 0 01-1.639.926 5.265 5.265 0 01-1.796.271 3.454 3.454 0 01-1.459-.429 3.876 3.876 0 01-1.167-1.107 6.378 6.378 0 01-.83-1.716 7.034 7.034 0 01-.337-1.852 3.987 3.987 0 01.291-1.648c.209-.512.532-.967.943-1.333a4.456 4.456 0 011.639-.903 4.785 4.785 0 011.773-.294c.522.033 1.03.187 1.482.452.461.274.858.643 1.167 1.084.361.527.641 1.105.831 1.716zm-1.459.587a6.265 6.265 0 00-.516-1.174 3.065 3.065 0 00-.741-.858 2.012 2.012 0 00-.943-.429 2.493 2.493 0 00-1.257.135c-.385.109-.734.32-1.01.61a2.034 2.034 0 00-.562.88 3.202 3.202 0 00-.112 1.152c.029.44.12.874.269 1.288.131.408.304.802.517 1.174.192.329.443.621.74.858.278.228.612.376.966.429.416.062.841.015 1.235-.135a2.753 2.753 0 001.032-.61c.245-.248.429-.549.539-.881a2.719 2.719 0 000-1.129 4.744 4.744 0 00-.157-1.31zM242.784 158.882a.284.284 0 010 .136c.01.045.01.091 0 .136l-.156.158-.293.158-.314.158h-.202a.185.185 0 01-.135 0l-.516-.949a4.965 4.965 0 01-.673 1.671 2.948 2.948 0 01-1.055.994 3.056 3.056 0 01-1.347.452 2.563 2.563 0 01-1.167-.226 3.185 3.185 0 01-.966-.722 6.84 6.84 0 01-.875-1.265l-2.425-4.517a.156.156 0 01-.014-.068c0-.023.004-.046.014-.068a.34.34 0 010-.135.499.499 0 01.203-.158c.054-.058.114-.111.179-.158a1.38 1.38 0 01.314-.158h.382l2.245 4.223c.192.339.41.664.651.971.184.204.406.373.651.497.224.108.47.162.718.158.26-.023.512-.1.741-.226a2.043 2.043 0 001.033-.881 5.89 5.89 0 00.471-1.536l-2.716-5.148a.284.284 0 010-.136.312.312 0 010-.136l.18-.157.336-.204a1.38 1.38 0 01.314-.158h.382l4.04 7.294zM252.166 150.323l.157.226v.181c.01.045.01.091 0 .135v.226c-.035.16-.081.319-.134.474a3.187 3.187 0 01-.292.633 3.639 3.639 0 01-.449.632 4.942 4.942 0 01-.606.587 3.625 3.625 0 01-1.414.768 2.822 2.822 0 01-1.437 0 3.905 3.905 0 01-1.414-.632 6.862 6.862 0 01-1.369-1.333 6.765 6.765 0 01-.943-1.784 4.537 4.537 0 01-.27-1.648 3.13 3.13 0 01.449-1.423 4.134 4.134 0 011.011-1.13l.628-.428c.216-.11.442-.201.673-.271.197-.067.4-.112.607-.136h.808l.157.136.18.203c.111.149.195.317.246.496v.249a.485.485 0 01-.336 0h-.584c-.244.027-.485.08-.719.158a2.086 2.086 0 00-.808.452 1.898 1.898 0 00-.785 1.716c.126.84.493 1.624 1.055 2.259.296.37.635.704 1.01.993.289.229.616.404.965.52.31.078.634.078.943 0 .327-.099.632-.261.898-.475.233-.142.438-.326.606-.542a3.74 3.74 0 00.224-.813c.068-.191.121-.387.158-.587a.586.586 0 01.157-.316h.134l.158.158.336.316zM261.999 141.718v.362l-.247.294-.247.271a.784.784 0 01-.202.135h-.135l-3.793-3.049a4.122 4.122 0 00-.92-.677 2.226 2.226 0 00-.764-.248 1.271 1.271 0 00-.718 0c-.25.105-.473.267-.651.473-.265.32-.422.715-.449 1.13a6.571 6.571 0 000 1.693l4.332 3.84a.42.42 0 010 .158.98.98 0 01-.112.203 2.073 2.073 0 01-.224.294l-.135.474-.18.135h-.269l-9.181-8.22v-.158a2.13 2.13 0 010-.226 2.35 2.35 0 01.247-.271 1.53 1.53 0 01.404-.361v-.136a.223.223 0 01.157 0l3.704 3.297a4.934 4.934 0 010-1.671c.108-.451.324-.87.628-1.219a2.95 2.95 0 011.123-.859c.466-.2.98-.263 1.481-.18.401.047.789.17 1.145.361.454.249.877.552 1.257.904l3.749 3.251zM199.408 169.557a.182.182 0 010 .113.236.236 0 01-.112 0h-1.211l-.112-.113.359-5.001c.045-.38.045-.764 0-1.143a2.57 2.57 0 00-.269-.763 1.215 1.215 0 00-.493-.516 1.709 1.709 0 00-.763-.246 1.942 1.942 0 00-1.166.314 5.717 5.717 0 00-1.3 1.076l-.494 5.763a.182.182 0 010 .113.205.205 0 01-.134 0H192.412a.307.307 0 010-.135l.718-8.231v-.111H194.004a.406.406 0 01.202 0h.112v.134l-.112 1.077a5.404 5.404 0 011.48-1.01 3.294 3.294 0 011.435-.246 3.39 3.39 0 011.368.403c.34.206.625.49.83.83.206.352.343.74.403 1.144a6.513 6.513 0 010 1.503l-.314 5.045z"/><path fill-rule="evenodd" clip-rule="evenodd" d="M428.685 61.998h-11.929l-9.866 43.776h9.216l1.973-10.63h8.969l2.242 10.63H439l-10.315-43.776zm-9.417 24.288l1.479-7.67c.179-.852.336-1.749.493-2.713.157-.965.337-1.884.494-2.848a59.59 59.59 0 01.493-2.692c.179.853.381 1.75.583 2.692l.606 2.848c.201.92.381 1.816.56 2.646l1.682 7.737h-6.39zM362.65 61.998v43.799h40.474V61.999h-8.565v33.908h-7.4V61.999h-8.566v33.908h-7.399V61.999h-8.544zM358.725 71.485a14.896 14.896 0 00-1.345-3.655 10.169 10.169 0 00-1.95-2.714 11.223 11.223 0 00-4.081-2.579 17.74 17.74 0 00-6.077-.92c-1.817 0-3.454 0-4.866.136-1.413.134-2.668.201-3.744.358a55.296 55.296 0 00-2.804.471v43.193h8.633v-14.6l1.032.113c.448.025.897.025 1.345 0 2.201.059 4.39-.33 6.436-1.144a12.197 12.197 0 004.843-3.656 11.867 11.867 0 001.704-2.915c.463-1.172.801-2.39 1.009-3.633.227-1.356.339-2.729.336-4.104a18.355 18.355 0 00-.471-4.35zm-8.969 7.827a4.885 4.885 0 01-2.04 2.063 6.103 6.103 0 01-2.983.696h-1.367a8.07 8.07 0 01-.807-.27V70.97a6.158 6.158 0 011.076-.18h1.794a5.873 5.873 0 012.892.673 4.103 4.103 0 011.727 1.817c.397.871.588 1.823.56 2.78a6.872 6.872 0 01-.74 3.252h-.112zM328.588 78.572h-12.669v-6.684h13.476v-9.89h-22.221v43.799h22.916v-9.89h-14.171v-7.468h12.669v-9.867zM273.652 61.998v43.799h8.746V71.888h11.099v33.909h8.745V61.999h-28.59zM433.214 113.333h-5.539l-4.485 15.227h4.283l.92-3.723h4.215l1.076 3.723h4.485l-4.955-15.227zm-4.328 8.387l.673-2.646c0-.314.157-.628.247-.942.089-.314.134-.673.224-.987.089-.313.134-.65.224-.942.089.284.179.598.269.942l.269.987c.107.301.197.608.269.919l.785 2.669h-2.96zM414.222 121.025a4.478 4.478 0 00-1.57-.763c.52-.183 1-.465 1.413-.829.346-.298.615-.675.784-1.1.172-.388.257-.809.247-1.233.001-.5-.098-.996-.291-1.457a3.226 3.226 0 00-.807-1.077 3.608 3.608 0 00-1.121-.695 4.994 4.994 0 00-.875-.292 5.94 5.94 0 00-.987-.202H404.221l-.874.135v14.936c.403 0 .941.112 1.637.179h2.533c.929 0 1.858-.052 2.781-.157.701-.08 1.392-.23 2.063-.448a5.34 5.34 0 001.435-.696c.358-.178.69-.404.986-.672.277-.344.497-.73.651-1.144.145-.449.221-.918.224-1.391a3.812 3.812 0 00-.359-1.704 3.986 3.986 0 00-1.076-1.39zm-6.727-4.688H408.953a3.106 3.106 0 011.614.337 1.161 1.161 0 01.538 1.009 1.205 1.205 0 01-.673 1.099 4.495 4.495 0 01-2.085.404h-.852v-2.849zm3.543 8.522a2.06 2.06 0 01-.92.606c-.43.121-.875.181-1.322.179H407.495v-3.475h1.054c.491-.021.982.032 1.457.157.389.076.747.263 1.032.538a1.357 1.357 0 01.359 1.009c-.03.376-.198.727-.471.986h.112zM392.786 115.284a6.71 6.71 0 00-2.444-1.637 8.938 8.938 0 00-3.296-.583 8.745 8.745 0 00-3.251.583 8.023 8.023 0 00-2.511 1.659 7.36 7.36 0 00-1.593 2.557 8.675 8.675 0 00-.582 3.207 9.104 9.104 0 00.515 3.072 7.413 7.413 0 001.525 2.512 6.715 6.715 0 002.422 1.637 8.518 8.518 0 003.206.606 9.36 9.36 0 003.364-.606 7.042 7.042 0 002.534-1.659 7.405 7.405 0 001.592-2.535 8.984 8.984 0 00.56-3.184 8.645 8.645 0 00-.538-3.095 6.929 6.929 0 00-1.503-2.534zm-2.511 7.49a4.475 4.475 0 01-.695 1.458 2.985 2.985 0 01-1.099.942c-.452.25-.963.373-1.48.359a3.005 3.005 0 01-1.479-.359 3.467 3.467 0 01-1.122-.942 4.882 4.882 0 01-.695-1.458 5.727 5.727 0 01-.246-1.816 5.971 5.971 0 01.246-1.817c.144-.523.38-1.016.695-1.458a3.61 3.61 0 011.122-.986c.46-.228.967-.343 1.479-.337a3.102 3.102 0 011.458.337c.447.234.831.573 1.121.986.332.435.575.93.718 1.458.175.589.258 1.202.246 1.817a5.735 5.735 0 01-.269 1.816zM371.24 113.333h-4.799l-.987 2.422-.314.785c0 .246-.202.516-.291.785-.09.269-.202.583-.337.919l-.336-.83a9.408 9.408 0 01-.359-.829 9.765 9.765 0 00-.403-.875l-1.099-2.377h-4.888l4.484 7.535-4.484 7.692h4.664l1.121-2.556c.157-.314.291-.606.404-.897l.358-.83c.113-.269.202-.538.292-.83l.426.83.381.852.448.919 1.189 2.512h4.843l-4.686-7.871 4.373-7.356zM339.51 113.333l-4.485 15.227h4.261l.941-3.723h4.193l1.099 3.723h4.485l-4.955-15.227h-5.539zm1.278 8.387l.673-2.646c0-.314.157-.628.247-.942.089-.314.134-.673.224-.987.089-.313.134-.65.224-.942.089.284.179.598.269.942l.269.987.269.919.785 2.669h-2.96zM326.706 115.44a3.605 3.605 0 00-.897-.942 5.698 5.698 0 00-1.929-.897 11.024 11.024 0 00-2.78-.403h-2.242l-1.749.112-1.3.179v15.026h4.035v-5.046h1.077a10.248 10.248 0 003.005-.404 5.777 5.777 0 002.242-1.256c.317-.298.582-.646.785-1.032.223-.392.389-.815.493-1.255.099-.472.151-.953.157-1.435a5.551 5.551 0 00-.247-1.525 3.973 3.973 0 00-.65-1.122zm-3.498 3.992a2.042 2.042 0 01-.942.718 3.869 3.869 0 01-1.412.246h-1.032v-3.947h1.323c.459-.017.917.06 1.345.225.325.126.605.345.808.628a2.107 2.107 0 010 2.13h-.09zM295.246 116.809h4.081v11.751h4.059v-11.751h4.17v-3.476h-12.31v3.476zM280.492 117.549a4.21 4.21 0 011.458-.807 6.306 6.306 0 011.749-.247 7.513 7.513 0 011.255 0c.355.057.707.132 1.054.224l.852.314.83-3.296a4.47 4.47 0 00-.964-.381 15.554 15.554 0 00-1.435-.292 14.176 14.176 0 00-1.749 0 10.877 10.877 0 00-2.736.336 8.618 8.618 0 00-2.377 1.01 7.034 7.034 0 00-1.906 1.636 7.14 7.14 0 00-1.233 2.243 8.975 8.975 0 00-.448 2.871 8.34 8.34 0 00.313 2.377c.207.747.541 1.452.987 2.085a6.496 6.496 0 001.659 1.66c.729.511 1.541.89 2.4 1.121 1.014.284 2.064.42 3.117.404.608.004 1.215-.041 1.816-.135.477-.051.95-.141 1.412-.269.311-.077.612-.191.897-.336l-.605-3.274a3.82 3.82 0 01-.852.269 7.26 7.26 0 01-1.054.202 9.923 9.923 0 01-1.144 0 5.946 5.946 0 01-1.973-.337 4.142 4.142 0 01-1.48-.919 3.96 3.96 0 01-.919-1.391 5.207 5.207 0 01-.314-1.816 5.036 5.036 0 01.381-1.951 3.763 3.763 0 011.009-1.301z"/></svg>