<?xml version="1.0" encoding="utf-8"?><svg width="115" height="115" fill="none" xmlns="http://www.w3.org/2000/svg" viewBox="0 0 115 115"><g clip-path="url(#beclip0_159_3104)"><rect width="115" height="115" rx="37" fill="url(#bepaint0_radial_159_3104)"/><path opacity=".3" fill-rule="evenodd" clip-rule="evenodd" d="M27.49 57.5c0-16.574 13.436-30.01 30.01-30.01S87.51 40.926 87.51 57.5 74.074 87.51 57.5 87.51 27.49 74.074 27.49 57.5zM57.5 26.865c-16.92 0-30.635 13.716-30.635 30.635 0 16.92 13.716 30.635 30.635 30.635 16.92 0 30.635-13.716 30.635-30.635 0-16.92-13.716-30.635-30.635-30.635zM36.362 57.5c0-11.674 9.464-21.138 21.138-21.138 11.674 0 21.138 9.464 21.138 21.138 0 11.674-9.464 21.138-21.138 21.138-11.674 0-21.138-9.464-21.138-21.138zM57.5 35.737c-12.02 0-21.763 9.744-21.763 21.763 0 12.02 9.744 21.763 21.763 21.763 12.02 0 21.763-9.744 21.763-21.763 0-12.02-9.744-21.763-21.763-21.763z" fill="#fff"/><circle opacity=".1" cx="57.5" cy="57.5" r="43.125" stroke="#fff" stroke-width=".625"/><rect x="7.188" y="7.188" width="100.625" height="100.625" rx="6.875" stroke="#fff" stroke-width=".667"/><path d="M115 0H0v115h115V0z" fill="#C6F3F8"/><path fill-rule="evenodd" clip-rule="evenodd" d="M74.247 57.223c-2.662-.34-5.207-.65-5.207-2.704 0-.256-.096-3.152 4.792-3.152 5.037 0 5.399 3.556 5.399 3.556h4.834c0-2.236-1.448-7.432-10.67-7.432-.958 0-9.178.309-9.178 7.347 0 3.269 1.33 5.611 8.72 6.42 6.336.693 6.645 2.3 6.645 3.068 0 2.79-2.3 3.492-5.186 3.492-5.441 0-5.92-4.014-5.92-4.014h-4.834c0 1.405.543 7.9 11.02 7.9 7.337 0 9.85-4.163 9.85-7.506 0-2.918-1.225-5.995-10.265-6.975zM22.785 48.769v5.366c0 .543.436.98.98.98H37.5v4.45H23.764a.977.977 0 00-.98.98v5.41c0 .543.437.98.98.98h13.843v4.44H18.025v-22.99c0-.458.18-.894.5-1.214l3.376-3.364c.32-.32.756-.501 1.214-.501h14.481V47.8H23.754a.96.96 0 00-.97.969z" fill="#2C2A2D"/><path d="M99.068 47.8v4.685h-7.007a.977.977 0 00-.98.98v17.93h-4.823V52.837c0-.458.181-.894.5-1.214l3.323-3.322c.32-.32.756-.5 1.214-.5h7.773z" fill="#2C2A2D"/><path fill-rule="evenodd" clip-rule="evenodd" d="M52.45 47.48c-3.62 0-5.984 1.927-7.049 3.535h-.681V47.79H40.14v23.607h4.802V60.332c0-6.25 3.067-8.23 6.698-8.145 3.067.074 5.41.83 5.41 6.314v12.895h4.876V57.85c-.096-3.343-.937-10.37-9.477-10.37z" fill="#2C2A2D"/></g><defs><radialGradient id="bepaint0_radial_159_3104" cx="0" cy="0" r="1" gradientUnits="userSpaceOnUse" gradientTransform="rotate(45) scale(162.635)"><stop stop-color="#19B6F0"/><stop offset="1" stop-color="#1869E2"/></radialGradient><clipPath id="beclip0_159_3104"><rect width="115" height="115" rx="37" fill="#fff"/></clipPath></defs></svg>