<?xml version="1.0" encoding="utf-8"?><svg width="239" height="163" fill="none" xmlns="http://www.w3.org/2000/svg" viewBox="0 0 239 163"><path d="M56.954 58.47A29.233 29.233 0 0136.268 8.565a29.235 29.235 0 0149.91 20.669 29.277 29.277 0 01-29.224 29.234zm0-53.161A23.937 23.937 0 1080.88 29.235 23.958 23.958 0 0056.954 5.309zM64.096 162.65H34.363a22.174 22.174 0 01-15.788-6.538L6.538 144.086A22.183 22.183 0 010 128.297v-26.151A22.135 22.135 0 016.527 86.4l12.907-12.906a22.137 22.137 0 0115.756-6.527h21.764v5.298H35.19a16.953 16.953 0 00-12.016 4.96L10.257 90.14a16.89 16.89 0 00-4.97 11.995v26.151a16.887 16.887 0 004.991 12.037l12.038 12.037a16.956 16.956 0 0012.037 4.98h29.732a.527.527 0 00.53-.529v-16.583a.53.53 0 00-.53-.53H44.6a13.15 13.15 0 01-9.357-3.878l-12.154-12.143 3.751-3.751 12.143 12.143a7.897 7.897 0 002.574 1.729 7.9 7.9 0 003.042.602h19.486a5.828 5.828 0 015.828 5.828v16.583a5.832 5.832 0 01-1.699 4.124 5.825 5.825 0 01-4.118 1.714z" fill="#2C2A2D"/><path d="M90.713 77.224a16.861 16.861 0 00-11.995-4.97H56.953v-5.297h21.765a22.137 22.137 0 0115.745 6.527l-3.75 3.74zM57.782 128.234h-2.194l-.795-.773-8.604-8.604a3.725 3.725 0 01-1.006-3.423l7.862-35.825a3.71 3.71 0 017.247 0l7.863 35.836a3.662 3.662 0 01-.996 3.412l-9.378 9.377zm-7.238-12.503l6.125 6.124 6.125-6.124-6.125-27.91-6.125 27.91z" fill="#2C2A2D"/><path d="M187.553 157.193l-13.775-13.775a10.59 10.59 0 01-3.094-7.417V92.928a3.175 3.175 0 012.84-3.18c10.479-1.059 25.96-7.416 28.471-12.65a1.428 1.428 0 011.22-.781 1.421 1.421 0 011.27.696c3.232 5.15 17.388 11.655 28.122 12.715a3.18 3.18 0 012.84 3.179v43.052a10.59 10.59 0 01-3.105 7.491l-13.775 13.775a10.594 10.594 0 01-7.47 3.105l-16.074.053a10.584 10.584 0 01-7.47-3.19z" fill="#FFFFAF"/><path d="M195.065 162.968a13.314 13.314 0 01-9.388-3.899l-13.775-13.775a13.143 13.143 0 01-3.857-9.346V92.875a5.797 5.797 0 015.224-5.785c10.596-1.06 24.561-7.492 26.352-11.18a4.027 4.027 0 013.402-2.267 4.099 4.099 0 013.708 1.928c2.617 4.165 15.767 10.501 26.141 11.519a5.795 5.795 0 015.234 5.796v43.052a13.146 13.146 0 01-3.878 9.356l-13.775 13.775a13.158 13.158 0 01-9.325 3.878l-16.074.053.011-.032zm-5.637-7.64a8.059 8.059 0 005.658 2.342l16.064-.053a7.882 7.882 0 005.605-2.32l13.775-13.775a7.88 7.88 0 002.331-5.616V92.854a.497.497 0 00-.455-.52c-10.597-1.059-24.022-6.982-29.002-12.535-4.938 6.093-20.302 11.571-29.542 12.525a.532.532 0 00-.466.52v43.072a7.878 7.878 0 002.32 5.606l13.712 13.806z" fill="#2C2A2D"/><path d="M214.477 121.612c-1.727-1.653-4.472-2.83-8.159-3.508l-5.775-1.059c-3.868-.742-5.754-2.512-5.754-5.436a5.503 5.503 0 012.119-4.461 9.159 9.159 0 015.977-1.759c2.4-.131 4.769.594 6.686 2.045a6.206 6.206 0 012.426 4.97v.339h4.885v-.339a10.395 10.395 0 00-3.285-7.841 13.088 13.088 0 00-6.982-3.338 16.701 16.701 0 00-2.671-.191h-1.695a15.518 15.518 0 00-3.614.371 11.887 11.887 0 00-5.668 2.977 9.713 9.713 0 00-3.041 7.227c0 5.298 3.094 8.636 9.208 9.791l7.078 1.314c4.058.773 6.029 2.638 6.029 5.7a5.411 5.411 0 01-2.119 4.483c-1.452 1.144-3.698 1.737-6.686 1.737a10.66 10.66 0 01-6.899-2.055 6.11 6.11 0 01-2.469-4.959v-.339h-4.884v.339a10.272 10.272 0 003.253 7.544 13.027 13.027 0 005.298 3.115c1.61.494 3.286.734 4.97.71h2.352a13.47 13.47 0 008.879-3.179 9.678 9.678 0 003.264-7.417 9.069 9.069 0 00-2.723-6.781z" fill="#2C2A2D"/><path d="M205.447 91.942h-4.683v11.55h4.683v-11.55zM205.447 136.457h-4.683v11.55h4.683v-11.55zM141.489 58.47a29.236 29.236 0 1129.234-29.235 29.277 29.277 0 01-29.234 29.234zm0-53.161a23.936 23.936 0 1023.936 23.926 23.955 23.955 0 00-23.936-23.926zM148.643 162.65h-29.744a22.167 22.167 0 01-15.788-6.538l-12.026-12.026a22.182 22.182 0 01-6.538-15.789v-26.151A22.124 22.124 0 0191.064 86.4l12.916-12.906a22.112 22.112 0 0115.746-6.527h21.765v5.298h-21.765a16.96 16.96 0 00-12.005 4.97L94.814 90.15a16.826 16.826 0 00-4.969 11.995v26.151a16.96 16.96 0 004.98 12.038l12.037 12.037a16.947 16.947 0 0012.037 4.98h29.744a.532.532 0 00.53-.53v-16.583a.53.53 0 00-.53-.529h-19.508a13.156 13.156 0 01-9.366-3.879l-12.154-12.143 3.751-3.751 12.143 12.143a7.892 7.892 0 005.626 2.331h19.487a5.839 5.839 0 015.828 5.828v16.583a5.832 5.832 0 01-5.807 5.828z" fill="#2C2A2D"/><path d="M179.827 81.802l-4.567-4.567a16.956 16.956 0 00-12.005-4.97H141.49v-5.298h21.765A22.138 22.138 0 01179 73.495l4.567 4.567-3.74 3.74zM142.316 128.234h-2.193l-.795-.773-8.604-8.604a3.676 3.676 0 01-.996-3.423l7.862-35.825a3.704 3.704 0 013.619-2.897 3.709 3.709 0 013.618 2.897l7.862 35.836a3.665 3.665 0 01-.996 3.412l-9.377 9.377zm-7.227-12.503l6.125 6.114 6.114-6.114-6.114-27.91-6.125 27.91z" fill="#2C2A2D"/></svg>