<?xml version="1.0" encoding="utf-8"?><svg width="73" height="78" fill="none" xmlns="http://www.w3.org/2000/svg" viewBox="0 0 73 78"><g clip-path="url(#bqclip0_1364_2464)" fill="#2C2A2D"><path d="M13.236 71.11a3.444 3.444 0 100 6.89 3.444 3.444 0 100-6.89zM52.038 49.851h-3.224a3.295 3.295 0 00-3.078 2.093L37.033 73.9h-8.042l9.064-23.339 4.019-10.967-3.395-1.243-4.01 10.935-9.213 23.723a3.314 3.314 0 00.352 3.07 3.298 3.298 0 002.731 1.442h8.698a3.294 3.294 0 003.078-2.093l8.703-21.956h4.692l-1.677-3.616.005-.005z"/><path d="M72.701 71.798L60.016 41.15h.01l-.733-1.773-4.168-10.076-1.22-2.947v.01l-.394-.941c-1.13-2.73-3.3-4.426-5.67-4.426h-8.679a6.21 6.21 0 00-5.664 3.675l-7.6 17.02 3.3 1.474 7.6-17.02a2.589 2.589 0 012.36-1.532h8.68c.863 0 1.771.859 2.323 2.192L69.32 73.11h-8.3l-6.781-16.454-3.924.045 7.509 18.136c.479 1.162 1.473 1.885 2.594 1.885h9.688c.9 0 1.727-.466 2.27-1.27.687-1.031.813-2.464.32-3.653h.005zM60.428 32.66l7.988 5.058-2.147 3.436-3.296-2.346 2.473 5.98a3.274 3.274 0 003.693-1.406l2.523-4.036a3.278 3.278 0 00-1.031-4.507l-12.604-7.983 2.4 5.8v.004zM28.1 45.928l-3.345-1.38-.75 1.827-6.198-2.554a3.298 3.298 0 00-2.532.005L7.31 47.143a3.288 3.288 0 00-1.79 1.794L0 62.712l18.236 7.508 8.237-20.35 1.628-3.942zm-7.151 7.956l-4.702 11.608-11.559-4.76 4.127-10.298 7.73-3.223 6.081 2.505h.01l-1.687 4.167zM50.294 18.66c5.144 0 9.33-4.186 9.33-9.33S55.438 0 50.294 0c-5.145 0-9.331 4.186-9.331 9.33s4.186 9.33 9.33 9.33zm0-15.044a5.72 5.72 0 015.714 5.714 5.72 5.72 0 01-5.714 5.714 5.72 5.72 0 01-5.715-5.714 5.72 5.72 0 015.715-5.714z"/></g><defs><clipPath id="bqclip0_1364_2464"><path fill="#fff" d="M0 0h73v78H0z"/></clipPath></defs></svg>