<?xml version="1.0" encoding="utf-8"?><svg width="249" height="166" fill="none" xmlns="http://www.w3.org/2000/svg" viewBox="0 0 249 166"><path d="M3 160.8v-35.17a9.42 9.42 0 012.75-6.65l15.9-15.89a9.372 9.372 0 016.65-2.76h32.43M58.96 125.641l-.01 35.16" stroke="#2C2A2D" stroke-width="5" stroke-miterlimit="10"/><path d="M22.28 160.8v-32.59a2.871 2.871 0 013-2.72h13.09a2.884 2.884 0 013 2.72v32.59M130.619 46.06c5.606 0 10.15-4.544 10.15-10.15 0-5.606-4.544-10.15-10.15-10.15-5.606 0-10.15 4.544-10.15 10.15 0 5.606 4.544 10.15 10.15 10.15z" stroke="#2C2A2D" stroke-width="5" stroke-miterlimit="10"/><path d="M130.619 66.12h-61a3 3 0 01-3-3v-8.5a10 10 0 012.92-7.07l41.62-41.62a10.002 10.002 0 017.08-2.93h12.33M130.619 66.12h61a2.998 2.998 0 003-3v-8.5a10 10 0 00-2.93-7.07l-41.62-41.62a10 10 0 00-7.07-2.93h-12.34M66.67 76.7h121.78M76.818 89.3v65.82a3 3 0 003 3h9.13a2.999 2.999 0 003-3v-65.8M107.08 89.3v65.82a2.998 2.998 0 003 3h9.13a2.998 2.998 0 003-3v-65.8M137.34 89.3v65.82a2.998 2.998 0 003 3h9.13a3 3 0 003-3v-65.8" stroke="#2C2A2D" stroke-width="5" stroke-miterlimit="10"/><path d="M206.279 162.73c21.992 0 39.82-17.828 39.82-39.82s-17.828-39.82-39.82-39.82-39.82 17.828-39.82 39.82 17.828 39.82 39.82 39.82z" fill="#C6F3F8" stroke="#2C2A2D" stroke-width="5" stroke-miterlimit="10"/><path d="M217.11 124.86c-1.64-1.57-4.25-2.7-7.77-3.34l-5.51-1c-3.69-.71-5.49-2.4-5.49-5.19a5.25 5.25 0 012-4.25 8.708 8.708 0 015.7-1.68 9.655 9.655 0 016.37 2 5.885 5.885 0 012.31 4.73v.32h4.66v-.33a10 10 0 00-3.13-7.48 12.523 12.523 0 00-6.66-3.17 15.015 15.015 0 00-2.55-.19h-1.59c-1.159-.017-2.317.1-3.45.35a11.306 11.306 0 00-5.4 2.84 9.246 9.246 0 00-2.91 6.89c0 5.1 3 8.24 8.78 9.34l6.76 1.25c3.86.74 5.74 2.52 5.74 5.43a5.166 5.166 0 01-2 4.28c-1.39 1.1-3.54 1.65-6.38 1.65a10.138 10.138 0 01-6.58-1.95 5.845 5.845 0 01-2.36-4.73v-.33h-4.66v.33a9.82 9.82 0 003.1 7.19 12.358 12.358 0 005 3 15.6 15.6 0 004.74.68h2.24a12.889 12.889 0 008.47-3 9.23 9.23 0 003.11-7.05 8.575 8.575 0 00-2.54-6.59z" fill="#2C2A2D"/><path d="M206.279 108.56V98.24M206.279 148.34v-10.31" stroke="#2C2A2D" stroke-width="5.34" stroke-miterlimit="10"/></svg>