<?xml version="1.0" encoding="utf-8"?><svg width="74" height="79" fill="none" xmlns="http://www.w3.org/2000/svg" viewBox="0 0 74 79"><g clip-path="url(#brclip0_1364_2440)" fill="#2C2A2D"><path d="M27.739 29.364c8.054 0 14.607-6.588 14.607-14.685C42.346 6.582 35.793 0 27.74 0c-8.054 0-14.602 6.588-14.602 14.684 0 8.097 6.553 14.685 14.602 14.685v-.005zm0-25.326c5.84 0 10.59 4.776 10.59 10.646 0 5.871-4.75 10.647-10.59 10.647s-10.585-4.776-10.585-10.647c0-5.87 4.75-10.646 10.585-10.646zM31.127 64.033h-9.235a2.97 2.97 0 01-2.129-.889L14.01 57.36l-2.842 2.857 5.754 5.785a6.97 6.97 0 004.971 2.07h8.733v6.89H17.032a7.251 7.251 0 01-5.172-2.156l-5.705-5.734a7.329 7.329 0 01-2.144-5.2V49.414c0-1.959.758-3.796 2.134-5.179l6.121-6.154a7.225 7.225 0 015.152-2.145h20.658c1.949 0 3.776.762 5.152 2.145l6.121 6.154 2.842-2.857-6.12-6.154a11.205 11.205 0 00-7.995-3.326H17.423c-3.017 0-5.86 1.181-7.994 3.326l-6.12 6.154a11.33 11.33 0 00-3.315 8.036v12.458a11.36 11.36 0 003.32 8.057l5.704 5.734A11.232 11.232 0 0017.032 79h14.095c1.938 0 3.515-1.585 3.515-3.534v-7.9c0-1.948-1.577-3.533-3.515-3.533z"/><path d="M27.607 38.314a2.154 2.154 0 00-2.114 1.711l-3.218 14.74c-.161.727.055 1.479.582 2.009l3.52 3.539.517.51h1.437l4.027-4.049c.527-.53.748-1.282.587-2.01l-3.219-14.739a2.154 2.154 0 00-2.119-1.711zm0 18.309l-1.792-1.803 1.792-8.223L29.4 54.82l-1.793 1.803zM72.685 58.283l-3.51-3.528A4.443 4.443 0 0066 53.432h-20.26c-1.196 0-2.326.47-3.17 1.323l-3.51 3.528a4.49 4.49 0 00-1.315 3.19v14.892a2.625 2.625 0 002.616 2.63h31.012a2.625 2.625 0 002.616-2.63V61.474a4.49 4.49 0 00-1.315-3.19h.01zm-2.702 16.674H41.768V61.469c0-.127.05-.243.136-.334l3.51-3.528a.458.458 0 01.331-.136h20.261a.48.48 0 01.332.136l3.51 3.528a.475.475 0 01.135.334v13.488zM59.634 47.551h-7.13v4.039h7.13V47.55z"/></g><defs><clipPath id="brclip0_1364_2440"><path fill="#fff" d="M0 0h74v79H0z"/></clipPath></defs></svg>