<?xml version="1.0" encoding="utf-8"?><svg width="209" height="183" fill="none" xmlns="http://www.w3.org/2000/svg" viewBox="0 0 209 183"><path d="M161.159 177.35l-13-13a10.003 10.003 0 01-2.92-7.06v-40.63a3.005 3.005 0 012.68-3c9.89-1 24.5-7.06 26.87-11.94a1.337 1.337 0 011.151-.748 1.333 1.333 0 011.199.668c3.05 4.86 16.41 11 26.54 12a3 3 0 012.68 3v40.71a9.997 9.997 0 01-2.84 7l-13 13a9.999 9.999 0 01-7.05 2.93h-15.17a9.938 9.938 0 01-7.14-2.93v0z" stroke="#2C2A2D" stroke-width="5" stroke-miterlimit="10"/><path d="M163.14 141.63l5.77 5.78a6.142 6.142 0 008.69 0l15-15.05M3.28 180.35v-53a10 10 0 012.93-7.07l16.9-16.9a10.004 10.004 0 017.07-2.93h45.1M75.28 130.04V58.29a11 11 0 013.24-7.78L94.83 34.2a10.999 10.999 0 017.779-3.22h44.69" stroke="#2C2A2D" stroke-width="5" stroke-miterlimit="10"/><path d="M204.86 101.83V58.29a11.007 11.007 0 00-3.23-7.78l-16.3-16.31a11.012 11.012 0 00-7.81-3.22h-31.88M75.28 139.49v40.85M101.22 180.35v-32.9a2.87 2.87 0 013-2.72h13.08a2.868 2.868 0 013 2.72v32.9M0 53.12h41a9.2 9.2 0 006.5-2.69l18.24-18.25a2.749 2.749 0 000-3.9l-4.9-4.9a2.749 2.749 0 00-3.9 0L43.78 36.57" stroke="#2C2A2D" stroke-width="5" stroke-miterlimit="10"/><path d="M67.72 14.35h23.87a1.84 1.84 0 001.84-1.84V4.84A1.84 1.84 0 0091.59 3h-33.4a9.3 9.3 0 00-6.57 2.72l-26.1 26.13a9.29 9.29 0 01-6.57 2.72H0M118.61 57.96h-15.23a2.16 2.16 0 00-2.16 2.16v15.23a2.16 2.16 0 002.16 2.16h15.23a2.16 2.16 0 002.16-2.16V60.12a2.16 2.16 0 00-2.16-2.16zM162.669 57.96h-15.23a2.16 2.16 0 00-2.16 2.16v15.23a2.16 2.16 0 002.16 2.16h15.23a2.16 2.16 0 002.16-2.16V60.12a2.16 2.16 0 00-2.16-2.16zM118.61 100.45h-15.23a2.16 2.16 0 00-2.16 2.16v15.23a2.16 2.16 0 002.16 2.16h15.23a2.16 2.16 0 002.16-2.16v-15.23a2.16 2.16 0 00-2.16-2.16zM48.4 127.34H33.17a2.16 2.16 0 00-2.16 2.16v15.23a2.16 2.16 0 002.16 2.16H48.4a2.16 2.16 0 002.16-2.16V129.5a2.16 2.16 0 00-2.16-2.16zM29.07 164.26h23.42M182.989 79.45V56.02" stroke="#2C2A2D" stroke-width="5" stroke-miterlimit="10"/></svg>