<?xml version="1.0" encoding="utf-8"?><svg width="222" height="161" fill="none" xmlns="http://www.w3.org/2000/svg" viewBox="0 0 222 161"><path d="M156.23 52.1h8a2.998 2.998 0 013 3v60.1a3 3 0 01-3 3H6a3.002 3.002 0 01-3-3V55.1a3 3 0 013-3h7.94a3 3 0 002.89-2.18l11.35-39.7A10 10 0 0137.85 3h94.58a10 10 0 019.61 7.24l11.36 39.7a3 3 0 002.83 2.16v0zM43.12 132.19v22.59a3.002 3.002 0 01-3 3H21.24a3.001 3.001 0 01-3-3v-22.59M153.499 132.19v22.59a3 3 0 01-3 3h-18.88a3 3 0 01-3-3v-22.59" stroke="#2C2A2D" stroke-width="5" stroke-miterlimit="10"/><path d="M30.679 95.6c6.009 0 10.88-4.87 10.88-10.88 0-6.008-4.871-10.88-10.88-10.88s-10.88 4.871-10.88 10.88c0 6.01 4.871 10.88 10.88 10.88zM141.06 95.6c6.008 0 10.88-4.87 10.88-10.88 0-6.008-4.872-10.88-10.88-10.88-6.009 0-10.88 4.871-10.88 10.88 0 6.01 4.871 10.88 10.88 10.88zM57.228 76.05v15.22a2 2 0 002 2h51.731a2 2 0 002-2V76.05M3 132.19h164.19" stroke="#2C2A2D" stroke-width="5" stroke-miterlimit="10"/><path d="M173.849 154.66l-13-13a9.996 9.996 0 01-2.909-7.06V93.93a2.996 2.996 0 012.679-3c9.88-1 24.49-7.06 26.87-11.94a1.321 1.321 0 012.34-.08c3.06 4.86 16.41 11 26.54 12a3 3 0 012.69 3v40.63a9.996 9.996 0 01-2.93 7.07l-13 13a9.996 9.996 0 01-7 2.93H180.96a9.997 9.997 0 01-7.111-2.88z" fill="#D6E3FF" stroke="#2C2A2D" stroke-width="5" stroke-miterlimit="10"/><path d="M37.78 16l-9.13 32.71a3.001 3.001 0 002.89 3.8h105.84M83.959 14h45.89a3.001 3.001 0 012.88 2.18l5.65 19.82M188.479 120.19v18.08c0 .796.316 1.559.878 2.122a3.004 3.004 0 002.122.878h5.37M188.479 120.18c6.009 0 10.881-4.871 10.881-10.88s-4.872-10.88-10.881-10.88c-6.008 0-10.879 4.871-10.879 10.88s4.871 10.88 10.879 10.88z" stroke="#2C2A2D" stroke-width="5" stroke-miterlimit="10"/></svg>