<?xml version="1.0" encoding="utf-8"?><svg width="88" height="79" fill="none" xmlns="http://www.w3.org/2000/svg" viewBox="0 0 88 79"><g clip-path="url(#bpclip0_1364_2446)" fill="#2C2A2D"><path d="M81.707 41.278c-4.055-4.033-9.455-6.249-15.193-6.249-5.737 0-11.137 2.221-15.193 6.248-4.06 4.033-6.292 9.39-6.292 15.088 0 5.697 2.237 11.06 6.292 15.087 4.056 4.027 9.456 6.248 15.193 6.248 5.738 0 11.138-2.22 15.193-6.248C85.768 67.419 88 62.062 88 56.365c0-5.698-2.236-11.06-6.292-15.087zm-27.61 2.756a17.517 17.517 0 0112.417-5.109c4.032 0 7.852 1.345 10.951 3.809l-5.301 5.264a10.111 10.111 0 00-5.65-1.704 10.11 10.11 0 00-7.174 2.95 9.97 9.97 0 00-2.972 7.126c0 2.03.603 3.964 1.716 5.61l-5.301 5.264a17.234 17.234 0 01-3.835-10.874c0-4.661 1.829-9.04 5.144-12.331l.005-.005zm8.965 17.473l-1.721-1.71a6.092 6.092 0 01-1.045-3.427c0-1.651.647-3.2 1.824-4.369a6.199 6.199 0 014.4-1.811c1.363 0 2.652.438 3.722 1.236l1.25 1.242a6.089 6.089 0 011.246 3.697c0 1.65-.648 3.2-1.825 4.368a6.198 6.198 0 01-4.399 1.812 6.239 6.239 0 01-3.457-1.038h.005zM78.937 68.7a17.517 17.517 0 01-12.418 5.109A17.508 17.508 0 0155.57 70l5.3-5.264a10.111 10.111 0 005.65 1.704 10.11 10.11 0 007.175-2.95 9.969 9.969 0 002.972-7.125c0-2.031-.603-3.965-1.716-5.61l5.3-5.265a17.244 17.244 0 013.836 10.875c0 4.66-1.83 9.038-5.144 12.33l-.005.005z"/><path d="M76.448 63.45l-2.774 2.754 2.556 2.538 2.774-2.755-2.556-2.537zM56.952 44.08l-2.774 2.755 2.556 2.538 2.774-2.755-2.556-2.538zM32.456 17.507c4.448 0 8.067-3.594 8.067-8.01 0-4.418-3.619-8.012-8.067-8.012s-8.067 3.594-8.067 8.011 3.619 8.011 8.067 8.011zm0-12.126c2.285 0 4.144 1.846 4.144 4.115 0 2.27-1.859 4.115-4.144 4.115s-4.144-1.845-4.144-4.115c0-2.269 1.859-4.115 4.144-4.115zM48.213 39.865l-.505-7.577c.01-2.143.534-4.188 1.441-5.62L64.901 2.089 61.591 0 45.84 24.583c-1.324 2.09-2.05 4.846-2.05 7.763l.515 7.773 3.913-.259-.004.005zM46.933 75.104H39.92l-3.011-24.598c-.182-1.627-1.33-2.805-2.732-2.805h-3.492c-1.402 0-2.525 1.13-2.722 2.727L24.59 75.1h-7.14c-.064-.126-.191-.458-.201-1.159l3.737-41.175.01-.175c0-2.937-.731-5.693-2.05-7.758L3.33.015 0 2.079l15.62 24.832c.907 1.417 1.432 3.458 1.446 5.6l-3.736 41.18-.01.176c0 3.789 2.177 5.138 4.046 5.138h8.293c1.373 0 2.49-1.1 2.716-2.688l3.38-24.71h1.328l3.021 24.666c.206 1.612 1.33 2.737 2.727 2.737h8.175c1.869 0 4.046-1.344 4.046-5.138H47.13c0 .755-.133 1.11-.201 1.242l.005-.01z"/></g><defs><clipPath id="bpclip0_1364_2446"><path fill="#fff" d="M0 0h88v79H0z"/></clipPath></defs></svg>