<?xml version="1.0" encoding="utf-8"?><svg width="81" height="79" fill="none" xmlns="http://www.w3.org/2000/svg" viewBox="0 0 81 79"><g clip-path="url(#bsclip0_1364_2453)" fill="#2C2A2D"><path d="M40.5 26.789c7.366 0 13.36-6.01 13.36-13.395S47.865 0 40.5 0 27.14 6.01 27.14 13.394c0 7.385 5.994 13.395 13.36 13.395zm0-22.712c5.124 0 9.293 4.18 9.293 9.317 0 5.138-4.169 9.317-9.293 9.317s-9.293-4.18-9.293-9.317c0-5.137 4.169-9.317 9.293-9.317zM74.57 62.033H53.438l-8.195-8.211a3.792 3.792 0 00-5.358 0l-3.94 3.95a3.812 3.812 0 000 5.377l14.702 14.74A3.756 3.756 0 0053.326 79h21.249a3.647 3.647 0 003.64-3.65v-9.663a3.647 3.647 0 00-3.64-3.65l-.005-.004zm-.427 12.89H53.438L39.01 60.458l3.548-3.558 8.083 8.1a3.756 3.756 0 002.679 1.11h20.822v8.813zM6.858 66.044h20.705l6.095 6.111 2.877-2.885-6.176-6.192a3.812 3.812 0 00-2.68-1.117H6.432a3.647 3.647 0 00-3.64 3.65v9.663a3.647 3.647 0 003.64 3.65h36.718v-4.078H6.858v-8.812.01z"/><path d="M79.888 36.157l-4.972-4.985a3.755 3.755 0 00-2.679-1.111 3.776 3.776 0 00-2.679 1.11l-7.61 7.63-8.037-8.057a3.812 3.812 0 00-2.679-1.116l-10.731.01-10.731-.01a3.776 3.776 0 00-2.68 1.11l-8.036 8.059-7.605-7.63a3.755 3.755 0 00-2.68-1.111 3.776 3.776 0 00-2.678 1.11l-4.972 4.985a3.812 3.812 0 000 5.377L16.38 56.83a3.755 3.755 0 002.68 1.111 3.776 3.776 0 002.679-1.111l5.414-5.428v6.896h4.066v-8.98a3.21 3.21 0 00-1.977-2.972 3.19 3.19 0 00-3.492.698l-6.69 6.708-14.87-14.908 4.58-4.593 8.023 8.043a3.18 3.18 0 002.267.943 3.18 3.18 0 002.267-.943l8.566-8.588 10.624.01 10.62-.01 8.565 8.588a3.18 3.18 0 002.267.943 3.18 3.18 0 002.268-.943l8.021-8.043 4.58 4.593L61.969 53.75l-6.69-6.708a3.19 3.19 0 00-3.492-.698 3.21 3.21 0 00-1.977 2.971v5.434h4.067V51.4l5.413 5.428a3.755 3.755 0 002.68 1.111 3.776 3.776 0 002.678-1.111l15.26-15.3a3.775 3.775 0 001.11-2.687 3.796 3.796 0 00-1.11-2.685h-.02z"/></g><defs><clipPath id="bsclip0_1364_2453"><path fill="#fff" d="M0 0h81v79H0z"/></clipPath></defs></svg>