<?xml version="1.0" encoding="utf-8"?><svg width="88" height="79" fill="none" xmlns="http://www.w3.org/2000/svg" viewBox="0 0 88 79"><g clip-path="url(#boclip0_1364_2458)" fill="#2C2A2D"><path d="M84.65 0H11.465a5.06 5.06 0 00-3.602 1.498L1.49 7.908A5.092 5.092 0 000 11.528v39.36c0 1.855 1.5 3.362 3.346 3.362h81.526c1.723 0 3.128-1.412 3.128-3.143V3.363C88 1.507 86.5 0 84.654 0h-.005zM23.42 50.434a6.613 6.613 0 011.828-3.467l5.619-5.647a6.586 6.586 0 014.694-1.956H54.26c1.775 0 3.44.696 4.694 1.956l5.619 5.647a6.647 6.647 0 011.827 3.468h-42.98zm60.782 0H70.236a10.433 10.433 0 00-2.976-6.167l-5.62-5.647a10.35 10.35 0 00-7.38-3.072H35.563a10.35 10.35 0 00-7.38 3.072l-5.62 5.647a10.433 10.433 0 00-2.975 6.167H3.797v-38.91c0-.349.133-.673.38-.921l6.373-6.406c.242-.243.575-.381.916-.381h72.737v46.618zM84.203 62.254H3.797v-3.93H0v4.602c0 1.732 1.405 3.143 3.128 3.143h81.744c1.723 0 3.128-1.411 3.128-3.143v-4.602h-3.797v3.93zM60.525 69.28a3.085 3.085 0 00-2.211-.921H31.266c-.835 0-1.618.329-2.211.92l-1.282 1.288a3.145 3.145 0 00-.916 2.223v6.215h3.797V73.07l.888-.892h26.492l.887.892v5.934h3.797V72.79c0-.84-.327-1.627-.916-2.223l-1.277-1.283v-.005z"/><path d="M47.607 56.416h-5.638v3.815h5.638v-3.815zM45.035 33.326c7.422 0 13.464-6.072 13.464-13.532S52.457 6.263 45.035 6.263c-7.423 0-13.465 6.071-13.465 13.531 0 7.46 6.042 13.532 13.465 13.532zm0-23.253c5.33 0 9.667 4.36 9.667 9.716 0 5.357-4.338 9.716-9.667 9.716-5.33 0-9.668-4.36-9.668-9.716 0-5.356 4.338-9.716 9.668-9.716z"/></g><defs><clipPath id="boclip0_1364_2458"><path fill="#fff" d="M0 0h88v79H0z"/></clipPath></defs></svg>