<?xml version="1.0" encoding="utf-8"?><svg width="188" height="174" fill="none" xmlns="http://www.w3.org/2000/svg" viewBox="0 0 188 174"><g clip-path="url(#bnclip0_1253_1307)" stroke="#2C2A2D" stroke-width="5" stroke-miterlimit="10"><path d="M154.75 89.83h-.37a29.75 29.75 0 00-29.76 29.75v0a26.878 26.878 0 004.66 15.14l24.24 35.63a1.488 1.488 0 001.925.477c.215-.113.398-.277.535-.477l24.24-35.63a26.878 26.878 0 004.66-15.14v0a29.76 29.76 0 00-8.717-21.04 29.75 29.75 0 00-21.043-8.71h-.37zM2.5 170.58v-37.27a12.516 12.516 0 013.67-8.86l18.32-18.33a12.573 12.573 0 018.86-3.66h44M115.5 102.46H73.77M16.09 167.45h99.87"/><path d="M154.75 128.67c5.849 0 10.59-4.741 10.59-10.59 0-5.848-4.741-10.59-10.59-10.59s-10.59 4.742-10.59 10.59c0 5.849 4.741 10.59 10.59 10.59zM72.3 61.27H61.47a6 6 0 01-4.29-1.81l-7.73-8a5.93 5.93 0 01-1.67-4.12l-1.33-23.21a1.68 1.68 0 011.68-1.68h6.72a1.69 1.69 0 011.46.84l8.59 14.84a6.75 6.75 0 005.83 3.36l24.42-.07L81.47 4.21a1.68 1.68 0 011.68-1.68h9.69a1.69 1.69 0 011.4.74l21.05 33.93a9.4 9.4 0 007.83 4.17H146.7a8.168 8.168 0 015.78 2.37l5.52 5.43a8.146 8.146 0 012.4 5.76v6.09l-33.68.1a15 15 0 00-10.35 4.18L90.65 90.06a2 2 0 01-1.38.55h-8.12a1.999 1.999 0 01-1.75-3l13.68-25a1 1 0 00-.88-1.48l-19.9.06M70.27 86.42H32.52M75.56 75.04H32.52M136.74 50.03h10.15M18.39 158.76v-23.3a2.998 2.998 0 013-3h17.83a2.999 2.999 0 013 3v23.3M54.11 158.76v-23.3a2.998 2.998 0 013-3h17.83a2.999 2.999 0 013 3v23.3M89.82 158.76v-23.3a2.998 2.998 0 013-3h17.84a3 3 0 013 3v23.3M32.52 116.38h82.98"/></g><defs><clipPath id="bnclip0_1253_1307"><path fill="#fff" d="M0 0h187.38v173.5H0z"/></clipPath></defs></svg>