<?xml version="1.0" encoding="utf-8"?><svg width="209" height="209" fill="none" xmlns="http://www.w3.org/2000/svg" viewBox="0 0 209 209"><path d="M105.65 189.781c-16.627-.01-32.878-5.02-46.698-14.397-13.82-9.378-24.59-22.7-30.945-38.284a86.416 86.416 0 01-4.764-49.27c3.25-16.54 11.262-31.73 23.023-43.652 11.76-11.921 26.743-20.038 43.051-23.325a82.982 82.982 0 0148.573 4.862c15.36 6.456 28.489 17.387 37.726 31.41 9.236 14.024 14.166 30.51 14.166 47.375-.038 22.615-8.915 44.292-24.686 60.279-15.771 15.986-37.149 24.978-59.446 25.002zm0-165.456c-15.613.01-30.873 4.716-43.85 13.521-12.977 8.806-23.089 21.317-29.057 35.95a81.145 81.145 0 00-4.472 46.265c3.052 15.531 10.576 29.795 21.62 40.99 11.044 11.194 25.113 18.816 40.427 21.902a77.917 77.917 0 0045.61-4.566c14.423-6.063 26.751-16.327 35.424-29.495 8.674-13.168 13.303-28.649 13.303-44.486-.035-21.237-8.372-41.593-23.182-56.605-14.81-15.012-34.885-23.454-55.823-23.476z" fill="#2C2A2D"/><path d="M81.726 112.908a5.595 5.595 0 01-3.945-1.661L61.376 94.594a12.827 12.827 0 01-2.76-4.182 12.983 12.983 0 01-.96-4.938V60.175a12.983 12.983 0 01.96-4.938 12.829 12.829 0 012.76-4.182l8.71-8.842a12.614 12.614 0 014.121-2.802 12.463 12.463 0 014.866-.974h37.854a5.559 5.559 0 013.95 1.665 5.724 5.724 0 011.64 4.01v7.428a5.703 5.703 0 01-.427 2.174 5.659 5.659 0 01-1.219 1.84L96.546 80.242a7.787 7.787 0 00-2.226 5.437l-.112 21.553a5.75 5.75 0 01-1.65 3.977 5.578 5.578 0 01-3.92 1.667h-6.882l-.03.031zm-2.653-69.313a7.455 7.455 0 00-2.918.586 7.548 7.548 0 00-2.47 1.684l-8.71 8.832a7.715 7.715 0 00-1.659 2.512 7.806 7.806 0 00-.578 2.966v25.299a7.786 7.786 0 00.577 2.967c.383.94.948 1.794 1.66 2.511l16.395 16.642c.105.087.232.14.366.155h6.881a.517.517 0 00.357-.154.53.53 0 00.152-.362l.111-21.553c.002-1.683.331-3.349.97-4.902a12.762 12.762 0 012.75-4.146l24.326-24.7a.533.533 0 00.152-.361v-7.429a.521.521 0 00-.149-.365.504.504 0 00-.359-.15l-37.855-.032zM122.155 175.368h-7.833a5.483 5.483 0 01-3.902-1.65 5.687 5.687 0 01-1.621-3.974v-26.74a.514.514 0 00-.14-.358l-6.136-6.248a5.607 5.607 0 01-1.206-1.828 5.707 5.707 0 01-.421-2.16v-18.682a5.69 5.69 0 011.621-3.974 5.482 5.482 0 013.903-1.65h25.355a5.385 5.385 0 012.116.424c.67.283 1.279.698 1.79 1.222l16.449 16.76a5.574 5.574 0 011.2 1.824 5.67 5.67 0 01.417 2.154v12.679a5.673 5.673 0 01-.417 2.154 5.574 5.574 0 01-1.2 1.824l-26.109 26.587a5.441 5.441 0 01-3.866 1.636zm-15.685-62.172a.496.496 0 00-.355.15.513.513 0 00-.148.361V132.4a.527.527 0 00.151.358l6.135 6.247a5.614 5.614 0 011.201 1.824c.277.683.419 1.415.417 2.154v26.74a.513.513 0 00.502.512h7.832a.509.509 0 00.352-.154l26.109-26.587a.55.55 0 00.14-.368v-12.679a.538.538 0 00-.14-.369l-16.459-16.749a.467.467 0 00-.352-.153l-25.385.02z" fill="#2C2A2D"/><path d="M36.035 134.529h-.24c-5.033 0-9.86 2.041-13.42 5.675-3.56 3.633-5.559 8.562-5.559 13.7a17.747 17.747 0 002.982 9.853l15.458 23.204a.951.951 0 00.779.418.951.951 0 00.78-.418l15.467-23.204a17.815 17.815 0 002.971-9.853c0-2.544-.491-5.063-1.445-7.414a19.404 19.404 0 00-4.114-6.286 18.95 18.95 0 00-6.157-4.2 18.639 18.639 0 00-7.263-1.475h-.24z" fill="#F0F4FC"/><path d="M36.035 189.782a3.47 3.47 0 01-1.642-.417 3.55 3.55 0 01-1.262-1.15l-15.32-23.003a20.2 20.2 0 01-3.397-11.249c.008-5.789 2.263-11.338 6.272-15.432 4.008-4.093 9.443-6.396 15.112-6.405h.474c5.668.009 11.103 2.312 15.111 6.405 4.009 4.094 6.264 9.643 6.272 15.432a20.273 20.273 0 01-3.387 11.249l-15.33 23.003a3.536 3.536 0 01-1.261 1.151 3.456 3.456 0 01-1.642.416zm-.237-52.399c-4.304.008-8.429 1.758-11.472 4.865-3.043 3.108-4.756 7.32-4.764 11.715a14.94 14.94 0 002.501 8.295l13.972 20.963 13.97-20.963a14.94 14.94 0 002.503-8.295c-.006-4.396-1.718-8.61-4.762-11.718-3.044-3.108-7.17-4.856-11.474-4.862h-.474z" fill="#2C2A2D"/><path d="M34.833 158.552c1.99 0 3.603-2.152 3.603-4.805 0-2.654-1.613-4.805-3.603-4.805-1.99 0-3.603 2.151-3.603 4.805 0 2.653 1.613 4.805 3.603 4.805z" fill="#F0F4FC"/><path d="M36.034 160.954a7.21 7.21 0 01-6.66-4.452 7.204 7.204 0 011.568-7.855 7.211 7.211 0 017.857-1.555 7.203 7.203 0 014.442 6.665 7.209 7.209 0 01-7.207 7.197zm0-9.174a1.972 1.972 0 00-1.826 1.221 1.977 1.977 0 101.826-1.221z" fill="#2C2A2D"/><path d="M166.954 28.828h-.309a25.051 25.051 0 00-17.611 7.225 24.544 24.544 0 00-7.299 17.433 22.154 22.154 0 003.905 12.544l20.295 29.523a1.257 1.257 0 002.06 0l20.294-29.523c2.54-3.7 3.897-8.07 3.895-12.544a24.53 24.53 0 00-7.293-17.432 25.037 25.037 0 00-17.607-7.226h-.33z" fill="#F0F4FC"/><path d="M166.959 98.494c-.618 0-1.226-.15-1.772-.436a3.776 3.776 0 01-1.361-1.208l-20.172-29.437a24.476 24.476 0 01-4.321-13.906 26.992 26.992 0 018.011-19.14 27.47 27.47 0 0119.308-7.942h.625a27.462 27.462 0 0119.305 7.942 26.985 26.985 0 018.004 19.14 24.377 24.377 0 01-4.321 13.906L170.103 96.85a3.79 3.79 0 01-1.366 1.208 3.838 3.838 0 01-1.778.436zm-.307-66.993a22.328 22.328 0 00-15.688 6.454 21.942 21.942 0 00-6.511 15.552 19.404 19.404 0 003.44 11.054l19.066 27.792 19.077-27.792a19.39 19.39 0 003.43-11.054 21.927 21.927 0 00-6.504-15.551 22.32 22.32 0 00-15.685-6.455h-.625z" fill="#2C2A2D"/><path d="M166.96 62.46a8.41 8.41 0 01-5.942-14.357 8.408 8.408 0 115.942 14.357zm0-11.747a3.35 3.35 0 100 6.698 3.35 3.35 0 000-6.698zM105.701 209c-17.59-.001-34.911-4.201-50.448-12.233l2.508-4.583c14.766 7.627 31.226 11.616 47.94 11.619V209zM153.702 196.988l-2.357-4.658c15.861-8.459 29.153-21.24 38.421-36.942 9.269-15.703 14.157-33.723 14.13-52.089H209c.028 19.326-5.115 38.289-14.868 54.813s-23.739 29.973-40.43 38.876zM25.977 40.839a6.415 6.415 0 01-1.398-.164l-5.874-1.407a5.779 5.779 0 01-3.526-2.423L7.77 26.74a3.373 3.373 0 01-.482-2.593 3.461 3.461 0 011.54-2.17l3.103-1.9a3.646 3.646 0 013.557-.133l8.267 4.24a1.083 1.083 0 001.059 0l8.045-4.928-14.46-10.843-.244-.38a3.373 3.373 0 01-.482-2.593 3.462 3.462 0 011.54-2.17L23.68.538a3.633 3.633 0 013.356-.236L46.65 9.605a2.504 2.504 0 002.244-.195l10.861-6.653a7.117 7.117 0 012.58-.97 7.198 7.198 0 012.766.076l4.16.904A7.166 7.166 0 0171.8 3.875a6.939 6.939 0 011.899 1.972l3.176 4.888-47.827 29.303a6.08 6.08 0 01-3.07.8zM13.274 25.366l6.352 8.666c.081.127.21.219.36.256l5.875 1.397a.588.588 0 00.455-.072L69.665 9.06l-.36-.555a1.735 1.735 0 00-.481-.495 1.793 1.793 0 00-.641-.275l-4.16-.913a1.844 1.844 0 00-1.355.226l-10.862 6.653a7.951 7.951 0 01-7.315.513L25.776 5.334l-1.503.924L42.12 19.606l-14.439 8.85a6.514 6.514 0 01-6.352.236l-7.41-3.778-.645.452zM1.039 117.713A96.29 96.29 0 010 103.869a95.198 95.198 0 014.643-29.398l4.966 1.454a90.313 90.313 0 00-4.415 27.944c0 4.406.32 8.807.956 13.171l-5.111.673z" fill="#2C2A2D"/></svg>