<?xml version="1.0" encoding="utf-8"?><svg width="18" height="17" xmlns="http://www.w3.org/2000/svg" viewBox="0 0 18 17"><path d="M17.324 4.838c-.039-.874-.18-1.475-.383-1.996a4.016 4.016 0 00-.951-1.46 4.051 4.051 0 00-1.457-.948C14.01.231 13.411.09 12.537.051 11.655.01 11.376 0 9.14 0 6.907 0 6.627.01 5.75.048c-.874.039-1.476.18-1.996.383a4.016 4.016 0 00-1.46.951c-.418.412-.743.91-.949 1.457C1.142 3.363 1 3.96.962 4.835.92 5.715.91 5.995.91 8.23c0 2.234.01 2.513.048 3.391.039.874.18 1.475.383 1.996.21.553.534 1.048.952 1.46.411.418.91.742 1.456.948.524.203 1.122.344 1.997.383.878.038 1.157.048 3.392.048s2.514-.01 3.392-.049c.875-.038 1.476-.18 1.997-.382a4.21 4.21 0 002.408-2.408c.203-.524.344-1.122.383-1.996.038-.878.048-1.157.048-3.391 0-2.235-.003-2.514-.042-3.392zm-1.482 6.719c-.036.803-.17 1.237-.283 1.527a2.73 2.73 0 01-1.563 1.562c-.29.112-.726.247-1.527.283-.868.038-1.128.048-3.324.048-2.197 0-2.46-.01-3.325-.048-.804-.036-1.238-.17-1.527-.283a2.533 2.533 0 01-.946-.614 2.559 2.559 0 01-.614-.945c-.112-.29-.247-.727-.283-1.527-.038-.868-.048-1.129-.048-3.324 0-2.196.01-2.46.048-3.324.036-.804.17-1.238.283-1.527a2.5 2.5 0 01.618-.945c.266-.273.588-.482.945-.614.29-.113.727-.248 1.527-.283.868-.039 1.129-.048 3.325-.048 2.199 0 2.46.01 3.324.048.804.035 1.238.17 1.528.283.356.132.681.34.945.614.273.267.482.588.614.945.113.29.248.726.283 1.527.038.868.048 1.128.048 3.324 0 2.195-.01 2.453-.048 3.32z"/><path d="M9.141 4.002A4.229 4.229 0 004.913 8.23a4.229 4.229 0 008.456 0 4.229 4.229 0 00-4.228-4.228zm0 6.97a2.743 2.743 0 110-5.486 2.743 2.743 0 010 5.486zm5.383-7.137a.987.987 0 11-1.975 0 .987.987 0 011.975 0z"/></svg>