<?xml version="1.0" encoding="utf-8"?><svg width="17" height="17" xmlns="http://www.w3.org/2000/svg" viewBox="0 0 17 17"><path d="M8.5 5.583a1.031 1.031 0 01-1.458-1.458l2.916-2.917a4.125 4.125 0 015.834 5.834l-2.917 2.916A1.031 1.031 0 1111.417 8.5l2.917-2.917a2.063 2.063 0 00-2.917-2.916L8.5 5.583zm0 5.833a1.031 1.031 0 011.458 1.459l-2.916 2.917a4.125 4.125 0 01-5.834-5.834l2.917-2.916A1.031 1.031 0 015.583 8.5l-2.916 2.917a2.062 2.062 0 102.916 2.917L8.5 11.416zm2.917-5.833a1.031 1.031 0 010 1.458l-4.375 4.375a1.031 1.031 0 11-1.459-1.458l4.375-4.375a1.031 1.031 0 011.459 0z"/></svg>