<?xml version="1.0" encoding="utf-8"?><svg width="56" height="56" fill="none" xmlns="http://www.w3.org/2000/svg" viewBox="0 0 56 56"><path d="M24.2 18.92h-7.48v2.64h7.48v-2.64z" fill="#2C2A2D"/><path d="M28 56c15.44 0 28-12.56 28-28S43.44 0 28 0 0 12.56 0 28s12.56 28 28 28zm0-53.32c14 0 25.36 11.36 25.36 25.36S42 53.4 28 53.4 2.64 42.04 2.64 28.04 14.04 2.68 28 2.68z" fill="#2C2A2D"/><path d="M17.24 39.84c4.56 0 8.28-3.72 8.28-8.28 0-1.24-.28-2.44-.76-3.48l9-6.08c1.04-.72 1.68-1.88 1.68-3.16V15.2h-6.88v2.64h4.24v1c0 .4-.2.76-.52 1l-9 6.04a8.268 8.268 0 00-6.04-2.6c-4.56 0-8.28 3.72-8.28 8.28 0 4.56 3.72 8.28 8.28 8.28zm0-13.92c3.12 0 5.64 2.52 5.64 5.64 0 3.12-2.52 5.64-5.64 5.64-3.12 0-5.64-2.52-5.64-5.64 0-3.12 2.52-5.64 5.64-5.64zm13.24 5.64c0 4.56 3.72 8.28 8.28 8.28 4.56 0 8.28-3.72 8.28-8.28 0-4.56-3.72-8.28-8.28-8.28-4.56 0-8.28 3.72-8.28 8.28zm8.28-5.64c3.12 0 5.64 2.52 5.64 5.64 0 3.12-2.52 5.64-5.64 5.64-3.12 0-5.64-2.52-5.64-5.64 0-3.12 2.56-5.64 5.64-5.64z" fill="#2C2A2D"/></svg>