<?xml version="1.0" encoding="utf-8"?><svg width="56" height="56" fill="none" xmlns="http://www.w3.org/2000/svg" viewBox="0 0 56 56"><g clip-path="url(#ava)" fill="#2C2A2D"><path d="M28.02 56C12.569 56 0 43.431 0 27.98 0 12.569 12.569 0 28.02 0c15.451 0 28.02 12.569 28.02 28.02C56 43.431 43.431 56 28.02 56zm0-53.358C14.01 2.642 2.642 14.01 2.642 28.02S14.01 53.398 28.02 53.398 53.398 42.03 53.398 28.02C53.358 14.01 41.99 2.642 28.02 2.642z"/><path d="M15.811 34.465c-.84 0-1.721-.24-2.562-.68-1.4-.721-2.562-2.002-3.242-3.563-.68-1.562-.88-3.283-.48-4.804.4-1.641 1.4-2.882 2.802-3.522 1.4-.64 3.002-.52 4.523.24 1.4.72 2.562 2.001 3.242 3.562.72 1.561.88 3.283.48 4.804-.4 1.641-1.4 2.882-2.802 3.522-.64.28-1.28.44-1.96.44zM14.25 24.097c-.32 0-.6.04-.88.2-.641.28-1.121.921-1.322 1.762-.24.96-.12 2.081.36 3.082.481 1.04 1.202 1.841 2.082 2.322.76.4 1.561.48 2.202.16.64-.28 1.12-.921 1.32-1.762.24-.96.12-2.081-.36-3.082-.48-1.04-1.2-1.841-2.081-2.322-.44-.24-.88-.36-1.321-.36zm8.606.561c-.96 0-1.922-.28-2.842-.841-1.361-.84-2.402-2.162-3.002-3.803-1.241-3.442.04-7.125 2.922-8.165 1.44-.52 3.042-.32 4.483.56 1.361.84 2.402 2.161 3.002 3.803 1.241 3.442-.04 7.125-2.922 8.165-.56.2-1.08.28-1.641.28zM21.535 14.21c-.24 0-.48.04-.72.12-1.482.52-2.082 2.722-1.322 4.764.4 1.08 1.081 1.921 1.922 2.441.76.44 1.521.56 2.201.32 1.482-.52 2.082-2.721 1.321-4.763-.4-1.08-1.08-1.921-1.921-2.441-.52-.28-1-.44-1.481-.44zm12.209 10.488c-.44 0-.84-.04-1.28-.16-1.482-.4-2.643-1.482-3.323-3.083-.6-1.44-.68-3.162-.24-4.843 1-3.523 4.162-5.764 7.125-4.924 2.922.8 4.523 4.363 3.522 7.886-.48 1.641-1.4 3.082-2.682 4.003-.96.76-2.041 1.12-3.122 1.12zm1.04-10.528c-1.36 0-2.801 1.321-3.322 3.202-.32 1.081-.28 2.202.12 3.123.32.8.921 1.36 1.602 1.56.68.2 1.44 0 2.161-.52.8-.6 1.401-1.52 1.721-2.602.6-2.121-.2-4.243-1.72-4.643-.201-.12-.361-.12-.561-.12zm5.605 20.295c-.6 0-1.201-.12-1.762-.36-2.842-1.122-4.002-4.844-2.641-8.247.64-1.6 1.76-2.922 3.122-3.682 1.48-.84 3.082-1.001 4.483-.4 2.842 1.12 4.003 4.843 2.642 8.245-.64 1.601-1.761 2.922-3.122 3.683-.88.52-1.842.76-2.722.76zm1.44-10.408c-.44 0-.96.12-1.4.4-.88.48-1.561 1.361-2.002 2.402-.8 2.041-.28 4.243 1.161 4.843.68.28 1.441.16 2.202-.24.88-.48 1.56-1.36 2.001-2.401.8-2.042.28-4.243-1.16-4.844-.28-.12-.561-.16-.801-.16z"/><path d="M20.734 44.592c-1.6 0-3.082-.56-4.163-2.562-1.961-3.683 1.001-6.725 2.802-8.526.48-.48.961-.96 1.201-1.321.72-1.04.8-1.401.92-2.162.081-.44.161-.96.401-1.68.76-2.603 3.282-4.524 6.044-4.524 2.723 0 5.284 1.921 6.045 4.523.2.72.32 1.241.4 1.681.12.76.2 1.121.92 2.162.24.36.721.8 1.202 1.32 1.76 1.802 4.763 4.844 2.802 8.527-1.802 3.362-4.724 2.682-7.326 2.081-1.28-.28-2.601-.6-4.002-.6-1.402 0-2.722.28-4.003.6-1.081.2-2.202.48-3.243.48zM27.9 26.419c-1.6 0-3.082 1.12-3.522 2.642-.16.6-.24 1.04-.32 1.4-.2 1.041-.36 1.762-1.401 3.203-.36.52-.88 1.04-1.441 1.641-2.002 2.042-3.323 3.603-2.322 5.444.76 1.441 1.521 1.441 4.403.76 1.361-.32 2.882-.64 4.564-.64 1.72 0 3.242.36 4.563.64 2.882.641 3.642.681 4.403-.76 1-1.841-.36-3.443-2.322-5.444-.56-.56-1.08-1.12-1.44-1.641-1.042-1.441-1.202-2.162-1.402-3.202-.08-.4-.16-.841-.32-1.401-.36-1.521-1.841-2.642-3.442-2.642z"/></g><defs><clipPath id="ava"><path fill="#fff" d="M0 0h56v56H0z"/></clipPath></defs></svg>