<?xml version="1.0" encoding="utf-8"?><svg width="140" height="140" fill="none" xmlns="http://www.w3.org/2000/svg" viewBox="0 0 140 140"><g clip-path="url(#cca)"><path d="M69.9 136.7c36.838 0 66.7-29.863 66.7-66.7S106.738 3.3 69.9 3.3C33.063 3.3 3.2 33.163 3.2 70s29.863 66.7 66.7 66.7z" stroke="#fff" stroke-width="6.563" stroke-miterlimit="10"/><path d="M114.2 76.8l-4.2-4.2c-1.8-1.8-4.2-2.8-6.7-2.8H85.4c-1.3 0-2.5-.6-3.2-1.7L66.3 42.4l-.1-.1c-.8-1.3-2.3-2-3.8-2H55c-2.5 0-4.6 2-4.6 4.6v.6L58.6 68l3 8.5h7.1L58 46.8h3.3l15.3 24.8.1.1c1.9 2.9 5.2 4.6 8.7 4.6h17.9c.8 0 1.5.3 2.1.9l4.2 4.2c.6.6.9 1.3.9 2.1v1.3h-72c-.3 0-.7-.1-.9-.4l-5.9-6.1c-.2-.2-.3-.5-.3-.9l-.8-15.7h1.8L38.3 72c1.5 2.6 4.3 4.2 7.3 4.2h10l-2.2-6.6h-7.8c-.6 0-1.3-.3-1.6-.9l-6.5-11.3c-.8-1.4-2.3-2.3-4-2.3h-5.1c-2.5 0-4.6 2-4.6 4.6l1 17.8c0 2 .8 3.9 2.2 5.3l5.9 6.1c1.5 1.5 3.5 2.4 5.6 2.4H117v-7.9c0-2.4-1-4.8-2.8-6.6z" fill="#fff"/></g><defs><clipPath id="cca"><path fill="#fff" d="M0 0h139.9v139.9H0z"/></clipPath></defs></svg>