<?xml version="1.0" encoding="utf-8"?><svg width="56" height="56" fill="none" xmlns="http://www.w3.org/2000/svg" viewBox="0 0 56 56"><g clip-path="url(#cba)" fill="#2C2A2D"><path d="M28 56c15.44 0 28-12.56 28-28S43.44 0 28 0 0 12.56 0 28s12.56 28 28 28zm0-53.32c14 0 25.36 11.36 25.36 25.36S42 53.4 28 53.4 2.64 42.04 2.64 28.04 14 2.68 28 2.68z"/><path d="M14.52 39.04h4.96c1.68 0 3.32-.52 4.72-1.48l3.8-2.64 3.64 5.96c.32.56.92.88 1.56.88H38c.68 0 1.28-.36 1.6-.96.32-.6.32-1.28-.04-1.88L30.08 23.4c-.64-1.08-1.84-1.72-3.08-1.72h-4.96c-.72 0-1.44.2-2.04.64l-4.76 3.24 1.48 2.16 4.76-3.24c.16-.12.36-.16.56-.16H27c.36 0 .68.2.84.48l8.76 14.36h-2.96l-4.88-8-6.08 4.24c-.96.64-2.04 1-3.2 1h-4.2v-2.56h3.68c.88 0 1.72-.24 2.44-.76l2.72-1.84-1.48-2.16-2.72 1.84c-.28.2-.6.28-.92.28h-4.44c-1 0-1.84.84-1.84 1.84v4.12c-.08 1.08.76 1.88 1.8 1.88zm17.24-17.96c2.08 0 3.8-1.72 3.8-3.8s-1.72-3.8-3.8-3.8-3.8 1.72-3.8 3.8 1.68 3.8 3.8 3.8zm0-5.16c.72 0 1.32.6 1.32 1.32 0 .72-.6 1.32-1.32 1.32-.72 0-1.32-.6-1.32-1.32-.04-.72.56-1.32 1.32-1.32zm10.28 9.44h-7.12V28h7.12v-2.64z"/></g><defs><clipPath id="cba"><path fill="#fff" d="M0 0h56v56H0z"/></clipPath></defs></svg>