<?xml version="1.0" encoding="utf-8"?><svg width="57" height="56" fill="none" xmlns="http://www.w3.org/2000/svg" viewBox="0 0 57 56"><path d="M28.02 56c15.451 0 28.02-12.569 28.02-28.02C56.04 12.529 43.471 0 28.02 0 12.569 0 0 12.569 0 28.02 0 43.471 12.569 56 28.02 56zm0-53.358c14.01 0 25.378 11.368 25.378 25.378S42.03 53.358 28.02 53.358 2.642 41.99 2.642 27.98 14.05 2.642 28.02 2.642z" fill="#fff"/><path d="M28.1 22.296a4.015 4.015 0 004.003-4.003A4.015 4.015 0 0028.1 14.29a4.015 4.015 0 00-4.003 4.003 4.015 4.015 0 004.003 4.003zm0-5.364c.76 0 1.361.6 1.361 1.361 0 .76-.6 1.361-1.361 1.361-.76 0-1.361-.6-1.361-1.36 0-.761.64-1.362 1.361-1.362z" fill="#fff"/><path d="M20.054 27.1l-1.88 12.448v.2c0 1.361.96 2.282 2.36 2.282h4.164c.8 0 1.48-.56 1.681-1.321l1.601-7.005h.28l1.401 6.965c.16.8.88 1.361 1.681 1.361h4.123c1.401 0 2.362-.92 2.362-2.282L36.146 27.06c0-.4.2-.76.48-1l7.926-7.486-1.801-1.921-7.926 7.485c-.8.8-1.28 1.881-1.28 3.002l1.64 12.29h-3.042l-1.4-6.926c-.161-.8-.841-1.4-1.682-1.4H27.22c-.801 0-1.521.56-1.682 1.32l-1.6 7.005h-3.123l1.801-12.008v-.2a4.21 4.21 0 00-1.28-3.003l-7.846-7.565-1.802 1.881 7.846 7.566c.32.28.48.64.52 1z" fill="#fff"/></svg>