<?xml version="1.0" encoding="utf-8"?><svg width="142" height="142" fill="none" xmlns="http://www.w3.org/2000/svg" viewBox="0 0 142 142"><g clip-path="url(#bvclip0_809_1086)"><path fill-rule="evenodd" clip-rule="evenodd" d="M90.2 70.52c-3.32-.42-6.5-.81-6.5-3.38 0-.31-.12-3.93 5.98-3.93 6.29 0 6.73 4.43 6.73 4.43h6.04l-.13-1.08c-.19-1.62-1.68-8.19-13.18-8.19-1.2 0-11.45.38-11.45 9.17 0 4.08 1.66 7 10.88 8.02 7.91.87 8.28 2.86 8.28 3.83 0 3.48-2.87 4.35-6.47 4.35-4.72 0-6.49-2.37-7.02-3.94L83 78.72h-6.03v.55c0 .92.67 9.31 13.75 9.31 9.15 0 12.29-5.19 12.29-9.37 0-3.64-1.54-7.48-12.81-8.69zM26.31 60.28v6.28c0 .73.6 1.33 1.33 1.33h17.03v5.55H27.64c-.73 0-1.33.6-1.33 1.33v6.55c0 .73.6 1.33 1.33 1.33H44.8v5.54H20.38V59.51c0-.59.23-1.15.65-1.57l4.17-4.16c.42-.42.98-.65 1.57-.65H44.8v5.81H27.64c-.74.01-1.33.6-1.33 1.34z" fill="#000"/><path d="M120.64 58.76v5.84h-8.34c-.73 0-1.33.6-1.33 1.33V88.2h-6.02V65.07c0-.59.23-1.15.65-1.57l4.1-4.1c.42-.42.98-.65 1.57-.65h9.37v.01z" fill="#000"/><path fill-rule="evenodd" clip-rule="evenodd" d="M63.32 58.36c-4.52 0-7.47 2.41-8.79 4.41h-.85v-4.03h-5.72V88.2h5.99V74.39c0-7.8 3.82-10.16 8.35-10.16 2.3 0 4.27.81 5.47 2.91 1.18 2.07 1.27 2.49 1.27 12.29v8.77h6.08V71.3c-.1-4.17-1.16-12.94-11.8-12.94z" fill="#000"/><path d="M70.65 138.02c37.207 0 67.37-30.163 67.37-67.37 0-37.207-30.163-67.37-67.37-67.37-37.208 0-67.37 30.163-67.37 67.37 0 37.207 30.162 67.37 67.37 67.37z" stroke="#000" stroke-width="6.563" stroke-miterlimit="10"/></g><defs><clipPath id="bvclip0_809_1086"><path fill="#fff" d="M0 0h141.3v141.3H0z"/></clipPath></defs></svg>