<?xml version="1.0" encoding="utf-8"?><svg width="140" height="140" fill="none" xmlns="http://www.w3.org/2000/svg" viewBox="0 0 140 140"><path fill-rule="evenodd" clip-rule="evenodd" d="M69.95 6.356c-35.122 0-63.595 28.472-63.595 63.594s28.473 63.594 63.595 63.594 63.594-28.472 63.594-63.594S105.072 6.356 69.95 6.356zM.204 69.95C.204 31.43 31.43.204 69.95.204c38.519 0 69.745 31.226 69.745 69.746 0 38.519-31.226 69.746-69.745 69.746-38.52 0-69.746-31.227-69.746-69.746zM80.23 41.616a3.614 3.614 0 100 7.228 3.614 3.614 0 000-7.228zm-9.766 3.614c0-5.393 4.372-9.766 9.766-9.766 5.393 0 9.765 4.373 9.765 9.766s-4.372 9.766-9.765 9.766c-5.394 0-9.766-4.373-9.766-9.766zm-20.57-1.786a6.421 6.421 0 015.696-3.46c2.411 0 4.578 1.358 5.686 3.442l.004.008 14.166 26.843 3.16-5.7.003-.006c1.322-2.397 3.867-3.827 6.56-3.827h5.99c2.695 0 5.24 1.43 6.563 3.828l.002.004L113.92 93.82l-5.381 2.98-16.2-29.25-.003-.006c-.198-.36-.632-.648-1.176-.648h-5.99c-.544 0-.978.288-1.176.648l-.004.007L67.78 96.8l-5.38-2.982 9.484-17.114-16.04-30.392-.001-.001c-.072-.135-.185-.176-.253-.176a.27.27 0 00-.24.148l-.005.01L28.73 96.746l-5.44-2.87 26.599-50.42.006-.011z" fill="#fff"/></svg>