<?xml version="1.0" encoding="utf-8"?><svg width="39" height="39" fill="none" xmlns="http://www.w3.org/2000/svg" viewBox="0 0 39 39"><g filter="url(#bzfilter0_d_159_3216)"><rect x="3.5" y="3.5" width="32" height="32" rx="7" fill="#fff"/><path fill-rule="evenodd" clip-rule="evenodd" d="M13.292 12.252c-.185.199-.292.504-.292.902V27.3c0 .399.107.704.298.895l.05.043 7.925-7.925v-.177l-7.932-7.927-.05.044z" fill="url(#bzpaint0_linear_159_3216)"/><path fill-rule="evenodd" clip-rule="evenodd" d="M23.909 22.962l-2.643-2.643v-.185l2.643-2.643.057.035 3.127 1.777c.895.504.895 1.337 0 1.847l-3.127 1.777-.057.035z" fill="url(#bzpaint1_linear_159_3216)"/><path fill-rule="evenodd" clip-rule="evenodd" d="M23.966 22.927l-2.7-2.7L13.29 28.2c.292.312.782.347 1.329.043l9.346-5.317z" fill="url(#bzpaint2_linear_159_3216)"/><path fill-rule="evenodd" clip-rule="evenodd" d="M23.966 17.526l-9.346-5.309c-.547-.313-1.039-.27-1.329.043l7.974 7.967 2.701-2.701z" fill="url(#bzpaint3_linear_159_3216)"/><path opacity=".2" fill-rule="evenodd" clip-rule="evenodd" d="M23.91 22.87l-9.282 5.273c-.519.299-.981.278-1.28.007l-.05.05.05.042c.299.27.761.292 1.28-.006l9.346-5.309-.064-.057z" fill="#2C2A2D"/><path opacity=".12" fill-rule="evenodd" clip-rule="evenodd" d="M27.092 21.057L23.9 22.87l.058.058 3.126-1.777c.449-.255.669-.59.669-.924-.027.306-.255.597-.66.831z" fill="#2C2A2D"/><path opacity=".25" fill-rule="evenodd" clip-rule="evenodd" d="M14.62 12.31l12.474 7.085c.405.228.633.527.668.831 0-.333-.22-.668-.668-.923L14.62 12.217c-.895-.512-1.621-.085-1.621.938v.092c0-1.024.726-1.443 1.62-.938z" fill="#fff"/><rect x="3.5" y="3.5" width="32" height="32" rx="7" stroke="#F8F8F8"/></g><defs><linearGradient id="bzpaint0_linear_159_3216" x1="20.562" y1="13.002" x2="7.867" y2="16.384" gradientUnits="userSpaceOnUse"><stop stop-color="#00A0FF"/><stop offset=".007" stop-color="#00A1FF"/><stop offset=".26" stop-color="#00BEFF"/><stop offset=".512" stop-color="#00D2FF"/><stop offset=".76" stop-color="#00DFFF"/><stop offset="1" stop-color="#00E3FF"/></linearGradient><linearGradient id="bzpaint1_linear_159_3216" x1="28.26" y1="20.227" x2="12.782" y2="20.227" gradientUnits="userSpaceOnUse"><stop stop-color="#FFE000"/><stop offset=".409" stop-color="#FFBD00"/><stop offset=".775" stop-color="orange"/><stop offset="1" stop-color="#FF9C00"/></linearGradient><linearGradient id="bzpaint2_linear_159_3216" x1="22.498" y1="21.696" x2="12.307" y2="38.848" gradientUnits="userSpaceOnUse"><stop stop-color="#FF3A44"/><stop offset="1" stop-color="#C31162"/></linearGradient><linearGradient id="bzpaint3_linear_159_3216" x1="11.283" y1="7.547" x2="15.83" y2="15.208" gradientUnits="userSpaceOnUse"><stop stop-color="#32A071"/><stop offset=".069" stop-color="#2DA771"/><stop offset=".476" stop-color="#15CF74"/><stop offset=".801" stop-color="#06E775"/><stop offset="1" stop-color="#00F076"/></linearGradient><filter id="bzfilter0_d_159_3216" x=".483" y=".483" width="38.033" height="38.033" filterUnits="userSpaceOnUse" color-interpolation-filters="sRGB"><feFlood flood-opacity="0" result="BackgroundImageFix"/><feColorMatrix in="SourceAlpha" values="0 0 0 0 0 0 0 0 0 0 0 0 0 0 0 0 0 0 127 0" result="hardAlpha"/><feOffset/><feGaussianBlur stdDeviation="1.508"/><feColorMatrix values="0 0 0 0 0 0 0 0 0 0 0 0 0 0 0 0 0 0 0.05 0"/><feBlend in2="BackgroundImageFix" result="effect1_dropShadow_159_3216"/><feBlend in="SourceGraphic" in2="effect1_dropShadow_159_3216" result="shape"/></filter></defs></svg>