<?xml version="1.0" encoding="utf-8"?><svg width="40" height="39" fill="none" xmlns="http://www.w3.org/2000/svg" viewBox="0 0 40 39"><g filter="url(#cja)"><rect x="4" y="3.5" width="32" height="32" rx="7" fill="#1877F2"/><rect x="4" y="3.5" width="32" height="32" rx="7" fill="url(#cjb)"/><path d="M20.15 12.49l.52-.9a1.17 1.17 0 112.03 1.17l-5.015 8.68h3.627c1.176 0 1.835 1.382 1.324 2.34H12.002c-.65 0-1.17-.521-1.17-1.17 0-.65.52-1.17 1.17-1.17h2.98l3.818-6.615-1.192-2.069a1.173 1.173 0 012.03-1.17l.511.903zm-4.512 12.494l-1.124 1.95a1.171 1.171 0 11-2.03-1.17l.835-1.445c.944-.293 1.712-.068 2.32.665zm9.684-3.537h3.042c.65 0 1.17.52 1.17 1.17 0 .648-.52 1.169-1.17 1.169h-1.69l1.14 1.979a1.172 1.172 0 01-2.03 1.17c-1.92-3.332-3.363-5.826-4.32-7.487-.98-1.69-.28-3.386.41-3.961.768 1.317 1.915 3.306 3.448 5.96z" fill="#fff"/></g><defs><linearGradient id="cjb" x1="20" y1="3.5" x2="20" y2="35.5" gradientUnits="userSpaceOnUse"><stop stop-color="#18BFFB"/><stop offset="1" stop-color="#2072F3"/></linearGradient><filter id="cja" x=".983" y=".483" width="38.033" height="38.033" filterUnits="userSpaceOnUse" color-interpolation-filters="sRGB"><feFlood flood-opacity="0" result="BackgroundImageFix"/><feColorMatrix in="SourceAlpha" values="0 0 0 0 0 0 0 0 0 0 0 0 0 0 0 0 0 0 127 0" result="hardAlpha"/><feOffset/><feGaussianBlur stdDeviation="1.508"/><feColorMatrix values="0 0 0 0 0 0 0 0 0 0 0 0 0 0 0 0 0 0 0.05 0"/><feBlend in2="BackgroundImageFix" result="effect1_dropShadow_159_3193"/><feBlend in="SourceGraphic" in2="effect1_dropShadow_159_3193" result="shape"/></filter></defs></svg>