<?xml version="1.0" encoding="utf-8"?><svg width="20" height="21" fill="none" xmlns="http://www.w3.org/2000/svg" viewBox="0 0 20 21"><g clip-path="url(#cea)"><path d="M10 20.5c5.523 0 10-4.477 10-10S15.523.5 10 .5 0 4.977 0 10.5s4.477 10 10 10z" fill="#F0F0F0"/><path d="M2.067 4.412a9.963 9.963 0 00-1.722 3.48h5.202l-3.48-3.48zm17.588 3.479a9.964 9.964 0 00-1.722-3.48l-3.48 3.48h5.202zM.345 13.109a9.965 9.965 0 001.722 3.48l3.48-3.48H.345zM16.088 2.567a9.964 9.964 0 00-3.48-1.722v5.202l3.48-3.48zM3.912 18.433a9.964 9.964 0 003.48 1.722v-5.202l-3.48 3.48zM7.391.845a9.964 9.964 0 00-3.48 1.722l3.48 3.48V.845zm5.218 19.31a9.964 9.964 0 003.48-1.722l-3.48-3.48v5.202zm1.844-7.046l3.48 3.48a9.963 9.963 0 001.722-3.48h-5.202z" fill="#0052B4"/><path d="M19.915 9.196h-8.61V.585a10.1 10.1 0 00-2.61 0v8.61H.086a10.1 10.1 0 000 2.61h8.61v8.61a10.114 10.114 0 002.61 0v-8.61h8.61a10.115 10.115 0 000-2.61z" fill="#D80027"/><path d="M12.609 13.109l4.462 4.462c.205-.205.401-.42.588-.642l-3.82-3.82h-1.23zm-5.218 0L2.929 17.57c.205.205.42.401.642.588l3.82-3.82v-1.23zm0-5.218L2.93 3.43c-.205.205-.4.42-.588.642l3.82 3.82h1.23zm5.218 0L17.07 3.43c-.205-.205-.42-.4-.642-.588l-3.82 3.82v1.23z" fill="#D80027"/></g><defs><clipPath id="cea"><path fill="#fff" transform="translate(0 .5)" d="M0 0h20v20H0z"/></clipPath></defs></svg>