<?xml version="1.0" encoding="utf-8"?><svg width="61" height="48" fill="none" xmlns="http://www.w3.org/2000/svg" viewBox="0 0 61 48"><path d="M40.065 32.302c-3.771 0-6.828 2.997-6.828 6.694s3.057 6.694 6.828 6.694a6.888 6.888 0 003.863-1.176l1.115 1.103 1.556-1.542-1.072-1.063a6.574 6.574 0 001.365-4.016c0-3.697-3.056-6.694-6.828-6.694zm-38.717.404v7.482c0 2.907 2.2 5.39 5.61 5.39s5.61-2.483 5.61-5.39v-7.482h-2.39v6.982c0 2.305-1.373 3.688-3.22 3.688-1.826 0-3.218-1.383-3.218-3.688v-6.982H1.348zm13.898 0v12.58h2.366v-7.83l6.929 7.851h1.309V32.706h-2.367v7.861l-6.945-7.861h-1.292zm13.434 0v12.58h2.457v-12.58H28.68zm23.847 0l-5.554 12.58h2.549l.999-2.37h5.476l.969 2.37h2.621l-5.414-12.58h-1.646zm-12.462 1.696c2.448 0 4.433 2.057 4.433 4.594 0 .867-.232 1.677-.634 2.37l-1.47-1.455-1.557 1.542 1.501 1.486a4.298 4.298 0 01-2.273.65c-2.45 0-4.434-2.056-4.434-4.593s1.985-4.594 4.434-4.594zm13.237 1.921l1.85 4.524h-3.758l1.908-4.524zM25.841 1.331c-1.707.017-3.09.377-3.897.711-3.09 1.28-4.967 3.132-6.226 5.267-1.456 2.47-1.752 5.053-1.56 7.107.052.495.084.85.154 1.199.48 3 2.38 5.753 4.98 7.733 2.166 1.651 4.79 2.944 7.575 2.95.97 0 2.026-.117 3.101-.38l.325-.093a16.106 16.106 0 01-4.673-2.383c-.62.087-1.985.138-3.211-.094-2.122-.4-3.524-1.337-3.539-1.36-.564-.808-2.07-3.207-2.029-6.535.05-3.83 1.877-6.477 2.064-6.757A12.449 12.449 0 0122.1 5.437c1.957-1.394 4.308-2.23 6.765-2.183.224.006.45.015.674.035 4.971.429 7.875 4.168 7.875 4.168C35.522 4.74 32.578 2.67 29.21 1.75a12.741 12.741 0 00-3.368-.42zm.201 3.043c-1.45.392-2.307.794-3.506 1.665-.72.524-1.7 1.337-2.437 2.316-1.779 4.307.68 8.422 1.804 10.114a17.112 17.112 0 004.314 4.489c4.102 2.959 8.72 3.188 13.684 3.449 3.063.16 9.652.135 9.652.135l-1.942-3.663-.844-.005c-.792 0-5.327-.023-7.541-.142-2.735-.145-4.854-.317-6.23-.668-2.936-.75-5.79-2.211-8.06-5.633-.891-1.344-1.78-3.516-1.872-5.37-.196-3.948 1.689-6 2.978-6.688zm7.844 1.024c1.718 1.765 3.136 5.527 1.91 9.611-.847 2.823-2.59 4.876-3.881 5.964.419.143.841.267 1.267.375.845.216 2.011.363 3.488.48 1.108-1.486 3.001-4.846 2.772-7.905-.146-2.484-1.365-5.86-5.556-8.525zM8.997 23.418l-1.63 2.877h15.63c-1.52-.57-2.924-1.418-4.161-2.36-.218-.166-.432-.34-.641-.516H8.997z" fill="#000"/></svg>