<?xml version="1.0" encoding="utf-8"?><svg width="1440" height="789" fill="none" xmlns="http://www.w3.org/2000/svg" viewBox="0 0 1440 789"><g filter="url(#csfilter0_f_1408_1244)" fill="#8DB9FF" fill-opacity=".6"><path d="M540.766 66.197c-9.688 2.576-14.016 3.092-29.887 3.71-20.612.825-22.673 1.443-27.208 8.863-3.607 5.874-6.905 6.493-18.447 3.71-11.543-2.782-18.139-2.37-25.662 1.34-5.256 2.68-11.955 9.378-14.944 14.944-1.545 2.988-8.038 6.904-14.428 8.863-2.782.824-2.267 4.534 1.031 7.832 3.71 3.71 11.439 5.359 20.715 4.535 8.141-.825 13.81.721 16.077 4.122.824 1.237 4.122 10.821 7.317 21.333 6.493 21.23 7.523 23.704 12.058 28.444 6.905 7.318 13.81 6.699 25.662-2.37 12.16-9.275 16.695-11.233 40.708-17.417 14.84-3.916 25.971-8.348 29.887-12.058 1.546-1.443 2.576-3.916 2.988-7.008l.619-4.844 6.08-.618c10.822-.927 13.707-4.741 11.234-15.15-2.474-11.027-2.474-12.057.309-14.84 1.34-1.34 4.534-3.092 7.008-3.813 2.473-.722 4.844-1.855 5.256-2.474 1.649-2.267.824-9.481-1.34-12.264-2.679-3.4-6.183-3.504-13.604-.103-7.729 3.607-9.79 2.68-14.222-6.183-4.122-8.245-8.038-11.852-12.573-11.749-1.855.103-8.348 1.546-14.634 3.195zM1005.15 113.914c-3.61.824-11.543 3.091-17.726 5.152-6.081 2.062-17.727 4.844-25.868 6.184-16.593 2.783-24.322 5.153-30.712 9.378-3.607 2.371-4.534 2.68-4.947 1.443-.927-2.885-7.111-7.832-11.233-9.069-10.203-3.092-17.108-.927-31.227 9.688-14.016 10.512-16.18 11.233-51.529 15.355-12.161 1.34-24.116 2.783-26.486 3.092l-4.226.618.103-3.607c.103-5.049-2.885-8.76-9.584-12.161-11.749-5.874-30.506-5.977-50.087-.309-15.355 4.535-40.811 16.077-50.086 22.879-11.543 8.348-12.573 19.788-2.371 26.074l3.401 2.061-3.813 3.917c-2.061 2.164-5.359 5.874-7.42 8.244-6.184 7.318-10.821 5.875-21.23-6.492-7.627-9.07-11.646-11.852-17.314-11.852-6.287 0-7.111 1.443-6.493 11.646.619 9.584 2.989 15.458 7.833 19.375l2.988 2.473-3.916 3.71c-4.534 4.122-5.05 7.008-2.37 12.676 2.679 5.462 1.443 7.936-7.317 13.913-8.554 5.978-10.822 9.172-10.822 15.768 0 5.668 2.989 10.615 7.833 12.883l3.607 1.752-3.401 1.236c-2.37.825-3.298 1.752-3.195 3.092.309 3.092-5.05 12.882-14.016 25.559-14.943 21.024-19.272 34.009-18.344 54.724.824 19.581 6.596 34.525 18.447 47.407 12.264 13.398 19.788 14.428 40.296 5.565 4.02-1.752 9.997-3.401 13.192-3.71 5.462-.515 5.977-.412 7.626 2.164 2.474 3.71 7.008 5.978 12.47 6.081 4.123 0 4.535.206 3.917 2.061-1.237 3.813-.516 21.024 1.03 27.207.928 3.298 3.092 9.585 4.844 13.81 4.637 10.718 4.637 20.303 0 38.029-4.329 16.386-5.05 26.692-2.783 38.132 2.989 14.634 8.451 24.734 20.921 38.441 4.535 5.049 8.039 10.409 11.131 16.798 6.595 13.81 12.676 17.726 22.879 14.944 10.099-2.68 16.283-8.966 22.673-22.776 6.183-13.501 8.657-17.829 15.252-26.28 8.554-11.028 9.791-13.707 11.44-24.734 1.546-10.203 2.37-11.543 11.955-17.108 8.76-5.153 10.924-16.387 5.977-31.845-5.359-16.799-2.989-25.25 12.985-46.892 5.05-6.905 10.925-15.665 12.986-19.684 4.741-8.966 9.893-24.219 10.306-30.3l.309-4.637-9.275.309c-8.348.309-9.585.103-12.883-2.061-1.958-1.34-5.153-4.638-7.214-7.214-4.019-5.359-15.871-26.486-15.253-27.105.207-.206 3.607 4.741 7.524 11.131 9.069 14.634 10.615 16.18 15.974 16.18 7.523 0 34.834-12.058 45.037-19.788 9.584-7.317 13.5-20.302 8.553-28.444-2.473-4.019-2.473-4.019 11.234-.721 27.517 6.699 37.616 18.138 44.418 50.189 2.37 11.131 4.122 14.635 8.142 16.284 3.916 1.546 7.214.824 11.336-2.577 4.02-3.401 5.153-7.317 6.184-20.508 1.03-12.058 3.298-17.52 9.584-22.776 7.317-6.184 17.623-7.627 25.354-3.71 5.56 2.885 11.23 9.79 12.37 14.943l.82 4.225 9.28-.412 5.97 10.203c3.2 5.668 6.39 10.615 7.01 10.924.62.412 1.75-.103 2.58-1.236 1.34-1.856 1.54-1.752 3.91 1.236 2.89 3.71 9.18 6.596 14.53 6.596 6.5 0 12.27-4.432 15.36-11.543 2.16-5.359 1.96-8.966-.93-14.531-1.65-3.298-1.95-4.844-1.13-4.844 2.27 0 6.6-6.08 7.21-10.099 1.45-8.657 3.71-11.44 16.08-20.097 8.25-5.668 11.75-9.687 15.05-17.005 6.59-14.222 4.43-32.154-5.36-44.109-4.23-5.05-4.33-5.565-1.55-5.565 5.05 0 8.04 2.989 12.27 11.646 5.97 12.676 12.57 17.211 19.58 13.604 5.25-2.68 6.39-6.287 6.18-19.479-.31-14.634.21-15.561 12.27-21.642 10.2-5.153 14.63-9.275 17.72-16.386 4.54-10.1 3.71-21.849-2.06-31.021l-2.99-4.638 2.78-2.061c4.33-3.092 13.81-5.874 28.55-8.348 7.32-1.236 15.15-2.988 17.32-3.71 2.26-.824 4.43-1.443 4.84-1.443.41 0-.83 3.092-2.78 6.802-8.04 15.15-4.44 29.887 8.86 35.762 5.46 2.37 10.1 1.752 14.53-2.061 4.33-3.607 5.77-6.699 7.83-16.902 3.61-17.932 7.11-21.024 27.83-24.631 13.91-2.37 21.85-5.771 25.66-10.718 7.21-9.585 2.78-21.952-10-27.414-5.05-2.164-6.08-2.267-26.48-1.546-17.52.619-22.78.412-29.99-.927-15.77-2.989-40.3-9.791-61.94-17.108-11.75-4.019-22.67-7.214-24.53-7.214-4.84 0-7.32 3.092-7.32 9.275 0 5.05 0 5.05-3.71 5.771-8.55 1.546-29.78-1.442-59.15-8.347-10.51-2.474-22.98-5.256-27.83-6.184-12.26-2.473-36.79-2.989-45.24-1.03zm-272.488 51.632c-.824 4.225 1.134 9.481 5.153 13.913l3.71 4.122-3.195 2.783c-1.752 1.546-5.049 5.05-7.317 7.832-8.244 10.203-17.726 13.81-22.467 8.554-1.133-1.236-2.576-3.195-3.194-4.431-1.134-2.061-.928-2.164 3.916-1.649 6.286.618 10.615-1.134 13.707-5.359 1.958-2.783 2.267-4.329 2.061-12.367-.309-11.44 1.546-15.665 6.802-15.974.927-.103 1.236.721.824 2.576zm-38.75 87.497c3.504 1.752 8.966 6.183 14.634 12.058 7.421 7.523 9.173 8.863 9.688 7.317.412-1.031 1.134-2.164 1.752-2.576.618-.413 1.134-2.165 1.237-4.02.103-1.752 1.133-4.122 2.267-5.256 1.958-2.061 2.061-1.958 10.615 10.409 4.741 6.802 9.275 12.47 10.1 12.47.721 0 3.607-1.958 6.389-4.225l5.153-4.226 10.512 5.256c14.635 7.318 15.459 8.039 14.016 12.264-.618 1.856-.824 4.638-.412 6.184.619 2.783.618 2.783-3.298-1.031-5.565-5.462-11.955-7.832-23.497-9.069-11.027-1.133-13.295-.824-20.2 2.783-5.771 2.989-6.698 2.782-21.024-3.401-10.202-4.432-10.306-4.638-13.397-10.409-5.978-11.543-15.665-13.398-36.483-7.111-6.287 1.855-11.44 3.401-11.44 3.298 0-.103 4.329-4.741 9.585-10.409 5.359-5.771 11.233-10.924 13.604-12.058 5.462-2.577 12.882-1.855 20.199 1.752zM855.405 315.6l9.997 5.05-8.348-.413c-12.058-.721-17.932-4.431-17.932-11.336v-2.886l3.195 2.267c1.752 1.237 7.626 4.535 13.088 7.318zm-66.782 1.649c4.638 7.214 5.153 8.657 2.061 5.874-2.576-2.37-5.668-7.317-6.699-10.821-1.03-3.401-.309-2.68 4.638 4.947zM218.192 122.055c-2.782 1.34-6.286 3.607-7.626 5.05-3.195 3.504-2.267 4.741 7.523 9.585l7.317 3.607-14.943-.516c-8.245-.309-27.414-.824-42.77-1.236-23.703-.516-29.062-.928-36.585-2.783-12.058-3.092-31.949-2.989-43.697.206-15.356 4.123-29.372 12.264-24.013 14.016.618.206 5.36 1.649 10.512 3.092 10.512 3.195 10.306 3.916-2.061 5.462-12.78 1.752-14.944 5.977-7.833 15.871 2.68 3.71 3.917 6.39 3.607 7.73-.515 1.752.413 2.267 6.39 4.122l6.905 2.061-8.863 7.626c-4.947 4.226-8.966 7.936-8.966 8.451 0 1.752 6.183 2.989 13.707 2.577 7.626-.516 8.76-.928 26.795-9.894 10.306-5.153 20.509-9.894 22.57-10.512 6.493-1.958 17.211-1.443 24.631 1.237 16.901 6.183 38.647 25.971 47.201 42.769 1.958 4.019 4.74 12.986 7.42 24.631 5.05 21.849 9.378 34.937 17.005 50.911 7.832 16.387 17.932 33.082 19.89 32.773 2.164-.412 3.401-7.214 2.886-15.047-.309-3.504-.309-6.389-.206-6.389.206 0 1.649 3.813 3.194 8.451 8.657 26.589 14.119 32.257 41.121 43.078 26.074 10.512 30.505 13.604 38.029 26.589 6.595 11.543 10.512 14.635 18.344 14.635 2.473 0 5.153-.413 5.977-1.031 2.062-1.237 3.092.515 3.092 5.462 0 4.535-.515 5.565-7.729 16.696-7.524 11.439-9.894 18.344-10.512 30.917-.928 16.902 2.679 27.414 14.634 43.285 9.791 13.088 12.058 18.241 12.676 29.784.516 11.44-1.133 20.406-8.244 43.388-18.345 59.568-26.177 110.582-19.582 127.277 2.989 7.627 7.524 12.883 14.016 16.284 7.215 3.813 19.376 3.916 26.384.309 5.049-2.577 9.275-6.081 9.275-7.627 0-.515-1.649-2.782-3.71-5.049-4.638-5.153-6.493-9.482-7.318-17.314-.824-8.245.928-16.49 6.905-31.949 2.783-7.111 5.669-15.458 6.39-18.447 1.443-5.565 1.443-5.565 6.802-6.905 10.1-2.576 21.127-9.894 28.444-18.86 2.371-2.782 6.39-6.699 8.966-8.76 10.409-7.935 18.757-20.199 23.601-34.628 2.988-8.966 5.771-11.645 16.901-15.974 19.479-7.626 25.353-15.149 27.929-35.967 1.752-14.222 2.68-16.696 10.306-25.868 7.111-8.657 8.554-11.439 9.379-17.314 1.236-8.76-5.875-18.756-17.108-24.322-3.092-1.545-10.203-4.637-15.871-6.802-12.367-4.843-16.799-8.656-26.177-22.569-8.451-12.574-13.089-16.078-31.639-23.395-17.005-6.699-18.036-7.214-27.002-14.016-5.874-4.534-8.45-5.874-12.264-6.286-2.679-.309-5.668-1.34-6.698-2.371-3.504-3.504-8.76-1.752-17.52 5.978-7.111 6.286-11.028 8.038-16.078 7.008-5.668-1.031-9.275-5.462-10.202-12.676-1.031-8.451-1.855-10.1-8.657-16.902-5.153-5.05-6.184-6.699-6.184-9.585 0-2.473.618-3.813 2.061-4.637 4.329-2.267 1.34-7.627-4.947-8.863-2.267-.413-5.359.103-9.481 1.546-8.451 3.091-13.191 2.576-16.077-1.649-3.298-4.947-5.05-15.356-3.504-20.921 2.267-8.554 10.821-12.986 19.993-10.409 9.069 2.473 15.15 10.409 20.303 26.383 2.576 8.038 4.122 11.13 7.111 14.119 4.328 4.431 9.687 5.874 14.016 3.71 4.741-2.267 5.256-4.328 2.267-7.936-6.389-7.523-6.492-18.138-.515-30.196 3.916-7.935 40.296-55.755 46.273-60.907 4.226-3.608 8.657-3.608 17.726-.207 9.173 3.401 13.089 3.401 17.314-.412 2.886-2.576 3.298-3.607 3.298-8.038 0-9.07-6.493-15.768-16.798-17.417-2.989-.516-3.917-1.031-2.989-1.546 1.752-1.237 8.554-3.092 14.016-4.02 4.328-.721 4.534-.618 6.39 2.989 3.71 7.317 10.408 11.44 18.653 11.44 9.172 0 15.871-6.184 13.398-12.47-1.649-4.535-13.295-19.169-20.509-25.765-5.668-5.256-17.623-13.81-26.589-19.066-1.649-.928-1.031-1.34 4.122-2.989 6.081-1.958 16.49-8.038 19.066-11.13 1.855-2.37.722-3.607-9.584-10.409-11.337-7.523-23.498-13.398-35.968-17.623-17.726-5.874-26.074-7.214-45.036-7.214-16.181 0-17.314.103-22.673 2.679-3.092 1.443-9.173 5.256-13.604 8.348-8.245 5.978-15.459 8.657-20.509 7.523-2.679-.618-2.989-1.133-2.989-4.534 0-3.813-2.267-7.936-6.183-11.234-3.607-3.091-9.275-4.534-20.509-5.359-6.596-.515-16.901-2.061-22.982-3.504-14.531-3.504-24.219-3.504-31.227-.206zm160.36 32.258c.618 1.649 2.164 4.328 3.607 6.183 2.988 3.916 2.989 4.019.412 4.741-1.649.412-2.061 1.443-2.061 4.534 0 5.153-5.153 15.768-9.482 19.376-11.439 9.687-26.898 9.481-38.131-.413-7.008-6.183-7.627-12.676-1.443-16.489 3.916-2.474 9.069-2.68 20.509-1.031 9.481 1.443 15.149.103 19.993-4.74 2.989-2.989 3.401-4.02 3.401-9.173 0-6.183 1.443-7.523 3.195-2.988z"/><path d="M1184.26 202.647c-1.13 1.34-1.44 6.493-1.54 23.498-.21 28.444-2.37 42.975-7.42 48.334-1.86 1.958-5.46 3.71-11.13 5.462-4.64 1.34-10 3.607-11.85 4.844-10.21 6.802-10.52 24.116-.42 26.074 7.73 1.443 26.39-11.027 31.64-21.127 2.48-4.638 2.89-6.699 2.89-13.398 0-10.099 1.24-11.955 8.96-13.5 7.63-1.649 10.62-4.638 10.62-10.512-.1-5.772-1.65-7.627-8.86-10.409-4.54-1.752-6.19-2.989-6.39-4.638-.21-1.443.2-2.267 1.13-2.267.83 0 2.27-.928 3.3-2.061 1.54-1.649 1.75-3.092 1.24-8.451-.93-9.276-2.38-13.604-5.88-17.314-1.65-1.752-2.88-3.71-2.78-4.329.41-1.855-1.96-1.958-3.51-.206zM1023.39 408.764c-1.34 1.34-.93 7.524.72 10.718.83 1.649 4.74 5.565 8.76 8.76 6.29 5.05 7.63 6.699 11.34 14.635 4.43 9.172 13.91 20.611 19.78 23.6 7.01 3.607 14.23.206 14.23-6.905 0-5.359-5.47-15.768-10.93-20.715-2.57-2.473-9.48-9.069-15.25-14.84-6.29-6.184-12.37-11.233-15.36-12.676-5.25-2.577-12.05-3.917-13.29-2.577zM1173.03 432.056c-9.58 4.947-9.17 15.253.83 19.478 13.39 5.668 15.46 7.008 22.46 13.81 11.13 10.924 17.32 24.837 16.7 37.823l-.31 6.492-3.09-4.431c-7.94-11.337-9.59-13.192-13.92-15.459-9.37-4.844-16.48-1.855-44.52 18.447-24.42 17.83-29.68 22.776-34.62 32.773-3.71 7.627-3.82 7.936-3.82 19.581.11 11.852.11 12.058 4.95 24.013 4.12 10.306 4.84 12.985 4.84 19.169 0 8.348 1.03 9.688 8.56 11.646 6.28 1.546 15.56.721 21.43-1.855 2.58-1.134 7.84-4.947 11.75-8.451 10.2-9.069 13.81-10.821 22.88-10.821 6.49.103 8.55.618 15.46 4.019 6.9 3.298 10 5.874 21.64 17.52 15.56 15.665 17.01 16.489 29.58 15.768 8.86-.515 16.59-3.195 21.02-7.317 5.88-5.462 8.87-16.181 8.76-31.639-.2-13.501-2.68-23.704-9.17-37.102-4.53-9.275-5.67-10.615-21.95-26.795-9.48-9.378-18.65-18.963-20.51-21.333-4.74-6.08-8.55-14.84-9.17-21.333l-.62-5.668 5.98-.31c3.71-.206 6.18-.824 6.49-1.648.21-.825-.72-1.237-2.88-1.237-1.86 0-2.99-.412-2.58-1.031 1.44-2.267 4.43-.721 9.89 5.256 5.46 5.772 6.08 6.184 9.79 5.875 4.85-.413 7.32-3.917 6.19-8.657-1.45-5.978-27.93-28.445-45.45-38.441-10.72-6.184-18.86-9.276-25.97-9.997-4.95-.515-6.7-.206-10.62 1.855zM847.365 492.86c-2.68 1.34-5.772 4.123-7.317 6.493-1.546 2.267-3.917 4.432-5.256 4.741-1.237.309-2.268 1.133-2.062 1.855.103.721-1.236 2.473-2.988 4.019-5.669 4.741-6.287 7.523-5.566 27.414.722 21.951 1.031 23.497 4.226 27.413 5.462 6.39 14.84 2.886 19.169-7.111 1.133-2.576 3.607-11.027 5.668-18.653 2.783-11.131 3.71-16.593 4.122-27.311.825-20.715-.721-23.6-9.996-18.86zM1365.44 632.917c-1.54 1.134-3.19 3.916-3.91 6.39-.62 2.37-2.58 5.977-4.44 7.935-5.46 5.875-9.89 12.574-9.89 15.047 0 3.298 4.64 6.596 9.17 6.596 11.03-.103 20.82-10.924 22.47-24.734 1.34-11.028-5.98-17.108-13.4-11.234z"/></g><defs><filter id="csfilter0_f_1408_1244" x="-3" y="0" width="1445" height="788.209" filterUnits="userSpaceOnUse" color-interpolation-filters="sRGB"><feFlood flood-opacity="0" result="BackgroundImageFix"/><feBlend in="SourceGraphic" in2="BackgroundImageFix" result="shape"/><feGaussianBlur stdDeviation="31.5" result="effect1_foregroundBlur_1408_1244"/></filter></defs></svg>