<?xml version="1.0" encoding="utf-8"?><svg width="20" height="15" xmlns="http://www.w3.org/2000/svg" viewBox="0 0 20 15"><path fill-rule="evenodd" clip-rule="evenodd" d="M17.97.456c.862.23 1.365.959 1.595 1.82C19.982 3.838 20 7.06 20 7.06s-.018 3.22-.435 4.782c-.23.862-.733 1.591-1.594 1.82-1.562.418-7.971.457-7.971.457s-6.409-.039-7.97-.456c-.862-.23-1.365-.96-1.595-1.82C.018 10.278 0 7.058 0 7.058s.018-3.22.435-4.783c.233-.861.733-1.59 1.594-1.82C3.591.038 10 0 10 0s6.409.038 7.97.456zM7.942 4.118l5.294 2.94L7.941 10V4.118z"/></svg>