<svg xmlns="http://www.w3.org/2000/svg" width="56" height="56" fill="none"><path fill="#2C2A2D" d="M28 56c15.44 0 28-12.56 28-28S43.44 0 28 0 0 12.56 0 28s12.56 28 28 28Zm0-53.32c14 0 25.36 11.36 25.36 25.36S42 53.4 28 53.4 2.64 42.04 2.64 28.04 14.04 2.68 28 2.68Z"/><path fill="#000" d="M28.006 39.776H14.765A1.764 1.764 0 0 1 13 38.011V25.36a3.337 3.337 0 0 1 .983-2.376l2.994-2.998a3.346 3.346 0 0 1 2.376-.983h8.653v2.478h-8.653a.873.873 0 0 0-.615.254l-2.994 2.998a.868.868 0 0 0-.254.615v11.928h12.523l-.007 2.501Z"/><path fill="#000" d="M41.251 39.776H28.006v-2.49H40.53V25.358a.867.867 0 0 0-.254-.614l-2.998-2.998a.87.87 0 0 0-.634-.266h-8.653v-2.49h8.653a3.334 3.334 0 0 1 2.376.983l2.998 2.998A3.336 3.336 0 0 1 43 25.347V38a1.769 1.769 0 0 1-1.75 1.776ZM31.216 14H25.13v2.49h6.087V14Z"/></svg>
