<svg xmlns="http://www.w3.org/2000/svg" width="56" height="56" fill="none"><path fill="#000" d="M28.425 27.47a6.236 6.236 0 1 1 6.231-6.23 6.243 6.243 0 0 1-6.231 6.23Zm0-9.957a3.723 3.723 0 1 0 3.723 3.722 3.727 3.727 0 0 0-3.723-3.719v-.003ZM19.513 41.94H17v-4.936a4.905 4.905 0 0 1 1.444-3.49l2.42-2.416a4.895 4.895 0 0 1 3.486-1.444h4.075v2.512H24.35a2.397 2.397 0 0 0-1.708.709l-2.42 2.417a2.412 2.412 0 0 0-.71 1.712v4.937ZM39.855 41.94h-2.517v-4.936a2.39 2.39 0 0 0-.708-1.712l-2.417-2.417a2.406 2.406 0 0 0-1.708-.709h-4.08v-2.512h4.08a4.893 4.893 0 0 1 3.485 1.444l2.417 2.417a4.893 4.893 0 0 1 1.448 3.489v4.937Z"/><path fill="#000" d="M33.845 35.629h-5.42v2.512h5.42V35.63Z"/><path fill="#2C2A2D" d="M28 56c15.44 0 28-12.56 28-28S43.44 0 28 0 0 12.56 0 28s12.56 28 28 28Zm0-53.32c14 0 25.36 11.36 25.36 25.36S42 53.4 28 53.4 2.64 42.04 2.64 28.04 14.04 2.68 28 2.68Z"/></svg>
