<svg width="96" height="25" fill="none" xmlns="http://www.w3.org/2000/svg"><path d="m28.364 9.887-4.256 11.8h1.9l1.084-3.183h4.493l1.083 3.182h1.938L30.35 9.887h-1.995.01Zm-.807 7.145 1.758-5.178h.047l1.758 5.178h-3.563Zm12.625-4.038a3.048 3.048 0 0 0-2.736 1.52h-.038v-1.425h-1.71v11.447h1.767v-4.265h.038a2.917 2.917 0 0 0 2.708 1.51c2.157 0 3.591-1.719 3.591-4.389 0-2.669-1.434-4.398-3.62-4.398Zm-.474 7.287c-1.34 0-2.252-1.16-2.252-2.898 0-1.71.912-2.878 2.261-2.878 1.368 0 2.27 1.14 2.27 2.878 0 1.767-.902 2.898-2.28 2.898Zm9.937-7.287a3.04 3.04 0 0 0-2.737 1.52h-.028v-1.425h-1.71v11.447h1.758v-4.265h.047a2.917 2.917 0 0 0 2.707 1.51c2.157 0 3.591-1.719 3.591-4.389 0-2.669-1.444-4.398-3.629-4.398Zm-.466 7.287c-1.349 0-2.252-1.16-2.252-2.898 0-1.71.903-2.878 2.252-2.878 1.377 0 2.28 1.14 2.28 2.878 0 1.767-.903 2.898-2.28 2.898Zm17.584-1.986c0 2.204-1.757 3.591-4.55 3.591-2.613 0-4.38-1.349-4.494-3.486h1.806c.133 1.168 1.263 1.938 2.821 1.938 1.482 0 2.565-.76 2.565-1.825 0-.912-.656-1.463-2.185-1.833l-1.52-.38c-2.175-.513-3.183-1.52-3.183-3.173 0-2.033 1.777-3.43 4.294-3.43 2.499 0 4.209 1.397 4.266 3.43h-1.786c-.105-1.178-1.083-1.89-2.498-1.89-1.425 0-2.395.722-2.395 1.767 0 .835.618 1.33 2.138 1.71l1.301.313c2.423.57 3.42 1.539 3.42 3.268Zm3.82-5.206h1.633v1.396h-1.633v4.75c0 .732.323 1.074 1.044 1.074.19 0 .38-.019.58-.038v1.387a4.802 4.802 0 0 1-.978.076c-1.739 0-2.423-.646-2.423-2.318v-4.93h-1.245v-1.397h1.245v-2.033h1.776v2.033Zm6.65-.104c-2.47 0-4.067 1.7-4.067 4.407 0 2.708 1.578 4.409 4.076 4.409 2.499 0 4.085-1.701 4.085-4.409 0-2.707-1.596-4.407-4.085-4.407h-.01Zm0 7.352c-1.425 0-2.28-1.082-2.28-2.945 0-1.852.855-2.954 2.28-2.954 1.444 0 2.29 1.092 2.29 2.945 0 1.872-.856 2.954-2.28 2.954h-.01Zm9.338-7.343c.2 0 .409.029.608.066v1.653a2.43 2.43 0 0 0-.798-.104 1.776 1.776 0 0 0-1.833 1.976v5.101H82.78V13.09h1.681v1.463h.038a2.052 2.052 0 0 1 2.071-1.558Zm8.835 4.835v-.608c0-2.603-1.491-4.236-3.866-4.236-2.423 0-3.99 1.748-3.99 4.445 0 2.689 1.558 4.37 4.066 4.37 1.938 0 3.458-1.073 3.705-2.64h-1.682a1.938 1.938 0 0 1-1.995 1.215 2.252 2.252 0 0 1-2.308-2.441v-.105h6.08-.01Zm-5.89-2.07A2.184 2.184 0 0 1 91.53 14.4a2.09 2.09 0 0 1 1.986 1.349c.095.266.142.551.123.836h-4.294c0-.285.057-.57.171-.836v.01ZM30.008 3.825a2.498 2.498 0 0 0-2.67-2.812h-2.052v5.662h2.052c1.682 0 2.66-1.045 2.66-2.85h.01ZM26.17 5.878V1.812h1.064a1.796 1.796 0 0 1 1.871 2.024 1.776 1.776 0 0 1-1.871 2.042H26.17Zm8.341-2.897a2.023 2.023 0 0 0-3.515 1.558 2.031 2.031 0 0 0 2.024 2.223 2.014 2.014 0 0 0 2.013-2.223 2.035 2.035 0 0 0-.522-1.558Zm-1.492 3.04c-.74 0-1.149-.542-1.149-1.482 0-.922.409-1.473 1.14-1.473.741 0 1.159.551 1.159 1.473 0 .931-.418 1.472-1.15 1.472v.01Zm3.8.665L35.642 2.41h.855l.76 3.258h.067l.883-3.268h.808l.883 3.268h.067l.76-3.268h.855l-1.178 4.275h-.884l-.883-3.144h-.066l-.874 3.144h-.875v.01Zm8.531-2.565c0-.684-.294-1.026-.921-1.026a.978.978 0 0 0-.979.665c-.047.133-.056.285-.047.418v2.498h-.846V2.401h.817v.684h.067a1.282 1.282 0 0 1 1.273-.76 1.406 1.406 0 0 1 1.482 1.587v2.764h-.846V4.121Zm3.04 2.565h-.855V.72h.856v5.966Zm4.684-3.705a2.023 2.023 0 0 0-3.515 1.558 2.032 2.032 0 0 0 2.836 2.052 2.014 2.014 0 0 0 1.192-2.052 2.043 2.043 0 0 0-.513-1.558Zm-1.501 3.04c-.731 0-1.14-.542-1.14-1.482 0-.922.409-1.473 1.14-1.473.731 0 1.15.551 1.15 1.473 0 .931-.419 1.472-1.14 1.472l-.01.01Zm6.498.665V3.76c0-.903-.599-1.444-1.672-1.444-.969 0-1.663.475-1.748 1.206h.817c.095-.294.418-.475.883-.475.58 0 .884.257.884.713v.37l-1.159.067c-1.017.057-1.596.503-1.596 1.273a1.292 1.292 0 0 0 1.425 1.282 1.444 1.444 0 0 0 1.292-.665h.066v.599h.808Zm-.836-1.577a1.025 1.025 0 0 1-.361.703.9.9 0 0 1-.352.19c-.123.038-.265.047-.398.038-.457 0-.789-.228-.789-.608s.266-.57.855-.618l1.045-.066v.36Zm3.724 1.643a1.492 1.492 0 0 0 1.34-.75h.066v.674h.807V.73h-.845v2.366h-.057a1.406 1.406 0 0 0-1.311-.76c-1.083 0-1.777.855-1.777 2.213 0 1.359.684 2.214 1.777 2.214v-.01Zm.237-3.657c.704 0 1.15.56 1.15 1.453s-.437 1.444-1.15 1.444c-.712 0-1.14-.541-1.14-1.453 0-.903.428-1.444 1.14-1.444Zm7.487 3.667a2.014 2.014 0 0 0 2.023-2.223 2.034 2.034 0 0 0-2.84-2.043 2.023 2.023 0 0 0-1.198 2.043 2.036 2.036 0 0 0 2.014 2.223Zm-1.14-2.223c0-.922.408-1.473 1.14-1.473.74 0 1.149.551 1.149 1.473 0 .931-.408 1.472-1.14 1.472-.741 0-1.15-.541-1.15-1.472ZM73.29 3.16a.999.999 0 0 0-.57.599 1.045 1.045 0 0 0-.038.418v2.498h-.846V2.401h.808v.684h.066a1.283 1.283 0 0 1 1.274-.76 1.406 1.406 0 0 1 1.434.97c.067.199.085.408.047.617v2.764h-.845V4.121c0-.684-.294-1.026-.922-1.026-.132 0-.284.019-.408.066Zm6.108-.028h-.683V2.42h.683V1.337h.846V2.42h.922v.713h-.922v2.194c0 .456.19.646.599.646.114 0 .218 0 .323-.019v.703c-.15.03-.303.045-.456.048-.94 0-1.311-.333-1.311-1.159V3.133Zm3.763 3.543h-.846V.73h.846v2.366h.066a1.31 1.31 0 0 1 1.302-.76A1.406 1.406 0 0 1 86 3.931v2.755h-.845V4.14c0-.684-.323-1.036-.912-1.036a.979.979 0 0 0-.798.295.997.997 0 0 0-.285.788v2.499-.01Zm4-1.292a1.956 1.956 0 0 0 1.909 1.378 1.738 1.738 0 0 0 1.852-1.235h-.807a1.026 1.026 0 0 1-1.017.522 1.14 1.14 0 0 1-1.083-.76 1.13 1.13 0 0 1-.057-.475v-.038h3.021v-.294c0-1.349-.722-2.157-1.91-2.157a1.976 1.976 0 0 0-1.975 2.233c-.038.285-.02.56.066.826Zm.873-1.662a1.1 1.1 0 0 1 1.444-.608 1.035 1.035 0 0 1 .637 1.035h-2.157c0-.152.02-.285.076-.427ZM18.03 15.958a10.832 10.832 0 0 1-1.502 3.059c-.883 1.32-1.805 2.613-3.277 2.631-1.425.038-1.9-.835-3.544-.835-1.653 0-2.166.817-3.534.873-1.406.048-2.47-1.415-3.391-2.726C.947 16.3-.478 11.426 1.441 8.13A5.254 5.254 0 0 1 5.86 5.432c1.396-.029 2.698.95 3.562.95.846 0 2.452-1.169 4.114-.988a5.016 5.016 0 0 1 3.942 2.128 4.893 4.893 0 0 0-2.327 4.095 4.721 4.721 0 0 0 2.879 4.341Zm-7.002-11.21c-.56.256-1.159.39-1.777.38a4.588 4.588 0 0 1 1.131-3.316A4.902 4.902 0 0 1 13.554.17a4.816 4.816 0 0 1-1.102 3.448c-.38.475-.874.865-1.425 1.131Z" fill="#fff"/></svg>