<svg viewBox="0 0 261 261" fill="none" xmlns="http://www.w3.org/2000/svg"><path d="M27.5 198.5L4 256l42.5-14.5 18.5-10L79.5 216l3.5-17.5-8-14-23-6.5-24.5 20.5z" fill="#F1D2C3"/><path d="M158.283 165.256l-7.371-7.372 95.845-95.876a12.837 12.837 0 003.785-9.12V21.354a6.5 6.5 0 00-1.924-4.636l-4.363-4.364a6.51 6.51 0 00-4.635-1.925h-31.542a12.83 12.83 0 00-9.119 3.778l-95.845 95.868-7.37-7.372L191.59 6.835A23.145 23.145 0 01208.078 0h31.542a16.836 16.836 0 0112.029 4.974l4.371 4.347A16.88 16.88 0 01261 21.354v31.542a23.173 23.173 0 01-6.833 16.492l-95.884 95.868z" fill="#2C2A2D"/><path d="M167.799 261a9.687 9.687 0 01-5.302-1.587 9.762 9.762 0 01-3.583-4.238l-29.244-66.68-27.631-3.133a9.647 9.647 0 01-5.769-2.796L79.3 165.511a9.842 9.842 0 01-2.78-5.809l-3.101-27.756-66.32-29.412a9.71 9.71 0 01-3.689-2.867 9.804 9.804 0 01-1.662-8.947 9.763 9.763 0 012.411-4.013l17.579-17.674a23.063 23.063 0 017.535-5.08 22.958 22.958 0 018.901-1.765h66.383l31.841-32.022 7.351 7.383-34.893 35.083H38.117a12.722 12.722 0 00-4.923.977 12.78 12.78 0 00-4.17 2.807L12.197 93.408l65.767 29.162a9.748 9.748 0 013.874 3.139 9.816 9.816 0 011.824 4.654l3.124 27.909 16.627 16.719 27.775 3.149a9.697 9.697 0 014.658 1.837 9.775 9.775 0 013.132 3.923l29.005 66.134 16.851-16.943a12.863 12.863 0 002.79-4.189c.646-1.568.977-3.249.974-4.946v-71.074l34.885-35.076 7.351 7.383-31.849 32.023v66.744a23.366 23.366 0 01-1.759 8.948 23.267 23.267 0 01-5.049 7.578l-17.578 17.674a9.682 9.682 0 01-6.8 2.844zM208.53 70.824a18.364 18.364 0 01-16.185-27.02 18.361 18.361 0 1129.181 21.638 18.242 18.242 0 01-12.996 5.382zm0-25.967a7.597 7.597 0 105.366 12.963 7.597 7.597 0 00-5.366-12.963z" fill="#2C2A2D"/><path d="M161.965 116.729a17.706 17.706 0 1112.527-5.18 17.673 17.673 0 01-12.527 5.18zm0-25.02a7.321 7.321 0 105.172 2.142 7.281 7.281 0 00-5.172-2.143zM6.123 260.999a6.118 6.118 0 01-5.01-2.596 6.112 6.112 0 01-.75-5.592l18.794-51.942a9.776 9.776 0 012.267-3.565l18.426-18.428a15.06 15.06 0 0110.719-4.439h14.948a10.546 10.546 0 017.515 3.117l10.414 10.416a10.55 10.55 0 013.117 7.523v14.95a15.05 15.05 0 01-4.447 10.72l-18.425 18.428a9.907 9.907 0 01-3.565 2.275L8.19 260.67a5.909 5.909 0 01-2.067.329zm22.775-56.445l-15.613 43.169L56.449 232.1l18.313-18.316a4.717 4.717 0 001.394-3.357v-14.95a.216.216 0 00-.064-.152l-10.414-10.416a.213.213 0 00-.153-.064H50.577a4.707 4.707 0 00-3.357 1.394l-18.322 18.315z" fill="#2C2A2D"/></svg>