<svg width="110" height="43" xmlns="http://www.w3.org/2000/svg"><path fill-rule="evenodd" clip-rule="evenodd" d="M45.352.713c-4.96.113-8.434 3.488-10.063 5.488 0 0-.072.085-.129.156a1.948 1.948 0 01-.2-.071c-3.402-1.22-7.247-1.447-11.121-.667-3.73.765-9.077 2.68-12.966 5.786C4.055 16.864.467 23.444.767 29.938c.172 3.76 1.916 7.005 5.032 9.387 5.118 3.928 13.566 3.02 16.968 2.453 3.803-.638 63.31-11.216 71.13-12.705 7.105-1.347 13.866-3.744 15.224-12.067.086-.492.129-.99.129-1.49v-.057c0-2.04-.644-3.942-1.758-5.232-2.087-2.397-5.59-2.68-8.034-2.694-3.402-.015-39.91.68-44.055.765h-.272l-.029-.255a8.086 8.086 0 00-1.958-4.339c-1.26-1.417-3.632-3.09-7.792-2.991zm-.043 12.081c2.072-.085 4.102-1.007 4.26-3.148.114-1.432-1-2.907-3.274-3.034a4.961 4.961 0 00-3.245.85 3.344 3.344 0 00-1.257 1.929c-.229.922-.115 1.687.328 2.282.601.78 1.744 1.177 3.188 1.121zm57.922 4.907c.543-.085 1.158-.766 1.458-1.418.077.098.12.2.156.284.036.086.065.155.116.183-.286 1.093-1.401 2.028-2.216 2.113l-.128.014-.057.128c-.787 1.843-2.202 2.963-4.274 3.275a3.216 3.216 0 01-3.66-2.58l-.071-.34c-1.473 3.204-3.202 3.884-4.503 4.069-.543.085-2.387.099-2.187-2.07a20.57 20.57 0 01.729-3.645 9.54 9.54 0 00.486-2.325 1.142 1.142 0 00-.258-.822.571.571 0 00-.43-.17c-.8.056-1.5 2.112-1.757 3.19 0 0-1.473 6.24-1.544 6.551-.141.015-1.12.176-2.097.336-.9.148-1.802.296-2.049.33l1.273-5.146-.271.184a4.68 4.68 0 01-.986.51l-.13.043-.027.141c-.659 3.205-2.817 5.048-6.404 5.573-2.774.411-4.618-.525-5.032-2.836l-.1-.581-.172.312-.129.226c-.887 1.546-2.773 4.21-5.422 4.597-.958.142-1.773-.071-2.345-.596-.614-.567-.914-1.489-.886-2.651.042-1.559.554-3.036 1.004-4.337l.026-.073.143-.425c0-.005.104-.368.243-.852.244-.847.595-2.067.686-2.41.143-.553-.243-1.276-1-.964a1.32 1.32 0 00-.63.723c-.146.253-.256.84-.422 1.73l-.034.185-.03.157c-.405 2.158-1.12 5.96-2.5 7.925-1.8 2.566-3.844 3.105-4.645 3.218-1.944.284-3.66-.227-4.645-1.077-2.16 1.673-5.247 2.665-7.005 2.892-4.217.539-5.146-2.127-4.46-4.622a.58.58 0 00.014-.156c-2.901 3.403-6.832 6.65-11.635 7.543-5.39 1.007-8.463.185-10.936-2.07-1.787-1.616-2.859-5.19-2.044-8.139 2.43-8.75 10.893-12.705 16.482-12.861 3.603-.1 5.219.608 6.605 2.04.858.894 1.273 2.099 1.23 3.574-.086 2.723-2.088 4.552-4.546 4.779-1.1.099-2.073-.199-2.73-.837-.672-.652-1.015-1.645-.972-2.878.056-1.914 1.657-3.46 2.658-3.984a7.313 7.313 0 011.186-.54c.387-.623-5.845-2.467-9.72 5.7a16.089 16.089 0 00-1.498 4.68c-.643 3.404.314 5.83 1.973 6.85 1.215.751 3.145.864 5.603.226 4.632-1.19 9.12-7.032 10.664-11.3.744-2.068 1.476-4.3 1.721-5.05l.037-.112a690.68 690.68 0 012.546-.088c1.834-.062 4.039-.137 4.373-.154-.186.596-3.474 10.28-3.474 10.28-.1.298-.815 2.581-.286 3.29a1.435 1.435 0 001.215.425c.732-.093 1.21-.38 1.717-.685.107-.064.215-.13.328-.194a3.689 3.689 0 01-.544-2.68c.358-1.872 2.387-3.346 4.245-2.14.93.61 1.33 1.885.444 3.346a6.308 6.308 0 01-1.73 1.786c.43.208.918.268 1.387.17 2.387-.297 3.188-2.637 3.645-6.054l.029-.113c.328-2.836.914-5.714 3.058-7.629 2.03-1.815 4.732-.113 4.846 1.163l.444-1.56s4.53-.085 5.06-.1c-.172.568-2.53 9.118-2.53 9.118l-.086.779v.014a.738.738 0 00.2.539.527.527 0 00.472.156c.943-.1 2.158-2.056 2.859-3.857a.09.09 0 00.015-.034.205.205 0 01.013-.037l.014-.014v-.03c.098-.512.222-1.018.372-1.517l.143-.496s.913-3.8 1.128-4.68c.3-.014 4.446-.17 4.446-.17s-2.301 9.557-2.33 10.706a1.523 1.523 0 00.358 1.15.675.675 0 00.557.184c1.387-.184 2.388-1.418 2.773-3.758l.058-.354-.329.1c-2.858.836-3.002-5.049 1.787-5.446 1.859-.156 2.345 1.73 2.416 2.283a4.6 4.6 0 01.115.751l.029.256.241-.057c.5-.128 1.086-.596 1.515-1.163l1.23-4.92c.213 0 1.803-.055 2.78-.09l.707-.023-.328 1.517.558-.624a4.407 4.407 0 012.501-1.092c1.559-.114 3.06.368 2.831 2.793a19.21 19.21 0 01-.572 2.977 9.092 9.092 0 00-.357 1.716.676.676 0 00.172.496.423.423 0 00.343.114c.629-.071 1.5-1.815 1.972-3.049a.155.155 0 00.015-.07l.014-.015v-.014c.429-3.559 3.216-5.203 5.132-5.317 3.114-.169 3.587 1.9 3.544 3.886-.014.425-.229 1.871-.229 1.871l.242-.056zm-52.819 6.82c.415-.906.114-1.361-.629-1.39-.93-.042-1.844 1.603-.915 3.063.758-.567 1.344-1.233 1.544-1.673zm26.002-4.878c.471-.085.757-.213.9-.411 0 0 .158-.78-.17-1.162a.579.579 0 00-.587-.029c-.4.184-.872.88-.772 1.305.014.113.143.382.63.297zm22.214 1.333c.8-.1 1.2-1.063 1.501-1.957l.072-.27a2.048 2.048 0 01-.972-1.857c.157-2.098 1.572-2.155 1.572-2.155l.015-.085c.071-.709-.044-1.304-.329-1.617a.642.642 0 00-.5-.212c-1.358.057-2.359 4.807-2.402 6.707-.014.808.1 1.034.371 1.276a.825.825 0 00.672.17zm1.701-4.764c-.258.298-.271 1.134.186 1.418a7.217 7.217 0 00.244-1.546.368.368 0 00-.43.128z"/></svg>