<svg width="348" height="93" viewBox="0 0 348 93" xmlns="http://www.w3.org/2000/svg"><path d="M128.88 42.875v6.902h-12.778c.466 3.654 1.55 6.336 3.26 8.043 1.71 1.712 3.784 2.57 6.209 2.57 2.49 0 4.554-.743 6.188-2.235 1.628-1.494 2.626-3.642 2.995-6.438l8.271 2.57c-.939 4.087-2.851 7.297-5.733 9.646-2.871 2.34-6.607 3.517-11.201 3.527-4.711-.01-8.419-1.12-11.14-3.357-2.718-2.234-4.657-4.806-5.827-7.727-1.169-2.919-1.747-6.207-1.747-9.85 0-6.407 1.67-11.568 5.027-15.495 3.357-3.917 7.976-5.886 13.85-5.896 4.545.01 8.235 1.094 11.088 3.252 2.84 2.158 4.695 5.085 5.571 8.785l-8.159 1.883c-.588-2.16-1.682-3.832-3.28-5.01-1.588-1.19-3.403-1.778-5.437-1.778-2.919 0-5.23 1.008-6.92 3.024-1.692 2.014-2.7 4.541-3.015 7.584h12.778zm132.523-16.997h8.267v40.84h-8.267v-40.84zm14.418 40.84v-40.84h8.271v16.084h16.087V25.877h8.269v40.84h-8.269V48.866h-16.087v17.851h-8.271zm63.322-15.058l7.99 2.454c-1.228 4.495-3.274 7.833-6.125 10.021-2.851 2.177-6.464 3.27-10.847 3.27-5.426 0-9.887-1.856-13.382-5.562-3.493-3.706-5.24-8.777-5.24-15.213 0-6.798 1.757-12.08 5.266-15.844 3.507-3.766 8.127-5.651 13.852-5.651 5.003 0 9.058 1.483 12.178 4.44 1.863 1.749 3.252 4.258 4.184 7.54l-8.159 1.94c-.484-2.112-1.49-3.786-3.023-5.01-1.542-1.227-3.405-1.836-5.587-1.836-3.036 0-5.499 1.086-7.38 3.26-1.891 2.169-2.833 5.688-2.833 10.552 0 5.156.934 8.835 2.787 11.022 1.861 2.194 4.278 3.288 7.253 3.288 2.194 0 4.089-.695 5.665-2.092 1.58-1.399 2.719-3.585 3.401-6.578zM146.817 25.878h16.332c3.244 0 5.649.134 7.235.399a10.88 10.88 0 014.27 1.68 10.548 10.548 0 013.136 3.407c.835 1.417 1.255 3.013 1.255 4.772 0 1.901-.512 3.66-1.538 5.25a9.536 9.536 0 01-4.186 3.58c2.481.732 4.383 1.967 5.724 3.72 1.331 1.75 1.995 3.804 1.995 6.17 0 1.863-.427 3.668-1.293 5.429-.863 1.759-2.043 3.162-3.545 4.218-1.494 1.046-3.337 1.69-5.533 1.94-1.367.144-4.687.236-9.945.274h-13.907v-40.84zm8.272 6.787v9.415h5.4c3.204 0 5.199-.052 5.978-.146 1.41-.163 2.522-.646 3.329-1.452.807-.81 1.206-1.867 1.206-3.178 0-1.264-.351-2.28-1.046-3.071-.692-.787-1.73-1.265-3.099-1.425-.817-.095-3.164-.143-7.035-.143h-4.733zm0 16.201v10.951h7.642c2.967 0 4.861-.086 5.66-.247 1.224-.23 2.224-.769 2.993-1.636.771-.877 1.16-2.023 1.16-3.479 0-1.237-.295-2.27-.893-3.128-.59-.855-1.456-1.481-2.578-1.875-1.12-.385-3.565-.586-7.319-.586h-6.665zm29.497 17.851v-40.84h13.227c5.007 0 8.269.203 9.791.609 2.337.62 4.296 1.95 5.874 4 1.58 2.056 2.367 4.71 2.367 7.957 0 2.511-.458 4.613-1.357 6.324-.913 1.71-2.068 3.051-3.461 4.03-1.399.972-2.825 1.619-4.27 1.932-1.967.388-4.81.588-8.536.588h-5.364v15.4h-8.271zm8.271-33.936v11.636h4.497c3.244 0 5.4-.22 6.494-.648 1.092-.43 1.947-1.094 2.568-2.016.618-.911.929-1.967.929-3.186 0-1.491-.435-2.718-1.299-3.686a5.706 5.706 0 00-3.308-1.827c-.984-.178-2.951-.273-5.914-.273h-3.967zm25.032 13.764c0-4.161.626-7.66 1.873-10.495a19.083 19.083 0 013.8-5.607c1.608-1.657 3.369-2.883 5.278-3.688 2.55-1.076 5.485-1.62 8.815-1.62 6.027 0 10.837 1.875 14.459 5.609 3.611 3.746 5.416 8.947 5.416 15.61 0 6.61-1.797 11.783-5.378 15.509-3.586 3.734-8.386 5.597-14.386 5.597-6.075 0-10.911-1.853-14.495-5.569-3.587-3.708-5.382-8.825-5.382-15.346zm8.498-.277c0 4.63 1.074 8.139 3.214 10.536 2.138 2.387 4.858 3.585 8.147 3.585 3.298 0 6-1.186 8.118-3.559 2.112-2.375 3.168-5.932 3.168-10.674 0-4.686-1.028-8.185-3.09-10.488-2.055-2.308-4.782-3.459-8.196-3.459-3.403 0-6.152 1.17-8.233 3.5-2.082 2.338-3.128 5.855-3.128 10.56z"/><path fill-rule="evenodd" clip-rule="evenodd" d="M43.729 92.926V64.95h45.453l-.691 1.53-.74 1.504-.816 1.481-.86 1.428-.888 1.405-.96 1.355-1.012 1.353-1.038 1.283-1.082 1.259-1.132 1.206-1.182 1.185-1.211 1.134-1.257 1.082-1.305 1.062-1.33.984-1.36.962-1.403.889-1.43.863-1.48.811-1.503.74-1.525.72-1.554.634-1.602.596-1.602.518-1.63.466-1.675.415-1.676.374-1.699.293-1.728.225-1.75.172-1.773.097-1.775.024h-.717l-.688-.024-.689-.022-.69-.028zM8.8 63.053h3.993l1.233-3.816 1.208 3.816h4.018l-3.233 2.343 1.233 3.819-3.226-2.341-3.23 2.34 1.206-3.818L8.8 63.053zM4.168 44.295h3.89l1.185-3.696 1.21 3.696h3.869l-3.13 2.294 1.183 3.698-3.132-2.294-3.128 2.294 1.182-3.698-3.13-2.294zm5.42-19.668h3.945l1.156-4.142 1.285 4.142h3.993l-3.228 2.365 1.23 3.772-3.228-2.343-3.18 2.343 1.207-3.772-3.18-2.365zm14.123-13.481h3.873l1.184-3.7 1.18 3.7h3.893l-3.152 2.289 1.205 3.673-3.126-2.268-3.134 2.268 1.209-3.673-3.132-2.29zm-.22 65.268h3.944l1.233-3.795 1.206 3.795h3.943l-3.18 2.318 1.21 3.79-3.18-2.336-3.207 2.337 1.21-3.79-3.18-2.32zm67.835-17.45l-47.597-.028.024-.072-.024-27.385h46.784l.293.885.297.89.247.91.247.916.219.911.198.934.197.938.173.935.148.938.12.961.103.936.098.985.075.962.046.96.028.99.024.983-.024.813v.791l-.05.815-.05.787-.049.791-.074.79-.098.786-.099.789-.1.767-.147.76-.124.79-.148.763-.173.74-.17.765-.198.739-.196.765zM88.02 25.586H43.73V.1l.69-.05.689-.022.688-.028h.717l1.698.028 1.655.096 1.676.149 1.624.195 1.628.273 1.604.321 1.6.37 1.556.443 1.528.468 1.526.542 1.503.592 1.458.614 1.451.695 1.407.737 1.378.765 1.357.813 1.33.863 1.308.913 1.255.96 1.234.988 1.185 1.034 1.158 1.084 1.13 1.108 1.086 1.134 1.038 1.185 1.01 1.23.958 1.235.913 1.305.89 1.307.837 1.355.787 1.383.74 1.401zM38.378.716v91.571l-2.021-.397-1.996-.49-1.949-.592-1.921-.643-1.871-.765-1.85-.81-1.802-.888-1.75-.984-1.723-1.034-1.65-1.114-1.604-1.184-1.556-1.255-1.502-1.305-1.453-1.381-1.382-1.431-1.304-1.502-1.257-1.53-1.21-1.598-1.109-1.656-1.062-1.696-.982-1.751-.913-1.8-.813-1.852-.763-1.869-.666-1.921-.593-1.95-.492-1.995-.42-2.023-.342-2.046-.227-2.072-.147-2.12L0 46.513l.048-2.12.147-2.116.227-2.074.343-2.072.42-2.02.491-1.968.593-1.976.666-1.897.763-1.895.813-1.825.913-1.8.982-1.751 1.062-1.7 1.108-1.653 1.21-1.6 1.258-1.554 1.304-1.478 1.382-1.455 1.453-1.357 1.502-1.33 1.556-1.23 1.604-1.186 1.65-1.134 1.722-1.034 1.751-.964 1.803-.91L28.62 3.6l1.87-.737 1.922-.665 1.95-.592 1.995-.494 2.021-.395z"/><path d="M119.64 91.976c-.639.33-2.052.663-3.839.663-4.721 0-7.588-2.957-7.588-7.48 0-4.899 3.397-7.856 7.942-7.856 1.787 0 3.065.373 3.617.663l-.594 2.162a7.192 7.192 0 00-2.913-.575c-3.025 0-5.207 1.896-5.207 5.471 0 3.266 1.921 5.364 5.185 5.364 1.102 0 2.251-.219 2.957-.552l.44 2.14zm15.38-12.158h-4.234v-2.27h11.226v2.27h-4.276v12.597h-2.716V79.818zm21.075 4.855c.332.09.773.11 1.323.11 2.03 0 3.267-.991 3.267-2.734 0-1.654-1.149-2.54-3.022-2.54a7.436 7.436 0 00-1.568.137v5.027zm-2.692-6.928c.974-.176 2.317-.309 4.15-.309 1.983 0 3.441.42 4.388 1.215.886.724 1.458 1.897 1.458 3.29 0 1.411-.442 2.58-1.281 3.37-1.08 1.083-2.78 1.589-4.7 1.589-.507 0-.969-.018-1.323-.087v5.603h-2.692v-14.67zm27.644 8.405l-1.168-3.66c-.287-.906-.532-1.922-.749-2.781h-.046c-.221.859-.44 1.897-.707 2.78l-1.146 3.662h3.816zm-4.258 2.055l-1.278 4.212h-2.801l4.766-14.868h3.461l4.834 14.867h-2.915l-1.345-4.211h-4.722zm28.661 4.211l-1.613-2.953a54.451 54.451 0 01-1.475-2.802h-.066a34.982 34.982 0 01-1.347 2.802l-1.48 2.954h-3.108l4.411-7.52-4.234-7.349h3.108l1.61 3.066c.488.926.841 1.654 1.236 2.493h.047c.395-.929.702-1.588 1.168-2.493l1.588-3.066h3.112l-4.349 7.258 4.525 7.61h-3.133zm16.594-14.869l2.518 5.736c.395.97.704 1.855 1.058 2.734h.066c.221-.682.484-1.632.837-2.8l1.941-5.67h2.869l-2.933 7.41c-.861 2.166-1.811 4.417-2.869 5.804-.969 1.217-2.138 1.897-3.706 1.897-.642 0-1.036-.066-1.391-.195l.223-2.188c.219.07.508.09.925.09 1.257 0 2.054-1.06 2.427-1.899.133-.309.087-.507-.066-.795l-4.964-10.124h3.065zm23.089 12.903c.476.052.956.074 1.435.066 1.74 0 3.288-.658 3.288-2.493 0-1.717-1.503-2.427-3.378-2.427h-1.345v4.854zm0-6.838h1.389c1.877 0 2.933-.883 2.933-2.142 0-1.391-1.056-2.026-2.777-2.026-.797 0-1.258.043-1.545.109v4.06zm-2.691-5.87c.86-.177 2.428-.305 3.949-.305 2.008 0 3.242.243 4.258.947.926.55 1.544 1.518 1.544 2.777 0 1.369-.861 2.628-2.469 3.224v.042c1.564.396 2.999 1.634 2.999 3.686 0 1.321-.572 2.36-1.435 3.066-1.058.929-2.803 1.393-5.517 1.393-1.5 0-2.646-.11-3.329-.201V77.742zm29.592 8.408l-1.171-3.66c-.285-.906-.528-1.922-.749-2.781h-.046c-.218.859-.439 1.897-.704 2.78l-1.147 3.662h3.817zm-4.258 2.055l-1.279 4.212h-2.803l4.766-14.868h3.463l4.837 14.867h-2.919l-1.346-4.211h-4.719zm23.408-10.658v5.957h6.29v-5.957h2.71v14.868h-2.71v-6.55h-6.29v6.55h-2.716V77.547h2.716zm24.47 0v5.957h6.289v-5.957h2.715v14.868h-2.715v-6.55h-6.289v6.55h-2.713V77.547h2.713zm28.628 2.094a7.259 7.259 0 00-1.592-.153c-1.631 0-3 .639-3 2.403 0 1.568 1.387 2.428 3.176 2.428.532 0 1.062 0 1.416-.043v-4.635zm-8.187 12.774c.265-.438.486-.968.682-1.522.619-1.696.992-3.595 2.164-4.743.33-.33.773-.597 1.235-.75v-.066c-1.74-.309-3.2-1.545-3.2-3.64 0-1.342.572-2.406 1.46-3.111 1.033-.817 2.69-1.146 4.587-1.146 1.455 0 2.913.13 3.949.307v14.671h-2.69v-6.109h-1.107c-.773 0-1.365.197-1.831.64-.971.972-1.369 2.976-1.85 4.3a6.368 6.368 0 01-.51 1.169h-2.889z"/></svg>