<svg width="579" height="196" viewBox="0 0 579 196" xmlns="http://www.w3.org/2000/svg">
<path d="M202.349 156.716C236.232 156.716 263.699 129.245 263.699 95.3579C263.699 61.471 236.232 34 202.349 34C168.467 34 141 61.471 141 95.3579C141 129.245 168.467 156.716 202.349 156.716Z" />
<path opacity="0.75" d="M244.952 130.142C245.304 129.828 245.759 129.655 246.23 129.654C246.701 129.654 247.156 129.825 247.51 130.137C247.863 130.449 248.09 130.879 248.147 131.347C248.205 131.815 248.089 132.287 247.822 132.675C242.861 138.765 236.73 143.8 229.791 147.483C222.854 151.165 215.248 153.421 207.425 154.117C199.601 154.813 191.717 153.936 184.238 151.536C176.758 149.137 169.835 145.264 163.876 140.145C157.918 135.027 153.044 128.768 149.542 121.736C146.041 114.704 143.982 107.042 143.488 99.2014C142.995 91.3614 144.076 83.5017 146.667 76.0858C149.259 68.67 153.309 61.8483 158.579 56.0228C160.126 54.3409 162.749 56.561 161.449 58.4448C154.013 69.299 150.148 82.2031 150.394 95.3581C150.406 109.136 155.884 122.345 165.624 132.088C175.365 141.83 188.573 147.308 202.348 147.32C202.348 147.32 223.807 149.361 244.952 130.142Z" />
<g opacity="0.75">
<path d="M255.357 123.144C261.201 111.945 263.357 99.1861 261.516 86.6892C259.676 74.1919 253.935 62.5959 245.111 53.5575C236.288 44.5191 224.835 38.5005 212.387 36.3615C199.939 34.2225 187.134 36.0725 175.8 41.6472" />
<path d="M255.357 123.144C261.201 111.945 263.357 99.1861 261.516 86.6892C259.676 74.1919 253.935 62.5959 245.111 53.5575C236.288 44.5191 224.835 38.5005 212.387 36.3615C199.939 34.2225 187.134 36.0725 175.8 41.6472" stroke="#727272" stroke-width="1.26151" stroke-miterlimit="10" stroke-linecap="round"/>
</g>
<mask id="mask0_1234_1329" style="mask-type:alpha" maskUnits="userSpaceOnUse" x="157" y="50" width="92" height="92">
<path d="M202.721 141.374C227.927 141.374 248.36 120.938 248.36 95.7284C248.36 70.5191 227.927 50.083 202.721 50.083C177.515 50.083 157.082 70.5191 157.082 95.7284C157.082 120.938 177.515 141.374 202.721 141.374Z" />
</mask>
<g mask="url(#mask0_1234_1329)">
<path d="M202.719 141.374C227.925 141.374 248.358 120.938 248.358 95.7284C248.358 70.5191 227.925 50.083 202.719 50.083C177.513 50.083 157.08 70.5191 157.08 95.7284C157.08 120.938 177.513 141.374 202.719 141.374Z" />
<path d="M154.851 100.992C158.813 115.781 174.012 124.558 188.8 120.595C192.509 119.601 195.84 117.9 198.686 115.675C198.683 112.27 198.241 108.808 197.317 105.362C192.698 88.1213 177.467 76.559 160.537 75.8208C154.825 82.5277 152.399 91.8389 154.851 100.992Z" />
<path opacity="0.75" d="M203.032 141.93C228.237 141.93 248.67 121.494 248.67 96.2848C248.67 89.9614 247.385 83.9385 245.06 78.463C239.643 77.0166 233.951 76.2456 228.077 76.2456C198.694 76.2456 173.818 95.5447 165.429 122.16C173.66 134.102 187.432 141.93 203.032 141.93Z" />
<path opacity="0.5" d="M202.719 141.374C227.925 141.374 248.358 120.938 248.358 95.7284C248.358 70.5191 227.925 50.083 202.719 50.083C177.513 50.083 157.08 70.5191 157.08 95.7284C157.08 120.938 177.513 141.374 202.719 141.374Z" />
<path opacity="0.25" d="M248.234 101.359C248.128 107.851 246.06 114.661 241.917 120.761C237.775 126.861 232.206 131.293 226.212 133.784L220.995 127.238C226.612 125.861 232.027 122.19 235.814 116.614C239.6 111.038 241.018 104.651 240.228 98.9214L248.234 101.359Z" />
<path opacity="0.25" d="M171.816 69.5238C173.754 66.3927 176.752 63.4656 180.567 61.2626C184.383 59.0596 188.416 57.9265 192.097 57.8135L192.768 61.9441C189.597 61.5854 185.861 62.3774 182.373 64.3911C178.886 66.4048 176.332 69.2453 175.057 72.1707L171.816 69.5238Z" />
<path opacity="0.25" d="M238.99 123.313C231.671 128.309 222.824 131.23 213.294 131.23C188.088 131.23 167.655 110.794 167.655 85.5845C167.655 75.1641 171.146 65.5591 177.023 57.876C164.984 66.094 157.08 79.9261 157.08 95.6042C157.08 120.814 177.513 141.25 202.719 141.25C217.505 141.25 230.65 134.217 238.99 123.313Z" />
<path d="M192.701 79.0291L210.511 61.7729V129.684H192.701V79.0291Z" fill="white"/>
</g>
<path opacity="0.8" d="M185.932 167.696V167.808H185.798H185.551H185.192L184.834 167.696H184.609C184.609 167.696 184.609 167.696 184.609 167.561L186.493 159.533C186.483 159.516 186.478 159.496 186.478 159.476C186.478 159.457 186.483 159.438 186.493 159.42C186.513 159.409 186.537 159.402 186.56 159.402C186.584 159.402 186.607 159.409 186.627 159.42H186.852H187.21C187.342 159.441 187.47 159.479 187.592 159.533H187.793C187.804 159.577 187.804 159.623 187.793 159.667L185.932 167.696ZM188.601 156.998C188.592 157.126 188.556 157.251 188.494 157.364C188.432 157.476 188.346 157.573 188.242 157.649C187.997 157.744 187.725 157.744 187.48 157.649C187.226 157.614 186.994 157.486 186.829 157.29C186.78 157.176 186.754 157.055 186.754 156.931C186.754 156.807 186.78 156.685 186.829 156.572C186.859 156.31 186.987 156.07 187.188 155.899C187.443 155.815 187.718 155.815 187.973 155.899C188.227 155.934 188.458 156.062 188.623 156.259C188.672 156.376 188.696 156.503 188.692 156.631C188.688 156.758 188.657 156.884 188.601 156.998Z" />
<path opacity="0.8" d="M158.089 145.738C157.978 145.856 157.849 145.955 157.707 146.032C157.666 146.056 157.62 146.068 157.573 146.068C157.525 146.068 157.479 146.056 157.438 146.032L156.585 145.197C156.586 145.492 156.525 145.785 156.405 146.055C156.274 146.303 156.108 146.532 155.912 146.732C155.628 147.062 155.275 147.324 154.879 147.5C154.524 147.651 154.142 147.728 153.756 147.726C153.36 147.704 152.971 147.604 152.612 147.432C152.217 147.231 151.854 146.972 151.534 146.664C151.302 146.44 151.105 146.181 150.951 145.896C150.81 145.651 150.712 145.384 150.659 145.106H150.21C150.057 145.175 149.919 145.275 149.806 145.4C149.731 145.475 149.677 145.569 149.649 145.672C149.622 145.775 149.621 145.884 149.649 145.987C149.68 146.278 149.797 146.554 149.985 146.777L151.489 148.358C151.754 148.632 151.987 148.935 152.185 149.262C152.343 149.551 152.456 149.864 152.522 150.188C152.585 150.493 152.585 150.808 152.522 151.114C152.427 151.422 152.257 151.701 152.028 151.926C151.773 152.204 151.458 152.421 151.108 152.559C150.749 152.689 150.365 152.735 149.985 152.694C149.521 152.635 149.072 152.49 148.661 152.265C148.134 151.972 147.651 151.608 147.224 151.181C146.803 150.788 146.427 150.348 146.102 149.871C145.842 149.521 145.638 149.133 145.496 148.719C145.417 148.408 145.417 148.082 145.496 147.771C145.586 147.473 145.748 147.201 145.967 146.981C146.109 146.835 146.267 146.707 146.438 146.597C146.606 146.494 146.787 146.418 146.977 146.371C147.223 146.285 147.481 146.24 147.74 146.235H148.436C148.361 145.947 148.361 145.643 148.436 145.354C148.495 145.089 148.627 144.846 148.818 144.655C149.051 144.398 149.345 144.204 149.671 144.09C149.929 144.029 150.192 143.991 150.457 143.977C150.47 143.681 150.539 143.39 150.659 143.119C150.798 142.798 150.996 142.507 151.242 142.261C151.525 141.955 151.859 141.702 152.23 141.515C152.585 141.34 152.98 141.262 153.375 141.29C153.765 141.29 154.149 141.383 154.497 141.56C154.893 141.751 155.257 142.002 155.575 142.306L156.046 142.825C156.188 142.987 156.315 143.161 156.428 143.345L158.224 145.084C158.247 145.125 158.26 145.172 158.26 145.219C158.26 145.267 158.247 145.313 158.224 145.354C158.201 145.49 158.155 145.619 158.089 145.738ZM150.883 150.933C150.999 150.822 151.082 150.681 151.126 150.526C151.169 150.372 151.171 150.208 151.13 150.052C151.023 149.646 150.805 149.279 150.502 148.991L148.998 147.455C148.781 147.433 148.563 147.433 148.347 147.455C148.19 147.429 148.031 147.429 147.875 147.455C147.737 147.487 147.607 147.549 147.494 147.635L147.202 147.862C147.069 148.004 146.981 148.183 146.949 148.376C146.917 148.569 146.943 148.767 147.022 148.945C147.235 149.491 147.583 149.973 148.032 150.346C148.297 150.63 148.609 150.867 148.953 151.046C149.185 151.189 149.445 151.281 149.716 151.317C149.93 151.364 150.152 151.364 150.367 151.317C150.562 151.224 150.738 151.094 150.883 150.933ZM154.856 145.671C155.036 145.507 155.18 145.309 155.281 145.088C155.381 144.867 155.435 144.627 155.44 144.383C155.428 144.142 155.368 143.906 155.264 143.689C155.16 143.472 155.014 143.278 154.834 143.119C154.641 142.942 154.421 142.797 154.183 142.689C153.961 142.646 153.732 142.646 153.51 142.689C153.281 142.712 153.06 142.781 152.859 142.893C152.633 142.982 152.421 143.103 152.23 143.254C152.058 143.418 151.921 143.613 151.824 143.83C151.728 144.048 151.675 144.282 151.669 144.519C151.704 144.996 151.921 145.441 152.275 145.761C152.472 145.944 152.7 146.089 152.948 146.19C153.182 146.256 153.427 146.271 153.667 146.235C153.893 146.201 154.112 146.133 154.318 146.032C154.516 145.942 154.698 145.82 154.856 145.671Z" />
<path opacity="0.8" d="M165.43 155.269C165.387 155.355 165.323 155.429 165.245 155.484C165.166 155.539 165.076 155.574 164.981 155.586C164.842 155.63 164.693 155.63 164.555 155.586L160.065 152.491C159.832 152.838 159.636 153.209 159.481 153.598C159.354 153.929 159.301 154.283 159.324 154.637C159.367 154.984 159.49 155.317 159.683 155.608C159.926 155.969 160.239 156.276 160.604 156.512C160.896 156.709 161.204 156.883 161.524 157.031L162.31 157.302L162.893 157.437C163.004 157.442 163.111 157.474 163.208 157.527V157.641C163.223 157.7 163.223 157.762 163.208 157.821L163.073 158.07C163.073 158.07 163.073 158.183 162.938 158.228V158.341C162.921 158.35 162.902 158.356 162.882 158.356C162.862 158.356 162.843 158.35 162.826 158.341C162.715 158.36 162.601 158.36 162.489 158.341L161.816 158.16C161.525 158.056 161.24 157.936 160.963 157.799C160.565 157.754 160.173 157.663 159.796 157.527C159.284 157.196 158.841 156.766 158.494 156.263C158.182 155.844 157.974 155.356 157.887 154.84C157.786 154.227 157.84 153.598 158.045 153.011C158.262 152.402 158.572 151.83 158.965 151.317C159.322 150.777 159.761 150.297 160.267 149.895C160.706 149.549 161.21 149.295 161.748 149.149C162.259 149.036 162.787 149.036 163.297 149.149C163.845 149.274 164.363 149.504 164.824 149.826C165.305 150.129 165.712 150.539 166.014 151.024C166.265 151.426 166.419 151.882 166.463 152.356C166.509 152.829 166.455 153.306 166.305 153.756C166.141 154.242 165.914 154.705 165.632 155.134L165.43 155.269ZM164.42 154.027C164.839 153.505 165.055 152.846 165.026 152.175C164.975 151.882 164.863 151.604 164.697 151.358C164.53 151.113 164.313 150.906 164.061 150.752C163.778 150.558 163.456 150.427 163.118 150.368C162.822 150.3 162.515 150.3 162.22 150.368C161.923 150.447 161.642 150.577 161.389 150.752C161.12 150.945 160.884 151.181 160.693 151.453L164.42 154.027Z" />
<path opacity="0.8" d="M172.433 163.264C172.37 163.399 172.294 163.527 172.208 163.648C172.152 163.714 172.084 163.768 172.006 163.806H171.759H171.4H171.019L170.615 163.648C170.274 163.491 169.963 163.277 169.694 163.016C169.486 162.791 169.332 162.52 169.245 162.225C169.177 161.897 169.177 161.559 169.245 161.232C169.328 160.82 169.471 160.425 169.672 160.057L171.759 155.676L170.704 155.179C170.667 155.153 170.636 155.12 170.612 155.081C170.589 155.042 170.575 154.998 170.57 154.954C170.584 154.788 170.629 154.627 170.704 154.479L170.861 154.208C170.861 154.208 170.861 154.208 170.996 154.072C171.04 154.057 171.087 154.057 171.131 154.072H171.265L172.298 154.592L173.151 152.808H173.286H173.533L173.869 152.966C173.991 153.007 174.104 153.068 174.206 153.146L174.386 153.282C174.4 153.334 174.4 153.388 174.386 153.44L173.533 155.224L175.441 156.15C175.478 156.141 175.516 156.141 175.553 156.15C175.553 156.15 175.553 156.15 175.553 156.286C175.564 156.353 175.564 156.422 175.553 156.489L175.441 156.76C175.386 156.922 175.284 157.063 175.149 157.166C175.111 157.188 175.069 157.2 175.026 157.2C174.982 157.2 174.94 157.188 174.902 157.166L172.994 156.241L170.996 160.419C170.78 160.813 170.664 161.255 170.659 161.706C170.679 161.884 170.749 162.052 170.86 162.192C170.971 162.333 171.12 162.438 171.288 162.496L171.647 162.609H171.939H172.186H172.343C172.351 162.669 172.351 162.73 172.343 162.79C172.395 162.943 172.425 163.102 172.433 163.264Z" />
<path opacity="0.8" d="M217.912 168.12C217.93 168.262 217.93 168.406 217.912 168.549C217.937 168.629 217.937 168.716 217.912 168.797L217.71 168.978L217.395 169.136L217.014 169.272H216.61C216.238 169.327 215.859 169.327 215.487 169.272C215.187 169.202 214.904 169.071 214.657 168.888C214.415 168.668 214.223 168.398 214.095 168.097C213.945 167.702 213.833 167.294 213.759 166.878L212.838 162.203L211.694 162.406C211.646 162.409 211.599 162.4 211.556 162.38C211.513 162.36 211.475 162.331 211.447 162.293C211.367 162.154 211.313 162 211.289 161.841C211.28 161.744 211.28 161.646 211.289 161.548C211.277 161.473 211.277 161.397 211.289 161.322H211.424L212.546 161.119L212.232 159.176C212.232 159.176 212.232 159.176 212.232 159.041C212.269 159.033 212.307 159.033 212.345 159.041C212.418 159.021 212.496 159.021 212.569 159.041H212.928H213.287H213.534H213.669L214.005 161.006L216.093 160.644H216.228C216.24 160.704 216.24 160.765 216.228 160.825V161.119C216.274 161.281 216.274 161.453 216.228 161.615C216.213 161.661 216.186 161.701 216.151 161.733C216.116 161.765 216.073 161.787 216.026 161.796L214.41 162.045L215.195 166.561C215.241 167.01 215.403 167.439 215.667 167.804C215.786 167.935 215.94 168.031 216.111 168.079C216.281 168.127 216.462 168.125 216.632 168.074H216.991L217.261 167.939L217.463 167.804C217.513 167.786 217.569 167.786 217.62 167.804V167.962C217.727 167.994 217.826 168.048 217.912 168.12Z" />
<path opacity="0.8" d="M229.495 160.938C229.692 161.536 229.805 162.16 229.832 162.79C229.841 163.353 229.742 163.913 229.539 164.439C229.331 164.949 229.008 165.405 228.597 165.771C228.117 166.185 227.56 166.5 226.958 166.697C226.38 166.891 225.772 166.982 225.162 166.968C224.65 166.935 224.152 166.789 223.703 166.539C223.241 166.256 222.844 165.879 222.536 165.432C222.175 164.905 221.895 164.326 221.706 163.716C221.511 163.116 221.398 162.494 221.369 161.864C221.348 161.3 221.448 160.738 221.66 160.216C221.869 159.704 222.192 159.249 222.603 158.883C223.08 158.469 223.639 158.161 224.242 157.98C224.809 157.771 225.411 157.671 226.015 157.686C226.537 157.719 227.045 157.873 227.497 158.138C227.958 158.412 228.355 158.781 228.664 159.222C229.025 159.749 229.305 160.327 229.495 160.938ZM228.036 161.525C227.904 161.117 227.732 160.723 227.52 160.351C227.328 160.021 227.077 159.73 226.779 159.493C226.507 159.27 226.182 159.122 225.836 159.064C225.412 159 224.98 159.047 224.579 159.199C224.194 159.308 223.845 159.519 223.569 159.809C223.308 160.048 223.115 160.352 223.007 160.689C222.9 161.063 222.862 161.454 222.895 161.841C222.924 162.281 223.015 162.715 223.164 163.129C223.295 163.537 223.468 163.931 223.681 164.303C223.873 164.632 224.124 164.924 224.421 165.161C224.699 165.389 225.033 165.537 225.387 165.59C225.803 165.652 226.228 165.605 226.622 165.455C227.006 165.33 227.359 165.122 227.654 164.845C227.899 164.597 228.083 164.296 228.193 163.964C228.272 163.592 228.272 163.207 228.193 162.835C228.202 162.393 228.149 161.952 228.036 161.525Z" />
<path opacity="0.8" d="M242.784 158.882C242.795 158.927 242.795 158.973 242.784 159.018C242.794 159.063 242.794 159.109 242.784 159.154L242.628 159.312L242.335 159.47L242.021 159.628H241.819C241.776 159.645 241.728 159.645 241.684 159.628L241.168 158.679C241.047 159.273 240.819 159.84 240.495 160.35C240.231 160.765 239.868 161.106 239.44 161.344C239.032 161.599 238.571 161.753 238.093 161.796C237.692 161.813 237.292 161.736 236.926 161.57C236.561 161.393 236.233 161.148 235.96 160.848C235.622 160.461 235.328 160.036 235.085 159.583L232.66 155.066C232.65 155.045 232.646 155.022 232.646 154.998C232.646 154.975 232.65 154.952 232.66 154.93C232.651 154.886 232.651 154.84 232.66 154.795C232.713 154.725 232.783 154.671 232.863 154.637C232.917 154.579 232.977 154.526 233.042 154.479C233.14 154.413 233.245 154.36 233.356 154.321H233.581H233.738L235.983 158.544C236.175 158.883 236.393 159.208 236.634 159.515C236.818 159.719 237.04 159.888 237.285 160.012C237.509 160.12 237.755 160.174 238.003 160.17C238.263 160.147 238.515 160.07 238.744 159.944C239.178 159.777 239.542 159.467 239.777 159.063C240.003 158.575 240.162 158.059 240.248 157.527L237.532 152.379C237.521 152.334 237.521 152.287 237.532 152.243C237.522 152.198 237.522 152.152 237.532 152.107L237.712 151.95L238.048 151.746C238.146 151.68 238.251 151.627 238.362 151.588H238.587H238.744L242.784 158.882Z" />
<path opacity="0.8" d="M252.166 150.323L252.323 150.549V150.73C252.333 150.775 252.333 150.821 252.323 150.865V151.091C252.288 151.251 252.242 151.41 252.189 151.565C252.115 151.786 252.017 151.999 251.897 152.198C251.77 152.424 251.62 152.636 251.448 152.83C251.263 153.043 251.06 153.239 250.842 153.417C250.433 153.776 249.95 154.039 249.428 154.185C248.957 154.309 248.462 154.309 247.991 154.185C247.482 154.071 247.002 153.856 246.577 153.553C246.061 153.175 245.6 152.726 245.208 152.22C244.806 151.676 244.489 151.075 244.265 150.436C244.074 149.908 243.982 149.349 243.995 148.788C244.028 148.283 244.182 147.796 244.444 147.365C244.709 146.929 245.051 146.546 245.455 146.235L246.083 145.807C246.299 145.697 246.525 145.606 246.756 145.536C246.953 145.469 247.156 145.424 247.363 145.4H248.013H248.171L248.328 145.536L248.508 145.739C248.619 145.888 248.703 146.056 248.754 146.235C248.754 146.235 248.754 146.439 248.754 146.484C248.646 146.524 248.526 146.524 248.418 146.484H247.834C247.59 146.511 247.349 146.564 247.115 146.642C246.816 146.73 246.54 146.884 246.307 147.094C246.039 147.286 245.825 147.545 245.687 147.846C245.549 148.148 245.492 148.48 245.522 148.81C245.648 149.65 246.015 150.434 246.577 151.069C246.873 151.439 247.212 151.773 247.587 152.062C247.876 152.291 248.203 152.466 248.552 152.582C248.862 152.66 249.186 152.66 249.495 152.582C249.822 152.483 250.127 152.321 250.393 152.107C250.626 151.965 250.831 151.781 250.999 151.565C251.104 151.304 251.179 151.031 251.223 150.752C251.291 150.561 251.344 150.365 251.381 150.165C251.4 150.046 251.454 149.936 251.538 149.849H251.672L251.83 150.007L252.166 150.323Z" />
<path opacity="0.8" d="M261.999 141.718C261.999 141.718 261.999 141.718 261.999 141.877V142.08L261.752 142.374L261.505 142.645C261.445 142.7 261.377 142.746 261.303 142.78C261.303 142.78 261.303 142.78 261.168 142.78L257.375 139.731C257.101 139.464 256.791 139.235 256.455 139.054C256.217 138.926 255.958 138.841 255.691 138.806C255.456 138.737 255.207 138.737 254.973 138.806C254.723 138.911 254.5 139.073 254.322 139.279C254.057 139.599 253.9 139.994 253.873 140.409C253.8 140.971 253.8 141.541 253.873 142.102L258.205 145.942C258.215 145.994 258.215 146.047 258.205 146.1C258.176 146.172 258.138 146.24 258.093 146.303C258.027 146.408 257.952 146.506 257.869 146.597L257.734 147.071L257.554 147.206C257.554 147.206 257.442 147.206 257.397 147.206H257.285L248.104 138.986C248.104 138.986 248.104 138.873 248.104 138.828C248.1 138.753 248.1 138.677 248.104 138.602C248.179 138.505 248.262 138.415 248.351 138.331C248.463 138.188 248.6 138.065 248.755 137.97V137.834C248.805 137.815 248.861 137.815 248.912 137.834L252.616 141.131C252.521 140.578 252.521 140.013 252.616 139.46C252.724 139.009 252.94 138.59 253.244 138.241C253.544 137.867 253.929 137.573 254.367 137.382C254.833 137.182 255.347 137.119 255.848 137.202C256.249 137.249 256.637 137.372 256.993 137.563C257.447 137.812 257.87 138.115 258.25 138.467L261.999 141.718Z" />
<path opacity="0.8" d="M199.408 169.557C199.42 169.594 199.42 169.633 199.408 169.67C199.371 169.679 199.333 169.679 199.296 169.67H198.69H198.31H198.085L197.973 169.557L198.332 164.556C198.377 164.176 198.377 163.792 198.332 163.413C198.283 163.145 198.192 162.888 198.063 162.65C197.954 162.432 197.782 162.253 197.57 162.134C197.339 161.993 197.077 161.908 196.807 161.888C196.395 161.866 195.987 161.976 195.641 162.202C195.157 162.494 194.719 162.857 194.341 163.278L193.847 169.041C193.859 169.078 193.859 169.117 193.847 169.154C193.804 169.169 193.756 169.169 193.713 169.154H193.107H192.748H192.524H192.412C192.402 169.109 192.402 169.063 192.412 169.019L193.13 160.788C193.13 160.788 193.13 160.788 193.13 160.677H193.691H194.004C194.07 160.66 194.14 160.66 194.206 160.677H194.318C194.318 160.677 194.318 160.677 194.318 160.811L194.206 161.888C194.64 161.471 195.14 161.13 195.686 160.878C196.14 160.69 196.63 160.606 197.121 160.632C197.6 160.668 198.067 160.805 198.489 161.035C198.829 161.241 199.114 161.525 199.319 161.865C199.525 162.217 199.662 162.605 199.722 163.009C199.78 163.508 199.78 164.012 199.722 164.512L199.408 169.557Z" />
<path fill-rule="evenodd" clip-rule="evenodd" d="M428.685 61.9985H416.756L406.89 105.774H416.106L418.079 95.1443H427.048L429.29 105.774H439L428.685 61.9985ZM419.268 86.286L420.747 78.6164C420.926 77.7642 421.083 76.8671 421.24 75.9028C421.397 74.9384 421.577 74.019 421.734 73.0546C421.891 72.0903 422.048 71.2157 422.227 70.3635C422.406 71.2157 422.608 72.1127 422.81 73.0546L423.416 75.9028C423.617 76.8222 423.797 77.7193 423.976 78.549L425.658 86.286H419.268Z" />
<path fill-rule="evenodd" clip-rule="evenodd" d="M362.65 61.9985V105.797H403.124V61.9985H394.559V95.9068H387.159V61.9985H378.593V95.9068H371.194V61.9985H362.65Z" />
<path fill-rule="evenodd" clip-rule="evenodd" d="M358.725 71.4854C358.439 70.2133 357.986 68.9843 357.38 67.8299C356.884 66.8239 356.225 65.907 355.43 65.1164C354.272 63.9705 352.88 63.0905 351.349 62.5374C349.392 61.8796 347.335 61.5684 345.272 61.6179C343.455 61.6179 341.818 61.6179 340.406 61.7525C338.993 61.887 337.738 61.9543 336.662 62.1113C335.585 62.2682 334.643 62.4252 333.858 62.5822V105.775H342.491V91.1755L343.523 91.2878C343.971 91.3126 344.42 91.3126 344.868 91.2878C347.069 91.3469 349.258 90.9574 351.304 90.1438C353.2 89.353 354.866 88.0957 356.147 86.4883C356.851 85.6026 357.425 84.6211 357.851 83.5731C358.314 82.4009 358.652 81.1832 358.86 79.9401C359.087 78.5839 359.199 77.2111 359.196 75.8361C359.213 74.3723 359.055 72.9117 358.725 71.4854ZM349.756 79.3121C349.301 80.1906 348.589 80.91 347.716 81.3754C346.797 81.857 345.77 82.0962 344.733 82.0706H343.366C343.092 81.995 342.823 81.9052 342.559 81.8014V70.9696C342.911 70.8781 343.272 70.8181 343.635 70.7902C344.106 70.7902 344.689 70.7902 345.429 70.7902C346.434 70.763 347.431 70.9947 348.321 71.463C349.072 71.8736 349.676 72.5087 350.048 73.2795C350.445 74.1515 350.636 75.1028 350.608 76.0604C350.632 77.1885 350.378 78.3053 349.868 79.3121H349.756Z" />
<path fill-rule="evenodd" clip-rule="evenodd" d="M328.588 78.5715H315.919V71.8885H329.395V61.9985H307.174V105.797H330.09V95.9068H315.919V88.4389H328.588V78.5715Z" />
<path fill-rule="evenodd" clip-rule="evenodd" d="M273.652 61.9985V105.797H282.398V71.8885H293.497V105.797H302.242V61.9985H273.652Z" />
<path fill-rule="evenodd" clip-rule="evenodd" d="M433.214 113.333H427.675L423.19 128.56H427.473L428.393 124.837H432.608L433.684 128.56H438.169L433.214 113.333ZM428.886 121.72L429.559 119.074C429.559 118.76 429.716 118.446 429.806 118.132C429.895 117.818 429.94 117.459 430.03 117.145C430.119 116.832 430.164 116.495 430.254 116.203C430.343 116.487 430.433 116.801 430.523 117.145L430.792 118.132C430.899 118.433 430.989 118.74 431.061 119.051L431.846 121.72H428.886Z" />
<path fill-rule="evenodd" clip-rule="evenodd" d="M414.222 121.025C413.754 120.67 413.22 120.411 412.652 120.262C413.172 120.079 413.652 119.797 414.065 119.433C414.411 119.135 414.68 118.758 414.849 118.333C415.021 117.945 415.106 117.524 415.096 117.1C415.097 116.6 414.998 116.104 414.805 115.643C414.615 115.231 414.339 114.864 413.998 114.566C413.67 114.267 413.29 114.032 412.877 113.871C412.595 113.747 412.302 113.649 412.002 113.579C411.679 113.484 411.349 113.416 411.015 113.377H409.804H406.822H405.432H404.221L403.347 113.512V128.448C403.75 128.448 404.288 128.56 404.984 128.627H407.517C408.446 128.627 409.375 128.575 410.298 128.47C410.999 128.39 411.69 128.24 412.361 128.022C412.871 127.863 413.355 127.629 413.796 127.326C414.154 127.148 414.486 126.922 414.782 126.654C415.059 126.31 415.279 125.924 415.433 125.51C415.578 125.061 415.654 124.592 415.657 124.119C415.67 123.531 415.548 122.948 415.298 122.415C415.047 121.878 414.68 121.402 414.222 121.025ZM407.495 116.337H408.033H408.953C409.511 116.302 410.069 116.418 410.567 116.674C410.736 116.782 410.874 116.931 410.968 117.108C411.062 117.285 411.11 117.483 411.105 117.683C411.108 117.911 411.046 118.135 410.927 118.329C410.808 118.524 410.637 118.681 410.432 118.782C409.78 119.081 409.064 119.22 408.347 119.186H407.495V116.337ZM411.038 124.859C410.792 125.141 410.474 125.35 410.118 125.465C409.688 125.586 409.243 125.646 408.796 125.644H408.033H407.495V122.169H408.549C409.04 122.148 409.531 122.201 410.006 122.326C410.395 122.402 410.753 122.589 411.038 122.864C411.162 122.999 411.259 123.158 411.32 123.332C411.382 123.505 411.408 123.689 411.397 123.873C411.367 124.249 411.199 124.6 410.926 124.859H411.038Z" />
<path fill-rule="evenodd" clip-rule="evenodd" d="M392.786 115.284C392.103 114.564 391.268 114.006 390.342 113.647C389.29 113.247 388.172 113.049 387.046 113.064C385.935 113.05 384.832 113.248 383.795 113.647C382.861 114.036 382.009 114.6 381.284 115.306C380.582 116.04 380.04 116.91 379.691 117.863C379.296 118.885 379.099 119.973 379.109 121.07C379.103 122.116 379.277 123.155 379.624 124.142C379.96 125.073 380.478 125.927 381.149 126.654C381.827 127.371 382.653 127.93 383.571 128.291C384.59 128.698 385.679 128.903 386.777 128.897C387.926 128.903 389.066 128.698 390.141 128.291C391.096 127.929 391.96 127.362 392.675 126.632C393.373 125.904 393.914 125.042 394.267 124.097C394.644 123.078 394.835 122 394.827 120.913C394.838 119.857 394.656 118.808 394.289 117.818C393.975 116.875 393.463 116.011 392.786 115.284ZM390.275 122.774C390.134 123.298 389.898 123.792 389.58 124.232C389.297 124.631 388.919 124.955 388.481 125.174C388.029 125.424 387.518 125.547 387.001 125.533C386.486 125.542 385.976 125.419 385.522 125.174C385.085 124.944 384.703 124.622 384.4 124.232C384.089 123.788 383.854 123.295 383.705 122.774C383.526 122.186 383.443 121.572 383.459 120.958C383.447 120.343 383.53 119.73 383.705 119.141C383.849 118.618 384.085 118.125 384.4 117.683C384.701 117.28 385.083 116.944 385.522 116.697C385.982 116.469 386.489 116.354 387.001 116.36C387.507 116.352 388.008 116.467 388.459 116.697C388.906 116.931 389.29 117.27 389.58 117.683C389.912 118.118 390.155 118.613 390.298 119.141C390.473 119.73 390.556 120.343 390.544 120.958C390.552 121.574 390.462 122.187 390.275 122.774Z" />
<path fill-rule="evenodd" clip-rule="evenodd" d="M371.24 113.333H366.441L365.454 115.755L365.14 116.54C365.14 116.786 364.938 117.056 364.849 117.325C364.759 117.594 364.647 117.908 364.512 118.244L364.176 117.414C364.041 117.145 363.93 116.876 363.817 116.585C363.705 116.293 363.571 116.024 363.414 115.71L362.315 113.333H357.427L361.911 120.868L357.427 128.56H362.091L363.212 126.004C363.369 125.69 363.503 125.398 363.616 125.107L363.974 124.277C364.087 124.008 364.176 123.739 364.266 123.447L364.692 124.277L365.073 125.129L365.521 126.048L366.71 128.56H371.553L366.867 120.689L371.24 113.333Z" />
<path fill-rule="evenodd" clip-rule="evenodd" d="M339.51 113.333L335.025 128.56H339.286L340.227 124.837H344.42L345.519 128.56H350.004L345.049 113.333H339.51ZM340.788 121.72L341.461 119.074C341.461 118.76 341.618 118.446 341.708 118.132C341.797 117.818 341.842 117.459 341.932 117.145C342.021 116.832 342.066 116.495 342.156 116.203C342.245 116.487 342.335 116.801 342.425 117.145L342.694 118.132L342.963 119.051L343.748 121.72H340.788Z" />
<path fill-rule="evenodd" clip-rule="evenodd" d="M326.706 115.44C326.467 115.074 326.163 114.756 325.809 114.498C325.228 114.081 324.574 113.776 323.88 113.601C322.975 113.349 322.04 113.213 321.1 113.198C320.248 113.198 319.486 113.198 318.858 113.198L317.109 113.31L315.809 113.489V128.515H319.844V123.469H320.315H320.921C321.937 123.484 322.95 123.348 323.926 123.065C324.758 122.82 325.524 122.391 326.168 121.809C326.485 121.511 326.75 121.163 326.953 120.777C327.176 120.385 327.342 119.962 327.446 119.522C327.545 119.05 327.597 118.569 327.603 118.087C327.592 117.569 327.509 117.056 327.356 116.562C327.202 116.155 326.983 115.776 326.706 115.44ZM323.208 119.432C322.972 119.759 322.644 120.009 322.266 120.15C321.815 120.319 321.335 120.403 320.854 120.396H320.226H319.822V116.449H320.293H321.145C321.604 116.432 322.062 116.509 322.49 116.674C322.815 116.8 323.095 117.019 323.298 117.302C323.487 117.625 323.586 117.992 323.586 118.367C323.586 118.741 323.487 119.109 323.298 119.432H323.208Z" />
<path fill-rule="evenodd" clip-rule="evenodd" d="M295.246 116.809H299.327V128.56H303.386V116.809H307.556V113.333H295.246V116.809Z" />
<path fill-rule="evenodd" clip-rule="evenodd" d="M280.492 117.549C280.919 117.186 281.415 116.911 281.95 116.742C282.518 116.578 283.107 116.495 283.699 116.495C284.116 116.46 284.536 116.46 284.954 116.495C285.309 116.552 285.661 116.627 286.008 116.719L286.86 117.033L287.69 113.737C287.384 113.573 287.061 113.445 286.726 113.356C286.3 113.243 285.829 113.153 285.291 113.064C284.708 113.028 284.124 113.028 283.542 113.064C282.619 113.059 281.7 113.173 280.806 113.4C279.968 113.615 279.166 113.956 278.429 114.41C277.701 114.836 277.055 115.391 276.523 116.046C275.98 116.713 275.563 117.473 275.29 118.289C274.986 119.216 274.834 120.185 274.842 121.16C274.831 121.963 274.937 122.764 275.155 123.537C275.362 124.284 275.696 124.989 276.142 125.622C276.59 126.272 277.152 126.834 277.801 127.282C278.53 127.793 279.342 128.172 280.201 128.403C281.215 128.687 282.265 128.823 283.318 128.807C283.926 128.811 284.533 128.766 285.134 128.672C285.611 128.621 286.084 128.531 286.546 128.403C286.857 128.326 287.158 128.212 287.443 128.067L286.838 124.793C286.565 124.916 286.279 125.006 285.986 125.062C285.64 125.155 285.288 125.223 284.932 125.264C284.551 125.286 284.169 125.286 283.788 125.264C283.116 125.264 282.449 125.15 281.815 124.927C281.262 124.729 280.758 124.416 280.335 124.008C279.934 123.615 279.62 123.141 279.416 122.617C279.204 122.035 279.098 121.42 279.102 120.801C279.098 120.131 279.228 119.468 279.483 118.85C279.719 118.347 280.064 117.903 280.492 117.549Z" />
</svg>
