<svg width="579" height="196" viewBox="0 0 579 196" xmlns="http://www.w3.org/2000/svg">
<path fill-rule="evenodd" clip-rule="evenodd" d="M385.62 26H194V169H385.62V26ZM301.204 89.3586C301.317 89.269 301.4 89.2092 301.483 89.1493C301.525 89.1195 301.566 89.0896 301.611 89.0561C307.348 85.2557 310.098 80.0092 309.351 73.1148C308.842 68.4064 306.839 64.4716 303.105 61.4784C298.93 58.1489 294.042 56.8373 288.78 56.7363C283.926 56.6355 273.878 56.7363 273.675 56.7701V106.914H277.51V60.1668L287.762 60.0996C290.376 60.1332 292.955 60.4359 295.433 61.3439C303.309 64.1689 306.194 70.8952 305.277 77.4532C304.666 81.8926 302.087 85.0875 298.217 87.3072C297.849 87.5096 297.469 87.6998 297.084 87.8925L297.084 87.8927C296.829 88.0201 296.573 88.1486 296.316 88.2824L308.842 106.611C308.944 106.746 309.113 106.948 309.249 106.948C310.12 106.97 310.992 106.963 311.902 106.955H311.902H311.903H311.903H311.903H311.903H311.903H311.903H311.904H311.904H311.904H311.904H311.904H311.904H311.905H311.905H311.905H311.905H311.905H311.905H311.906H311.906H311.906H311.906H311.906H311.907C312.378 106.952 312.859 106.948 313.356 106.948L301.204 89.3586ZM221.466 106.981L244.956 56.03L268.48 106.948C268.147 106.948 267.818 106.95 267.492 106.952H267.491H267.491H267.49H267.489H267.489C266.521 106.958 265.583 106.964 264.644 106.914C264.474 106.914 264.27 106.544 264.169 106.309L244.854 64.0343L225.641 106.309C225.403 106.813 225.132 107.015 224.555 106.981C223.908 106.959 223.262 106.966 222.577 106.974H222.577H222.577H222.577H222.577H222.577H222.576H222.576H222.576H222.576H222.576H222.576H222.575H222.575H222.574H222.574H222.574H222.573H222.573H222.572H222.572H222.571C222.215 106.977 221.848 106.981 221.466 106.981ZM360.639 106.141L345.84 81.7583C345.569 81.3212 345.569 80.9848 345.84 80.5476L360.029 56.7704C359.602 56.7704 359.186 56.7743 358.78 56.7781L358.78 56.7781H358.779H358.779H358.779H358.779C357.991 56.7855 357.237 56.7925 356.498 56.7704C355.989 56.7704 355.717 56.9385 355.48 57.3421L341.529 80.6149C341.292 81.0185 341.292 81.2874 341.529 81.6911L356.498 106.376C356.634 106.612 356.871 106.948 357.042 106.948C358.029 106.998 358.998 106.992 360.019 106.986H360.019H360.02H360.021H360.022H360.023H360.024H360.024H360.025H360.026H360.027H360.028H360.029H360.03H360.031H360.032H360.033H360.034H360.035H360.036H360.037H360.038H360.039C360.38 106.984 360.726 106.982 361.081 106.982C360.911 106.612 360.775 106.376 360.639 106.141ZM322.487 57.275L336.405 80.245C336.676 80.6487 336.642 80.9513 336.371 81.3213L336.212 81.5836L336.206 81.5932L336.205 81.5942C331.203 89.8439 326.2 98.0937 321.197 106.377C320.926 106.814 320.688 107.016 320.179 106.982C319.466 106.96 318.753 106.967 318.001 106.974H318.001H318.001H318.001H318.001H318H318H318H318H318H317.999H317.999H317.999H317.999H317.999H317.998H317.998H317.998H317.998H317.998H317.997H317.997H317.996C317.605 106.978 317.203 106.982 316.785 106.982C316.954 106.679 317.09 106.444 317.226 106.208L332.094 81.3886C332.365 80.9177 332.399 80.5814 332.094 80.1106L317.905 56.7032C318.258 56.7032 318.605 56.7011 318.946 56.6989H318.946H318.946H318.946C319.949 56.6927 320.905 56.6867 321.842 56.7368C322.08 56.7368 322.352 57.0396 322.487 57.275ZM290.817 86.8021L290.817 86.8017L290.817 86.8017C290.885 86.7348 290.919 86.7013 290.952 86.7013C291.024 86.687 291.103 86.6667 291.184 86.6454C291.295 86.6166 291.412 86.5861 291.53 86.5667C295.06 85.7596 298.047 84.078 299.914 80.8494C302.969 75.6365 301.611 66.0181 291.767 63.8992C289.968 63.5293 288.203 63.4285 286.404 63.4285L281.516 63.5293C281.482 63.5293 281.448 63.563 281.414 63.5966V106.947H285.216V84.8516L300.118 106.409C300.253 106.611 300.525 106.947 300.729 106.947C302.052 106.981 303.342 106.981 304.802 106.981L290.817 86.8021ZM285.216 84.2125V66.9597C288.678 66.8251 292.073 66.7579 294.754 69.3139C297.402 71.8027 297.741 74.964 296.825 78.2599C295.908 81.5893 293.397 83.2373 290.138 83.809C289.066 84.0124 287.978 84.0639 286.866 84.1166C286.322 84.1423 285.773 84.1684 285.216 84.2125ZM234.875 94.4032L244.786 72.7111L254.631 94.4032H234.875ZM248.996 91.0065L244.651 81.4215L240.306 91.0065H248.996ZM338.781 84.1792L324.932 106.981C325.35 106.981 325.752 106.977 326.143 106.973C326.897 106.966 327.611 106.959 328.326 106.981C328.835 106.981 329.107 106.847 329.344 106.41L338.578 90.9728L347.98 106.443C348.116 106.679 348.422 106.948 348.625 106.981C349.562 107.031 350.517 107.025 351.521 107.019H351.521C351.862 107.017 352.21 107.015 352.563 107.015L338.781 84.1792ZM347.471 57.3082C347.742 56.8709 348.014 56.6691 348.557 56.7027C349.57 56.7675 350.583 56.7387 351.715 56.7065L351.849 56.7027L339.154 77.7223L326.459 56.7363C326.831 56.7363 327.192 56.7341 327.546 56.732C328.579 56.7258 329.546 56.7199 330.532 56.7701C330.702 56.7701 330.939 57.1063 331.075 57.3418L339.324 70.8614L347.471 57.3082ZM260.265 106.746L256.362 98.2039C256.26 98.0022 255.921 97.834 255.683 97.834H233.822C233.585 97.834 233.211 98.0694 233.075 98.3049L229.138 106.948C229.532 106.948 229.914 106.944 230.287 106.94C231.006 106.933 231.692 106.926 232.363 106.948C232.872 106.982 233.075 106.78 233.279 106.343L235.35 101.769C235.553 101.332 235.757 101.163 236.266 101.163H253.001C253.544 101.163 253.748 101.365 253.952 101.803L256.09 106.41C256.192 106.612 256.43 106.881 256.599 106.881C257.821 106.915 259.044 106.915 260.265 106.915V106.746ZM237.541 138.519H235.782V135.318H237.858C239.055 135.318 239.237 135.823 239.383 136.231C239.482 136.506 239.565 136.737 239.934 136.737H240.286V134.592C240.004 134.724 239.617 134.757 239.336 134.757H233.565V134.954C233.565 135.177 233.703 135.189 233.862 135.202C234.08 135.219 234.339 135.24 234.339 135.812V142.083C234.339 142.655 234.08 142.676 233.862 142.693C233.703 142.706 233.565 142.718 233.565 142.941V143.172H236.556V142.941C236.556 142.718 236.418 142.706 236.258 142.693C236.04 142.676 235.782 142.655 235.782 142.083V139.047H237.541C238.31 139.047 238.405 139.316 238.488 139.553C238.554 139.739 238.612 139.905 238.984 139.905H239.3V137.693H239.054C238.668 137.693 238.607 137.852 238.539 138.03C238.451 138.258 238.351 138.519 237.541 138.519ZM250.725 143.172V142.942C250.725 142.723 250.854 142.71 251.005 142.695C251.214 142.674 251.465 142.649 251.465 142.058V135.705C251.465 135.122 251.221 135.101 251.013 135.083C250.859 135.069 250.725 135.058 250.725 134.821V134.592H253.585V134.821C253.585 135.04 253.455 135.053 253.305 135.068C253.095 135.089 252.845 135.114 252.845 135.705V142.058C252.845 142.641 253.089 142.663 253.297 142.681C253.451 142.694 253.585 142.705 253.585 142.942V143.172H250.725ZM257.503 142.681C257.307 142.663 257.076 142.641 257.076 142.058V141.742V138.783H257.52C258.309 138.783 258.522 139.145 259.071 140.074C259.14 140.191 259.215 140.318 259.296 140.453L260.945 143.139H262.88V142.91C262.88 142.671 262.804 142.661 262.663 142.642C262.474 142.617 262.169 142.577 261.77 141.96L260.279 139.667C260.239 139.608 260.199 139.549 260.161 139.491L260.16 139.491L260.16 139.491C259.899 139.097 259.662 138.742 259.138 138.685V138.652C260.47 138.62 261.833 138.096 261.833 136.655C261.833 135.017 260.057 134.592 259.106 134.592H255.047V134.821C255.047 135.058 255.173 135.069 255.318 135.083C255.514 135.101 255.744 135.122 255.744 135.705V142.058C255.744 142.649 255.497 142.674 255.291 142.695C255.142 142.71 255.015 142.723 255.015 142.942V143.172H257.774V142.942C257.774 142.705 257.648 142.694 257.503 142.681ZM260.406 136.753C260.406 138.096 259.328 138.325 258.345 138.325H257.076V135.148H258.725C259.55 135.148 260.406 135.639 260.406 136.753ZM266.526 138.519H268.286C269.089 138.519 269.194 138.263 269.288 138.036C269.362 137.856 269.429 137.693 269.834 137.693H270.08V139.905H269.764C269.395 139.905 269.335 139.741 269.267 139.557C269.179 139.319 269.079 139.047 268.286 139.047H266.526V142.083C266.526 142.655 266.785 142.676 267.003 142.693C267.163 142.706 267.301 142.718 267.301 142.941V143.172H264.31V142.941C264.31 142.718 264.447 142.706 264.607 142.693C264.825 142.676 265.084 142.655 265.084 142.083V135.812C265.084 135.24 264.825 135.219 264.607 135.202C264.447 135.189 264.31 135.177 264.31 134.954V134.757H270.08C270.362 134.757 270.749 134.724 271.031 134.592V136.737H270.679C270.31 136.737 270.227 136.506 270.128 136.231C269.981 135.823 269.8 135.318 268.603 135.318H266.526V138.519ZM282.844 141.779C282.881 141.727 282.916 141.68 282.942 141.638L284.617 139.42L286.566 141.997C286.668 142.095 286.839 142.291 286.839 142.421C286.839 142.613 286.659 142.64 286.474 142.668C286.283 142.697 286.087 142.727 286.087 142.943V143.172H289.335V142.943C289.335 142.736 289.257 142.717 289.115 142.681C288.944 142.639 288.68 142.573 288.343 142.128L285.574 138.376L287.42 135.994C287.972 135.299 288.364 135.199 288.598 135.14C288.77 135.096 288.856 135.074 288.856 134.853V134.624H286.224V134.853C286.224 135.073 286.384 135.088 286.549 135.104C286.725 135.12 286.908 135.137 286.908 135.407C286.908 135.59 286.644 135.941 286.469 136.174C286.425 136.231 286.388 136.282 286.361 136.321L285.198 137.854L283.66 135.799C283.644 135.775 283.62 135.747 283.593 135.714C283.506 135.61 283.387 135.466 283.387 135.342C283.387 135.17 283.52 135.14 283.659 135.109C283.81 135.076 283.968 135.041 283.968 134.82V134.592H280.857V134.82C280.857 135.039 280.933 135.049 281.072 135.066C281.243 135.087 281.509 135.121 281.848 135.57L284.275 138.8L281.917 141.932C281.435 142.564 281.118 142.623 280.939 142.656C280.813 142.679 280.755 142.689 280.755 142.878V143.106H283.352V142.878C283.352 142.67 283.171 142.627 282.987 142.583C282.795 142.537 282.6 142.491 282.6 142.258C282.6 142.112 282.734 141.93 282.844 141.779ZM244.295 135.085H243.392V134.592H245.36C245.424 134.592 248.392 142.021 248.392 142.021C248.669 142.643 248.926 142.681 249.094 142.706C249.219 142.725 249.295 142.736 249.295 142.974V143.172H246.424V142.974C246.424 142.744 246.594 142.719 246.763 142.695C246.932 142.67 247.102 142.646 247.102 142.415C247.102 142.218 247.037 141.922 246.94 141.758L246.07 139.555L243.489 139.523L242.586 141.594C242.573 141.627 242.556 141.667 242.537 141.712C242.462 141.886 242.36 142.127 242.36 142.284C242.36 142.551 242.527 142.589 242.69 142.627C242.849 142.663 243.005 142.699 243.005 142.941V143.139H240.715V142.941C240.715 142.745 240.787 142.721 240.91 142.679C241.096 142.617 241.398 142.516 241.747 141.725L244.295 135.085ZM244.844 136.137L243.715 138.964H245.908L244.844 136.137ZM273.444 135.085H274.344L271.773 141.725C271.426 142.516 271.124 142.617 270.939 142.679C270.816 142.721 270.745 142.745 270.745 142.941V143.139H273.059V142.941C273.059 142.699 272.903 142.663 272.745 142.627C272.582 142.589 272.416 142.551 272.416 142.284C272.416 142.127 272.518 141.887 272.592 141.712L272.614 141.659L272.63 141.62L272.641 141.594L273.541 139.523L276.111 139.555L276.979 141.758C277.076 141.922 277.14 142.218 277.14 142.415C277.14 142.646 276.971 142.67 276.802 142.695C276.634 142.719 276.465 142.744 276.465 142.974V143.172H279.325V142.974C279.325 142.736 279.249 142.725 279.125 142.706C278.957 142.681 278.702 142.643 278.425 142.021C278.425 142.021 275.469 134.592 275.404 134.592H273.444V135.085ZM273.766 138.964L274.89 136.137L275.951 138.964H273.766ZM233.11 131.016C232.941 131.016 232.805 130.857 232.805 130.659C232.805 130.46 232.941 130.301 233.11 130.301H289.493C289.663 130.301 289.799 130.46 289.799 130.659C289.799 130.857 289.663 131.016 289.493 131.016H233.11ZM232.805 147.104C232.805 147.302 232.941 147.461 233.11 147.461H289.493C289.663 147.461 289.799 147.302 289.799 147.104C289.799 146.905 289.663 146.746 289.493 146.746H233.11C232.941 146.746 232.805 146.905 232.805 147.104ZM222.074 143.172H220.695L224.295 134.592H225.674L229.275 143.172H227.934L227.015 140.961H222.993L222.074 143.172ZM226.67 140.004L225.023 135.78L223.338 140.004H226.67ZM301.713 143.172C304.267 143.172 304.905 141.396 305.065 140.246H304.011C303.948 141.396 303.022 142.251 301.745 142.251C300.085 142.251 299.064 140.837 299.064 138.964C299.064 137.189 299.702 135.479 301.681 135.479C303.501 135.479 303.852 136.728 303.916 137.32H304.969C304.841 136.104 304.203 134.592 301.681 134.592C301.011 134.592 297.915 134.723 297.915 139.029C297.915 141.594 299.351 143.172 301.713 143.172ZM310.785 134.592C312.438 134.592 314.36 135.574 314.36 138.882C314.36 143.106 311.236 143.172 310.785 143.172C310.305 143.172 307.21 143.106 307.21 138.882C307.21 136.032 308.712 134.592 310.785 134.592ZM310.785 142.222C311.296 142.222 313.279 142.091 313.279 138.849C313.279 136.949 312.498 135.476 310.785 135.476C308.502 135.476 308.292 137.965 308.292 138.849C308.292 140.159 308.652 142.222 310.785 142.222ZM317.611 136.301V135.972L320.326 143.172H321.264L323.979 135.972H324.012L323.979 136.301V143.172H325.085V134.592H323.409L320.795 141.659L318.181 134.592H316.505V143.172H317.611V136.301ZM331.552 134.592C333.356 134.592 334.523 135.282 334.523 137.057C334.523 138.668 333.709 139.753 331.41 139.753H329.112V143.172H327.945V134.592H331.552ZM329.147 138.766H331.304C332.719 138.766 333.32 138.175 333.32 137.057C333.32 136.005 332.648 135.545 331.304 135.545H329.147V138.766ZM335.095 143.172H336.244L336.978 140.936H340.33L341.095 143.172H342.245L339.245 134.592H338.095L335.095 143.172ZM338.701 135.742L340.074 139.983H337.329L338.701 135.742ZM344.837 143.172H343.675V134.592H344.977L349.662 141.396V134.592H350.825V143.172H349.522L344.837 136.367V143.172ZM359.405 134.592H358.094L355.83 138.569L353.566 134.592H352.255L355.305 139.588V143.172H356.388V139.588L359.405 134.592Z" />
</svg>
