<svg width="261" height="99" viewBox="0 0 261 99" xmlns="http://www.w3.org/2000/svg">
<path d="M35.8434 79.5492C35.7909 79.5492 35.7513 79.5228 35.7251 79.4702C35.6987 79.4177 35.6855 79.3781 35.6855 79.3517C35.6855 79.1939 35.7909 78.8519 36.0013 78.3256C36.2118 77.773 36.5276 77.1547 36.9485 76.4705C37.3959 75.76 37.9354 75.0233 38.5668 74.2602C39.2248 73.4971 40.001 72.7997 40.8955 72.1683C41.7902 71.5105 42.8034 70.971 43.9348 70.55C45.0926 70.1289 46.3688 69.9185 47.7634 69.9185C48.7634 69.9185 49.737 70.0896 50.6841 70.4316C51.6577 70.7736 52.3946 71.1552 52.8945 71.5763C53.6313 71.3921 54.4602 71.2605 55.3812 71.1816C56.3284 71.0763 57.2495 71.0236 58.144 71.0236C59.5387 71.0236 60.8674 71.1552 62.1305 71.4183C63.3935 71.6552 64.4593 71.9841 65.3276 72.405C65.8802 72.0894 66.367 71.7867 66.788 71.4972C67.209 71.1816 67.5248 71.0236 67.7352 71.0236C67.8405 71.0236 67.8932 71.0894 67.8932 71.221C67.8932 71.3525 67.6826 71.5367 67.2616 71.7736C66.8405 71.9841 66.367 72.2735 65.8407 72.6419C67.0774 73.3261 68.0774 74.2471 68.8404 75.4049C69.6298 76.5363 70.0246 77.8256 70.0246 79.2728C70.0246 80.2728 69.7746 81.2069 69.2746 82.0752C68.7746 82.9436 68.1299 83.7067 67.3405 84.3646C66.5774 84.9961 65.7091 85.496 64.7355 85.8644C63.7882 86.2328 62.8541 86.4169 61.9332 86.4169C61.5648 86.4169 61.1832 86.3511 60.7885 86.2196C60.4201 86.088 60.078 85.9433 59.7623 85.7855C59.4729 85.6275 59.2229 85.4697 59.0124 85.3117C58.8282 85.1539 58.736 85.0355 58.736 84.9566C58.736 84.825 58.8151 84.7592 58.9729 84.7592C58.9993 84.7592 59.0782 84.8119 59.2098 84.9171C59.3676 85.0224 59.5518 85.1408 59.7623 85.2724C59.9729 85.4039 60.2096 85.5224 60.4727 85.6275C60.7623 85.7328 61.0781 85.7855 61.4201 85.7855C62.3937 85.7855 63.2751 85.5355 64.0646 85.0355C64.8802 84.5355 65.5645 83.9041 66.117 83.141C66.6959 82.3778 67.1301 81.5227 67.4195 80.5753C67.7352 79.6281 67.8932 78.7203 67.8932 77.8519C67.8932 76.8521 67.6695 75.9442 67.2221 75.1285C66.8012 74.3128 66.1434 73.6417 65.2487 73.1155C64.4066 73.6944 63.6173 74.4575 62.8804 75.4049C62.1437 76.3258 61.4201 77.3914 60.7096 78.6019C59.9991 79.786 59.2624 81.0885 58.4993 82.5094C57.7362 83.9041 56.9204 85.3644 56.0521 86.8906C55.1838 88.4431 54.1707 89.9299 53.0129 91.3508C51.8815 92.7453 50.6448 93.9821 49.3027 95.061C47.9871 96.1135 46.5924 96.9686 45.1188 97.6264C43.6716 98.258 42.1849 98.5738 40.6588 98.5738C40.0535 98.5738 39.4615 98.508 38.8826 98.3764C38.3301 98.2711 37.8301 98.0869 37.3827 97.8238C36.9618 97.5606 36.6196 97.2317 36.3565 96.8371C36.1198 96.4161 36.0013 95.9161 36.0013 95.3372C36.0013 94.8899 36.1198 94.5083 36.3565 94.1925C36.6196 93.8505 36.988 93.6794 37.4616 93.6794C37.909 93.6794 38.2905 93.8242 38.6063 94.1136C38.9221 94.3767 39.0799 94.732 39.0799 95.1794C39.0799 95.5477 39.0141 95.8241 38.8826 96.0081C38.751 96.1661 38.6852 96.3503 38.6852 96.5608C38.6852 96.9817 38.8695 97.3502 39.2379 97.666C39.6326 97.9553 40.2904 98.1002 41.2113 98.1002C42.3691 98.1002 43.448 97.8764 44.4479 97.4291C45.4741 96.9555 46.4215 96.3371 47.2898 95.5741C48.1845 94.811 49.0001 93.9425 49.737 92.9689C50.4999 91.9691 51.1973 90.956 51.8288 89.9299C52.4604 88.8772 53.0393 87.8378 53.5655 86.8117C54.118 85.7855 54.6312 84.8381 55.1048 83.9699C55.6312 82.9963 56.2495 81.9831 56.9599 80.9306C57.6704 79.8781 58.4335 78.8519 59.2491 77.8519C60.0912 76.8521 60.9727 75.918 61.8937 75.0496C62.841 74.1813 63.7882 73.4444 64.7355 72.8392C63.6304 72.313 62.4988 71.9577 61.3412 71.7736C60.2096 71.5894 59.144 71.4972 58.144 71.4972C57.223 71.4972 56.3679 71.5236 55.5785 71.5763C54.8154 71.6288 54.0523 71.7472 53.2891 71.9314C53.8945 72.6156 54.3023 73.3786 54.5127 74.2206C54.7496 75.0364 54.868 75.8785 54.868 76.7467C54.868 78.1677 54.5391 79.6017 53.8813 81.0491C53.2234 82.47 52.3551 83.7725 51.2762 84.9566C50.1974 86.1144 48.9607 87.0616 47.566 87.7985C46.1715 88.5089 44.7374 88.8641 43.2638 88.8641C42.6849 88.8641 42.1323 88.7721 41.606 88.5878C41.0798 88.4036 40.6193 88.1405 40.2246 87.7985C39.8299 87.43 39.5141 86.9827 39.2773 86.4564C39.0405 85.9039 38.9221 85.2592 38.9221 84.5224C38.9221 83.5225 39.1326 82.5358 39.5537 81.5622C39.9746 80.5886 40.5273 79.6675 41.2113 78.7992C41.9218 77.9046 42.7245 77.0625 43.619 76.2731C44.5401 75.4838 45.5004 74.7864 46.5004 74.1813C47.5002 73.5497 48.5002 73.0235 49.5001 72.6024C50.4999 72.1814 51.4341 71.8788 52.3024 71.6946C51.671 71.2474 50.9341 70.9183 50.0921 70.7078C49.2501 70.4974 48.4476 70.3921 47.6845 70.3921C46.1846 70.3921 44.7374 70.7078 43.3427 71.3394C41.9482 71.9446 40.6851 72.813 39.5537 73.9444C38.8432 74.6549 38.2643 75.3522 37.817 76.0363C37.3696 76.7205 37.0145 77.3256 36.7512 77.8519C36.488 78.3519 36.2907 78.7597 36.1591 79.0755C36.0276 79.3913 35.9224 79.5492 35.8434 79.5492ZM39.3957 84.3646C39.3957 85.6013 39.6984 86.5617 40.3035 87.2458C40.9351 87.9036 41.764 88.2325 42.7902 88.2325C44.0795 88.2325 45.3688 87.8378 46.6582 87.0485C47.9476 86.2328 49.1054 85.2197 50.1316 84.0092C51.1841 82.7725 52.0393 81.4174 52.6971 79.9439C53.3549 78.4703 53.684 77.0494 53.684 75.6811C53.684 74.9706 53.6313 74.2997 53.526 73.6681C53.4209 73.0366 53.1576 72.4972 52.7366 72.0499C51.1315 72.3656 49.5263 72.9577 47.9213 73.826C46.3424 74.6944 44.9215 75.7074 43.6585 76.8652C42.3954 78.023 41.3693 79.2597 40.5798 80.5753C39.7904 81.8911 39.3957 83.1541 39.3957 84.3646Z" />
<path d="M75.0505 90.0877C75.0505 90.4824 74.9848 90.9166 74.8532 91.3902C74.7216 91.8375 74.5374 92.2849 74.3005 92.7322C74.0901 93.1532 73.8401 93.5743 73.5507 93.9952C73.2876 94.3899 73.0112 94.7321 72.7218 95.0214C72.827 95.0741 72.9718 95.1003 73.156 95.1003C73.8401 95.1003 74.4979 94.9294 75.1295 94.5872C75.761 94.2189 76.3266 93.7452 76.8266 93.1664C77.0898 92.8769 77.2477 92.6927 77.3002 92.6138C77.3793 92.5349 77.4451 92.4953 77.4977 92.4953C77.6293 92.4953 77.6951 92.5611 77.6951 92.6927C77.6951 92.7453 77.6424 92.8374 77.5371 92.9689C77.4318 93.1007 77.1555 93.4032 76.7082 93.8768C76.2084 94.4032 75.6162 94.8241 74.9321 95.1399C74.2743 95.4293 73.5638 95.5741 72.8007 95.5741C72.5376 95.5741 72.3665 95.5608 72.2876 95.5346C71.6824 96.2188 70.9588 96.8635 70.1168 97.4686C69.301 98.0475 68.3405 98.3369 67.2354 98.3369C66.446 98.3369 65.8409 98.0211 65.4198 97.3897C64.9988 96.7582 64.7884 95.903 64.7884 94.8241C64.7884 94.1136 64.8146 93.6269 64.8673 93.3638C64.9462 93.1007 64.9857 92.9032 64.9857 92.7716C64.9857 92.6138 64.9462 92.5349 64.8673 92.5349C64.7093 92.5349 64.5646 92.64 64.433 92.8507C64.3015 93.0611 64.2095 93.1664 64.1568 93.1664C63.9988 93.1664 63.9199 93.1007 63.9199 92.9689C63.9199 92.9164 63.9857 92.798 64.1173 92.6138C64.2752 92.4296 64.4726 92.2191 64.7093 91.9822C64.9462 91.7455 65.1962 91.4955 65.4593 91.2324C65.7224 90.9693 65.9724 90.7193 66.2091 90.4824C67.367 89.3772 68.5116 88.5879 69.643 88.1143C70.7746 87.6143 71.7876 87.3643 72.6823 87.3643C73.4454 87.3643 74.0243 87.6274 74.419 88.1536C74.8401 88.6536 75.0505 89.2983 75.0505 90.0877ZM74.1821 89.6141C74.1821 89.1404 74.077 88.7325 73.8665 88.3905C73.6559 88.0221 73.3007 87.8379 72.8007 87.8379C72.1166 87.8379 71.3929 88.1274 70.6299 88.7063C69.8668 89.2852 69.1694 90.0088 68.5379 90.8771C67.9065 91.7455 67.3801 92.6796 66.9591 93.6794C66.5645 94.6794 66.3671 95.5872 66.3671 96.4028C66.3671 96.9555 66.4591 97.3371 66.6434 97.5475C66.8538 97.758 67.1038 97.8633 67.3934 97.8633C68.1827 97.8633 68.9721 97.6002 69.7615 97.0739C70.5773 96.5477 71.3009 95.8899 71.9324 95.1003C72.5902 94.2847 73.1296 93.39 73.5507 92.4164C73.9716 91.4428 74.1821 90.5088 74.1821 89.6141Z" />
<path d="M87.1673 89.1012C87.1673 88.6538 87.0882 88.2985 86.9304 88.0354C86.7726 87.746 86.4699 87.6013 86.0226 87.6013C85.3648 87.6013 84.6279 87.9038 83.8123 88.5091C83.0229 89.088 82.2729 89.8379 81.5624 90.7588C80.8519 91.6535 80.2599 92.6402 79.7863 93.7191C79.3126 94.798 79.0759 95.8243 79.0759 96.7979C79.0759 97.5082 79.431 97.8635 80.1415 97.8635C80.6415 97.8635 81.2862 97.574 82.0755 96.9952C82.8649 96.4163 83.628 95.6926 84.3648 94.8243C85.1279 93.9296 85.7857 92.9691 86.3384 91.943C86.8909 90.9168 87.1673 89.9695 87.1673 89.1012ZM96.2454 74.6551L98.574 74.5762C97.0216 77.339 95.4954 79.9966 93.9955 82.5491C92.4957 85.0752 91.1537 87.3645 89.9696 89.417C88.7855 91.443 87.8251 93.1402 87.0882 94.5085C86.3777 95.8505 86.0226 96.7188 86.0226 97.1135C86.0226 97.6135 86.2462 97.8635 86.6935 97.8635C86.983 97.8635 87.3909 97.6924 87.9171 97.3504C88.4434 97.0084 89.1276 96.4163 89.9696 95.5743C91.0221 94.548 91.7457 93.7718 92.1404 93.2455C92.5615 92.7193 92.7982 92.4562 92.8509 92.4562C93.0088 92.4562 93.0877 92.5087 93.0877 92.614C93.0877 92.7193 92.8115 93.0876 92.2588 93.7191C90.8643 95.3243 89.7065 96.4952 88.7855 97.232C87.8645 97.9688 87.0357 98.3371 86.2988 98.3371C85.8515 98.3371 85.4963 98.1398 85.2332 97.7451C84.9701 97.3504 84.8385 96.8504 84.8385 96.2452C84.8385 95.9295 84.8648 95.6401 84.9174 95.377C84.9963 95.0874 85.0621 94.8374 85.1148 94.627L85.0359 94.548C84.8252 94.8901 84.5227 95.2848 84.128 95.7321C83.7334 96.1532 83.2991 96.561 82.8255 96.9557C82.3518 97.3504 81.8387 97.6793 81.2862 97.9424C80.7599 98.2055 80.2468 98.3371 79.7468 98.3371C79.3521 98.3371 79.0101 98.232 78.7205 98.0213C78.4312 97.7846 78.1943 97.4951 78.0101 97.153C77.826 96.811 77.6943 96.4295 77.6154 96.0084C77.5365 95.561 77.497 95.1401 77.497 94.7454C77.497 94.4559 77.5102 94.1402 77.5365 93.798C77.5627 93.456 77.6023 93.1402 77.6549 92.8509C77.6023 92.8509 77.5496 92.8902 77.497 92.9691C77.4707 93.0218 77.4445 93.0482 77.418 93.0482C77.2865 93.0482 77.2207 92.9691 77.2207 92.8113C77.2207 92.8113 77.2207 92.7982 77.2207 92.7718C77.2471 92.7193 77.2996 92.6402 77.3787 92.5351C77.4576 92.4298 77.576 92.2851 77.7338 92.1009C77.8918 91.8904 78.1154 91.6273 78.4048 91.3115C79.4837 90.1274 80.6546 89.1405 81.9177 88.3512C83.1807 87.5356 84.4701 87.1276 85.7857 87.1276C86.2857 87.1276 86.7199 87.2724 87.0882 87.5618C87.4566 87.8513 87.6409 88.2985 87.6409 88.9038C87.6409 89.088 87.6409 89.2721 87.6409 89.4563C87.6409 89.6143 87.6145 89.759 87.562 89.8905L87.6409 89.9695L96.2454 74.6551Z" />
<path d="M103.535 90.0877C103.535 90.4824 103.469 90.9166 103.337 91.3902C103.206 91.8375 103.022 92.2849 102.785 92.7322C102.574 93.1532 102.324 93.5743 102.035 93.9952C101.772 94.3899 101.496 94.7321 101.206 95.0214C101.311 95.0741 101.456 95.1003 101.64 95.1003C102.324 95.1003 102.982 94.9294 103.614 94.5872C104.245 94.2189 104.811 93.7452 105.311 93.1664C105.574 92.8769 105.732 92.6927 105.785 92.6138C105.864 92.5349 105.929 92.4953 105.982 92.4953C106.114 92.4953 106.179 92.5611 106.179 92.6927C106.179 92.7453 106.127 92.8374 106.021 92.9689C105.916 93.1007 105.64 93.4032 105.193 93.8768C104.693 94.4032 104.101 94.8241 103.416 95.1399C102.759 95.4293 102.048 95.5741 101.285 95.5741C101.022 95.5741 100.851 95.5608 100.772 95.5346C100.167 96.2188 99.443 96.8635 98.601 97.4686C97.7854 98.0475 96.8249 98.3369 95.7198 98.3369C94.9304 98.3369 94.3251 98.0211 93.9041 97.3897C93.483 96.7582 93.2726 95.903 93.2726 94.8241C93.2726 94.1136 93.2988 93.6269 93.3515 93.3638C93.4304 93.1007 93.4699 92.9032 93.4699 92.7716C93.4699 92.6138 93.4304 92.5349 93.3515 92.5349C93.1937 92.5349 93.049 92.64 92.9174 92.8507C92.7859 93.0611 92.6937 93.1664 92.641 93.1664C92.4832 93.1664 92.4043 93.1007 92.4043 92.9689C92.4043 92.9164 92.4701 92.798 92.6016 92.6138C92.7594 92.4296 92.9568 92.2191 93.1937 91.9822C93.4304 91.7455 93.6804 91.4955 93.9435 91.2324C94.2066 90.9693 94.4566 90.7193 94.6935 90.4824C95.8513 89.3772 96.9959 88.5879 98.1274 88.1143C99.2588 87.6143 100.272 87.3643 101.167 87.3643C101.93 87.3643 102.509 87.6274 102.903 88.1536C103.324 88.6536 103.535 89.2983 103.535 90.0877ZM102.666 89.6141C102.666 89.1404 102.561 88.7325 102.351 88.3905C102.14 88.0221 101.785 87.8379 101.285 87.8379C100.601 87.8379 99.8773 88.1274 99.1141 88.7063C98.351 89.2852 97.6538 90.0088 97.0223 90.8771C96.3907 91.7455 95.8645 92.6796 95.4435 93.6794C95.0487 94.6794 94.8513 95.5872 94.8513 96.4028C94.8513 96.9555 94.9435 97.3371 95.1277 97.5475C95.3382 97.758 95.5882 97.8633 95.8776 97.8633C96.667 97.8633 97.4565 97.6002 98.2459 97.0739C99.0615 96.5477 99.7851 95.8899 100.417 95.1003C101.074 94.2847 101.614 93.39 102.035 92.4164C102.456 91.4428 102.666 90.5088 102.666 89.6141Z" />
<path d="M120.902 74.5762C118.323 78.6284 116.165 82.0096 114.428 84.7199C112.718 87.4302 111.323 89.6537 110.245 91.3904C109.192 93.1009 108.442 94.4165 107.995 95.3374C107.547 96.2321 107.324 96.903 107.324 97.3504C107.324 97.482 107.376 97.6004 107.482 97.7057C107.613 97.8109 107.771 97.8635 107.955 97.8635C108.561 97.8635 109.218 97.6135 109.929 97.1135C110.666 96.6137 111.534 95.8637 112.534 94.8638C113.429 93.9691 113.994 93.3507 114.231 93.0087C114.494 92.6402 114.678 92.4562 114.784 92.4562C114.915 92.4562 114.981 92.522 114.981 92.6535C114.981 92.6798 114.928 92.7587 114.823 92.8902C114.718 93.0218 114.586 93.1798 114.428 93.364C114.271 93.548 114.1 93.7323 113.915 93.9165C113.757 94.1007 113.613 94.2718 113.481 94.4296C112.323 95.6663 111.284 96.6268 110.363 97.3109C109.442 97.9951 108.6 98.3371 107.837 98.3371C107.153 98.3371 106.692 98.1398 106.455 97.7451C106.245 97.3504 106.14 96.8899 106.14 96.3637C106.14 95.7848 106.219 95.2585 106.377 94.7848C106.535 94.2849 106.784 93.7587 107.127 93.206C107.469 92.6271 107.89 91.9693 108.39 91.2326C108.89 90.4695 109.482 89.5221 110.166 88.3907L110.087 88.3118C109.745 88.7065 109.39 89.1274 109.021 89.5748C108.653 90.0221 108.14 90.601 107.482 91.3115C107.113 91.7324 106.811 92.0746 106.574 92.3377C106.363 92.5745 106.192 92.7718 106.061 92.9298C105.929 93.0613 105.837 93.1534 105.785 93.206C105.732 93.2324 105.679 93.2455 105.627 93.2455C105.521 93.2455 105.469 93.1798 105.469 93.0482C105.469 92.9691 105.706 92.6666 106.179 92.1404C106.679 91.6141 107.311 90.9037 108.074 90.009C108.863 89.088 109.732 88.0091 110.679 86.7724C111.652 85.5093 112.613 84.1148 113.56 82.5885L118.297 74.8524L120.902 74.5762Z" />
<path d="M119.587 96.2447L119.665 96.3236C120.323 95.8763 120.876 95.4027 121.323 94.9027C121.771 94.4028 122.165 93.9555 122.507 93.5608C122.928 93.1134 123.178 92.8239 123.257 92.6923C123.336 92.5345 123.415 92.4556 123.494 92.4556C123.626 92.4556 123.691 92.5345 123.691 92.6923C123.691 92.745 123.52 92.9819 123.178 93.4028C122.836 93.7975 122.468 94.2186 122.073 94.6659C120.994 95.8763 119.968 96.7973 118.995 97.4288C118.021 98.0341 116.982 98.3366 115.876 98.3366C115.429 98.3366 115.087 98.3234 114.85 98.2972C114.613 98.2445 114.363 98.113 114.1 97.9025C113.942 97.7709 113.798 97.5734 113.666 97.3103C113.535 97.0209 113.469 96.7709 113.469 96.5605C113.469 95.8238 113.798 95.4553 114.455 95.4553C114.666 95.4553 114.85 95.5211 115.008 95.6527C115.192 95.758 115.284 95.9027 115.284 96.0869C115.284 96.2973 115.258 96.442 115.205 96.5209C115.153 96.5998 115.087 96.6656 115.008 96.7183C114.929 96.7709 114.863 96.8367 114.811 96.9156C114.758 96.9683 114.732 97.0867 114.732 97.2709C114.732 97.6656 114.955 97.863 115.403 97.863C115.876 97.863 116.35 97.6261 116.824 97.1525C117.297 96.6789 117.718 96.1131 118.087 95.4553C118.481 94.7711 118.797 94.0606 119.034 93.3239C119.271 92.5608 119.389 91.9161 119.389 91.3898C119.389 90.4427 119.389 89.6138 119.389 88.9033C119.415 88.1928 119.495 87.785 119.626 87.6797L119.547 87.6008C119.415 87.6797 119.152 87.9428 118.758 88.3902C118.363 88.8111 117.916 89.298 117.416 89.8505C116.942 90.4031 116.468 90.9556 115.995 91.5083C115.547 92.0345 115.205 92.4292 114.969 92.6923C114.811 92.9028 114.692 93.0081 114.613 93.0081C114.508 93.0081 114.455 92.9555 114.455 92.8503C114.455 92.7188 114.6 92.495 114.89 92.1792C115.205 91.8634 115.64 91.3636 116.192 90.6794C116.429 90.39 116.718 90.0478 117.06 89.6531C117.429 89.2322 117.784 88.8375 118.126 88.4691C118.495 88.0744 118.823 87.7323 119.113 87.4428C119.402 87.1534 119.573 86.9955 119.626 86.9692C119.652 86.9692 119.692 86.9034 119.744 86.7719C119.797 86.6403 119.876 86.5088 119.981 86.3772C120.087 86.2192 120.218 86.0877 120.376 85.9825C120.534 85.8509 120.718 85.7852 120.929 85.7852C121.376 85.7852 121.6 85.9825 121.6 86.3772C121.6 86.7456 121.428 87.0088 121.086 87.1666C120.744 87.3244 120.389 87.4692 120.021 87.6008C119.968 87.8113 119.929 87.9691 119.902 88.0744C119.876 88.1533 119.863 88.298 119.863 88.5086C119.863 89.2453 119.902 89.8638 119.981 90.3636C120.087 90.8636 120.179 91.3109 120.258 91.7056C120.363 92.1003 120.455 92.4688 120.534 92.8108C120.639 93.1528 120.692 93.5213 120.692 93.9159C120.692 94.3895 120.586 94.8238 120.376 95.2184C120.165 95.6131 119.902 95.9816 119.587 96.3236V96.2447Z" />
<path d="M136.861 89.6537C136.44 89.6537 136.164 89.5354 136.032 89.2985C135.927 89.0354 135.861 88.6801 135.835 88.2327C135.388 88.3118 135.046 88.4827 134.809 88.7459C134.598 88.9827 134.335 89.3643 134.019 89.8905C133.677 90.4168 133.19 90.8773 132.559 91.272C131.954 91.6404 131.335 91.8904 130.704 92.022V92.1009C130.967 92.1535 131.217 92.272 131.454 92.4562C131.717 92.614 131.941 92.8113 132.125 93.0482C132.335 93.2849 132.493 93.5349 132.598 93.798C132.73 94.0612 132.796 94.298 132.796 94.5085C132.796 94.719 132.743 94.969 132.638 95.2585C132.559 95.5479 132.467 95.8374 132.362 96.1268C132.256 96.3899 132.151 96.6268 132.046 96.8373C131.967 97.0477 131.928 97.1926 131.928 97.2715C131.928 97.4293 131.98 97.574 132.085 97.7057C132.217 97.8109 132.362 97.8635 132.52 97.8635C132.835 97.8635 133.177 97.7582 133.546 97.5477C133.914 97.3109 134.282 97.0477 134.651 96.7584C135.046 96.4688 135.401 96.1663 135.717 95.8505C136.032 95.5348 136.282 95.2716 136.467 95.0612C137.019 94.4823 137.44 94.0349 137.73 93.7191C138.019 93.3771 138.23 93.114 138.361 92.9298C138.519 92.7455 138.611 92.6271 138.637 92.5745C138.69 92.522 138.743 92.4955 138.795 92.4955C138.953 92.4955 139.032 92.5613 139.032 92.6929C139.032 92.7193 138.966 92.8113 138.835 92.9691C138.73 93.1271 138.572 93.3245 138.361 93.5613C138.177 93.7718 137.966 94.0218 137.73 94.3112C137.493 94.5743 137.256 94.8243 137.019 95.0612C136.677 95.4295 136.295 95.811 135.875 96.2057C135.48 96.6004 135.072 96.9557 134.651 97.2715C134.23 97.5873 133.822 97.8504 133.427 98.0609C133.033 98.2451 132.677 98.3371 132.362 98.3371C131.993 98.3371 131.678 98.2451 131.414 98.0609C131.151 97.8504 130.928 97.6004 130.743 97.3109C130.585 96.9952 130.467 96.6662 130.388 96.3241C130.309 95.9821 130.27 95.6663 130.27 95.377C130.27 95.0874 130.309 94.8243 130.388 94.5874C130.467 94.3507 130.559 94.1402 130.664 93.956C130.77 93.7454 130.862 93.5613 130.941 93.4034C131.02 93.2191 131.059 93.0482 131.059 92.8902C131.059 92.7324 130.98 92.5877 130.822 92.4562C130.664 92.3246 130.507 92.2588 130.349 92.2588C130.138 92.2588 129.915 92.3509 129.678 92.5351C129.467 92.7193 129.178 92.8113 128.809 92.8113C128.415 92.8113 128.217 92.6535 128.217 92.3377C128.217 92.2062 128.296 92.0746 128.454 91.943C128.638 91.7851 129.02 91.7062 129.599 91.7062C129.704 91.7062 129.796 91.7193 129.875 91.7457C129.98 91.772 130.138 91.7851 130.349 91.7851C130.507 91.7851 130.717 91.7193 130.98 91.5877C131.27 91.4562 131.572 91.272 131.888 91.0352C132.23 90.7984 132.559 90.5221 132.875 90.2063C133.217 89.8905 133.533 89.5485 133.822 89.1801C134.401 88.4434 134.875 87.9565 135.243 87.7198C135.611 87.4829 136.019 87.3645 136.467 87.3645C136.914 87.3645 137.269 87.4829 137.532 87.7198C137.822 87.9302 137.966 88.2196 137.966 88.588C137.966 88.9301 137.848 89.1932 137.611 89.3774C137.401 89.5616 137.151 89.6537 136.861 89.6537ZM138.045 74.5762L124.231 98.1793L121.547 98.3371L127.862 88.1145L127.783 88.0354C127.625 88.2196 127.428 88.4434 127.191 88.7065C126.98 88.9696 126.757 89.259 126.52 89.5748C126.283 89.8643 126.033 90.1537 125.77 90.4432C125.533 90.7063 125.31 90.9562 125.099 91.193C124.652 91.6666 124.297 92.0482 124.033 92.3377C123.797 92.6271 123.612 92.8509 123.481 93.0087C123.349 93.1666 123.257 93.2718 123.205 93.3245C123.152 93.3507 123.112 93.364 123.086 93.364C122.981 93.364 122.928 93.2849 122.928 93.1271C122.928 93.0745 122.955 93.0087 123.007 92.9298C123.086 92.8245 123.244 92.6535 123.481 92.4166C123.718 92.1535 124.047 91.772 124.468 91.272C124.915 90.7721 125.52 90.0879 126.283 89.2196C126.941 88.4565 127.52 87.7591 128.02 87.1276C128.52 86.4698 128.98 85.8251 129.401 85.1937C129.849 84.5621 130.27 83.9174 130.664 83.2596C131.085 82.5754 131.533 81.8255 132.006 81.0098C132.48 80.194 133.006 79.2862 133.585 78.2863C134.164 77.2865 134.835 76.1287 135.598 74.813L138.045 74.5762Z" />
<path d="M160.821 74.5762C158.4 78.6021 156.374 81.9702 154.743 84.6805C153.138 87.3645 151.848 89.5616 150.875 91.272C149.901 92.956 149.204 94.2191 148.783 95.0612C148.388 95.9032 148.191 96.4952 148.191 96.8373C148.191 97.1268 148.243 97.3766 148.349 97.5873C148.48 97.7715 148.73 97.8635 149.099 97.8635C149.835 97.8635 150.598 97.6662 151.388 97.2715C152.204 96.8504 152.94 96.2715 153.598 95.5348C154.256 94.798 154.795 93.9296 155.217 92.9298C155.638 91.9035 155.848 90.7721 155.848 89.5354C155.848 88.7985 155.914 88.2591 156.045 87.9171C156.203 87.5487 156.532 87.3645 157.032 87.3645C157.374 87.3645 157.611 87.5223 157.743 87.8381C157.9 88.1538 157.98 88.496 157.98 88.8643C157.98 89.4696 157.861 90.0879 157.624 90.7195C157.388 91.3246 157.111 91.9166 156.795 92.4955C156.48 93.0482 156.151 93.548 155.809 93.9954C155.493 94.4427 155.243 94.7716 155.059 94.9823C155.138 95.0085 155.256 95.0216 155.414 95.0216C156.019 95.0216 156.624 94.8638 157.23 94.548C157.861 94.206 158.388 93.798 158.808 93.3245C159.177 92.9298 159.388 92.6929 159.44 92.614C159.493 92.5351 159.546 92.4955 159.597 92.4955C159.729 92.4955 159.796 92.5613 159.796 92.6929C159.796 92.7718 159.743 92.8771 159.636 93.0087C159.532 93.114 159.374 93.2849 159.163 93.5218C158.585 94.1796 157.927 94.6796 157.19 95.0216C156.453 95.3374 155.743 95.4952 155.059 95.4952C154.927 95.4952 154.822 95.4952 154.743 95.4952C154.69 95.469 154.651 95.4559 154.625 95.4559C154.388 95.6926 154.072 95.969 153.677 96.2848C153.283 96.6004 152.848 96.9162 152.375 97.232C151.901 97.5215 151.388 97.7846 150.835 98.0213C150.283 98.232 149.73 98.3371 149.178 98.3371C148.336 98.3635 147.73 98.1135 147.362 97.5873C147.02 97.0346 146.849 96.3637 146.849 95.5743C146.849 94.8638 147.046 94.127 147.441 93.364C147.836 92.6009 148.257 91.8904 148.704 91.2326C149.178 90.5484 149.612 89.9695 150.006 89.4959C150.401 89.0223 150.599 88.7196 150.599 88.588C150.599 88.5354 150.572 88.5091 150.52 88.5091C150.467 88.5091 150.283 88.6934 149.967 89.0616C149.678 89.4301 149.191 89.9826 148.507 90.7195C147.98 91.2984 147.573 91.7588 147.283 92.1009C146.994 92.4429 146.77 92.706 146.612 92.8902C146.48 93.0482 146.388 93.1534 146.336 93.206C146.283 93.2324 146.23 93.2455 146.178 93.2455C146.046 93.2455 145.98 93.1929 145.98 93.0876C145.98 93.0349 146.152 92.8113 146.494 92.4166C146.836 91.9955 147.217 91.5351 147.638 91.0352C148.086 90.5352 148.52 90.0616 148.941 89.6143C149.362 89.1405 149.638 88.8249 149.77 88.667C150.112 88.2985 150.585 87.654 151.191 86.7329C151.822 85.7857 152.533 84.6805 153.322 83.4174C154.111 82.1545 154.94 80.7993 155.809 79.352C156.677 77.8785 157.519 76.418 158.335 74.9709L160.821 74.5762Z" />
<path d="M159.519 93.048C159.388 93.048 159.322 92.9822 159.322 92.8507C159.322 92.798 159.388 92.6796 159.519 92.4953C159.677 92.3111 159.874 92.0875 160.111 91.8244C160.347 91.5613 160.597 91.285 160.861 90.9955C161.15 90.7061 161.413 90.4166 161.65 90.1272C162.493 89.2061 163.229 88.5221 163.861 88.0747C164.519 87.6011 165.124 87.3643 165.677 87.3643C166.177 87.3643 166.558 87.5616 166.821 87.9563C167.085 88.3247 167.216 88.7457 167.216 89.2194C167.216 89.6141 167.124 90.0614 166.939 90.5613C166.755 91.0613 166.532 91.5613 166.269 92.0611C166.005 92.5611 165.729 93.0347 165.439 93.4821C165.15 93.9294 164.913 94.2847 164.729 94.5479L164.808 94.6268C165.86 93.4163 166.808 92.4427 167.65 91.706C168.493 90.9693 169.005 90.3377 169.189 89.8114C169.4 89.2325 169.716 88.6799 170.136 88.1536C170.558 87.6274 171.11 87.3643 171.794 87.3643C172.425 87.3643 172.741 87.5747 172.741 87.9958C172.741 88.3905 172.505 88.7721 172.032 89.1404C171.583 89.4825 171.083 89.8641 170.532 90.285C169.979 90.7061 169.466 91.1666 168.993 91.6664C168.544 92.1664 168.321 92.7585 168.321 93.4427C168.321 93.8374 168.439 94.1663 168.675 94.4294C168.939 94.6663 169.255 94.7846 169.624 94.7846C170.282 94.7846 170.874 94.5214 171.399 93.9952C171.847 93.5478 172.163 93.1927 172.347 92.9296C172.532 92.64 172.663 92.4953 172.741 92.4953C172.899 92.4953 172.979 92.5611 172.979 92.6927C172.979 92.7453 172.86 92.9164 172.624 93.2058C172.386 93.4953 172.175 93.7452 171.991 93.9558C171.597 94.4032 171.189 94.7188 170.768 94.903C170.347 95.0872 169.952 95.1794 169.583 95.1794C169.136 95.1794 168.729 95.0479 168.36 94.7846C168.018 94.4952 167.847 94.1136 167.847 93.64C167.847 93.1927 167.913 92.798 168.044 92.456C168.175 92.0875 168.374 91.7455 168.636 91.4297L168.558 91.3508C167.532 92.298 166.532 93.3374 165.558 94.4689C164.585 95.6003 163.597 96.8108 162.597 98.1002L160.111 98.3369C161.111 96.7319 161.98 95.3635 162.716 94.2321C163.479 93.0743 164.111 92.1138 164.611 91.3508C165.136 90.5877 165.532 89.9693 165.794 89.4957C166.058 89.0221 166.189 88.6536 166.189 88.3905C166.189 88.0221 165.966 87.8379 165.519 87.8379C165.229 87.8379 164.835 87.9827 164.335 88.2721C163.861 88.5352 163.229 89.0746 162.439 89.8904C161.835 90.5219 161.347 91.0482 160.98 91.4691C160.611 91.8638 160.322 92.1796 160.111 92.4164C159.927 92.6533 159.782 92.8243 159.677 92.9296C159.597 93.0085 159.546 93.048 159.519 93.048Z" />
<path d="M175.188 98.3369C174.688 98.3369 174.266 98.2318 173.924 98.0211C173.609 97.8107 173.359 97.5475 173.174 97.2318C172.99 96.8897 172.859 96.5082 172.78 96.0872C172.727 95.6399 172.701 95.1925 172.701 94.7452C172.701 94.4294 172.715 94.1268 172.74 93.8374C172.793 93.5216 172.846 93.2058 172.899 92.89C172.846 92.89 172.807 92.9164 172.78 92.9689C172.754 92.9953 172.715 93.0085 172.662 93.0085C172.557 93.0085 172.504 92.9427 172.504 92.8111C172.504 92.7322 172.543 92.6533 172.623 92.5743C172.701 92.4954 172.873 92.298 173.135 91.9822C173.662 91.3244 174.254 90.7193 174.912 90.1666C175.57 89.6141 176.24 89.1272 176.924 88.7063C177.635 88.2852 178.346 87.9563 179.055 87.7196C179.793 87.4827 180.502 87.3643 181.187 87.3643C181.793 87.3643 182.227 87.5616 182.49 87.9563C182.752 88.3247 182.885 88.7721 182.885 89.2983C182.885 89.7719 182.845 90.1272 182.766 90.3639L182.845 90.443C183.187 89.8903 183.451 89.4299 183.634 89.0614C183.845 88.6932 184.016 88.4168 184.148 88.2325C184.279 88.0221 184.398 87.8774 184.502 87.7985C184.634 87.6932 184.805 87.6405 185.016 87.6405L186.91 87.5616C186.726 87.7721 186.449 88.1405 186.082 88.6668C185.74 89.1668 185.359 89.7457 184.937 90.4035C184.516 91.035 184.082 91.706 183.634 92.4164C183.213 93.1269 182.818 93.811 182.451 94.4689C182.082 95.1268 181.779 95.7057 181.543 96.2055C181.332 96.7055 181.227 97.0739 181.227 97.3107C181.227 97.6791 181.451 97.8633 181.898 97.8633C182.502 97.8633 183.293 97.416 184.266 96.5213C185.266 95.6004 186.345 94.4689 187.502 93.1269C187.74 92.8374 187.884 92.6664 187.937 92.6138C187.99 92.5349 188.041 92.4953 188.095 92.4953C188.173 92.4953 188.226 92.5218 188.252 92.5743C188.305 92.6269 188.332 92.6796 188.332 92.7322C188.332 92.7585 188.252 92.8638 188.095 93.048C187.963 93.2058 187.791 93.4032 187.582 93.64C187.371 93.8768 187.134 94.14 186.871 94.4294C186.634 94.7188 186.398 94.9821 186.16 95.2188C185.24 96.1661 184.41 96.9293 183.674 97.508C182.937 98.0607 182.305 98.3369 181.779 98.3369C181.252 98.3369 180.832 98.1527 180.516 97.7844C180.201 97.416 180.043 96.6924 180.043 95.6135C180.043 95.4819 180.043 95.3635 180.043 95.2583C180.07 95.1268 180.082 95.0083 180.082 94.903C179.793 95.1925 179.437 95.5346 179.016 95.9293C178.621 96.3239 178.201 96.7055 177.754 97.0739C177.305 97.416 176.859 97.7186 176.412 97.9818C175.963 98.2185 175.555 98.3369 175.188 98.3369ZM174.28 96.6002C174.28 96.9686 174.346 97.2713 174.477 97.508C174.635 97.7449 174.873 97.8633 175.188 97.8633C175.766 97.8633 176.463 97.5607 177.279 96.9555C178.096 96.3239 178.885 95.5608 179.648 94.6663C180.412 93.7716 181.055 92.8374 181.582 91.8638C182.135 90.8639 182.41 89.9957 182.41 89.2588C182.41 88.8641 182.305 88.5352 182.095 88.2721C181.91 87.9827 181.609 87.8379 181.187 87.8379C180.398 87.8379 179.582 88.1668 178.74 88.8247C177.924 89.4561 177.188 90.2324 176.53 91.1533C175.873 92.0744 175.332 93.0347 174.912 94.0347C174.49 95.0346 174.28 95.8899 174.28 96.6002Z" />
<path d="M188.438 98.3369C188.569 98.1002 188.807 97.7186 189.149 97.1924C189.516 96.666 189.938 96.0739 190.411 95.4161C190.885 94.7321 191.372 94.0216 191.872 93.2847C192.399 92.548 192.872 91.8638 193.293 91.2324C193.714 90.5746 194.055 89.9957 194.319 89.4957C194.608 88.9957 194.754 88.6405 194.754 88.4299C194.754 88.2194 194.688 88.0747 194.555 87.9958C194.45 87.8905 194.319 87.8379 194.161 87.8379C193.608 87.8379 193.016 88.0747 192.385 88.5483C191.78 88.9957 190.977 89.7719 189.977 90.8771C189.504 91.3771 189.135 91.7718 188.872 92.0611C188.635 92.3507 188.45 92.5743 188.319 92.7322C188.214 92.8638 188.135 92.9558 188.083 93.0085C188.057 93.0347 188.03 93.048 188.004 93.048C187.872 93.048 187.807 92.9689 187.807 92.8111C187.807 92.7849 187.86 92.7058 187.964 92.5743C188.069 92.4164 188.2 92.2586 188.36 92.1007C188.518 91.9164 188.675 91.7322 188.833 91.5482C189.018 91.3375 189.175 91.1533 189.307 90.9955C190.254 89.8903 191.135 89.0088 191.95 88.351C192.766 87.6932 193.557 87.3643 194.319 87.3643C194.846 87.3643 195.213 87.5354 195.424 87.8774C195.661 88.2194 195.78 88.6932 195.78 89.2983C195.78 89.693 195.688 90.1272 195.504 90.6008C195.319 91.0482 195.096 91.4955 194.832 91.9428C194.596 92.3902 194.332 92.8243 194.043 93.2453C193.754 93.64 193.504 93.9821 193.293 94.2716L193.372 94.3505C193.766 93.9821 194.305 93.4163 194.989 92.6533C195.7 91.8638 196.45 91.0875 197.239 90.3246C198.029 89.5352 198.805 88.851 199.569 88.2721C200.332 87.6669 200.963 87.3643 201.463 87.3643C201.963 87.3643 202.318 87.5747 202.529 87.9958C202.766 88.3905 202.885 88.7983 202.885 89.2194C202.885 89.9035 202.725 90.535 202.41 91.1139C202.094 91.6664 201.766 92.1664 201.424 92.6138C199.661 95.0083 198.779 96.495 198.779 97.0739C198.779 97.2844 198.832 97.4686 198.936 97.6264C199.043 97.7844 199.2 97.8633 199.411 97.8633C199.858 97.8633 200.463 97.5607 201.227 96.9555C201.989 96.3239 202.779 95.5741 203.594 94.7057C204.094 94.1794 204.475 93.7716 204.739 93.4821C205.002 93.1664 205.186 92.9427 205.291 92.8111C205.424 92.6533 205.502 92.5611 205.529 92.5349C205.582 92.4822 205.633 92.456 205.686 92.456C205.791 92.456 205.844 92.5218 205.844 92.6533C205.844 92.7058 205.739 92.8638 205.529 93.1269C205.318 93.39 205.068 93.6794 204.779 93.9952C204.516 94.311 204.239 94.6136 203.95 94.903C203.686 95.1925 203.489 95.403 203.358 95.5346C202.489 96.4029 201.713 97.0871 201.029 97.5871C200.344 98.0869 199.779 98.3369 199.332 98.3369C198.727 98.3369 198.279 98.1002 197.989 97.6264C197.727 97.1266 197.596 96.5213 197.596 95.8108C197.596 95.0214 197.819 94.2452 198.266 93.4821C198.713 92.6927 199.2 91.9691 199.727 91.3113C200.252 90.6271 200.739 90.0219 201.186 89.4957C201.635 88.9694 201.858 88.5747 201.858 88.3116C201.858 87.9958 201.674 87.8379 201.305 87.8379C200.989 87.8379 200.543 88.0485 199.963 88.4694C199.385 88.8905 198.754 89.4299 198.069 90.0877C197.385 90.7455 196.674 91.4824 195.938 92.298C195.2 93.0874 194.504 93.8636 193.846 94.6268C193.188 95.3899 192.608 96.0872 192.108 96.7186C191.608 97.3239 191.266 97.7844 191.082 98.1002L188.438 98.3369Z" />
<path d="M216.002 89.2983C216.002 89.6668 215.869 90.0482 215.606 90.443C215.344 90.8113 214.988 90.9955 214.541 90.9955C214.172 90.9955 213.909 90.9035 213.752 90.7193C213.62 90.5088 213.553 90.2719 213.553 90.0088C213.553 89.7457 213.606 89.5614 213.711 89.4561C213.844 89.351 213.988 89.2719 214.145 89.2194C214.303 89.1403 214.436 89.0614 214.541 88.9825C214.672 88.8772 214.737 88.7194 214.737 88.5089C214.737 88.351 214.659 88.2063 214.502 88.0747C214.369 87.9169 214.145 87.8379 213.83 87.8379C213.225 87.8379 212.553 88.0747 211.817 88.5483C211.106 88.9957 210.436 89.6141 209.805 90.4035C209.172 91.1666 208.633 92.0611 208.186 93.0874C207.764 94.1136 207.555 95.1925 207.555 96.3239C207.555 97.3502 208.106 97.8633 209.213 97.8633C209.897 97.8633 210.686 97.6264 211.58 97.1528C212.502 96.6528 213.395 95.9424 214.264 95.0214C214.791 94.4689 215.198 94.0216 215.488 93.6794C215.803 93.3374 216.027 93.0874 216.159 92.9296C216.317 92.7453 216.422 92.6269 216.475 92.5743C216.527 92.4954 216.567 92.456 216.594 92.456C216.752 92.456 216.83 92.5349 216.83 92.6927C216.83 92.7453 216.672 92.9558 216.356 93.3243C216.067 93.6663 215.711 94.061 215.291 94.5083C214.028 95.8766 212.895 96.8635 211.895 97.4686C210.922 98.0475 209.936 98.3369 208.936 98.3369C208.331 98.3369 207.817 98.2053 207.397 97.9422C207.002 97.6528 206.686 97.2975 206.448 96.8766C206.213 96.4555 206.041 95.995 205.936 95.495C205.858 94.9688 205.817 94.4689 205.817 93.9952C205.817 93.6794 205.831 93.4427 205.858 93.2847C205.909 93.1007 205.936 92.9822 205.936 92.9296C205.936 92.8769 205.909 92.8507 205.858 92.8507C205.805 92.8507 205.752 92.8769 205.7 92.9296C205.673 92.9822 205.633 93.0085 205.581 93.0085C205.45 93.0085 205.383 92.9427 205.383 92.8111C205.383 92.7849 205.397 92.7585 205.423 92.7322C205.45 92.6796 205.502 92.6007 205.581 92.4953C205.659 92.3638 205.791 92.1928 205.975 91.9822C206.159 91.7718 206.409 91.4824 206.725 91.1139C207.856 89.7719 208.975 88.8114 210.08 88.2325C211.212 87.6538 212.33 87.3643 213.436 87.3643C214.198 87.3643 214.817 87.5354 215.291 87.8774C215.764 88.1932 216.002 88.6668 216.002 89.2983Z" />
<path d="M214.83 98.3371C216.988 94.548 219.185 90.9695 221.421 87.6013L221.382 87.5223C220.83 88.1276 220.355 88.6934 219.961 89.2196C219.566 89.7195 219.014 90.351 218.304 91.1141C217.882 91.5877 217.554 91.9562 217.316 92.2193C217.08 92.4824 216.896 92.6798 216.764 92.8113C216.658 92.9429 216.58 93.0349 216.527 93.0876C216.5 93.114 216.474 93.1271 216.449 93.1271C216.343 93.1271 216.291 93.0482 216.291 92.8902C216.291 92.7851 216.554 92.4562 217.08 91.9035C217.607 91.351 218.264 90.6141 219.054 89.6932C219.869 88.7459 220.75 87.6407 221.697 86.3777C222.671 85.0884 223.593 83.6937 224.461 82.1938L228.724 74.8524L231.132 74.5762C230.868 75.0235 230.474 75.7076 229.947 76.6287C229.421 77.5232 228.802 78.5626 228.093 79.7468C227.382 80.9045 226.618 82.1545 225.802 83.4963C225.013 84.8121 224.236 86.1277 223.474 87.4434C222.711 88.7327 221.986 89.9695 221.304 91.1535C220.619 92.3113 220.039 93.2982 219.566 94.1138L219.646 94.1927C221.539 92.0088 223.185 90.3248 224.579 89.1405C225.974 87.9565 227.013 87.3645 227.697 87.3645C228.275 87.3645 228.683 87.5749 228.921 87.996C229.158 88.417 229.275 88.8907 229.275 89.417C229.275 89.9695 229.052 90.6141 228.605 91.351C228.158 92.0613 227.658 92.7851 227.105 93.5218C226.552 94.2585 226.052 94.969 225.605 95.6532C225.158 96.3373 224.935 96.8899 224.935 97.3109C224.935 97.4424 224.974 97.574 225.052 97.7057C225.158 97.8109 225.316 97.8635 225.527 97.8635C226.132 97.8635 226.775 97.5873 227.46 97.0346C228.144 96.4821 229.039 95.6268 230.144 94.4691C230.382 94.2323 230.605 93.9954 230.816 93.7587C231.025 93.4956 231.224 93.2587 231.407 93.0482C231.591 92.8376 231.749 92.6666 231.882 92.5351C232.013 92.3771 232.105 92.2982 232.157 92.2982C232.289 92.2982 232.355 92.364 232.355 92.4955C232.355 92.5482 232.157 92.8113 231.763 93.2849C231.368 93.7587 230.907 94.2718 230.382 94.8243C229.671 95.5874 229.052 96.2057 228.525 96.6795C228 97.1268 227.539 97.482 227.144 97.7451C226.75 97.982 226.408 98.1398 226.118 98.2187C225.829 98.2977 225.566 98.3371 225.329 98.3371C224.935 98.3371 224.566 98.1924 224.224 97.903C223.908 97.6135 223.75 97.0346 223.75 96.1663C223.75 95.2979 223.974 94.4823 224.421 93.7191C224.869 92.9298 225.369 92.2062 225.921 91.5484C226.474 90.8904 226.974 90.2984 227.421 89.7721C227.868 89.2196 228.093 88.7459 228.093 88.3512C228.093 88.2196 228.039 88.1012 227.933 87.996C227.855 87.8907 227.763 87.8381 227.658 87.8381C227.316 87.8381 226.843 88.0487 226.236 88.4696C225.632 88.8643 224.974 89.3774 224.263 90.009C223.579 90.6405 222.855 91.351 222.093 92.1404C221.355 92.9298 220.658 93.706 220 94.4691C219.343 95.2321 218.764 95.9426 218.264 96.6004C217.789 97.232 217.461 97.732 217.277 98.1004L214.83 98.3371Z" />
<path d="M191.877 17.1038C189.662 14.6478 186.808 12.8059 183.21 11.5121C179.676 10.2184 176.298 9.51669 173.071 9.51669C168.705 9.51669 164.624 10.8324 161.026 13.5733C157.58 16.3363 155.276 21.4016 155.276 27.8483C155.276 33.44 156.812 37.8913 159.796 41.0489C162.78 44.1847 166.554 45.7195 170.921 45.7195C179.435 45.7195 184.637 41.4436 185.36 32.8259H171.229V25.3047H196.487V29.5148C196.487 38.4833 193.808 45.1275 188.037 49.535C183.079 53.3723 177.13 55.2581 170.987 55.2581C164.843 55.2581 158.699 53.175 152.949 49.1184C147.354 45.0617 143.426 37.2992 143.426 27.7825C143.426 7.28003 160.169 0 171.449 0C175.047 0 178.799 0.745547 182.88 2.06122C186.808 3.33303 190.319 5.43809 193.018 8.201L191.877 17.1038Z" />
<path d="M253.43 46.0484C247.22 52.4075 238.771 55.2581 231.552 55.2581C219.877 55.2581 202.762 47.8905 202.762 27.6291C202.762 19.8886 205.527 13.2006 209.521 9.14391C215.709 2.60941 224.399 0 231.53 0C243.204 0 260.101 7.52125 260.101 27.6291C260.101 35.3039 257.424 41.9698 253.43 46.0484ZM219.395 14.4285C216.17 17.7177 214.566 22.1033 214.566 27.6291C214.566 33.0672 216.17 37.5184 219.395 40.8297C222.621 44.1188 226.68 45.7414 231.53 45.7414C236.359 45.7414 240.351 44.1408 243.512 40.8297C246.649 37.5184 248.273 33.0891 248.273 27.6291C248.273 22.1033 246.671 17.7397 243.512 14.4285C240.351 11.1393 236.379 9.51669 231.53 9.51669C226.702 9.51669 222.621 11.1174 219.395 14.4285Z" />
<path d="M18.6333 37.1241H5.26953L6.43255 39.1415H46.8091L51.2855 31.4668H21.9686L18.6333 37.1241Z" />
<path d="M24.952 52.4733H0.748047L1.91106 54.4906H38.9302L43.4286 46.8159H28.2655L24.952 52.4733Z" />
<path d="M51.306 23.7915L46.8296 16.1167H6.40911L5.24609 18.1122H18.6319L21.9674 23.7915H51.306Z" />
<path d="M28.2878 8.44233H43.4511L38.9525 0.767578H1.88958L0.726562 2.76301H24.9523L28.2878 8.44233Z" />
<path d="M82.0492 0.767578H70.375V54.4907H82.0492V0.767578Z" />
<path d="M88.3262 54.4907V0.767578H98.6188L125.499 37.1458V0.767578H137.173V54.4907H126.97L100 18.6827V54.4907H88.3262Z" />
</svg>
