<svg width="261" height="99" viewBox="0 0 261 99" xmlns="http://www.w3.org/2000/svg"><path d="M35.843 79.55c-.052 0-.092-.027-.118-.08a.301.301 0 01-.04-.118c0-.158.106-.5.316-1.026.21-.553.527-1.171.948-1.855.447-.711.986-1.448 1.618-2.21a12.8 12.8 0 012.328-2.093 12.395 12.395 0 013.04-1.618c1.158-.421 2.434-.632 3.828-.632 1 0 1.974.172 2.921.514.974.342 1.71.723 2.21 1.144a15.89 15.89 0 012.487-.394 25.01 25.01 0 012.763-.158c1.395 0 2.723.131 3.986.394 1.264.237 2.33.566 3.198.987a20.78 20.78 0 001.46-.908c.421-.315.737-.473.947-.473.106 0 .158.065.158.197s-.21.316-.631.553c-.421.21-.895.5-1.421.868a8.41 8.41 0 013 2.763c.789 1.131 1.184 2.42 1.184 3.868 0 1-.25 1.934-.75 2.802a8.455 8.455 0 01-1.934 2.29 9.104 9.104 0 01-2.605 1.5c-.948.368-1.882.552-2.803.552-.368 0-.75-.066-1.145-.197a9.268 9.268 0 01-1.026-.434 6.212 6.212 0 01-.75-.474c-.184-.158-.276-.276-.276-.355 0-.132.08-.198.237-.198.026 0 .105.053.237.158.158.105.342.224.552.355.21.132.448.25.71.355.29.106.606.159.948.159a4.84 4.84 0 002.645-.75c.815-.5 1.5-1.132 2.052-1.895a8.144 8.144 0 001.302-2.566c.316-.947.474-1.855.474-2.723 0-1-.224-1.908-.67-2.724-.422-.815-1.08-1.486-1.974-2.013-.842.58-1.632 1.343-2.369 2.29-.736.92-1.46 1.986-2.17 3.197a94.751 94.751 0 00-2.21 3.907 302.68 302.68 0 01-2.448 4.382 31.046 31.046 0 01-3.04 4.46 24.727 24.727 0 01-3.71 3.71 19.235 19.235 0 01-4.183 2.565 11.045 11.045 0 01-4.46.948 7.987 7.987 0 01-1.776-.198 4.651 4.651 0 01-1.5-.552 3.348 3.348 0 01-1.027-.987c-.236-.42-.355-.92-.355-1.5 0-.447.119-.829.355-1.145.264-.341.632-.513 1.106-.513.447 0 .828.145 1.144.435.316.263.474.618.474 1.065 0 .369-.066.645-.197.83a.837.837 0 00-.198.552c0 .42.184.79.553 1.105.395.29 1.052.434 1.973.434a7.835 7.835 0 003.237-.67 11.743 11.743 0 002.842-1.856 16.481 16.481 0 002.447-2.605c.763-1 1.46-2.013 2.092-3.04a53.66 53.66 0 001.736-3.117 591.525 591.525 0 011.54-2.842 36.428 36.428 0 011.855-3.04 42.439 42.439 0 012.29-3.078c.841-1 1.723-1.934 2.644-2.802a20.82 20.82 0 012.842-2.21 12.394 12.394 0 00-3.395-1.066 19.946 19.946 0 00-3.197-.277c-.921 0-1.776.027-2.566.08-.763.052-1.526.17-2.289.354a5.39 5.39 0 011.224 2.29 9 9 0 01.355 2.526c0 1.42-.329 2.855-.987 4.302a15.354 15.354 0 01-2.605 3.908 13.934 13.934 0 01-3.71 2.842c-1.395.71-2.829 1.065-4.302 1.065a4.98 4.98 0 01-1.658-.276 4.209 4.209 0 01-1.381-.79 4.129 4.129 0 01-.948-1.342c-.236-.552-.355-1.197-.355-1.934 0-1 .21-1.986.632-2.96A12.42 12.42 0 0141.21 78.8a19.764 19.764 0 012.408-2.526 21.66 21.66 0 012.881-2.092c1-.631 2-1.157 3-1.579 1-.42 1.934-.723 2.802-.907-.631-.448-1.368-.777-2.21-.987a9.935 9.935 0 00-2.407-.316c-1.5 0-2.948.316-4.342.947a12.228 12.228 0 00-3.79 2.605c-.71.71-1.289 1.408-1.736 2.092-.447.684-.803 1.29-1.066 1.816-.263.5-.46.908-.592 1.224-.131.315-.237.473-.316.473zm3.553 4.815c0 1.236.302 2.197.907 2.88.632.659 1.461.987 2.487.987 1.29 0 2.579-.394 3.868-1.183a15.18 15.18 0 003.474-3.04 16.825 16.825 0 002.565-4.065c.658-1.474.987-2.895.987-4.263 0-.71-.053-1.381-.158-2.013a3.031 3.031 0 00-.79-1.618c-1.604.316-3.21.908-4.815 1.776-1.579.868-3 1.881-4.263 3.04-1.263 1.157-2.289 2.394-3.078 3.71-.79 1.315-1.184 2.578-1.184 3.789zm35.654 5.723c0 .394-.065.829-.197 1.302a7.227 7.227 0 01-.552 1.342c-.21.421-.46.842-.75 1.263a6.63 6.63 0 01-.83 1.026c.106.053.25.08.435.08.684 0 1.342-.172 1.973-.514a6.688 6.688 0 001.698-1.42c.263-.29.42-.474.473-.553.08-.08.145-.119.198-.119.131 0 .197.066.197.198 0 .052-.053.144-.158.276a20.81 20.81 0 01-.829.908 5.75 5.75 0 01-1.776 1.263 5.234 5.234 0 01-2.131.434c-.263 0-.434-.013-.513-.04a13.037 13.037 0 01-2.171 1.935c-.816.579-1.776.868-2.882.868-.789 0-1.394-.316-1.815-.947-.421-.632-.632-1.487-.632-2.566 0-.71.027-1.197.08-1.46.078-.263.118-.46.118-.592 0-.158-.04-.237-.119-.237-.158 0-.302.105-.434.316-.132.21-.224.315-.276.315-.158 0-.237-.065-.237-.197 0-.053.066-.171.197-.355.158-.184.356-.395.592-.632l.75-.75.75-.75c1.158-1.105 2.303-1.894 3.434-2.368 1.132-.5 2.145-.75 3.04-.75.762 0 1.341.263 1.736.79.421.5.632 1.144.632 1.934zm-.868-.474c0-.474-.105-.882-.316-1.224-.21-.368-.565-.552-1.065-.552-.684 0-1.408.29-2.171.868-.763.58-1.46 1.303-2.092 2.171a13.962 13.962 0 00-1.579 2.802c-.395 1-.592 1.908-.592 2.724 0 .552.092.934.276 1.144.21.211.46.316.75.316.79 0 1.58-.263 2.368-.79a9.057 9.057 0 002.171-1.973 11.57 11.57 0 001.619-2.684c.42-.973.631-1.907.631-2.802z"/><path d="M87.167 89.101c0-.447-.079-.802-.237-1.066-.157-.289-.46-.434-.907-.434-.658 0-1.395.303-2.21.908-.79.579-1.54 1.329-2.25 2.25a13.39 13.39 0 00-1.777 2.96c-.473 1.079-.71 2.105-.71 3.079 0 .71.355 1.066 1.066 1.066.5 0 1.144-.29 1.934-.869.789-.579 1.552-1.302 2.289-2.17a16.45 16.45 0 001.973-2.882c.553-1.026.83-1.974.83-2.842zm9.078-14.446l2.329-.079a475.833 475.833 0 01-4.578 7.973 641.212 641.212 0 00-4.026 6.868 173.01 173.01 0 00-2.882 5.091c-.71 1.343-1.065 2.21-1.065 2.606 0 .5.223.75.67.75.29 0 .698-.172 1.224-.514s1.21-.934 2.053-1.776c1.052-1.026 1.776-1.802 2.17-2.328.421-.527.658-.79.71-.79.159 0 .238.053.238.158 0 .105-.276.474-.83 1.105-1.394 1.605-2.551 2.776-3.472 3.513-.921.737-1.75 1.105-2.487 1.105-.448 0-.803-.197-1.066-.592-.263-.395-.395-.895-.395-1.5 0-.316.027-.605.08-.868.078-.29.144-.54.197-.75l-.08-.079c-.21.342-.512.737-.907 1.184-.395.421-.829.829-1.302 1.224a7.297 7.297 0 01-1.54.986c-.526.264-1.04.395-1.54.395-.394 0-.736-.105-1.025-.316a2.86 2.86 0 01-.71-.868 3.923 3.923 0 01-.396-1.145 7.29 7.29 0 01-.118-1.263c0-.29.013-.605.04-.947a9.27 9.27 0 01.118-.947c-.053 0-.105.04-.158.118-.026.053-.052.08-.079.08-.132 0-.197-.08-.197-.238v-.04a1.78 1.78 0 01.158-.236 9.22 9.22 0 01.355-.434c.158-.21.381-.474.67-.79a16.798 16.798 0 013.514-2.96c1.263-.815 2.552-1.223 3.868-1.223.5 0 .934.144 1.302.434.369.29.553.737.553 1.342v.552c0 .158-.026.303-.079.434l.079.08 8.604-15.315z"/><path d="M103.535 90.088c0 .394-.066.829-.198 1.302a7.175 7.175 0 01-.552 1.342c-.211.421-.461.842-.75 1.263a6.657 6.657 0 01-.829 1.026c.105.053.25.08.434.08.684 0 1.342-.172 1.974-.514a6.696 6.696 0 001.697-1.42 7.25 7.25 0 00.474-.553c.079-.08.144-.119.197-.119.132 0 .197.066.197.198 0 .052-.052.144-.158.276-.105.132-.381.434-.828.908-.5.526-1.092.947-1.777 1.263a5.23 5.23 0 01-2.131.434c-.263 0-.434-.013-.513-.04a13.03 13.03 0 01-2.171 1.935c-.816.579-1.776.868-2.881.868-.79 0-1.395-.316-1.816-.947-.421-.632-.631-1.487-.631-2.566 0-.71.026-1.197.079-1.46.078-.263.118-.46.118-.592 0-.158-.04-.237-.118-.237-.158 0-.303.105-.435.316-.131.21-.223.315-.276.315-.158 0-.237-.065-.237-.197 0-.053.066-.171.198-.355.157-.184.355-.395.592-.632l.75-.75.75-.75c1.157-1.105 2.302-1.894 3.433-2.368 1.132-.5 2.145-.75 3.04-.75.763 0 1.342.263 1.736.79.421.5.632 1.144.632 1.934zm-.869-.474c0-.474-.105-.882-.315-1.224-.211-.368-.566-.552-1.066-.552-.684 0-1.408.29-2.17.868-.764.58-1.461 1.303-2.093 2.171a13.953 13.953 0 00-1.579 2.802c-.394 1-.592 1.908-.592 2.724 0 .552.093.934.277 1.144.21.211.46.316.75.316.789 0 1.579-.263 2.368-.79a9.07 9.07 0 002.171-1.973 11.593 11.593 0 001.618-2.684c.421-.973.631-1.907.631-2.802z"/><path d="M120.902 74.576a3927.137 3927.137 0 01-6.474 10.144c-1.71 2.71-3.105 4.934-4.183 6.67-1.053 1.71-1.803 3.026-2.25 3.947-.448.895-.671 1.566-.671 2.013 0 .132.052.25.158.356a.732.732 0 00.473.157c.606 0 1.263-.25 1.974-.75.737-.5 1.605-1.25 2.605-2.25.895-.894 1.46-1.512 1.697-1.854.263-.369.447-.553.553-.553.131 0 .197.066.197.197 0 .027-.053.106-.158.237-.105.132-.237.29-.395.474a9.296 9.296 0 01-.513.552c-.158.185-.302.356-.434.514-1.158 1.236-2.197 2.197-3.118 2.88-.921.685-1.763 1.027-2.526 1.027-.684 0-1.145-.197-1.382-.592-.21-.395-.315-.855-.315-1.381 0-.58.079-1.106.237-1.58.158-.5.407-1.025.75-1.578.342-.579.763-1.237 1.263-1.973a94.83 94.83 0 001.776-2.842l-.079-.08a67.32 67.32 0 00-1.066 1.264 41.59 41.59 0 01-1.539 1.736c-.369.421-.671.764-.908 1.027a22.82 22.82 0 00-.513.592l-.276.276a.353.353 0 01-.158.04c-.106 0-.158-.066-.158-.198 0-.079.237-.381.71-.908a54.92 54.92 0 001.895-2.131c.789-.921 1.658-2 2.605-3.237a50.382 50.382 0 002.881-4.184l4.737-7.736 2.605-.276z"/><path d="M119.587 96.245l.078.079a8.98 8.98 0 001.658-1.421c.448-.5.842-.948 1.184-1.342.421-.448.671-.737.75-.869.079-.157.158-.236.237-.236.132 0 .197.078.197.236 0 .053-.171.29-.513.71-.342.395-.71.817-1.105 1.264-1.079 1.21-2.105 2.131-3.078 2.763-.974.605-2.013.908-3.119.908-.447 0-.789-.014-1.026-.04-.237-.052-.487-.184-.75-.394-.158-.132-.302-.33-.434-.593-.131-.29-.197-.54-.197-.75 0-.736.329-1.105.986-1.105.211 0 .395.066.553.198.184.105.276.25.276.434 0 .21-.026.355-.079.434a.696.696 0 01-.197.197.695.695 0 00-.197.198c-.053.052-.079.17-.079.355 0 .395.223.592.671.592.473 0 .947-.237 1.421-.71a7.743 7.743 0 001.263-1.698c.394-.684.71-1.394.947-2.131.237-.763.355-1.408.355-1.934v-2.487c.026-.71.106-1.118.237-1.223l-.079-.08c-.132.08-.395.343-.789.79-.395.421-.842.908-1.342 1.46l-1.421 1.658c-.448.526-.79.921-1.026 1.184-.158.21-.277.316-.356.316-.105 0-.158-.052-.158-.158 0-.131.145-.355.435-.67.315-.317.75-.816 1.302-1.5a49.14 49.14 0 011.934-2.21c.369-.396.697-.738.987-1.027.289-.29.46-.447.513-.474.026 0 .066-.066.118-.197a1.59 1.59 0 01.237-.395c.106-.158.237-.29.395-.394a.837.837 0 01.553-.198c.447 0 .671.198.671.592 0 .369-.172.632-.514.79a13.38 13.38 0 01-1.065.434l-.119.473c-.026.08-.039.224-.039.435 0 .736.039 1.355.118 1.855.106.5.198.947.277 1.342.105.394.197.763.276 1.105.105.342.158.71.158 1.105 0 .474-.106.908-.316 1.302a5.354 5.354 0 01-.789 1.106v-.08z"/><path d="M136.861 89.654c-.421 0-.697-.119-.829-.355-.105-.264-.171-.619-.197-1.066-.447.079-.789.25-1.026.513-.211.237-.474.618-.79 1.145-.342.526-.829.986-1.46 1.381a5.86 5.86 0 01-1.855.75v.079c.263.052.513.171.75.355.263.158.487.355.671.592.21.237.368.487.473.75.132.263.198.5.198.71 0 .211-.053.461-.158.75-.079.29-.171.58-.276.869-.106.263-.211.5-.316.71-.079.21-.118.356-.118.434a.68.68 0 00.157.435.682.682 0 00.435.157c.315 0 .657-.105 1.026-.315.368-.237.736-.5 1.105-.79.395-.29.75-.592 1.066-.907.315-.316.565-.58.75-.79.552-.579.973-1.026 1.263-1.342.289-.342.5-.605.631-.79.158-.183.25-.302.276-.355.053-.052.106-.078.158-.078.158 0 .237.065.237.197 0 .026-.066.118-.197.276a5.638 5.638 0 01-.474.592c-.184.21-.395.46-.631.75a19.75 19.75 0 01-.711.75c-.342.368-.724.75-1.144 1.145-.395.394-.803.75-1.224 1.066a9.502 9.502 0 01-1.224.789c-.394.184-.75.276-1.065.276-.369 0-.684-.092-.948-.276a3.067 3.067 0 01-.671-.75 4.418 4.418 0 01-.355-.987 4.228 4.228 0 01-.118-.947c0-.29.039-.553.118-.79.079-.236.171-.447.276-.631l.277-.553c.079-.184.118-.355.118-.513 0-.158-.079-.302-.237-.434-.158-.131-.315-.197-.473-.197-.211 0-.434.092-.671.276-.211.184-.5.276-.869.276-.394 0-.592-.158-.592-.473 0-.132.079-.263.237-.395.184-.158.566-.237 1.145-.237.105 0 .197.013.276.04.105.026.263.04.474.04.158 0 .368-.067.631-.198.29-.132.592-.316.908-.553.342-.237.671-.513.987-.829a8.69 8.69 0 00.947-1.026c.579-.737 1.053-1.224 1.421-1.46a2.214 2.214 0 011.224-.355c.447 0 .802.118 1.065.355.29.21.434.5.434.868 0 .342-.118.605-.355.79a1.1 1.1 0 01-.75.276zm1.184-15.078L124.231 98.18l-2.684.158 6.315-10.222-.079-.08c-.158.185-.355.408-.592.672-.211.263-.434.552-.671.868-.237.29-.487.579-.75.868-.237.263-.46.513-.671.75-.447.474-.802.855-1.066 1.145-.236.29-.421.513-.552.67a6.16 6.16 0 01-.276.317.31.31 0 01-.119.039c-.105 0-.158-.08-.158-.237a.39.39 0 01.079-.197 5.79 5.79 0 01.474-.513c.237-.264.566-.645.987-1.145.447-.5 1.052-1.184 1.815-2.052a65.537 65.537 0 001.737-2.092c.5-.658.96-1.303 1.381-1.934.448-.632.869-1.277 1.263-1.934.421-.685.869-1.434 1.342-2.25l1.579-2.724 2.013-3.473 2.447-.237zm22.776 0l-6.078 10.105a367.244 367.244 0 00-3.868 6.591c-.974 1.684-1.671 2.947-2.092 3.79-.395.841-.592 1.433-.592 1.775 0 .29.052.54.158.75.131.184.381.276.75.276.736 0 1.499-.197 2.289-.591a7.69 7.69 0 002.21-1.737c.658-.737 1.197-1.605 1.619-2.605.421-1.027.631-2.158.631-3.395 0-.736.066-1.276.197-1.618.158-.368.487-.552.987-.552.342 0 .579.157.711.473.157.316.237.658.237 1.026a5.26 5.26 0 01-.356 1.855 15.337 15.337 0 01-.829 1.777 13.36 13.36 0 01-.986 1.5 12.97 12.97 0 01-.75.986 1.2 1.2 0 00.355.04c.605 0 1.21-.158 1.816-.474a5.737 5.737 0 001.578-1.224c.369-.394.58-.631.632-.71.053-.079.106-.118.157-.118.132 0 .199.065.199.197 0 .079-.053.184-.16.316-.104.105-.262.276-.473.513a5.953 5.953 0 01-1.973 1.5c-.737.315-1.447.473-2.131.473h-.316a.306.306 0 00-.118-.04c-.237.238-.553.514-.948.83a18.65 18.65 0 01-1.302.947c-.474.29-.987.553-1.54.79a4.62 4.62 0 01-1.657.315c-.842.026-1.448-.224-1.816-.75-.342-.552-.513-1.223-.513-2.013 0-.71.197-1.447.592-2.21a20.8 20.8 0 011.263-2.131 24.75 24.75 0 011.302-1.737c.395-.474.593-.776.593-.908 0-.053-.027-.079-.079-.079-.053 0-.237.184-.553.553-.289.368-.776.92-1.46 1.657-.527.58-.934 1.04-1.224 1.382-.289.342-.513.605-.671.79a6.07 6.07 0 01-.276.315.353.353 0 01-.158.04c-.132 0-.198-.053-.198-.158 0-.053.172-.277.514-.671a101.1 101.1 0 011.144-1.382c.448-.5.882-.973 1.303-1.42.421-.474.697-.79.829-.948.342-.368.815-1.013 1.421-1.934.631-.947 1.342-2.053 2.131-3.316a270.272 270.272 0 002.487-4.065c.868-1.474 1.71-2.934 2.526-4.381l2.486-.395z"/><path d="M159.519 93.048c-.131 0-.197-.066-.197-.197 0-.053.066-.171.197-.356.158-.184.355-.407.592-.67.236-.264.486-.54.75-.83.289-.289.552-.578.789-.868.843-.92 1.579-1.605 2.211-2.052.658-.474 1.263-.71 1.816-.71.5 0 .881.197 1.144.591.264.369.395.79.395 1.263 0 .395-.092.842-.277 1.342-.184.5-.407 1-.67 1.5-.264.5-.54.974-.83 1.421-.289.447-.526.803-.71 1.066l.079.079c1.052-1.21 2-2.184 2.842-2.921.843-.737 1.355-1.368 1.539-1.895a5.89 5.89 0 01.947-1.657c.422-.527.974-.79 1.658-.79.631 0 .947.21.947.632 0 .395-.236.776-.709 1.144l-1.5 1.145c-.553.421-1.066.882-1.539 1.381a2.57 2.57 0 00-.672 1.777c0 .394.118.723.354.986.264.237.58.356.949.356.658 0 1.25-.264 1.775-.79.448-.447.764-.802.948-1.065.185-.29.316-.435.394-.435.158 0 .238.066.238.198 0 .052-.119.223-.355.513-.238.29-.449.54-.633.75-.394.447-.802.763-1.223.947-.421.184-.816.276-1.185.276-.447 0-.854-.131-1.223-.394-.342-.29-.513-.671-.513-1.145 0-.447.066-.842.197-1.184.131-.368.33-.71.592-1.026l-.078-.08a37.786 37.786 0 00-3 3.119 92.691 92.691 0 00-2.961 3.631l-2.486.237c1-1.605 1.869-2.974 2.605-4.105a1473.39 1473.39 0 001.895-2.881c.525-.763.921-1.382 1.183-1.855.264-.474.395-.842.395-1.105 0-.369-.223-.553-.67-.553-.29 0-.684.145-1.184.434-.474.263-1.106.803-1.896 1.618a48.91 48.91 0 00-1.459 1.58c-.369.394-.658.71-.869.946a5.937 5.937 0 01-.434.514c-.08.078-.131.118-.158.118z"/><path d="M175.188 98.337c-.5 0-.922-.105-1.264-.316a2.4 2.4 0 01-.75-.79 3.93 3.93 0 01-.394-1.144 11.396 11.396 0 01-.079-1.342c0-.316.014-.618.039-.908l.159-.947c-.053 0-.092.026-.119.079-.026.026-.065.04-.118.04-.105 0-.158-.066-.158-.198 0-.079.039-.158.119-.237.078-.079.25-.276.512-.592a12.903 12.903 0 011.777-1.815 16.936 16.936 0 012.012-1.46c.711-.422 1.422-.75 2.131-.987a6.957 6.957 0 012.132-.356c.606 0 1.04.198 1.303.592.262.369.395.816.395 1.342 0 .474-.04.83-.119 1.066l.079.079c.342-.553.606-1.013.789-1.382.211-.368.382-.644.514-.829.131-.21.25-.355.354-.433a.799.799 0 01.514-.159l1.894-.078c-.184.21-.461.579-.828 1.105a71.59 71.59 0 00-1.145 1.736 94.777 94.777 0 00-1.303 2.013c-.421.71-.816 1.395-1.183 2.053a28.535 28.535 0 00-.908 1.737c-.211.5-.316.868-.316 1.105 0 .368.224.552.671.552.604 0 1.395-.447 2.368-1.342 1-.92 2.079-2.052 3.236-3.394.238-.29.382-.46.435-.513.053-.08.104-.119.158-.119.078 0 .131.027.157.08.053.052.08.105.08.157 0 .026-.08.132-.237.316-.132.158-.304.355-.513.592-.211.237-.448.5-.711.79-.237.289-.473.552-.711.789-.92.947-1.75 1.71-2.486 2.289-.737.553-1.369.829-1.895.829-.527 0-.947-.184-1.263-.553-.315-.368-.473-1.092-.473-2.17v-.356a1.77 1.77 0 00.039-.355c-.289.29-.645.632-1.066 1.026-.395.395-.815.776-1.262 1.145a13.63 13.63 0 01-1.342.908c-.449.237-.857.355-1.224.355zm-.908-1.737c0 .369.066.671.197.908.158.237.396.355.711.355.578 0 1.275-.302 2.091-.907a15.991 15.991 0 002.369-2.29 16.153 16.153 0 001.934-2.802c.553-1 .828-1.868.828-2.605 0-.395-.105-.724-.315-.987-.185-.29-.486-.434-.908-.434-.789 0-1.605.329-2.447.987a10.998 10.998 0 00-2.21 2.328 14.885 14.885 0 00-1.618 2.882c-.422 1-.632 1.855-.632 2.565z"/><path d="M188.438 98.337c.131-.237.369-.618.711-1.145.367-.526.789-1.118 1.262-1.776.474-.684.961-1.394 1.461-2.131.527-.737 1-1.421 1.421-2.053.421-.657.762-1.236 1.026-1.736.289-.5.435-.855.435-1.066 0-.21-.066-.355-.199-.434a.533.533 0 00-.394-.158c-.553 0-1.145.237-1.776.71-.605.448-1.408 1.224-2.408 2.33-.473.5-.842.894-1.105 1.183-.237.29-.422.513-.553.671a3.871 3.871 0 01-.236.276c-.026.027-.053.04-.079.04-.132 0-.197-.08-.197-.237 0-.026.053-.105.157-.237a3.01 3.01 0 01.396-.473l.473-.553c.185-.21.342-.395.474-.552.947-1.106 1.828-1.987 2.643-2.645.816-.658 1.607-.987 2.369-.987.527 0 .894.171 1.105.513.237.342.356.816.356 1.421 0 .395-.092.83-.276 1.303a10.64 10.64 0 01-.672 1.342c-.236.447-.5.881-.789 1.302l-.75 1.027.079.078c.394-.368.933-.934 1.617-1.697a46.877 46.877 0 012.25-2.328c.79-.79 1.566-1.474 2.33-2.053.763-.605 1.394-.908 1.894-.908s.855.21 1.066.632c.237.395.356.802.356 1.223 0 .684-.16 1.316-.475 1.895a13.518 13.518 0 01-.986 1.5c-1.763 2.394-2.645 3.881-2.645 4.46 0 .21.053.395.157.552a.535.535 0 00.475.237c.447 0 1.052-.302 1.816-.907a26.276 26.276 0 002.367-2.25c.5-.527.881-.934 1.145-1.224.263-.316.447-.54.552-.67.133-.159.211-.25.238-.277.053-.053.104-.079.157-.079.105 0 .158.066.158.197 0 .053-.105.21-.315.474-.211.263-.461.552-.75.868-.263.316-.54.619-.829.908-.264.29-.461.5-.592.632-.869.868-1.645 1.552-2.329 2.052-.685.5-1.25.75-1.697.75-.605 0-1.053-.237-1.343-.71-.262-.5-.393-1.106-.393-1.816 0-.79.223-1.566.67-2.329a16.34 16.34 0 011.461-2.17 47.238 47.238 0 011.459-1.816c.449-.527.672-.921.672-1.184 0-.316-.184-.474-.553-.474-.316 0-.762.21-1.342.631-.578.422-1.209.96-1.894 1.619a43.542 43.542 0 00-2.131 2.21 77.752 77.752 0 00-2.092 2.329 65.79 65.79 0 00-1.738 2.092c-.5.605-.842 1.065-1.026 1.381l-2.644.237z"/><path d="M216.002 89.298c0 .369-.133.75-.396 1.145a1.242 1.242 0 01-1.065.553c-.369 0-.632-.093-.789-.277a1.31 1.31 0 01-.199-.71c0-.263.053-.448.158-.553.133-.105.277-.184.434-.237.158-.079.291-.158.396-.236.131-.106.196-.264.196-.474 0-.158-.078-.303-.235-.434-.133-.158-.357-.237-.672-.237-.605 0-1.277.237-2.013.71-.711.448-1.381 1.066-2.012 1.855-.633.764-1.172 1.658-1.619 2.684a8.426 8.426 0 00-.631 3.237c0 1.026.551 1.54 1.658 1.54.684 0 1.473-.238 2.367-.711.922-.5 1.815-1.21 2.684-2.132.527-.552.934-1 1.224-1.342.315-.342.539-.592.671-.75a7.73 7.73 0 01.316-.355c.052-.079.092-.118.119-.118.158 0 .236.079.236.237 0 .052-.158.263-.474.631-.289.342-.645.737-1.065 1.184-1.263 1.369-2.396 2.356-3.396 2.96-.973.58-1.959.869-2.959.869-.605 0-1.119-.132-1.539-.395a3.354 3.354 0 01-.949-1.065 4.873 4.873 0 01-.512-1.382 10.256 10.256 0 01-.119-1.5c0-.316.014-.552.041-.71.051-.184.078-.303.078-.355 0-.053-.027-.08-.078-.08-.053 0-.106.027-.158.08-.027.052-.067.078-.119.078-.131 0-.198-.065-.198-.197 0-.026.014-.053.04-.079.027-.052.079-.131.158-.237.078-.131.21-.302.394-.513.184-.21.434-.5.75-.868 1.131-1.342 2.25-2.303 3.355-2.882 1.132-.578 2.25-.868 3.356-.868.762 0 1.381.171 1.855.513.473.316.711.79.711 1.421z"/><path d="M214.83 98.337a184.509 184.509 0 016.591-10.736l-.039-.079a23.154 23.154 0 00-1.421 1.698c-.395.5-.947 1.131-1.657 1.894-.422.474-.75.842-.988 1.105-.236.263-.42.46-.552.592a3.817 3.817 0 01-.237.277c-.027.026-.053.04-.078.04-.106 0-.158-.08-.158-.238 0-.105.263-.434.789-.987a58.693 58.693 0 001.974-2.21 63.844 63.844 0 002.643-3.315 41.006 41.006 0 002.764-4.184l4.263-7.342 2.408-.276a198.98 198.98 0 00-1.185 2.053c-.526.894-1.145 1.934-1.854 3.118a872.555 872.555 0 00-2.291 3.75 301.644 301.644 0 00-2.328 3.946 367.324 367.324 0 00-2.17 3.71 407.425 407.425 0 00-1.738 2.96l.08.08c1.893-2.184 3.539-3.868 4.933-5.052 1.395-1.184 2.434-1.776 3.118-1.776.578 0 .986.21 1.224.631.237.421.354.895.354 1.421 0 .552-.223 1.197-.67 1.934a32.14 32.14 0 01-1.5 2.17 40.072 40.072 0 00-1.5 2.132c-.447.684-.67 1.237-.67 1.658a.77.77 0 00.117.395c.106.105.264.157.475.157.605 0 1.248-.276 1.933-.828.684-.553 1.579-1.408 2.684-2.566.238-.237.461-.474.672-.71.209-.263.408-.5.591-.71.184-.211.342-.382.475-.514.131-.158.223-.237.275-.237.132 0 .198.066.198.198 0 .052-.198.315-.592.789-.395.474-.856.987-1.381 1.54a30.512 30.512 0 01-1.857 1.855c-.525.447-.986.802-1.381 1.065-.394.237-.736.395-1.026.474a3.016 3.016 0 01-.789.118c-.394 0-.763-.145-1.105-.434-.316-.29-.474-.868-.474-1.737 0-.868.224-1.684.671-2.447a14.42 14.42 0 011.5-2.17 433.63 433.63 0 011.5-1.777c.447-.552.672-1.026.672-1.42a.49.49 0 00-.16-.356c-.078-.105-.17-.158-.275-.158-.342 0-.815.21-1.422.632a17.2 17.2 0 00-1.973 1.539 53.1 53.1 0 00-2.17 2.131A77.94 77.94 0 00220 94.47a45.453 45.453 0 00-1.736 2.13c-.475.632-.803 1.132-.987 1.5l-2.447.237zm-22.953-81.233c-2.215-2.456-5.069-4.298-8.667-5.592-3.534-1.294-6.912-1.995-10.139-1.995-4.366 0-8.447 1.315-12.045 4.056-3.446 2.763-5.75 7.829-5.75 14.275 0 5.592 1.536 10.043 4.52 13.2 2.984 3.137 6.758 4.671 11.125 4.671 8.514 0 13.716-4.275 14.439-12.893h-14.131v-7.521h25.258v4.21c0 8.968-2.679 15.612-8.45 20.02-4.958 3.837-10.907 5.723-17.05 5.723-6.144 0-12.288-2.083-18.038-6.14-5.595-4.056-9.523-11.819-9.523-21.336C143.426 7.28 160.169 0 171.449 0c3.598 0 7.35.746 11.431 2.061 3.928 1.272 7.439 3.377 10.138 6.14l-1.141 8.903zm61.553 28.944c-6.21 6.36-14.659 9.21-21.878 9.21-11.675 0-28.79-7.367-28.79-27.629 0-7.74 2.765-14.428 6.759-18.485C215.709 2.609 224.399 0 231.53 0c11.674 0 28.571 7.521 28.571 27.63 0 7.674-2.677 14.34-6.671 18.418zm-34.035-31.62c-3.225 3.29-4.829 7.675-4.829 13.201 0 5.438 1.604 9.89 4.829 13.2 3.226 3.29 7.285 4.912 12.135 4.912 4.829 0 8.821-1.6 11.982-4.911 3.137-3.312 4.761-7.74 4.761-13.2 0-5.527-1.602-9.89-4.761-13.201-3.161-3.29-7.133-4.912-11.982-4.912-4.828 0-8.909 1.6-12.135 4.912zM18.633 37.124H5.27l1.163 2.017h40.376l4.477-7.674H21.968l-3.336 5.657zm6.319 15.349H.748l1.163 2.018h37.02l4.498-7.675H28.265l-3.313 5.657zm26.354-28.682l-4.476-7.674H6.41l-1.164 1.995h13.386l3.335 5.68h29.339zM28.288 8.442H43.45L38.953.768H1.89L.727 2.763h24.225l3.336 5.68zM82.05.768H70.374V54.49h11.674V.768zm6.276 53.722V.769H98.62l26.88 36.378V.768h11.674V54.49H126.97L100 18.683V54.49H88.326z"/></svg>