<svg width="579" height="196" viewBox="0 0 579 196" xmlns="http://www.w3.org/2000/svg">
<path d="M237.374 94.3768V101.038H225.043C225.492 104.564 226.539 107.152 228.189 108.799C229.84 110.451 231.841 111.279 234.182 111.279C236.584 111.279 238.576 110.562 240.153 109.122C241.724 107.681 242.687 105.608 243.043 102.909L251.025 105.389C250.118 109.333 248.274 112.431 245.492 114.698C242.722 116.957 239.116 118.092 234.683 118.102C230.136 118.092 226.558 117.021 223.933 114.863C221.31 112.706 219.438 110.225 218.309 107.406C217.181 104.589 216.623 101.415 216.623 97.899C216.623 91.7168 218.235 86.7358 221.474 82.9463C224.714 79.1665 229.171 77.2659 234.84 77.2562C239.227 77.2659 242.787 78.3121 245.54 80.3947C248.282 82.4774 250.072 85.3021 250.917 88.8727L243.043 90.69C242.476 88.6054 241.42 86.9915 239.877 85.8543C238.345 84.7074 236.594 84.1397 234.631 84.1397C231.814 84.1397 229.584 85.1123 227.953 87.0574C226.32 89.0006 225.347 91.4398 225.043 94.3768H237.374ZM365.265 77.973H373.243V117.385H365.265V77.973ZM379.179 117.385V77.973H387.161V93.4953H402.686V77.973H410.666V117.385H402.686V100.158H387.161V117.385H379.179ZM440.288 102.855L447.999 105.222C446.813 109.56 444.839 112.782 442.088 114.894C439.337 116.994 435.85 118.05 431.62 118.05C426.384 118.05 422.079 116.258 418.706 112.681C415.335 109.105 413.649 104.211 413.649 97.9998C413.649 91.4398 415.344 86.3425 418.731 82.7099C422.116 79.0754 426.573 77.2562 432.099 77.2562C436.927 77.2562 440.84 78.6879 443.851 81.5417C445.649 83.2291 446.99 85.6509 447.889 88.8185L440.015 90.69C439.548 88.6519 438.577 87.0361 437.097 85.8543C435.609 84.6706 433.812 84.0835 431.706 84.0835C428.776 84.0835 426.399 85.1317 424.584 87.2298C422.759 89.3222 421.85 92.7184 421.85 97.4127C421.85 102.388 422.751 105.939 424.539 108.049C426.335 110.167 428.668 111.222 431.539 111.222C433.657 111.222 435.485 110.552 437.006 109.204C438.531 107.853 439.629 105.743 440.288 102.855ZM254.685 77.973H270.446C273.576 77.973 275.897 78.1028 277.428 78.3586C278.901 78.6002 280.306 79.153 281.549 79.9802C282.788 80.8386 283.822 81.9615 284.575 83.2679C285.381 84.6357 285.786 86.1759 285.786 87.8731C285.786 89.7078 285.292 91.4049 284.302 92.9393C283.324 94.4631 281.919 95.6647 280.262 96.3937C282.657 97.1008 284.492 98.2923 285.786 99.9836C287.07 101.673 287.711 103.655 287.711 105.939C287.711 107.737 287.299 109.479 286.464 111.178C285.631 112.875 284.492 114.229 283.042 115.248C281.601 116.258 279.822 116.88 277.703 117.12C276.384 117.259 273.179 117.348 268.105 117.385H254.685V77.973ZM262.667 84.5233V93.6096H267.878C270.971 93.6096 272.896 93.5593 273.648 93.4682C275.008 93.3113 276.081 92.8444 276.86 92.0675C277.639 91.2848 278.025 90.2657 278.025 89.0006C278.025 87.7801 277.686 86.7997 277.015 86.0364C276.347 85.277 275.345 84.8159 274.024 84.6609C273.235 84.5698 270.971 84.5233 267.235 84.5233H262.667ZM262.667 100.158V110.726H270.043C272.906 110.726 274.733 110.643 275.504 110.488C276.686 110.265 277.651 109.746 278.393 108.909C279.137 108.063 279.512 106.956 279.512 105.552C279.512 104.358 279.228 103.36 278.65 102.533C278.081 101.708 277.246 101.103 276.163 100.724C275.082 100.352 272.722 100.158 269.099 100.158H262.667ZM291.133 117.385V77.973H303.898C308.73 77.973 311.878 78.1687 313.347 78.56C315.602 79.1587 317.493 80.4412 319.016 82.4213C320.54 84.4051 321.3 86.9664 321.3 90.0991C321.3 92.5228 320.858 94.5512 319.99 96.2019C319.109 97.8525 317.995 99.1467 316.65 100.092C315.3 101.03 313.924 101.654 312.529 101.956C310.631 102.33 307.887 102.524 304.292 102.524H299.115V117.385H291.133ZM299.115 84.6357V95.8648H303.455C306.585 95.8648 308.666 95.6516 309.722 95.239C310.776 94.8244 311.601 94.1831 312.2 93.2939C312.797 92.4143 313.097 91.3952 313.097 90.2192C313.097 88.7797 312.677 87.596 311.844 86.6622C311.01 85.729 309.884 85.1072 308.651 84.8992C307.701 84.7267 305.803 84.6357 302.943 84.6357H299.115ZM323.272 97.9184C323.272 93.9022 323.877 90.5253 325.08 87.7897C325.97 85.7819 327.212 83.9494 328.747 82.3786C330.299 80.7803 331.998 79.5965 333.841 78.8197C336.301 77.7812 339.134 77.2562 342.348 77.2562C348.164 77.2562 352.806 79.0657 356.301 82.6692C359.786 86.2844 361.528 91.3042 361.528 97.7343C361.528 104.112 359.794 109.105 356.337 112.701C352.877 116.304 348.245 118.102 342.454 118.102C336.592 118.102 331.925 116.314 328.466 112.728C325.004 109.149 323.272 104.211 323.272 97.9184ZM331.473 97.651C331.473 102.119 332.51 105.505 334.575 107.818C336.638 110.122 339.263 111.279 342.437 111.279C345.62 111.279 348.228 110.134 350.272 107.844C352.31 105.552 353.329 102.119 353.329 97.5425C353.329 93.0207 352.337 89.6438 350.347 87.4216C348.363 85.1936 345.732 84.0835 342.437 84.0835C339.153 84.0835 336.501 85.213 334.492 87.4604C332.482 89.7174 331.473 93.1117 331.473 97.651Z" />
<path fill-rule="evenodd" clip-rule="evenodd" d="M155.2 142.678V115.68H199.064L198.398 117.157L197.683 118.608L196.896 120.038L196.067 121.415L195.209 122.771L194.283 124.079L193.306 125.385L192.305 126.623L191.261 127.837L190.168 129.002L189.027 130.145L187.859 131.24L186.646 132.284L185.386 133.309L184.102 134.258L182.79 135.186L181.436 136.044L180.057 136.877L178.629 137.66L177.178 138.375L175.705 139.068L174.206 139.681L172.66 140.256L171.114 140.756L169.541 141.205L167.925 141.606L166.307 141.967L164.668 142.25L163 142.467L161.311 142.633L159.6 142.726L157.887 142.75H157.196L156.531 142.726L155.867 142.705L155.2 142.678ZM121.493 113.85H125.347L126.536 110.167L127.703 113.85H131.58L128.46 116.11L129.65 119.795L126.536 117.536L123.419 119.795L124.584 116.11L121.493 113.85ZM117.022 95.7466H120.777L121.92 92.1799L123.088 95.7466H126.821L123.801 97.9611L124.942 101.53L121.92 99.3153L118.901 101.53L120.042 97.9611L117.022 95.7466ZM122.253 76.7661H126.06L127.176 72.7693L128.416 76.7661H132.269L129.154 79.0483L130.342 82.6887L127.226 80.4277L124.157 82.6887L125.322 79.0483L122.253 76.7661ZM135.882 63.7566H139.62L140.763 60.186L141.902 63.7566H145.658L142.617 65.9652L143.779 69.5106L140.763 67.3213L137.738 69.5106L138.905 65.9652L135.882 63.7566ZM135.669 126.743H139.476L140.666 123.081L141.83 126.743H145.635L142.566 128.981L143.735 132.638L140.666 130.383L137.57 132.638L138.738 128.981L135.669 126.743ZM201.134 109.903L155.2 109.876L155.223 109.806L155.2 83.3784H200.349L200.632 84.2328L200.918 85.091L201.157 85.9706L201.395 86.854L201.606 87.7336L201.798 88.6345L201.988 89.5393L202.155 90.4421L202.298 91.3468L202.414 92.2748L202.513 93.1777L202.608 94.1289L202.68 95.0569L202.724 95.983L202.751 96.9381L202.774 97.8874L202.751 98.6721V99.4354L202.703 100.222L202.654 100.981L202.608 101.745L202.536 102.506L202.441 103.266L202.346 104.027L202.249 104.767L202.108 105.501L201.988 106.263L201.845 106.999L201.678 107.714L201.513 108.452L201.323 109.165L201.134 109.903ZM197.945 77.6922H155.2V53.0971L155.867 53.0486L156.531 53.0273L157.196 53.0002H157.887L159.526 53.0273L161.123 53.1203L162.74 53.2637L164.308 53.4516L165.879 53.7151L167.427 54.0251L168.971 54.3816L170.472 54.8097L171.947 55.2611L173.419 55.7842L174.87 56.3558L176.277 56.9486L177.678 57.6189L179.036 58.3299L180.365 59.0681L181.674 59.8527L182.959 60.6858L184.22 61.5673L185.431 62.4934L186.623 63.4466L187.766 64.4443L188.883 65.4905L189.974 66.5599L191.022 67.6546L192.024 68.7976L192.998 69.9852L193.923 71.1767L194.804 72.436L195.662 73.6973L196.47 75.005L197.23 76.3399L197.945 77.6922ZM150.037 53.6918V142.062L148.086 141.678L146.16 141.205L144.279 140.634L142.425 140.014L140.619 139.276L138.835 138.493L137.095 137.637L135.406 136.687L133.744 135.69L132.151 134.614L130.603 133.471L129.102 132.261L127.652 131.001L126.25 129.668L124.917 128.287L123.658 126.838L122.445 125.361L121.277 123.819L120.207 122.221L119.182 120.584L118.235 118.895L117.353 117.157L116.569 115.37L115.832 113.567L115.189 111.713L114.618 109.831L114.143 107.906L113.738 105.953L113.407 103.979L113.188 101.979L113.046 99.9333L113 97.8874L113.046 95.8416L113.188 93.7996L113.407 91.7982L113.738 89.7989L114.143 87.8499L114.618 85.9493L115.189 84.0429L115.832 82.2121L116.569 80.3832L117.353 78.6221L118.235 76.8843L119.182 75.1949L120.207 73.5539L121.277 71.9594L122.445 70.4153L123.658 68.9158L124.917 67.4899L126.25 66.0853L127.652 64.7756L129.102 63.4931L130.603 62.3055L132.151 61.1605L133.744 60.0658L135.406 59.0681L137.095 58.1381L138.835 57.2605L140.619 56.4739L142.425 55.7629L144.279 55.1216L146.16 54.5501L148.086 54.0735L150.037 53.6918Z" />
<path d="M228.458 141.762C227.842 142.079 226.478 142.401 224.754 142.401C220.197 142.401 217.431 139.547 217.431 135.182C217.431 130.455 220.709 127.601 225.095 127.601C226.819 127.601 228.053 127.962 228.586 128.241L228.013 130.327C227.124 129.949 226.167 129.76 225.202 129.773C222.282 129.773 220.176 131.602 220.176 135.052C220.176 138.205 222.03 140.229 225.18 140.229C226.244 140.229 227.352 140.018 228.034 139.696L228.458 141.762Z" />
<path d="M243.301 130.028H239.215V127.837H250.049V130.028H245.922V142.185H243.301V130.028Z" />
<path d="M263.64 134.714C263.96 134.801 264.386 134.821 264.917 134.821C266.875 134.821 268.069 133.864 268.069 132.182C268.069 130.585 266.961 129.731 265.153 129.731C264.646 129.721 264.138 129.765 263.64 129.863V134.714ZM261.042 128.028C261.982 127.858 263.278 127.73 265.047 127.73C266.961 127.73 268.367 128.135 269.282 128.902C270.136 129.601 270.688 130.733 270.688 132.077C270.688 133.439 270.262 134.567 269.452 135.33C268.41 136.374 266.769 136.863 264.917 136.863C264.427 136.863 263.981 136.845 263.64 136.779V142.187H261.042V128.028Z" />
<path d="M287.72 136.14L286.592 132.606C286.315 131.732 286.079 130.752 285.87 129.923H285.825C285.612 130.752 285.401 131.754 285.143 132.606L284.037 136.14H287.72ZM283.611 138.122L282.376 142.187H279.674L284.273 127.838H287.613L292.278 142.187H289.465L288.167 138.122H283.611Z" />
<path d="M311.268 142.187L309.712 139.337C309.096 138.228 308.691 137.461 308.288 136.632H308.224C307.831 137.552 307.397 138.455 306.924 139.337L305.496 142.187H302.497L306.754 134.929L302.668 127.838H305.667L307.22 130.797C307.691 131.69 308.032 132.393 308.414 133.203H308.458C308.84 132.306 309.136 131.67 309.586 130.797L311.118 127.838H314.121L309.925 134.842L314.292 142.187H311.268Z" />
<path d="M327.283 127.837L329.712 133.372C330.094 134.308 330.392 135.162 330.733 136.011H330.797C331.01 135.352 331.264 134.436 331.605 133.308L333.478 127.837H336.247L333.416 134.988C332.585 137.079 331.669 139.25 330.648 140.589C329.712 141.763 328.585 142.42 327.071 142.42C326.451 142.42 326.072 142.356 325.729 142.232L325.944 140.12C326.155 140.188 326.434 140.207 326.837 140.207C328.05 140.207 328.819 139.184 329.179 138.375C329.307 138.076 329.263 137.885 329.115 137.607L324.324 127.837H327.283Z" />
<path d="M349.565 140.289C350.025 140.339 350.487 140.36 350.95 140.353C352.63 140.353 354.124 139.717 354.124 137.946C354.124 136.29 352.672 135.604 350.863 135.604H349.565V140.289ZM349.565 133.69H350.906C352.717 133.69 353.736 132.837 353.736 131.623C353.736 130.28 352.717 129.668 351.057 129.668C350.287 129.668 349.842 129.709 349.565 129.772V133.69ZM346.969 128.025C347.798 127.854 349.311 127.73 350.78 127.73C352.717 127.73 353.908 127.965 354.889 128.645C355.782 129.176 356.379 130.11 356.379 131.324C356.379 132.646 355.547 133.86 353.996 134.436V134.476C355.505 134.858 356.89 136.053 356.89 138.033C356.89 139.308 356.338 140.312 355.505 140.992C354.484 141.889 352.8 142.336 350.181 142.336C348.734 142.336 347.627 142.23 346.969 142.143V128.025Z" />
<path d="M375.524 136.14L374.395 132.606C374.12 131.732 373.885 130.752 373.672 129.923H373.628C373.417 130.752 373.203 131.754 372.948 132.606L371.841 136.14H375.524ZM371.415 138.122L370.181 142.187H367.477L372.076 127.838H375.418L380.085 142.187H377.268L375.97 138.122H371.415Z" />
<path d="M394.006 127.837V133.585H400.076V127.837H402.691V142.185H400.076V135.863H394.006V142.185H391.385V127.837H394.006Z" />
<path d="M417.62 127.837V133.585H423.69V127.837H426.31V142.185H423.69V135.863H417.62V142.185H415.003V127.837H417.62Z" />
<path d="M445.248 129.857C444.743 129.752 444.228 129.703 443.712 129.71C442.139 129.71 440.818 130.326 440.818 132.029C440.818 133.542 442.156 134.372 443.882 134.372C444.396 134.372 444.907 134.372 445.248 134.331V129.857ZM437.348 142.185C437.603 141.763 437.817 141.251 438.006 140.717C438.603 139.079 438.963 137.247 440.095 136.138C440.413 135.821 440.841 135.563 441.286 135.416V135.352C439.607 135.054 438.198 133.86 438.198 131.839C438.198 130.543 438.75 129.517 439.607 128.836C440.604 128.048 442.203 127.73 444.034 127.73C445.438 127.73 446.845 127.856 447.844 128.027V142.185H445.248V136.29H444.181C443.435 136.29 442.863 136.479 442.414 136.908C441.476 137.845 441.093 139.779 440.628 141.058C440.502 141.449 440.337 141.827 440.136 142.185H437.348Z" />
</svg>
