<svg width="579" height="196" viewBox="0 0 579 196" xmlns="http://www.w3.org/2000/svg">
<path d="M417 127.196H162V131.079H417V127.196Z" />
<path d="M168.415 153.818H166.724L162 140.167H164.296L167.574 150.096L170.862 140.167H173.138L168.415 153.818ZM175.16 140.167H177.323V153.818H175.16V140.167ZM181.112 153.818V140.167H190.219V142.057H183.266V146.043H189.199V147.933H183.266V152.033H190.219V153.922L181.112 153.818ZM201.981 153.818L195.368 144.21V153.818H193.242V140.167H195.217L201.83 149.756V140.167H203.993V153.818H201.981ZM216.501 153.818L209.888 144.21V153.818H207.753V140.167H209.727L216.341 149.756V140.167H218.495V153.818H216.501ZM230.445 153.818L229.501 151.079H223.832L222.887 153.818H220.573L225.797 140.167H227.536L232.76 153.818H230.445ZM226.666 143.256L224.446 149.312H228.83L226.666 143.256ZM239.637 140.167H241.801V153.818H239.675L239.637 140.167ZM254.328 153.818L247.715 144.21V153.818H245.618V140.167H247.601L254.215 149.756V140.167H256.378V153.818H254.328ZM263.879 153.932C262.959 154 262.035 153.874 261.166 153.563C260.297 153.253 259.503 152.763 258.834 152.127L260.28 150.767C260.762 151.224 261.335 151.576 261.961 151.801C262.587 152.025 263.253 152.117 263.917 152.071C265.806 152.071 266.864 151.305 266.864 149.983C266.882 149.719 266.84 149.455 266.742 149.21C266.644 148.965 266.492 148.744 266.298 148.566C265.86 148.2 265.309 147.997 264.739 147.989L263.057 147.763C262.068 147.672 261.128 147.291 260.355 146.667C260.002 146.335 259.726 145.929 259.546 145.478C259.367 145.028 259.288 144.543 259.316 144.059C259.316 141.679 261.12 140.054 264.04 140.054C264.843 140.006 265.647 140.118 266.406 140.384C267.165 140.65 267.864 141.065 268.461 141.603L267.082 142.907C266.229 142.159 265.115 141.779 263.983 141.849C262.301 141.849 261.376 142.793 261.376 143.984C261.365 144.222 261.409 144.46 261.504 144.68C261.599 144.899 261.742 145.094 261.923 145.25C262.39 145.6 262.941 145.818 263.52 145.883L265.145 146.109C266.116 146.172 267.045 146.528 267.809 147.13C268.203 147.484 268.511 147.923 268.711 148.414C268.911 148.905 268.996 149.435 268.962 149.964C268.962 152.477 266.827 153.969 263.841 153.969M276.793 153.969C273.893 153.969 271.692 152.08 271.692 149.246V140.167H273.846V149.123C273.889 149.877 274.218 150.586 274.767 151.105C275.316 151.624 276.043 151.913 276.798 151.913C277.554 151.913 278.28 151.624 278.829 151.105C279.378 150.586 279.708 149.877 279.75 149.123V140.167H281.98V149.218C281.98 152.052 279.76 153.941 276.86 153.941M293.411 153.828L290.416 148.093H287.714V153.847H285.551V140.167H291.078C293.78 140.167 295.499 141.83 295.499 144.154C295.521 144.993 295.25 145.815 294.733 146.477C294.216 147.138 293.485 147.6 292.665 147.782L295.943 153.818L293.411 153.828ZM290.908 142.038H287.705V146.308H290.908C292.353 146.308 293.336 145.524 293.336 144.182C293.338 143.875 293.275 143.571 293.15 143.29C293.025 143.01 292.841 142.759 292.611 142.556C292.381 142.353 292.109 142.201 291.816 142.112C291.522 142.022 291.212 141.997 290.908 142.038ZM306.883 153.828L305.938 151.088H300.27L299.325 153.828H297.001L302.225 140.177H303.973L309.198 153.828H306.883ZM303.104 143.266L300.884 149.321H305.267L303.104 143.266ZM319.958 153.828L313.345 144.22V153.828H311.266V140.167H313.25L319.863 149.756V140.167H322.027V153.818L319.958 153.828ZM330.35 153.941C328.948 153.974 327.589 153.451 326.571 152.486C325.173 151.145 325.192 149.652 325.192 146.997C325.192 144.343 325.192 142.86 326.571 141.518C327.074 141.038 327.667 140.663 328.315 140.413C328.964 140.164 329.655 140.045 330.35 140.063C331.089 140.042 331.825 140.174 332.511 140.45C333.197 140.727 333.818 141.142 334.337 141.669L332.891 143.067C332.578 142.701 332.188 142.407 331.749 142.208C331.31 142.009 330.832 141.909 330.35 141.915C329.962 141.906 329.577 141.975 329.217 142.118C328.857 142.261 328.529 142.475 328.253 142.746C327.553 143.474 327.412 144.258 327.412 146.997C327.412 149.737 327.553 150.531 328.253 151.258C328.529 151.529 328.858 151.741 329.218 151.882C329.578 152.023 329.963 152.09 330.35 152.08C330.832 152.088 331.311 151.989 331.75 151.789C332.19 151.59 332.579 151.296 332.891 150.927L334.337 152.335C333.818 152.863 333.197 153.278 332.511 153.554C331.825 153.83 331.089 153.962 330.35 153.941ZM337.294 153.828V140.167H346.41V142.057H339.457V146.043H345.39V147.933H339.457V152.033H346.41V153.922L337.294 153.828ZM362.801 152.373C361.782 153.36 360.425 153.92 359.007 153.942C357.589 153.963 356.216 153.442 355.168 152.486C353.77 151.145 353.788 149.652 353.788 146.997C353.788 144.343 353.788 142.86 355.168 141.518C355.669 141.036 356.261 140.659 356.91 140.409C357.559 140.159 358.252 140.041 358.947 140.063C359.751 140.031 360.552 140.175 361.295 140.485C362.037 140.795 362.703 141.264 363.245 141.858L361.781 143.266C361.439 142.844 361.007 142.503 360.517 142.27C360.026 142.036 359.49 141.915 358.947 141.915C358.554 141.909 358.164 141.981 357.799 142.127C357.434 142.273 357.102 142.49 356.821 142.765C356.122 143.492 355.98 144.258 355.98 146.997C355.98 149.737 356.122 150.531 356.821 151.258C357.429 151.81 358.228 152.104 359.049 152.08C359.87 152.055 360.649 151.713 361.223 151.126C361.726 150.518 361.976 149.74 361.923 148.953V148.207H358.947V146.44H364.086V148.5C364.157 149.197 364.081 149.902 363.865 150.568C363.649 151.235 363.296 151.85 362.83 152.373M375.111 153.828L372.05 148.093H369.348V153.847H367.185V140.167H372.674C375.375 140.167 377.095 141.83 377.095 144.154C377.115 144.993 376.844 145.813 376.327 146.475C375.81 147.136 375.08 147.598 374.261 147.782L377.539 153.818L375.111 153.828ZM372.617 142.038H369.414V146.308H372.617C372.921 146.348 373.23 146.323 373.524 146.235C373.818 146.146 374.089 145.995 374.32 145.793C374.551 145.591 374.736 145.342 374.863 145.062C374.99 144.783 375.055 144.48 375.055 144.173C375.055 143.866 374.99 143.562 374.863 143.283C374.736 143.003 374.551 142.754 374.32 142.552C374.089 142.35 373.818 142.199 373.524 142.111C373.23 142.022 372.921 141.997 372.617 142.038ZM388.734 152.477C387.716 153.443 386.357 153.966 384.955 153.932C384.26 153.952 383.568 153.834 382.919 153.585C382.27 153.335 381.678 152.958 381.176 152.477C379.778 151.135 379.797 149.643 379.797 146.988C379.797 144.333 379.797 142.85 381.176 141.509C381.676 141.025 382.268 140.647 382.918 140.397C383.567 140.147 384.26 140.03 384.955 140.054C385.65 140.035 386.341 140.153 386.99 140.403C387.639 140.653 388.231 141.029 388.734 141.509C390.132 142.85 390.094 144.343 390.094 146.988C390.094 149.633 390.094 151.135 388.734 152.477ZM387.09 142.756C386.519 142.21 385.759 141.905 384.969 141.905C384.179 141.905 383.419 142.21 382.848 142.756C382.14 143.483 382.007 144.248 382.007 146.988C382.007 149.728 382.14 150.502 382.848 151.23C383.423 151.769 384.181 152.069 384.969 152.069C385.757 152.069 386.516 151.769 387.09 151.23C387.789 150.502 387.931 149.737 387.931 146.988C387.931 144.239 387.789 143.483 387.09 142.756ZM398.181 153.932C395.281 153.932 393.08 152.042 393.08 149.208V140.167H395.234V149.123C395.276 149.877 395.606 150.586 396.155 151.105C396.704 151.624 397.431 151.913 398.186 151.913C398.941 151.913 399.668 151.624 400.217 151.105C400.766 150.586 401.095 149.877 401.138 149.123V140.167H403.301V149.218C403.301 152.052 401.081 153.941 398.181 153.941M412.267 148.462H409.027V153.828H406.863V140.167H412.267C415.054 140.167 416.839 141.934 416.839 144.305C416.839 146.676 415.054 148.452 412.267 148.452M412.154 142.028H409.027V146.572H412.154C412.473 146.608 412.797 146.576 413.103 146.478C413.41 146.38 413.692 146.219 413.932 146.004C414.172 145.79 414.363 145.527 414.495 145.234C414.626 144.94 414.694 144.622 414.694 144.3C414.694 143.979 414.626 143.66 414.495 143.367C414.363 143.073 414.172 142.811 413.932 142.596C413.692 142.382 413.41 142.22 413.103 142.122C412.797 142.025 412.473 141.992 412.154 142.028Z" />
<path d="M386.571 62.1235C386.168 61.7186 385.69 61.3974 385.163 61.1784C384.636 60.9595 384.071 60.8473 383.5 60.8481C382.435 60.8543 381.416 61.2823 380.666 62.0385C380.296 62.411 380.005 62.8535 379.808 63.3402C379.612 63.8269 379.515 64.3479 379.523 64.8727C379.521 65.4412 379.632 66.0045 379.849 66.53C380.066 67.0554 380.386 67.5325 380.789 67.9336L382.31 69.4546L388.12 63.6256L386.571 62.1235Z" />
<path d="M401.96 67.8392C402.36 67.4438 402.678 66.9731 402.895 66.4543C403.112 65.9354 403.225 65.3786 403.226 64.8161C403.22 63.7601 402.811 62.7462 402.082 61.9819C401.71 61.6122 401.267 61.3207 400.781 61.1244C400.294 60.9281 399.773 60.831 399.248 60.8388C398.667 60.8305 398.091 60.9401 397.553 61.1609C397.016 61.3817 396.529 61.7092 396.121 62.1236L394.591 63.6541L400.373 69.4358L401.96 67.8392Z" />
<path d="M391.342 66.8564L385.522 72.6854L391.323 78.4766L397.133 72.6476L391.342 66.8564Z" />
<path d="M396.207 83.3613C396.607 83.7651 397.084 84.085 397.61 84.3024C398.136 84.5198 398.699 84.6302 399.268 84.6272C400.324 84.6218 401.338 84.2128 402.102 83.4841C402.795 82.6594 403.185 81.6227 403.207 80.546C403.211 79.9788 403.103 79.4165 402.889 78.8912C402.675 78.3659 402.359 77.8881 401.96 77.4851L400.345 75.8696L394.525 81.6891L396.207 83.3613Z" />
<path d="M380.723 77.4849C380.319 77.8851 379.999 78.362 379.781 78.8876C379.564 79.4133 379.454 79.977 379.457 80.5458C379.444 81.0754 379.539 81.6021 379.736 82.0939C379.932 82.5858 380.227 83.0325 380.602 83.4071C380.976 83.7817 381.423 84.0762 381.915 84.273C382.407 84.4697 382.933 84.5644 383.463 84.5515C384.031 84.5524 384.594 84.441 385.12 84.2237C385.645 84.0065 386.122 83.6877 386.524 83.2855L388.12 81.6795L382.329 75.8789L380.723 77.4849Z" />
<path d="M409.442 54.5659C407.061 52.1869 404.234 50.3004 401.124 49.0139C398.013 47.7274 394.68 47.0661 391.314 47.0679C387.948 47.0696 384.615 47.7344 381.506 49.0241C378.397 50.3139 375.572 52.2034 373.193 54.5848C370.814 56.9661 368.928 59.7928 367.641 62.9033C366.355 66.0137 365.694 69.3472 365.695 72.7132C365.697 76.0792 366.362 79.412 367.652 82.5211C368.941 85.6303 370.831 88.4549 373.212 90.8338C375.594 93.2127 378.42 95.0993 381.531 96.3858C384.641 97.6723 387.975 98.3336 391.341 98.3318C394.707 98.3301 398.039 97.6653 401.149 96.3756C404.258 95.0858 407.082 93.1963 409.461 90.8149C411.84 88.4335 413.727 85.6069 415.013 82.4964C416.3 79.3859 416.961 76.0525 416.959 72.6865C416.957 69.3204 416.293 65.9877 415.003 62.8786C413.713 59.7694 411.824 56.9448 409.442 54.5659ZM405.314 86.6865C404.514 87.4823 403.565 88.1123 402.521 88.5403C401.477 88.9683 400.358 89.1859 399.23 89.1806C398.059 89.1869 396.9 88.9586 395.819 88.5092C394.738 88.0597 393.759 87.3982 392.938 86.5637L391.323 84.9482L389.679 86.507C388.86 87.3421 387.883 88.0041 386.803 88.4536C385.724 88.9032 384.565 89.1311 383.396 89.1239C382.273 89.1239 381.162 88.9015 380.125 88.4695C379.088 88.0375 378.148 87.4044 377.357 86.6069C376.567 85.8093 375.942 84.8631 375.519 83.8228C375.096 82.7825 374.884 81.6687 374.894 80.5458C374.887 79.3754 375.116 78.2156 375.565 77.1349C376.015 76.0542 376.676 75.0746 377.511 74.2539L379.117 72.6384L377.548 71.0702C376.714 70.2495 376.052 69.2699 375.603 68.1892C375.153 67.1085 374.925 65.9487 374.932 64.7783C374.922 63.649 375.137 62.529 375.564 61.4837C375.992 60.4384 376.623 59.4888 377.422 58.6902C378.22 57.8917 379.17 57.2602 380.215 56.8327C381.26 56.4051 382.38 56.1901 383.51 56.2002C384.68 56.197 385.838 56.4268 386.919 56.876C387.999 57.3253 388.979 57.9852 389.802 58.8171L391.36 60.3665L392.91 58.8171C393.734 57.9881 394.715 57.3302 395.795 56.8812C396.874 56.4321 398.032 56.2007 399.202 56.2002C400.33 56.1912 401.45 56.4071 402.494 56.8353C403.539 57.2635 404.488 57.8955 405.286 58.6943C406.887 60.314 407.783 62.5008 407.78 64.7783C407.779 65.9477 407.548 67.1055 407.099 68.1853C406.65 69.265 405.992 70.2454 405.163 71.0702L403.613 72.6195L405.248 74.2539C406.079 75.0763 406.738 76.0565 407.186 77.1369C407.634 78.2173 407.861 79.3763 407.855 80.5458C407.816 82.8221 406.911 84.9978 405.323 86.6298" />
<path d="M206.496 86.2335C206.496 92.2608 204.96 96.9057 201.886 100.168C198.813 103.431 194.65 105.062 189.397 105.062C184.113 105.062 179.953 103.431 176.917 100.168C173.881 96.9057 172.345 92.2608 172.307 86.2335V48.2178H162.057V85.865C162.057 95.0541 164.576 102.165 169.614 107.197C174.76 112.179 181.354 114.663 189.397 114.651C197.44 114.638 204.024 112.119 209.151 107.093C214.246 102.054 216.794 94.9722 216.794 85.8461V48.2178H206.496V86.2335Z" />
<path d="M268.461 80.0734C264.661 78.0553 260.662 76.4344 256.529 75.2364L249.075 73.0918L247.186 72.44C246.317 72.1282 245.542 71.8354 244.852 71.5519C244.302 71.3401 243.773 71.0743 243.275 70.7584C240.737 68.9571 239.468 67.0047 239.468 64.9011C239.461 63.6899 239.772 62.4982 240.368 61.4442C240.965 60.3902 241.827 59.5106 242.869 58.8926C245.136 57.3748 248.446 56.6127 252.798 56.6064C260.12 56.6593 267.283 58.7567 273.478 62.6621V52.4118C267.152 48.7309 259.935 46.8614 252.618 47.008C245.356 47.008 239.594 48.6235 235.33 51.8544C233.292 53.3307 231.646 55.2824 230.535 57.5397C229.424 59.797 228.88 62.2916 228.953 64.8066C228.953 70.771 231.189 75.1482 235.66 77.9383C237.741 79.2023 239.921 80.2955 242.179 81.207C244.295 82.01 247.12 82.917 250.681 83.9089L251.985 84.2774C255.042 85.072 258.033 86.1017 260.932 87.3572C262.15 87.8183 263.284 88.4792 264.285 89.3128C265.19 90.0408 265.92 90.9631 266.421 92.0113C266.921 93.0596 267.179 94.2069 267.176 95.3684C267.176 98.3538 265.759 100.706 262.935 102.444C260.11 104.183 256.473 105.061 252.061 105.061C247.473 105.04 242.928 104.185 238.646 102.539C234.824 101.172 231.266 99.1554 228.131 96.5777V107.669C234.523 112.329 242.692 114.66 252.637 114.66C259.779 114.66 265.743 112.918 270.53 109.435C272.816 107.846 274.668 105.71 275.917 103.222C277.167 100.733 277.773 97.9717 277.682 95.1889C277.316 88.261 274.243 83.2224 268.461 80.0734Z" />
<path d="M340.289 75.803H338.4L322.604 75.8219V86.0722H338.371V94.3385C338.376 96.3203 337.779 98.257 336.659 99.8918C335.539 101.527 333.948 102.782 332.098 103.493C329.073 104.595 325.871 105.133 322.651 105.08C319.57 105.14 316.509 104.586 313.644 103.45C310.78 102.315 308.17 100.621 305.967 98.4669C305.684 98.1835 305.438 97.8812 305.174 97.5884C301.801 93.8006 299.775 89.0047 299.411 83.9465C299.316 83.0018 299.26 81.9815 299.26 80.9518C299.26 73.8789 301.558 68.0405 306.156 63.4366C310.754 58.8326 316.592 56.5653 323.671 56.6346C330.642 56.6191 337.445 58.7681 343.142 62.7847V52.6006C337.682 48.8721 330.974 47.0078 323.019 47.0078C313.15 47.0078 304.981 50.2073 298.513 56.6062C292.045 63.0051 288.786 71.0794 288.735 80.8289C288.735 88.9284 290.965 95.891 295.424 101.717C296.346 102.927 297.347 104.076 298.419 105.156C300.958 107.633 303.876 109.69 307.063 111.249C311.93 113.562 317.263 114.725 322.651 114.65C327.793 114.69 332.886 113.657 337.606 111.618L338.447 111.24C341.49 109.828 344.066 107.576 345.872 104.749C347.678 101.922 348.639 98.6378 348.64 95.2832V75.803H340.289Z" />
</svg>
