<svg width="120" height="45" xmlns="http://www.w3.org/2000/svg"><g clip-path="url(#a)" fill-rule="evenodd" clip-rule="evenodd"><path d="M25.03 22.05v-.045c0-4.529 3.52-8.364 8.472-8.364 2.465 0 4.107.577 5.61 1.64a1.433 1.433 0 01.587 1.155c0 .763-.634 1.41-1.432 1.41-.376 0-.657-.162-.892-.324-1.056-.762-2.206-1.27-3.99-1.27-3.028 0-5.328 2.61-5.328 5.706v.047c0 3.327 2.23 5.776 5.586 5.776 1.55 0 2.957-.485 3.967-1.225V23.53h-3.24c-.704 0-1.29-.531-1.29-1.224 0-.694.586-1.248 1.29-1.248h4.578c.82 0 1.455.624 1.455 1.433v4.32c0 .808-.329 1.386-1.01 1.802a10.577 10.577 0 01-5.843 1.756c-5.141 0-8.52-3.604-8.52-8.318zm17.961-7.554c0-.763.61-1.387 1.408-1.387.798 0 1.432.624 1.432 1.387V28.82c0 .785-.634 1.386-1.432 1.386-.774 0-1.408-.6-1.408-1.387V14.495zm5.04 9.565v-.047c0-3.488 2.816-6.376 6.618-6.376 3.802 0 6.596 2.842 6.596 6.33v.046c0 3.467-2.817 6.355-6.643 6.355-3.779 0-6.571-2.842-6.571-6.308zm10.374 0v-.047c0-2.148-1.573-3.927-3.803-3.927-2.277 0-3.732 1.756-3.732 3.882v.045c0 2.126 1.573 3.905 3.78 3.905 2.3 0 3.754-1.756 3.754-3.858zm9.93 6.261h-.14c-.775 0-1.292-.485-1.62-1.225l-4.13-9.31c-.07-.209-.165-.439-.165-.694 0-.693.634-1.34 1.408-1.34.774 0 1.173.44 1.408 1.017l3.192 8.086 3.24-8.132c.21-.485.586-.97 1.337-.97.775 0 1.385.577 1.385 1.34 0 .254-.094.531-.164.67l-4.13 9.334c-.33.716-.846 1.225-1.62 1.225zm6.95-6.26v-.048c0-3.488 2.817-6.376 6.62-6.376 3.801 0 6.595 2.842 6.595 6.33v.046c0 3.467-2.817 6.355-6.643 6.355-3.778 0-6.572-2.842-6.572-6.308zm10.375 0v-.048c0-2.148-1.573-3.927-3.803-3.927-2.276 0-3.731 1.756-3.731 3.882v.045c0 2.126 1.572 3.905 3.779 3.905 2.3 0 3.755-1.756 3.755-3.858zm7.588-17.499c-3.075 0-5.576 2.464-5.576 5.49 0 1.153.364 2.26 1.051 3.201l.149.203 2.903 4.034s.354.57 1.127.57h.693c.773 0 1.126-.57 1.126-.57l2.904-4.034.147-.203a5.394 5.394 0 001.053-3.2c0-3.027-2.502-5.49-5.577-5.49zm2.295 7.112l-.154.212-2.14 2.974-2.137-2.968-.157-.215a2.737 2.737 0 01-.537-1.625c0-1.536 1.27-2.786 2.83-2.786s2.83 1.25 2.83 2.787c0 .582-.185 1.143-.535 1.62zm-3.863 8.862v-.011c0-.82.661-1.5 1.555-1.5.894 0 1.55.669 1.55 1.489v.011c0 .814-.662 1.493-1.56 1.493-.888 0-1.546-.667-1.546-1.482z"/></g><defs><clipPath id="a"><path fill="#fff" transform="translate(25 6.5)" d="M0 0h74v24H0z"/></clipPath></defs></svg>