<svg width="219" height="100" viewBox="0 0 219 100" xmlns="http://www.w3.org/2000/svg"><path d="M45.075 90.162c24.894 0 45.075-20.183 45.075-45.081C90.15 20.183 69.969 0 45.075 0 20.18 0 0 20.183 0 45.081c0 24.898 20.18 45.081 45.075 45.081z"/><path opacity=".75" d="M76.376 70.637a1.416 1.416 0 012.11 1.862 43.23 43.23 0 01-61.678 5.488A43.235 43.235 0 014.164 30.921a43.237 43.237 0 018.752-14.74c1.136-1.236 3.064.395 2.108 1.78a46.453 46.453 0 00-8.122 27.12 38.214 38.214 0 0011.19 26.986A38.202 38.202 0 0045.074 83.26s15.767 1.5 31.302-12.622z"/><g opacity=".75"><path d="M84.02 65.496a44.032 44.032 0 00-7.527-51.127 44.017 44.017 0 00-50.925-8.75"/><path d="M84.02 65.496a44.032 44.032 0 00-7.527-51.127 44.017 44.017 0 00-50.925-8.75" stroke="#727272" stroke-width="1.262" stroke-miterlimit="10" stroke-linecap="round"/></g><mask id="mask0_1328_1284" style="mask-type:alpha" maskUnits="userSpaceOnUse" x="11" y="11" width="68" height="68"><path d="M45.347 78.89c18.52 0 33.532-15.015 33.532-33.537S63.867 11.816 45.347 11.816c-18.519 0-33.532 15.015-33.532 33.537S26.828 78.89 45.347 78.89z"/></mask><g mask="url(#mask0_1328_1284)"><path d="M45.346 78.89c18.52 0 33.532-15.015 33.532-33.537S63.866 11.816 45.346 11.816c-18.519 0-33.531 15.015-33.531 33.537S26.827 78.89 45.346 78.89z"/><path d="M10.177 49.22c2.91 10.866 14.078 17.315 24.943 14.403a20.3 20.3 0 007.263-3.614 29.346 29.346 0 00-1.005-7.578C37.984 39.764 26.794 31.27 14.354 30.727c-4.196 4.927-5.98 11.768-4.177 18.493z"/><path opacity=".75" d="M45.576 79.299c18.52 0 33.532-15.015 33.532-33.537a33.43 33.43 0 00-2.653-13.094 48.31 48.31 0 00-12.477-1.63c-21.589 0-39.866 14.18-46.03 33.735C23.996 73.547 34.114 79.3 45.576 79.3z"/><path opacity=".5" d="M45.346 78.89c18.52 0 33.532-15.015 33.532-33.537S63.866 11.816 45.346 11.816c-18.519 0-33.531 15.015-33.531 33.537S26.827 78.89 45.346 78.89z"/><path opacity=".25" d="M78.788 49.49c-.078 4.77-1.598 9.773-4.642 14.255-3.043 4.482-7.134 7.738-11.539 9.569l-3.833-4.81c4.128-1.012 8.105-3.71 10.888-7.806 2.782-4.096 3.823-8.789 3.243-12.999l5.883 1.791zM22.642 26.1c1.423-2.3 3.626-4.451 6.43-6.07 2.802-1.618 5.766-2.45 8.47-2.534l.493 3.035c-2.33-.264-5.075.318-7.637 1.798-2.562 1.48-4.439 3.566-5.375 5.716L22.642 26.1z"/><path opacity=".25" d="M71.995 65.62a33.374 33.374 0 01-18.88 5.817c-18.518 0-33.53-15.015-33.53-33.537a33.393 33.393 0 016.882-20.358c-8.846 6.038-14.652 16.2-14.652 27.72 0 18.522 15.012 33.537 33.531 33.537 10.864 0 20.522-5.168 26.65-13.179z"/><path d="M37.986 33.084l13.086-12.679v49.896H37.986V33.084z" fill="#fff"/></g><path opacity=".8" d="M33.013 98.23v.082h-.544l-.263-.082h-.165v-.1l1.384-5.898a.083.083 0 010-.083.102.102 0 01.099 0h.428c.097.016.19.043.28.083h.148a.215.215 0 010 .099l-1.367 5.898zm1.96-7.86a.646.646 0 01-.263.478c-.18.07-.38.07-.56 0a.758.758 0 01-.478-.264.658.658 0 010-.527.758.758 0 01.264-.495.921.921 0 01.576 0 .76.76 0 01.478.264.657.657 0 01-.017.544zm-22.417-8.273a1.152 1.152 0 01-.28.216.197.197 0 01-.198 0l-.627-.614c0 .217-.044.432-.132.63-.097.183-.219.35-.363.498a2.161 2.161 0 01-.759.564c-.26.111-.541.168-.824.166a2.246 2.246 0 01-.841-.216 3.302 3.302 0 01-.792-.564 2.315 2.315 0 01-.429-.564 1.88 1.88 0 01-.214-.58h-.33a.908.908 0 00-.297.215.448.448 0 00-.116.431c.023.215.11.417.248.581l1.105 1.162c.194.201.366.424.511.664.116.212.2.442.248.68.046.224.046.456 0 .68-.07.226-.195.431-.363.597a1.828 1.828 0 01-.677.465c-.263.096-.545.13-.824.1a2.758 2.758 0 01-.973-.316 4.763 4.763 0 01-1.056-.796 5.75 5.75 0 01-.824-.963 3.123 3.123 0 01-.446-.846 1.418 1.418 0 010-.697c.066-.219.185-.418.347-.58a1.98 1.98 0 01.346-.282c.123-.076.256-.131.396-.166.18-.063.37-.097.56-.1h.512a1.285 1.285 0 010-.647c.043-.195.14-.374.28-.514a1.52 1.52 0 01.627-.415c.19-.045.383-.073.577-.083.01-.218.06-.432.149-.63.102-.236.247-.45.428-.631.208-.225.454-.41.726-.548.261-.129.551-.186.841-.166.287 0 .57.069.825.2.29.139.558.324.792.547l.346.381c.104.12.198.247.28.382l1.32 1.278a.2.2 0 010 .199.884.884 0 01-.1.282zm-5.294 3.816a.664.664 0 00.181-.647 1.66 1.66 0 00-.462-.78l-1.105-1.128a2.39 2.39 0 00-.478 0 1.082 1.082 0 00-.347 0 .745.745 0 00-.28.133l-.214.166a.731.731 0 00-.132.796c.156.4.412.755.742 1.029.195.209.423.383.676.514.171.105.362.173.56.2.158.034.322.034.48 0 .143-.069.272-.165.379-.283zm2.919-3.866a1.312 1.312 0 00.429-.946 1.333 1.333 0 00-.446-.929 1.816 1.816 0 00-.478-.315 1.299 1.299 0 00-.495 0c-.168.017-.33.067-.478.15a1.798 1.798 0 00-.462.265 1.33 1.33 0 00-.412.929c.025.35.185.678.445.913.145.134.313.24.495.315.172.048.351.06.528.033.166-.025.327-.075.478-.15a1.45 1.45 0 00.396-.265zM17.95 89.1a.433.433 0 01-.33.232.51.51 0 01-.314 0l-3.299-2.274a4.318 4.318 0 00-.428.813 1.802 1.802 0 00-.116.764c.032.255.122.5.264.713.178.265.409.49.676.664.215.145.441.273.676.381l.578.2.428.1a.52.52 0 01.231.065v.084a.265.265 0 010 .132l-.099.183s0 .083-.098.116v.083a.082.082 0 01-.083 0 .704.704 0 01-.247 0l-.495-.133a5.756 5.756 0 01-.627-.265 3.79 3.79 0 01-.858-.2 3.436 3.436 0 01-.956-.929 2.43 2.43 0 01-.445-1.045 2.737 2.737 0 01.115-1.344c.16-.448.388-.868.676-1.245a4.49 4.49 0 01.957-1.045 3.06 3.06 0 011.088-.548 2.625 2.625 0 011.138 0c.403.092.783.261 1.122.498.354.223.653.524.874.88.185.295.298.63.33.979.034.347-.005.697-.116 1.028A4.411 4.411 0 0118.098 89l-.149.1zm-.743-.914c.308-.383.467-.867.445-1.36a1.534 1.534 0 00-.709-1.045 1.745 1.745 0 00-.693-.283 1.46 1.46 0 00-.66 0 1.942 1.942 0 00-.61.282 2.15 2.15 0 00-.51.515l2.737 1.891zm5.887 6.787a1.8 1.8 0 01-.165.282.457.457 0 01-.148.116h-.726l-.297-.116a2.414 2.414 0 01-.676-.465 1.46 1.46 0 01-.33-.58c-.05-.241-.05-.49 0-.73a3.02 3.02 0 01.314-.863l1.533-3.22-.775-.364a.235.235 0 01-.099-.166.948.948 0 01.1-.348l.115-.2.099-.1a.149.149 0 01.099 0h.099l.758.383.627-1.312h.28l.248.117c.089.03.172.075.247.132l.132.1c.01.038.01.078 0 .116l-.627 1.311 1.402.68a.165.165 0 01.083 0v.1c.008.05.008.1 0 .15l-.083.199a.63.63 0 01-.214.298.18.18 0 01-.182 0l-1.402-.68-1.467 3.07c-.16.29-.244.614-.248.945a.7.7 0 00.462.581l.264.083h.511a.518.518 0 010 .133c.038.112.06.23.066.348zm33.415 3.567c.014.105.014.211 0 .316a.305.305 0 010 .183l-.148.132-.231.116-.28.1h-.298a2.782 2.782 0 01-.825 0 1.65 1.65 0 01-.61-.282 1.66 1.66 0 01-.412-.58 4.988 4.988 0 01-.247-.897l-.677-3.435-.84.15a.214.214 0 01-.181-.083.947.947 0 01-.117-.332 1.126 1.126 0 010-.216.526.526 0 010-.166h.1l.824-.149-.23-1.427v-.1a.208.208 0 01.082 0 .316.316 0 01.165 0h.808l.247 1.444 1.534-.266h.099a.342.342 0 010 .133v.216a.667.667 0 010 .365.2.2 0 01-.148.133l-1.188.182.577 3.319c.034.33.153.644.347.913a.694.694 0 00.709.199h.264l.198-.1.148-.1a.18.18 0 01.115 0v.117a.606.606 0 01.215.116zm8.511-5.275c.144.439.227.897.246 1.36.007.414-.065.825-.214 1.212-.153.375-.39.71-.693.978a3.524 3.524 0 01-1.203.68 3.88 3.88 0 01-1.32.2 2.536 2.536 0 01-1.072-.316 2.843 2.843 0 01-.858-.813 4.708 4.708 0 01-.61-1.26 5.17 5.17 0 01-.247-1.361 2.931 2.931 0 01.214-1.211c.154-.376.39-.71.693-.98.35-.303.76-.53 1.204-.663a3.505 3.505 0 011.303-.216c.383.024.756.138 1.088.332.339.201.631.473.858.796.265.388.47.813.61 1.262zm-1.073.431c-.096-.3-.223-.59-.38-.863a2.25 2.25 0 00-.544-.63 1.479 1.479 0 00-.692-.316 1.841 1.841 0 00-.924.1c-.283.08-.539.235-.742.448a1.495 1.495 0 00-.412.647 2.351 2.351 0 00-.083.846c.022.323.088.642.198.946.096.3.223.59.38.863.14.242.325.456.544.63.204.167.449.276.709.316.306.045.618.01.907-.1a2.01 2.01 0 00.759-.448 1.66 1.66 0 00.395-.647 1.972 1.972 0 000-.83 3.45 3.45 0 00-.115-.962zm10.836-1.942a.218.218 0 010 .1.23.23 0 010 .1l-.115.115-.215.116-.23.117h-.149a.133.133 0 01-.099 0l-.38-.697a3.632 3.632 0 01-.494 1.227c-.194.305-.46.556-.775.73-.3.188-.639.301-.99.332a1.883 1.883 0 01-.857-.165 2.35 2.35 0 01-.71-.531 4.997 4.997 0 01-.643-.93l-1.781-3.318a.118.118 0 010-.1.243.243 0 010-.1.364.364 0 01.148-.115.912.912 0 01.133-.116.998.998 0 01.23-.116h.281l1.649 3.102c.141.25.301.488.478.714.136.15.298.274.479.365.164.08.345.119.527.116.191-.017.377-.073.545-.166a1.5 1.5 0 00.758-.647 4.33 4.33 0 00.347-1.129l-1.996-3.782a.218.218 0 010-.1.23.23 0 010-.1l.132-.116.247-.149c.072-.049.15-.088.231-.117h.281l2.968 5.36zm6.893-6.289l.116.166v.133a.228.228 0 010 .1v.165c-.027.118-.06.235-.1.35a2.292 2.292 0 01-.214.464 2.675 2.675 0 01-.33.464c-.136.156-.285.3-.445.432-.3.263-.655.456-1.039.564a2.07 2.07 0 01-1.055 0 2.874 2.874 0 01-1.04-.465 5.044 5.044 0 01-1.005-.979 4.989 4.989 0 01-.693-1.31 3.34 3.34 0 01-.198-1.212 2.29 2.29 0 01.33-1.045c.194-.32.446-.602.742-.83l.462-.315c.159-.08.324-.147.494-.2.145-.048.294-.081.446-.099h.594l.115.1.132.149c.082.11.144.233.181.365v.182a.36.36 0 01-.247 0h-.429c-.18.02-.356.06-.528.117a1.53 1.53 0 00-.594.332 1.393 1.393 0 00-.577 1.26c.093.618.362 1.194.776 1.66.217.272.466.517.741.73.213.168.453.297.71.382.227.057.465.057.692 0 .24-.073.465-.192.66-.349.171-.104.322-.24.445-.398a2.7 2.7 0 00.165-.597c.05-.14.089-.285.116-.432a.431.431 0 01.115-.232h.1l.115.116.247.232zm7.224-6.322v.266l-.18.216-.182.199a.583.583 0 01-.148.1h-.1l-2.787-2.24a3.023 3.023 0 00-.676-.498 1.644 1.644 0 00-.56-.183.947.947 0 00-.528 0 1.302 1.302 0 00-.479.348 1.45 1.45 0 00-.33.83 4.825 4.825 0 000 1.244l3.184 2.821a.33.33 0 010 .117 1.527 1.527 0 01-.247.365l-.1.348-.132.1h-.198l-6.745-6.04v-.117a1.587 1.587 0 010-.166c.055-.07.116-.137.181-.198.083-.106.183-.196.297-.266v-.1a.162.162 0 01.115 0l2.722 2.423a3.63 3.63 0 010-1.228c.08-.332.238-.64.462-.896.22-.274.503-.49.824-.63.343-.148.72-.194 1.089-.133.294.035.58.125.84.265.335.183.645.406.924.664l2.755 2.39zM42.913 99.597a.134.134 0 010 .083.167.167 0 01-.082 0h-.89l-.082-.083.264-3.674c.033-.28.033-.562 0-.84a1.869 1.869 0 00-.198-.56.888.888 0 00-.362-.38 1.251 1.251 0 00-.56-.181 1.432 1.432 0 00-.857.23 4.23 4.23 0 00-.956.792l-.362 4.234a.132.132 0 010 .082.149.149 0 01-.099 0h-.956a.217.217 0 010-.099l.528-6.047v-.082h.642a.31.31 0 01.148 0h.083v.099l-.083.791a3.979 3.979 0 011.088-.742c.333-.138.694-.2 1.054-.181a2.5 2.5 0 011.005.297c.25.15.46.36.61.61.152.258.252.543.296.84.042.367.042.737 0 1.104l-.23 3.707z"/><path fill-rule="evenodd" clip-rule="evenodd" d="M211.369 20.571h-8.765l-7.249 32.163h6.772l1.45-7.81h6.59l1.647 7.81h7.133l-7.578-32.163zm-6.919 17.845l1.087-5.635c.132-.626.247-1.285.362-1.994.116-.709.248-1.384.363-2.092a43.9 43.9 0 01.362-1.978c.132.626.28 1.285.429 1.978l.445 2.092c.148.676.279 1.335.411 1.944l1.236 5.685h-4.695zm-41.598-17.845v32.18h29.737V20.57h-6.294v24.913h-5.436V20.571h-6.294v24.913h-5.437V20.571h-6.276zm-2.884 6.97a10.95 10.95 0 00-.989-2.686 7.465 7.465 0 00-1.433-1.993 8.238 8.238 0 00-2.998-1.895 13.036 13.036 0 00-4.465-.676c-1.335 0-2.537 0-3.575.1-1.038.098-1.96.148-2.751.263-.791.115-1.483.23-2.06.346v31.735h6.343V42.008l.758.082c.329.019.659.019.988 0a11.93 11.93 0 004.729-.84 8.96 8.96 0 003.558-2.686 8.696 8.696 0 001.252-2.142c.341-.86.589-1.756.742-2.669.166-.996.249-2.005.247-3.015a13.536 13.536 0 00-.346-3.197zm-6.59 5.75a3.596 3.596 0 01-1.499 1.517 4.48 4.48 0 01-2.192.51h-1.005a6.142 6.142 0 01-.593-.197v-7.959a4.54 4.54 0 01.791-.132h1.318a4.31 4.31 0 012.126.495c.551.302.995.768 1.268 1.334.292.641.432 1.34.412 2.044a5.054 5.054 0 01-.544 2.389h-.082zm-15.553-.543h-9.308v-4.91h9.901V20.57h-16.326v32.18h16.837v-7.267h-10.412v-5.486h9.308v-7.25zM97.463 20.571v32.18h6.425V27.838h8.155V52.75h6.425V20.57H97.463zm117.233 37.717h-4.069l-3.295 11.187h3.147l.675-2.735h3.097l.791 2.735h3.295l-3.641-11.187zm-3.179 6.162l.494-1.945c0-.23.115-.46.181-.692.066-.23.099-.494.165-.724.066-.231.099-.478.165-.693.065.21.132.44.197.693l.198.724c.079.222.145.447.198.676l.576 1.961h-2.174zm-10.775-.511a3.296 3.296 0 00-1.153-.56 3.148 3.148 0 001.038-.61c.254-.219.452-.496.576-.807a2.11 2.11 0 00.182-.907c0-.367-.072-.731-.215-1.07a2.343 2.343 0 00-.593-.791 2.631 2.631 0 00-.823-.511 3.662 3.662 0 00-.643-.215 4.297 4.297 0 00-.725-.148h-4.991l-.643.1v10.973c.297 0 .692.082 1.203.132h1.861c.683 0 1.365-.039 2.043-.116a7.78 7.78 0 001.516-.33c.375-.116.73-.288 1.054-.51.263-.13.507-.297.725-.494.203-.253.365-.537.478-.84a3.41 3.41 0 00.165-1.022c.01-.432-.081-.86-.264-1.252a2.92 2.92 0 00-.791-1.022zm-4.942-3.444h1.071c.41-.026.82.06 1.186.247a.858.858 0 01.395.742.884.884 0 01-.494.807 3.3 3.3 0 01-1.532.297h-.626v-2.093zm2.603 6.261a1.516 1.516 0 01-.676.445 3.552 3.552 0 01-.972.132h-.955V64.78h.774c.361-.015.722.024 1.071.116.285.056.549.193.758.395a1.01 1.01 0 01.263.742 1.12 1.12 0 01-.345.724h.082zm-13.41-7.036a4.946 4.946 0 00-1.796-1.202 6.576 6.576 0 00-2.421-.428 6.42 6.42 0 00-2.389.428c-.687.286-1.313.7-1.845 1.22a5.391 5.391 0 00-1.17 1.878 6.369 6.369 0 00-.428 2.356 6.672 6.672 0 00.378 2.257 5.448 5.448 0 001.121 1.846 4.934 4.934 0 001.779 1.203 6.27 6.27 0 002.356.445 6.866 6.866 0 002.471-.445 5.165 5.165 0 001.862-1.22 5.41 5.41 0 001.169-1.862 6.579 6.579 0 00.412-2.34 6.366 6.366 0 00-.395-2.273 5.09 5.09 0 00-1.104-1.862zm-1.845 5.504a3.287 3.287 0 01-.511 1.071 2.188 2.188 0 01-.807.692 2.128 2.128 0 01-1.088.264 2.208 2.208 0 01-1.087-.264 2.546 2.546 0 01-.824-.692 3.577 3.577 0 01-.51-1.07 4.187 4.187 0 01-.181-1.335 4.368 4.368 0 01.181-1.335 3.41 3.41 0 01.51-1.07c.222-.297.502-.544.824-.726a2.391 2.391 0 011.087-.247c.372-.006.74.078 1.071.247.329.172.611.421.824.725.244.32.423.683.527 1.071.13.433.19.883.182 1.335.006.452-.061.903-.198 1.334zm-13.986-6.936h-3.526l-.724 1.779-.231.577c0 .18-.148.379-.214.576-.066.198-.149.429-.247.676l-.248-.61a6.882 6.882 0 01-.263-.61 6.966 6.966 0 00-.297-.642l-.807-1.746h-3.591l3.294 5.536-3.294 5.651h3.427l.823-1.878c.115-.23.214-.445.297-.659l.263-.61a6.62 6.62 0 00.215-.61l.313.61.279.626.33.676.873 1.845h3.559l-3.443-5.783 3.212-5.404zm-23.313 0l-3.294 11.187h3.13l.692-2.735h3.08l.808 2.735h3.295l-3.641-11.187h-4.07zm.94 6.162l.494-1.945c0-.23.115-.46.181-.692.066-.23.099-.494.165-.724.066-.231.099-.478.165-.693.065.21.131.44.197.693l.198.724.198.676.576 1.961h-2.174zm-10.347-4.614a2.653 2.653 0 00-.659-.692 4.19 4.19 0 00-1.417-.66 8.121 8.121 0 00-2.043-.296h-1.647l-1.285.083-.955.132v11.04h2.965v-3.708h.791a7.514 7.514 0 002.207-.297 4.242 4.242 0 001.648-.922c.233-.22.428-.475.576-.759a3.44 3.44 0 00.363-.922c.072-.347.111-.7.115-1.054a4.094 4.094 0 00-.181-1.121 2.933 2.933 0 00-.478-.824zm-2.57 2.933c-.173.24-.414.424-.692.527a2.847 2.847 0 01-1.038.181h-.758v-2.9h.973a2.49 2.49 0 01.988.166c.238.092.444.253.593.46a1.547 1.547 0 010 1.566h-.066zm-20.544-1.928h2.999v8.634h2.982v-8.634h3.064v-2.553h-9.045v2.553zm-10.84.544a3.1 3.1 0 011.071-.593c.418-.12.85-.18 1.285-.181.307-.026.616-.026.922 0 .261.042.52.097.775.165l.626.23.609-2.422a3.278 3.278 0 00-.708-.28 11.728 11.728 0 00-1.054-.214 10.474 10.474 0 00-1.285 0 7.99 7.99 0 00-2.01.247 6.318 6.318 0 00-1.746.742 5.162 5.162 0 00-1.401 1.202 5.245 5.245 0 00-.906 1.648 6.591 6.591 0 00-.33 2.11c-.007.59.07 1.178.231 1.746.152.549.397 1.067.725 1.532.329.477.742.89 1.219 1.22a5.607 5.607 0 001.763.823 8.02 8.02 0 002.29.297c.447.003.893-.03 1.335-.1a6.43 6.43 0 001.037-.197c.228-.057.45-.14.659-.247l-.444-2.406c-.201.09-.411.157-.627.198a5.352 5.352 0 01-.774.148c-.28.017-.56.017-.84 0-.494 0-.984-.083-1.45-.247a2.928 2.928 0 01-1.763-1.697 3.841 3.841 0 01-.23-1.334 3.69 3.69 0 01.28-1.434 2.76 2.76 0 01.741-.956z"/></svg>