<svg width="239" height="102" viewBox="0 0 239 102" xmlns="http://www.w3.org/2000/svg"><path d="M238.819 75.995H.332v3.631h238.487v-3.63zM6.331 100.894H4.75L.332 88.126h2.147l3.066 9.286 3.075-9.286h2.13l-4.42 12.768zm6.309-12.768h2.023v12.768H12.64V88.126zm5.566 12.768V88.126h8.518v1.767H20.22v3.729h5.548v1.767H20.22v3.835h6.503v1.767l-8.518-.097zm19.518 0l-6.185-8.986v8.986h-1.988V88.126h1.847l6.184 8.968v-8.968h2.024v12.768h-1.882zm13.58 0l-6.185-8.986v8.986h-1.997V88.126h1.847l6.185 8.968v-8.968h2.014v12.768h-1.864zm13.041 0l-.883-2.563H58.16l-.883 2.563h-2.165l4.886-12.768h1.626l4.886 12.768h-2.165zm-3.534-9.879l-2.076 5.664h4.1l-2.024-5.663zm12.131-2.889h2.023v12.768h-1.988l-.035-12.768zm13.74 12.768l-6.186-8.986v8.986h-1.961V88.126h1.855l6.185 8.968v-8.968h2.023v12.768h-1.917zm8.932.106a6.187 6.187 0 01-4.718-1.688l1.352-1.272a4.487 4.487 0 003.401 1.219c1.767 0 2.757-.716 2.757-1.953a1.652 1.652 0 00-.53-1.325 2.324 2.324 0 00-1.458-.539l-1.573-.212a4.708 4.708 0 01-2.527-1.025 3.101 3.101 0 01-.972-2.439c0-2.226 1.688-3.746 4.418-3.746a5.673 5.673 0 014.135 1.45l-1.29 1.219a4.02 4.02 0 00-2.898-.99c-1.573 0-2.439.884-2.439 1.997a1.476 1.476 0 00.513 1.184c.436.327.951.532 1.493.592l1.52.212a4.497 4.497 0 012.492.954 3.279 3.279 0 011.077 2.65c0 2.35-1.996 3.747-4.788 3.747m12.113 0c-2.713 0-4.771-1.767-4.771-4.418v-8.49h2.014v8.375a2.768 2.768 0 002.761 2.61 2.767 2.767 0 002.762-2.61v-8.376h2.085v8.465c0 2.65-2.077 4.417-4.789 4.417m15.48-.106l-2.801-5.363h-2.527v5.381h-2.024V88.126h5.169c2.527 0 4.135 1.555 4.135 3.729a3.38 3.38 0 01-2.65 3.393l3.066 5.646-2.368.008zm-2.342-11.026h-2.995v3.993h2.995c1.352 0 2.271-.733 2.271-1.988a2.013 2.013 0 00-.678-1.52 2.003 2.003 0 00-1.593-.485zm14.941 11.026l-.884-2.562h-5.301l-.883 2.562h-2.174l4.886-12.767h1.635l4.886 12.767h-2.165zm-3.534-9.878l-2.077 5.664h4.1l-2.023-5.664zm15.762 9.878l-6.185-8.985v8.985h-1.943V88.126h1.855l6.185 8.968v-8.968h2.023v12.768l-1.935.008zm9.719.106a4.964 4.964 0 01-3.534-1.36c-1.307-1.255-1.29-2.65-1.29-5.134 0-2.482 0-3.87 1.29-5.124a4.93 4.93 0 013.534-1.36 5.023 5.023 0 013.729 1.501l-1.352 1.308a3.072 3.072 0 00-2.377-1.078 2.712 2.712 0 00-1.961.777c-.654.68-.786 1.414-.786 3.976 0 2.563.132 3.305.786 3.985a2.706 2.706 0 001.961.769 3.05 3.05 0 002.377-1.078l1.352 1.316a5.02 5.02 0 01-3.729 1.502zm6.494-.106V88.126h8.527v1.767h-6.503v3.729h5.548v1.767h-5.548v3.835h6.503v1.767l-8.527-.089zm23.856-1.36a5.216 5.216 0 01-7.139.106c-1.307-1.255-1.29-2.65-1.29-5.134 0-2.482 0-3.87 1.29-5.124a4.882 4.882 0 013.534-1.36 5.159 5.159 0 014.021 1.678l-1.37 1.316a3.417 3.417 0 00-2.651-1.263 2.78 2.78 0 00-1.988.795c-.653.68-.786 1.396-.786 3.958 0 2.563.133 3.305.786 3.985a2.97 2.97 0 004.118-.123c.47-.57.704-1.297.654-2.033v-.698h-2.784v-1.652h4.807v1.926a4.728 4.728 0 01-1.175 3.623m11.486 1.36l-2.863-5.363h-2.527v5.381h-2.023V88.126h5.133c2.527 0 4.135 1.555 4.135 3.729a3.394 3.394 0 01-2.65 3.393l3.066 5.646-2.271.008zm-2.333-11.026h-2.995v3.993h2.995a2.016 2.016 0 001.594-3.512 2.015 2.015 0 00-1.594-.481zm15.074 9.763a4.961 4.961 0 01-3.535 1.361 4.897 4.897 0 01-3.534-1.361c-1.307-1.255-1.29-2.65-1.29-5.133s0-3.87 1.29-5.125a4.855 4.855 0 013.534-1.36 4.925 4.925 0 013.535 1.36c1.307 1.255 1.272 2.65 1.272 5.124 0 2.475 0 3.88-1.272 5.134zm-1.538-9.092a2.87 2.87 0 00-3.967 0c-.663.68-.786 1.396-.786 3.959 0 2.562.123 3.286.786 3.967a2.899 2.899 0 003.967 0c.654-.68.787-1.396.787-3.968 0-2.57-.133-3.277-.787-3.958zM221.219 101c-2.712 0-4.771-1.767-4.771-4.418v-8.456h2.014v8.376a2.768 2.768 0 002.762 2.61 2.764 2.764 0 002.761-2.61v-8.376h2.023v8.465c0 2.65-2.076 4.417-4.789 4.417m13.174-5.124h-3.031v5.018h-2.023V88.126h5.054c2.606 0 4.276 1.652 4.276 3.87s-1.67 3.879-4.276 3.879m-.106-6.008h-2.925v4.25h2.925a2.139 2.139 0 100-4.25zm-23.927-74.73a4.034 4.034 0 00-2.871-1.193 3.766 3.766 0 00-2.651 1.113 3.688 3.688 0 00-1.069 2.65 4.02 4.02 0 001.184 2.863l1.422 1.423 5.434-5.451-1.449-1.405zm14.393 5.345a3.986 3.986 0 001.184-2.827 3.872 3.872 0 00-1.069-2.65 3.675 3.675 0 00-2.651-1.07 4.02 4.02 0 00-2.924 1.202l-1.432 1.431 5.408 5.407 1.484-1.493zm-9.93-.919l-5.443 5.452 5.425 5.416 5.434-5.452-5.416-5.416zm4.55 15.436a3.99 3.99 0 002.862 1.184 3.87 3.87 0 002.651-1.07 4.42 4.42 0 001.034-2.747 4.044 4.044 0 00-1.167-2.863l-1.511-1.51-5.442 5.442 1.573 1.564zm-14.482-5.496a4.006 4.006 0 00-1.184 2.863 3.66 3.66 0 003.746 3.746 4.038 4.038 0 002.863-1.184l1.493-1.502-5.416-5.425-1.502 1.502z"/><path d="M231.751 8.068a23.972 23.972 0 10-33.883 33.919A23.972 23.972 0 00231.75 8.068zm-3.861 30.04a8.016 8.016 0 01-5.69 2.333 8.189 8.189 0 01-5.884-2.447l-1.511-1.511-1.538 1.458a8.157 8.157 0 01-5.875 2.447 7.952 7.952 0 01-7.952-8.022 8.179 8.179 0 012.447-5.885l1.502-1.51-1.466-1.467a8.178 8.178 0 01-2.448-5.885 7.957 7.957 0 014.941-7.43 7.945 7.945 0 013.082-.592 8.242 8.242 0 015.884 2.447l1.458 1.45 1.449-1.45a8.299 8.299 0 015.884-2.447 7.954 7.954 0 015.69 2.332 8.075 8.075 0 012.333 5.69 8.298 8.298 0 01-2.447 5.885l-1.449 1.449 1.528 1.528a8.215 8.215 0 012.439 5.885 8.371 8.371 0 01-2.368 5.69m-185.952-.371c0 5.637-1.437 9.981-4.312 13.032-2.874 3.051-6.768 4.577-11.68 4.577-4.942 0-8.833-1.526-11.672-4.577-2.84-3.051-4.276-7.395-4.312-13.032V2.13H.385v35.21c0 8.593 2.356 15.243 7.068 19.95 4.812 4.659 10.98 6.983 18.502 6.971 7.522-.012 13.68-2.368 18.475-7.068 4.765-4.713 7.148-11.336 7.148-19.871V2.13h-9.631v35.554zM99.9 31.924A58.55 58.55 0 0088.74 27.4l-6.971-2.006-1.767-.61a52.049 52.049 0 01-2.182-.83 8.378 8.378 0 01-1.476-.742c-2.374-1.685-3.56-3.51-3.56-5.478a6.495 6.495 0 013.18-5.62c2.12-1.419 5.216-2.132 9.286-2.137a36.764 36.764 0 0119.341 5.663V6.054A37.303 37.303 0 0085.082 1c-6.791 0-12.18 1.51-16.169 4.532a14.446 14.446 0 00-5.964 12.114c0 5.578 2.091 9.672 6.273 12.281a42.112 42.112 0 006.097 3.057c1.98.751 4.621 1.6 7.952 2.527l1.22.345a57.336 57.336 0 018.367 2.88c1.14.431 2.2 1.05 3.136 1.829a7.245 7.245 0 012.704 5.663c0 2.792-1.326 4.993-3.967 6.618-2.642 1.626-6.044 2.448-10.17 2.448-4.29-.02-8.542-.82-12.546-2.36a32.965 32.965 0 01-9.834-5.575v10.373c5.978 4.36 13.618 6.539 22.919 6.539 6.68 0 12.258-1.63 16.734-4.886a15.604 15.604 0 006.689-13.324c-.342-6.48-3.216-11.192-8.624-14.137zm67.176-3.994h-1.768l-14.772.018v9.586h14.746v7.731a9.142 9.142 0 01-5.867 8.562 24.61 24.61 0 01-8.835 1.484 21.72 21.72 0 01-15.604-6.185c-.265-.265-.495-.547-.742-.821a21.519 21.519 0 01-5.39-12.759 28.534 28.534 0 01-.141-2.8c0-6.615 2.15-12.076 6.45-16.382 4.3-4.305 9.76-6.426 16.381-6.361a31.48 31.48 0 0118.21 5.752V6.23C164.637 2.743 158.364 1 150.924 1c-9.23 0-16.87 2.992-22.919 8.976-6.049 5.985-9.098 13.536-9.145 22.654 0 7.575 2.086 14.087 6.256 19.536a32.552 32.552 0 002.801 3.216 31.239 31.239 0 008.084 5.699 32.906 32.906 0 0014.579 3.18 34.572 34.572 0 0013.986-2.836l.787-.353a16.46 16.46 0 009.533-14.923V27.93h-7.81z"/></svg>