<svg width="579" height="196" viewBox="0 0 579 196" xmlns="http://www.w3.org/2000/svg">
<path fill-rule="evenodd" clip-rule="evenodd" d="M135.374 66.7263C134.585 64.7475 133.221 63.0509 131.458 61.8556C129.695 60.6604 127.615 60.0215 125.485 60.0215C123.355 60.0215 121.274 60.6604 119.511 61.8556C117.749 63.0509 116.385 64.7475 115.596 66.7263L92 127.62L105.448 132.805L110.57 118.582H140.338L145.469 132.805L158.908 127.62L135.374 66.7263ZM125.472 106.794H114.851L125.472 77.4636L136.092 106.794H125.472Z" />
<path d="M250.672 60H245.821V132.805H250.672V60Z" />
<path fill-rule="evenodd" clip-rule="evenodd" d="M394.535 70.894C393.081 70.8387 391.635 71.1393 390.323 71.7698V60.9712H383.74V71.726C382.43 71.0966 380.988 70.796 379.536 70.8502C372.822 70.8502 368.732 74.9314 368.732 84.0571C368.732 92.5437 372.418 97.0102 378.434 97.0102C380.28 97.0976 382.116 96.6765 383.74 95.7928V104.814H390.323V95.8366C391.949 96.7207 393.789 97.1417 395.637 97.054C401.223 97.054 405.339 92.421 405.339 83.9171C405.339 74.8088 401.241 70.894 394.535 70.894ZM383.74 91.0374C382.66 91.4286 381.516 91.6099 380.368 91.5715C376.918 91.5715 375.5 88.7515 375.5 84.1361C375.5 79.1002 377.032 76.4465 380.054 76.4465C381.326 76.3512 382.6 76.6056 383.74 77.1822V91.0374ZM393.703 91.5715C392.553 91.6091 391.405 91.4278 390.323 91.0374V77.1472C391.465 76.569 392.743 76.3146 394.017 76.4115C397.039 76.4115 398.571 78.8987 398.571 83.9608C398.571 88.55 396.689 91.5278 393.703 91.5278V91.5715Z" />
<path fill-rule="evenodd" clip-rule="evenodd" d="M316.041 72.4629V84.8466C316.197 86.6767 316.053 88.5198 315.613 90.3029C315.241 91.5167 314.465 92.567 313.415 93.2806L315.263 97.1516C320.515 95.6541 322.547 93.3508 322.547 86.0202V76.9295C323.701 76.7109 324.874 76.6053 326.048 76.6142C327.2 76.6049 328.35 76.7106 329.48 76.9295V96.6349H336.082V72.4629C332.838 71.4278 329.454 70.9048 326.048 70.9128C322.653 70.9015 319.275 71.4246 316.041 72.4629Z" />
<path fill-rule="evenodd" clip-rule="evenodd" d="M432.36 94.2356C430.769 92.0546 429.997 89.3811 430.181 86.6863V79.9339C430.181 76.2819 429.761 74.9331 428.781 73.6107C427.459 71.7277 425.209 70.9132 421.093 70.9132C418.233 70.8957 415.383 71.237 412.609 71.9292L413.589 76.7636C415.303 76.4938 417.031 76.3329 418.765 76.2819C423.141 76.2819 423.641 76.93 423.641 80.1966V81.414C422.557 81.1173 421.437 80.967 420.313 80.9674C413.711 80.9674 410.228 84.1816 410.228 89.489C410.228 94.4722 413.939 97.2046 418.493 97.2046C420.149 97.217 421.795 96.92 423.343 96.3289C424.147 95.9764 424.913 95.542 425.629 95.0326C426.301 95.9382 427.185 96.6658 428.203 97.152L432.36 94.2356ZM420.427 91.9499C418.063 91.9499 416.741 91.0215 416.741 88.6043C416.741 86.1871 418.441 85.2325 421.697 85.2325C422.355 85.2159 423.011 85.3016 423.641 85.4865V87.238C423.577 88.5993 423.695 89.9628 423.991 91.2931C422.853 91.7249 421.645 91.9475 420.427 91.9499Z" />
<path fill-rule="evenodd" clip-rule="evenodd" d="M363.829 87.649C363.829 82.2455 360.511 78.8911 354.293 78.8911C352.865 78.9166 351.447 79.1286 350.073 79.5217V71.3242H343.472V95.3211C346.528 96.5752 349.799 97.2207 353.103 97.2215C360.073 97.2215 363.829 93.6045 363.829 87.649ZM350.073 91.739V84.5224C351.019 84.2688 351.993 84.1365 352.971 84.1283C355.993 84.1283 357.007 85.6085 357.007 87.9905C357.007 90.3728 356.133 92.1595 352.971 92.1595C351.987 92.1957 351.005 92.0532 350.073 91.739Z" />
<path fill-rule="evenodd" clip-rule="evenodd" d="M292.619 60.9186C291.515 61.0145 290.449 61.3749 289.512 61.9695C288.577 62.5828 287.801 63.408 287.245 64.378C283.375 75.0802 279.514 85.7883 275.661 96.5022L282.429 98.9893L285.003 91.5277H300.203L302.829 99.1296L309.667 96.3621L297.671 63.7912C297.205 62.8685 296.477 62.1038 295.579 61.5929C294.683 61.0753 293.651 60.8402 292.619 60.9186ZM287.183 85.2131L292.619 69.5714L298.023 85.2569L287.183 85.2131Z" />
<path d="M275.54 120.684C275.494 119.067 275.775 117.458 276.366 115.953C276.958 114.448 277.847 113.078 278.981 111.926C280.121 110.77 281.486 109.863 282.993 109.26C284.5 108.657 286.114 108.372 287.736 108.423C291.378 108.423 294.296 109.476 296.492 111.584L294.792 114.089C293.858 113.273 292.784 112.632 291.624 112.197C290.436 111.737 289.176 111.497 287.903 111.488C286.7 111.432 285.499 111.639 284.384 112.092C283.268 112.546 282.264 113.236 281.441 114.115C279.821 115.908 278.961 118.26 279.042 120.675C278.976 123.145 279.852 125.547 281.494 127.392C282.304 128.3 283.305 129.018 284.425 129.493C285.545 129.969 286.757 130.191 287.973 130.142C289.334 130.135 290.68 129.852 291.93 129.31C293.204 128.776 294.362 127.996 295.336 127.016L297.13 129.433C295.928 130.666 294.486 131.639 292.892 132.293C291.299 132.946 289.589 133.267 287.868 133.234C286.22 133.297 284.578 133.011 283.049 132.393C281.521 131.776 280.14 130.842 278.998 129.652C277.857 128.461 276.964 127.054 276.37 125.515C275.776 123.975 275.494 122.333 275.54 120.684Z" />
<path d="M305.002 132.806V118.452H299.022V115.632H314.266V118.452H308.258V132.806H305.002Z" />
<path d="M318.335 139.601V115.63H321.391V117.154L321.287 118.45H321.391C321.909 117.439 322.713 116.604 323.703 116.05C324.751 115.471 325.929 115.169 327.127 115.175C328.172 115.134 329.212 115.336 330.166 115.766C331.12 116.197 331.962 116.842 332.624 117.653C334.052 119.519 334.776 121.83 334.664 124.178C334.778 126.55 334.004 128.88 332.492 130.711C331.798 131.511 330.936 132.146 329.968 132.571C328.998 132.997 327.946 133.202 326.891 133.172C325.823 133.202 324.767 132.948 323.829 132.436C322.893 131.924 322.109 131.171 321.557 130.256H321.497C321.593 130.746 321.637 131.245 321.627 131.745V139.557L318.335 139.601ZM321.523 124.283C321.489 125.809 321.951 127.305 322.837 128.548C323.227 129.125 323.757 129.593 324.377 129.91C324.997 130.227 325.687 130.382 326.383 130.361C327.053 130.366 327.715 130.221 328.32 129.936C328.926 129.651 329.46 129.234 329.884 128.714C330.894 127.452 331.402 125.862 331.31 124.248C331.39 122.652 330.916 121.078 329.972 119.79C329.562 119.253 329.03 118.821 328.422 118.529C327.813 118.237 327.145 118.093 326.469 118.109C325.809 118.1 325.153 118.236 324.549 118.505C323.943 118.774 323.405 119.17 322.967 119.667C321.925 120.971 321.409 122.618 321.523 124.283Z" />
<path d="M338.154 128.118C338.118 126.965 338.49 125.836 339.206 124.93C339.936 124.05 340.91 123.407 342.008 123.082C343.062 122.732 344.146 122.474 345.248 122.312C346.296 122.176 347.35 122.108 348.408 122.11H349.283V121.769C349.283 119.264 348.032 118.003 345.518 118.003C343.778 118.035 342.092 118.618 340.702 119.667L339.372 117.258C340.222 116.593 341.19 116.097 342.226 115.796C343.376 115.419 344.58 115.223 345.79 115.218C346.702 115.161 347.616 115.287 348.477 115.588C349.341 115.889 350.135 116.358 350.815 116.969C351.431 117.639 351.903 118.427 352.203 119.285C352.505 120.143 352.627 121.054 352.565 121.961V132.821H349.493V131.07L349.589 129.712H349.527C348.999 130.736 348.208 131.601 347.234 132.217C346.242 132.871 345.078 133.216 343.89 133.207C342.422 133.241 340.988 132.747 339.854 131.814C339.302 131.373 338.86 130.809 338.566 130.168C338.27 129.526 338.13 128.824 338.154 128.118ZM341.448 127.847C341.446 128.213 341.524 128.575 341.676 128.909C341.826 129.243 342.048 129.54 342.322 129.782C342.974 130.357 343.828 130.65 344.696 130.597C345.346 130.607 345.99 130.458 346.57 130.161C347.15 129.865 347.65 129.431 348.022 128.898C348.861 127.823 349.315 126.496 349.309 125.132V124.492H348.434C343.776 124.492 341.448 125.61 341.448 127.847Z" />
<path d="M356.314 132.806L362.18 123.978L356.646 115.632H360.42L363.606 120.886L364.15 121.902H364.22C364.448 121.517 364.64 121.176 364.798 120.886L367.984 115.632H371.75L366.224 123.978L372.092 132.806H368.362L364.762 127.07L364.22 126.194H364.15C364.004 126.499 363.834 126.791 363.642 127.07L360.044 132.806H356.314Z" />
<path d="M375.218 136.371C375.768 136.841 376.464 137.107 377.188 137.124C378.566 137.124 379.604 136.274 380.304 134.575L381.18 132.605L373.922 115.632H377.626L381.933 126.868L382.581 128.935H382.677C382.829 128.247 383.021 127.568 383.255 126.903L387.421 115.632H390.985L382.913 135.898C382.493 137.102 381.717 138.149 380.69 138.902C379.712 139.589 378.54 139.951 377.346 139.935C376.778 139.949 376.214 139.869 375.672 139.699C375.244 139.574 374.834 139.391 374.456 139.156L374.044 138.919L375.218 136.371Z" />
<path d="M395.068 132.803V115.629H402.168C403.65 115.548 405.118 115.947 406.354 116.768C406.864 117.142 407.272 117.637 407.544 118.209C407.814 118.781 407.938 119.411 407.904 120.043C407.912 120.843 407.686 121.628 407.256 122.303C406.814 122.974 406.184 123.498 405.444 123.809C406.396 124.005 407.25 124.533 407.852 125.298C408.53 126.246 408.818 127.419 408.654 128.574C408.492 129.728 407.89 130.776 406.976 131.499C405.622 132.408 404.008 132.853 402.38 132.768L395.068 132.803ZM398.36 122.889H401.592C402.388 122.949 403.178 122.701 403.798 122.198C404.052 121.949 404.248 121.65 404.378 121.319C404.506 120.988 404.562 120.634 404.542 120.28C404.542 118.692 403.524 117.9 401.486 117.906H398.36V122.889ZM398.36 130.5H401.862C402.794 130.572 403.722 130.318 404.49 129.782C404.774 129.535 405 129.231 405.156 128.888C405.312 128.546 405.394 128.174 405.394 127.798C405.394 127.422 405.312 127.05 405.156 126.708C405 126.366 404.774 126.061 404.49 125.815C403.72 125.285 402.794 125.032 401.862 125.096H398.36V130.5Z" />
<path d="M412.14 128.118C412.104 126.965 412.476 125.836 413.192 124.93C413.924 124.052 414.898 123.409 415.994 123.083C417.052 122.733 418.138 122.475 419.242 122.312C420.286 122.175 421.34 122.108 422.394 122.11H423.27V121.769C423.27 119.264 422.008 118.003 419.496 118.003C417.756 118.037 416.07 118.619 414.68 119.667L413.358 117.258C414.204 116.593 415.17 116.097 416.204 115.796C417.354 115.419 418.556 115.224 419.768 115.218C420.68 115.16 421.594 115.285 422.456 115.586C423.32 115.887 424.113 116.357 424.793 116.969C425.409 117.638 425.883 118.426 426.185 119.284C426.485 120.143 426.607 121.054 426.543 121.962V132.821H423.48V131.07L423.584 129.712H423.514C422.982 130.742 422.184 131.61 421.204 132.226C420.212 132.88 419.046 133.225 417.858 133.215C416.394 133.244 414.968 132.746 413.84 131.814C413.29 131.372 412.85 130.808 412.554 130.167C412.26 129.525 412.118 128.824 412.14 128.118ZM415.434 127.847C415.436 128.213 415.516 128.574 415.666 128.907C415.818 129.24 416.036 129.538 416.308 129.782C416.964 130.358 417.82 130.651 418.69 130.597C419.34 130.607 419.982 130.458 420.562 130.162C421.14 129.865 421.638 129.431 422.008 128.898C422.854 127.826 423.312 126.498 423.304 125.132V124.493H422.428C417.764 124.493 415.434 125.611 415.434 127.847Z" />
<path d="M432.268 132.806V115.632H435.559V122.638H444.245V115.632H447.537V132.806H444.245V125.441H435.559V132.806H432.268Z" />
<path d="M453.484 132.806V115.632H456.776V122.638H465.462V115.632H468.754V132.806H465.462V125.441H456.776V132.806H453.484Z" />
<path d="M472.965 132.804L476.931 127.103L477.711 126.052C476.673 125.758 475.755 125.145 475.085 124.3C474.287 123.237 473.905 121.917 474.015 120.592C474.125 119.267 474.717 118.028 475.679 117.11C476.951 116.121 478.535 115.621 480.144 115.7H487V132.804H483.708V126.56H480.818L476.607 132.769L472.965 132.804ZM480.844 124.187H483.698V117.907H480.95C478.523 117.907 477.311 118.935 477.317 120.99C477.287 121.435 477.361 121.882 477.531 122.295C477.701 122.708 477.963 123.076 478.297 123.372C479.021 123.936 479.92 124.225 480.836 124.187H480.844Z" />
<path d="M216.381 114.93C212.408 117.997 207.513 119.627 202.495 119.554C190.395 119.554 178.137 111.602 178.137 96.4069C178.137 81.2119 190.395 73.2508 202.495 73.2508C207.512 73.1823 212.406 74.8118 216.381 77.875L221.188 65.3336C215.538 61.8528 209.034 60.0066 202.398 60C180.764 60 164.085 76.2811 164.085 96.4069C164.085 116.533 180.72 132.805 202.398 132.805C209.046 132.793 215.56 130.934 221.214 127.436L216.407 114.912L216.381 114.93Z" />
</svg>
