<svg width="496" height="101" viewBox="0 0 496 101" xmlns="http://www.w3.org/2000/svg"><path fill-rule="evenodd" clip-rule="evenodd" d="M55.21 8.414A13.323 13.323 0 0042.838.026a13.317 13.317 0 00-12.372 8.388L.947 84.594l16.825 6.487 6.407-17.793H61.42l6.42 17.792 16.813-6.486L55.21 8.415zM42.82 58.54H29.535l13.287-36.693L56.108 58.54H42.822z"/><path d="M199.451 0h-6.068v91.082h6.068V0z"/><path fill-rule="evenodd" clip-rule="evenodd" d="M379.428 13.629a11.19 11.19 0 00-5.269 1.096V1.215h-8.236V14.67a11.177 11.177 0 00-5.259-1.096c-8.399 0-13.516 5.106-13.516 16.523 0 10.617 4.612 16.204 12.137 16.204 2.31.11 4.606-.417 6.638-1.523v11.286h8.236v-11.23a12.668 12.668 0 006.648 1.522c6.988 0 12.137-5.796 12.137-16.435 0-11.394-5.127-16.292-13.516-16.292zm-13.505 25.2c-1.351.49-2.782.716-4.218.668-4.316 0-6.09-3.528-6.09-9.302 0-6.3 1.916-9.62 5.697-9.62a8.764 8.764 0 014.611.92V38.83zm12.465.668a11.371 11.371 0 01-4.229-.668V21.452a8.765 8.765 0 014.622-.92c3.78 0 5.696 3.111 5.696 9.444 0 5.741-2.354 9.467-6.089 9.467v.054zM281.23 15.592v15.492c.196 2.29.015 4.595-.535 6.826a6.974 6.974 0 01-2.75 3.726l2.312 4.842c6.57-1.873 9.112-4.755 9.112-13.925V21.18a22.629 22.629 0 014.381-.395 21.65 21.65 0 014.293.395v24.652h8.259v-30.24a40.962 40.962 0 00-12.552-1.94 40.522 40.522 0 00-12.52 1.94zM426.751 42.83a14.36 14.36 0 01-2.728-9.444v-8.448c0-4.569-.525-6.256-1.751-7.91-1.654-2.356-4.468-3.375-9.617-3.375a42.76 42.76 0 00-10.614 1.271l1.226 6.048a51.378 51.378 0 016.475-.603c5.475 0 6.1.811 6.1 4.898v1.523a15.747 15.747 0 00-4.163-.559c-8.259 0-12.617 4.021-12.617 10.661 0 6.234 4.643 9.652 10.34 9.652a16.659 16.659 0 006.067-1.095 16.056 16.056 0 002.86-1.622 8.66 8.66 0 003.22 2.652l5.202-3.649zm-14.93-2.86c-2.957 0-4.611-1.16-4.611-4.185 0-3.024 2.127-4.218 6.2-4.218a7.926 7.926 0 012.432.318v2.191c-.08 1.703.068 3.409.438 5.073-1.424.54-2.935.819-4.459.822zm-70.807-5.38c0-6.76-4.151-10.957-11.929-10.957a20.53 20.53 0 00-5.279.79V14.166h-8.259v30.02a31.755 31.755 0 0012.049 2.378c8.72 0 13.418-4.525 13.418-11.975zm-17.208 5.117v-9.029a14.464 14.464 0 013.625-.493c3.781 0 5.049 1.852 5.049 4.832 0 2.98-1.093 5.216-5.049 5.216a10.177 10.177 0 01-3.625-.526zM251.929 1.15a8.653 8.653 0 00-3.887 1.314 8.902 8.902 0 00-2.837 3.013 23710.448 23710.448 0 00-14.491 40.189l8.467 3.111 3.22-9.335h19.016l3.285 9.51 8.554-3.462-15.007-40.747a6.57 6.57 0 00-2.617-2.75 6.43 6.43 0 00-3.703-.844zm-6.8 30.393l6.8-19.569 6.761 19.623-13.561-.054z"/><path d="M230.562 75.917a15.003 15.003 0 014.304-10.956 14.748 14.748 0 0110.954-4.383c4.556 0 8.206 1.319 10.954 3.956l-2.127 3.133a12.916 12.916 0 00-3.964-2.366 13.14 13.14 0 00-4.655-.888 10.415 10.415 0 00-8.084 3.287 11.66 11.66 0 00-3.001 8.206 12.153 12.153 0 003.067 8.404 10.326 10.326 0 008.105 3.44 12.625 12.625 0 004.951-1.04 13.211 13.211 0 004.261-2.871l2.245 3.024a15.759 15.759 0 01-11.588 4.755 14.6 14.6 0 01-11.096-4.481 15.592 15.592 0 01-4.326-11.22zm36.857 15.166V73.125h-7.481v-3.528h19.07v3.528h-7.516v17.958h-4.073zm16.681 8.5V69.595h3.823v1.907l-.131 1.621h.131a7.2 7.2 0 012.892-3.002 8.762 8.762 0 014.283-1.096 8.448 8.448 0 016.878 3.101 12.46 12.46 0 012.552 8.163 11.939 11.939 0 01-2.717 8.174 8.952 8.952 0 01-7.008 3.078 7.544 7.544 0 01-6.673-3.648h-.075a8.82 8.82 0 01.163 1.862v9.773l-4.118.055zm3.988-19.162a8.854 8.854 0 001.643 5.335 5.162 5.162 0 004.436 2.268 5.59 5.59 0 004.381-2.06 8.194 8.194 0 001.784-5.588 8.699 8.699 0 00-1.674-5.576 5.353 5.353 0 00-4.383-2.104 5.734 5.734 0 00-4.381 1.95 8.337 8.337 0 00-1.806 5.775zm20.806 4.797a6.12 6.12 0 011.316-3.988 7.208 7.208 0 013.505-2.312 24.022 24.022 0 014.053-.964c1.311-.17 2.63-.254 3.953-.252h1.096v-.427c0-3.134-1.566-4.711-4.711-4.711a10.32 10.32 0 00-6.025 2.081l-1.663-3.013a10.568 10.568 0 013.57-1.83 14.534 14.534 0 014.458-.723 8.604 8.604 0 016.288 2.192 8.35 8.35 0 011.736 2.897 8.373 8.373 0 01.453 3.348v13.586h-3.843V88.91l.12-1.699h-.078a8.096 8.096 0 01-2.869 3.134 7.487 7.487 0 01-4.184 1.238 7.66 7.66 0 01-5.048-1.742 5.665 5.665 0 01-2.127-4.623zm4.121-.34a3.212 3.212 0 001.093 2.421 4.11 4.11 0 002.97 1.02 4.977 4.977 0 004.161-2.126 7.606 7.606 0 001.611-4.71v-.8h-1.096c-5.827 0-8.739 1.398-8.739 4.196zm18.599 6.205l7.338-11.044-6.922-10.442h4.721l3.985 6.574.681 1.27h.087c.286-.481.526-.908.724-1.27l3.985-6.574h4.711l-6.913 10.442 7.341 11.044h-4.666l-4.504-7.177-.678-1.095h-.087a8.016 8.016 0 01-.636 1.095l-4.501 7.177h-4.666zm23.648 4.459a3.932 3.932 0 002.464.942c1.724 0 3.023-1.062 3.898-3.188l1.096-2.465-9.079-21.234h4.633l5.389 14.057.811 2.586h.12c.19-.861.43-1.71.723-2.542l5.212-14.1h4.458L364.889 94.95a7.865 7.865 0 01-2.782 3.758 7.112 7.112 0 01-4.183 1.293 6.419 6.419 0 01-2.094-.295 6.127 6.127 0 01-1.521-.68l-.516-.296 1.469-3.188zm24.835-4.462V69.594h8.882a8.608 8.608 0 015.236 1.425 4.764 4.764 0 011.939 4.098c.01 1-.273 1.982-.81 2.826a5.072 5.072 0 01-2.267 1.885 5.155 5.155 0 013.012 1.862 5.67 5.67 0 011.003 4.098 5.667 5.667 0 01-2.099 3.66 9.438 9.438 0 01-5.749 1.588l-9.147.044zm4.118-12.403h4.043a3.92 3.92 0 002.76-.865 3.12 3.12 0 00.93-2.4c0-1.987-1.273-2.976-3.823-2.97h-3.91v6.235zm0 9.521h4.381a5.065 5.065 0 003.287-.898c.356-.309.638-.69.833-1.118a3.275 3.275 0 000-2.727 3.266 3.266 0 00-.833-1.118 5.17 5.17 0 00-3.287-.899h-4.381v6.76zm17.238-2.979a6.125 6.125 0 011.316-3.988 7.261 7.261 0 013.505-2.312 24.178 24.178 0 014.064-.965 29.908 29.908 0 013.943-.251h1.095v-.428c0-3.134-1.578-4.711-4.721-4.711a10.34 10.34 0 00-6.024 2.082l-1.654-3.014a10.501 10.501 0 013.56-1.83 14.527 14.527 0 014.459-.722 8.594 8.594 0 016.287 2.191 8.355 8.355 0 011.741 2.896 8.36 8.36 0 01.448 3.35v13.585h-3.833v-2.191l.13-1.698h-.087a8.118 8.118 0 01-2.89 3.144 7.497 7.497 0 01-4.186 1.238 7.659 7.659 0 01-5.026-1.753 5.717 5.717 0 01-1.609-2.061 5.727 5.727 0 01-.518-2.562zm4.121-.34a3.262 3.262 0 001.093 2.421 4.133 4.133 0 002.98 1.02 4.948 4.948 0 004.151-2.126 7.538 7.538 0 001.621-4.712v-.8h-1.096c-5.834 0-8.749 1.4-8.749 4.197zm21.059 6.204V69.597h4.118v8.765h10.866v-8.765h4.118v21.486h-4.118v-9.215h-10.866v9.215h-4.118zm26.543 0V69.597h4.118v8.765h10.866v-8.765h4.118v21.486h-4.118v-9.215h-10.866v9.215h-4.118zm24.371-.003l4.961-7.132.976-1.315a6.421 6.421 0 01-3.285-2.191 6.8 6.8 0 01-1.339-4.64 6.801 6.801 0 012.082-4.356 8.432 8.432 0 015.587-1.764h8.576V91.08h-4.118v-7.81h-3.615l-5.269 7.768-4.556.043zm9.858-10.78h3.57v-7.857h-3.438c-3.037 0-4.553 1.286-4.546 3.857a3.651 3.651 0 001.226 2.98 4.846 4.846 0 003.177 1.02h.011zM156.551 68.72a27.771 27.771 0 01-17.372 5.784c-15.137 0-30.472-9.948-30.472-28.958 0-19.01 15.335-28.969 30.472-28.969a27.838 27.838 0 0117.372 5.785l6.013-15.69A44.897 44.897 0 00139.058 0c-27.065 0-47.931 20.368-47.931 45.546s20.811 45.536 47.931 45.536a44.9 44.9 0 0023.539-6.717l-6.013-15.668-.033.022z"/></svg>