<svg width="579" height="196" viewBox="0 0 579 196" xmlns="http://www.w3.org/2000/svg">
<path d="M191.421 131.501C191.366 131.501 191.325 131.474 191.298 131.419C191.27 131.365 191.257 131.324 191.257 131.297C191.257 131.133 191.366 130.778 191.584 130.232C191.803 129.659 192.13 129.018 192.567 128.308C193.031 127.572 193.59 126.807 194.245 126.016C194.927 125.225 195.732 124.501 196.66 123.847C197.588 123.164 198.639 122.605 199.812 122.168C201.013 121.731 202.337 121.513 203.783 121.513C204.82 121.513 205.83 121.691 206.812 122.045C207.822 122.4 208.586 122.796 209.104 123.233C209.869 123.041 210.728 122.905 211.683 122.823C212.666 122.714 213.621 122.659 214.549 122.659C215.995 122.659 217.373 122.796 218.683 123.069C219.993 123.314 221.098 123.655 221.999 124.092C222.572 123.765 223.077 123.451 223.514 123.151C223.95 122.823 224.278 122.659 224.496 122.659C224.605 122.659 224.66 122.728 224.66 122.864C224.66 123 224.441 123.192 224.005 123.437C223.568 123.655 223.077 123.956 222.531 124.338C223.814 125.047 224.851 126.002 225.642 127.203C226.461 128.377 226.87 129.714 226.87 131.215C226.87 132.252 226.611 133.221 226.092 134.121C225.574 135.022 224.905 135.813 224.087 136.495C223.295 137.15 222.395 137.669 221.385 138.051C220.402 138.433 219.434 138.624 218.479 138.624C218.096 138.624 217.701 138.556 217.291 138.419C216.909 138.283 216.555 138.133 216.227 137.969C215.927 137.805 215.668 137.642 215.449 137.478C215.258 137.314 215.163 137.191 215.163 137.109C215.163 136.973 215.245 136.905 215.408 136.905C215.436 136.905 215.518 136.959 215.654 137.068C215.818 137.178 216.009 137.3 216.227 137.437C216.446 137.573 216.691 137.696 216.964 137.805C217.264 137.914 217.592 137.969 217.946 137.969C218.956 137.969 219.87 137.71 220.689 137.191C221.535 136.673 222.245 136.018 222.818 135.226C223.418 134.435 223.868 133.548 224.168 132.566C224.496 131.583 224.66 130.642 224.66 129.741C224.66 128.704 224.428 127.763 223.964 126.917C223.527 126.071 222.845 125.375 221.917 124.829C221.044 125.429 220.225 126.221 219.461 127.203C218.697 128.158 217.946 129.263 217.21 130.519C216.473 131.747 215.709 133.098 214.917 134.571C214.126 136.018 213.28 137.532 212.379 139.115C211.479 140.725 210.428 142.267 209.227 143.741C208.054 145.187 206.771 146.47 205.379 147.589C204.015 148.68 202.568 149.567 201.04 150.249C199.539 150.904 197.997 151.232 196.415 151.232C195.787 151.232 195.173 151.164 194.573 151.027C194 150.918 193.481 150.727 193.017 150.454C192.58 150.181 192.226 149.84 191.953 149.431C191.707 148.994 191.584 148.476 191.584 147.875C191.584 147.411 191.707 147.016 191.953 146.688C192.226 146.333 192.608 146.156 193.099 146.156C193.563 146.156 193.959 146.306 194.286 146.606C194.614 146.879 194.777 147.248 194.777 147.712C194.777 148.094 194.709 148.38 194.573 148.571C194.436 148.735 194.368 148.926 194.368 149.144C194.368 149.581 194.559 149.963 194.941 150.29C195.35 150.591 196.033 150.741 196.988 150.741C198.188 150.741 199.307 150.509 200.344 150.045C201.409 149.554 202.391 148.912 203.292 148.121C204.22 147.329 205.065 146.429 205.83 145.419C206.621 144.382 207.344 143.331 207.999 142.267C208.654 141.176 209.255 140.098 209.8 139.033C210.373 137.969 210.906 136.987 211.397 136.086C211.943 135.076 212.584 134.026 213.321 132.934C214.058 131.842 214.849 130.778 215.695 129.741C216.568 128.704 217.482 127.735 218.438 126.835C219.42 125.934 220.402 125.17 221.385 124.542C220.239 123.997 219.065 123.628 217.865 123.437C216.691 123.246 215.586 123.151 214.549 123.151C213.594 123.151 212.707 123.178 211.888 123.233C211.097 123.287 210.305 123.41 209.514 123.601C210.142 124.31 210.564 125.102 210.783 125.975C211.028 126.821 211.151 127.694 211.151 128.595C211.151 130.069 210.81 131.556 210.128 133.057C209.446 134.531 208.545 135.881 207.426 137.109C206.307 138.31 205.025 139.293 203.578 140.057C202.132 140.794 200.645 141.162 199.116 141.162C198.516 141.162 197.943 141.066 197.397 140.875C196.851 140.684 196.374 140.411 195.964 140.057C195.555 139.675 195.228 139.211 194.982 138.665C194.736 138.092 194.614 137.423 194.614 136.659C194.614 135.622 194.832 134.599 195.269 133.589C195.705 132.579 196.278 131.624 196.988 130.724C197.725 129.796 198.557 128.922 199.485 128.104C200.44 127.285 201.436 126.562 202.473 125.934C203.51 125.279 204.547 124.733 205.584 124.297C206.621 123.86 207.59 123.546 208.49 123.355C207.836 122.891 207.071 122.55 206.198 122.332C205.325 122.114 204.492 122.004 203.701 122.004C202.146 122.004 200.645 122.332 199.198 122.987C197.752 123.614 196.442 124.515 195.269 125.689C194.532 126.425 193.931 127.149 193.467 127.858C193.003 128.568 192.635 129.195 192.362 129.741C192.089 130.26 191.884 130.683 191.748 131.01C191.612 131.338 191.503 131.501 191.421 131.501ZM195.105 136.495C195.105 137.778 195.419 138.774 196.046 139.484C196.701 140.166 197.561 140.507 198.625 140.507C199.962 140.507 201.299 140.098 202.637 139.279C203.974 138.433 205.175 137.382 206.239 136.127C207.331 134.844 208.217 133.439 208.9 131.911C209.582 130.382 209.923 128.909 209.923 127.49C209.923 126.753 209.869 126.057 209.759 125.402C209.65 124.747 209.377 124.188 208.941 123.724C207.276 124.051 205.611 124.665 203.947 125.566C202.309 126.466 200.836 127.517 199.526 128.718C198.216 129.918 197.152 131.201 196.333 132.566C195.514 133.93 195.105 135.24 195.105 136.495Z" />
<path d="M232.082 142.431C232.082 142.84 232.014 143.291 231.877 143.782C231.741 144.246 231.55 144.71 231.304 145.174C231.086 145.61 230.826 146.047 230.526 146.483C230.253 146.893 229.967 147.248 229.667 147.548C229.776 147.602 229.926 147.63 230.117 147.63C230.826 147.63 231.509 147.452 232.164 147.097C232.819 146.716 233.405 146.224 233.924 145.624C234.197 145.324 234.361 145.133 234.415 145.051C234.497 144.969 234.565 144.928 234.62 144.928C234.756 144.928 234.824 144.996 234.824 145.133C234.824 145.187 234.77 145.283 234.661 145.419C234.551 145.556 234.265 145.869 233.801 146.361C233.283 146.907 232.668 147.343 231.959 147.671C231.277 147.971 230.54 148.121 229.748 148.121C229.476 148.121 229.298 148.107 229.216 148.08C228.589 148.79 227.838 149.458 226.965 150.086C226.119 150.686 225.123 150.986 223.977 150.986C223.158 150.986 222.53 150.659 222.094 150.004C221.657 149.349 221.439 148.462 221.439 147.343C221.439 146.606 221.466 146.102 221.521 145.829C221.602 145.556 221.643 145.351 221.643 145.214C221.643 145.051 221.602 144.969 221.521 144.969C221.357 144.969 221.207 145.078 221.07 145.296C220.934 145.515 220.838 145.624 220.784 145.624C220.62 145.624 220.538 145.556 220.538 145.419C220.538 145.365 220.606 145.242 220.743 145.051C220.907 144.86 221.111 144.641 221.357 144.396C221.602 144.15 221.862 143.891 222.135 143.618C222.407 143.345 222.667 143.086 222.912 142.84C224.113 141.694 225.3 140.875 226.474 140.384C227.647 139.866 228.698 139.606 229.626 139.606C230.417 139.606 231.017 139.879 231.427 140.425C231.864 140.944 232.082 141.612 232.082 142.431ZM231.181 141.94C231.181 141.448 231.072 141.026 230.854 140.671C230.635 140.289 230.267 140.098 229.748 140.098C229.039 140.098 228.288 140.398 227.497 140.998C226.706 141.599 225.982 142.349 225.327 143.25C224.673 144.15 224.127 145.119 223.69 146.156C223.281 147.193 223.076 148.135 223.076 148.98C223.076 149.554 223.172 149.949 223.363 150.168C223.581 150.386 223.84 150.495 224.14 150.495C224.959 150.495 225.778 150.222 226.596 149.676C227.442 149.131 228.193 148.448 228.848 147.63C229.53 146.784 230.09 145.856 230.526 144.846C230.963 143.836 231.181 142.868 231.181 141.94Z" />
<path d="M244.649 141.408C244.649 140.944 244.567 140.575 244.403 140.302C244.239 140.002 243.925 139.852 243.462 139.852C242.779 139.852 242.015 140.166 241.169 140.794C240.351 141.394 239.573 142.172 238.836 143.127C238.099 144.055 237.485 145.078 236.994 146.197C236.503 147.316 236.257 148.38 236.257 149.39C236.257 150.127 236.625 150.495 237.362 150.495C237.881 150.495 238.549 150.195 239.368 149.595C240.187 148.994 240.978 148.244 241.742 147.343C242.534 146.415 243.216 145.419 243.789 144.355C244.362 143.291 244.649 142.308 244.649 141.408ZM254.064 126.426L256.479 126.344C254.869 129.209 253.286 131.965 251.73 134.613C250.175 137.232 248.783 139.607 247.555 141.735C246.327 143.837 245.331 145.597 244.567 147.016C243.83 148.408 243.462 149.308 243.462 149.717C243.462 150.236 243.693 150.495 244.157 150.495C244.458 150.495 244.881 150.318 245.426 149.963C245.972 149.608 246.682 148.994 247.555 148.121C248.647 147.057 249.397 146.252 249.806 145.706C250.243 145.16 250.489 144.887 250.543 144.887C250.707 144.887 250.789 144.942 250.789 145.051C250.789 145.16 250.502 145.542 249.929 146.197C248.483 147.862 247.282 149.076 246.327 149.84C245.372 150.605 244.512 150.986 243.748 150.986C243.284 150.986 242.916 150.782 242.643 150.372C242.37 149.963 242.234 149.445 242.234 148.817C242.234 148.489 242.261 148.189 242.315 147.916C242.397 147.616 242.465 147.357 242.52 147.139L242.438 147.057C242.22 147.412 241.906 147.821 241.497 148.285C241.087 148.722 240.637 149.144 240.146 149.554C239.655 149.963 239.122 150.304 238.549 150.577C238.004 150.85 237.471 150.986 236.953 150.986C236.544 150.986 236.189 150.877 235.889 150.659C235.588 150.413 235.343 150.113 235.152 149.758C234.961 149.404 234.824 149.008 234.742 148.571C234.661 148.107 234.62 147.671 234.62 147.261C234.62 146.961 234.633 146.634 234.661 146.279C234.688 145.924 234.729 145.597 234.783 145.297C234.729 145.297 234.674 145.337 234.62 145.419C234.592 145.474 234.565 145.501 234.538 145.501C234.401 145.501 234.333 145.419 234.333 145.256C234.333 145.256 234.333 145.242 234.333 145.215C234.36 145.16 234.415 145.078 234.497 144.969C234.579 144.86 234.702 144.71 234.865 144.519C235.029 144.301 235.261 144.028 235.561 143.7C236.68 142.472 237.894 141.449 239.204 140.63C240.514 139.784 241.851 139.361 243.216 139.361C243.734 139.361 244.185 139.511 244.567 139.811C244.949 140.112 245.14 140.575 245.14 141.203C245.14 141.394 245.14 141.585 245.14 141.776C245.14 141.94 245.112 142.09 245.058 142.226L245.14 142.308L254.064 126.426Z" />
<path d="M261.624 142.431C261.624 142.84 261.555 143.291 261.419 143.782C261.282 144.246 261.091 144.71 260.846 145.174C260.627 145.61 260.368 146.047 260.068 146.483C259.795 146.893 259.509 147.248 259.208 147.548C259.318 147.602 259.468 147.63 259.659 147.63C260.368 147.63 261.051 147.452 261.706 147.097C262.36 146.716 262.947 146.224 263.466 145.624C263.739 145.324 263.902 145.133 263.957 145.051C264.039 144.969 264.107 144.928 264.162 144.928C264.298 144.928 264.366 144.996 264.366 145.133C264.366 145.187 264.312 145.283 264.203 145.419C264.093 145.556 263.807 145.869 263.343 146.361C262.824 146.907 262.21 147.343 261.501 147.671C260.819 147.971 260.082 148.121 259.29 148.121C259.018 148.121 258.84 148.107 258.758 148.08C258.13 148.79 257.38 149.458 256.507 150.086C255.661 150.686 254.665 150.986 253.519 150.986C252.7 150.986 252.072 150.659 251.636 150.004C251.199 149.349 250.981 148.462 250.981 147.343C250.981 146.606 251.008 146.102 251.062 145.829C251.144 145.556 251.185 145.351 251.185 145.214C251.185 145.051 251.144 144.969 251.062 144.969C250.899 144.969 250.749 145.078 250.612 145.296C250.476 145.515 250.38 145.624 250.326 145.624C250.162 145.624 250.08 145.556 250.08 145.419C250.08 145.365 250.148 145.242 250.285 145.051C250.448 144.86 250.653 144.641 250.899 144.396C251.144 144.15 251.404 143.891 251.676 143.618C251.949 143.345 252.209 143.086 252.454 142.84C253.655 141.694 254.842 140.875 256.016 140.384C257.189 139.866 258.24 139.606 259.168 139.606C259.959 139.606 260.559 139.879 260.969 140.425C261.405 140.944 261.624 141.612 261.624 142.431ZM260.723 141.94C260.723 141.448 260.614 141.026 260.396 140.671C260.177 140.289 259.809 140.098 259.29 140.098C258.581 140.098 257.83 140.398 257.039 140.998C256.247 141.599 255.524 142.349 254.869 143.25C254.214 144.15 253.669 145.119 253.232 146.156C252.823 147.193 252.618 148.135 252.618 148.98C252.618 149.554 252.714 149.949 252.905 150.168C253.123 150.386 253.382 150.495 253.682 150.495C254.501 150.495 255.32 150.222 256.138 149.676C256.984 149.131 257.735 148.448 258.39 147.63C259.072 146.784 259.632 145.856 260.068 144.846C260.505 143.836 260.723 142.868 260.723 141.94Z" />
<path d="M279.634 126.344C276.96 130.546 274.722 134.053 272.921 136.864C271.147 139.675 269.701 141.981 268.582 143.782C267.49 145.556 266.713 146.92 266.249 147.875C265.785 148.803 265.553 149.499 265.553 149.963C265.553 150.1 265.607 150.222 265.717 150.332C265.853 150.441 266.017 150.495 266.208 150.495C266.836 150.495 267.518 150.236 268.255 149.717C269.019 149.199 269.919 148.421 270.956 147.384C271.884 146.456 272.471 145.815 272.716 145.46C272.989 145.078 273.18 144.887 273.29 144.887C273.426 144.887 273.494 144.956 273.494 145.092C273.494 145.119 273.44 145.201 273.33 145.337C273.221 145.474 273.085 145.638 272.921 145.829C272.757 146.02 272.58 146.211 272.389 146.402C272.225 146.593 272.075 146.77 271.939 146.934C270.738 148.217 269.66 149.213 268.705 149.922C267.75 150.632 266.876 150.986 266.085 150.986C265.375 150.986 264.898 150.782 264.652 150.372C264.434 149.963 264.325 149.486 264.325 148.94C264.325 148.339 264.407 147.794 264.57 147.302C264.734 146.784 264.993 146.238 265.348 145.665C265.703 145.065 266.14 144.382 266.658 143.618C267.177 142.827 267.791 141.844 268.5 140.671L268.418 140.589C268.064 140.998 267.695 141.435 267.313 141.899C266.931 142.363 266.399 142.963 265.717 143.7C265.334 144.137 265.021 144.492 264.775 144.764C264.557 145.01 264.379 145.215 264.243 145.378C264.106 145.515 264.011 145.61 263.956 145.665C263.902 145.692 263.847 145.706 263.793 145.706C263.684 145.706 263.629 145.638 263.629 145.501C263.629 145.419 263.875 145.106 264.366 144.56C264.884 144.014 265.539 143.277 266.331 142.349C267.149 141.394 268.05 140.275 269.032 138.993C270.042 137.683 271.038 136.236 272.021 134.653L276.933 126.63L279.634 126.344Z" />
<path d="M278.271 148.816L278.352 148.898C279.035 148.434 279.608 147.943 280.072 147.425C280.536 146.906 280.945 146.442 281.3 146.033C281.737 145.569 281.996 145.269 282.078 145.132C282.159 144.969 282.241 144.887 282.323 144.887C282.46 144.887 282.528 144.969 282.528 145.132C282.528 145.187 282.351 145.433 281.996 145.869C281.641 146.278 281.259 146.715 280.849 147.179C279.731 148.434 278.666 149.39 277.657 150.044C276.647 150.672 275.569 150.986 274.423 150.986C273.959 150.986 273.604 150.972 273.358 150.945C273.113 150.891 272.854 150.754 272.581 150.536C272.417 150.399 272.267 150.195 272.13 149.922C271.994 149.622 271.926 149.362 271.926 149.144C271.926 148.38 272.267 147.998 272.949 147.998C273.167 147.998 273.358 148.066 273.522 148.202C273.713 148.312 273.809 148.462 273.809 148.653C273.809 148.871 273.781 149.021 273.727 149.103C273.672 149.185 273.604 149.253 273.522 149.308C273.44 149.362 273.372 149.43 273.317 149.512C273.263 149.567 273.236 149.69 273.236 149.881C273.236 150.29 273.468 150.495 273.932 150.495C274.423 150.495 274.914 150.249 275.405 149.758C275.896 149.267 276.333 148.68 276.715 147.998C277.124 147.288 277.452 146.551 277.698 145.787C277.943 144.996 278.066 144.327 278.066 143.781C278.066 142.799 278.066 141.939 278.066 141.203C278.093 140.466 278.175 140.043 278.312 139.934L278.23 139.852C278.093 139.934 277.82 140.206 277.411 140.67C277.002 141.107 276.538 141.612 276.019 142.185C275.528 142.758 275.037 143.331 274.546 143.904C274.082 144.45 273.727 144.859 273.481 145.132C273.317 145.351 273.195 145.46 273.113 145.46C273.004 145.46 272.949 145.405 272.949 145.296C272.949 145.16 273.099 144.928 273.399 144.6C273.727 144.273 274.177 143.754 274.75 143.045C274.996 142.744 275.296 142.39 275.651 141.98C276.033 141.544 276.401 141.134 276.756 140.752C277.138 140.343 277.479 139.988 277.779 139.688C278.08 139.388 278.257 139.224 278.312 139.197C278.339 139.197 278.38 139.129 278.434 138.992C278.489 138.856 278.571 138.719 278.68 138.583C278.789 138.419 278.926 138.282 279.089 138.173C279.253 138.037 279.444 137.969 279.662 137.969C280.126 137.969 280.358 138.173 280.358 138.583C280.358 138.965 280.181 139.238 279.826 139.401C279.471 139.565 279.103 139.715 278.721 139.852C278.666 140.07 278.625 140.234 278.598 140.343C278.571 140.425 278.557 140.575 278.557 140.793C278.557 141.557 278.598 142.199 278.68 142.717C278.789 143.236 278.885 143.7 278.966 144.109C279.076 144.518 279.171 144.9 279.253 145.255C279.362 145.61 279.417 145.992 279.417 146.401C279.417 146.892 279.308 147.343 279.089 147.752C278.871 148.161 278.598 148.544 278.271 148.898V148.816Z" />
<path d="M296.186 141.981C295.75 141.981 295.463 141.858 295.327 141.612C295.218 141.34 295.149 140.971 295.122 140.507C294.658 140.589 294.303 140.766 294.058 141.039C293.839 141.285 293.567 141.681 293.239 142.226C292.884 142.772 292.379 143.25 291.724 143.659C291.097 144.041 290.456 144.301 289.801 144.437V144.519C290.073 144.573 290.333 144.696 290.578 144.887C290.851 145.051 291.083 145.256 291.274 145.501C291.493 145.747 291.656 146.006 291.765 146.279C291.902 146.552 291.97 146.798 291.97 147.016C291.97 147.234 291.915 147.493 291.806 147.794C291.724 148.094 291.629 148.394 291.52 148.694C291.411 148.967 291.301 149.213 291.192 149.431C291.11 149.649 291.07 149.799 291.07 149.881C291.07 150.045 291.124 150.195 291.233 150.332C291.37 150.441 291.52 150.495 291.684 150.495C292.011 150.495 292.366 150.386 292.748 150.168C293.13 149.922 293.512 149.649 293.894 149.349C294.303 149.049 294.672 148.735 294.999 148.408C295.327 148.08 295.586 147.807 295.777 147.589C296.35 146.989 296.787 146.525 297.087 146.197C297.387 145.842 297.605 145.57 297.742 145.378C297.906 145.187 298.001 145.065 298.028 145.01C298.083 144.956 298.138 144.928 298.192 144.928C298.356 144.928 298.438 144.996 298.438 145.133C298.438 145.16 298.37 145.256 298.233 145.419C298.124 145.583 297.96 145.788 297.742 146.033C297.551 146.252 297.333 146.511 297.087 146.811C296.841 147.084 296.596 147.343 296.35 147.589C295.995 147.971 295.6 148.367 295.163 148.776C294.754 149.185 294.331 149.554 293.894 149.881C293.457 150.209 293.034 150.482 292.625 150.7C292.216 150.891 291.847 150.986 291.52 150.986C291.138 150.986 290.81 150.891 290.537 150.7C290.265 150.482 290.032 150.222 289.841 149.922C289.678 149.595 289.555 149.254 289.473 148.899C289.391 148.544 289.35 148.217 289.35 147.916C289.35 147.616 289.391 147.343 289.473 147.098C289.555 146.852 289.651 146.634 289.76 146.443C289.869 146.224 289.964 146.033 290.046 145.87C290.128 145.679 290.169 145.501 290.169 145.337C290.169 145.174 290.087 145.024 289.923 144.887C289.76 144.751 289.596 144.683 289.432 144.683C289.214 144.683 288.982 144.778 288.736 144.969C288.518 145.16 288.218 145.256 287.836 145.256C287.426 145.256 287.222 145.092 287.222 144.764C287.222 144.628 287.304 144.492 287.467 144.355C287.658 144.191 288.054 144.109 288.654 144.109C288.763 144.109 288.859 144.123 288.941 144.15C289.05 144.178 289.214 144.191 289.432 144.191C289.596 144.191 289.814 144.123 290.087 143.987C290.387 143.85 290.701 143.659 291.029 143.414C291.383 143.168 291.724 142.881 292.052 142.554C292.407 142.226 292.734 141.872 293.034 141.49C293.635 140.726 294.126 140.221 294.508 139.975C294.89 139.729 295.313 139.607 295.777 139.607C296.241 139.607 296.609 139.729 296.882 139.975C297.183 140.193 297.333 140.494 297.333 140.876C297.333 141.23 297.21 141.503 296.964 141.694C296.746 141.885 296.487 141.981 296.186 141.981ZM297.414 126.344L283.087 150.823L280.304 150.986L286.853 140.384L286.771 140.302C286.608 140.494 286.403 140.726 286.157 140.998C285.939 141.271 285.707 141.571 285.461 141.899C285.216 142.199 284.957 142.499 284.684 142.8C284.438 143.073 284.206 143.332 283.988 143.577C283.524 144.068 283.155 144.464 282.883 144.764C282.637 145.065 282.446 145.297 282.309 145.46C282.173 145.624 282.077 145.733 282.023 145.788C281.968 145.815 281.927 145.829 281.9 145.829C281.791 145.829 281.736 145.747 281.736 145.583C281.736 145.529 281.764 145.46 281.818 145.378C281.9 145.269 282.064 145.092 282.309 144.846C282.555 144.573 282.896 144.178 283.333 143.659C283.797 143.141 284.424 142.431 285.216 141.531C285.898 140.739 286.499 140.016 287.017 139.361C287.535 138.679 288.013 138.01 288.45 137.355C288.914 136.7 289.35 136.032 289.76 135.349C290.196 134.64 290.66 133.862 291.151 133.016C291.643 132.17 292.188 131.229 292.789 130.192C293.389 129.155 294.085 127.954 294.876 126.589L297.414 126.344Z" />
<path d="M321.036 126.344C318.525 130.519 316.424 134.012 314.732 136.823C313.067 139.607 311.73 141.885 310.721 143.659C309.711 145.406 308.988 146.716 308.551 147.589C308.142 148.462 307.937 149.076 307.937 149.431C307.937 149.731 307.991 149.99 308.101 150.209C308.237 150.4 308.496 150.495 308.878 150.495C309.643 150.495 310.434 150.291 311.253 149.881C312.099 149.445 312.863 148.844 313.545 148.08C314.227 147.316 314.787 146.415 315.223 145.378C315.66 144.314 315.878 143.141 315.878 141.858C315.878 141.094 315.946 140.535 316.083 140.18C316.247 139.798 316.588 139.607 317.106 139.607C317.461 139.607 317.707 139.77 317.843 140.098C318.007 140.425 318.09 140.78 318.09 141.162C318.09 141.79 317.966 142.431 317.72 143.086C317.475 143.714 317.189 144.328 316.861 144.928C316.533 145.501 316.192 146.02 315.837 146.484C315.51 146.948 315.251 147.289 315.06 147.507C315.142 147.534 315.264 147.548 315.428 147.548C316.056 147.548 316.683 147.384 317.312 147.057C317.966 146.702 318.512 146.279 318.948 145.788C319.331 145.378 319.55 145.133 319.603 145.051C319.658 144.969 319.713 144.928 319.767 144.928C319.903 144.928 319.973 144.996 319.973 145.133C319.973 145.215 319.917 145.324 319.807 145.46C319.699 145.57 319.535 145.747 319.316 145.992C318.717 146.675 318.034 147.193 317.27 147.548C316.506 147.875 315.769 148.039 315.06 148.039C314.923 148.039 314.814 148.039 314.732 148.039C314.678 148.012 314.637 147.998 314.609 147.998C314.364 148.244 314.036 148.53 313.627 148.858C313.218 149.185 312.767 149.513 312.276 149.84C311.785 150.141 311.253 150.413 310.68 150.659C310.107 150.877 309.533 150.986 308.96 150.986C308.087 151.014 307.459 150.755 307.077 150.209C306.722 149.636 306.545 148.94 306.545 148.121C306.545 147.384 306.75 146.62 307.159 145.829C307.569 145.037 308.005 144.301 308.469 143.618C308.96 142.909 309.411 142.308 309.82 141.817C310.229 141.326 310.434 141.012 310.434 140.876C310.434 140.821 310.407 140.794 310.352 140.794C310.297 140.794 310.107 140.985 309.779 141.367C309.479 141.749 308.974 142.322 308.264 143.086C307.719 143.687 307.296 144.164 306.995 144.519C306.695 144.874 306.463 145.146 306.3 145.337C306.163 145.501 306.068 145.61 306.013 145.665C305.958 145.692 305.904 145.706 305.849 145.706C305.713 145.706 305.645 145.651 305.645 145.542C305.645 145.488 305.822 145.256 306.177 144.846C306.531 144.41 306.927 143.932 307.364 143.414C307.828 142.895 308.278 142.404 308.715 141.94C309.151 141.449 309.438 141.121 309.574 140.957C309.929 140.575 310.42 139.907 311.048 138.952C311.703 137.969 312.44 136.823 313.259 135.513C314.077 134.203 314.937 132.798 315.837 131.297C316.738 129.769 317.612 128.254 318.457 126.753L321.036 126.344Z" />
<path d="M319.686 145.501C319.55 145.501 319.481 145.433 319.481 145.296C319.481 145.242 319.55 145.119 319.686 144.928C319.849 144.737 320.053 144.505 320.3 144.232C320.544 143.959 320.804 143.673 321.078 143.372C321.377 143.072 321.65 142.772 321.896 142.472C322.769 141.517 323.533 140.807 324.189 140.343C324.871 139.852 325.498 139.606 326.072 139.606C326.591 139.606 326.986 139.811 327.258 140.22C327.532 140.603 327.668 141.039 327.668 141.53C327.668 141.94 327.573 142.404 327.381 142.922C327.19 143.441 326.958 143.959 326.686 144.478C326.412 144.996 326.125 145.487 325.826 145.951C325.526 146.415 325.28 146.784 325.088 147.057L325.171 147.138C326.262 145.883 327.245 144.873 328.119 144.109C328.992 143.345 329.524 142.69 329.715 142.144C329.934 141.544 330.261 140.971 330.697 140.425C331.134 139.879 331.706 139.606 332.416 139.606C333.071 139.606 333.398 139.825 333.398 140.261C333.398 140.671 333.153 141.067 332.662 141.448C332.197 141.803 331.679 142.199 331.107 142.636C330.533 143.072 330.002 143.55 329.511 144.068C329.046 144.587 328.814 145.201 328.814 145.91C328.814 146.32 328.937 146.661 329.182 146.934C329.456 147.179 329.783 147.302 330.165 147.302C330.848 147.302 331.462 147.029 332.006 146.483C332.471 146.02 332.799 145.651 332.99 145.378C333.181 145.078 333.317 144.928 333.398 144.928C333.562 144.928 333.644 144.996 333.644 145.133C333.644 145.187 333.521 145.365 333.277 145.665C333.03 145.965 332.812 146.224 332.62 146.443C332.212 146.907 331.789 147.234 331.352 147.425C330.916 147.616 330.506 147.712 330.123 147.712C329.66 147.712 329.237 147.575 328.854 147.302C328.499 147.002 328.323 146.606 328.323 146.115C328.323 145.651 328.391 145.242 328.527 144.887C328.663 144.505 328.869 144.15 329.141 143.823L329.06 143.741C327.995 144.723 326.958 145.801 325.949 146.975C324.939 148.148 323.915 149.404 322.878 150.741L320.3 150.986C321.337 149.322 322.238 147.903 323.001 146.729C323.792 145.528 324.448 144.532 324.967 143.741C325.511 142.95 325.921 142.308 326.193 141.817C326.467 141.326 326.603 140.944 326.603 140.671C326.603 140.289 326.372 140.098 325.908 140.098C325.607 140.098 325.199 140.248 324.68 140.548C324.189 140.821 323.533 141.38 322.714 142.226C322.087 142.881 321.582 143.427 321.201 143.864C320.818 144.273 320.519 144.6 320.3 144.846C320.109 145.092 319.958 145.269 319.849 145.378C319.767 145.46 319.713 145.501 319.686 145.501Z" />
<path d="M335.936 150.986C335.418 150.986 334.98 150.877 334.625 150.659C334.298 150.441 334.039 150.168 333.848 149.84C333.656 149.485 333.52 149.09 333.439 148.653C333.384 148.189 333.357 147.725 333.357 147.261C333.357 146.934 333.371 146.62 333.397 146.32C333.452 145.992 333.507 145.665 333.562 145.337C333.507 145.337 333.467 145.365 333.439 145.419C333.412 145.447 333.371 145.46 333.316 145.46C333.207 145.46 333.152 145.392 333.152 145.255C333.152 145.174 333.193 145.092 333.275 145.01C333.357 144.928 333.535 144.723 333.807 144.396C334.353 143.714 334.967 143.086 335.65 142.513C336.332 141.94 337.027 141.435 337.737 140.998C338.474 140.562 339.211 140.22 339.947 139.975C340.712 139.729 341.448 139.606 342.157 139.606C342.786 139.606 343.237 139.811 343.509 140.22C343.781 140.603 343.919 141.067 343.919 141.612C343.919 142.103 343.877 142.472 343.796 142.717L343.877 142.799C344.232 142.226 344.505 141.749 344.695 141.367C344.914 140.985 345.092 140.698 345.228 140.507C345.364 140.289 345.487 140.139 345.596 140.057C345.732 139.948 345.91 139.893 346.129 139.893L348.093 139.811C347.902 140.029 347.615 140.412 347.234 140.957C346.879 141.476 346.484 142.076 346.047 142.758C345.611 143.413 345.16 144.109 344.695 144.846C344.259 145.583 343.849 146.292 343.468 146.975C343.086 147.657 342.772 148.257 342.527 148.776C342.308 149.294 342.2 149.676 342.2 149.922C342.2 150.304 342.431 150.495 342.895 150.495C343.522 150.495 344.342 150.031 345.351 149.103C346.388 148.148 347.507 146.975 348.707 145.583C348.954 145.283 349.103 145.105 349.158 145.051C349.213 144.969 349.266 144.928 349.322 144.928C349.403 144.928 349.458 144.955 349.485 145.01C349.54 145.064 349.568 145.119 349.568 145.174C349.568 145.201 349.485 145.31 349.322 145.501C349.185 145.665 349.007 145.869 348.79 146.115C348.571 146.361 348.325 146.634 348.053 146.934C347.806 147.234 347.562 147.507 347.315 147.752C346.361 148.735 345.5 149.526 344.737 150.127C343.972 150.7 343.318 150.986 342.772 150.986C342.225 150.986 341.79 150.795 341.462 150.413C341.135 150.031 340.971 149.281 340.971 148.162C340.971 148.025 340.971 147.903 340.971 147.793C340.999 147.657 341.012 147.534 341.012 147.425C340.712 147.725 340.342 148.08 339.907 148.489C339.497 148.899 339.061 149.294 338.597 149.676C338.132 150.031 337.669 150.345 337.205 150.618C336.74 150.863 336.317 150.986 335.936 150.986ZM334.995 149.185C334.995 149.567 335.063 149.881 335.199 150.127C335.363 150.372 335.609 150.495 335.936 150.495C336.536 150.495 337.259 150.181 338.105 149.554C338.952 148.899 339.77 148.107 340.561 147.179C341.354 146.252 342.021 145.283 342.567 144.273C343.141 143.236 343.426 142.336 343.426 141.571C343.426 141.162 343.318 140.821 343.099 140.548C342.908 140.248 342.595 140.098 342.157 140.098C341.339 140.098 340.493 140.439 339.62 141.121C338.774 141.776 338.011 142.581 337.328 143.536C336.646 144.491 336.085 145.487 335.65 146.524C335.212 147.561 334.995 148.448 334.995 149.185Z" />
<path d="M349.677 150.986C349.813 150.741 350.06 150.345 350.414 149.799C350.795 149.253 351.233 148.639 351.724 147.957C352.215 147.248 352.72 146.511 353.239 145.747C353.785 144.983 354.276 144.273 354.712 143.618C355.15 142.936 355.503 142.336 355.777 141.817C356.076 141.298 356.227 140.93 356.227 140.712C356.227 140.493 356.159 140.343 356.021 140.261C355.913 140.152 355.777 140.098 355.613 140.098C355.039 140.098 354.425 140.343 353.77 140.834C353.143 141.298 352.31 142.103 351.273 143.25C350.782 143.768 350.4 144.178 350.128 144.478C349.881 144.778 349.69 145.01 349.554 145.174C349.445 145.31 349.363 145.406 349.309 145.46C349.282 145.487 349.254 145.501 349.227 145.501C349.091 145.501 349.022 145.419 349.022 145.255C349.022 145.228 349.078 145.146 349.186 145.01C349.295 144.846 349.431 144.682 349.596 144.519C349.76 144.328 349.923 144.137 350.087 143.946C350.278 143.727 350.442 143.536 350.578 143.372C351.56 142.226 352.474 141.312 353.32 140.63C354.166 139.948 354.986 139.606 355.777 139.606C356.323 139.606 356.704 139.784 356.922 140.139C357.169 140.493 357.292 140.985 357.292 141.612C357.292 142.022 357.196 142.472 357.005 142.963C356.814 143.427 356.582 143.891 356.308 144.355C356.063 144.819 355.79 145.269 355.49 145.706C355.19 146.115 354.931 146.47 354.712 146.77L354.795 146.852C355.203 146.47 355.762 145.883 356.472 145.092C357.209 144.273 357.987 143.468 358.805 142.677C359.624 141.858 360.429 141.148 361.221 140.548C362.012 139.92 362.667 139.606 363.185 139.606C363.704 139.606 364.072 139.825 364.291 140.261C364.537 140.671 364.66 141.094 364.66 141.53C364.66 142.24 364.495 142.895 364.168 143.495C363.84 144.068 363.5 144.587 363.145 145.051C361.317 147.534 360.402 149.076 360.402 149.676C360.402 149.895 360.457 150.086 360.565 150.249C360.675 150.413 360.839 150.495 361.058 150.495C361.521 150.495 362.148 150.181 362.941 149.554C363.732 148.899 364.55 148.121 365.396 147.22C365.914 146.675 366.31 146.252 366.584 145.951C366.856 145.624 367.047 145.392 367.156 145.255C367.293 145.092 367.374 144.996 367.402 144.969C367.457 144.914 367.511 144.887 367.566 144.887C367.674 144.887 367.729 144.955 367.729 145.092C367.729 145.146 367.621 145.31 367.402 145.583C367.183 145.856 366.924 146.156 366.624 146.483C366.352 146.811 366.065 147.125 365.765 147.425C365.491 147.725 365.287 147.944 365.151 148.08C364.25 148.98 363.445 149.69 362.735 150.209C362.025 150.727 361.439 150.986 360.975 150.986C360.348 150.986 359.883 150.741 359.583 150.249C359.311 149.731 359.175 149.103 359.175 148.366C359.175 147.548 359.407 146.743 359.87 145.951C360.333 145.133 360.839 144.382 361.385 143.7C361.93 142.99 362.435 142.363 362.899 141.817C363.364 141.271 363.595 140.862 363.595 140.589C363.595 140.261 363.404 140.098 363.022 140.098C362.694 140.098 362.231 140.316 361.63 140.753C361.03 141.189 360.376 141.749 359.666 142.431C358.956 143.113 358.219 143.877 357.455 144.723C356.691 145.542 355.968 146.347 355.286 147.138C354.603 147.93 354.002 148.653 353.484 149.308C352.965 149.936 352.61 150.413 352.419 150.741L349.677 150.986Z" />
<path d="M378.264 141.612C378.264 141.994 378.126 142.39 377.854 142.799C377.582 143.181 377.212 143.372 376.749 143.372C376.366 143.372 376.094 143.277 375.93 143.086C375.794 142.868 375.725 142.622 375.725 142.349C375.725 142.076 375.78 141.885 375.888 141.776C376.026 141.667 376.175 141.585 376.339 141.53C376.502 141.448 376.64 141.367 376.749 141.285C376.885 141.176 376.953 141.012 376.953 140.794C376.953 140.63 376.872 140.48 376.708 140.343C376.57 140.18 376.339 140.098 376.011 140.098C375.384 140.098 374.687 140.343 373.924 140.834C373.187 141.298 372.492 141.94 371.837 142.758C371.181 143.55 370.622 144.478 370.158 145.542C369.721 146.606 369.503 147.725 369.503 148.899C369.503 149.963 370.075 150.495 371.223 150.495C371.933 150.495 372.751 150.249 373.678 149.758C374.634 149.24 375.561 148.503 376.462 147.548C377.008 146.975 377.431 146.511 377.731 146.156C378.058 145.801 378.29 145.542 378.427 145.378C378.591 145.187 378.7 145.064 378.755 145.01C378.808 144.928 378.85 144.887 378.878 144.887C379.042 144.887 379.123 144.969 379.123 145.133C379.123 145.187 378.959 145.406 378.632 145.788C378.332 146.142 377.962 146.552 377.526 147.016C376.217 148.435 375.042 149.458 374.005 150.086C372.996 150.686 371.973 150.986 370.936 150.986C370.309 150.986 369.776 150.85 369.34 150.577C368.93 150.277 368.602 149.908 368.356 149.472C368.111 149.035 367.933 148.558 367.825 148.039C367.744 147.493 367.701 146.975 367.701 146.483C367.701 146.156 367.716 145.91 367.744 145.747C367.797 145.556 367.825 145.433 367.825 145.378C367.825 145.324 367.797 145.296 367.744 145.296C367.689 145.296 367.633 145.324 367.58 145.378C367.552 145.433 367.51 145.46 367.457 145.46C367.321 145.46 367.251 145.392 367.251 145.255C367.251 145.228 367.266 145.201 367.293 145.174C367.321 145.119 367.374 145.037 367.457 144.928C367.538 144.792 367.674 144.614 367.865 144.396C368.056 144.178 368.316 143.877 368.643 143.495C369.816 142.103 370.976 141.107 372.122 140.507C373.297 139.907 374.456 139.606 375.603 139.606C376.394 139.606 377.035 139.784 377.526 140.139C378.017 140.466 378.264 140.957 378.264 141.612Z" />
<path d="M377.049 150.986C379.287 147.057 381.565 143.345 383.884 139.852L383.844 139.77C383.271 140.398 382.779 140.985 382.371 141.531C381.961 142.049 381.388 142.704 380.651 143.495C380.214 143.987 379.873 144.369 379.627 144.642C379.382 144.915 379.191 145.119 379.055 145.256C378.945 145.392 378.864 145.488 378.809 145.542C378.781 145.57 378.754 145.583 378.728 145.583C378.617 145.583 378.564 145.501 378.564 145.337C378.564 145.228 378.836 144.887 379.382 144.314C379.928 143.741 380.611 142.977 381.429 142.022C382.275 141.039 383.189 139.893 384.171 138.583C385.18 137.246 386.137 135.8 387.038 134.244L391.458 126.63L393.955 126.344C393.682 126.808 393.273 127.517 392.727 128.472C392.181 129.4 391.539 130.478 390.804 131.706C390.066 132.907 389.274 134.203 388.428 135.595C387.61 136.96 386.804 138.324 386.013 139.688C385.223 141.026 384.471 142.308 383.763 143.536C383.053 144.737 382.452 145.761 381.961 146.606L382.043 146.688C384.007 144.423 385.714 142.677 387.159 141.449C388.606 140.221 389.684 139.607 390.394 139.607C390.993 139.607 391.416 139.825 391.662 140.262C391.909 140.698 392.03 141.19 392.03 141.735C392.03 142.308 391.798 142.977 391.335 143.741C390.872 144.478 390.353 145.228 389.779 145.992C389.206 146.757 388.687 147.493 388.224 148.203C387.76 148.912 387.529 149.486 387.529 149.922C387.529 150.059 387.569 150.195 387.65 150.332C387.76 150.441 387.924 150.495 388.143 150.495C388.77 150.495 389.437 150.209 390.147 149.636C390.857 149.063 391.786 148.176 392.931 146.975C393.178 146.729 393.409 146.484 393.628 146.238C393.845 145.965 394.051 145.72 394.241 145.501C394.432 145.283 394.595 145.106 394.733 144.969C394.869 144.805 394.965 144.723 395.018 144.723C395.156 144.723 395.224 144.792 395.224 144.928C395.224 144.983 395.018 145.256 394.61 145.747C394.2 146.238 393.722 146.77 393.178 147.343C392.44 148.135 391.798 148.776 391.252 149.267C390.708 149.731 390.23 150.1 389.82 150.372C389.412 150.618 389.057 150.782 388.755 150.864C388.455 150.946 388.183 150.986 387.937 150.986C387.529 150.986 387.146 150.836 386.791 150.536C386.464 150.236 386.3 149.636 386.3 148.735C386.3 147.834 386.532 146.989 386.995 146.197C387.46 145.378 387.979 144.628 388.551 143.946C389.125 143.263 389.643 142.649 390.107 142.104C390.57 141.531 390.804 141.039 390.804 140.63C390.804 140.494 390.748 140.371 390.638 140.262C390.557 140.152 390.462 140.098 390.353 140.098C389.998 140.098 389.507 140.316 388.878 140.753C388.251 141.162 387.569 141.694 386.832 142.349C386.122 143.004 385.372 143.741 384.581 144.56C383.816 145.378 383.093 146.184 382.411 146.975C381.729 147.766 381.129 148.503 380.611 149.185C380.118 149.84 379.778 150.359 379.587 150.741L377.049 150.986Z" />
<path d="M353.245 66.7385C350.947 64.1914 347.988 62.2812 344.256 60.9393C340.59 59.5976 337.087 58.8699 333.74 58.8699C329.213 58.8699 324.98 60.2344 321.248 63.077C317.675 65.9425 315.285 71.1958 315.285 77.8818C315.285 83.681 316.878 88.2975 319.973 91.5723C323.068 94.8244 326.981 96.4163 331.511 96.4163C340.341 96.4163 345.735 91.9816 346.486 83.0442H331.83V75.2438H358.025V79.6102C358.025 88.9115 355.248 95.8022 349.261 100.373C344.12 104.353 337.95 106.309 331.579 106.309C325.207 106.309 318.835 104.148 312.872 99.9413C307.069 95.734 302.995 87.6834 302.995 77.8136C302.995 56.5502 320.36 49 332.058 49C335.79 49 339.681 49.7732 343.914 51.1377C347.988 52.4567 351.629 54.6399 354.428 57.5054L353.245 66.7385Z" />
<path d="M417.082 96.7574C410.641 103.352 401.879 106.309 394.392 106.309C382.284 106.309 364.533 98.6678 364.533 77.6544C364.533 69.6267 367.401 62.6905 371.543 58.4833C377.961 51.7062 386.974 49 394.37 49C406.476 49 424 56.8004 424 77.6544C424 85.6141 421.224 92.5274 417.082 96.7574ZM381.783 63.9639C378.439 67.3752 376.776 71.9236 376.776 77.6544C376.776 83.2944 378.439 87.9108 381.783 91.3449C385.13 94.7561 389.34 96.4389 394.37 96.4389C399.377 96.4389 403.517 94.7789 406.796 91.3449C410.049 87.9108 411.733 83.317 411.733 77.6544C411.733 71.9236 410.072 67.398 406.796 63.9639C403.517 60.5527 399.398 58.8699 394.37 58.8699C389.362 58.8699 385.13 60.53 381.783 63.9639Z" />
<path d="M173.572 87.5021H159.712L160.918 89.5943H202.793L207.436 81.6348H177.031L173.572 87.5021Z" />
<path d="M180.125 103.421H155.022L156.229 105.513H194.622L199.287 97.5532H183.561L180.125 103.421Z" />
<path d="M207.457 73.6745L202.814 65.7148H160.894L159.688 67.7844H173.57L177.029 73.6745H207.457Z" />
<path d="M183.584 57.7555H199.31L194.645 49.7959H156.206L155 51.8654H180.125L183.584 57.7555Z" />
<path d="M239.341 49.7959H227.233V105.513H239.341V49.7959Z" />
<path d="M245.851 105.513V49.7959H256.525L284.403 87.5242V49.7959H296.511V105.513H285.928L257.958 68.3759V105.513H245.851Z" />
</svg>
