<svg xmlns="http://www.w3.org/2000/svg" viewBox="0 0 591.51 591.51"><defs><style>.cls-1{fill-rule:evenodd;}</style></defs><g id="Layer_2" data-name="Layer 2"><g id="Layer_1-2" data-name="Layer 1"><path d="M504.89,86.62A295.76,295.76,0,0,0,86.62,504.89,295.76,295.76,0,0,0,504.89,86.62ZM295.76,566.51C146.46,566.51,25,445.05,25,295.76S146.46,25,295.76,25,566.51,146.46,566.51,295.76,445.05,566.51,295.76,566.51Z"/><path class="cls-1" d="M385.49,296.07c-14.5-1.84-28.36-3.53-28.36-14.75,0-1.37-.53-17.16,26.1-17.16,27.45,0,29.39,19.34,29.39,19.34H439c0-12.17-7.89-40.48-58.08-40.48-5.22,0-50,1.67-50,40,0,17.79,7.26,30.58,47.47,35,34.52,3.79,36.16,12.51,36.16,16.73,0,15.18-12.53,19-28.24,19-29.6,0-32.22-21.87-32.22-21.87H327.75c0,7.67,2.95,43,60,43,39.95,0,53.66-22.66,53.66-40.89C441.41,318.14,434.7,301.38,385.49,296.07Z"/><path class="cls-1" d="M105.26,250v29.22a5.34,5.34,0,0,0,5.35,5.35h74.8v24.23h-74.8a5.35,5.35,0,0,0-5.35,5.35v29.49a5.35,5.35,0,0,0,5.35,5.36H186v24.2H79.37V247.93a9.37,9.37,0,0,1,2.75-6.63L100.48,223a9.4,9.4,0,0,1,6.63-2.74H186v24.47H110.61A5.35,5.35,0,0,0,105.26,250Z"/><path d="M520.64,244.74v25.5H482.45a5.35,5.35,0,0,0-5.35,5.36v97.64H450.82V272.19a9.37,9.37,0,0,1,2.75-6.63l18.07-18.07a9.37,9.37,0,0,1,6.63-2.75Z"/><path class="cls-1" d="M266.8,243c-19.73,0-32.6,10.52-38.38,19.25h-3.7V244.69H199.77V373.25H225.9V313c0-34,16.68-44.83,36.45-44.36,16.7.4,29.43,4.5,29.43,34.38v70.25h26.56V299.47C317.9,281.29,313.29,243,266.8,243Z"/></g></g></svg>