<svg xmlns="http://www.w3.org/2000/svg" viewBox="0 0 325 325" fill="none"><g fill="#2C2A2D" clip-path="url(#a)"><path d="M162.607 325C72.937 325 0 252.063 0 162.607 0 72.937 72.937 0 162.607 0s162.608 72.937 162.608 162.607C325 252.063 252.063 325 162.607 325zm0-309.983c-81.303 0-147.59 66.287-147.59 147.59 0 81.304 66.072 147.376 147.376 147.376 81.303 0 147.376-66.072 147.376-147.376.214-81.303-65.858-147.59-147.162-147.59z"/><path fill-rule="evenodd" d="M207.443 162.178c-7.723-1.072-15.017-1.93-15.017-7.723 0-.643-.215-9.009 13.729-9.009 14.373 0 15.446 10.297 15.446 10.297h13.729l-.214-2.575c-.429-3.647-3.862-18.878-30.248-18.878-2.789 0-26.386.858-26.386 21.024 0 9.438 3.862 16.089 25.099 18.448 18.234 1.931 19.093 6.651 19.093 8.796 0 7.937-6.651 10.082-14.802 10.082-10.941 0-15.017-5.363-16.09-9.01l-.858-2.574H176.98v1.287c0 2.145 1.502 21.452 31.535 21.452 21.023 0 28.317-12.013 28.317-21.452.214-8.581-3.432-17.376-29.389-20.165zM60.495 138.581v14.373c0 1.716 1.288 3.003 3.004 3.003h39.257v12.871H63.499c-1.717 0-3.004 1.288-3.004 3.004v15.016c0 1.716 1.288 3.004 3.004 3.004h39.472v12.656h-55.99v-65.643c0-1.287.643-2.575 1.501-3.647l9.654-9.654a5.175 5.175 0 013.646-1.501h41.189v13.3H63.499c-1.502.215-3.004 1.716-3.004 3.218z" clip-rule="evenodd"/><path d="M277.59 135.148v13.515h-19.092c-1.716 0-3.003 1.287-3.003 3.004v51.27h-13.944v-53.201c0-1.287.643-2.574 1.501-3.647l9.439-9.439c.858-.858 2.36-1.502 3.647-1.502h21.452z"/><path fill-rule="evenodd" d="M145.66 134.291c-10.297 0-17.162 5.577-20.165 10.082h-1.931v-9.224h-13.085v67.788h13.729v-31.749c0-18.02 8.795-23.383 19.307-23.383 5.363 0 9.868 1.931 12.657 6.651 2.788 4.719 3.003 5.792 3.003 28.316v20.165h13.944v-38.828c-.429-9.653-3.004-29.818-27.459-29.818z" clip-rule="evenodd"/></g><defs><clipPath id="a"><path fill="#fff" d="M0 0h325v325H0z"/></clipPath></defs></svg>