<svg width="250" height="189" viewBox="0 0 250 189" fill="none" xmlns="http://www.w3.org/2000/svg">
<path d="M87.4102 55.1205H46.4102V50.1205H87.4102C88.2935 50.1186 89.1676 49.9408 89.9814 49.5974C90.7953 49.254 91.5327 48.7519 92.1504 48.1205L110.39 29.8805C110.415 29.8575 110.435 29.8296 110.449 29.7987C110.462 29.7678 110.47 29.7343 110.47 29.7004C110.47 29.629 110.441 29.5608 110.39 29.5105L105.49 24.6105C105.44 24.5634 105.374 24.5371 105.305 24.5371C105.236 24.5371 105.17 24.5634 105.12 24.6105L91.9302 37.8005L88.4004 34.2705L101.59 21.0804C102.078 20.5921 102.657 20.2047 103.294 19.9404C103.932 19.6761 104.615 19.54 105.305 19.54C105.995 19.54 106.678 19.6761 107.316 19.9404C107.953 20.2047 108.533 20.5921 109.021 21.0804L113.93 25.9805C114.914 26.9666 115.467 28.3025 115.467 29.6954C115.467 31.0883 114.914 32.4244 113.93 33.4105L95.6802 51.7405C94.5929 52.8216 93.3027 53.677 91.8833 54.2571C90.4639 54.8372 88.9435 55.1306 87.4102 55.1205Z" fill="#2C2A2D"/>
<path d="M65.2988 36.5801H46.3789V31.5801H65.2988C66.1928 31.5803 67.0783 31.4038 67.9038 31.0605C68.7293 30.7173 69.4786 30.2141 70.1089 29.5801L96.2388 3.45005C97.3309 2.35098 98.6307 1.48007 100.062 0.887793C101.494 0.29552 103.029 -0.00624143 104.579 9.78437e-05H137.969C138.538 -0.00121732 139.102 0.109744 139.629 0.326758C140.155 0.543772 140.634 0.862538 141.037 1.26475C141.44 1.66695 141.76 2.14476 141.979 2.67075C142.197 3.19674 142.309 3.76059 142.309 4.33005V12.0201C142.309 13.1712 141.852 14.2751 141.038 15.089C140.224 15.9029 139.12 16.3601 137.969 16.3601H114.109V11.3601H137.309V5.0001H104.569C103.675 4.99767 102.789 5.17321 101.963 5.51658C101.137 5.85995 100.388 6.36428 99.7588 7.0001L73.6289 33.1301C72.536 34.2253 71.2376 35.0938 69.8081 35.6859C68.3786 36.2779 66.8461 36.5818 65.2988 36.5801Z" fill="#2C2A2D"/>
<path d="M40.5687 188.33C36.8911 188.332 33.2953 187.243 30.2367 185.202C27.178 183.16 24.7939 180.256 23.3856 176.859C21.9773 173.462 21.6085 169.723 22.3255 166.116C23.0425 162.509 24.813 159.196 27.4134 156.595C30.0139 153.995 33.3274 152.224 36.9344 151.507C40.5415 150.79 44.2803 151.159 47.6776 152.567C51.0749 153.976 53.9779 156.36 56.0199 159.419C58.0618 162.477 59.1507 166.073 59.1488 169.75C59.1435 174.676 57.1843 179.399 53.701 182.883C50.2177 186.366 45.4948 188.325 40.5687 188.33ZM40.5687 156.16C37.8804 156.158 35.2521 156.954 33.016 158.446C30.7798 159.938 29.0363 162.06 28.0062 164.543C26.9761 167.026 26.7051 169.759 27.2284 172.396C27.7516 175.032 29.0454 177.455 30.9456 179.356C32.8458 181.258 35.2672 182.553 37.9037 183.079C40.5401 183.604 43.2733 183.335 45.7572 182.307C48.241 181.279 50.364 179.537 51.8578 177.302C53.3515 175.067 54.1488 172.439 54.1488 169.75C54.1461 166.149 52.7147 162.695 50.1688 160.147C47.6229 157.599 44.1704 156.166 40.5687 156.16Z" fill="#2C2A2D"/>
<path d="M144.059 188.33C140.382 188.33 136.787 187.24 133.73 185.197C130.673 183.154 128.29 180.25 126.883 176.852C125.476 173.455 125.109 169.716 125.827 166.11C126.545 162.504 128.317 159.191 130.918 156.592C133.518 153.992 136.832 152.223 140.439 151.506C144.045 150.79 147.783 151.16 151.18 152.568C154.576 153.977 157.479 156.361 159.521 159.42C161.562 162.478 162.651 166.073 162.649 169.75C162.646 174.679 160.686 179.405 157.2 182.889C153.714 186.373 148.988 188.33 144.059 188.33ZM144.059 156.16C141.371 156.16 138.744 156.957 136.509 158.451C134.274 159.944 132.532 162.066 131.503 164.55C130.475 167.033 130.206 169.765 130.73 172.402C131.254 175.038 132.549 177.459 134.449 179.36C136.35 181.261 138.772 182.555 141.408 183.079C144.044 183.604 146.776 183.335 149.259 182.306C151.743 181.277 153.865 179.535 155.358 177.301C156.852 175.066 157.649 172.438 157.649 169.75C157.649 166.146 156.217 162.689 153.668 160.141C151.12 157.592 147.663 156.16 144.059 156.16Z" fill="#2C2A2D"/>
<path d="M16.44 172.25H5.50003C4.04134 172.25 2.64232 171.671 1.61087 170.639C0.579421 169.608 3.09745e-05 168.209 3.09745e-05 166.75V146.17C-0.00240357 145.448 0.138698 144.732 0.41507 144.064C0.691442 143.396 1.09745 142.79 1.60989 142.28L12.1099 131.78C13.2664 130.613 14.6435 129.687 16.1612 129.057C17.6788 128.427 19.3065 128.105 20.9497 128.11H54.21C55.1957 128.113 56.1722 127.921 57.0835 127.545C57.9948 127.17 58.8229 126.617 59.5201 125.92L81.3697 104.06C82.528 102.896 83.906 101.973 85.4234 101.345C86.9408 100.717 88.5677 100.396 90.21 100.4H142.02C143.662 100.396 145.289 100.717 146.807 101.345C148.324 101.973 149.702 102.896 150.86 104.06L172.98 126.18C174.144 127.339 175.067 128.716 175.695 130.234C176.324 131.751 176.644 133.378 176.64 135.02V169.74H171.64V135.01C171.643 134.025 171.45 133.049 171.072 132.139C170.695 131.23 170.14 130.404 169.44 129.71L147.32 107.59C145.913 106.186 144.008 105.395 142.02 105.39H90.21C89.2247 105.386 88.2485 105.579 87.3384 105.956C86.4284 106.334 85.6025 106.89 84.9097 107.59L63.0498 129.44C61.8915 130.605 60.514 131.528 58.9966 132.156C57.4792 132.784 55.8523 133.105 54.21 133.1H20.9497C19.9646 133.097 18.989 133.29 18.0791 133.668C17.1692 134.046 16.3434 134.601 15.6499 135.3L5.13968 145.81C5.04914 145.904 4.99925 146.03 5.00003 146.16V166.74C5.00003 166.873 5.05275 167 5.14652 167.094C5.24028 167.188 5.36742 167.24 5.50003 167.24H16.44V172.25Z" fill="#2C2A2D"/>
<path d="M119 167.25H65V172.25H119V167.25Z" fill="#2C2A2D"/>
<path d="M156.719 128.12H75.3984V133.12H156.719V128.12Z" fill="#2C2A2D"/>
<path d="M60.4702 117.03H37.9805C36.5218 117.03 35.1228 116.45 34.0913 115.419C33.0599 114.387 32.4805 112.989 32.4805 111.53V90.9498C32.4781 90.2271 32.6192 89.5112 32.8955 88.8434C33.1719 88.1757 33.5779 87.5693 34.0904 87.0597L44.5904 76.5597C45.7469 75.3924 47.124 74.4668 48.6416 73.8367C50.1593 73.2067 51.787 72.8848 53.4302 72.8898H95.9004C96.8846 72.8925 97.8595 72.7003 98.7691 72.3244C99.6787 71.9485 100.505 71.3964 101.2 70.6998L123.061 48.8398C124.219 47.6756 125.596 46.7527 127.114 46.1244C128.631 45.4962 130.258 45.175 131.9 45.1797H198.501C200.143 45.175 201.77 45.4962 203.287 46.1244C204.805 46.7527 206.182 47.6756 207.34 48.8398L229.46 70.9598C230.625 72.1181 231.548 73.4959 232.176 75.0132C232.804 76.5306 233.125 78.1576 233.12 79.7999V94.9498H228.12V79.7999C228.123 78.8147 227.93 77.8388 227.553 76.9289C227.175 76.019 226.62 75.1933 225.92 74.4998L203.8 52.3798C203.107 51.68 202.281 51.1252 201.371 50.7475C200.461 50.3698 199.486 50.1768 198.501 50.1797H131.9C129.91 50.1843 128.001 50.9751 126.59 52.3798L104.74 74.2298C103.582 75.394 102.204 76.317 100.687 76.9452C99.1697 77.5735 97.5427 77.8945 95.9004 77.8898H53.4302C52.4451 77.8874 51.4694 78.0806 50.5596 78.4583C49.6498 78.836 48.8242 79.3905 48.1304 80.0898L37.6201 90.5998C37.5296 90.6937 37.4797 90.8193 37.4805 90.9498V111.53C37.4805 111.662 37.5332 111.79 37.627 111.883C37.7208 111.977 37.8479 112.03 37.9805 112.03H60.4702V117.03Z" fill="#2C2A2D"/>
<path d="M207.909 72.9004H118.629V77.9004H207.909V72.9004Z" fill="#2C2A2D"/>
<path d="M202.289 176.51L189.289 163.51C187.438 161.649 186.393 159.135 186.379 156.51V115.86C186.375 115.117 186.647 114.399 187.142 113.844C187.637 113.29 188.32 112.939 189.059 112.86C198.939 111.86 213.549 105.86 215.919 100.92C216.027 100.705 216.191 100.523 216.394 100.394C216.596 100.264 216.83 100.192 217.07 100.183C217.311 100.175 217.548 100.232 217.759 100.347C217.97 100.463 218.147 100.633 218.269 100.84C221.329 105.7 234.679 111.84 244.809 112.84C245.55 112.917 246.235 113.267 246.732 113.821C247.23 114.376 247.503 115.095 247.499 115.84V156.46C247.5 157.775 247.242 159.077 246.739 160.292C246.236 161.507 245.499 162.611 244.569 163.54L231.569 176.54C229.711 178.399 227.197 179.451 224.569 179.47H209.399C208.077 179.471 206.768 179.21 205.547 178.702C204.327 178.194 203.22 177.449 202.289 176.51Z" fill="#F1D2C3"/>
<path d="M209.379 181.95C206.056 181.941 202.871 180.618 200.519 178.271L187.519 165.271C186.36 164.113 185.442 162.738 184.817 161.224C184.193 159.71 183.874 158.088 183.879 156.45V115.801C183.872 114.44 184.372 113.126 185.282 112.115C186.191 111.103 187.445 110.467 188.799 110.33C198.799 109.33 211.989 103.261 213.679 99.7905C213.972 99.1778 214.424 98.6555 214.989 98.2788C215.554 97.9021 216.211 97.6851 216.889 97.6505C217.581 97.6154 218.271 97.7654 218.886 98.0853C219.501 98.4052 220.02 98.8834 220.389 99.4705C222.859 103.4 235.259 109.38 245.059 110.34C246.415 110.475 247.673 111.109 248.586 112.121C249.499 113.132 250.003 114.448 249.999 115.81V156.43C250.004 158.073 249.683 159.7 249.054 161.217C248.426 162.734 247.503 164.112 246.339 165.271L233.339 178.271C232.184 179.431 230.811 180.351 229.299 180.979C227.787 181.607 226.166 181.931 224.529 181.93H209.359L209.379 181.95ZM204.069 174.751C205.478 176.157 207.388 176.948 209.379 176.95H224.549C225.53 176.953 226.502 176.761 227.409 176.385C228.315 176.009 229.137 175.457 229.829 174.761L242.829 161.761C243.529 161.065 244.084 160.238 244.461 159.326C244.839 158.415 245.032 157.437 245.029 156.45V115.83C245.032 115.71 244.989 115.592 244.91 115.501C244.83 115.41 244.719 115.353 244.599 115.34C234.599 114.34 221.919 108.751 217.219 103.511C212.559 109.261 198.069 114.43 189.339 115.33C189.218 115.341 189.105 115.397 189.025 115.489C188.945 115.58 188.903 115.699 188.909 115.82V156.47C188.906 157.452 189.098 158.425 189.472 159.333C189.846 160.241 190.395 161.066 191.089 161.761L204.069 174.751Z" fill="#2C2A2D"/>
<path d="M214.39 150.84C213.255 150.843 212.13 150.621 211.082 150.187C210.033 149.752 209.081 149.114 208.28 148.31L202.5 142.53L206.04 138.99L211.82 144.77C212.157 145.108 212.558 145.376 212.999 145.559C213.44 145.742 213.912 145.836 214.39 145.836C214.867 145.836 215.34 145.742 215.781 145.559C216.222 145.376 216.623 145.108 216.96 144.77L232.02 129.71L235.55 133.25L220.55 148.31C219.743 149.12 218.782 149.761 217.725 150.195C216.667 150.63 215.533 150.849 214.39 150.84Z" fill="#2C2A2D"/>
<path d="M61.8691 85.5601H49.8691V90.5601H61.8691V85.5601Z" fill="#2C2A2D"/>
<path d="M32 139.18H20V144.18H32V139.18Z" fill="#2C2A2D"/>
</svg>
