<svg width="88" height="79" viewBox="0 0 88 79" fill="none" xmlns="http://www.w3.org/2000/svg">
<g clip-path="url(#clip0_1364_2446)">
<path d="M81.7074 41.2775C77.6517 37.2452 72.2522 35.0294 66.5144 35.0294C60.7765 35.0294 55.377 37.2501 51.3213 41.2775C47.2607 45.3098 45.0293 50.6668 45.0293 56.3646C45.0293 62.0624 47.2656 67.4242 51.3213 71.4516C55.377 75.4791 60.7765 77.6997 66.5144 77.6997C72.2522 77.6997 77.6517 75.4791 81.7074 71.4516C85.768 67.4193 87.9994 62.0624 87.9994 56.3646C87.9994 50.6668 85.7631 45.305 81.7074 41.2775ZM54.0971 44.0339C57.4123 40.7418 61.826 38.9254 66.5144 38.9254C70.5456 38.9254 74.3659 40.2695 77.4653 42.7336L72.1639 47.998C70.5063 46.8877 68.5545 46.2936 66.5144 46.2936C63.8024 46.2936 61.2571 47.3406 59.3396 49.2447C57.4221 51.1489 56.3677 53.6764 56.3677 56.3695C56.3677 58.4002 56.9709 60.3336 58.0841 61.9796L52.7828 67.244C50.3013 64.1662 48.9477 60.3725 48.9477 56.3695C48.9477 51.7089 50.777 47.3309 54.0922 44.0388L54.0971 44.0339ZM63.0618 61.5072L61.3405 59.7979C60.6588 58.7898 60.2959 57.6064 60.2959 56.3695C60.2959 54.7185 60.9433 53.1699 62.1202 52.0011C63.2972 50.8323 64.8568 50.1895 66.5193 50.1895C67.8826 50.1895 69.1724 50.6278 70.2415 51.4265L71.4921 52.6683C72.2963 53.7299 72.7377 55.0107 72.7377 56.3646C72.7377 58.0155 72.0904 59.5641 70.9134 60.7329C69.7364 61.9017 68.1769 62.5445 66.5144 62.5445C65.2638 62.5445 64.0721 62.1793 63.0569 61.5072H63.0618ZM78.9366 68.7001C75.6214 71.9922 71.2076 73.8087 66.5193 73.8087C62.4881 73.8087 58.6677 72.4646 55.5683 70.0004L60.8697 64.736C62.5273 65.8463 64.4791 66.4405 66.5193 66.4405C69.2313 66.4405 71.7765 65.3934 73.694 63.4893C75.6116 61.5851 76.6659 59.0577 76.6659 56.3646C76.6659 54.3338 76.0627 52.4005 74.9495 50.7544L80.2509 45.49C82.7324 48.5678 84.0859 52.3664 84.0859 56.3646C84.0859 61.0251 82.2567 65.4032 78.9415 68.6952L78.9366 68.7001Z" fill="#2C2A2D"/>
<path d="M76.448 63.4496L73.6738 66.2045L76.2296 68.7424L79.0038 65.9875L76.448 63.4496Z" fill="#2C2A2D"/>
<path d="M56.9519 44.0805L54.1777 46.8353L56.7335 49.3732L59.5077 46.6184L56.9519 44.0805Z" fill="#2C2A2D"/>
<path d="M32.456 17.5074C36.9041 17.5074 40.5233 13.9134 40.5233 9.49639C40.5233 5.07936 36.9041 1.48535 32.456 1.48535C28.0079 1.48535 24.3887 5.07936 24.3887 9.49639C24.3887 13.9134 28.0079 17.5074 32.456 17.5074ZM32.456 5.3813C34.7413 5.3813 36.6 7.227 36.6 9.49639C36.6 11.7658 34.7413 13.6115 32.456 13.6115C30.1707 13.6115 28.312 11.7658 28.312 9.49639C28.312 7.227 30.1707 5.3813 32.456 5.3813Z" fill="#2C2A2D"/>
<path d="M48.2126 39.8652L47.7075 32.2876C47.7173 30.1449 48.242 28.0995 49.1493 26.6677L64.9014 2.0892L61.5911 0L45.839 24.5834C44.5149 26.6726 43.7891 29.429 43.7891 32.3461L44.304 40.1185L48.2175 39.8604L48.2126 39.8652Z" fill="#2C2A2D"/>
<path d="M46.9327 75.1041H39.9198L36.9086 50.5061C36.7272 48.8795 35.5796 47.701 34.177 47.701H30.6852C29.2827 47.701 28.1596 48.8308 27.9634 50.4282L24.5894 75.0992H17.449C17.3852 74.9726 17.2577 74.6414 17.2479 73.9402L20.9848 32.7649L20.9946 32.5896C20.9946 29.653 20.2639 26.8967 18.9447 24.8318L3.32992 0.0146484L0 2.0795L15.6197 26.9113C16.527 28.3284 17.0517 30.3689 17.0664 32.5117L13.3295 73.6918L13.3197 73.8671C13.3197 77.6559 15.4971 79.0049 17.3656 79.0049H25.6585C27.0317 79.0049 28.1498 77.9043 28.3754 76.3167L31.7543 51.6067H33.0834L36.1043 76.2729C36.3103 77.8848 37.4333 79.0098 38.831 79.0098H47.0062C48.8747 79.0098 51.0522 77.6657 51.0522 73.872H47.1288C47.1288 74.6268 46.9964 74.9823 46.9278 75.1138L46.9327 75.1041Z" fill="#2C2A2D"/>
</g>
<defs>
<clipPath id="clip0_1364_2446">
<rect width="88" height="79" fill="white"/>
</clipPath>
</defs>
</svg>
