<svg width="81" height="79" viewBox="0 0 81 79" fill="none" xmlns="http://www.w3.org/2000/svg">
<g clip-path="url(#clip0_1364_2453)">
<path d="M40.5 26.7886C47.8659 26.7886 53.8593 20.7795 53.8593 13.3943C53.8593 6.0091 47.8659 0 40.5 0C33.134 0 27.1406 6.0091 27.1406 13.3943C27.1406 20.7795 33.134 26.7886 40.5 26.7886ZM40.5 4.07742C45.6241 4.07742 49.7926 8.25677 49.7926 13.3943C49.7926 18.5319 45.6241 22.7112 40.5 22.7112C35.3758 22.7112 31.2074 18.5319 31.2074 13.3943C31.2074 8.25677 35.3758 4.07742 40.5 4.07742Z" fill="#2C2A2D"/>
<path d="M74.5696 62.0328H53.4376L45.2431 53.8219C43.7638 52.3439 41.3593 52.3439 39.8851 53.8219L35.9454 57.7719C34.4661 59.2551 34.4661 61.6659 35.9454 63.149L50.6468 77.8889C51.3636 78.6075 52.3142 79 53.3258 79H74.5747C76.5827 79 78.2145 77.3639 78.2145 75.3507V65.6872C78.2145 63.674 76.5827 62.0379 74.5747 62.0379L74.5696 62.0328ZM74.1426 74.9226H53.4376L39.0107 60.4579L42.559 56.9004L50.6417 64.9992C51.3585 65.7178 52.3091 66.1103 53.3207 66.1103H74.1426V74.9226Z" fill="#2C2A2D"/>
<path d="M6.85779 66.0439H27.5628L33.6578 72.155L36.5351 69.2702L30.3587 63.0776C29.6521 62.3692 28.676 61.9614 27.6797 61.9614H6.43078C4.42281 61.9614 2.79102 63.5975 2.79102 65.6107V75.2742C2.79102 77.2874 4.42281 78.9235 6.43078 78.9235H43.1487V74.8461H6.85779V66.0337V66.0439Z" fill="#2C2A2D"/>
<path d="M79.8876 36.1565L74.916 31.1719C74.1992 30.4532 73.2486 30.0608 72.237 30.0608C71.2254 30.0608 70.2747 30.4583 69.558 31.1719L61.948 38.8018L53.9111 30.7438C53.2045 30.0353 52.2284 29.6276 51.2321 29.6276L40.5009 29.6378L29.7697 29.6276C28.7581 29.6276 27.8074 30.0251 27.0907 30.7387L19.0537 38.7967L11.4488 31.1668C10.7321 30.4481 9.78146 30.0557 8.76985 30.0557C7.75824 30.0557 6.80763 30.4532 6.09087 31.1668L1.11923 36.1514C-0.360057 37.6346 -0.360057 40.0454 1.11923 41.5285L16.3798 56.829C17.0966 57.5477 18.0472 57.9401 19.0588 57.9401C20.0704 57.9401 21.021 57.5426 21.7378 56.829L27.1517 51.401V58.2969H31.2185V49.3164C31.2185 48.0116 30.4407 46.8445 29.241 46.345C28.0413 45.8455 26.6687 46.1207 25.7486 47.0432L19.0588 53.7506L4.18965 38.8425L8.76985 34.2503L16.7916 42.293C17.3965 42.8996 18.1997 43.236 19.0588 43.236C19.9179 43.236 20.7211 42.8996 21.326 42.293L29.8917 33.705L40.5161 33.7152L51.1355 33.705L59.7011 42.293C60.3061 42.8996 61.1093 43.236 61.9684 43.236C62.8275 43.236 63.6307 42.8996 64.2356 42.293L72.2573 34.2503L76.8375 38.8425L61.9684 53.7506L55.2785 47.0432C54.3584 46.1207 52.9859 45.8455 51.7862 46.345C50.5865 46.8445 49.8087 48.0116 49.8087 49.3164V54.7496H53.8755V51.401L59.2894 56.829C60.0061 57.5477 60.9567 57.9401 61.9684 57.9401C62.98 57.9401 63.9306 57.5426 64.6473 56.829L79.9079 41.5285C80.6247 40.8099 81.0161 39.8568 81.0161 38.8425C81.0161 37.8283 80.6196 36.8752 79.9079 36.1565H79.8876Z" fill="#2C2A2D"/>
</g>
<defs>
<clipPath id="clip0_1364_2453">
<rect width="81" height="79" fill="white"/>
</clipPath>
</defs>
</svg>
