<svg width="250" height="189" viewBox="0 0 250 189" fill="none" xmlns="http://www.w3.org/2000/svg"><path d="M87.41 55.12h-41v-5h41a6.648 6.648 0 004.74-2l18.24-18.24a.253.253 0 00.059-.081.255.255 0 00-.059-.289l-4.9-4.9a.27.27 0 00-.37 0L91.93 37.8l-3.53-3.53 13.19-13.19a5.258 5.258 0 013.715-1.54 5.253 5.253 0 013.716 1.54l4.909 4.9a5.26 5.26 0 010 7.43L95.68 51.74a11.618 11.618 0 01-8.27 3.38z" fill="#2C2A2D"/><path d="M65.299 36.58h-18.92v-5h18.92a6.78 6.78 0 004.81-2l26.13-26.13a11.692 11.692 0 018.34-3.45h33.39a4.333 4.333 0 014.01 2.67c.218.527.33 1.09.33 1.66v7.69a4.34 4.34 0 01-4.34 4.34h-23.86v-5h23.2V5h-32.74a6.742 6.742 0 00-4.81 2l-26.13 26.13a11.75 11.75 0 01-8.33 3.45zm-24.73 151.75a18.59 18.59 0 1118.58-18.58 18.6 18.6 0 01-18.58 18.58zm0-32.17a13.585 13.585 0 00-13.34 16.235 13.587 13.587 0 0010.675 10.683c2.636.525 5.37.257 7.853-.771a13.597 13.597 0 008.392-12.557 13.6 13.6 0 00-13.58-13.59zm103.49 32.17a18.595 18.595 0 01-18.232-22.22 18.59 18.59 0 1118.232 22.22zm0-32.17a13.591 13.591 0 00-2.651 26.919 13.595 13.595 0 0013.95-5.779 13.584 13.584 0 00-1.69-17.159 13.587 13.587 0 00-9.609-3.981z" fill="#2C2A2D"/><path d="M16.44 172.25H5.5a5.498 5.498 0 01-5.5-5.5v-20.58a5.461 5.461 0 011.61-3.89l10.5-10.5a12.394 12.394 0 018.84-3.67h33.26a7.474 7.474 0 005.31-2.19l21.85-21.86a12.42 12.42 0 018.84-3.66h51.81a12.417 12.417 0 018.84 3.66l22.12 22.12a12.411 12.411 0 013.66 8.84v34.72h-5v-34.73a7.425 7.425 0 00-2.2-5.3l-22.12-22.12a7.53 7.53 0 00-5.3-2.2H90.21a7.407 7.407 0 00-5.3 2.2l-21.86 21.85a12.418 12.418 0 01-8.84 3.66H20.95a7.423 7.423 0 00-5.3 2.2L5.14 145.81a.5.5 0 00-.14.35v20.58a.5.5 0 00.5.5h10.94v5.01z" fill="#2C2A2D"/><path d="M119 167.25H65v5h54v-5zm37.719-39.13h-81.32v5h81.32v-5zM60.47 117.03H37.98a5.498 5.498 0 01-5.5-5.5V90.95a5.461 5.461 0 011.61-3.89l10.5-10.5a12.388 12.388 0 018.84-3.67H95.9a7.46 7.46 0 005.3-2.19l21.861-21.86a12.408 12.408 0 018.839-3.66h66.601a12.416 12.416 0 018.839 3.66l22.12 22.12a12.406 12.406 0 013.66 8.84v15.15h-5V79.8a7.432 7.432 0 00-2.2-5.3L203.8 52.38a7.424 7.424 0 00-5.299-2.2H131.9a7.552 7.552 0 00-5.31 2.2l-21.85 21.85a12.419 12.419 0 01-8.84 3.66H53.43a7.44 7.44 0 00-5.3 2.2L37.62 90.6a.5.5 0 00-.14.35v20.58a.5.5 0 00.5.5h22.49v5z" fill="#2C2A2D"/><path d="M207.909 72.9h-89.28v5h89.28v-5z" fill="#2C2A2D"/><path d="M202.289 176.51l-13-13a10.001 10.001 0 01-2.91-7v-40.65a3 3 0 012.68-3c9.88-1 24.49-7 26.86-11.94a1.344 1.344 0 011.151-.736c.241-.009.478.048.689.164.211.115.388.285.51.492 3.06 4.86 16.41 11 26.54 12a3 3 0 012.69 3v40.62a9.997 9.997 0 01-2.93 7.08l-13 13a9.997 9.997 0 01-7 2.93h-15.17a10.007 10.007 0 01-7.11-2.96z" fill="#F1D2C3"/><path d="M209.379 181.95a12.59 12.59 0 01-8.86-3.68l-13-13a12.404 12.404 0 01-3.64-8.82V115.8a5.466 5.466 0 011.403-3.685 5.466 5.466 0 013.517-1.785c10-1 23.19-7.07 24.88-10.54a3.771 3.771 0 013.21-2.14 3.9 3.9 0 013.5 1.82c2.47 3.93 14.87 9.91 24.67 10.87a5.48 5.48 0 014.94 5.47v40.62a12.417 12.417 0 01-3.66 8.84l-13 13a12.43 12.43 0 01-8.81 3.66h-15.17l.02.02zm-5.31-7.2a7.526 7.526 0 005.31 2.2h15.17a7.409 7.409 0 005.28-2.19l13-13a7.45 7.45 0 002.2-5.31v-40.62a.484.484 0 00-.43-.49c-10-1-22.68-6.59-27.38-11.83-4.66 5.75-19.15 10.92-27.88 11.82a.468.468 0 00-.43.49v40.65a7.459 7.459 0 002.18 5.29l12.98 12.99z" fill="#2C2A2D"/><path d="M214.39 150.84a8.589 8.589 0 01-6.11-2.53l-5.78-5.78 3.54-3.54 5.78 5.78a3.629 3.629 0 005.14 0l15.06-15.06 3.53 3.54-15 15.06a8.618 8.618 0 01-2.825 1.886 8.61 8.61 0 01-3.335.644zM61.87 85.56h-12v5h12v-5zM32 139.18H20v5h12v-5z" fill="#2C2A2D"/></svg>