<svg width="73" height="78" viewBox="0 0 73 78" fill="none" xmlns="http://www.w3.org/2000/svg">
<g clip-path="url(#clip0_1364_2464)">
<path d="M13.2358 71.1108C11.3326 71.1108 9.79102 72.6523 9.79102 74.5554C9.79102 76.4585 11.3326 78 13.2358 78C15.139 78 16.6805 76.4585 16.6805 74.5554C16.6805 72.6523 15.139 71.1108 13.2358 71.1108Z" fill="#2C2A2D"/>
<path d="M52.0375 49.8513H48.8142C47.449 49.8513 46.2375 50.674 45.7357 51.9443L37.0333 73.9H28.991L38.055 50.561L42.0739 39.5944L38.6789 38.3513L34.669 49.2862L25.4559 73.0094C25.0581 74.0265 25.1937 75.1747 25.8085 76.0788C26.4233 76.9829 27.445 77.5208 28.539 77.5208H37.2368C38.602 77.5208 39.809 76.7026 40.3154 75.4279L49.0177 53.4722H53.7101L52.033 49.8558L52.0375 49.8513Z" fill="#2C2A2D"/>
<path d="M72.7011 71.798L60.016 41.1495H60.0251L59.2927 39.3775L55.1247 29.3015L53.9041 26.3541V26.3632L53.5108 25.4229C52.3806 22.6926 50.2107 20.9974 47.8418 20.9974H39.1621C36.7164 20.9974 34.4968 22.4395 33.4977 24.6725L25.8984 41.692L29.1985 43.1656L36.7978 26.1462C37.2137 25.215 38.1404 24.6138 39.1576 24.6138H47.8373C48.7008 24.6138 49.6094 25.4727 50.1609 26.8062L69.3196 73.1089H61.0196L54.2386 56.6546L50.3146 56.6998L57.8235 74.8357C58.3027 75.9975 59.2972 76.7208 60.4184 76.7208H70.1062C71.0058 76.7208 71.8331 76.2552 72.3756 75.4505C73.0627 74.4199 73.1893 72.9869 72.6966 71.798H72.7011Z" fill="#2C2A2D"/>
<path d="M60.4278 32.6601L68.4159 37.7184L66.2685 41.154L62.973 38.8078L65.4458 44.7884C65.7442 44.8743 66.0516 44.9195 66.359 44.9195C67.453 44.9195 68.5199 44.3725 69.1392 43.3825L71.6617 39.3458C72.6201 37.8134 72.15 35.7927 70.631 34.8389L58.0273 26.8558L60.4278 32.6555V32.6601Z" fill="#2C2A2D"/>
<path d="M28.1006 45.9275L24.7553 44.5488L24.0048 46.375L17.807 43.821C16.9887 43.4865 16.0891 43.4865 15.2754 43.8255L7.30995 47.1435C6.4917 47.4825 5.85881 48.1199 5.51975 48.9381L0 62.7119L18.2364 70.2203L26.4731 49.8693L28.1006 45.9275ZM20.9488 53.8835L16.2473 65.4919L4.68795 60.7319L8.81533 50.4344L16.5457 47.2113L22.626 49.7156H22.6351L20.9488 53.8835Z" fill="#2C2A2D"/>
<path d="M50.2936 18.6603C55.4381 18.6603 59.6243 14.4744 59.6243 9.33016C59.6243 4.18592 55.4381 0 50.2936 0C45.149 0 40.9629 4.18592 40.9629 9.33016C40.9629 14.4744 45.149 18.6603 50.2936 18.6603ZM50.2936 3.61634C53.4445 3.61634 56.0077 6.17943 56.0077 9.33016C56.0077 12.4809 53.4445 15.044 50.2936 15.044C47.1427 15.044 44.5794 12.4809 44.5794 9.33016C44.5794 6.17943 47.1427 3.61634 50.2936 3.61634Z" fill="#2C2A2D"/>
</g>
<defs>
<clipPath id="clip0_1364_2464">
<rect width="73" height="78" fill="white"/>
</clipPath>
</defs>
</svg>
