<svg width="222" height="161" viewBox="0 0 222 161" fill="none" xmlns="http://www.w3.org/2000/svg">
<path d="M156.23 52.1002H164.23C165.026 52.1002 165.789 52.4163 166.351 52.9789C166.914 53.5415 167.23 54.3046 167.23 55.1002V115.2C167.23 115.996 166.914 116.759 166.351 117.322C165.789 117.884 165.026 118.2 164.23 118.2H6C5.20435 118.2 4.44127 117.884 3.87866 117.322C3.31605 116.759 3 115.996 3 115.2V55.1002C3 54.3046 3.31605 53.5415 3.87866 52.9789C4.44127 52.4163 5.20435 52.1002 6 52.1002H13.9402C14.5936 52.1011 15.2293 51.8887 15.751 51.4952C16.2726 51.1017 16.6515 50.5487 16.8301 49.9202L28.1802 10.2202C28.7857 8.12779 30.0578 6.2903 31.8032 4.98709C33.5487 3.68388 35.6719 2.98624 37.8501 3.00021H132.43C134.601 3.00055 136.712 3.70711 138.446 5.01319C140.179 6.31927 141.441 8.15396 142.04 10.2402L153.4 49.9402C153.579 50.5552 153.951 51.0967 154.46 51.4854C154.969 51.874 155.589 52.0895 156.23 52.1002V52.1002Z" stroke="#2C2A2D" stroke-width="5" stroke-miterlimit="10"/>
<path d="M43.1204 132.19V154.78C43.1204 155.576 42.8043 156.339 42.2417 156.902C41.6791 157.464 40.916 157.78 40.1204 157.78H21.2402C20.4446 157.78 19.6817 157.464 19.1191 156.902C18.5565 156.339 18.2402 155.576 18.2402 154.78V132.19" stroke="#2C2A2D" stroke-width="5" stroke-miterlimit="10"/>
<path d="M153.499 132.19V154.78C153.499 155.576 153.183 156.339 152.62 156.902C152.058 157.464 151.295 157.78 150.499 157.78H131.619C130.823 157.78 130.06 157.464 129.498 156.902C128.935 156.339 128.619 155.576 128.619 154.78V132.19" stroke="#2C2A2D" stroke-width="5" stroke-miterlimit="10"/>
<path d="M30.679 95.6003C36.6878 95.6003 41.5588 90.7292 41.5588 84.7203C41.5588 78.7115 36.6878 73.8403 30.679 73.8403C24.6701 73.8403 19.7988 78.7115 19.7988 84.7203C19.7988 90.7292 24.6701 95.6003 30.679 95.6003Z" stroke="#2C2A2D" stroke-width="5" stroke-miterlimit="10"/>
<path d="M141.06 95.6003C147.068 95.6003 151.94 90.7292 151.94 84.7203C151.94 78.7115 147.068 73.8403 141.06 73.8403C135.051 73.8403 130.18 78.7115 130.18 84.7203C130.18 90.7292 135.051 95.6003 141.06 95.6003Z" stroke="#2C2A2D" stroke-width="5" stroke-miterlimit="10"/>
<path d="M57.2285 76.0503V91.2703C57.2285 91.8007 57.4394 92.3094 57.8145 92.6845C58.1895 93.0596 58.6981 93.2703 59.2285 93.2703H110.959C111.489 93.2703 111.998 93.0596 112.373 92.6845C112.748 92.3094 112.959 91.8007 112.959 91.2703V76.0503" stroke="#2C2A2D" stroke-width="5" stroke-miterlimit="10"/>
<path d="M3 132.19H167.19" stroke="#2C2A2D" stroke-width="5" stroke-miterlimit="10"/>
<path d="M173.849 154.66L160.849 141.66C158.984 139.785 157.937 137.246 157.94 134.6V93.9303C157.935 93.1871 158.207 92.4688 158.702 91.9145C159.197 91.3603 159.88 91.0095 160.619 90.9303C170.499 89.9303 185.109 83.8703 187.489 78.9903C187.593 78.7725 187.756 78.5874 187.958 78.4552C188.16 78.323 188.394 78.2488 188.635 78.2405C188.876 78.2323 189.115 78.2903 189.326 78.4084C189.537 78.5265 189.711 78.7001 189.829 78.9103C192.889 83.7703 206.239 89.9103 216.369 90.9103C217.11 90.9872 217.796 91.3369 218.293 91.8914C218.79 92.4459 219.063 93.1655 219.059 93.9103V134.54C219.059 137.192 218.005 139.735 216.129 141.61L203.129 154.61C201.272 156.469 198.757 157.521 196.129 157.54H180.96C179.643 157.552 178.337 157.303 177.117 156.809C175.897 156.315 174.787 155.585 173.849 154.66Z" fill="#D6E3FF" stroke="#2C2A2D" stroke-width="5" stroke-miterlimit="10"/>
<path d="M37.7796 16L28.6497 48.71C28.5265 49.1554 28.5077 49.6232 28.595 50.077C28.6824 50.5308 28.8734 50.9582 29.1531 51.326C29.4329 51.6939 29.7939 51.9921 30.2078 52.1975C30.6218 52.4028 31.0775 52.5098 31.5396 52.51H137.38" stroke="#2C2A2D" stroke-width="5" stroke-miterlimit="10"/>
<path d="M83.959 14H129.849C130.501 14.0013 131.134 14.2147 131.654 14.608C132.173 15.0013 132.551 15.5531 132.729 16.18L138.379 36" stroke="#2C2A2D" stroke-width="5" stroke-miterlimit="10"/>
<path d="M188.479 120.19V138.27C188.479 139.066 188.795 139.829 189.357 140.392C189.92 140.954 190.683 141.27 191.479 141.27H196.849" stroke="#2C2A2D" stroke-width="5" stroke-miterlimit="10"/>
<path d="M188.479 120.18C194.488 120.18 199.36 115.309 199.36 109.3C199.36 103.291 194.488 98.4199 188.479 98.4199C182.471 98.4199 177.6 103.291 177.6 109.3C177.6 115.309 182.471 120.18 188.479 120.18Z" stroke="#2C2A2D" stroke-width="5" stroke-miterlimit="10"/>
</svg>
