<svg width="209" height="209" viewBox="0 0 209 209" fill="none" xmlns="http://www.w3.org/2000/svg">
<path d="M105.65 189.781C89.0227 189.771 72.7719 184.761 58.9517 175.384C45.1315 166.006 34.3628 152.684 28.0068 137.1C21.6508 121.516 19.9929 104.37 23.2429 87.8304C26.493 71.2908 34.5048 56.1 46.2657 44.1783C58.0266 32.2567 73.0086 24.1396 89.3172 20.8532C105.626 17.5668 122.529 19.2586 137.89 25.7149C153.25 32.1712 166.379 43.102 175.616 57.1254C184.852 71.1487 189.782 87.635 189.782 104.5C189.744 127.115 180.867 148.792 165.096 164.779C149.325 180.765 127.947 189.757 105.65 189.781ZM105.65 24.3248C90.0367 24.335 74.7771 29.0406 61.8 37.8463C48.8229 46.652 38.7111 59.1625 32.7431 73.7964C26.7752 88.4303 25.2189 104.53 28.2711 120.061C31.3234 135.592 38.8472 149.856 49.891 161.051C60.9349 172.245 75.0035 179.867 90.3176 182.953C105.632 186.039 121.504 184.45 135.928 178.387C150.351 172.324 162.679 162.06 171.352 148.892C180.026 135.724 184.655 120.243 184.655 104.406C184.62 83.1693 176.283 62.8132 161.473 47.8012C146.663 32.7893 126.588 24.3468 105.65 24.3248Z" fill="#2C2A2D"/>
<path d="M81.7259 112.908C80.2474 112.901 78.8304 112.304 77.7815 111.247L61.3758 94.5943C60.1924 93.3992 59.2543 91.9779 58.6157 90.4123C57.9771 88.8468 57.6506 87.1682 57.6553 85.4737V60.1754C57.6506 58.4809 57.9771 56.8025 58.6157 55.2369C59.2543 53.6714 60.1924 52.2499 61.3758 51.0548L70.0869 42.2128C71.2643 41.0116 72.6646 40.0593 74.207 39.4111C75.7494 38.763 77.4031 38.4317 79.0725 38.4366H116.927C118.409 38.4393 119.829 39.038 120.877 40.1016C121.925 41.1652 122.515 42.607 122.517 44.1112V51.5397C122.518 52.2859 122.373 53.025 122.09 53.7139C121.807 54.4028 121.393 55.0279 120.871 55.5532L96.5463 80.2429C95.1264 81.6861 94.3258 83.6406 94.3198 85.6802L94.2081 107.233C94.1922 108.727 93.5998 110.154 92.5583 111.21C91.5168 112.265 90.1093 112.864 88.6378 112.877H81.7562L81.7259 112.908ZM79.0725 43.5953C78.0711 43.5922 77.0795 43.7913 76.1546 44.1809C75.2297 44.5706 74.3902 45.1431 73.6853 45.8651L64.9742 54.6969C64.2635 55.4149 63.6998 56.2688 63.316 57.2091C62.9322 58.1494 62.7356 59.1575 62.7378 60.1754V85.4737C62.7345 86.4917 62.9306 87.5003 63.3145 88.4408C63.6984 89.3812 64.2626 90.235 64.9742 90.9524L81.37 107.594C81.4748 107.681 81.6017 107.734 81.7358 107.749H88.6174C88.7514 107.746 88.879 107.691 88.9738 107.595C89.0686 107.499 89.1231 107.369 89.1257 107.233L89.2374 85.6802C89.2386 83.9974 89.5682 82.3315 90.2067 80.7785C90.8452 79.2255 91.7802 77.8162 92.9579 76.6318L117.283 51.9317C117.377 51.8359 117.432 51.7065 117.435 51.5707V44.1421C117.435 44.0053 117.381 43.874 117.286 43.7773C117.191 43.6805 117.061 43.6263 116.927 43.6263L79.0725 43.5953Z" fill="#2C2A2D"/>
<path d="M122.155 175.368H114.322C112.858 175.365 111.455 174.772 110.42 173.718C109.384 172.663 108.802 171.235 108.799 169.744V143.004C108.8 142.87 108.75 142.742 108.659 142.646L102.523 136.398C102.006 135.876 101.596 135.254 101.317 134.57C101.038 133.885 100.895 133.151 100.896 132.41V113.728C100.899 112.237 101.482 110.808 102.517 109.754C103.552 108.7 104.956 108.106 106.42 108.104H131.775C132.501 108.101 133.22 108.245 133.891 108.528C134.561 108.811 135.17 109.226 135.681 109.75L152.13 126.51C152.645 127.031 153.053 127.651 153.33 128.334C153.608 129.016 153.749 129.749 153.747 130.488V143.167C153.749 143.906 153.608 144.638 153.33 145.321C153.053 146.004 152.645 146.624 152.13 147.145L126.021 173.732C124.995 174.776 123.605 175.364 122.155 175.368ZM106.47 113.196C106.336 113.196 106.209 113.25 106.115 113.346C106.02 113.442 105.967 113.572 105.967 113.707V132.4C105.97 132.534 106.024 132.663 106.118 132.758L112.253 139.005C112.768 139.527 113.176 140.147 113.454 140.829C113.731 141.512 113.873 142.244 113.871 142.983V169.723C113.873 169.858 113.927 169.987 114.02 170.082C114.114 170.177 114.24 170.232 114.373 170.235H122.205C122.337 170.232 122.463 170.177 122.557 170.081L148.666 143.494C148.756 143.394 148.806 143.263 148.806 143.126V130.447C148.808 130.31 148.757 130.178 148.666 130.078L132.207 113.329C132.162 113.28 132.108 113.241 132.047 113.214C131.987 113.188 131.921 113.175 131.855 113.176L106.47 113.196Z" fill="#2C2A2D"/>
<path d="M36.0348 134.529H35.7959C30.7622 134.529 25.9346 136.57 22.3753 140.204C18.8159 143.837 16.8164 148.766 16.8164 153.904C16.8177 157.42 17.8563 160.853 19.7975 163.757L35.2557 186.961C35.3425 187.09 35.4588 187.195 35.5945 187.268C35.7302 187.341 35.8814 187.379 36.0348 187.379C36.1882 187.379 36.3393 187.341 36.4751 187.268C36.6108 187.195 36.7271 187.09 36.8139 186.961L52.2818 163.757C54.2158 160.85 55.2511 157.418 55.2532 153.904C55.2532 151.36 54.7619 148.841 53.8081 146.49C52.8542 144.139 51.4567 142.003 49.6943 140.204C47.9319 138.405 45.8396 136.977 43.5369 136.004C41.2342 135.03 38.7661 134.529 36.2737 134.529H36.0348Z" fill="#F0F4FC"/>
<path d="M36.0348 189.782C35.4626 189.781 34.8988 189.638 34.3929 189.365C33.887 189.092 33.454 188.697 33.1311 188.215L17.8114 165.212C15.5939 161.898 14.4098 157.976 14.4141 153.963C14.4222 148.174 16.6774 142.625 20.6859 138.531C24.6944 134.438 30.1291 132.135 35.798 132.126H36.2715C41.9404 132.135 47.3746 134.438 51.3831 138.531C55.3916 142.625 57.6473 148.174 57.6554 153.963C57.6583 157.975 56.4779 161.895 54.2682 165.212L38.9379 188.215C38.6157 188.698 38.1826 189.093 37.6766 189.366C37.1706 189.639 36.6071 189.782 36.0348 189.782ZM35.798 137.383C31.4944 137.391 27.3692 139.141 24.3261 142.248C21.283 145.356 19.57 149.568 19.5619 153.963C19.5603 156.922 20.4319 159.812 22.0634 162.258L36.0348 183.221L50.0057 162.258C51.6372 159.812 52.5092 156.922 52.5077 153.963C52.5022 149.567 50.7896 145.353 47.746 142.245C44.7023 139.137 40.5759 137.389 36.2715 137.383H35.798Z" fill="#2C2A2D"/>
<path d="M34.8329 158.552C36.8231 158.552 38.4364 156.4 38.4364 153.747C38.4364 151.093 36.8231 148.942 34.8329 148.942C32.8428 148.942 31.2295 151.093 31.2295 153.747C31.2295 156.4 32.8428 158.552 34.8329 158.552Z" fill="#F0F4FC"/>
<path d="M36.0342 160.954C34.6084 160.954 33.2144 160.531 32.0289 159.739C30.8435 158.946 29.9197 157.82 29.3746 156.502C28.8294 155.185 28.6875 153.735 28.9665 152.337C29.2454 150.939 29.9326 149.655 30.9415 148.647C31.9505 147.64 33.2355 146.954 34.6343 146.677C36.033 146.4 37.4827 146.545 38.7994 147.092C40.1162 147.639 41.2408 148.564 42.0315 149.751C42.8221 150.937 43.243 152.332 43.2409 153.757C43.2382 155.667 42.4777 157.497 41.1264 158.847C39.7751 160.196 37.9439 160.954 36.0342 160.954ZM36.0342 151.78C35.6432 151.78 35.2607 151.896 34.9356 152.114C34.6105 152.331 34.3574 152.64 34.2078 153.001C34.0582 153.362 34.0186 153.76 34.0949 154.143C34.1712 154.527 34.3598 154.879 34.6363 155.155C34.9128 155.432 35.2651 155.62 35.6486 155.696C36.0321 155.773 36.4294 155.733 36.7907 155.584C37.1519 155.434 37.4606 155.181 37.6778 154.856C37.8951 154.531 38.0108 154.148 38.0108 153.757C38.0108 153.498 37.96 153.241 37.8607 153.001C37.7613 152.761 37.6157 152.543 37.4322 152.359C37.2486 152.176 37.0305 152.03 36.7907 151.931C36.5508 151.832 36.2939 151.78 36.0342 151.78Z" fill="#2C2A2D"/>
<path d="M166.954 28.8276H166.645C160.04 28.8303 153.705 31.4292 149.034 36.053C144.363 40.6768 141.738 46.9472 141.735 53.4862C141.737 57.9603 143.097 62.3306 145.64 66.0297L165.935 95.5527C166.049 95.7189 166.202 95.8549 166.382 95.9488C166.561 96.0428 166.762 96.092 166.965 96.092C167.168 96.092 167.368 96.0428 167.547 95.9488C167.727 95.8549 167.881 95.7189 167.995 95.5527L188.289 66.0297C190.829 62.3297 192.186 57.9593 192.184 53.4862C192.184 46.9481 189.561 40.6777 184.891 36.0536C180.222 31.4295 173.889 28.8303 167.284 28.8276H166.954Z" fill="#F0F4FC"/>
<path d="M166.959 98.4943C166.341 98.4943 165.733 98.3443 165.187 98.0577C164.641 97.7711 164.173 97.3565 163.826 96.8499L143.654 67.4132C140.834 63.3151 139.327 58.468 139.333 53.5069C139.341 46.3269 142.222 39.4433 147.344 34.3662C152.465 29.2891 159.409 26.4334 166.652 26.4253H167.277C174.519 26.4334 181.462 29.2895 186.582 34.3668C191.702 39.4442 194.58 46.3278 194.586 53.5069C194.598 58.4689 193.091 63.3179 190.265 67.4132L170.103 96.8499C169.754 97.3567 169.285 97.7713 168.737 98.0578C168.189 98.3444 167.579 98.4942 166.959 98.4943ZM166.652 31.5006C160.767 31.5086 155.125 33.8297 150.964 37.9549C146.803 42.0802 144.461 47.6729 144.453 53.5069C144.447 57.4515 145.646 61.3055 147.893 64.5609L166.959 92.3531L186.036 64.5609C188.28 61.3046 189.476 57.4506 189.466 53.5069C189.461 47.6739 187.122 42.0811 182.962 37.9556C178.802 33.83 173.161 31.5086 167.277 31.5006H166.652Z" fill="#2C2A2D"/>
<path d="M166.96 62.4596C165.296 62.4596 163.67 61.9662 162.287 61.0419C160.905 60.1175 159.827 58.8039 159.191 57.2669C158.555 55.7299 158.389 54.0388 158.714 52.4075C159.039 50.7762 159.841 49.2782 161.018 48.1027C162.195 46.9272 163.694 46.1272 165.326 45.8039C166.958 45.4806 168.648 45.6485 170.184 46.2865C171.721 46.9244 173.033 48.0037 173.956 49.3877C174.879 50.7717 175.37 52.3983 175.368 54.0617C175.365 56.2899 174.478 58.4259 172.902 60.0006C171.325 61.5752 169.188 62.4596 166.96 62.4596ZM166.96 50.7127C166.297 50.7127 165.65 50.9091 165.099 51.2771C164.548 51.6451 164.119 52.1682 163.865 52.7801C163.612 53.3921 163.546 54.0654 163.675 54.715C163.804 55.3647 164.123 55.9615 164.592 56.4299C165.06 56.8982 165.657 57.2172 166.307 57.3464C166.956 57.4757 167.629 57.4093 168.241 57.1559C168.853 56.9024 169.377 56.4731 169.745 55.9224C170.113 55.3716 170.309 54.7241 170.309 54.0617C170.309 53.6219 170.222 53.1865 170.054 52.7801C169.886 52.3738 169.639 52.0046 169.328 51.6936C169.017 51.3826 168.648 51.1359 168.241 50.9676C167.835 50.7993 167.399 50.7127 166.96 50.7127Z" fill="#2C2A2D"/>
<path d="M105.701 209C88.1112 208.999 70.7896 204.799 55.2529 196.767L57.761 192.184C72.5271 199.811 88.9866 203.8 105.701 203.803V209Z" fill="#2C2A2D"/>
<path d="M153.702 196.988L151.345 192.33C167.206 183.871 180.498 171.09 189.766 155.388C199.035 139.685 203.923 121.665 203.896 103.299H209C209.028 122.625 203.885 141.588 194.132 158.112C184.379 174.636 170.393 188.085 153.702 196.988Z" fill="#2C2A2D"/>
<path d="M25.9771 40.8389C25.5064 40.8355 25.0373 40.7804 24.5795 40.6746L18.7046 39.2679C17.2508 38.9326 15.9873 38.0641 15.1794 36.8448L7.76935 26.7415C7.26222 25.9726 7.08882 25.0404 7.2871 24.1481C7.48537 23.2558 8.03926 22.4756 8.82793 21.9775L11.9298 20.078C12.4583 19.7546 13.0653 19.5721 13.6897 19.5487C14.3141 19.5252 14.9337 19.6617 15.4864 19.9445L23.754 24.1849C23.9149 24.2751 24.0975 24.3226 24.2833 24.3226C24.4691 24.3226 24.6517 24.2751 24.8126 24.1849L32.8579 19.2566L18.3975 8.41411L18.1541 8.03422C17.6469 7.26526 17.4735 6.33312 17.6718 5.44078C17.8701 4.54845 18.424 3.7682 19.2127 3.2701L23.6801 0.539041C24.1752 0.232397 24.741 0.0502283 25.3269 0.0089977C25.9128 -0.0322329 26.5002 0.068669 27.0357 0.302784L46.6509 9.60518C47.0135 9.75043 47.4072 9.8086 47.7979 9.77463C48.1887 9.74066 48.5651 9.61551 48.8953 9.41003L59.7565 2.75673C60.5412 2.26967 61.4183 1.93978 62.3363 1.78638C63.2544 1.63297 64.1947 1.65915 65.1022 1.86346L69.2626 2.767C70.1756 2.96946 71.0374 3.34602 71.7989 3.87484C72.5604 4.40366 73.2062 5.07416 73.698 5.84725L76.8737 10.7346L29.0469 40.038C28.1177 40.5706 27.0564 40.8475 25.9771 40.8389ZM13.2742 25.3657L19.6256 34.0315C19.7073 34.1586 19.836 34.2505 19.9854 34.2882L25.8608 35.6846C25.9377 35.7039 26.0176 35.7075 26.096 35.6951C26.1744 35.6827 26.2491 35.6546 26.3157 35.6126L69.6647 9.06097L69.3044 8.50649C69.1799 8.31196 69.0165 8.14367 68.8237 8.01141C68.631 7.87915 68.4134 7.78561 68.1828 7.73643L64.0224 6.82273C63.7923 6.77185 63.554 6.76554 63.3215 6.80431C63.089 6.84307 62.867 6.92613 62.6676 7.04859L51.8063 13.7019C50.726 14.3675 49.4921 14.7629 48.2156 14.8525C46.939 14.9421 45.6593 14.7231 44.4914 14.2153L25.7761 5.33387L24.273 6.25797L42.1204 19.6057L27.6813 28.4562C26.7373 29.0333 25.6531 29.3589 24.5381 29.4004C23.4231 29.4419 22.3166 29.1976 21.3298 28.6924L13.9198 24.914L13.2742 25.3657Z" fill="#2C2A2D"/>
<path d="M1.03885 117.713C0.359693 113.126 0.0125974 108.501 1.52967e-05 103.869C-0.00564455 93.9038 1.55936 83.9942 4.6433 74.4712L9.6092 75.9247C6.67447 84.9762 5.18616 94.3963 5.19417 103.869C5.19415 108.275 5.5134 112.676 6.14981 117.04L1.03885 117.713Z" fill="#2C2A2D"/>
</svg>
