<svg width="111" height="28" viewBox="0 0 111 28" fill="none" xmlns="http://www.w3.org/2000/svg"><g clip-path="url(#clip0_244_1262)"><path d="M.475 1.86C.19 2.145 0 2.62 0 3.19v20.995c0 .57.19 1.045.475 1.33l.095.095 11.78-11.78v-.19L.475 1.86z" fill="url(#paint0_linear_244_1262)"/><path d="M16.245 17.725L12.35 13.83v-.19l3.895-3.895.095.095 4.655 2.66c1.33.76 1.33 1.995 0 2.755l-4.75 2.47z" fill="url(#paint1_linear_244_1262)"/><path d="M16.245 17.725l-3.99-3.99-11.78 11.78c.475.475 1.14.475 1.995.095l13.775-7.885z" fill="url(#paint2_linear_244_1262)"/><path d="M16.245 9.65L2.375 1.765c-.76-.475-1.52-.38-1.9.095L12.35 13.735l3.895-4.085z" fill="url(#paint3_linear_244_1262)"/><path opacity=".2" d="M16.245 17.63l-13.87 7.79c-.76.475-1.425.38-1.9 0l-.095.095.095.095c.475.38 1.14.475 1.9 0l13.87-7.98z" fill="#fff"/><path opacity=".12" d="M.475 25.42C.19 25.04 0 24.66 0 24.09v.095c0 .57.19 1.045.475 1.33v-.095zM20.9 14.875l-4.75 2.66.095.095 4.655-2.66c.665-.38.95-.855.95-1.33 0 .475-.285.95-.95 1.235z" fill="#fff"/><path opacity=".25" d="M2.375 1.955L20.9 12.405c.57.38.95.76.95 1.235 0-.475-.285-.95-.95-1.33L2.375 1.765C1.045 1.005 0 1.67 0 3.19v.095c0-1.52 1.045-2.09 2.375-1.33z" fill="#fff"/><path d="M110.105 15.445l-4.845 11.21h-1.805l1.805-3.99-3.135-7.22h1.9l2.09 5.13h.095l1.995-5.13h1.9zm-19-.57c0 2.28-1.9 3.705-3.895 3.705h-2.47v4.465h-1.805V11.17h4.275c1.995 0 3.895 1.425 3.895 3.705zm-1.71 0c0-.95-.76-1.995-2.09-1.995H84.74v4.085h2.565c1.33 0 2.09-1.14 2.09-2.09zm12.445 3.61v4.56h-1.71v-.95h-.095c-.38.665-1.045 1.14-2.28 1.14-1.52 0-2.945-1.045-2.945-2.66 0-1.71 1.71-2.66 3.42-2.66.855 0 1.52.285 1.805.475v-.095c0-.95-.95-1.52-1.9-1.52-.665 0-1.33.19-1.615.855l-1.615-.665c.57-1.235 1.9-1.805 3.135-1.805 2.28.095 3.8 1.235 3.8 3.325zm-1.71 1.33c-.475-.19-.855-.38-1.615-.38-.855 0-1.9.38-1.9 1.235 0 .76.855 1.045 1.425 1.045 1.045 0 1.995-.76 2.09-1.9zm-49.685-.57a4.055 4.055 0 01-4.085 4.085c-2.28 0-4.085-1.71-4.085-4.085s1.805-4.085 4.085-4.085a4.055 4.055 0 014.085 4.085zm-1.71 0c0-1.425-1.045-2.47-2.28-2.47-1.235 0-2.28.95-2.28 2.47 0 1.425 1.045 2.47 2.28 2.47 1.235 0 2.28-1.045 2.28-2.47zM35.91 16.49v1.71h4.085c-.095.95-.475 1.71-.95 2.185-.57.57-1.52 1.235-3.135 1.235-2.565 0-4.465-1.995-4.465-4.56a4.485 4.485 0 017.6-3.325L40.28 12.5a6.08 6.08 0 00-4.275-1.71c-3.42 0-6.365 2.85-6.365 6.27 0 3.42 2.945 6.27 6.365 6.27 1.9 0 3.23-.57 4.37-1.805 1.14-1.14 1.52-2.755 1.52-3.99 0-.38 0-.76-.095-1.045h-5.89zm23.37 2.755a4.055 4.055 0 01-4.085 4.085 3.992 3.992 0 01-4.085-4.085c0-2.375 1.805-4.085 4.085-4.085 2.28.095 4.085 1.805 4.085 4.085zm-1.71 0c0-1.425-1.045-2.47-2.28-2.47-1.235 0-2.28.95-2.28 2.47 0 1.425 1.045 2.47 2.28 2.47 1.235 0 2.28-1.045 2.28-2.47zm21.565-.95l-5.415 2.28c.38.855 1.045 1.235 1.995 1.235.95 0 1.52-.475 1.995-1.14l1.425.95a3.971 3.971 0 01-7.315-2.28c0-2.375 1.71-4.085 3.8-4.085s3.135 1.71 3.42 2.565l.095.475zm-2.09-.665c-.19-.475-.76-.855-1.52-.855-.95 0-2.185.76-2.09 2.375l3.61-1.52zm15.105 5.415h1.805V11.17H92.15v11.875zm-23.085 0h1.805V11.17h-1.805v11.875zm-2.945-7.6h1.71v7.22c0 2.945-1.805 4.18-3.8 4.18-1.995 0-3.135-1.33-3.61-2.375l1.52-.665c.285.665.95 1.425 1.995 1.425 1.33 0 2.185-.855 2.185-2.375v-.57h-.095c-.38.475-1.14.95-2.09.95-1.995 0-3.895-1.805-3.895-3.99 0-2.28 1.805-4.085 3.895-4.085.95 0 1.71.475 2.09.95h.095v-.665zm.095 3.8c0-1.425-.95-2.47-2.185-2.47s-2.28 1.045-2.28 2.47c0 1.425 1.045 2.47 2.28 2.47 1.235 0 2.185-1.045 2.185-2.47zM56.335 6.23c-.57-.57-.855-1.235-.855-2.09 0-.855.285-1.52.855-2.09.57-.665 1.235-.95 2.09-.95.855 0 1.52.285 2.09.855.57.57.855 1.235.855 2.09 0 .855-.285 1.52-.855 2.09-.57.57-1.235.855-2.09.855-.855.095-1.52-.19-2.09-.76zm-.095-2.09c0 .665.19 1.235.665 1.615.38.475.95.665 1.52.665.57 0 1.14-.19 1.52-.665.38-.38.665-.95.665-1.615s-.19-1.235-.665-1.615c-.38-.475-.95-.665-1.52-.665-.57 0-1.14.19-1.52.665-.475.38-.665.95-.665 1.615zM32.775 7.085c.855 0 1.52-.285 2.09-.855.475-.475.665-1.14.665-1.9v-.475h-2.755v.665h2.09c0 .475-.19.855-.475 1.14-.38.38-.95.665-1.615.665-.57 0-1.14-.19-1.52-.665-.475-.38-.665-.95-.665-1.615s.19-1.235.665-1.615c.475-.38.95-.665 1.52-.665.665 0 1.14.19 1.52.665l.57-.38c-.19-.285-.475-.475-.855-.665a2.63 2.63 0 00-1.235-.285c-.855 0-1.52.285-2.09.855-.57.57-.855 1.235-.855 2.09 0 .855.285 1.52.855 2.09.57.665 1.33.95 2.09.95zm7.22-.855H37.43V4.425h2.375V3.76H37.43V1.955h2.565V1.29H36.67v5.7h3.325v-.76zm3.135.76V1.955h1.52V1.29h-3.895v.665h1.615V6.99h.76zm5.13-5.7h-.76v5.7h.76v-5.7zm3.23 5.7V1.955h1.615V1.29H49.21v.665h1.615V6.99h.665zm11.59-3.61V2.24l2.945 4.655h.76v-5.7h-.76V5.66L63.27 1.195h-.855v5.7h.76V3.38h-.095z" fill="#fff"/></g><defs><linearGradient id="paint0_linear_244_1262" x1="11.239" y1="2.953" x2="-4.712" y2="18.894" gradientUnits="userSpaceOnUse"><stop stop-color="#00A0FF"/><stop offset=".01" stop-color="#00A1FF"/><stop offset=".26" stop-color="#00BEFF"/><stop offset=".51" stop-color="#00D2FF"/><stop offset=".76" stop-color="#00DFFF"/><stop offset="1" stop-color="#00E3FF"/></linearGradient><linearGradient id="paint1_linear_244_1262" x1="22.667" y1="13.678" x2="-.313" y2="13.678" gradientUnits="userSpaceOnUse"><stop stop-color="#FFE000"/><stop offset=".41" stop-color="#FFBD00"/><stop offset=".78" stop-color="orange"/><stop offset="1" stop-color="#FF9C00"/></linearGradient><linearGradient id="paint2_linear_244_1262" x1="14.108" y1="15.863" x2="-7.505" y2="37.476" gradientUnits="userSpaceOnUse"><stop stop-color="#FF3A44"/><stop offset="1" stop-color="#C31162"/></linearGradient><linearGradient id="paint3_linear_244_1262" x1="-2.536" y1="-5.151" x2="7.116" y2="4.501" gradientUnits="userSpaceOnUse"><stop stop-color="#32A071"/><stop offset=".07" stop-color="#2DA771"/><stop offset=".48" stop-color="#15CF74"/><stop offset=".8" stop-color="#06E775"/><stop offset="1" stop-color="#00F076"/></linearGradient><clipPath id="clip0_244_1262"><path fill="#fff" transform="translate(0 .15)" d="M0 0h110.2v27.55H0z"/></clipPath></defs></svg>