<svg width="17" height="17" xmlns="http://www.w3.org/2000/svg"><path d="M8.5 5.583a1.031 1.031 0 0 1-1.458-1.458l2.916-2.917a4.125 4.125 0 0 1 5.834 5.834l-2.917 2.916A1.031 1.031 0 1 1 11.417 8.5l2.917-2.917a2.063 2.063 0 0 0-2.917-2.916L8.5 5.583Zm0 5.833a1.031 1.031 0 0 1 1.458 1.459l-2.916 2.917a4.125 4.125 0 0 1-5.834-5.834l2.917-2.916A1.031 1.031 0 0 1 5.583 8.5l-2.916 2.917a2.062 2.062 0 1 0 2.916 2.917L8.5 11.416Zm2.917-5.833a1.031 1.031 0 0 1 0 1.458l-4.375 4.375a1.031 1.031 0 1 1-1.459-1.458l4.375-4.375a1.031 1.031 0 0 1 1.459 0Z"/></svg>