<svg width="26" height="26" viewBox="0 0 26 26" fill="none" xmlns="http://www.w3.org/2000/svg">
<path d="M21.9966 20.323L15.6885 14.0103C15.5552 13.8783 15.4494 13.7213 15.3772 13.5481C15.305 13.375 15.2678 13.1893 15.2678 13.0017C15.2678 12.8141 15.305 12.6284 15.3772 12.4553C15.4494 12.2822 15.5552 12.1251 15.6885 11.9931L22 5.68042L20.3199 4L14.0084 10.3127C13.876 10.4452 13.7188 10.5503 13.5458 10.622C13.3727 10.6937 13.1873 10.7306 13 10.7306C12.8127 10.7306 12.6273 10.6937 12.4542 10.622C12.2812 10.5503 12.124 10.4452 11.9916 10.3127L5.6801 4L4 5.68042L10.3115 11.9931C10.4448 12.1251 10.5506 12.2822 10.6228 12.4553C10.695 12.6284 10.7322 12.8141 10.7322 13.0017C10.7322 13.1893 10.695 13.375 10.6228 13.5481C10.5506 13.7213 10.4448 13.8783 10.3115 14.0103L4 20.323L5.6801 22L12.0053 15.6838C12.1377 15.5514 12.295 15.4463 12.468 15.3746C12.641 15.3029 12.8264 15.266 13.0137 15.266C13.201 15.266 13.3865 15.3029 13.5595 15.3746C13.7325 15.4463 13.8897 15.5514 14.0221 15.6838L20.3336 21.9966L21.9966 20.323Z" fill="black"/>
</svg>
