<svg width="141" height="141" fill="none" xmlns="http://www.w3.org/2000/svg"><path d="M70.38 76H59.74a9.59 9.59 0 0 0-6.78 2.81l-6.31 6.31a9.59 9.59 0 0 0-2.81 6.78v12.93m53.09.01V91.91a9.59 9.59 0 0 0-2.81-6.78l-6.31-6.31a9.59 9.59 0 0 0-6.78-2.81H70.38m0 15.63h14.15m53.09-20.69c0 36.821-29.849 66.67-66.67 66.67S4.28 107.771 4.28 70.95c0-36.82 29.849-66.67 66.67-66.67s66.67 29.85 66.67 66.67ZM83.38 50.79c0 7.18-5.82 13-13 13s-13-5.82-13-13 5.82-13 13-13 13 5.82 13 13Z" stroke="#FFFFFF" stroke-width="6.563" stroke-miterlimit="10"/></svg>