<?xml version="1.0" encoding="utf-8"?><svg viewBox="0 0 425 237" xmlns="http://www.w3.org/2000/svg" xmlns:xlink="http://www.w3.org/1999/xlink"><style>:root>svg{display:none}:root>svg:target{display:block}</style><svg fill="none" viewBox="0 0 425 237" id="about-chart" xmlns="http://www.w3.org/2000/svg"><path d="M424 1l-4.246 1.852-4.245 6.917-4.246 2.84-4.3 10.621-4.246-.864-4.246 2.13-4.245 5.372-4.246 1.699-4.245 2.253-4.246-2.531-4.246-2.84-4.245-7.345-4.301-10.9-4.245-1.11-4.246 2.407-4.246 4.23-4.245 23.77-4.246 12.345-4.245-5.248-4.246 2.995-4.245 14.264-4.301 12.683-4.246-4.539-36.046 116.734-4.245-1.39-4.246-12.462-4.246-12.875-4.245.277-4.246 9.634-4.245-3.397-4.301-6.237-4.246-7.78-4.245-5.496-4.246 2.254-4.245 8.923h-4.246l-4.246-1.853-4.245-5.804-4.246-5.928-4.301-4.693-4.245-2.81-4.246-.154-4.245 2.84-4.246 50.477-4.245-5.373-4.246 3.798-4.246-2.408-4.3-2.254-4.246.154-4.245 2.254-4.246-1.42-4.246-7.61-4.245-10.065-4.246-.402-4.245 2.964-4.301 3.952-4.246-1.42-4.245-2.254-4.246-1.142-4.245-3.242-4.246 3.952-4.245 2.408-4.246-7.07-4.301 2.686-4.245-1.976-4.246 5.527-4.245 8.49-4.246 4.94-4.246.711-4.245-2.409-4.245-3.828-4.246-7.071-4.3-5.496-4.246-3.396-4.246-4.693-4.245-1.976-4.246-.432-4.246 10.257-4.245-.71-4.246 23.478-4.245-1.42-4.301 5.218h-4.246l-4.245-25.856-4.246 24.142-4.245.586-1.489 1.05-1.268 12.906-1.489 1.043-2.095 9.937-.11 7.533-2.04 5.712L13.792 235l-4.246-6.484-4.3 1.884L1 229.165" stroke="#2C2A2D" stroke-width="2"/></svg><svg fill="none" viewBox="0 0 20 20" id="accordion-ico" xmlns="http://www.w3.org/2000/svg"><g clip-path="url(#aba)"><path d="M20 8.97h-7.734a1.236 1.236 0 01-1.236-1.236V0H8.974v7.734c0 .683-.554 1.237-1.237 1.237H0v2.055h7.734c.683 0 1.237.554 1.237 1.237v7.734h2.055v-7.73c0-.684.554-1.237 1.237-1.237h7.734V8.97H20z" fill="#2C2A2D"/></g><defs><clipPath id="aba"><path fill="#fff" d="M0 0h20v20H0z"/></clipPath></defs></svg><svg fill="none" viewBox="0 0 96 25" id="app-store" xmlns="http://www.w3.org/2000/svg"><path d="M28.364 9.887l-4.256 11.8h1.9l1.084-3.183h4.493l1.083 3.182h1.938L30.35 9.887h-1.995.01zm-.807 7.145l1.758-5.178h.047l1.758 5.178h-3.563zm12.625-4.038a3.048 3.048 0 00-2.736 1.52h-.038v-1.425h-1.71v11.447h1.767v-4.265h.038a2.917 2.917 0 002.708 1.51c2.157 0 3.591-1.719 3.591-4.389 0-2.669-1.434-4.398-3.62-4.398zm-.474 7.287c-1.34 0-2.252-1.16-2.252-2.898 0-1.71.912-2.878 2.261-2.878 1.368 0 2.27 1.14 2.27 2.878 0 1.767-.902 2.898-2.28 2.898zm9.937-7.287a3.04 3.04 0 00-2.737 1.52h-.028v-1.425h-1.71v11.447h1.758v-4.265h.047a2.917 2.917 0 002.707 1.51c2.157 0 3.591-1.719 3.591-4.389 0-2.669-1.444-4.398-3.629-4.398zm-.466 7.287c-1.349 0-2.252-1.16-2.252-2.898 0-1.71.903-2.878 2.252-2.878 1.377 0 2.28 1.14 2.28 2.878 0 1.767-.903 2.898-2.28 2.898zm17.584-1.986c0 2.204-1.757 3.591-4.55 3.591-2.613 0-4.38-1.349-4.494-3.486h1.806c.133 1.168 1.263 1.938 2.821 1.938 1.482 0 2.565-.76 2.565-1.825 0-.912-.656-1.463-2.185-1.833l-1.52-.38c-2.175-.513-3.183-1.52-3.183-3.173 0-2.033 1.777-3.43 4.294-3.43 2.499 0 4.209 1.397 4.266 3.43h-1.786c-.105-1.178-1.083-1.89-2.498-1.89-1.425 0-2.395.722-2.395 1.767 0 .835.618 1.33 2.138 1.71l1.301.313c2.423.57 3.42 1.539 3.42 3.268zm3.82-5.206h1.633v1.396h-1.633v4.75c0 .732.323 1.074 1.044 1.074.19 0 .38-.019.58-.038v1.387a4.802 4.802 0 01-.978.076c-1.739 0-2.423-.646-2.423-2.318v-4.93h-1.245v-1.397h1.245v-2.033h1.776v2.033zm6.65-.104c-2.47 0-4.067 1.7-4.067 4.407 0 2.708 1.578 4.409 4.076 4.409 2.499 0 4.085-1.701 4.085-4.409 0-2.707-1.596-4.407-4.085-4.407h-.01zm0 7.352c-1.425 0-2.28-1.082-2.28-2.945 0-1.852.855-2.954 2.28-2.954 1.444 0 2.29 1.092 2.29 2.945 0 1.872-.856 2.954-2.28 2.954h-.01zm9.338-7.343c.2 0 .409.029.608.066v1.653a2.43 2.43 0 00-.798-.104 1.776 1.776 0 00-1.833 1.976v5.101H82.78V13.09h1.681v1.463h.038a2.052 2.052 0 012.071-1.558zm8.835 4.835v-.608c0-2.603-1.491-4.236-3.866-4.236-2.423 0-3.99 1.748-3.99 4.445 0 2.689 1.558 4.37 4.066 4.37 1.938 0 3.458-1.073 3.705-2.64h-1.682a1.938 1.938 0 01-1.995 1.215 2.252 2.252 0 01-2.308-2.441v-.105h6.08-.01zm-5.89-2.07A2.184 2.184 0 0191.53 14.4a2.09 2.09 0 011.986 1.349c.095.266.142.551.123.836h-4.294c0-.285.057-.57.171-.836v.01zM30.008 3.825a2.498 2.498 0 00-2.67-2.812h-2.052v5.662h2.052c1.682 0 2.66-1.045 2.66-2.85h.01zM26.17 5.878V1.812h1.064a1.796 1.796 0 011.871 2.024 1.776 1.776 0 01-1.871 2.042H26.17zm8.341-2.897a2.023 2.023 0 00-3.515 1.558 2.031 2.031 0 002.024 2.223 2.014 2.014 0 002.013-2.223 2.035 2.035 0 00-.522-1.558zm-1.492 3.04c-.74 0-1.149-.542-1.149-1.482 0-.922.409-1.473 1.14-1.473.741 0 1.159.551 1.159 1.473 0 .931-.418 1.472-1.15 1.472v.01zm3.8.665L35.642 2.41h.855l.76 3.258h.067l.883-3.268h.808l.883 3.268h.067l.76-3.268h.855l-1.178 4.275h-.884l-.883-3.144h-.066l-.874 3.144h-.875v.01zm8.531-2.565c0-.684-.294-1.026-.921-1.026a.978.978 0 00-.979.665c-.047.133-.056.285-.047.418v2.498h-.846V2.401h.817v.684h.067a1.282 1.282 0 011.273-.76 1.406 1.406 0 011.482 1.587v2.764h-.846V4.121zm3.04 2.565h-.855V.72h.856v5.966zm4.684-3.705a2.023 2.023 0 00-3.515 1.558 2.032 2.032 0 002.836 2.052 2.014 2.014 0 001.192-2.052 2.043 2.043 0 00-.513-1.558zm-1.501 3.04c-.731 0-1.14-.542-1.14-1.482 0-.922.409-1.473 1.14-1.473.731 0 1.15.551 1.15 1.473 0 .931-.419 1.472-1.14 1.472l-.01.01zm6.498.665V3.76c0-.903-.599-1.444-1.672-1.444-.969 0-1.663.475-1.748 1.206h.817c.095-.294.418-.475.883-.475.58 0 .884.257.884.713v.37l-1.159.067c-1.017.057-1.596.503-1.596 1.273a1.292 1.292 0 001.425 1.282 1.444 1.444 0 001.292-.665h.066v.599h.808zm-.836-1.577a1.025 1.025 0 01-.361.703.9.9 0 01-.352.19c-.123.038-.265.047-.398.038-.457 0-.789-.228-.789-.608s.266-.57.855-.618l1.045-.066v.36zm3.724 1.643a1.492 1.492 0 001.34-.75h.066v.674h.807V.73h-.845v2.366h-.057a1.406 1.406 0 00-1.311-.76c-1.083 0-1.777.855-1.777 2.213 0 1.359.684 2.214 1.777 2.214v-.01zm.237-3.657c.704 0 1.15.56 1.15 1.453s-.437 1.444-1.15 1.444c-.712 0-1.14-.541-1.14-1.453 0-.903.428-1.444 1.14-1.444zm7.487 3.667a2.014 2.014 0 002.023-2.223 2.034 2.034 0 00-2.84-2.043 2.023 2.023 0 00-1.198 2.043 2.036 2.036 0 002.014 2.223zm-1.14-2.223c0-.922.408-1.473 1.14-1.473.74 0 1.149.551 1.149 1.473 0 .931-.408 1.472-1.14 1.472-.741 0-1.15-.541-1.15-1.472zM73.29 3.16a.999.999 0 00-.57.599 1.045 1.045 0 00-.038.418v2.498h-.846V2.401h.808v.684h.066a1.283 1.283 0 011.274-.76 1.406 1.406 0 011.434.97c.067.199.085.408.047.617v2.764h-.845V4.121c0-.684-.294-1.026-.922-1.026-.132 0-.284.019-.408.066zm6.108-.028h-.683V2.42h.683V1.337h.846V2.42h.922v.713h-.922v2.194c0 .456.19.646.599.646.114 0 .218 0 .323-.019v.703c-.15.03-.303.045-.456.048-.94 0-1.311-.333-1.311-1.159V3.133zm3.763 3.543h-.846V.73h.846v2.366h.066a1.31 1.31 0 011.302-.76A1.406 1.406 0 0186 3.931v2.755h-.845V4.14c0-.684-.323-1.036-.912-1.036a.979.979 0 00-.798.295.997.997 0 00-.285.788v2.499-.01zm4-1.292a1.956 1.956 0 001.909 1.378 1.738 1.738 0 001.852-1.235h-.807a1.026 1.026 0 01-1.017.522 1.14 1.14 0 01-1.083-.76 1.13 1.13 0 01-.057-.475v-.038h3.021v-.294c0-1.349-.722-2.157-1.91-2.157a1.976 1.976 0 00-1.975 2.233c-.038.285-.02.56.066.826zm.873-1.662a1.1 1.1 0 011.444-.608 1.035 1.035 0 01.637 1.035h-2.157c0-.152.02-.285.076-.427zM18.03 15.958a10.832 10.832 0 01-1.502 3.059c-.883 1.32-1.805 2.613-3.277 2.631-1.425.038-1.9-.835-3.544-.835-1.653 0-2.166.817-3.534.873-1.406.048-2.47-1.415-3.391-2.726C.947 16.3-.478 11.426 1.441 8.13A5.254 5.254 0 015.86 5.432c1.396-.029 2.698.95 3.562.95.846 0 2.452-1.169 4.114-.988a5.016 5.016 0 013.942 2.128 4.893 4.893 0 00-2.327 4.095 4.721 4.721 0 002.879 4.341zm-7.002-11.21c-.56.256-1.159.39-1.777.38a4.588 4.588 0 011.131-3.316A4.902 4.902 0 0113.554.17a4.816 4.816 0 01-1.102 3.448c-.38.475-.874.865-1.425 1.131z" fill="#fff"/></svg><svg viewBox="0 0 21 21" id="close" xmlns="http://www.w3.org/2000/svg"><path d="M1.85 20.235L20.235 1.85 18.385 0 0 18.385l1.85 1.85z"/><path d="M20.235 18.384L1.85 0 0 1.85l18.385 18.384 1.85-1.85z"/></svg><svg viewBox="0 0 120 45" id="companie-bolt" xmlns="http://www.w3.org/2000/svg"><path fill-rule="evenodd" clip-rule="evenodd" d="M75.179 7.5L69.86 8.63v21.468h5.318V7.5zm-15.14 6.418a8.205 8.205 0 100 16.41 8.205 8.205 0 000-16.41zm0 10.863a2.66 2.66 0 110-5.318 2.66 2.66 0 010 5.318zm1.478 7.907a2.659 2.659 0 10-2.955 4.421 2.659 2.659 0 002.955-4.42zM48.209 18.15A6.983 6.983 0 0042.27 7.5H34v22.6h9.305a6.982 6.982 0 004.904-11.95zm-8.884-5.332h2.954a1.662 1.662 0 010 3.324h-2.954v-3.324zm3.988 11.964h-3.988v-3.323h3.988a1.662 1.662 0 110 3.323zm41.91-10.56v5.317h-2.65v4.172c0 1.263.406 2.194 1.47 2.194a4.44 4.44 0 001.188-.156v3.915a5.481 5.481 0 01-2.592.664h-.066c-.033 0-.065-.002-.096-.004a1.563 1.563 0 00-.096-.003h-.052c-.015 0-.031-.002-.048-.004a.44.44 0 00-.048-.004c-2.969-.155-4.985-2.023-4.985-5.265v-13.76l5.317-1.13v4.062h2.659z"/></svg><svg viewBox="0 0 120 45" id="companie-glovo" xmlns="http://www.w3.org/2000/svg"><g clip-path="url(#afa)" fill-rule="evenodd" clip-rule="evenodd"><path d="M25.03 22.05v-.045c0-4.529 3.52-8.364 8.472-8.364 2.465 0 4.107.577 5.61 1.64a1.433 1.433 0 01.587 1.155c0 .763-.634 1.41-1.432 1.41-.376 0-.657-.162-.892-.324-1.056-.762-2.206-1.27-3.99-1.27-3.028 0-5.328 2.61-5.328 5.706v.047c0 3.327 2.23 5.776 5.586 5.776 1.55 0 2.957-.485 3.967-1.225V23.53h-3.24c-.704 0-1.29-.531-1.29-1.224 0-.694.586-1.248 1.29-1.248h4.578c.82 0 1.455.624 1.455 1.433v4.32c0 .808-.329 1.386-1.01 1.802a10.577 10.577 0 01-5.843 1.756c-5.141 0-8.52-3.604-8.52-8.318zm17.961-7.554c0-.763.61-1.387 1.408-1.387.798 0 1.432.624 1.432 1.387V28.82c0 .785-.634 1.386-1.432 1.386-.774 0-1.408-.6-1.408-1.387V14.495zm5.04 9.565v-.047c0-3.488 2.816-6.376 6.618-6.376 3.802 0 6.596 2.842 6.596 6.33v.046c0 3.467-2.817 6.355-6.643 6.355-3.779 0-6.571-2.842-6.571-6.308zm10.374 0v-.047c0-2.148-1.573-3.927-3.803-3.927-2.277 0-3.732 1.756-3.732 3.882v.045c0 2.126 1.573 3.905 3.78 3.905 2.3 0 3.754-1.756 3.754-3.858zm9.93 6.261h-.14c-.775 0-1.292-.485-1.62-1.225l-4.13-9.31c-.07-.209-.165-.439-.165-.694 0-.693.634-1.34 1.408-1.34.774 0 1.173.44 1.408 1.017l3.192 8.086 3.24-8.132c.21-.485.586-.97 1.337-.97.775 0 1.385.577 1.385 1.34 0 .254-.094.531-.164.67l-4.13 9.334c-.33.716-.846 1.225-1.62 1.225zm6.95-6.26v-.048c0-3.488 2.817-6.376 6.62-6.376 3.801 0 6.595 2.842 6.595 6.33v.046c0 3.467-2.817 6.355-6.643 6.355-3.778 0-6.572-2.842-6.572-6.308zm10.375 0v-.048c0-2.148-1.573-3.927-3.803-3.927-2.276 0-3.731 1.756-3.731 3.882v.045c0 2.126 1.572 3.905 3.779 3.905 2.3 0 3.755-1.756 3.755-3.858zm7.588-17.499c-3.075 0-5.576 2.464-5.576 5.49 0 1.153.364 2.26 1.051 3.201l.149.203 2.903 4.034s.354.57 1.127.57h.693c.773 0 1.126-.57 1.126-.57l2.904-4.034.147-.203a5.394 5.394 0 001.053-3.2c0-3.027-2.502-5.49-5.577-5.49zm2.295 7.112l-.154.212-2.14 2.974-2.137-2.968-.157-.215a2.737 2.737 0 01-.537-1.625c0-1.536 1.27-2.786 2.83-2.786s2.83 1.25 2.83 2.787c0 .582-.185 1.143-.535 1.62zm-3.863 8.862v-.011c0-.82.661-1.5 1.555-1.5.894 0 1.55.669 1.55 1.489v.011c0 .814-.662 1.493-1.56 1.493-.888 0-1.546-.667-1.546-1.482z"/></g><defs><clipPath id="afa"><path fill="#fff" transform="translate(25 6.5)" d="M0 0h74v24H0z"/></clipPath></defs></svg><svg viewBox="0 0 104 53" id="companie-michelin" xmlns="http://www.w3.org/2000/svg"><path d="M37.459 44.492a23.1 23.1 0 01-3.545.397c-3.055.093-5.737-1.143-5.76-3.358-.047-3.825 3.824-5.924 6.693-6.507 1.283-.256 3.755-.56 6.203.047l-1.422 3.428c-.42-.933-1.47-.956-1.89-.956a5.883 5.883 0 00-2.541.536c-1.446.653-2.706 2.775-.653 3.592 1.143.443 2.565.093 4.081-.14l-1.166 2.962zm59.679-9.538l-2.449 6.67c.024-.677.164-3.335.257-4.851.023-.63-.093-1.12-.396-1.423-.373-.396-.84-.396-.863-.396h-5.48l-3.592 9.725h3.964l2.542-6.903-.303 6.903h6.67l3.592-9.725h-3.942zM76.639 41.46H72.02l2.379-6.506h-4.571l-3.592 9.725h9.212l1.19-3.218zm-10.331-3.964l.956-2.542h-9.842l-3.568 9.725h9.935l.956-2.612h-5.48l.396-1.096h5.13l.887-2.379h-5.13l.396-1.096h5.364zm-15.113 7.183l3.569-9.725h-4.478l-1.306 3.498h-2.356l1.283-3.498h-4.501l-3.568 9.725h4.478l1.236-3.288h2.355l-1.213 3.288h4.501zm-26.469 0l3.591-9.725h-4.71l-3.592 9.725h4.71zm-7.37 0l3.591-9.725h-6.67l-3.45 5.224s.209-2.729.279-3.405c.047-.49-.023-1.842-1.236-1.842H4.413L.82 44.679h4.27l2.589-7.043-.537 7.043h3.802l4.664-6.927-2.542 6.927h4.291zm64.6 0l3.568-9.725h-4.71l-3.592 9.725h4.734zm13.596 6.6c-.303.863-.723 1.143-1.586 1.143h-.91l.887-2.379h.886c.746 0 1.003.466.723 1.236zm-.676-1.68h-1.353l-1.19 3.243h1.61c1.166 0 1.772-.467 2.145-1.493.35-.933 0-1.75-1.212-1.75zm-3.242 1.167c-.14.443-.443.536-1.166.536h-.77l.467-1.282h.723c.77 0 .933.21.746.746zm-.63-1.166h-1.259l-1.19 3.242h.584l.42-1.12h1.002l.397 1.12h.583l-.467-1.19c.514-.047.933-.256 1.12-.793.256-.746-.047-1.26-1.19-1.26zm-4.967 2.005l1.283-1.725.093 1.725h-1.376zm1.166-2.005c-.163 0-.28.047-.396.21l-2.31 3.032h.607l.583-.817h1.726l.047.817h.536l-.21-3.242h-.583zm-2.169 0l-1.889 2.868.07-2.868h-.793l-1.889 2.868.024-2.868h-.56v3.242h.56a.4.4 0 00.373-.21l1.749-2.636-.047 2.846h.606a.39.39 0 00.35-.21l2.053-3.032h-.607zm-6.39 1.166c-.14.443-.443.536-1.166.536h-.793l.467-1.282h.723c.816 0 .956.21.77.746zm-.63-1.166h-1.259l-1.19 3.242h.584l.42-1.12h1.002l.397 1.12h.583l-.466-1.19c.513-.047.932-.256 1.119-.793.257-.746-.047-1.26-1.19-1.26zm-3.241 1.679c-.327.886-.793 1.19-1.54 1.19-.932 0-1.165-.49-.862-1.307.326-.886.793-1.189 1.539-1.189.91.023 1.143.49.863 1.306zm-.84-1.726c-1.12 0-1.749.49-2.122 1.54-.35.979-.047 1.795 1.376 1.795 1.096 0 1.75-.49 2.122-1.539.35-.956.047-1.796-1.376-1.796zm-4.244.49h2.122l.163-.42H69.27l-1.19 3.242h.584l.443-1.236h1.912l.163-.443H69.27l.42-1.143zm-4.734 1.003l-.677-1.446h-.56l.864 1.842-.514 1.4h.584l.49-1.376L67.38 49.6h-.676l-1.75 1.446zm-3.872.56l1.283-1.726.093 1.725h-1.376zm1.19-2.006c-.164 0-.28.047-.397.21l-2.309 3.032h.607l.583-.817h1.726l.046.817h.537l-.21-3.242h-.583zm-2.17 0l-1.888 2.868.07-2.868h-.793l-1.89 2.868.024-2.868h-.56v3.242h.56a.4.4 0 00.373-.21l1.75-2.636-.047 2.846h.606a.39.39 0 00.35-.21L60.71 49.6h-.606zm-7.812 1.166c-.14.443-.443.536-1.166.536h-.77l.467-1.282h.723c.793 0 .933.21.746.746zm-.63-1.166h-1.259l-1.19 3.242h.584l.42-1.12h1.002l.397 1.12h.583l-.467-1.19c.514-.047.933-.256 1.12-.793.28-.746-.023-1.26-1.19-1.26zm-4.314.42h2.122l.164-.42h-2.706l-1.19 3.242h2.706l.163-.42h-2.122l.35-.98h1.912l.164-.42h-1.913l.35-1.002zm-1.073-.42H43.15l-.163.443h1.283l-1.026 2.799h.583l1.026-2.799h1.26l.162-.443zm-6.973.443h1.283l-1.026 2.799h.583l1.026-2.799h1.26l.163-.443h-3.126l-.163.443zm-4.22 2.799h2.704l.164-.42h-2.123l.35-.98h1.913l.163-.42h-1.913l.35-.979h2.123l.163-.42h-2.706l-1.189 3.219zm-.77-2.286c-.117.373-.49.467-1.073.467h-.933l.373-1.003h1.026c.56 0 .746.163.606.536zm-.327 1.47c-.117.302-.35.396-.933.396h-1.236l.373-1.003h1.12c.583 0 .816.21.676.606zm-.047-2.426h-1.679l-1.19 3.242h2.1c.63 0 1.12-.164 1.33-.7.162-.42 0-.793-.444-.91.396-.093.676-.28.816-.63.21-.582-.07-1.002-.933-1.002zm-6.716 2.005l1.282-1.725.094 1.725H27.22zm1.166-2.005c-.163 0-.28.047-.397.21l-2.308 3.032h.606l.606-.817h1.726l.047.817h.536l-.21-3.242h-.606zM6.512 29.264l-.91 2.448h96.667l.909-2.448H6.512z"/><path d="M52.548 29.264l.21-.07s.116-.047.163-.047c.7-.233 2.262-1.05 2.845-2.192 1.19-.443 2.053-1.05 2.589-1.773 1.026-.186 1.819-.63 2.262-.862 1.026-.584 1.75-1.143 2.192-1.75.373-.49.607-.863.793-1.259.35-.186.747-.42 1.26-.77 1.795-1.189 2.168-3.381 2.215-3.638 0-.046.023-.116.023-.163h.28c1.796 0 4.151-1.12 5.41-1.749h.024a5.79 5.79 0 01.443-.21c.42-.186 1.283-.63 2.17-1.236 1.142-.77 1.911-1.47 2.331-2.122.07-.093.117-.21.163-.327l.747-.466c.21-.14.396-.327.513-.56.21-.116.373-.21.42-.256.583-.373.84-1.026.63-1.656v-.023c-.187-.56-.7-1.236-1.563-1.446-.303-.653-.956-1.026-1.68-1.026-.163 0-.303.023-.396.046-.046 0-.233.047-1.632.397l-2.076.49a1.957 1.957 0 00-.07-1.54c-.28-.583-.863-.956-1.47-.956a1.36 1.36 0 00-.605.14h-.024c-.07.047-.233.117-3.941 2.519-.047.023-.093.07-.14.093-1.796 1.562-2.449 2.495-2.612 2.728a3.51 3.51 0 00-.373.653l-.28-.14a5.704 5.704 0 00-2.309-.49c-1.422 0-2.425.56-2.682.724-.14.07-.676.396-1.469 1.026a5.033 5.033 0 00-.863.863c-.536.116-.98.28-1.306.443-.42.21-.816.536-1.26.886l-.022.023c-.07.07-.14.117-.234.187-.186.14-.676.536-1.142 1.19h-.047c-.07.023-.653.14-1.4.49a3.985 3.985 0 00-.536.302 8.306 8.306 0 00-1.935.35h-.047c-.07-.023-.723-.14-1.516-.14a6 6 0 00-.956.07c-.187.024-.863.14-1.423.303-.28.07-.956.303-1.749.817-1.702-.397-3.405-.514-4.477-.56 1.026-1.376 1.515-2.962 1.352-4.315-.326-2.565-2.052-4.08-2.682-4.524-1.073-4.478-4.198-6.39-6.763-6.67-.513-.583-1.47-.956-2.565-.956-.444 0-.863.07-1.283.163-1.376.373-2.472 1.423-2.682 2.566-1.376 1.142-3.521 3.708-2.915 8.302-.513.7-1.516 2.472-.84 5.177.467 1.843 1.61 3.172 3.335 3.872-1.33.653-2.495 1.422-3.475 2.332-.07.046-.116.116-.163.163-2.309.117-4.408 1.073-6.063 2.775-1.19 1.213-2.006 2.612-2.52 3.848h41.816v-.046z"/><path d="M52.455 27.794c-.49.164-1.33.49-2.496.49h-.116c-1.213-.023-2.659-.653-3.685-1.796-1.05-1.142-1.61-2.868-1.446-4.57.163-1.703 1.19-3.126 2.425-3.895.28-.187.584-.327.887-.42.116-.047.256-.093.373-.117-.023.024-.047.07-.07.094-1.26 1.865-1.166 4.267-.56 5.69a7.84 7.84 0 001.143 1.889 5.685 5.685 0 002.076 1.586c.746.326 1.515.49 2.308.49h.257c-.397.256-.793.466-1.096.56z" fill="#fff"/><path d="M54.973 25.719a5.164 5.164 0 01-1.702.303c-.56 0-1.19-.116-1.82-.396-1.375-.607-2.121-1.796-2.588-2.846-.466-1.072-.56-2.985.443-4.5.56-.817 1.353-1.306 1.983-1.586-.397 1.189-.583 3.031.723 5.247v.047a6.534 6.534 0 002.542 2.378 6.33 6.33 0 001.935.653c-.466.28-1.026.513-1.516.7z" fill="#EEF4FC"/><path d="M59.894 23.06c-.56.303-1.33.723-2.309.77h-.14c-1.469 0-3.241-.7-4.384-2.542-2.052-3.452.187-5.83.933-6.414.443-.35.886-.7 1.236-.91-.163.467-.233.817-.233.934-.164.863-.024 1.982.373 2.985.513 1.33 1.399 2.402 2.565 3.102.956.56 1.936.84 2.938.84a6.8 6.8 0 00.747-.047c-.49.536-1.26 1.026-1.726 1.282zm-43.89 6.204c.093-.77.303-1.703.723-2.706.35-.84.77-1.632 1.306-2.355-1.493.303-2.822 1.05-3.942 2.192-.77.77-1.422 1.75-1.959 2.845h3.872v.024zm25.909 0c-.256-.234-.466-.444-.652-.63-.887-.91-1.586-2.519-1.796-3.638-.373-1.82-.117-3.592.746-5.248a6.805 6.805 0 011.003-1.422c-1.936-.35-3.778-.373-4.384-.373-.07.14-.164.256-.28.373-.7.606-1.283.746-.863.303.396-.466.373-.956.256-1.073-.093-.093-.256-.023-.35 0-1.142.42-1.352.233-1.119.093a10.015 10.015 0 001.959-1.539c.863-.98 1.563-2.402 1.4-3.708-.187-1.516-1.05-2.705-1.936-3.428-.094-.07-.164-.14-.21-.163-.024-.024-.047-.047-.07-.047a2.317 2.317 0 00-.467-.256c-.233-.07-.163-.234.094-.304-.024-.116-.047-.256-.094-.373-.023-.116-.07-.233-.093-.35-1.026-3.404-3.452-4.85-5.457-5.06h-.07c-.466-.047-.793-.047-.863-.047-.327-.047-.187-.186 0-.256.07-.024.093-.094.07-.14-.233-.35-1.306-.677-2.425-.35a2.88 2.88 0 00-1.4.91c-.046.07-.093.163-.14.233 0 .023-.023.046-.023.07-.047.14.117.093.117.093.536-.117.77.023.35.256-.257.14-.63.397-.887.583a6.684 6.684 0 00-1.959 2.402c-.513 1.073-.77 2.333-.723 3.685.024.187.024.56.047.677.023.14.117.28.443.233.443-.07.723-.14.327.186-.164.117-.677.607-.98.98-.606.77-1.073 2.192-.606 3.988.396 1.539 1.352 2.565 2.868 3.055.91.256 2.985.606 4.595.513.163 0 .21.023.186.093-.023.07-.14.117-.303.14-.257.047-.816.14-1.773.233-.21.024-.373.164-.396.257v.023c-.117.42.746.77.84.816.326.094.186.28.046.304-.606.116-1.702-.14-2.285-.187-.397-.023-.7.047-.816.117-1.376.606-2.543 1.376-3.499 2.262a9.96 9.96 0 00-2.425 3.498 9.815 9.815 0 00-.606 2.239h24.604v-.023z" fill="#EEF4FC"/><path d="M42.123 27.771c.513.536 1.096 1.096 2.03 1.493h4.197a6.594 6.594 0 01-3.078-1.936c-.63-.7-1.12-1.563-1.446-2.542a7.652 7.652 0 01-.327-2.985 6.328 6.328 0 011.003-2.845c.373-.607.863-1.12 1.4-1.563-.047 0-.117.023-.164.023 0 0-.723.094-1.236.257s-2.286.816-3.218 2.635a6.446 6.446 0 00-.63 4.431c.186 1.05.84 2.402 1.47 3.032z" fill="#fff"/><path d="M78.9 8.81c-.116.07-.279.164-.419.257v-.023c-.21-.35-.49-.583-.84-.653-.536-.116-1.212.093-2.098.676-1.306.84-3.335 1.33-3.359 1.33a.233.233 0 00-.186.303c.023.117.14.21.256.21h.07c.094-.024 2.146-.513 3.522-1.4.746-.49 1.33-.7 1.702-.606a.65.65 0 01.443.35c.164.257.024.396 0 .396-.023 0-.653.42-.933.583a1.41 1.41 0 00-.84-.42c-.466-.046-.955.164-1.445.63-1.19 1.12-2.472 1.47-2.495 1.493a.286.286 0 00-.187.326c.023.117.14.187.257.187h.07c.046-.023 1.422-.396 2.705-1.61.373-.349.723-.512 1.026-.489.303.023.49.233.536.28 0 .023.07.117 0 .21-.723 1.143-3.241 2.588-3.964 2.892-.537.233-2.682 1.376-4.431 1.749-.187.046-.397.07-.583.093h-.07c-.257 0-1.446.023-1.796-.326-.513-.513-.7-.14-.536.513-.56.326-1.4.84-1.61.98-.583.349-1.329-.047-1.469-.047-.303 0 .42.909 1.026 1.002.653.094 1.866-.676 1.866-.676l.466-.303s-.28 1.772-1.585 2.658c-.817.537-1.166.723-1.47.863-.21.094-.816.42-1.725.42-.653 0-1.423-.163-2.31-.676-2.121-1.26-2.541-3.732-2.355-4.828 0 0 .233-1.632 1.493-2.588.84-.653 1.33-.933 1.33-.933s.792-.513 1.958-.513c.513 0 1.096.093 1.703.373-.187.14-.35.28-.444.396-.233.373-.583 1.19-.35 1.19.164 0 .28-.42.84-.7.28-.14 1.586-.91 1.586-.91s.047-.21.117-.326c0 0 .163-.35.49-.84.023-.023.07-.093.14-.21a5.86 5.86 0 01.746-.839c.35-.373.84-.84 1.492-1.423 0 0 3.638-2.355 3.802-2.448.023-.024.07-.024.093-.024.303 0 .746.537.21 1.26-.443.583-.956.98-1.353 1.282a1.76 1.76 0 01-.396.234c-.56.186-1.283.63-1.4.723-.116.093-.116.256.024.186.49-.21 1.26-.396 1.399-.443.84-.187 6.926-1.656 7.02-1.68.023 0 .093-.022.14-.022.21 0 .56.07.653.513v.046l-5.574 1.656a.252.252 0 00-.163.327c.023.093.116.163.21.186h.116l4.968-1.47c.093-.022.28-.069.652-.186l.047-.023c.117-.023.21-.047.303-.047.513 0 .817.42.91.677.163.093.117.163 0 .233z" fill="#EEF4FC"/><path d="M31.162 7.388c0 .327.047.7.14 1.026.093.327.233.653.42.933.163.233.373.467.676.56h.047c.07.023.14.023.21.023.116 0 .233-.023.373-.046.14-.024.28-.07.42-.14.163-.094.233-.28.303-.443.07-.187.093-.374.116-.56a2.49 2.49 0 00-.14-1.003v.047c.187.863-.07 1.632-.583 1.749-.513.116-1.072-.49-1.259-1.33a3.283 3.283 0 01-.07-.653c.117.14.257.234.42.187.21-.047.326-.326.256-.583-.07-.233-.256-.396-.443-.396.094-.14.233-.257.397-.28.326-.07.676.14.933.56l-.21-.35c-.187-.257-.467-.513-.793-.583-.047 0-.117-.024-.163-.024-.304 0-.607.14-.77.373-.21.257-.28.607-.28.933zm-.186 1.026c-.094-.373-.234-.932-.187-1.469.047-.77.443-1.213.91-1.376.582-.186 1.212.117 1.562.56.21.256.396.63.56 1.003.046.116.116.256.163.396.14.42.21.84.186 1.236-.023.233-.046.467-.14.653-.07.21-.21.49-.443.63-.163.093-.35.117-.49.163-.14.023-.28.047-.442.047-.094 0-.187 0-.28-.024h-.07c-.397-.116-.63-.42-.84-.676a3.56 3.56 0 01-.373-.723s-.023-.046-.046-.14a.431.431 0 01-.047-.163c0-.07-.023-.093-.023-.117zm1.469 1.516s-.024-.023 0 0c-.024-.023-.024 0 0 0zm-5.784.234c.21.396.466.7.746.862.14.07.28.117.444.117.14 0 .28-.023.466-.07.07-.023.303-.093.42-.14.233-.093.42-.42.513-.84.023-.163.046-.326.046-.49-.046.537-.326.957-.7 1.027-.559.14-1.189-.466-1.398-1.353a3.503 3.503 0 01-.07-.676c.116.14.256.21.42.163.21-.046.326-.326.256-.606-.07-.21-.233-.373-.397-.397a.853.853 0 01.444-.326c.42-.093.862.186 1.142.7 0-.024-.023-.047-.023-.07-.28-.56-.77-1.143-1.703-.887-1.236.327-.956 1.936-.816 2.426.047.186.117.373.21.56zm-.303.163c-.21-.373-.327-.793-.397-1.213-.07-.42-.093-.863 0-1.283.07-.42.257-.793.607-1.026.28-.21.63-.326.98-.326.093 0 .186 0 .28.023.885.187 1.305.91 1.655 1.936.396 1.12.116 2.518-.606 2.822-.187.07-.467.163-.467.163a2.34 2.34 0 01-.56.093c-.21 0-.42-.046-.606-.163-.396-.257-.7-.653-.886-1.026zm7.113 2.705c-1.12.606-2.402.933-3.662 1.096.35.163.7.28 1.073.327.35.023.676-.024 1.003-.117.326-.093.653-.256.933-.466.28-.257.466-.537.653-.84zm1.679-1.073c-.07.024-.093-.07-.14-.186-.21.28-.676.723-.746.816l-.28.42c-.14.256-.257.49-.443.723-.233.303-.513.583-.84.77-.63.372-1.399.559-2.122.442a4.683 4.683 0 01-1.096-.373c-.28-.14-.583-.303-.886-.326-.35 0-.723.023-1.073-.024-.117-.023-.233-.07-.257-.186-.046-.163.07-.35.234-.35.046 0 .116.023.163.023.116 0 .233.024.35.024 1.259.046 2.565-.164 3.754-.537.747-.233 1.47-.536 2.1-1.003.256-.186.512-.396.722-.63a.535.535 0 01.094-.116c-.024-.023-.047-.023-.07-.023-.07-.024-.07-.14.046-.163a.446.446 0 01.35.093c.07.07.117.163.14.303.093.117.07.28 0 .303zm-7.65 1.493c-.326.233-.396.396-.442.513-.047.117-.047.233-.024.28a.112.112 0 01-.046.14c-.047.023-.094 0-.117 0l-.07-.07c-.093-.21 0-.677.233-.886a.978.978 0 01.327-.21c.046-.024.163-.07.233.023.023.093-.047.163-.093.21z"/></svg><svg fill="none" viewBox="0 0 120 45" id="companie-mitsubishi" xmlns="http://www.w3.org/2000/svg"><path d="M35.021 29.094v-5.972L32.48 27.4l-2.582-4.278v5.972H28v-8.473h2.461l2.018 3.47 1.937-3.47h2.502v8.473H35.02zm5.411-8.474h-1.897v8.474h1.897v-8.473zm.848 0h6.496v1.776h-2.3v6.698h-1.937v-6.698h-2.26v-1.775zm7.174 8.394V27.24c.404.08 1.332.242 2.502.242.969 0 1.453-.121 1.453-.686 0-.606-.404-.686-1.776-1.332-1.331-.605-2.34-1.13-2.34-2.582 0-1.776 1.09-2.381 3.188-2.381 1.09 0 1.856.08 2.38.161v1.776c-.484-.04-1.331-.162-2.3-.162-1.13 0-1.371.122-1.371.606s.605.726 1.533 1.13c1.412.645 2.542 1.17 2.542 2.784 0 1.694-1.05 2.461-3.309 2.461a23.907 23.907 0 01-2.502-.242zm6.986-2.784v-5.61h1.896v5.529c0 .968.565 1.291 1.493 1.291.888 0 1.493-.323 1.493-1.291V20.62h1.896v5.608c0 2.058-1.331 2.986-3.389 2.986s-3.39-.928-3.39-2.986m8.393-5.608h3.712c1.735 0 2.704.646 2.704 2.18 0 1.21-.686 1.614-1.332 1.856.767.242 1.574.645 1.574 2.058 0 1.493-.888 2.38-2.784 2.38h-3.834v-8.473h-.04zm3.43 3.43c.767 0 1.049-.403 1.049-.968 0-.686-.323-.847-1.05-.847H65.73v1.816h1.533zm.12 3.47c.768 0 1.09-.282 1.09-1.008 0-.646-.282-.928-1.008-.928h-1.736v1.937h1.655zm6.093-6.9h-1.897v8.474h1.897v-8.473zm1.372 8.394V27.24c.404.08 1.332.242 2.502.242.968 0 1.452-.121 1.452-.686 0-.606-.403-.686-1.775-1.332-1.332-.605-2.34-1.13-2.34-2.582 0-1.776 1.089-2.381 3.187-2.381 1.09 0 1.856.08 2.381.161v1.776c-.484-.04-1.332-.162-2.3-.162-1.13 0-1.372.122-1.372.606s.605.726 1.533 1.13c1.413.645 2.543 1.17 2.543 2.784 0 1.694-1.05 2.461-3.31 2.461a25.02 25.02 0 01-2.501-.242m11.787.079v-3.349h-3.027v3.35h-1.896V20.62h1.896v3.349h3.027v-3.35h1.896v8.474h-1.896zM92 20.62h-1.897v8.474H92v-8.473zM43.896 40.514v-5.972l-2.542 4.277-2.542-4.277v5.972h-1.937V32.04h2.461l2.018 3.43 1.977-3.43h2.502v8.474h-1.937zm3.229-4.237c0-3.026 1.17-4.358 3.672-4.358 2.502 0 3.672 1.332 3.672 4.358s-1.17 4.358-3.672 4.358c-2.502 0-3.672-1.332-3.672-4.358zm5.326 0c0-1.735-.282-2.623-1.694-2.623-1.372 0-1.695.888-1.695 2.623 0 1.735.282 2.623 1.695 2.623 1.412 0 1.694-.888 1.694-2.623zm2.301-4.237h6.496v1.776h-2.3v6.698h-1.896v-6.699h-2.3V32.04zm6.824 4.237c0-3.026 1.17-4.358 3.672-4.358 2.502 0 3.672 1.332 3.672 4.358s-1.17 4.358-3.672 4.358c-2.502 0-3.672-1.332-3.672-4.358zm5.327 0c0-1.735-.283-2.623-1.695-2.623-1.413 0-1.695.888-1.695 2.623 0 1.735.282 2.623 1.695 2.623 1.412 0 1.695-.888 1.695-2.623zm3.261-4.237h3.43c1.816 0 2.986.686 2.986 2.704 0 1.331-.646 2.178-1.735 2.42l2.098 3.35h-2.22l-1.775-3.027h-.847v3.027h-1.897V32.04h-.04zm3.35 3.793c.847 0 1.129-.444 1.129-1.09 0-.645-.282-1.089-1.13-1.089h-1.412v2.18h1.412zm4.2 4.56v-1.776a12.96 12.96 0 002.502.243c.968 0 1.453-.121 1.453-.686 0-.606-.404-.686-1.776-1.332-1.332-.605-2.34-1.13-2.34-2.582 0-1.776 1.09-2.381 3.188-2.381 1.089 0 1.856.08 2.38.161v1.776c-.484-.04-1.331-.162-2.3-.162-1.13 0-1.372.121-1.372.565 0 .484.606.727 1.534 1.13 1.412.646 2.542 1.17 2.542 2.784 0 1.695-1.05 2.462-3.31 2.462-.847.04-1.694-.04-2.5-.202M62.828 7.748L60.362 3.5l-2.454 4.248 2.454 4.261 2.466-4.26zm-.003 8.509h4.908L65.28 12.01h-4.92l2.466 4.248z" fill="#000"/><path d="M57.908 16.257H53l2.454-4.248h4.908l-2.454 4.248z" fill="#000"/></svg><svg viewBox="0 0 110 43" id="companie-silpo" xmlns="http://www.w3.org/2000/svg"><path fill-rule="evenodd" clip-rule="evenodd" d="M45.352.713c-4.96.113-8.434 3.488-10.063 5.488 0 0-.072.085-.129.156a1.948 1.948 0 01-.2-.071c-3.402-1.22-7.247-1.447-11.121-.667-3.73.765-9.077 2.68-12.966 5.786C4.055 16.864.467 23.444.767 29.938c.172 3.76 1.916 7.005 5.032 9.387 5.118 3.928 13.566 3.02 16.968 2.453 3.803-.638 63.31-11.216 71.13-12.705 7.105-1.347 13.866-3.744 15.224-12.067.086-.492.129-.99.129-1.49v-.057c0-2.04-.644-3.942-1.758-5.232-2.087-2.397-5.59-2.68-8.034-2.694-3.402-.015-39.91.68-44.055.765h-.272l-.029-.255a8.086 8.086 0 00-1.958-4.339c-1.26-1.417-3.632-3.09-7.792-2.991zm-.043 12.081c2.072-.085 4.102-1.007 4.26-3.148.114-1.432-1-2.907-3.274-3.034a4.961 4.961 0 00-3.245.85 3.344 3.344 0 00-1.257 1.929c-.229.922-.115 1.687.328 2.282.601.78 1.744 1.177 3.188 1.121zm57.922 4.907c.543-.085 1.158-.766 1.458-1.418.077.098.12.2.156.284.036.086.065.155.116.183-.286 1.093-1.401 2.028-2.216 2.113l-.128.014-.057.128c-.787 1.843-2.202 2.963-4.274 3.275a3.216 3.216 0 01-3.66-2.58l-.071-.34c-1.473 3.204-3.202 3.884-4.503 4.069-.543.085-2.387.099-2.187-2.07a20.57 20.57 0 01.729-3.645 9.54 9.54 0 00.486-2.325 1.142 1.142 0 00-.258-.822.571.571 0 00-.43-.17c-.8.056-1.5 2.112-1.757 3.19 0 0-1.473 6.24-1.544 6.551-.141.015-1.12.176-2.097.336-.9.148-1.802.296-2.049.33l1.273-5.146-.271.184a4.68 4.68 0 01-.986.51l-.13.043-.027.141c-.659 3.205-2.817 5.048-6.404 5.573-2.774.411-4.618-.525-5.032-2.836l-.1-.581-.172.312-.129.226c-.887 1.546-2.773 4.21-5.422 4.597-.958.142-1.773-.071-2.345-.596-.614-.567-.914-1.489-.886-2.651.042-1.559.554-3.036 1.004-4.337l.026-.073.143-.425c0-.005.104-.368.243-.852.244-.847.595-2.067.686-2.41.143-.553-.243-1.276-1-.964a1.32 1.32 0 00-.63.723c-.146.253-.256.84-.422 1.73l-.034.185-.03.157c-.405 2.158-1.12 5.96-2.5 7.925-1.8 2.566-3.844 3.105-4.645 3.218-1.944.284-3.66-.227-4.645-1.077-2.16 1.673-5.247 2.665-7.005 2.892-4.217.539-5.146-2.127-4.46-4.622a.58.58 0 00.014-.156c-2.901 3.403-6.832 6.65-11.635 7.543-5.39 1.007-8.463.185-10.936-2.07-1.787-1.616-2.859-5.19-2.044-8.139 2.43-8.75 10.893-12.705 16.482-12.861 3.603-.1 5.219.608 6.605 2.04.858.894 1.273 2.099 1.23 3.574-.086 2.723-2.088 4.552-4.546 4.779-1.1.099-2.073-.199-2.73-.837-.672-.652-1.015-1.645-.972-2.878.056-1.914 1.657-3.46 2.658-3.984a7.313 7.313 0 011.186-.54c.387-.623-5.845-2.467-9.72 5.7a16.089 16.089 0 00-1.498 4.68c-.643 3.404.314 5.83 1.973 6.85 1.215.751 3.145.864 5.603.226 4.632-1.19 9.12-7.032 10.664-11.3.744-2.068 1.476-4.3 1.721-5.05l.037-.112a690.68 690.68 0 012.546-.088c1.834-.062 4.039-.137 4.373-.154-.186.596-3.474 10.28-3.474 10.28-.1.298-.815 2.581-.286 3.29a1.435 1.435 0 001.215.425c.732-.093 1.21-.38 1.717-.685.107-.064.215-.13.328-.194a3.689 3.689 0 01-.544-2.68c.358-1.872 2.387-3.346 4.245-2.14.93.61 1.33 1.885.444 3.346a6.308 6.308 0 01-1.73 1.786c.43.208.918.268 1.387.17 2.387-.297 3.188-2.637 3.645-6.054l.029-.113c.328-2.836.914-5.714 3.058-7.629 2.03-1.815 4.732-.113 4.846 1.163l.444-1.56s4.53-.085 5.06-.1c-.172.568-2.53 9.118-2.53 9.118l-.086.779v.014a.738.738 0 00.2.539.527.527 0 00.472.156c.943-.1 2.158-2.056 2.859-3.857a.09.09 0 00.015-.034.205.205 0 01.013-.037l.014-.014v-.03c.098-.512.222-1.018.372-1.517l.143-.496s.913-3.8 1.128-4.68c.3-.014 4.446-.17 4.446-.17s-2.301 9.557-2.33 10.706a1.523 1.523 0 00.358 1.15.675.675 0 00.557.184c1.387-.184 2.388-1.418 2.773-3.758l.058-.354-.329.1c-2.858.836-3.002-5.049 1.787-5.446 1.859-.156 2.345 1.73 2.416 2.283a4.6 4.6 0 01.115.751l.029.256.241-.057c.5-.128 1.086-.596 1.515-1.163l1.23-4.92c.213 0 1.803-.055 2.78-.09l.707-.023-.328 1.517.558-.624a4.407 4.407 0 012.501-1.092c1.559-.114 3.06.368 2.831 2.793a19.21 19.21 0 01-.572 2.977 9.092 9.092 0 00-.357 1.716.676.676 0 00.172.496.423.423 0 00.343.114c.629-.071 1.5-1.815 1.972-3.049a.155.155 0 00.015-.07l.014-.015v-.014c.429-3.559 3.216-5.203 5.132-5.317 3.114-.169 3.587 1.9 3.544 3.886-.014.425-.229 1.871-.229 1.871l.242-.056zm-52.819 6.82c.415-.906.114-1.361-.629-1.39-.93-.042-1.844 1.603-.915 3.063.758-.567 1.344-1.233 1.544-1.673zm26.002-4.878c.471-.085.757-.213.9-.411 0 0 .158-.78-.17-1.162a.579.579 0 00-.587-.029c-.4.184-.872.88-.772 1.305.014.113.143.382.63.297zm22.214 1.333c.8-.1 1.2-1.063 1.501-1.957l.072-.27a2.048 2.048 0 01-.972-1.857c.157-2.098 1.572-2.155 1.572-2.155l.015-.085c.071-.709-.044-1.304-.329-1.617a.642.642 0 00-.5-.212c-1.358.057-2.359 4.807-2.402 6.707-.014.808.1 1.034.371 1.276a.825.825 0 00.672.17zm1.701-4.764c-.258.298-.271 1.134.186 1.418a7.217 7.217 0 00.244-1.546.368.368 0 00-.43.128z"/></svg><svg viewBox="0 0 110 19" id="companie-spaces" xmlns="http://www.w3.org/2000/svg"><g clip-path="url(#aja)"><path fill-rule="evenodd" clip-rule="evenodd" d="M34.556 12.678c0-3.523-2.812-4.403-5.35-5.006-2.538-.602-3.223-.926-3.223-1.946 0-.717.57-1.459 2.286-1.459 1.463 0 2.606.602 3.634 1.667l2.31-2.27c-1.51-1.597-3.338-2.548-5.829-2.548-3.155 0-5.717 1.807-5.717 4.75 0 3.196 2.058 4.148 5.006 4.842 3.019.695 3.567 1.159 3.567 2.2 0 1.23-.892 1.762-2.789 1.762-1.532 0-2.971-.533-4.092-1.854l-2.31 2.086c1.212 1.807 3.545 2.943 6.22 2.943 4.366 0 6.286-2.088 6.286-5.167zM49.53 6.514c0-3.452-2.492-5.144-5.51-5.144h-6.996v16.22h3.2v-5.747h3.521c3.317 0 5.785-1.575 5.785-5.33zm-3.292.071c0 1.412-.8 2.107-2.286 2.107h-3.727v-4.17h3.682c1.416 0 2.331.649 2.331 2.063zM64.001 17.59L57.919 1.37H54.81l-6.128 16.22h3.43l1.258-3.615h5.851l1.26 3.615H64zm-5.876-6.697H54.47l1.028-2.943c.32-.949.64-1.923.8-2.524.16.602.48 1.575.8 2.524l1.029 2.942zM77.49 4.707c-1.007-2.108-2.834-3.591-5.85-3.591-4.186 0-7.113 3.429-7.113 8.363 0 5.123 2.813 8.366 6.996 8.366 2.904 0 4.824-1.366 5.922-3.661l-2.698-1.622c-.846 1.436-1.692 2.061-3.132 2.061-2.4 0-3.795-2.225-3.795-5.144 0-3.01 1.37-5.142 3.772-5.142 1.44 0 2.355.648 2.927 1.76l2.971-1.39zM91 17.59v-3.174h-8.251v-3.917h4.595V7.35h-4.595V4.544h7.91V1.37h-11.11v16.22H91zm13.992-4.912c0-3.523-2.813-4.403-5.349-5.006-2.537-.602-3.223-.926-3.223-1.946 0-.717.571-1.459 2.285-1.459 1.462 0 2.606.602 3.635 1.667l2.309-2.27c-1.509-1.597-3.338-2.548-5.83-2.548-3.155 0-5.714 1.807-5.714 4.75 0 3.196 2.056 4.148 5.007 4.842 3.017.695 3.565 1.159 3.565 2.2 0 1.23-.89 1.762-2.788 1.762-1.532 0-2.971-.533-4.092-1.854l-2.31 2.086c1.212 1.807 3.542 2.943 6.218 2.943 4.369 0 6.287-2.088 6.287-5.167zm4.921 2.966c0-.928-.766-1.725-1.681-1.725-.916 0-1.681.796-1.681 1.725 0 .927.765 1.702 1.681 1.702.915 0 1.681-.775 1.681-1.702zM.059 4.748v9.464l8.084 4.732 8.084-4.732V4.748L8.143.016.059 4.748z"/></g><defs><clipPath id="aja"><path fill="#fff" d="M0 0h110v19H0z"/></clipPath></defs></svg><svg viewBox="0 0 223 79" id="compensation-bg" xmlns="http://www.w3.org/2000/svg"><path fill-rule="evenodd" clip-rule="evenodd" d="M18 4a4 4 0 014-4h197a4 4 0 014 4v57a4 4 0 01-4 4H45.13a4 4 0 01-2.829-1.172l-23.13-23.13A4 4 0 0118 37.87V4z"/><path fill-rule="evenodd" clip-rule="evenodd" d="M33.533 45.467a.274.274 0 11.387-.387.274.274 0 01-.387.387zm-7.085 26.705c2.52 2.52.736 6.828-2.828 6.828H4a4 4 0 01-4-4V55.38c0-3.564 4.309-5.348 6.828-2.829l19.62 19.62z"/></svg><svg fill="none" viewBox="0 0 40 40" id="corner" xmlns="http://www.w3.org/2000/svg"><g clip-path="url(#ala)"><path clip-rule="evenodd" d="M.879 37.927A3 3 0 000 40.05V703a3 3 0 003 3h1408c1.66 0 3-1.343 3-3V3c0-1.657-1.34-3-3-3H40.049a3 3 0 00-2.122.879L.88 37.927z"/></g><defs><clipPath id="ala"><path fill="#fff" d="M0 0h40v40H0z"/></clipPath></defs></svg><svg fill="none" viewBox="0 0 115 115" id="ensuria" xmlns="http://www.w3.org/2000/svg"><g clip-path="url(#amclip0_159_3104)"><rect width="115" height="115" rx="37" fill="url(#ampaint0_radial_159_3104)"/><path opacity=".3" fill-rule="evenodd" clip-rule="evenodd" d="M27.49 57.5c0-16.574 13.436-30.01 30.01-30.01S87.51 40.926 87.51 57.5 74.074 87.51 57.5 87.51 27.49 74.074 27.49 57.5zM57.5 26.865c-16.92 0-30.635 13.716-30.635 30.635 0 16.92 13.716 30.635 30.635 30.635 16.92 0 30.635-13.716 30.635-30.635 0-16.92-13.716-30.635-30.635-30.635zM36.362 57.5c0-11.674 9.464-21.138 21.138-21.138 11.674 0 21.138 9.464 21.138 21.138 0 11.674-9.464 21.138-21.138 21.138-11.674 0-21.138-9.464-21.138-21.138zM57.5 35.737c-12.02 0-21.763 9.744-21.763 21.763 0 12.02 9.744 21.763 21.763 21.763 12.02 0 21.763-9.744 21.763-21.763 0-12.02-9.744-21.763-21.763-21.763z" fill="#fff"/><circle opacity=".1" cx="57.5" cy="57.5" r="43.125" stroke="#fff" stroke-width=".625"/><rect x="7.188" y="7.188" width="100.625" height="100.625" rx="6.875" stroke="#fff" stroke-width=".667"/><path d="M115 0H0v115h115V0z" fill="#C6F3F8"/><path fill-rule="evenodd" clip-rule="evenodd" d="M74.247 57.223c-2.662-.34-5.207-.65-5.207-2.704 0-.256-.096-3.152 4.792-3.152 5.037 0 5.399 3.556 5.399 3.556h4.834c0-2.236-1.448-7.432-10.67-7.432-.958 0-9.178.309-9.178 7.347 0 3.269 1.33 5.611 8.72 6.42 6.336.693 6.645 2.3 6.645 3.068 0 2.79-2.3 3.492-5.186 3.492-5.441 0-5.92-4.014-5.92-4.014h-4.834c0 1.405.543 7.9 11.02 7.9 7.337 0 9.85-4.163 9.85-7.506 0-2.918-1.225-5.995-10.265-6.975zM22.785 48.769v5.366c0 .543.436.98.98.98H37.5v4.45H23.764a.977.977 0 00-.98.98v5.41c0 .543.437.98.98.98h13.843v4.44H18.025v-22.99c0-.458.18-.894.5-1.214l3.376-3.364c.32-.32.756-.501 1.214-.501h14.481V47.8H23.754a.96.96 0 00-.97.969z" fill="#2C2A2D"/><path d="M99.068 47.8v4.685h-7.007a.977.977 0 00-.98.98v17.93h-4.823V52.837c0-.458.181-.894.5-1.214l3.323-3.322c.32-.32.756-.5 1.214-.5h7.773z" fill="#2C2A2D"/><path fill-rule="evenodd" clip-rule="evenodd" d="M52.45 47.48c-3.62 0-5.984 1.927-7.049 3.535h-.681V47.79H40.14v23.607h4.802V60.332c0-6.25 3.067-8.23 6.698-8.145 3.067.074 5.41.83 5.41 6.314v12.895h4.876V57.85c-.096-3.343-.937-10.37-9.477-10.37z" fill="#2C2A2D"/></g><defs><radialGradient id="ampaint0_radial_159_3104" cx="0" cy="0" r="1" gradientUnits="userSpaceOnUse" gradientTransform="rotate(45) scale(162.635)"><stop stop-color="#19B6F0"/><stop offset="1" stop-color="#1869E2"/></radialGradient><clipPath id="amclip0_159_3104"><rect width="115" height="115" rx="37" fill="#fff"/></clipPath></defs></svg><svg viewBox="0 0 17 17" id="facebook" xmlns="http://www.w3.org/2000/svg"><path d="M6.07.422a8.317 8.317 0 014.138-.28c2.192.39 4.172 1.75 5.375 3.617a8.155 8.155 0 011.288 3.715c.088.823.022 1.656-.134 2.466a8.019 8.019 0 01-1.479 3.318c-1.212 1.61-3.003 2.79-4.984 3.198v-5.917h1.614c.122-.775.242-1.55.366-2.324-.815-.003-1.63 0-2.445-.001V6.646c0-.382.16-.788.483-1.01.258-.166.574-.205.875-.211.477-.002.955 0 1.431-.001V3.388a12.785 12.785 0 00-1.995-.16c-.65.013-1.315.16-1.86.527a2.62 2.62 0 00-.988 1.206c-.196.48-.267 1.002-.27 1.518l-.001 1.735h-1.86v2.325h1.86v5.916a9.315 9.315 0 01-2.093-.606c-1.9-.807-3.448-2.386-4.26-4.279C.683 10.52.47 9.378.456 8.24A8.84 8.84 0 01.7 6.27 8.271 8.271 0 016.07.423z"/></svg><svg fill="none" viewBox="0 0 17 17" id="get-nav-ico" xmlns="http://www.w3.org/2000/svg"><path fill-rule="evenodd" clip-rule="evenodd" d="M16.01 16.01a.13.13 0 10.185.185.13.13 0 00-.185-.185zM12.628 3.26c1.203-1.203.35-3.26-1.35-3.26H1.91A1.91 1.91 0 000 1.91v9.367c0 1.702 2.057 2.554 3.26 1.35l9.368-9.367z" fill="#2C2A2D"/></svg><svg fill="none" viewBox="0 0 20 21" id="globe" xmlns="http://www.w3.org/2000/svg"><path d="M10 18.833a8.333 8.333 0 100-16.667 8.333 8.333 0 000 16.667zM1.667 10.5h16.666" stroke="#2C2A2D" stroke-width="1.4" stroke-linecap="round" stroke-linejoin="round"/><path d="M13.333 10.5A12.75 12.75 0 0010 2.166 12.75 12.75 0 006.667 10.5 12.75 12.75 0 0010 18.833a12.75 12.75 0 003.333-8.333z" stroke="#2C2A2D" stroke-width="1.4" stroke-linecap="round" stroke-linejoin="round"/></svg><svg fill="none" viewBox="0 0 111 28" id="google-play" xmlns="http://www.w3.org/2000/svg"><g clip-path="url(#aqclip0_244_1262)"><path d="M.475 1.86C.19 2.145 0 2.62 0 3.19v20.995c0 .57.19 1.045.475 1.33l.095.095 11.78-11.78v-.19L.475 1.86z" fill="url(#aqpaint0_linear_244_1262)"/><path d="M16.245 17.725L12.35 13.83v-.19l3.895-3.895.095.095 4.655 2.66c1.33.76 1.33 1.995 0 2.755l-4.75 2.47z" fill="url(#aqpaint1_linear_244_1262)"/><path d="M16.245 17.725l-3.99-3.99-11.78 11.78c.475.475 1.14.475 1.995.095l13.775-7.885z" fill="url(#aqpaint2_linear_244_1262)"/><path d="M16.245 9.65L2.375 1.765c-.76-.475-1.52-.38-1.9.095L12.35 13.735l3.895-4.085z" fill="url(#aqpaint3_linear_244_1262)"/><path opacity=".2" d="M16.245 17.63l-13.87 7.79c-.76.475-1.425.38-1.9 0l-.095.095.095.095c.475.38 1.14.475 1.9 0l13.87-7.98z" fill="#fff"/><path opacity=".12" d="M.475 25.42C.19 25.04 0 24.66 0 24.09v.095c0 .57.19 1.045.475 1.33v-.095zM20.9 14.875l-4.75 2.66.095.095 4.655-2.66c.665-.38.95-.855.95-1.33 0 .475-.285.95-.95 1.235z" fill="#fff"/><path opacity=".25" d="M2.375 1.955L20.9 12.405c.57.38.95.76.95 1.235 0-.475-.285-.95-.95-1.33L2.375 1.765C1.045 1.005 0 1.67 0 3.19v.095c0-1.52 1.045-2.09 2.375-1.33z" fill="#fff"/><path d="M110.105 15.445l-4.845 11.21h-1.805l1.805-3.99-3.135-7.22h1.9l2.09 5.13h.095l1.995-5.13h1.9zm-19-.57c0 2.28-1.9 3.705-3.895 3.705h-2.47v4.465h-1.805V11.17h4.275c1.995 0 3.895 1.425 3.895 3.705zm-1.71 0c0-.95-.76-1.995-2.09-1.995H84.74v4.085h2.565c1.33 0 2.09-1.14 2.09-2.09zm12.445 3.61v4.56h-1.71v-.95h-.095c-.38.665-1.045 1.14-2.28 1.14-1.52 0-2.945-1.045-2.945-2.66 0-1.71 1.71-2.66 3.42-2.66.855 0 1.52.285 1.805.475v-.095c0-.95-.95-1.52-1.9-1.52-.665 0-1.33.19-1.615.855l-1.615-.665c.57-1.235 1.9-1.805 3.135-1.805 2.28.095 3.8 1.235 3.8 3.325zm-1.71 1.33c-.475-.19-.855-.38-1.615-.38-.855 0-1.9.38-1.9 1.235 0 .76.855 1.045 1.425 1.045 1.045 0 1.995-.76 2.09-1.9zm-49.685-.57a4.055 4.055 0 01-4.085 4.085c-2.28 0-4.085-1.71-4.085-4.085s1.805-4.085 4.085-4.085a4.055 4.055 0 014.085 4.085zm-1.71 0c0-1.425-1.045-2.47-2.28-2.47-1.235 0-2.28.95-2.28 2.47 0 1.425 1.045 2.47 2.28 2.47 1.235 0 2.28-1.045 2.28-2.47zM35.91 16.49v1.71h4.085c-.095.95-.475 1.71-.95 2.185-.57.57-1.52 1.235-3.135 1.235-2.565 0-4.465-1.995-4.465-4.56a4.485 4.485 0 017.6-3.325L40.28 12.5a6.08 6.08 0 00-4.275-1.71c-3.42 0-6.365 2.85-6.365 6.27 0 3.42 2.945 6.27 6.365 6.27 1.9 0 3.23-.57 4.37-1.805 1.14-1.14 1.52-2.755 1.52-3.99 0-.38 0-.76-.095-1.045h-5.89zm23.37 2.755a4.055 4.055 0 01-4.085 4.085 3.992 3.992 0 01-4.085-4.085c0-2.375 1.805-4.085 4.085-4.085 2.28.095 4.085 1.805 4.085 4.085zm-1.71 0c0-1.425-1.045-2.47-2.28-2.47-1.235 0-2.28.95-2.28 2.47 0 1.425 1.045 2.47 2.28 2.47 1.235 0 2.28-1.045 2.28-2.47zm21.565-.95l-5.415 2.28c.38.855 1.045 1.235 1.995 1.235.95 0 1.52-.475 1.995-1.14l1.425.95a3.971 3.971 0 01-7.315-2.28c0-2.375 1.71-4.085 3.8-4.085s3.135 1.71 3.42 2.565l.095.475zm-2.09-.665c-.19-.475-.76-.855-1.52-.855-.95 0-2.185.76-2.09 2.375l3.61-1.52zm15.105 5.415h1.805V11.17H92.15v11.875zm-23.085 0h1.805V11.17h-1.805v11.875zm-2.945-7.6h1.71v7.22c0 2.945-1.805 4.18-3.8 4.18-1.995 0-3.135-1.33-3.61-2.375l1.52-.665c.285.665.95 1.425 1.995 1.425 1.33 0 2.185-.855 2.185-2.375v-.57h-.095c-.38.475-1.14.95-2.09.95-1.995 0-3.895-1.805-3.895-3.99 0-2.28 1.805-4.085 3.895-4.085.95 0 1.71.475 2.09.95h.095v-.665zm.095 3.8c0-1.425-.95-2.47-2.185-2.47s-2.28 1.045-2.28 2.47c0 1.425 1.045 2.47 2.28 2.47 1.235 0 2.185-1.045 2.185-2.47zM56.335 6.23c-.57-.57-.855-1.235-.855-2.09 0-.855.285-1.52.855-2.09.57-.665 1.235-.95 2.09-.95.855 0 1.52.285 2.09.855.57.57.855 1.235.855 2.09 0 .855-.285 1.52-.855 2.09-.57.57-1.235.855-2.09.855-.855.095-1.52-.19-2.09-.76zm-.095-2.09c0 .665.19 1.235.665 1.615.38.475.95.665 1.52.665.57 0 1.14-.19 1.52-.665.38-.38.665-.95.665-1.615s-.19-1.235-.665-1.615c-.38-.475-.95-.665-1.52-.665-.57 0-1.14.19-1.52.665-.475.38-.665.95-.665 1.615zM32.775 7.085c.855 0 1.52-.285 2.09-.855.475-.475.665-1.14.665-1.9v-.475h-2.755v.665h2.09c0 .475-.19.855-.475 1.14-.38.38-.95.665-1.615.665-.57 0-1.14-.19-1.52-.665-.475-.38-.665-.95-.665-1.615s.19-1.235.665-1.615c.475-.38.95-.665 1.52-.665.665 0 1.14.19 1.52.665l.57-.38c-.19-.285-.475-.475-.855-.665a2.63 2.63 0 00-1.235-.285c-.855 0-1.52.285-2.09.855-.57.57-.855 1.235-.855 2.09 0 .855.285 1.52.855 2.09.57.665 1.33.95 2.09.95zm7.22-.855H37.43V4.425h2.375V3.76H37.43V1.955h2.565V1.29H36.67v5.7h3.325v-.76zm3.135.76V1.955h1.52V1.29h-3.895v.665h1.615V6.99h.76zm5.13-5.7h-.76v5.7h.76v-5.7zm3.23 5.7V1.955h1.615V1.29H49.21v.665h1.615V6.99h.665zm11.59-3.61V2.24l2.945 4.655h.76v-5.7h-.76V5.66L63.27 1.195h-.855v5.7h.76V3.38h-.095z" fill="#fff"/></g><defs><linearGradient id="aqpaint0_linear_244_1262" x1="11.239" y1="2.953" x2="-4.712" y2="18.894" gradientUnits="userSpaceOnUse"><stop stop-color="#00A0FF"/><stop offset=".01" stop-color="#00A1FF"/><stop offset=".26" stop-color="#00BEFF"/><stop offset=".51" stop-color="#00D2FF"/><stop offset=".76" stop-color="#00DFFF"/><stop offset="1" stop-color="#00E3FF"/></linearGradient><linearGradient id="aqpaint1_linear_244_1262" x1="22.667" y1="13.678" x2="-.313" y2="13.678" gradientUnits="userSpaceOnUse"><stop stop-color="#FFE000"/><stop offset=".41" stop-color="#FFBD00"/><stop offset=".78" stop-color="orange"/><stop offset="1" stop-color="#FF9C00"/></linearGradient><linearGradient id="aqpaint2_linear_244_1262" x1="14.108" y1="15.863" x2="-7.505" y2="37.476" gradientUnits="userSpaceOnUse"><stop stop-color="#FF3A44"/><stop offset="1" stop-color="#C31162"/></linearGradient><linearGradient id="aqpaint3_linear_244_1262" x1="-2.536" y1="-5.151" x2="7.116" y2="4.501" gradientUnits="userSpaceOnUse"><stop stop-color="#32A071"/><stop offset=".07" stop-color="#2DA771"/><stop offset=".48" stop-color="#15CF74"/><stop offset=".8" stop-color="#06E775"/><stop offset="1" stop-color="#00F076"/></linearGradient><clipPath id="aqclip0_244_1262"><path fill="#fff" transform="translate(0 .15)" d="M0 0h110.2v27.55H0z"/></clipPath></defs></svg><svg viewBox="0 0 18 17" id="instagram" xmlns="http://www.w3.org/2000/svg"><path d="M17.324 4.838c-.039-.874-.18-1.475-.383-1.996a4.016 4.016 0 00-.951-1.46 4.051 4.051 0 00-1.457-.948C14.01.231 13.411.09 12.537.051 11.655.01 11.376 0 9.14 0 6.907 0 6.627.01 5.75.048c-.874.039-1.476.18-1.996.383a4.016 4.016 0 00-1.46.951c-.418.412-.743.91-.949 1.457C1.142 3.363 1 3.96.962 4.835.92 5.715.91 5.995.91 8.23c0 2.234.01 2.513.048 3.391.039.874.18 1.475.383 1.996.21.553.534 1.048.952 1.46.411.418.91.742 1.456.948.524.203 1.122.344 1.997.383.878.038 1.157.048 3.392.048s2.514-.01 3.392-.049c.875-.038 1.476-.18 1.997-.382a4.21 4.21 0 002.408-2.408c.203-.524.344-1.122.383-1.996.038-.878.048-1.157.048-3.391 0-2.235-.003-2.514-.042-3.392zm-1.482 6.719c-.036.803-.17 1.237-.283 1.527a2.73 2.73 0 01-1.563 1.562c-.29.112-.726.247-1.527.283-.868.038-1.128.048-3.324.048-2.197 0-2.46-.01-3.325-.048-.804-.036-1.238-.17-1.527-.283a2.533 2.533 0 01-.946-.614 2.559 2.559 0 01-.614-.945c-.112-.29-.247-.727-.283-1.527-.038-.868-.048-1.129-.048-3.324 0-2.196.01-2.46.048-3.324.036-.804.17-1.238.283-1.527a2.5 2.5 0 01.618-.945c.266-.273.588-.482.945-.614.29-.113.727-.248 1.527-.283.868-.039 1.129-.048 3.325-.048 2.199 0 2.46.01 3.324.048.804.035 1.238.17 1.528.283.356.132.681.34.945.614.273.267.482.588.614.945.113.29.248.726.283 1.527.038.868.048 1.128.048 3.324 0 2.195-.01 2.453-.048 3.32z"/><path d="M9.141 4.002A4.229 4.229 0 004.913 8.23a4.229 4.229 0 008.456 0 4.229 4.229 0 00-4.228-4.228zm0 6.97a2.743 2.743 0 110-5.486 2.743 2.743 0 010 5.486zm5.383-7.137a.987.987 0 11-1.975 0 .987.987 0 011.975 0z"/></svg><svg viewBox="0 0 17 17" id="link" xmlns="http://www.w3.org/2000/svg"><path d="M8.5 5.583a1.031 1.031 0 01-1.458-1.458l2.916-2.917a4.125 4.125 0 015.834 5.834l-2.917 2.916A1.031 1.031 0 1111.417 8.5l2.917-2.917a2.063 2.063 0 00-2.917-2.916L8.5 5.583zm0 5.833a1.031 1.031 0 011.458 1.459l-2.916 2.917a4.125 4.125 0 01-5.834-5.834l2.917-2.916A1.031 1.031 0 015.583 8.5l-2.916 2.917a2.062 2.062 0 102.916 2.917L8.5 11.416zm2.917-5.833a1.031 1.031 0 010 1.458l-4.375 4.375a1.031 1.031 0 11-1.459-1.458l4.375-4.375a1.031 1.031 0 011.459 0z"/></svg><svg fill="none" viewBox="0 0 115 24" id="logo" xmlns="http://www.w3.org/2000/svg"><path d="M92.91 23.745V4.618h-3.745v19.127h3.745z" fill="#2C2A2D"/><path fill-rule="evenodd" clip-rule="evenodd" d="M46.345 23.99c-6.694 0-8.92-3.423-8.92-6.262h3.786c.382 1.46 1.48 3.292 4.912 3.292 1.863 0 4.35-.302 4.35-2.96 0-.865-.575-2.073-5.527-2.617-5.87-.644-7.047-2.456-7.047-5.164 0-5.849 7.107-5.92 7.409-5.92 6.614 0 8.627 3.403 8.627 5.88H50.16c-.09-.504-.745-2.91-4.5-2.91-3.593 0-4.026 2.054-4.026 2.668v.01c0 1.762 2.255 2.104 4.348 2.316 7.339.755 8.315 3.271 8.315 5.607.01 2.255-1.51 6.06-7.952 6.06zm57.683-.01c-4.681 0-8.96-3.876-8.96-9.805 0-5.849 4.238-9.805 8.96-9.805 3.845 0 5.587 1.953 6.271 3.08h.634V4.612h3.584v19.116h-3.584V21.04h-.624c-1.017 1.43-3.141 2.94-6.281 2.94zm.714-16.217c-3.281 0-5.96 2.879-5.96 6.412 0 3.483 2.669 6.322 5.96 6.322 2.457 0 5.909-1.963 5.909-6.322.011-4.42-3.452-6.412-5.909-6.412zM0 23.738V5.004c0-.352.14-.674.383-.926L3.14 1.32c.251-.252.574-.383.926-.383h11.758V4.41H4.59a.902.902 0 00-.906.906v4.39c0 .503.403.905.906.905h11.144v3.443H4.59a.902.902 0 00-.906.906v4.43c0 .503.403.906.906.906h11.225v3.432H0v.01z" fill="#2C2A2D"/><path d="M92.912 2.9V0h-3.745v2.9h3.745zM76.666 23.738V8.658c0-.352.141-.674.383-.926l2.717-2.718a1.29 1.29 0 01.927-.382h6.271v3.634h-5.637a.902.902 0 00-.906.906v14.576h-3.755v-.01z" fill="#2C2A2D"/><path fill-rule="evenodd" clip-rule="evenodd" d="M31.921 23.738v-10.45c0-4.76-2.235-5.264-4.52-5.264-2.627 0-5.577 1.168-5.577 6.765v8.959H18.1V4.621h3.553V7.27h.715l.03-.04c.906-1.38 2.88-2.85 5.688-2.85 2.99 0 7.65 1.229 7.65 8.386v10.983h-3.815v-.01zM60.036 4.632V15.09c0 4.761 2.235 5.265 4.52 5.265 2.627 0 5.577-1.168 5.577-6.765V4.63h3.724v19.127h-3.553V21.11h-.715l-.03.04c-.906 1.38-2.88 2.849-5.688 2.849-2.99 0-7.65-1.228-7.65-8.386V4.633h3.815z" fill="#2C2A2D"/></svg><svg fill="none" viewBox="0 0 56 56" id="product-ico-1" xmlns="http://www.w3.org/2000/svg"><g clip-path="url(#aua)" fill="#2C2A2D"><path d="M28 56c15.44 0 28-12.56 28-28S43.44 0 28 0 0 12.56 0 28s12.56 28 28 28zm0-53.32c14 0 25.36 11.36 25.36 25.36S42 53.4 28 53.4 2.64 42.04 2.64 28.04 14 2.68 28 2.68z"/><path d="M14.52 39.04h4.96c1.68 0 3.32-.52 4.72-1.48l3.8-2.64 3.64 5.96c.32.56.92.88 1.56.88H38c.68 0 1.28-.36 1.6-.96.32-.6.32-1.28-.04-1.88L30.08 23.4c-.64-1.08-1.84-1.72-3.08-1.72h-4.96c-.72 0-1.44.2-2.04.64l-4.76 3.24 1.48 2.16 4.76-3.24c.16-.12.36-.16.56-.16H27c.36 0 .68.2.84.48l8.76 14.36h-2.96l-4.88-8-6.08 4.24c-.96.64-2.04 1-3.2 1h-4.2v-2.56h3.68c.88 0 1.72-.24 2.44-.76l2.72-1.84-1.48-2.16-2.72 1.84c-.28.2-.6.28-.92.28h-4.44c-1 0-1.84.84-1.84 1.84v4.12c-.08 1.08.76 1.88 1.8 1.88zm17.24-17.96c2.08 0 3.8-1.72 3.8-3.8s-1.72-3.8-3.8-3.8-3.8 1.72-3.8 3.8 1.68 3.8 3.8 3.8zm0-5.16c.72 0 1.32.6 1.32 1.32 0 .72-.6 1.32-1.32 1.32-.72 0-1.32-.6-1.32-1.32-.04-.72.56-1.32 1.32-1.32zm10.28 9.44h-7.12V28h7.12v-2.64z"/></g><defs><clipPath id="aua"><path fill="#fff" d="M0 0h56v56H0z"/></clipPath></defs></svg><svg fill="none" viewBox="0 0 140 140" id="product-ico-2" xmlns="http://www.w3.org/2000/svg"><g clip-path="url(#ava)"><path d="M69.9 136.7c36.838 0 66.7-29.863 66.7-66.7S106.738 3.3 69.9 3.3C33.063 3.3 3.2 33.163 3.2 70s29.863 66.7 66.7 66.7z" stroke="#fff" stroke-width="6.563" stroke-miterlimit="10"/><path d="M114.2 76.8l-4.2-4.2c-1.8-1.8-4.2-2.8-6.7-2.8H85.4c-1.3 0-2.5-.6-3.2-1.7L66.3 42.4l-.1-.1c-.8-1.3-2.3-2-3.8-2H55c-2.5 0-4.6 2-4.6 4.6v.6L58.6 68l3 8.5h7.1L58 46.8h3.3l15.3 24.8.1.1c1.9 2.9 5.2 4.6 8.7 4.6h17.9c.8 0 1.5.3 2.1.9l4.2 4.2c.6.6.9 1.3.9 2.1v1.3h-72c-.3 0-.7-.1-.9-.4l-5.9-6.1c-.2-.2-.3-.5-.3-.9l-.8-15.7h1.8L38.3 72c1.5 2.6 4.3 4.2 7.3 4.2h10l-2.2-6.6h-7.8c-.6 0-1.3-.3-1.6-.9l-6.5-11.3c-.8-1.4-2.3-2.3-4-2.3h-5.1c-2.5 0-4.6 2-4.6 4.6l1 17.8c0 2 .8 3.9 2.2 5.3l5.9 6.1c1.5 1.5 3.5 2.4 5.6 2.4H117v-7.9c0-2.4-1-4.8-2.8-6.6z" fill="#fff"/></g><defs><clipPath id="ava"><path fill="#fff" d="M0 0h139.9v139.9H0z"/></clipPath></defs></svg><svg fill="none" viewBox="0 0 56 56" id="product-ico-3" xmlns="http://www.w3.org/2000/svg"><path d="M24.2 18.92h-7.48v2.64h7.48v-2.64z" fill="#2C2A2D"/><path d="M28 56c15.44 0 28-12.56 28-28S43.44 0 28 0 0 12.56 0 28s12.56 28 28 28zm0-53.32c14 0 25.36 11.36 25.36 25.36S42 53.4 28 53.4 2.64 42.04 2.64 28.04 14.04 2.68 28 2.68z" fill="#2C2A2D"/><path d="M17.24 39.84c4.56 0 8.28-3.72 8.28-8.28 0-1.24-.28-2.44-.76-3.48l9-6.08c1.04-.72 1.68-1.88 1.68-3.16V15.2h-6.88v2.64h4.24v1c0 .4-.2.76-.52 1l-9 6.04a8.268 8.268 0 00-6.04-2.6c-4.56 0-8.28 3.72-8.28 8.28 0 4.56 3.72 8.28 8.28 8.28zm0-13.92c3.12 0 5.64 2.52 5.64 5.64 0 3.12-2.52 5.64-5.64 5.64-3.12 0-5.64-2.52-5.64-5.64 0-3.12 2.52-5.64 5.64-5.64zm13.24 5.64c0 4.56 3.72 8.28 8.28 8.28 4.56 0 8.28-3.72 8.28-8.28 0-4.56-3.72-8.28-8.28-8.28-4.56 0-8.28 3.72-8.28 8.28zm8.28-5.64c3.12 0 5.64 2.52 5.64 5.64 0 3.12-2.52 5.64-5.64 5.64-3.12 0-5.64-2.52-5.64-5.64 0-3.12 2.56-5.64 5.64-5.64z" fill="#2C2A2D"/></svg><svg fill="none" viewBox="0 0 56 56" id="product-ico-4" xmlns="http://www.w3.org/2000/svg"><g clip-path="url(#axa)" fill="#2C2A2D"><path d="M28.02 56C12.569 56 0 43.431 0 27.98 0 12.569 12.569 0 28.02 0c15.451 0 28.02 12.569 28.02 28.02C56 43.431 43.431 56 28.02 56zm0-53.358C14.01 2.642 2.642 14.01 2.642 28.02S14.01 53.398 28.02 53.398 53.398 42.03 53.398 28.02C53.358 14.01 41.99 2.642 28.02 2.642z"/><path d="M15.811 34.465c-.84 0-1.721-.24-2.562-.68-1.4-.721-2.562-2.002-3.242-3.563-.68-1.562-.88-3.283-.48-4.804.4-1.641 1.4-2.882 2.802-3.522 1.4-.64 3.002-.52 4.523.24 1.4.72 2.562 2.001 3.242 3.562.72 1.561.88 3.283.48 4.804-.4 1.641-1.4 2.882-2.802 3.522-.64.28-1.28.44-1.96.44zM14.25 24.097c-.32 0-.6.04-.88.2-.641.28-1.121.921-1.322 1.762-.24.96-.12 2.081.36 3.082.481 1.04 1.202 1.841 2.082 2.322.76.4 1.561.48 2.202.16.64-.28 1.12-.921 1.32-1.762.24-.96.12-2.081-.36-3.082-.48-1.04-1.2-1.841-2.081-2.322-.44-.24-.88-.36-1.321-.36zm8.606.561c-.96 0-1.922-.28-2.842-.841-1.361-.84-2.402-2.162-3.002-3.803-1.241-3.442.04-7.125 2.922-8.165 1.44-.52 3.042-.32 4.483.56 1.361.84 2.402 2.161 3.002 3.803 1.241 3.442-.04 7.125-2.922 8.165-.56.2-1.08.28-1.641.28zM21.535 14.21c-.24 0-.48.04-.72.12-1.482.52-2.082 2.722-1.322 4.764.4 1.08 1.081 1.921 1.922 2.441.76.44 1.521.56 2.201.32 1.482-.52 2.082-2.721 1.321-4.763-.4-1.08-1.08-1.921-1.921-2.441-.52-.28-1-.44-1.481-.44zm12.209 10.488c-.44 0-.84-.04-1.28-.16-1.482-.4-2.643-1.482-3.323-3.083-.6-1.44-.68-3.162-.24-4.843 1-3.523 4.162-5.764 7.125-4.924 2.922.8 4.523 4.363 3.522 7.886-.48 1.641-1.4 3.082-2.682 4.003-.96.76-2.041 1.12-3.122 1.12zm1.04-10.528c-1.36 0-2.801 1.321-3.322 3.202-.32 1.081-.28 2.202.12 3.123.32.8.921 1.36 1.602 1.56.68.2 1.44 0 2.161-.52.8-.6 1.401-1.52 1.721-2.602.6-2.121-.2-4.243-1.72-4.643-.201-.12-.361-.12-.561-.12zm5.605 20.295c-.6 0-1.201-.12-1.762-.36-2.842-1.122-4.002-4.844-2.641-8.247.64-1.6 1.76-2.922 3.122-3.682 1.48-.84 3.082-1.001 4.483-.4 2.842 1.12 4.003 4.843 2.642 8.245-.64 1.601-1.761 2.922-3.122 3.683-.88.52-1.842.76-2.722.76zm1.44-10.408c-.44 0-.96.12-1.4.4-.88.48-1.561 1.361-2.002 2.402-.8 2.041-.28 4.243 1.161 4.843.68.28 1.441.16 2.202-.24.88-.48 1.56-1.36 2.001-2.401.8-2.042.28-4.243-1.16-4.844-.28-.12-.561-.16-.801-.16z"/><path d="M20.734 44.592c-1.6 0-3.082-.56-4.163-2.562-1.961-3.683 1.001-6.725 2.802-8.526.48-.48.961-.96 1.201-1.321.72-1.04.8-1.401.92-2.162.081-.44.161-.96.401-1.68.76-2.603 3.282-4.524 6.044-4.524 2.723 0 5.284 1.921 6.045 4.523.2.72.32 1.241.4 1.681.12.76.2 1.121.92 2.162.24.36.721.8 1.202 1.32 1.76 1.802 4.763 4.844 2.802 8.527-1.802 3.362-4.724 2.682-7.326 2.081-1.28-.28-2.601-.6-4.002-.6-1.402 0-2.722.28-4.003.6-1.081.2-2.202.48-3.243.48zM27.9 26.419c-1.6 0-3.082 1.12-3.522 2.642-.16.6-.24 1.04-.32 1.4-.2 1.041-.36 1.762-1.401 3.203-.36.52-.88 1.04-1.441 1.641-2.002 2.042-3.323 3.603-2.322 5.444.76 1.441 1.521 1.441 4.403.76 1.361-.32 2.882-.64 4.564-.64 1.72 0 3.242.36 4.563.64 2.882.641 3.642.681 4.403-.76 1-1.841-.36-3.443-2.322-5.444-.56-.56-1.08-1.12-1.44-1.641-1.042-1.441-1.202-2.162-1.402-3.202-.08-.4-.16-.841-.32-1.401-.36-1.521-1.841-2.642-3.442-2.642z"/></g><defs><clipPath id="axa"><path fill="#fff" d="M0 0h56v56H0z"/></clipPath></defs></svg><svg fill="none" viewBox="0 0 141 141" id="product-ico-5" xmlns="http://www.w3.org/2000/svg"><path d="M70.38 76H59.74a9.59 9.59 0 00-6.78 2.81l-6.31 6.31a9.59 9.59 0 00-2.81 6.78v12.93m53.09.01V91.91a9.59 9.59 0 00-2.81-6.78l-6.31-6.31a9.59 9.59 0 00-6.78-2.81H70.38m0 15.63h14.15m53.09-20.69c0 36.821-29.849 66.67-66.67 66.67S4.28 107.771 4.28 70.95c0-36.82 29.849-66.67 66.67-66.67s66.67 29.85 66.67 66.67zM83.38 50.79c0 7.18-5.82 13-13 13s-13-5.82-13-13 5.82-13 13-13 13 5.82 13 13z" stroke="#FFF" stroke-width="6.563" stroke-miterlimit="10"/></svg><svg fill="none" viewBox="0 0 142 142" id="product-ico-6" xmlns="http://www.w3.org/2000/svg"><g clip-path="url(#azclip0_809_1086)"><path fill-rule="evenodd" clip-rule="evenodd" d="M90.2 70.52c-3.32-.42-6.5-.81-6.5-3.38 0-.31-.12-3.93 5.98-3.93 6.29 0 6.73 4.43 6.73 4.43h6.04l-.13-1.08c-.19-1.62-1.68-8.19-13.18-8.19-1.2 0-11.45.38-11.45 9.17 0 4.08 1.66 7 10.88 8.02 7.91.87 8.28 2.86 8.28 3.83 0 3.48-2.87 4.35-6.47 4.35-4.72 0-6.49-2.37-7.02-3.94L83 78.72h-6.03v.55c0 .92.67 9.31 13.75 9.31 9.15 0 12.29-5.19 12.29-9.37 0-3.64-1.54-7.48-12.81-8.69zM26.31 60.28v6.28c0 .73.6 1.33 1.33 1.33h17.03v5.55H27.64c-.73 0-1.33.6-1.33 1.33v6.55c0 .73.6 1.33 1.33 1.33H44.8v5.54H20.38V59.51c0-.59.23-1.15.65-1.57l4.17-4.16c.42-.42.98-.65 1.57-.65H44.8v5.81H27.64c-.74.01-1.33.6-1.33 1.34z" fill="#000"/><path d="M120.64 58.76v5.84h-8.34c-.73 0-1.33.6-1.33 1.33V88.2h-6.02V65.07c0-.59.23-1.15.65-1.57l4.1-4.1c.42-.42.98-.65 1.57-.65h9.37v.01z" fill="#000"/><path fill-rule="evenodd" clip-rule="evenodd" d="M63.32 58.36c-4.52 0-7.47 2.41-8.79 4.41h-.85v-4.03h-5.72V88.2h5.99V74.39c0-7.8 3.82-10.16 8.35-10.16 2.3 0 4.27.81 5.47 2.91 1.18 2.07 1.27 2.49 1.27 12.29v8.77h6.08V71.3c-.1-4.17-1.16-12.94-11.8-12.94z" fill="#000"/><path d="M70.65 138.02c37.207 0 67.37-30.163 67.37-67.37 0-37.207-30.163-67.37-67.37-67.37-37.208 0-67.37 30.163-67.37 67.37 0 37.207 30.162 67.37 67.37 67.37z" stroke="#000" stroke-width="6.563" stroke-miterlimit="10"/></g><defs><clipPath id="azclip0_809_1086"><path fill="#fff" d="M0 0h141.3v141.3H0z"/></clipPath></defs></svg><svg fill="none" viewBox="0 0 140 140" id="product-ico-7" xmlns="http://www.w3.org/2000/svg"><path fill-rule="evenodd" clip-rule="evenodd" d="M69.95 6.356c-35.122 0-63.595 28.472-63.595 63.594s28.473 63.594 63.595 63.594 63.594-28.472 63.594-63.594S105.072 6.356 69.95 6.356zM.204 69.95C.204 31.43 31.43.204 69.95.204c38.519 0 69.745 31.226 69.745 69.746 0 38.519-31.226 69.746-69.745 69.746-38.52 0-69.746-31.227-69.746-69.746zM80.23 41.616a3.614 3.614 0 100 7.228 3.614 3.614 0 000-7.228zm-9.766 3.614c0-5.393 4.372-9.766 9.766-9.766 5.393 0 9.765 4.373 9.765 9.766s-4.372 9.766-9.765 9.766c-5.394 0-9.766-4.373-9.766-9.766zm-20.57-1.786a6.421 6.421 0 015.696-3.46c2.411 0 4.578 1.358 5.686 3.442l.004.008 14.166 26.843 3.16-5.7.003-.006c1.322-2.397 3.867-3.827 6.56-3.827h5.99c2.695 0 5.24 1.43 6.563 3.828l.002.004L113.92 93.82l-5.381 2.98-16.2-29.25-.003-.006c-.198-.36-.632-.648-1.176-.648h-5.99c-.544 0-.978.288-1.176.648l-.004.007L67.78 96.8l-5.38-2.982 9.484-17.114-16.04-30.392-.001-.001c-.072-.135-.185-.176-.253-.176a.27.27 0 00-.24.148l-.005.01L28.73 96.746l-5.44-2.87 26.599-50.42.006-.011z" fill="#fff"/></svg><svg viewBox="0 0 121 93" id="quote" xmlns="http://www.w3.org/2000/svg"><path d="M35.142 92.605L3.317 59.424C1.207 57.162 0 54.145 0 51.129V22.925c0-3.017 1.056-6.033 3.016-8.295l9.05-10.407C14.328 1.508 17.797 0 21.266 0H49.62c3.771 0 6.787 3.016 6.787 6.938v39.666c0 3.77-3.016 6.938-6.787 6.938H26.997v-9.954h19.607V9.954H21.266c-.603 0-1.207.302-1.66.754l-9.049 10.407c-.452.453-.603 1.056-.603 1.81v28.204c0 .603.151 1.055.603 1.508l31.824 33.18-7.24 6.788zm64.099 0L67.418 59.424c-2.112-2.262-3.318-5.279-3.318-8.295V22.925c0-3.017 1.055-6.033 3.016-8.295l9.05-10.407C78.427 1.508 81.895 0 85.365 0h28.354c3.771 0 6.787 3.016 6.787 6.938v39.666c0 3.77-3.016 6.938-6.787 6.938H91.097v-9.954h19.607V9.954H85.366c-.604 0-1.207.302-1.66.754l-9.049 10.407c-.452.453-.603 1.056-.603 1.81v28.204c0 .603.15 1.055.603 1.508l31.824 33.18-7.24 6.788z"/></svg><svg fill="none" viewBox="0 0 40 39" id="rating-app-store" xmlns="http://www.w3.org/2000/svg"><g filter="url(#bca)"><rect x="4" y="3.5" width="32" height="32" rx="7" fill="#1877F2"/><rect x="4" y="3.5" width="32" height="32" rx="7" fill="url(#bcb)"/><path d="M20.15 12.49l.52-.9a1.17 1.17 0 112.03 1.17l-5.015 8.68h3.627c1.176 0 1.835 1.382 1.324 2.34H12.002c-.65 0-1.17-.521-1.17-1.17 0-.65.52-1.17 1.17-1.17h2.98l3.818-6.615-1.192-2.069a1.173 1.173 0 012.03-1.17l.511.903zm-4.512 12.494l-1.124 1.95a1.171 1.171 0 11-2.03-1.17l.835-1.445c.944-.293 1.712-.068 2.32.665zm9.684-3.537h3.042c.65 0 1.17.52 1.17 1.17 0 .648-.52 1.169-1.17 1.169h-1.69l1.14 1.979a1.172 1.172 0 01-2.03 1.17c-1.92-3.332-3.363-5.826-4.32-7.487-.98-1.69-.28-3.386.41-3.961.768 1.317 1.915 3.306 3.448 5.96z" fill="#fff"/></g><defs><linearGradient id="bcb" x1="20" y1="3.5" x2="20" y2="35.5" gradientUnits="userSpaceOnUse"><stop stop-color="#18BFFB"/><stop offset="1" stop-color="#2072F3"/></linearGradient><filter id="bca" x=".983" y=".483" width="38.033" height="38.033" filterUnits="userSpaceOnUse" color-interpolation-filters="sRGB"><feFlood flood-opacity="0" result="BackgroundImageFix"/><feColorMatrix in="SourceAlpha" values="0 0 0 0 0 0 0 0 0 0 0 0 0 0 0 0 0 0 127 0" result="hardAlpha"/><feOffset/><feGaussianBlur stdDeviation="1.508"/><feColorMatrix values="0 0 0 0 0 0 0 0 0 0 0 0 0 0 0 0 0 0 0.05 0"/><feBlend in2="BackgroundImageFix" result="effect1_dropShadow_159_3193"/><feBlend in="SourceGraphic" in2="effect1_dropShadow_159_3193" result="shape"/></filter></defs></svg><svg fill="none" viewBox="0 0 39 39" id="rating-google-store" xmlns="http://www.w3.org/2000/svg"><g filter="url(#bdfilter0_d_159_3216)"><rect x="3.5" y="3.5" width="32" height="32" rx="7" fill="#fff"/><path fill-rule="evenodd" clip-rule="evenodd" d="M13.292 12.252c-.185.199-.292.504-.292.902V27.3c0 .399.107.704.298.895l.05.043 7.925-7.925v-.177l-7.932-7.927-.05.044z" fill="url(#bdpaint0_linear_159_3216)"/><path fill-rule="evenodd" clip-rule="evenodd" d="M23.909 22.962l-2.643-2.643v-.185l2.643-2.643.057.035 3.127 1.777c.895.504.895 1.337 0 1.847l-3.127 1.777-.057.035z" fill="url(#bdpaint1_linear_159_3216)"/><path fill-rule="evenodd" clip-rule="evenodd" d="M23.966 22.927l-2.7-2.7L13.29 28.2c.292.312.782.347 1.329.043l9.346-5.317z" fill="url(#bdpaint2_linear_159_3216)"/><path fill-rule="evenodd" clip-rule="evenodd" d="M23.966 17.526l-9.346-5.309c-.547-.313-1.039-.27-1.329.043l7.974 7.967 2.701-2.701z" fill="url(#bdpaint3_linear_159_3216)"/><path opacity=".2" fill-rule="evenodd" clip-rule="evenodd" d="M23.91 22.87l-9.282 5.273c-.519.299-.981.278-1.28.007l-.05.05.05.042c.299.27.761.292 1.28-.006l9.346-5.309-.064-.057z" fill="#2C2A2D"/><path opacity=".12" fill-rule="evenodd" clip-rule="evenodd" d="M27.092 21.057L23.9 22.87l.058.058 3.126-1.777c.449-.255.669-.59.669-.924-.027.306-.255.597-.66.831z" fill="#2C2A2D"/><path opacity=".25" fill-rule="evenodd" clip-rule="evenodd" d="M14.62 12.31l12.474 7.085c.405.228.633.527.668.831 0-.333-.22-.668-.668-.923L14.62 12.217c-.895-.512-1.621-.085-1.621.938v.092c0-1.024.726-1.443 1.62-.938z" fill="#fff"/><rect x="3.5" y="3.5" width="32" height="32" rx="7" stroke="#F8F8F8"/></g><defs><linearGradient id="bdpaint0_linear_159_3216" x1="20.562" y1="13.002" x2="7.867" y2="16.384" gradientUnits="userSpaceOnUse"><stop stop-color="#00A0FF"/><stop offset=".007" stop-color="#00A1FF"/><stop offset=".26" stop-color="#00BEFF"/><stop offset=".512" stop-color="#00D2FF"/><stop offset=".76" stop-color="#00DFFF"/><stop offset="1" stop-color="#00E3FF"/></linearGradient><linearGradient id="bdpaint1_linear_159_3216" x1="28.26" y1="20.227" x2="12.782" y2="20.227" gradientUnits="userSpaceOnUse"><stop stop-color="#FFE000"/><stop offset=".409" stop-color="#FFBD00"/><stop offset=".775" stop-color="orange"/><stop offset="1" stop-color="#FF9C00"/></linearGradient><linearGradient id="bdpaint2_linear_159_3216" x1="22.498" y1="21.696" x2="12.307" y2="38.848" gradientUnits="userSpaceOnUse"><stop stop-color="#FF3A44"/><stop offset="1" stop-color="#C31162"/></linearGradient><linearGradient id="bdpaint3_linear_159_3216" x1="11.283" y1="7.547" x2="15.83" y2="15.208" gradientUnits="userSpaceOnUse"><stop stop-color="#32A071"/><stop offset=".069" stop-color="#2DA771"/><stop offset=".476" stop-color="#15CF74"/><stop offset=".801" stop-color="#06E775"/><stop offset="1" stop-color="#00F076"/></linearGradient><filter id="bdfilter0_d_159_3216" x=".483" y=".483" width="38.033" height="38.033" filterUnits="userSpaceOnUse" color-interpolation-filters="sRGB"><feFlood flood-opacity="0" result="BackgroundImageFix"/><feColorMatrix in="SourceAlpha" values="0 0 0 0 0 0 0 0 0 0 0 0 0 0 0 0 0 0 127 0" result="hardAlpha"/><feOffset/><feGaussianBlur stdDeviation="1.508"/><feColorMatrix values="0 0 0 0 0 0 0 0 0 0 0 0 0 0 0 0 0 0 0.05 0"/><feBlend in2="BackgroundImageFix" result="effect1_dropShadow_159_3216"/><feBlend in="SourceGraphic" in2="effect1_dropShadow_159_3216" result="shape"/></filter></defs></svg><svg fill="none" viewBox="0 0 21 20" id="star" xmlns="http://www.w3.org/2000/svg"><path d="M11.395 1.55l2.064 4.492c.09.27.359.449.628.539l4.666.718c.808 0 1.077.899.539 1.438l-3.41 3.503c-.18.18-.27.539-.27.808l.808 4.85c.09.72-.628 1.348-1.256.989l-4.218-2.336c-.269-.18-.538-.18-.807 0L5.92 18.887c-.628.359-1.435-.18-1.256-.989l.808-4.85c.09-.27-.09-.629-.27-.808l-3.41-3.503c-.448-.54-.179-1.438.539-1.527l4.666-.719c.27 0 .539-.27.628-.539L9.69 1.461c.449-.629 1.346-.629 1.705.09z" fill="#2C2A2D"/></svg><svg fill="none" viewBox="0 0 140 140" id="success-form" xmlns="http://www.w3.org/2000/svg"><path d="M70 0C31.4 0 0 31.4 0 70s31.4 70 70 70 70-31.4 70-70S108.5 0 70 0zm0 133.3c-35 0-63.4-28.4-63.4-63.4S35 6.6 70 6.6 133.3 35 133.3 70s-28.4 63.3-63.3 63.3z" fill="#E0D3FF"/><path d="M63.4 77.9l-9.8-9.8-4.6 4.6 9.8 9.8c1.6 1.6 3.7 2.4 5.9 2.4s4.3-.9 5.9-2.4l27.9-27.9-4.6-4.6-28 27.9c-.7.7-1.9.7-2.5 0z" fill="#E0D3FF"/></svg><svg viewBox="0 0 15 16" id="tiktok" xmlns="http://www.w3.org/2000/svg"><path d="M12.617 3.423a4.388 4.388 0 01-.32-.183 4.588 4.588 0 01-.818-.687 3.806 3.806 0 01-.921-1.88h.003C10.497.263 10.524 0 10.53 0H7.758v10.626c0 .143 0 .283-.007.423 0 .017 0 .034-.003.054v.03a2.34 2.34 0 01-2.332 2.153 2.335 2.335 0 01-2.338-2.333 2.335 2.335 0 013.058-2.22l.004-2.797a5.183 5.183 0 00-3.97 1.15 5.38 5.38 0 00-1.188 1.45c-.118.2-.559 1.004-.612 2.307-.034.74.191 1.506.299 1.823v.007c.067.186.326.823.754 1.36.343.43.747.81 1.2 1.123v-.007l.008.007c1.342.903 2.833.843 2.833.843.259-.01 1.12 0 2.102-.46 1.087-.51 1.706-1.27 1.706-1.27a5.22 5.22 0 00.929-1.53 5.653 5.653 0 00.336-1.75V5.35c.034.02.481.314.481.314s.646.41 1.652.677c.724.19 1.696.23 1.696.23V3.843c-.346.037-1.04-.07-1.75-.42z"/></svg><svg viewBox="0 0 17 14" id="twitter" xmlns="http://www.w3.org/2000/svg"><path d="M9.877.36a3.375 3.375 0 012.106-.308c.716.122 1.384.49 1.883 1.018a7.265 7.265 0 002.138-.823 3.323 3.323 0 01-1.479 1.872 7.077 7.077 0 001.93-.534c-.446.7-1.04 1.296-1.704 1.79.057.829-.037 1.664-.213 2.475-.455 2.039-1.552 3.942-3.137 5.31a8.906 8.906 0 01-2.522 1.542c-1.378.557-2.887.763-4.367.667A9.549 9.549 0 010 11.87c1.27.133 2.58-.06 3.733-.615a6.86 6.86 0 001.264-.784 3.363 3.363 0 01-2.038-.744 3.427 3.427 0 01-1.108-1.6 3.759 3.759 0 001.52-.061 3.4 3.4 0 01-2.06-1.357 3.46 3.46 0 01-.634-2c.466.253.99.408 1.521.413-.73-.524-1.27-1.325-1.443-2.21-.158-.784.025-1.607.416-2.296a9.647 9.647 0 004.422 3.057c.81.269 1.658.421 2.51.46a3.433 3.433 0 01.22-2.153A3.397 3.397 0 019.877.361z"/></svg><svg fill="none" viewBox="0 0 20 21" id="uk" xmlns="http://www.w3.org/2000/svg"><g clip-path="url(#bia)"><path d="M10 20.5c5.523 0 10-4.477 10-10S15.523.5 10 .5 0 4.977 0 10.5s4.477 10 10 10z" fill="#F0F0F0"/><path d="M2.067 4.412a9.963 9.963 0 00-1.722 3.48h5.202l-3.48-3.48zm17.588 3.479a9.964 9.964 0 00-1.722-3.48l-3.48 3.48h5.202zM.345 13.109a9.965 9.965 0 001.722 3.48l3.48-3.48H.345zM16.088 2.567a9.964 9.964 0 00-3.48-1.722v5.202l3.48-3.48zM3.912 18.433a9.964 9.964 0 003.48 1.722v-5.202l-3.48 3.48zM7.391.845a9.964 9.964 0 00-3.48 1.722l3.48 3.48V.845zm5.218 19.31a9.964 9.964 0 003.48-1.722l-3.48-3.48v5.202zm1.844-7.046l3.48 3.48a9.963 9.963 0 001.722-3.48h-5.202z" fill="#0052B4"/><path d="M19.915 9.196h-8.61V.585a10.1 10.1 0 00-2.61 0v8.61H.086a10.1 10.1 0 000 2.61h8.61v8.61a10.114 10.114 0 002.61 0v-8.61h8.61a10.115 10.115 0 000-2.61z" fill="#D80027"/><path d="M12.609 13.109l4.462 4.462c.205-.205.401-.42.588-.642l-3.82-3.82h-1.23zm-5.218 0L2.929 17.57c.205.205.42.401.642.588l3.82-3.82v-1.23zm0-5.218L2.93 3.43c-.205.205-.4.42-.588.642l3.82 3.82h1.23zm5.218 0L17.07 3.43c-.205-.205-.42-.4-.642-.588l-3.82 3.82v1.23z" fill="#D80027"/></g><defs><clipPath id="bia"><path fill="#fff" transform="translate(0 .5)" d="M0 0h20v20H0z"/></clipPath></defs></svg><svg viewBox="0 0 20 15" id="youtube" xmlns="http://www.w3.org/2000/svg"><path fill-rule="evenodd" clip-rule="evenodd" d="M17.97.456c.862.23 1.365.959 1.595 1.82C19.982 3.838 20 7.06 20 7.06s-.018 3.22-.435 4.782c-.23.862-.733 1.591-1.594 1.82-1.562.418-7.971.457-7.971.457s-6.409-.039-7.97-.456c-.862-.23-1.365-.96-1.595-1.82C.018 10.278 0 7.058 0 7.058s.018-3.22.435-4.783c.233-.861.733-1.59 1.594-1.82C3.591.038 10 0 10 0s6.409.038 7.97.456zM7.942 4.118l5.294 2.94L7.941 10V4.118z"/></svg></svg>