<svg width="21" height="20" fill="none" xmlns="http://www.w3.org/2000/svg"><path d="M11.395 1.55l2.064 4.492c.09.27.359.449.628.539l4.666.718c.808 0 1.077.899.539 1.438l-3.41 3.503c-.18.18-.27.539-.27.808l.808 4.85c.09.72-.628 1.348-1.256.989l-4.218-2.336c-.269-.18-.538-.18-.807 0L5.92 18.887c-.628.359-1.435-.18-1.256-.989l.808-4.85c.09-.27-.09-.629-.27-.808l-3.41-3.503c-.448-.54-.179-1.438.539-1.527l4.666-.719c.27 0 .539-.27.628-.539L9.69 1.461c.449-.629 1.346-.629 1.705.09z" fill="#2C2A2D"/></svg>