<svg width="15" height="16" xmlns="http://www.w3.org/2000/svg"><path d="M12.617 3.423a4.388 4.388 0 0 1-.32-.183 4.588 4.588 0 0 1-.818-.687 3.806 3.806 0 0 1-.921-1.88h.003C10.497.263 10.524 0 10.53 0H7.758v10.626c0 .143 0 .283-.007.423 0 .017 0 .034-.003.054v.03a2.34 2.34 0 0 1-2.332 2.153 2.335 2.335 0 0 1-2.338-2.333 2.335 2.335 0 0 1 3.058-2.22l.004-2.797a5.183 5.183 0 0 0-3.97 1.15 5.38 5.38 0 0 0-1.188 1.45c-.118.2-.559 1.004-.612 2.307-.034.74.191 1.506.299 1.823v.007c.067.186.326.823.754 1.36.343.43.747.81 1.2 1.123v-.007l.008.007c1.342.903 2.833.843 2.833.843.259-.01 1.12 0 2.102-.46 1.087-.51 1.706-1.27 1.706-1.27a5.22 5.22 0 0 0 .929-1.53 5.653 5.653 0 0 0 .336-1.75V5.35c.034.02.481.314.481.314s.646.41 1.652.677c.724.19 1.696.23 1.696.23V3.843c-.346.037-1.04-.07-1.75-.42Z"/></svg>