<svg width="17" height="14" xmlns="http://www.w3.org/2000/svg"><path d="M9.877.36a3.375 3.375 0 012.106-.308c.716.122 1.384.49 1.883 1.018a7.265 7.265 0 002.138-.823 3.323 3.323 0 01-1.479 1.872 7.077 7.077 0 001.93-.534c-.446.7-1.04 1.296-1.704 1.79.057.829-.037 1.664-.213 2.475-.455 2.039-1.552 3.942-3.137 5.31a8.906 8.906 0 01-2.522 1.542c-1.378.557-2.887.763-4.367.667A9.549 9.549 0 010 11.87c1.27.133 2.58-.06 3.733-.615a6.86 6.86 0 001.264-.784 3.363 3.363 0 01-2.038-.744 3.427 3.427 0 01-1.108-1.6 3.759 3.759 0 001.52-.061 3.4 3.4 0 01-2.06-1.357 3.46 3.46 0 01-.634-2c.466.253.99.408 1.521.413-.73-.524-1.27-1.325-1.443-2.21-.158-.784.025-1.607.416-2.296a9.647 9.647 0 004.422 3.057c.81.269 1.658.421 2.51.46a3.433 3.433 0 01.22-2.153A3.397 3.397 0 019.877.361z"/></svg>