<svg width="20" height="21" fill="none" xmlns="http://www.w3.org/2000/svg"><g clip-path="url(#a)"><path d="M10 20.5c5.523 0 10-4.477 10-10S15.523.5 10 .5 0 4.977 0 10.5s4.477 10 10 10Z" fill="#F0F0F0"/><path d="M2.067 4.412a9.963 9.963 0 0 0-1.722 3.48h5.202l-3.48-3.48ZM19.655 7.891a9.964 9.964 0 0 0-1.722-3.48l-3.48 3.48h5.202ZM.345 13.109a9.965 9.965 0 0 0 1.722 3.48l3.48-3.48H.345ZM16.088 2.567a9.964 9.964 0 0 0-3.48-1.722v5.202l3.48-3.48ZM3.912 18.433a9.964 9.964 0 0 0 3.48 1.722v-5.202l-3.48 3.48ZM7.391.845a9.964 9.964 0 0 0-3.48 1.722l3.48 3.48V.845ZM12.609 20.155a9.964 9.964 0 0 0 3.48-1.722l-3.48-3.48v5.202ZM14.453 13.109l3.48 3.48a9.963 9.963 0 0 0 1.722-3.48h-5.202Z" fill="#0052B4"/><path d="M19.915 9.196h-8.61V.585a10.1 10.1 0 0 0-2.61 0v8.61H.086a10.1 10.1 0 0 0 0 2.61h8.61v8.61a10.114 10.114 0 0 0 2.61 0v-8.61h8.61a10.115 10.115 0 0 0 0-2.61Z" fill="#D80027"/><path d="m12.609 13.109 4.462 4.462c.205-.205.401-.42.588-.642l-3.82-3.82h-1.23ZM7.391 13.109 2.929 17.57c.205.205.42.401.642.588l3.82-3.82v-1.23ZM7.391 7.891 2.93 3.43c-.205.205-.4.42-.588.642l3.82 3.82h1.23ZM12.609 7.891 17.07 3.43c-.205-.205-.42-.4-.642-.588l-3.82 3.82v1.23Z" fill="#D80027"/></g><defs><clipPath id="a"><path fill="#fff" transform="translate(0 .5)" d="M0 0h20v20H0z"/></clipPath></defs></svg>